<svg version="1.1" xmlns="http://www.w3.org/2000/svg" xmlns:xlink="http://www.w3.org/1999/xlink" width="3207" height="1492"><defs/><g><g transform="translate(5,2) scale(1,1)"><path fill="none" stroke="#000000" d="M 5 8 L 3192 8 L 3192 1472 L 5 1472 L 5 8" stroke-miterlimit="10"/></g><g transform="translate(5,2) scale(1,1)"><path fill="#ffffff" stroke="none" d="M 5 8 L 5 30 L 233 30 L 244 19 L 244 8 L 5 8"/></g><g transform="translate(5,2) scale(1,1)"><path fill="none" stroke="#000000" d="M 5 8 L 5 30 L 233 30 L 244 19 L 244 8 L 5 8 L 5 8" stroke-miterlimit="10"/></g><g transform="translate(5,2) scale(1,1)"><g><path fill="none" stroke="none"/><text fill="#000000" stroke="none" font-family="Arial" font-size="13px" font-style="normal" font-weight="normal" text-decoration="none" x="76" y="25.5">Add instrument to session</text></g></g><g transform="translate(5,2) scale(1,1)"><g><path fill="none" stroke="none"/><text fill="#000000" stroke="none" font-family="Arial" font-size="13px" font-style="normal" font-weight="bold" text-decoration="none" x="10" y="25.5">interaction</text></g></g><g transform="translate(5,2) scale(1,1)"><rect fill="#C0C0C0" stroke="none" x="23" y="47" width="167" height="39" opacity="0.2"/></g><g transform="translate(5,2) scale(1,1)"><rect fill="#ffffff" stroke="none" x="16" y="40" width="167" height="39"/></g><g transform="translate(5,2) scale(1,1)"><path fill="none" stroke="#000000" d="M 16 40 L 183 40 L 183 79 L 16 79 L 16 40 Z Z" stroke-miterlimit="10"/></g><g transform="translate(5,2) scale(1,1)"><g><path fill="none" stroke="none"/><text fill="#000000" stroke="none" font-family="Arial" font-size="13px" font-style="normal" font-weight="normal" text-decoration="none" x="41.5" y="57.5">«React component»</text></g></g><g transform="translate(5,2) scale(1,1)"><g><path fill="none" stroke="none"/><text fill="#000000" stroke="none" font-family="Arial" font-size="13px" font-style="normal" font-weight="bold" text-decoration="none" x="30.5" y="72.5">: SessionViewContainer</text></g></g><g transform="translate(5,2) scale(1,1)"><path fill="none" stroke="#000000" d="M 100.5 80 L 100.5 1464" stroke-miterlimit="10" stroke-dasharray="3"/></g><g transform="translate(5,2) scale(1,1)"><rect fill="#C0C0C0" stroke="none" x="311" y="47" width="135" height="39" opacity="0.2"/></g><g transform="translate(5,2) scale(1,1)"><rect fill="#ffffff" stroke="none" x="304" y="40" width="135" height="39"/></g><g transform="translate(5,2) scale(1,1)"><path fill="none" stroke="#000000" d="M 304 40 L 439 40 L 439 79 L 304 79 L 304 40 Z Z" stroke-miterlimit="10"/></g><g transform="translate(5,2) scale(1,1)"><g><path fill="none" stroke="none"/><text fill="#000000" stroke="none" font-family="Arial" font-size="13px" font-style="normal" font-weight="normal" text-decoration="none" x="313.5" y="57.5">«React component»</text></g></g><g transform="translate(5,2) scale(1,1)"><g><path fill="none" stroke="none"/><text fill="#000000" stroke="none" font-family="Arial" font-size="13px" font-style="normal" font-weight="bold" text-decoration="none" x="330" y="72.5">: SessionView</text></g></g><g transform="translate(5,2) scale(1,1)"><path fill="none" stroke="#000000" d="M 372.5 80 L 372.5 1464" stroke-miterlimit="10" stroke-dasharray="3"/></g><g transform="translate(5,2) scale(1,1)"><path fill="#000000" stroke="none" d="M 144 231.5 C 144 227.6340064 147.1340064 224.5 151 224.5 C 154.8659936 224.5 158 227.6340064 158 231.5 C 158 235.3659936 154.8659936 238.5 151 238.5 C 147.1340064 238.5 144 235.3659936 144 231.5 Z"/></g><g transform="translate(5,2) scale(1,1)"><path fill="#ffffff" stroke="none" d="M 913 60 C 913 51.1634432 920.1634432 44 929 44 C 937.8365568 44 945 51.1634432 945 60 C 945 68.8365568 937.8365568 76 929 76 C 920.1634432 76 913 68.8365568 913 60 Z"/></g><g transform="translate(5,2) scale(1,1)"><path fill="none" stroke="#000000" d="M 913 60 C 913 51.1634432 920.1634432 44 929 44 C 937.8365568 44 945 51.1634432 945 60 C 945 68.8365568 937.8365568 76 929 76 C 920.1634432 76 913 68.8365568 913 60 Z" stroke-miterlimit="10"/></g><g transform="translate(5,2) scale(1,1)"><path fill="none" stroke="#000000" d="M 905 44 L 905 76" stroke-miterlimit="10"/></g><g transform="translate(5,2) scale(1,1)"><path fill="none" stroke="#000000" d="M 905 60 L 913 60" stroke-miterlimit="10"/></g><g transform="translate(5,2) scale(1,1)"><g><path fill="none" stroke="none"/><text fill="#000000" stroke="none" font-family="Arial" font-size="13px" font-style="normal" font-weight="bold" text-decoration="none" x="879" y="99.5">: InstrumentAPI</text></g></g><g transform="translate(5,2) scale(1,1)"><path fill="none" stroke="#000000" d="M 926.5 105 L 926.5 1464" stroke-miterlimit="10" stroke-dasharray="3"/></g><g transform="translate(5,2) scale(1,1)"><path fill="#ffffff" stroke="none" d="M 1629 60 C 1629 51.1634432 1636.1634432 44 1645 44 C 1653.8365568 44 1661 51.1634432 1661 60 C 1661 68.8365568 1653.8365568 76 1645 76 C 1636.1634432 76 1629 68.8365568 1629 60 Z"/></g><g transform="translate(5,2) scale(1,1)"><path fill="none" stroke="#000000" d="M 1629 60 C 1629 51.1634432 1636.1634432 44 1645 44 C 1653.8365568 44 1661 51.1634432 1661 60 C 1661 68.8365568 1653.8365568 76 1645 76 C 1636.1634432 76 1629 68.8365568 1629 60 Z" stroke-miterlimit="10"/></g><g transform="translate(5,2) scale(1,1)"><path fill="none" stroke="#000000" d="M 1621 44 L 1621 76" stroke-miterlimit="10"/></g><g transform="translate(5,2) scale(1,1)"><path fill="none" stroke="#000000" d="M 1621 60 L 1629 60" stroke-miterlimit="10"/></g><g transform="translate(5,2) scale(1,1)"><g><path fill="none" stroke="none"/><text fill="#000000" stroke="none" font-family="Arial" font-size="13px" font-style="normal" font-weight="bold" text-decoration="none" x="1578.5" y="99.5">: InstrumentController</text></g></g><g transform="translate(5,2) scale(1,1)"><path fill="none" stroke="#000000" d="M 1642.5 105 L 1642.5 1464" stroke-miterlimit="10" stroke-dasharray="3"/></g><g transform="translate(5,2) scale(1,1)"><path fill="#000000" stroke="none" d="M 1312 319.5 C 1312 315.6340064 1315.1340064 312.5 1319 312.5 C 1322.8659936 312.5 1326 315.6340064 1326 319.5 C 1326 323.3659936 1322.8659936 326.5 1319 326.5 C 1315.1340064 326.5 1312 323.3659936 1312 319.5 Z"/></g><g transform="translate(5,2) scale(1,1)"><path fill="#000000" stroke="none" d="M 1352 319.5 C 1352 315.6340064 1355.1340064 312.5 1359 312.5 C 1362.8659936 312.5 1366 315.6340064 1366 319.5 C 1366 323.3659936 1362.8659936 326.5 1359 326.5 C 1355.1340064 326.5 1352 323.3659936 1352 319.5 Z"/></g><g transform="translate(5,2) scale(1,1)"><rect fill="#C0C0C0" stroke="none" x="2719" y="47" width="116" height="39" opacity="0.2"/></g><g transform="translate(5,2) scale(1,1)"><rect fill="#ffffff" stroke="none" x="2712" y="40" width="116" height="39"/></g><g transform="translate(5,2) scale(1,1)"><path fill="none" stroke="#000000" d="M 2712 40 L 2828 40 L 2828 79 L 2712 79 L 2712 40 Z Z" stroke-miterlimit="10"/></g><g transform="translate(5,2) scale(1,1)"><g><path fill="none" stroke="none"/><text fill="#000000" stroke="none" font-family="Arial" font-size="13px" font-style="normal" font-weight="normal" text-decoration="none" x="2739" y="57.5">«lifecycle»</text></g></g><g transform="translate(5,2) scale(1,1)"><g><path fill="none" stroke="none"/><text fill="#000000" stroke="none" font-family="Arial" font-size="13px" font-style="normal" font-weight="bold" text-decoration="none" x="2724" y="72.5">: EntityManager</text></g></g><g transform="translate(5,2) scale(1,1)"><path fill="none" stroke="#000000" d="M 2771.5 80 L 2771.5 1464" stroke-miterlimit="10" stroke-dasharray="3"/></g><g transform="translate(5,2) scale(1,1)"><rect fill="#C0C0C0" stroke="none" x="2855" y="47" width="161" height="39" opacity="0.2"/></g><g transform="translate(5,2) scale(1,1)"><rect fill="#ffffff" stroke="none" x="2848" y="40" width="161" height="39"/></g><g transform="translate(5,2) scale(1,1)"><path fill="none" stroke="#000000" d="M 2848 40 L 3009 40 L 3009 79 L 2848 79 L 2848 40 Z Z" stroke-miterlimit="10"/></g><g transform="translate(5,2) scale(1,1)"><g><path fill="none" stroke="none"/><text fill="#000000" stroke="none" font-family="Arial" font-size="13px" font-style="normal" font-weight="normal" text-decoration="none" x="2897.5" y="57.5">«lifecycle»</text></g></g><g transform="translate(5,2) scale(1,1)"><g><path fill="none" stroke="none"/><text fill="#000000" stroke="none" font-family="Arial" font-size="13px" font-style="normal" font-weight="bold" text-decoration="none" x="2862.5" y="72.5">: InstrumentRepository</text></g></g><g transform="translate(5,2) scale(1,1)"><path fill="none" stroke="#000000" d="M 2929.5 80 L 2929.5 1464" stroke-miterlimit="10" stroke-dasharray="3"/></g><g transform="translate(5,2) scale(1,1)"><rect fill="#C0C0C0" stroke="none" x="567" y="47" width="167" height="39" opacity="0.2"/></g><g transform="translate(5,2) scale(1,1)"><rect fill="#ffffff" stroke="none" x="560" y="40" width="167" height="39"/></g><g transform="translate(5,2) scale(1,1)"><path fill="none" stroke="#000000" d="M 560 40 L 727 40 L 727 79 L 560 79 L 560 40 Z Z" stroke-miterlimit="10"/></g><g transform="translate(5,2) scale(1,1)"><g><path fill="none" stroke="none"/><text fill="#000000" stroke="none" font-family="Arial" font-size="13px" font-style="normal" font-weight="normal" text-decoration="none" x="585.5" y="57.5">«React component»</text></g></g><g transform="translate(5,2) scale(1,1)"><g><path fill="none" stroke="none"/><text fill="#000000" stroke="none" font-family="Arial" font-size="13px" font-style="normal" font-weight="bold" text-decoration="none" x="579.5" y="72.5">: SelectInstrumentList</text></g></g><g transform="translate(5,2) scale(1,1)"><path fill="none" stroke="#000000" d="M 644.5 80 L 644.5 1464" stroke-miterlimit="10" stroke-dasharray="3"/></g><g transform="translate(5,2) scale(1,1)"><path fill="#000000" stroke="none" d="M 400 655.5 C 400 651.6340064 403.1340064 648.5 407 648.5 C 410.8659936 648.5 414 651.6340064 414 655.5 C 414 659.3659936 410.8659936 662.5 407 662.5 C 403.1340064 662.5 400 659.3659936 400 655.5 Z"/></g><g transform="translate(5,2) scale(1,1)"><path fill="#000000" stroke="none" d="M 400 706.5 C 400 702.6340064 403.1340064 699.5 407 699.5 C 410.8659936 699.5 414 702.6340064 414 706.5 C 414 710.3659936 410.8659936 713.5 407 713.5 C 403.1340064 713.5 400 710.3659936 400 706.5 Z"/></g><g transform="translate(5,2) scale(1,1)"><path fill="#ffffff" stroke="none" d="M 656 712 L 973 712 L 983 722 L 983 750 L 656 750 L 656 712"/></g><g transform="translate(5,2) scale(1,1)"><path fill="none" stroke="#000000" d="M 656 712 L 973 712 L 983 722 L 983 750 L 656 750 L 656 712 L 656 712" stroke-miterlimit="10"/></g><g transform="translate(5,2) scale(1,1)"><path fill="none" stroke="#000000" d="M 973 712 L 973 722 L 983 722 L 973 712" stroke-miterlimit="10"/></g><g transform="translate(5,2) scale(1,1)"><g><path fill="none" stroke="none"/><text fill="#000000" stroke="none" font-family="Arial" font-size="13px" font-style="normal" font-weight="normal" text-decoration="none" x="661" y="730">this.props.selectInstrument({instrument: instrument})</text></g></g><g transform="translate(5,2) scale(1,1)"><path fill="#000000" stroke="none" d="M 24 767.5 C 24 763.6340064 27.1340064 760.5 31 760.5 C 34.8659936 760.5 38 763.6340064 38 767.5 C 38 771.3659936 34.8659936 774.5 31 774.5 C 27.1340064 774.5 24 771.3659936 24 767.5 Z"/></g><g transform="translate(5,2) scale(1,1)"><path fill="#ffffff" stroke="none" d="M 1024.5 60 C 1024.5 51.1634432 1031.6634432 44 1040.5 44 C 1049.3365568 44 1056.5 51.1634432 1056.5 60 C 1056.5 68.8365568 1049.3365568 76 1040.5 76 C 1031.6634432 76 1024.5 68.8365568 1024.5 60 Z"/></g><g transform="translate(5,2) scale(1,1)"><path fill="none" stroke="#000000" d="M 1024.5 60 C 1024.5 51.1634432 1031.6634432 44 1040.5 44 C 1049.3365568 44 1056.5 51.1634432 1056.5 60 C 1056.5 68.8365568 1049.3365568 76 1040.5 76 C 1031.6634432 76 1024.5 68.8365568 1024.5 60 Z" stroke-miterlimit="10"/></g><g transform="translate(5,2) scale(1,1)"><path fill="none" stroke="#000000" d="M 1016.5 44 L 1016.5 76" stroke-miterlimit="10"/></g><g transform="translate(5,2) scale(1,1)"><path fill="none" stroke="#000000" d="M 1016.5 60 L 1024.5 60" stroke-miterlimit="10"/></g><g transform="translate(5,2) scale(1,1)"><g><path fill="none" stroke="none"/><text fill="#000000" stroke="none" font-family="Arial" font-size="13px" font-style="normal" font-weight="bold" text-decoration="none" x="998" y="99.5">: SessionAPI</text></g></g><g transform="translate(5,2) scale(1,1)"><path fill="none" stroke="#000000" d="M 1037.5 105 L 1037.5 1464" stroke-miterlimit="10" stroke-dasharray="3"/></g><g transform="translate(5,2) scale(1,1)"><path fill="#000000" stroke="none" d="M 1312 815.5 C 1312 811.6340064 1315.1340064 808.5 1319 808.5 C 1322.8659936 808.5 1326 811.6340064 1326 815.5 C 1326 819.3659936 1322.8659936 822.5 1319 822.5 C 1315.1340064 822.5 1312 819.3659936 1312 815.5 Z"/></g><g transform="translate(5,2) scale(1,1)"><path fill="#ffffff" stroke="none" d="M 1772.5 60 C 1772.5 51.1634432 1779.6634432 44 1788.5 44 C 1797.3365568 44 1804.5 51.1634432 1804.5 60 C 1804.5 68.8365568 1797.3365568 76 1788.5 76 C 1779.6634432 76 1772.5 68.8365568 1772.5 60 Z"/></g><g transform="translate(5,2) scale(1,1)"><path fill="none" stroke="#000000" d="M 1772.5 60 C 1772.5 51.1634432 1779.6634432 44 1788.5 44 C 1797.3365568 44 1804.5 51.1634432 1804.5 60 C 1804.5 68.8365568 1797.3365568 76 1788.5 76 C 1779.6634432 76 1772.5 68.8365568 1772.5 60 Z" stroke-miterlimit="10"/></g><g transform="translate(5,2) scale(1,1)"><path fill="none" stroke="#000000" d="M 1764.5 44 L 1764.5 76" stroke-miterlimit="10"/></g><g transform="translate(5,2) scale(1,1)"><path fill="none" stroke="#000000" d="M 1764.5 60 L 1772.5 60" stroke-miterlimit="10"/></g><g transform="translate(5,2) scale(1,1)"><g><path fill="none" stroke="none"/><text fill="#000000" stroke="none" font-family="Arial" font-size="13px" font-style="normal" font-weight="bold" text-decoration="none" x="1729.5" y="99.5">: SessionController</text></g></g><g transform="translate(5,2) scale(1,1)"><path fill="none" stroke="#000000" d="M 1785.5 105 L 1785.5 1464" stroke-miterlimit="10" stroke-dasharray="3"/></g><g transform="translate(5,2) scale(1,1)"><path fill="#000000" stroke="none" d="M 1360 815.5 C 1360 811.6340064 1363.1340064 808.5 1367 808.5 C 1370.8659936 808.5 1374 811.6340064 1374 815.5 C 1374 819.3659936 1370.8659936 822.5 1367 822.5 C 1363.1340064 822.5 1360 819.3659936 1360 815.5 Z"/></g><g transform="translate(5,2) scale(1,1)"><path fill="#ffffff" stroke="none" d="M 2115.5 60 C 2115.5 51.715728 2122.215728 45 2130.5 45 C 2138.784272 45 2145.5 51.715728 2145.5 60 C 2145.5 68.284272 2138.784272 75 2130.5 75 C 2122.215728 75 2115.5 68.284272 2115.5 60 Z"/></g><g transform="translate(5,2) scale(1,1)"><path fill="none" stroke="#000000" d="M 2115.5 60 C 2115.5 51.715728 2122.215728 45 2130.5 45 C 2138.784272 45 2145.5 51.715728 2145.5 60 C 2145.5 68.284272 2138.784272 75 2130.5 75 C 2122.215728 75 2115.5 68.284272 2115.5 60 Z" stroke-miterlimit="10"/></g><g transform="translate(5,2) scale(1,1)"><path fill="none" stroke="#000000" d="M 2130.5 45 L 2135.5 40" stroke-miterlimit="10"/></g><g transform="translate(5,2) scale(1,1)"><path fill="none" stroke="#000000" d="M 2130.5 45 L 2135.5 50" stroke-miterlimit="10"/></g><g transform="translate(5,2) scale(1,1)"><g><path fill="none" stroke="none"/><text fill="#000000" stroke="none" font-family="Arial" font-size="13px" font-style="normal" font-weight="bold" text-decoration="none" x="2064.5" y="99.5">: SessionTrackHandler</text></g></g><g transform="translate(5,2) scale(1,1)"><path fill="none" stroke="#000000" d="M 2131.5 105 L 2131.5 1464" stroke-miterlimit="10" stroke-dasharray="3"/></g><g transform="translate(5,2) scale(1,1)"><path fill="#ffffff" stroke="none" d="M 2265.5 60 C 2265.5 51.715728 2272.215728 45 2280.5 45 C 2288.784272 45 2295.5 51.715728 2295.5 60 C 2295.5 68.284272 2288.784272 75 2280.5 75 C 2272.215728 75 2265.5 68.284272 2265.5 60 Z"/></g><g transform="translate(5,2) scale(1,1)"><path fill="none" stroke="#000000" d="M 2265.5 60 C 2265.5 51.715728 2272.215728 45 2280.5 45 C 2288.784272 45 2295.5 51.715728 2295.5 60 C 2295.5 68.284272 2288.784272 75 2280.5 75 C 2272.215728 75 2265.5 68.284272 2265.5 60 Z" stroke-miterlimit="10"/></g><g transform="translate(5,2) scale(1,1)"><path fill="none" stroke="#000000" d="M 2280.5 45 L 2285.5 40" stroke-miterlimit="10"/></g><g transform="translate(5,2) scale(1,1)"><path fill="none" stroke="#000000" d="M 2280.5 45 L 2285.5 50" stroke-miterlimit="10"/></g><g transform="translate(5,2) scale(1,1)"><g><path fill="none" stroke="none"/><text fill="#000000" stroke="none" font-family="Arial" font-size="13px" font-style="normal" font-weight="bold" text-decoration="none" x="2249.5" y="99.5">: Serializer</text></g></g><g transform="translate(5,2) scale(1,1)"><path fill="none" stroke="#000000" d="M 2281.5 105 L 2281.5 1464" stroke-miterlimit="10" stroke-dasharray="3"/></g><g transform="translate(5,2) scale(1,1)"><rect fill="#C0C0C0" stroke="none" x="3047" y="47" width="144" height="39" opacity="0.2"/></g><g transform="translate(5,2) scale(1,1)"><rect fill="#ffffff" stroke="none" x="3040" y="40" width="144" height="39"/></g><g transform="translate(5,2) scale(1,1)"><path fill="none" stroke="#000000" d="M 3040 40 L 3184 40 L 3184 79 L 3040 79 L 3040 40 Z Z" stroke-miterlimit="10"/></g><g transform="translate(5,2) scale(1,1)"><g><path fill="none" stroke="none"/><text fill="#000000" stroke="none" font-family="Arial" font-size="13px" font-style="normal" font-weight="normal" text-decoration="none" x="3081" y="57.5">«lifecycle»</text></g></g><g transform="translate(5,2) scale(1,1)"><g><path fill="none" stroke="none"/><text fill="#000000" stroke="none" font-family="Arial" font-size="13px" font-style="normal" font-weight="bold" text-decoration="none" x="3053.5" y="72.5">: SessionRepository</text></g></g><g transform="translate(5,2) scale(1,1)"><path fill="none" stroke="#000000" d="M 3113.5 80 L 3113.5 1464" stroke-miterlimit="10" stroke-dasharray="3"/></g><g transform="translate(5,2) scale(1,1)"><rect fill="#C0C0C0" stroke="none" x="2471" y="47" width="107" height="39" opacity="0.2"/></g><g transform="translate(5,2) scale(1,1)"><rect fill="#ffffff" stroke="none" x="2464" y="40" width="107" height="39"/></g><g transform="translate(5,2) scale(1,1)"><path fill="none" stroke="#000000" d="M 2464 40 L 2571 40 L 2571 79 L 2464 79 L 2464 40 Z Z" stroke-miterlimit="10"/></g><g transform="translate(5,2) scale(1,1)"><g><path fill="none" stroke="none"/><text fill="#000000" stroke="none" font-family="Arial" font-size="13px" font-style="normal" font-weight="bold" text-decoration="none" x="2475" y="59.5">: TrackFactory</text></g></g><g transform="translate(5,2) scale(1,1)"><path fill="none" stroke="#000000" d="M 2518.5 80 L 2518.5 1464" stroke-miterlimit="10" stroke-dasharray="3"/></g><g transform="translate(5,2) scale(1,1)"><path fill="#ffffff" stroke="none" d="M 2356 1000 C 2356 991.1634432 2363.1634432 984 2372 984 C 2380.8365568 984 2388 991.1634432 2388 1000 C 2388 1008.8365568 2380.8365568 1016 2372 1016 C 2363.1634432 1016 2356 1008.8365568 2356 1000 Z"/></g><g transform="translate(5,2) scale(1,1)"><path fill="none" stroke="#000000" d="M 2356 1000 C 2356 991.1634432 2363.1634432 984 2372 984 C 2380.8365568 984 2388 991.1634432 2388 1000 C 2388 1008.8365568 2380.8365568 1016 2372 1016 C 2363.1634432 1016 2356 1008.8365568 2356 1000 Z" stroke-miterlimit="10"/></g><g transform="translate(5,2) scale(1,1)"><path fill="none" stroke="#000000" d="M 2356 1016 L 2388 1016" stroke-miterlimit="10"/></g><g transform="translate(5,2) scale(1,1)"><g><path fill="none" stroke="none"/><text fill="#000000" stroke="none" font-family="Arial" font-size="13px" font-style="normal" font-weight="bold" text-decoration="none" x="2337" y="1039.5">track: Track</text></g></g><g transform="translate(5,2) scale(1,1)"><path fill="none" stroke="#000000" d="M 2373.5 1045 L 2373.5 1480" stroke-miterlimit="10" stroke-dasharray="3"/></g><g transform="translate(5,2) scale(1,1)"><rect fill="#C0C0C0" stroke="none" x="759" y="47" width="135" height="39" opacity="0.2"/></g><g transform="translate(5,2) scale(1,1)"><rect fill="#ffffff" stroke="none" x="752" y="40" width="135" height="39"/></g><g transform="translate(5,2) scale(1,1)"><path fill="none" stroke="#000000" d="M 752 40 L 887 40 L 887 79 L 752 79 L 752 40 Z Z" stroke-miterlimit="10"/></g><g transform="translate(5,2) scale(1,1)"><g><path fill="none" stroke="none"/><text fill="#000000" stroke="none" font-family="Arial" font-size="13px" font-style="normal" font-weight="normal" text-decoration="none" x="761.5" y="57.5">«React component»</text></g></g><g transform="translate(5,2) scale(1,1)"><g><path fill="none" stroke="none"/><text fill="#000000" stroke="none" font-family="Arial" font-size="13px" font-style="normal" font-weight="bold" text-decoration="none" x="788.5" y="72.5">: TrackList</text></g></g><g transform="translate(5,2) scale(1,1)"><path fill="none" stroke="#000000" d="M 820.5 80 L 820.5 1464" stroke-miterlimit="10" stroke-dasharray="3"/></g><g transform="translate(5,2) scale(1,1)"><path fill="#000000" stroke="none" d="M 656 1408.5 C 656 1404.6340064 659.1340064 1401.5 663 1401.5 C 666.8659936 1401.5 670 1404.6340064 670 1408.5 C 670 1412.3659936 666.8659936 1415.5 663 1415.5 C 659.1340064 1415.5 656 1412.3659936 656 1408.5 Z"/></g><g transform="translate(5,2) scale(1,1)"><path fill="#000000" stroke="none" d="M 24 295.5 C 24 291.6340064 27.1340064 288.5 31 288.5 C 34.8659936 288.5 38 291.6340064 38 295.5 C 38 299.3659936 34.8659936 302.5 31 302.5 C 27.1340064 302.5 24 299.3659936 24 295.5 Z"/></g><g transform="translate(5,2) scale(1,1)"><path fill="#ffffff" stroke="none" d="M 384 232 L 549 232 L 559 242 L 559 263 L 384 263 L 384 232"/></g><g transform="translate(5,2) scale(1,1)"><path fill="none" stroke="#000000" d="M 384 232 L 549 232 L 559 242 L 559 263 L 384 263 L 384 232 L 384 232" stroke-miterlimit="10"/></g><g transform="translate(5,2) scale(1,1)"><path fill="none" stroke="#000000" d="M 549 232 L 549 242 L 559 242 L 549 232" stroke-miterlimit="10"/></g><g transform="translate(5,2) scale(1,1)"><g><path fill="none" stroke="none"/><text fill="#000000" stroke="none" font-family="Arial" font-size="13px" font-style="normal" font-weight="normal" text-decoration="none" x="389" y="250">this.props.addInstrument()</text></g></g><g transform="translate(5,2) scale(1,1)"><path fill="#ffffff" stroke="none" d="M 1933.5 60 C 1933.5 51.715728 1940.215728 45 1948.5 45 C 1956.784272 45 1963.5 51.715728 1963.5 60 C 1963.5 68.284272 1956.784272 75 1948.5 75 C 1940.215728 75 1933.5 68.284272 1933.5 60 Z"/></g><g transform="translate(5,2) scale(1,1)"><path fill="none" stroke="#000000" d="M 1933.5 60 C 1933.5 51.715728 1940.215728 45 1948.5 45 C 1956.784272 45 1963.5 51.715728 1963.5 60 C 1963.5 68.284272 1956.784272 75 1948.5 75 C 1940.215728 75 1933.5 68.284272 1933.5 60 Z" stroke-miterlimit="10"/></g><g transform="translate(5,2) scale(1,1)"><path fill="none" stroke="#000000" d="M 1948.5 45 L 1953.5 40" stroke-miterlimit="10"/></g><g transform="translate(5,2) scale(1,1)"><path fill="none" stroke="#000000" d="M 1948.5 45 L 1953.5 50" stroke-miterlimit="10"/></g><g transform="translate(5,2) scale(1,1)"><g><path fill="none" stroke="none"/><text fill="#000000" stroke="none" font-family="Arial" font-size="13px" font-style="normal" font-weight="bold" text-decoration="none" x="1888.5" y="99.5">: InstrumentManager</text></g></g><g transform="translate(5,2) scale(1,1)"><path fill="none" stroke="#000000" d="M 1949.5 105 L 1949.5 1464" stroke-miterlimit="10" stroke-dasharray="3"/></g><g transform="translate(5,2) scale(1,1)"><rect fill="#ffffff" stroke="none" x="16" y="104" width="3168" height="103"/></g><g transform="translate(5,2) scale(1,1)"><path fill="none" stroke="#000000" d="M 16 104 L 3184 104 L 3184 207 L 16 207 L 16 104 Z Z" stroke-miterlimit="10"/></g><g transform="translate(5,2) scale(1,1)"><path fill="none" stroke="#000000" d="M 16 104 L 16 126 L 41 126 L 52 115 L 52 104 L 16 104 L 16 104" stroke-miterlimit="10"/></g><g transform="translate(5,2) scale(1,1)"><g><path fill="none" stroke="none"/><text fill="#000000" stroke="none" font-family="Arial" font-size="13px" font-style="normal" font-weight="normal" text-decoration="none" x="1554" y="162">View a  session</text></g></g><g transform="translate(5,2) scale(1,1)"><g><path fill="none" stroke="none"/><text fill="#000000" stroke="none" font-family="Arial" font-size="13px" font-style="normal" font-weight="normal" text-decoration="none" x="21" y="121.5">ref</text></g></g><g transform="translate(5,2) scale(1,1)"><path fill="none" stroke="#000000" d="M 158 232 L 365 232" stroke-miterlimit="10"/></g><g transform="translate(5,2) scale(1,1)"><path fill="#000000" stroke="none" d="M 354.83732514237585 236.209517756016 L 365 232 L 354.83732514237585 227.790482243984"/></g><g transform="translate(5,2) scale(1,1)"><path fill="none" stroke="#000000" d="M 354.83732514237585 236.209517756016 L 365 232 L 354.83732514237585 227.790482243984 L 354.83732514237585 236.209517756016" stroke-miterlimit="10"/></g><g transform="translate(5,2) scale(1,1)"><g><path fill="none" stroke="none"/><text fill="#000000" stroke="none" font-family="Arial" font-size="13px" font-style="normal" font-weight="normal" text-decoration="none" x="168.5" y="228.5">1 : addInstrument(event: Event)</text></g></g><g transform="translate(5,2) scale(1,1)"><rect fill="#ffffff" stroke="none" x="365" y="232" width="13" height="28"/></g><g transform="translate(5,2) scale(1,1)"><path fill="none" stroke="#000000" d="M 365 232 L 378 232 L 378 260 L 365 260 L 365 232 Z Z" stroke-miterlimit="10"/></g><g transform="translate(5,2) scale(1,1)"><path fill="none" stroke="#000000" d="M 38 296 L 93 296" stroke-miterlimit="10"/></g><g transform="translate(5,2) scale(1,1)"><path fill="#000000" stroke="none" d="M 82.83732514237585 300.209517756016 L 93 296 L 82.83732514237585 291.790482243984"/></g><g transform="translate(5,2) scale(1,1)"><path fill="none" stroke="#000000" d="M 82.83732514237585 300.209517756016 L 93 296 L 82.83732514237585 291.790482243984 L 82.83732514237585 300.209517756016" stroke-miterlimit="10"/></g><g transform="translate(5,2) scale(1,1)"><g><path fill="none" stroke="none"/><text fill="#000000" stroke="none" font-family="Arial" font-size="13px" font-style="normal" font-weight="normal" text-decoration="none" x="38.5" y="292.5">2 : addInstrument()</text></g></g><g transform="translate(5,2) scale(1,1)"><rect fill="#ffffff" stroke="none" x="93" y="296" width="13" height="352"/></g><g transform="translate(5,2) scale(1,1)"><path fill="none" stroke="#000000" d="M 93 296 L 106 296 L 106 648 L 93 648 L 93 296 Z Z" stroke-miterlimit="10"/></g><g transform="translate(5,2) scale(1,1)"><path fill="none" stroke="#000000" d="M 106 304 L 919 304" stroke-miterlimit="10"/></g><g transform="translate(5,2) scale(1,1)"><path fill="#000000" stroke="none" d="M 908.8373251423759 308.209517756016 L 919 304 L 908.8373251423758 299.790482243984"/></g><g transform="translate(5,2) scale(1,1)"><path fill="none" stroke="#000000" d="M 908.8373251423759 308.209517756016 L 919 304 L 908.8373251423758 299.790482243984 L 908.8373251423759 308.209517756016" stroke-miterlimit="10"/></g><g transform="translate(5,2) scale(1,1)"><g><path fill="none" stroke="none"/><text fill="#000000" stroke="none" font-family="Arial" font-size="13px" font-style="normal" font-weight="normal" text-decoration="none" x="454.5" y="300.5">3 : getInstruments()</text></g></g><g transform="translate(5,2) scale(1,1)"><rect fill="#ffffff" stroke="none" x="919" y="304" width="13" height="264"/></g><g transform="translate(5,2) scale(1,1)"><path fill="none" stroke="#000000" d="M 919 304 L 932 304 L 932 568 L 919 568 L 919 304 Z Z" stroke-miterlimit="10"/></g><g transform="translate(5,2) scale(1,1)"><path fill="none" stroke="#000000" d="M 932 320 L 1312 320" stroke-miterlimit="10"/></g><g transform="translate(5,2) scale(1,1)"><path fill="#000000" stroke="none" d="M 1301.837325142376 324.209517756016 L 1312 320 L 1301.837325142376 315.790482243984"/></g><g transform="translate(5,2) scale(1,1)"><path fill="none" stroke="#000000" d="M 1301.837325142376 324.209517756016 L 1312 320 L 1301.837325142376 315.790482243984 L 1301.837325142376 324.209517756016" stroke-miterlimit="10"/></g><g transform="translate(5,2) scale(1,1)"><g><path fill="none" stroke="none"/><text fill="#000000" stroke="none" font-family="Arial" font-size="13px" font-style="normal" font-weight="normal" text-decoration="none" x="1075.5" y="316.5">4 : GET request</text></g></g><g transform="translate(5,2) scale(1,1)"><path fill="none" stroke="#000000" d="M 1648 328 L 1942 328" stroke-miterlimit="10"/></g><g transform="translate(5,2) scale(1,1)"><path fill="#000000" stroke="none" d="M 1931.837325142376 332.209517756016 L 1942 328 L 1931.837325142376 323.790482243984"/></g><g transform="translate(5,2) scale(1,1)"><path fill="none" stroke="#000000" d="M 1931.837325142376 332.209517756016 L 1942 328 L 1931.837325142376 323.790482243984 L 1931.837325142376 332.209517756016" stroke-miterlimit="10"/></g><g transform="translate(5,2) scale(1,1)"><g><path fill="none" stroke="none"/><text fill="#000000" stroke="none" font-family="Arial" font-size="13px" font-style="normal" font-weight="normal" text-decoration="none" x="1738" y="324.5">6 : getInstruments()</text></g></g><g transform="translate(5,2) scale(1,1)"><rect fill="#ffffff" stroke="none" x="1942" y="328" width="13" height="112"/></g><g transform="translate(5,2) scale(1,1)"><path fill="none" stroke="#000000" d="M 1942 328 L 1955 328 L 1955 440 L 1942 440 L 1942 328 Z Z" stroke-miterlimit="10"/></g><g transform="translate(5,2) scale(1,1)"><path fill="none" stroke="#000000" d="M 1955 336 L 2764 336" stroke-miterlimit="10"/></g><g transform="translate(5,2) scale(1,1)"><path fill="#000000" stroke="none" d="M 2753.837325142376 340.209517756016 L 2764 336 L 2753.837325142376 331.790482243984"/></g><g transform="translate(5,2) scale(1,1)"><path fill="none" stroke="#000000" d="M 2753.837325142376 340.209517756016 L 2764 336 L 2753.837325142376 331.790482243984 L 2753.837325142376 340.209517756016" stroke-miterlimit="10"/></g><g transform="translate(5,2) scale(1,1)"><g><path fill="none" stroke="none"/><text fill="#000000" stroke="none" font-family="Arial" font-size="13px" font-style="normal" font-weight="normal" text-decoration="none" x="2274.5" y="332.5">7 : getInstrumentRepository()</text></g></g><g transform="translate(5,2) scale(1,1)"><rect fill="#ffffff" stroke="none" x="2764" y="336" width="13" height="28"/></g><g transform="translate(5,2) scale(1,1)"><path fill="none" stroke="#000000" d="M 2764 336 L 2777 336 L 2777 364 L 2764 364 L 2764 336 Z Z" stroke-miterlimit="10"/></g><g transform="translate(5,2) scale(1,1)"><path fill="none" stroke="#000000" d="M 2764 352 L 1955 352" stroke-miterlimit="10" stroke-dasharray="3"/></g><g transform="translate(5,2) scale(1,1)"><path fill="none" stroke="#000000" d="M 1965.162674857624 347.790482243984 L 1955 352 L 1965.162674857624 356.209517756016" stroke-miterlimit="10"/></g><g transform="translate(5,2) scale(1,1)"><g><path fill="none" stroke="none"/><text fill="#000000" stroke="none" font-family="Arial" font-size="13px" font-style="normal" font-weight="normal" text-decoration="none" x="2287" y="368.5">8 : instrumentRepository</text></g></g><g transform="translate(5,2) scale(1,1)"><path fill="none" stroke="#000000" d="M 1955 392 L 2922 392" stroke-miterlimit="10"/></g><g transform="translate(5,2) scale(1,1)"><path fill="#000000" stroke="none" d="M 2911.837325142376 396.209517756016 L 2922 392 L 2911.837325142376 387.790482243984"/></g><g transform="translate(5,2) scale(1,1)"><path fill="none" stroke="#000000" d="M 2911.837325142376 396.209517756016 L 2922 392 L 2911.837325142376 387.790482243984 L 2911.837325142376 396.209517756016" stroke-miterlimit="10"/></g><g transform="translate(5,2) scale(1,1)"><g><path fill="none" stroke="none"/><text fill="#000000" stroke="none" font-family="Arial" font-size="13px" font-style="normal" font-weight="normal" text-decoration="none" x="2406.5" y="388.5">9 : findAll()</text></g></g><g transform="translate(5,2) scale(1,1)"><rect fill="#ffffff" stroke="none" x="2922" y="392" width="13" height="28"/></g><g transform="translate(5,2) scale(1,1)"><path fill="none" stroke="#000000" d="M 2922 392 L 2935 392 L 2935 420 L 2922 420 L 2922 392 Z Z" stroke-miterlimit="10"/></g><g transform="translate(5,2) scale(1,1)"><path fill="none" stroke="#000000" d="M 2922 408 L 1955 408" stroke-miterlimit="10" stroke-dasharray="3"/></g><g transform="translate(5,2) scale(1,1)"><path fill="none" stroke="#000000" d="M 1965.162674857624 403.790482243984 L 1955 408 L 1965.162674857624 412.209517756016" stroke-miterlimit="10"/></g><g transform="translate(5,2) scale(1,1)"><g><path fill="none" stroke="none"/><text fill="#000000" stroke="none" font-family="Arial" font-size="13px" font-style="normal" font-weight="normal" text-decoration="none" x="2364.5" y="424.5">10 : InstrumentCollection</text></g></g><g transform="translate(5,2) scale(1,1)"><path fill="none" stroke="#000000" d="M 1942 432 L 1648 432" stroke-miterlimit="10" stroke-dasharray="3"/></g><g transform="translate(5,2) scale(1,1)"><path fill="none" stroke="#000000" d="M 1658.162674857624 427.790482243984 L 1648 432 L 1658.162674857624 436.209517756016" stroke-miterlimit="10"/></g><g transform="translate(5,2) scale(1,1)"><g><path fill="none" stroke="none"/><text fill="#000000" stroke="none" font-family="Arial" font-size="13px" font-style="normal" font-weight="normal" text-decoration="none" x="1721.5" y="448.5">11 : InstrumentCollection</text></g></g><g transform="translate(5,2) scale(1,1)"><path fill="none" stroke="#000000" d="M 1655 504 L 2274 504" stroke-miterlimit="10"/></g><g transform="translate(5,2) scale(1,1)"><path fill="#000000" stroke="none" d="M 2263.837325142376 508.209517756016 L 2274 504 L 2263.837325142376 499.790482243984"/></g><g transform="translate(5,2) scale(1,1)"><path fill="none" stroke="#000000" d="M 2263.837325142376 508.209517756016 L 2274 504 L 2263.837325142376 499.790482243984 L 2263.837325142376 508.209517756016" stroke-miterlimit="10"/></g><g transform="translate(5,2) scale(1,1)"><g><path fill="none" stroke="none"/><text fill="#000000" stroke="none" font-family="Arial" font-size="13px" font-style="normal" font-weight="normal" text-decoration="none" x="1883.5" y="500.5">13 : serialize(object: object)</text></g></g><g transform="translate(5,2) scale(1,1)"><rect fill="#ffffff" stroke="none" x="2274" y="504" width="13" height="28"/></g><g transform="translate(5,2) scale(1,1)"><path fill="none" stroke="#000000" d="M 2274 504 L 2287 504 L 2287 532 L 2274 532 L 2274 504 Z Z" stroke-miterlimit="10"/></g><g transform="translate(5,2) scale(1,1)"><path fill="none" stroke="#000000" d="M 2274 520 L 1655 520" stroke-miterlimit="10" stroke-dasharray="3"/></g><g transform="translate(5,2) scale(1,1)"><path fill="none" stroke="#000000" d="M 1665.162674857624 515.790482243984 L 1655 520 L 1665.162674857624 524.209517756016" stroke-miterlimit="10"/></g><g transform="translate(5,2) scale(1,1)"><g><path fill="none" stroke="none"/><text fill="#000000" stroke="none" font-family="Arial" font-size="13px" font-style="normal" font-weight="normal" text-decoration="none" x="1937.5" y="536.5">14 : data</text></g></g><g transform="translate(5,2) scale(1,1)"><path fill="none" stroke="#000000" d="M 1635 560 L 932 560" stroke-miterlimit="10" stroke-dasharray="3"/></g><g transform="translate(5,2) scale(1,1)"><path fill="none" stroke="#000000" d="M 942.1626748576241 555.790482243984 L 932 560 L 942.1626748576241 564.209517756016" stroke-miterlimit="10"/></g><g transform="translate(5,2) scale(1,1)"><g><path fill="none" stroke="none"/><text fill="#000000" stroke="none" font-family="Arial" font-size="13px" font-style="normal" font-weight="normal" text-decoration="none" x="1242.5" y="576.5">15 : response</text></g></g><g transform="translate(5,2) scale(1,1)"><path fill="none" stroke="#000000" d="M 926 568 L 106 568" stroke-miterlimit="10" stroke-dasharray="3"/></g><g transform="translate(5,2) scale(1,1)"><path fill="none" stroke="#000000" d="M 116.16267485762415 563.790482243984 L 106 568 L 116.16267485762415 572.209517756016" stroke-miterlimit="10"/></g><g transform="translate(5,2) scale(1,1)"><g><path fill="none" stroke="none"/><text fill="#000000" stroke="none" font-family="Arial" font-size="13px" font-style="normal" font-weight="normal" text-decoration="none" x="463.5" y="584.5">16 : Instruments[]</text></g></g><g transform="translate(5,2) scale(1,1)"><path fill="none" stroke="#000000" d="M 106 592 L 136 592 L 136 612 L 113 612" stroke-miterlimit="10"/></g><g transform="translate(5,2) scale(1,1)"><path fill="#000000" stroke="none" d="M 123.16267485762415 607.790482243984 L 113 612 L 123.16267485762415 616.209517756016"/></g><g transform="translate(5,2) scale(1,1)"><path fill="none" stroke="#000000" d="M 123.16267485762415 607.790482243984 L 113 612 L 123.16267485762415 616.209517756016 L 123.16267485762415 607.790482243984" stroke-miterlimit="10"/></g><g transform="translate(5,2) scale(1,1)"><g><path fill="none" stroke="none"/><text fill="#000000" stroke="none" font-family="Arial" font-size="13px" font-style="normal" font-weight="normal" text-decoration="none" x="72.5" y="607.5">17 : setState(state: json)</text></g></g><g transform="translate(5,2) scale(1,1)"><rect fill="#ffffff" stroke="none" x="100" y="612" width="13" height="28"/></g><g transform="translate(5,2) scale(1,1)"><path fill="none" stroke="#000000" d="M 100 612 L 113 612 L 113 640 L 100 640 L 100 612 Z Z" stroke-miterlimit="10"/></g><g transform="translate(5,2) scale(1,1)"><path fill="none" stroke="#000000" d="M 414 656 L 637 656" stroke-miterlimit="10"/></g><g transform="translate(5,2) scale(1,1)"><path fill="#000000" stroke="none" d="M 626.8373251423759 660.209517756016 L 637 656 L 626.8373251423758 651.790482243984"/></g><g transform="translate(5,2) scale(1,1)"><path fill="none" stroke="#000000" d="M 626.8373251423759 660.209517756016 L 637 656 L 626.8373251423758 651.790482243984 L 626.8373251423759 660.209517756016" stroke-miterlimit="10"/></g><g transform="translate(5,2) scale(1,1)"><g><path fill="none" stroke="none"/><text fill="#000000" stroke="none" font-family="Arial" font-size="13px" font-style="normal" font-weight="normal" text-decoration="none" x="489.5" y="652.5">18 : render()</text></g></g><g transform="translate(5,2) scale(1,1)"><rect fill="#ffffff" stroke="none" x="637" y="656" width="13" height="28"/></g><g transform="translate(5,2) scale(1,1)"><path fill="none" stroke="#000000" d="M 637 656 L 650 656 L 650 684 L 637 684 L 637 656 Z Z" stroke-miterlimit="10"/></g><g transform="translate(5,2) scale(1,1)"><path fill="none" stroke="#000000" d="M 414 707 L 637 707" stroke-miterlimit="10"/></g><g transform="translate(5,2) scale(1,1)"><path fill="#000000" stroke="none" d="M 626.8373251423759 711.209517756016 L 637 707 L 626.8373251423758 702.790482243984"/></g><g transform="translate(5,2) scale(1,1)"><path fill="none" stroke="#000000" d="M 626.8373251423759 711.209517756016 L 637 707 L 626.8373251423758 702.790482243984 L 626.8373251423759 711.209517756016" stroke-miterlimit="10"/></g><g transform="translate(5,2) scale(1,1)"><g><path fill="none" stroke="none"/><text fill="#000000" stroke="none" font-family="Arial" font-size="13px" font-style="normal" font-weight="normal" text-decoration="none" x="422.5" y="703.5">19 : selectInstrument(event: Event)</text></g></g><g transform="translate(5,2) scale(1,1)"><rect fill="#ffffff" stroke="none" x="637" y="707" width="13" height="45"/></g><g transform="translate(5,2) scale(1,1)"><path fill="none" stroke="#000000" d="M 637 707 L 650 707 L 650 752 L 637 752 L 637 707 Z Z" stroke-miterlimit="10"/></g><g transform="translate(5,2) scale(1,1)"><path fill="none" stroke="#000000" d="M 38 768 L 93 768" stroke-miterlimit="10"/></g><g transform="translate(5,2) scale(1,1)"><path fill="#000000" stroke="none" d="M 82.83732514237585 772.209517756016 L 93 768 L 82.83732514237585 763.790482243984"/></g><g transform="translate(5,2) scale(1,1)"><path fill="none" stroke="#000000" d="M 82.83732514237585 772.209517756016 L 93 768 L 82.83732514237585 763.790482243984 L 82.83732514237585 772.209517756016" stroke-miterlimit="10"/></g><g transform="translate(5,2) scale(1,1)"><g><path fill="none" stroke="none"/><text fill="#000000" stroke="none" font-family="Arial" font-size="13px" font-style="normal" font-weight="normal" text-decoration="none" x="46.5" y="764.5">20 : selectInstrument(instrument: Instrument)</text></g></g><g transform="translate(5,2) scale(1,1)"><rect fill="#ffffff" stroke="none" x="93" y="768" width="13" height="664"/></g><g transform="translate(5,2) scale(1,1)"><path fill="none" stroke="#000000" d="M 93 768 L 106 768 L 106 1432 L 93 1432 L 93 768 Z Z" stroke-miterlimit="10"/></g><g transform="translate(5,2) scale(1,1)"><path fill="none" stroke="#000000" d="M 106 808 L 1030 808" stroke-miterlimit="10"/></g><g transform="translate(5,2) scale(1,1)"><path fill="#000000" stroke="none" d="M 1019.8373251423759 812.209517756016 L 1030 808 L 1019.8373251423758 803.790482243984"/></g><g transform="translate(5,2) scale(1,1)"><path fill="none" stroke="#000000" d="M 1019.8373251423759 812.209517756016 L 1030 808 L 1019.8373251423758 803.790482243984 L 1019.8373251423759 812.209517756016" stroke-miterlimit="10"/></g><g transform="translate(5,2) scale(1,1)"><g><path fill="none" stroke="none"/><text fill="#000000" stroke="none" font-family="Arial" font-size="13px" font-style="normal" font-weight="normal" text-decoration="none" x="493.5" y="804.5">21 : postTrack(data: json)</text></g></g><g transform="translate(5,2) scale(1,1)"><rect fill="#ffffff" stroke="none" x="1030" y="808" width="13" height="544"/></g><g transform="translate(5,2) scale(1,1)"><path fill="none" stroke="#000000" d="M 1030 808 L 1043 808 L 1043 1352 L 1030 1352 L 1030 808 Z Z" stroke-miterlimit="10"/></g><g transform="translate(5,2) scale(1,1)"><path fill="none" stroke="#000000" d="M 1043 816 L 1312 816" stroke-miterlimit="10"/></g><g transform="translate(5,2) scale(1,1)"><path fill="#000000" stroke="none" d="M 1301.837325142376 820.209517756016 L 1312 816 L 1301.837325142376 811.790482243984"/></g><g transform="translate(5,2) scale(1,1)"><path fill="none" stroke="#000000" d="M 1301.837325142376 820.209517756016 L 1312 816 L 1301.837325142376 811.790482243984 L 1301.837325142376 820.209517756016" stroke-miterlimit="10"/></g><g transform="translate(5,2) scale(1,1)"><g><path fill="none" stroke="none"/><text fill="#000000" stroke="none" font-family="Arial" font-size="13px" font-style="normal" font-weight="normal" text-decoration="none" x="1122.5" y="812.5">22 : POST request</text></g></g><g transform="translate(5,2) scale(1,1)"><path fill="none" stroke="#000000" d="M 1374 816 L 1778 816" stroke-miterlimit="10"/></g><g transform="translate(5,2) scale(1,1)"><path fill="#000000" stroke="none" d="M 1767.837325142376 820.209517756016 L 1778 816 L 1767.837325142376 811.790482243984"/></g><g transform="translate(5,2) scale(1,1)"><path fill="none" stroke="#000000" d="M 1767.837325142376 820.209517756016 L 1778 816 L 1767.837325142376 811.790482243984 L 1767.837325142376 820.209517756016" stroke-miterlimit="10"/></g><g transform="translate(5,2) scale(1,1)"><g><path fill="none" stroke="none"/><text fill="#000000" stroke="none" font-family="Arial" font-size="13px" font-style="normal" font-weight="normal" text-decoration="none" x="1461.5" y="812.5">23 : postTrackAction(request: Request)</text></g></g><g transform="translate(5,2) scale(1,1)"><rect fill="#ffffff" stroke="none" x="1778" y="816" width="13" height="528"/></g><g transform="translate(5,2) scale(1,1)"><path fill="none" stroke="#000000" d="M 1778 816 L 1791 816 L 1791 1344 L 1778 1344 L 1778 816 Z Z" stroke-miterlimit="10"/></g><g transform="translate(5,2) scale(1,1)"><path fill="none" stroke="#000000" d="M 1791 832 L 2124 832" stroke-miterlimit="10"/></g><g transform="translate(5,2) scale(1,1)"><path fill="#000000" stroke="none" d="M 2113.837325142376 836.209517756016 L 2124 832 L 2113.837325142376 827.790482243984"/></g><g transform="translate(5,2) scale(1,1)"><path fill="none" stroke="#000000" d="M 2113.837325142376 836.209517756016 L 2124 832 L 2113.837325142376 827.790482243984 L 2113.837325142376 836.209517756016" stroke-miterlimit="10"/></g><g transform="translate(5,2) scale(1,1)"><g><path fill="none" stroke="none"/><text fill="#000000" stroke="none" font-family="Arial" font-size="13px" font-style="normal" font-weight="normal" text-decoration="none" x="1892.5" y="828.5">24 : create(sessionID)</text></g></g><g transform="translate(5,2) scale(1,1)"><rect fill="#ffffff" stroke="none" x="2124" y="832" width="13" height="360"/></g><g transform="translate(5,2) scale(1,1)"><path fill="none" stroke="#000000" d="M 2124 832 L 2137 832 L 2137 1192 L 2124 1192 L 2124 832 Z Z" stroke-miterlimit="10"/></g><g transform="translate(5,2) scale(1,1)"><path fill="none" stroke="#000000" d="M 2137 840 L 2764 840" stroke-miterlimit="10"/></g><g transform="translate(5,2) scale(1,1)"><path fill="#000000" stroke="none" d="M 2753.837325142376 844.209517756016 L 2764 840 L 2753.837325142376 835.790482243984"/></g><g transform="translate(5,2) scale(1,1)"><path fill="none" stroke="#000000" d="M 2753.837325142376 844.209517756016 L 2764 840 L 2753.837325142376 835.790482243984 L 2753.837325142376 844.209517756016" stroke-miterlimit="10"/></g><g transform="translate(5,2) scale(1,1)"><g><path fill="none" stroke="none"/><text fill="#000000" stroke="none" font-family="Arial" font-size="13px" font-style="normal" font-weight="normal" text-decoration="none" x="2369.5" y="836.5">25 : getSessionRepository()</text></g></g><g transform="translate(5,2) scale(1,1)"><rect fill="#ffffff" stroke="none" x="2764" y="840" width="13" height="28"/></g><g transform="translate(5,2) scale(1,1)"><path fill="none" stroke="#000000" d="M 2764 840 L 2777 840 L 2777 868 L 2764 868 L 2764 840 Z Z" stroke-miterlimit="10"/></g><g transform="translate(5,2) scale(1,1)"><path fill="none" stroke="#000000" d="M 2764 860 L 2137 860" stroke-miterlimit="10" stroke-dasharray="3"/></g><g transform="translate(5,2) scale(1,1)"><path fill="none" stroke="#000000" d="M 2147.162674857624 855.790482243984 L 2137 860 L 2147.162674857624 864.209517756016" stroke-miterlimit="10"/></g><g transform="translate(5,2) scale(1,1)"><g><path fill="none" stroke="none"/><text fill="#000000" stroke="none" font-family="Arial" font-size="13px" font-style="normal" font-weight="normal" text-decoration="none" x="2382.5" y="876.5">26 : sessionRepository</text></g></g><g transform="translate(5,2) scale(1,1)"><path fill="none" stroke="#000000" d="M 2137 895 L 3106 895" stroke-miterlimit="10"/></g><g transform="translate(5,2) scale(1,1)"><path fill="#000000" stroke="none" d="M 3095.837325142376 899.209517756016 L 3106 895 L 3095.837325142376 890.790482243984"/></g><g transform="translate(5,2) scale(1,1)"><path fill="none" stroke="#000000" d="M 3095.837325142376 899.209517756016 L 3106 895 L 3095.837325142376 890.790482243984 L 3095.837325142376 899.209517756016" stroke-miterlimit="10"/></g><g transform="translate(5,2) scale(1,1)"><g><path fill="none" stroke="none"/><text fill="#000000" stroke="none" font-family="Arial" font-size="13px" font-style="normal" font-weight="normal" text-decoration="none" x="2588.5" y="891.5">27 : find(id)</text></g></g><g transform="translate(5,2) scale(1,1)"><rect fill="#ffffff" stroke="none" x="3106" y="895" width="13" height="28"/></g><g transform="translate(5,2) scale(1,1)"><path fill="none" stroke="#000000" d="M 3106 895 L 3119 895 L 3119 923 L 3106 923 L 3106 895 Z Z" stroke-miterlimit="10"/></g><g transform="translate(5,2) scale(1,1)"><path fill="none" stroke="#000000" d="M 3106 915 L 2137 915" stroke-miterlimit="10" stroke-dasharray="3"/></g><g transform="translate(5,2) scale(1,1)"><path fill="none" stroke="#000000" d="M 2147.162674857624 910.790482243984 L 2137 915 L 2147.162674857624 919.209517756016" stroke-miterlimit="10"/></g><g transform="translate(5,2) scale(1,1)"><g><path fill="none" stroke="none"/><text fill="#000000" stroke="none" font-family="Arial" font-size="13px" font-style="normal" font-weight="normal" text-decoration="none" x="2584.5" y="931.5">28 : session</text></g></g><g transform="translate(5,2) scale(1,1)"><path fill="none" stroke="#000000" d="M 2137 968 L 2511 968" stroke-miterlimit="10"/></g><g transform="translate(5,2) scale(1,1)"><path fill="#000000" stroke="none" d="M 2500.837325142376 972.209517756016 L 2511 968 L 2500.837325142376 963.790482243984"/></g><g transform="translate(5,2) scale(1,1)"><path fill="none" stroke="#000000" d="M 2500.837325142376 972.209517756016 L 2511 968 L 2500.837325142376 963.790482243984 L 2500.837325142376 972.209517756016" stroke-miterlimit="10"/></g><g transform="translate(5,2) scale(1,1)"><g><path fill="none" stroke="none"/><text fill="#000000" stroke="none" font-family="Arial" font-size="13px" font-style="normal" font-weight="normal" text-decoration="none" x="2238.5" y="964.5">29 : create(session: Session)</text></g></g><g transform="translate(5,2) scale(1,1)"><rect fill="#ffffff" stroke="none" x="2511" y="968" width="13" height="208"/></g><g transform="translate(5,2) scale(1,1)"><path fill="none" stroke="#000000" d="M 2511 968 L 2524 968 L 2524 1176 L 2511 1176 L 2511 968 Z Z" stroke-miterlimit="10"/></g><g transform="translate(5,2) scale(1,1)"><path fill="none" stroke="#000000" d="M 1366 320 L 1635 320" stroke-miterlimit="10"/></g><g transform="translate(5,2) scale(1,1)"><path fill="#000000" stroke="none" d="M 1624.837325142376 324.209517756016 L 1635 320 L 1624.837325142376 315.790482243984"/></g><g transform="translate(5,2) scale(1,1)"><path fill="none" stroke="#000000" d="M 1624.837325142376 324.209517756016 L 1635 320 L 1624.837325142376 315.790482243984 L 1624.837325142376 324.209517756016" stroke-miterlimit="10"/></g><g transform="translate(5,2) scale(1,1)"><g><path fill="none" stroke="none"/><text fill="#000000" stroke="none" font-family="Arial" font-size="13px" font-style="normal" font-weight="normal" text-decoration="none" x="1375" y="316.5">5 : getInstrumentsAction(request: Request)</text></g></g><g transform="translate(5,2) scale(1,1)"><rect fill="#ffffff" stroke="none" x="1635" y="320" width="13" height="248"/></g><g transform="translate(5,2) scale(1,1)"><path fill="none" stroke="#000000" d="M 1635 320 L 1648 320 L 1648 568 L 1635 568 L 1635 320 Z Z" stroke-miterlimit="10"/></g><g transform="translate(5,2) scale(1,1)"><path fill="none" stroke="#000000" d="M 2511 1000 L 2373 1000" stroke-miterlimit="10" stroke-dasharray="3"/></g><g transform="translate(5,2) scale(1,1)"><path fill="none" stroke="#000000" d="M 2383.162674857624 995.790482243984 L 2373 1000 L 2383.162674857624 1004.209517756016" stroke-miterlimit="10"/></g><g transform="translate(5,2) scale(1,1)"><g><path fill="none" stroke="none"/><text fill="#000000" stroke="none" font-family="Arial" font-size="13px" font-style="normal" font-weight="normal" text-decoration="none" x="2405.5" y="1016.5">30 : create()</text></g></g><g transform="translate(5,2) scale(1,1)"><g><path fill="none" stroke="none"/><text fill="#000000" stroke="none" font-family="Arial" font-size="13px" font-style="normal" font-weight="normal" text-decoration="none" x="2415.5" y="1031.5">«create»</text></g></g><g transform="translate(5,2) scale(1,1)"><path fill="none" stroke="#000000" d="M 2373 1072 L 2511 1072" stroke-miterlimit="10" stroke-dasharray="3"/></g><g transform="translate(5,2) scale(1,1)"><path fill="none" stroke="#000000" d="M 2500.837325142376 1076.2095177560159 L 2511 1072 L 2500.837325142376 1067.7904822439841" stroke-miterlimit="10"/></g><g transform="translate(5,2) scale(1,1)"><g><path fill="none" stroke="none"/><text fill="#000000" stroke="none" font-family="Arial" font-size="13px" font-style="normal" font-weight="normal" text-decoration="none" x="2414.5" y="1068.5">31 : track</text></g></g><g transform="translate(5,2) scale(1,1)"><path fill="none" stroke="#000000" d="M 2524 1096 L 2764 1096" stroke-miterlimit="10"/></g><g transform="translate(5,2) scale(1,1)"><path fill="#000000" stroke="none" d="M 2753.837325142376 1100.2095177560159 L 2764 1096 L 2753.837325142376 1091.7904822439841"/></g><g transform="translate(5,2) scale(1,1)"><path fill="none" stroke="#000000" d="M 2753.837325142376 1100.2095177560159 L 2764 1096 L 2753.837325142376 1091.7904822439841 L 2753.837325142376 1100.2095177560159" stroke-miterlimit="10"/></g><g transform="translate(5,2) scale(1,1)"><g><path fill="none" stroke="none"/><text fill="#000000" stroke="none" font-family="Arial" font-size="13px" font-style="normal" font-weight="normal" text-decoration="none" x="2545.5" y="1092.5">32 : persist(domainObject: object)</text></g></g><g transform="translate(5,2) scale(1,1)"><rect fill="#ffffff" stroke="none" x="2764" y="1096" width="13" height="28"/></g><g transform="translate(5,2) scale(1,1)"><path fill="none" stroke="#000000" d="M 2764 1096 L 2777 1096 L 2777 1124 L 2764 1124 L 2764 1096 Z Z" stroke-miterlimit="10"/></g><g transform="translate(5,2) scale(1,1)"><path fill="none" stroke="#000000" d="M 2524 1147 L 2764 1147" stroke-miterlimit="10"/></g><g transform="translate(5,2) scale(1,1)"><path fill="#000000" stroke="none" d="M 2753.837325142376 1151.2095177560159 L 2764 1147 L 2753.837325142376 1142.7904822439841"/></g><g transform="translate(5,2) scale(1,1)"><path fill="none" stroke="#000000" d="M 2753.837325142376 1151.2095177560159 L 2764 1147 L 2753.837325142376 1142.7904822439841 L 2753.837325142376 1151.2095177560159" stroke-miterlimit="10"/></g><g transform="translate(5,2) scale(1,1)"><g><path fill="none" stroke="none"/><text fill="#000000" stroke="none" font-family="Arial" font-size="13px" font-style="normal" font-weight="normal" text-decoration="none" x="2533.5" y="1143.5">33 : flush(domainObject: object = null)</text></g></g><g transform="translate(5,2) scale(1,1)"><rect fill="#ffffff" stroke="none" x="2764" y="1147" width="13" height="28"/></g><g transform="translate(5,2) scale(1,1)"><path fill="none" stroke="#000000" d="M 2764 1147 L 2777 1147 L 2777 1175 L 2764 1175 L 2764 1147 Z Z" stroke-miterlimit="10"/></g><g transform="translate(5,2) scale(1,1)"><path fill="none" stroke="#000000" d="M 2511 1168 L 2137 1168" stroke-miterlimit="10" stroke-dasharray="3"/></g><g transform="translate(5,2) scale(1,1)"><path fill="none" stroke="#000000" d="M 2147.162674857624 1163.7904822439841 L 2137 1168 L 2147.162674857624 1172.2095177560159" stroke-miterlimit="10"/></g><g transform="translate(5,2) scale(1,1)"><g><path fill="none" stroke="none"/><text fill="#000000" stroke="none" font-family="Arial" font-size="13px" font-style="normal" font-weight="normal" text-decoration="none" x="2295.5" y="1184.5">34 : track</text></g></g><g transform="translate(5,2) scale(1,1)"><path fill="none" stroke="#000000" d="M 2124 1184 L 1791 1184" stroke-miterlimit="10" stroke-dasharray="3"/></g><g transform="translate(5,2) scale(1,1)"><path fill="none" stroke="#000000" d="M 1801.162674857624 1179.7904822439841 L 1791 1184 L 1801.162674857624 1188.2095177560159" stroke-miterlimit="10"/></g><g transform="translate(5,2) scale(1,1)"><g><path fill="none" stroke="none"/><text fill="#000000" stroke="none" font-family="Arial" font-size="13px" font-style="normal" font-weight="normal" text-decoration="none" x="1928.5" y="1200.5">35 : track</text></g></g><g transform="translate(5,2) scale(1,1)"><path fill="none" stroke="#000000" d="M 1791 1216 L 1821 1216 L 1821 1236 L 1798 1236" stroke-miterlimit="10"/></g><g transform="translate(5,2) scale(1,1)"><path fill="#000000" stroke="none" d="M 1808.162674857624 1231.7904822439841 L 1798 1236 L 1808.162674857624 1240.2095177560159"/></g><g transform="translate(5,2) scale(1,1)"><path fill="none" stroke="#000000" d="M 1808.162674857624 1231.7904822439841 L 1798 1236 L 1808.162674857624 1240.2095177560159 L 1808.162674857624 1231.7904822439841" stroke-miterlimit="10"/></g><g transform="translate(5,2) scale(1,1)"><g><path fill="none" stroke="none"/><text fill="#000000" stroke="none" font-family="Arial" font-size="13px" font-style="normal" font-weight="normal" text-decoration="none" x="1711.5" y="1231.5">36 : renderToJson(domainObject: object)</text></g></g><g transform="translate(5,2) scale(1,1)"><rect fill="#ffffff" stroke="none" x="1785" y="1236" width="13" height="76"/></g><g transform="translate(5,2) scale(1,1)"><path fill="none" stroke="#000000" d="M 1785 1236 L 1798 1236 L 1798 1312 L 1785 1312 L 1785 1236 Z Z" stroke-miterlimit="10"/></g><g transform="translate(5,2) scale(1,1)"><path fill="none" stroke="#000000" d="M 1798 1264 L 2274 1264" stroke-miterlimit="10"/></g><g transform="translate(5,2) scale(1,1)"><path fill="#000000" stroke="none" d="M 2263.837325142376 1268.2095177560159 L 2274 1264 L 2263.837325142376 1259.7904822439841"/></g><g transform="translate(5,2) scale(1,1)"><path fill="none" stroke="#000000" d="M 2263.837325142376 1268.2095177560159 L 2274 1264 L 2263.837325142376 1259.7904822439841 L 2263.837325142376 1268.2095177560159" stroke-miterlimit="10"/></g><g transform="translate(5,2) scale(1,1)"><g><path fill="none" stroke="none"/><text fill="#000000" stroke="none" font-family="Arial" font-size="13px" font-style="normal" font-weight="normal" text-decoration="none" x="1955.5" y="1260.5">37 : serialize(object: object)</text></g></g><g transform="translate(5,2) scale(1,1)"><rect fill="#ffffff" stroke="none" x="2274" y="1264" width="13" height="28"/></g><g transform="translate(5,2) scale(1,1)"><path fill="none" stroke="#000000" d="M 2274 1264 L 2287 1264 L 2287 1292 L 2274 1292 L 2274 1264 Z Z" stroke-miterlimit="10"/></g><g transform="translate(5,2) scale(1,1)"><path fill="none" stroke="#000000" d="M 2274 1280 L 1798 1280" stroke-miterlimit="10" stroke-dasharray="3"/></g><g transform="translate(5,2) scale(1,1)"><path fill="none" stroke="#000000" d="M 1808.162674857624 1275.7904822439841 L 1798 1280 L 1808.162674857624 1284.2095177560159" stroke-miterlimit="10"/></g><g transform="translate(5,2) scale(1,1)"><g><path fill="none" stroke="none"/><text fill="#000000" stroke="none" font-family="Arial" font-size="13px" font-style="normal" font-weight="normal" text-decoration="none" x="2009.5" y="1296.5">38 : data</text></g></g><g transform="translate(5,2) scale(1,1)"><path fill="none" stroke="#000000" d="M 1778 1336 L 1043 1336" stroke-miterlimit="10" stroke-dasharray="3"/></g><g transform="translate(5,2) scale(1,1)"><path fill="none" stroke="#000000" d="M 1053.162674857624 1331.7904822439841 L 1043 1336 L 1053.162674857624 1340.2095177560159" stroke-miterlimit="10"/></g><g transform="translate(5,2) scale(1,1)"><g><path fill="none" stroke="none"/><text fill="#000000" stroke="none" font-family="Arial" font-size="13px" font-style="normal" font-weight="normal" text-decoration="none" x="1369.5" y="1352.5">39 : response</text></g></g><g transform="translate(5,2) scale(1,1)"><path fill="none" stroke="#000000" d="M 1030 1344 L 106 1344" stroke-miterlimit="10" stroke-dasharray="3"/></g><g transform="translate(5,2) scale(1,1)"><path fill="none" stroke="#000000" d="M 116.16267485762415 1339.7904822439841 L 106 1344 L 116.16267485762415 1348.2095177560159" stroke-miterlimit="10"/></g><g transform="translate(5,2) scale(1,1)"><g><path fill="none" stroke="none"/><text fill="#000000" stroke="none" font-family="Arial" font-size="13px" font-style="normal" font-weight="normal" text-decoration="none" x="537.5" y="1360.5">40 : Track</text></g></g><g transform="translate(5,2) scale(1,1)"><path fill="none" stroke="#000000" d="M 106 1368 L 136 1368 L 136 1388 L 113 1388" stroke-miterlimit="10"/></g><g transform="translate(5,2) scale(1,1)"><path fill="#000000" stroke="none" d="M 123.16267485762415 1383.7904822439841 L 113 1388 L 123.16267485762415 1392.2095177560159"/></g><g transform="translate(5,2) scale(1,1)"><path fill="none" stroke="#000000" d="M 123.16267485762415 1383.7904822439841 L 113 1388 L 123.16267485762415 1392.2095177560159 L 123.16267485762415 1383.7904822439841" stroke-miterlimit="10"/></g><g transform="translate(5,2) scale(1,1)"><g><path fill="none" stroke="none"/><text fill="#000000" stroke="none" font-family="Arial" font-size="13px" font-style="normal" font-weight="normal" text-decoration="none" x="72.5" y="1383.5">41 : setState(state: json)</text></g></g><g transform="translate(5,2) scale(1,1)"><rect fill="#ffffff" stroke="none" x="100" y="1388" width="13" height="28"/></g><g transform="translate(5,2) scale(1,1)"><path fill="none" stroke="#000000" d="M 100 1388 L 113 1388 L 113 1416 L 100 1416 L 100 1388 Z Z" stroke-miterlimit="10"/></g><g transform="translate(5,2) scale(1,1)"><path fill="none" stroke="#000000" d="M 670 1409 L 813 1409" stroke-miterlimit="10"/></g><g transform="translate(5,2) scale(1,1)"><path fill="#000000" stroke="none" d="M 802.8373251423759 1413.2095177560159 L 813 1409 L 802.8373251423758 1404.7904822439841"/></g><g transform="translate(5,2) scale(1,1)"><path fill="none" stroke="#000000" d="M 802.8373251423759 1413.2095177560159 L 813 1409 L 802.8373251423758 1404.7904822439841 L 802.8373251423759 1413.2095177560159" stroke-miterlimit="10"/></g><g transform="translate(5,2) scale(1,1)"><g><path fill="none" stroke="none"/><text fill="#000000" stroke="none" font-family="Arial" font-size="13px" font-style="normal" font-weight="normal" text-decoration="none" x="706" y="1405.5">42 : render()</text></g></g><g transform="translate(5,2) scale(1,1)"><rect fill="#ffffff" stroke="none" x="813" y="1409" width="13" height="28"/></g><g transform="translate(5,2) scale(1,1)"><path fill="none" stroke="#000000" d="M 813 1409 L 826 1409 L 826 1437 L 813 1437 L 813 1409 Z Z" stroke-miterlimit="10"/></g><g transform="translate(5,2) scale(1,1)"><path fill="none" stroke="#000000" d="M 1648 456 L 1678 456 L 1678 476 L 1655 476" stroke-miterlimit="10"/></g><g transform="translate(5,2) scale(1,1)"><path fill="#000000" stroke="none" d="M 1665.162674857624 471.790482243984 L 1655 476 L 1665.162674857624 480.209517756016"/></g><g transform="translate(5,2) scale(1,1)"><path fill="none" stroke="#000000" d="M 1665.162674857624 471.790482243984 L 1655 476 L 1665.162674857624 480.209517756016 L 1665.162674857624 471.790482243984" stroke-miterlimit="10"/></g><g transform="translate(5,2) scale(1,1)"><g><path fill="none" stroke="none"/><text fill="#000000" stroke="none" font-family="Arial" font-size="13px" font-style="normal" font-weight="normal" text-decoration="none" x="1568.5" y="471.5">12 : renderToJson(domainObject: object)</text></g></g><g transform="translate(5,2) scale(1,1)"><rect fill="#ffffff" stroke="none" x="1642" y="476" width="13" height="76"/></g><g transform="translate(5,2) scale(1,1)"><path fill="none" stroke="#000000" d="M 1642 476 L 1655 476 L 1655 552 L 1642 552 L 1642 476 Z Z" stroke-miterlimit="10"/></g></g></svg>