<svg version="1.1" xmlns="http://www.w3.org/2000/svg" xmlns:xlink="http://www.w3.org/1999/xlink" width="1791" height="679"><defs/><g><g transform="translate(5,5) scale(1,1)"><path fill="none" stroke="#000000" d="M 5 5 L 1776 5 L 1776 664 L 5 664 L 5 5" stroke-miterlimit="10"/></g><g transform="translate(5,5) scale(1,1)"><path fill="#ffffff" stroke="none" d="M 5 5 L 5 27 L 121 27 L 132 16 L 132 5 L 5 5"/></g><g transform="translate(5,5) scale(1,1)"><path fill="none" stroke="#000000" d="M 5 5 L 5 27 L 121 27 L 132 16 L 132 5 L 5 5 L 5 5" stroke-miterlimit="10"/></g><g transform="translate(5,5) scale(1,1)"><g><path fill="none" stroke="none"/><text fill="#000000" stroke="none" font-family="Arial" font-size="13px" font-style="normal" font-weight="normal" text-decoration="none" x="76" y="22.5">Sign in</text></g></g><g transform="translate(5,5) scale(1,1)"><g><path fill="none" stroke="none"/><text fill="#000000" stroke="none" font-family="Arial" font-size="13px" font-style="normal" font-weight="bold" text-decoration="none" x="10" y="22.5">interaction</text></g></g><g transform="translate(5,5) scale(1,1)"><rect fill="#C0C0C0" stroke="none" x="23" y="47" width="156" height="39" opacity="0.2"/></g><g transform="translate(5,5) scale(1,1)"><rect fill="#ffffff" stroke="none" x="16" y="40" width="156" height="39"/></g><g transform="translate(5,5) scale(1,1)"><path fill="none" stroke="#000000" d="M 16 40 L 172 40 L 172 79 L 16 79 L 16 40 Z Z" stroke-miterlimit="10"/></g><g transform="translate(5,5) scale(1,1)"><g><path fill="none" stroke="none"/><text fill="#000000" stroke="none" font-family="Arial" font-size="13px" font-style="normal" font-weight="normal" text-decoration="none" x="36" y="57.5">«React component»</text></g></g><g transform="translate(5,5) scale(1,1)"><g><path fill="none" stroke="none"/><text fill="#000000" stroke="none" font-family="Arial" font-size="13px" font-style="normal" font-weight="bold" text-decoration="none" x="32" y="72.5">: LoginFormContainer</text></g></g><g transform="translate(5,5) scale(1,1)"><path fill="none" stroke="#000000" d="M 95.5 80 L 95.5 656" stroke-miterlimit="10" stroke-dasharray="3"/></g><g transform="translate(5,5) scale(1,1)"><rect fill="#C0C0C0" stroke="none" x="279" y="47" width="135" height="39" opacity="0.2"/></g><g transform="translate(5,5) scale(1,1)"><rect fill="#ffffff" stroke="none" x="272" y="40" width="135" height="39"/></g><g transform="translate(5,5) scale(1,1)"><path fill="none" stroke="#000000" d="M 272 40 L 407 40 L 407 79 L 272 79 L 272 40 Z Z" stroke-miterlimit="10"/></g><g transform="translate(5,5) scale(1,1)"><g><path fill="none" stroke="none"/><text fill="#000000" stroke="none" font-family="Arial" font-size="13px" font-style="normal" font-weight="normal" text-decoration="none" x="281.5" y="57.5">«React component»</text></g></g><g transform="translate(5,5) scale(1,1)"><g><path fill="none" stroke="none"/><text fill="#000000" stroke="none" font-family="Arial" font-size="13px" font-style="normal" font-weight="bold" text-decoration="none" x="305" y="72.5">: LoginForm</text></g></g><g transform="translate(5,5) scale(1,1)"><path fill="none" stroke="#000000" d="M 340.5 80 L 340.5 656" stroke-miterlimit="10" stroke-dasharray="3"/></g><g transform="translate(5,5) scale(1,1)"><path fill="#ffffff" stroke="none" d="M 625 60 C 625 51.1634432 632.1634432 44 641 44 C 649.8365568 44 657 51.1634432 657 60 C 657 68.8365568 649.8365568 76 641 76 C 632.1634432 76 625 68.8365568 625 60 Z"/></g><g transform="translate(5,5) scale(1,1)"><path fill="none" stroke="#000000" d="M 625 60 C 625 51.1634432 632.1634432 44 641 44 C 649.8365568 44 657 51.1634432 657 60 C 657 68.8365568 649.8365568 76 641 76 C 632.1634432 76 625 68.8365568 625 60 Z" stroke-miterlimit="10"/></g><g transform="translate(5,5) scale(1,1)"><path fill="none" stroke="#000000" d="M 617 44 L 617 76" stroke-miterlimit="10"/></g><g transform="translate(5,5) scale(1,1)"><path fill="none" stroke="#000000" d="M 617 60 L 625 60" stroke-miterlimit="10"/></g><g transform="translate(5,5) scale(1,1)"><g><path fill="none" stroke="none"/><text fill="#000000" stroke="none" font-family="Arial" font-size="13px" font-style="normal" font-weight="bold" text-decoration="none" x="598" y="99.5">: SecurityAPI</text></g></g><g transform="translate(5,5) scale(1,1)"><path fill="none" stroke="#000000" d="M 638.5 105 L 638.5 656" stroke-miterlimit="10" stroke-dasharray="3"/></g><g transform="translate(5,5) scale(1,1)"><path fill="#ffffff" stroke="none" d="M 1095 60 C 1095 51.1634432 1102.1634432 44 1111 44 C 1119.8365568 44 1127 51.1634432 1127 60 C 1127 68.8365568 1119.8365568 76 1111 76 C 1102.1634432 76 1095 68.8365568 1095 60 Z"/></g><g transform="translate(5,5) scale(1,1)"><path fill="none" stroke="#000000" d="M 1095 60 C 1095 51.1634432 1102.1634432 44 1111 44 C 1119.8365568 44 1127 51.1634432 1127 60 C 1127 68.8365568 1119.8365568 76 1111 76 C 1102.1634432 76 1095 68.8365568 1095 60 Z" stroke-miterlimit="10"/></g><g transform="translate(5,5) scale(1,1)"><path fill="none" stroke="#000000" d="M 1087 44 L 1087 76" stroke-miterlimit="10"/></g><g transform="translate(5,5) scale(1,1)"><path fill="none" stroke="#000000" d="M 1087 60 L 1095 60" stroke-miterlimit="10"/></g><g transform="translate(5,5) scale(1,1)"><g><path fill="none" stroke="none"/><text fill="#000000" stroke="none" font-family="Arial" font-size="13px" font-style="normal" font-weight="bold" text-decoration="none" x="1051.5" y="99.5">: SecurityController</text></g></g><g transform="translate(5,5) scale(1,1)"><path fill="none" stroke="#000000" d="M 1108.5 105 L 1108.5 656" stroke-miterlimit="10" stroke-dasharray="3"/></g><g transform="translate(5,5) scale(1,1)"><path fill="#ffffff" stroke="none" d="M 1292.5 60 C 1292.5 51.715728 1299.215728 45 1307.5 45 C 1315.784272 45 1322.5 51.715728 1322.5 60 C 1322.5 68.284272 1315.784272 75 1307.5 75 C 1299.215728 75 1292.5 68.284272 1292.5 60 Z"/></g><g transform="translate(5,5) scale(1,1)"><path fill="none" stroke="#000000" d="M 1292.5 60 C 1292.5 51.715728 1299.215728 45 1307.5 45 C 1315.784272 45 1322.5 51.715728 1322.5 60 C 1322.5 68.284272 1315.784272 75 1307.5 75 C 1299.215728 75 1292.5 68.284272 1292.5 60 Z" stroke-miterlimit="10"/></g><g transform="translate(5,5) scale(1,1)"><path fill="none" stroke="#000000" d="M 1307.5 45 L 1312.5 40" stroke-miterlimit="10"/></g><g transform="translate(5,5) scale(1,1)"><path fill="none" stroke="#000000" d="M 1307.5 45 L 1312.5 50" stroke-miterlimit="10"/></g><g transform="translate(5,5) scale(1,1)"><g><path fill="none" stroke="none"/><text fill="#000000" stroke="none" font-family="Arial" font-size="13px" font-style="normal" font-weight="bold" text-decoration="none" x="1254.5" y="99.5">: SecurityManager</text></g></g><g transform="translate(5,5) scale(1,1)"><path fill="none" stroke="#000000" d="M 1308.5 105 L 1308.5 656" stroke-miterlimit="10" stroke-dasharray="3"/></g><g transform="translate(5,5) scale(1,1)"><rect fill="#C0C0C0" stroke="none" x="1631" y="47" width="144" height="39" opacity="0.2"/></g><g transform="translate(5,5) scale(1,1)"><rect fill="#ffffff" stroke="none" x="1624" y="40" width="144" height="39"/></g><g transform="translate(5,5) scale(1,1)"><path fill="none" stroke="#000000" d="M 1624 40 L 1768 40 L 1768 79 L 1624 79 L 1624 40 Z Z" stroke-miterlimit="10"/></g><g transform="translate(5,5) scale(1,1)"><g><path fill="none" stroke="none"/><text fill="#000000" stroke="none" font-family="Arial" font-size="13px" font-style="normal" font-weight="normal" text-decoration="none" x="1665" y="57.5">«lifecycle»</text></g></g><g transform="translate(5,5) scale(1,1)"><g><path fill="none" stroke="none"/><text fill="#000000" stroke="none" font-family="Arial" font-size="13px" font-style="normal" font-weight="bold" text-decoration="none" x="1637.5" y="72.5">: JammerRepository</text></g></g><g transform="translate(5,5) scale(1,1)"><path fill="none" stroke="#000000" d="M 1697.5 80 L 1697.5 656" stroke-miterlimit="10" stroke-dasharray="3"/></g><g transform="translate(5,5) scale(1,1)"><path fill="#000000" stroke="none" d="M 136 183.5 C 136 179.6340064 139.1340064 176.5 143 176.5 C 146.8659936 176.5 150 179.6340064 150 183.5 C 150 187.3659936 146.8659936 190.5 143 190.5 C 139.1340064 190.5 136 187.3659936 136 183.5 Z"/></g><g transform="translate(5,5) scale(1,1)"><path fill="#000000" stroke="none" d="M 16 242.5 C 16 238.6340064 19.1340064 235.5 23 235.5 C 26.8659936 235.5 30 238.6340064 30 242.5 C 30 246.3659936 26.8659936 249.5 23 249.5 C 19.1340064 249.5 16 246.3659936 16 242.5 Z"/></g><g transform="translate(5,5) scale(1,1)"><path fill="#ffffff" stroke="none" d="M 360 184 L 605 184 L 615 194 L 615 215 L 360 215 L 360 184"/></g><g transform="translate(5,5) scale(1,1)"><path fill="none" stroke="#000000" d="M 360 184 L 605 184 L 615 194 L 615 215 L 360 215 L 360 184 L 360 184" stroke-miterlimit="10"/></g><g transform="translate(5,5) scale(1,1)"><path fill="none" stroke="#000000" d="M 605 184 L 605 194 L 615 194 L 605 184" stroke-miterlimit="10"/></g><g transform="translate(5,5) scale(1,1)"><g><path fill="none" stroke="none"/><text fill="#000000" stroke="none" font-family="Arial" font-size="13px" font-style="normal" font-weight="normal" text-decoration="none" x="365" y="202">this.props.authenticate(token: token})</text></g></g><g transform="translate(5,5) scale(1,1)"><path fill="#000000" stroke="none" d="M 829 271.5 C 829 267.6340064 832.1340064 264.5 836 264.5 C 839.8659936 264.5 843 267.6340064 843 271.5 C 843 275.3659936 839.8659936 278.5 836 278.5 C 832.1340064 278.5 829 275.3659936 829 271.5 Z"/></g><g transform="translate(5,5) scale(1,1)"><path fill="#000000" stroke="none" d="M 864 275.5 C 864 271.6340064 867.1340064 268.5 871 268.5 C 874.8659936 268.5 878 271.6340064 878 275.5 C 878 279.3659936 874.8659936 282.5 871 282.5 C 867.1340064 282.5 864 279.3659936 864 275.5 Z"/></g><g transform="translate(5,5) scale(1,1)"><path fill="#ffffff" stroke="none" d="M 1486 60 C 1486 51.715728 1492.715728 45 1501 45 C 1509.284272 45 1516 51.715728 1516 60 C 1516 68.284272 1509.284272 75 1501 75 C 1492.715728 75 1486 68.284272 1486 60 Z"/></g><g transform="translate(5,5) scale(1,1)"><path fill="none" stroke="#000000" d="M 1486 60 C 1486 51.715728 1492.715728 45 1501 45 C 1509.284272 45 1516 51.715728 1516 60 C 1516 68.284272 1509.284272 75 1501 75 C 1492.715728 75 1486 68.284272 1486 60 Z" stroke-miterlimit="10"/></g><g transform="translate(5,5) scale(1,1)"><path fill="none" stroke="#000000" d="M 1501 45 L 1506 40" stroke-miterlimit="10"/></g><g transform="translate(5,5) scale(1,1)"><path fill="none" stroke="#000000" d="M 1501 45 L 1506 50" stroke-miterlimit="10"/></g><g transform="translate(5,5) scale(1,1)"><g><path fill="none" stroke="none"/><text fill="#000000" stroke="none" font-family="Arial" font-size="13px" font-style="normal" font-weight="bold" text-decoration="none" x="1470" y="99.5">: Serializer</text></g></g><g transform="translate(5,5) scale(1,1)"><path fill="none" stroke="#000000" d="M 1502.5 105 L 1502.5 656" stroke-miterlimit="10" stroke-dasharray="3"/></g><g transform="translate(5,5) scale(1,1)"><path fill="none" stroke="#000000" d="M 340 104 L 370 104 L 370 124 L 346 124" stroke-miterlimit="10"/></g><g transform="translate(5,5) scale(1,1)"><path fill="#000000" stroke="none" d="M 356.16267485762415 119.79048224398402 L 346 124 L 356.16267485762415 128.209517756016"/></g><g transform="translate(5,5) scale(1,1)"><path fill="none" stroke="#000000" d="M 356.16267485762415 119.79048224398402 L 346 124 L 356.16267485762415 128.209517756016 L 356.16267485762415 119.79048224398402" stroke-miterlimit="10"/></g><g transform="translate(5,5) scale(1,1)"><g><path fill="none" stroke="none"/><text fill="#000000" stroke="none" font-family="Arial" font-size="13px" font-style="normal" font-weight="normal" text-decoration="none" x="343" y="119.5">1 : validate()</text></g></g><g transform="translate(5,5) scale(1,1)"><rect fill="#ffffff" stroke="none" x="333" y="124" width="13" height="28"/></g><g transform="translate(5,5) scale(1,1)"><path fill="none" stroke="#000000" d="M 333 124 L 346 124 L 346 152 L 333 152 L 333 124 Z Z" stroke-miterlimit="10"/></g><g transform="translate(5,5) scale(1,1)"><path fill="none" stroke="#000000" d="M 150 184 L 333 184" stroke-miterlimit="10"/></g><g transform="translate(5,5) scale(1,1)"><path fill="#000000" stroke="none" d="M 322.83732514237585 188.209517756016 L 333 184 L 322.83732514237585 179.790482243984"/></g><g transform="translate(5,5) scale(1,1)"><path fill="none" stroke="#000000" d="M 322.83732514237585 188.209517756016 L 333 184 L 322.83732514237585 179.790482243984 L 322.83732514237585 188.209517756016" stroke-miterlimit="10"/></g><g transform="translate(5,5) scale(1,1)"><g><path fill="none" stroke="none"/><text fill="#000000" stroke="none" font-family="Arial" font-size="13px" font-style="normal" font-weight="normal" text-decoration="none" x="155.5" y="180.5">2 : submitForm(event: Event)</text></g></g><g transform="translate(5,5) scale(1,1)"><rect fill="#ffffff" stroke="none" x="333" y="184" width="13" height="28"/></g><g transform="translate(5,5) scale(1,1)"><path fill="none" stroke="#000000" d="M 333 184 L 346 184 L 346 212 L 333 212 L 333 184 Z Z" stroke-miterlimit="10"/></g><g transform="translate(5,5) scale(1,1)"><path fill="none" stroke="#000000" d="M 30 243 L 88 243" stroke-miterlimit="10"/></g><g transform="translate(5,5) scale(1,1)"><path fill="#000000" stroke="none" d="M 77.83732514237585 247.209517756016 L 88 243 L 77.83732514237585 238.790482243984"/></g><g transform="translate(5,5) scale(1,1)"><path fill="none" stroke="#000000" d="M 77.83732514237585 247.209517756016 L 88 243 L 77.83732514237585 238.790482243984 L 77.83732514237585 247.209517756016" stroke-miterlimit="10"/></g><g transform="translate(5,5) scale(1,1)"><g><path fill="none" stroke="none"/><text fill="#000000" stroke="none" font-family="Arial" font-size="13px" font-style="normal" font-weight="normal" text-decoration="none" x="38.5" y="239.5">3 : authenticate(token: json)</text></g></g><g transform="translate(5,5) scale(1,1)"><rect fill="#ffffff" stroke="none" x="88" y="243" width="13" height="341"/></g><g transform="translate(5,5) scale(1,1)"><path fill="none" stroke="#000000" d="M 88 243 L 101 243 L 101 584 L 88 584 L 88 243 Z Z" stroke-miterlimit="10"/></g><g transform="translate(5,5) scale(1,1)"><path fill="none" stroke="#000000" d="M 101 256 L 631 256" stroke-miterlimit="10"/></g><g transform="translate(5,5) scale(1,1)"><path fill="#000000" stroke="none" d="M 620.8373251423759 260.209517756016 L 631 256 L 620.8373251423758 251.790482243984"/></g><g transform="translate(5,5) scale(1,1)"><path fill="none" stroke="#000000" d="M 620.8373251423759 260.209517756016 L 631 256 L 620.8373251423758 251.790482243984 L 620.8373251423759 260.209517756016" stroke-miterlimit="10"/></g><g transform="translate(5,5) scale(1,1)"><g><path fill="none" stroke="none"/><text fill="#000000" stroke="none" font-family="Arial" font-size="13px" font-style="normal" font-weight="normal" text-decoration="none" x="284.5" y="252.5">4 : authenticate(token: json)</text></g></g><g transform="translate(5,5) scale(1,1)"><rect fill="#ffffff" stroke="none" x="631" y="256" width="13" height="248"/></g><g transform="translate(5,5) scale(1,1)"><path fill="none" stroke="#000000" d="M 631 256 L 644 256 L 644 504 L 631 504 L 631 256 Z Z" stroke-miterlimit="10"/></g><g transform="translate(5,5) scale(1,1)"><path fill="none" stroke="#000000" d="M 644 272 L 829 272" stroke-miterlimit="10"/></g><g transform="translate(5,5) scale(1,1)"><path fill="none" stroke="#000000" d="M 818.8373251423759 276.209517756016 L 829 272 L 818.8373251423758 267.790482243984" stroke-miterlimit="10"/></g><g transform="translate(5,5) scale(1,1)"><g><path fill="none" stroke="none"/><text fill="#000000" stroke="none" font-family="Arial" font-size="13px" font-style="normal" font-weight="normal" text-decoration="none" x="684.5" y="268.5">5 : POST request</text></g></g><g transform="translate(5,5) scale(1,1)"><path fill="none" stroke="#000000" d="M 878 276 L 1101 276" stroke-miterlimit="10"/></g><g transform="translate(5,5) scale(1,1)"><path fill="#000000" stroke="none" d="M 1090.837325142376 280.209517756016 L 1101 276 L 1090.837325142376 271.790482243984"/></g><g transform="translate(5,5) scale(1,1)"><path fill="none" stroke="#000000" d="M 1090.837325142376 280.209517756016 L 1101 276 L 1090.837325142376 271.790482243984 L 1090.837325142376 280.209517756016" stroke-miterlimit="10"/></g><g transform="translate(5,5) scale(1,1)"><g><path fill="none" stroke="none"/><text fill="#000000" stroke="none" font-family="Arial" font-size="13px" font-style="normal" font-weight="normal" text-decoration="none" x="893.5" y="272.5">6 : loginAction(request: Request)</text></g></g><g transform="translate(5,5) scale(1,1)"><rect fill="#ffffff" stroke="none" x="1101" y="276" width="13" height="212"/></g><g transform="translate(5,5) scale(1,1)"><path fill="none" stroke="#000000" d="M 1101 276 L 1114 276 L 1114 488 L 1101 488 L 1101 276 Z Z" stroke-miterlimit="10"/></g><g transform="translate(5,5) scale(1,1)"><path fill="none" stroke="#000000" d="M 1114 282 L 1301 282" stroke-miterlimit="10"/></g><g transform="translate(5,5) scale(1,1)"><path fill="#000000" stroke="none" d="M 1290.837325142376 286.209517756016 L 1301 282 L 1290.837325142376 277.790482243984"/></g><g transform="translate(5,5) scale(1,1)"><path fill="none" stroke="#000000" d="M 1290.837325142376 286.209517756016 L 1301 282 L 1290.837325142376 277.790482243984 L 1290.837325142376 286.209517756016" stroke-miterlimit="10"/></g><g transform="translate(5,5) scale(1,1)"><g><path fill="none" stroke="none"/><text fill="#000000" stroke="none" font-family="Arial" font-size="13px" font-style="normal" font-weight="normal" text-decoration="none" x="1119.5" y="278.5">7 : authenticate(token: Token)</text></g></g><g transform="translate(5,5) scale(1,1)"><rect fill="#ffffff" stroke="none" x="1301" y="282" width="13" height="46"/></g><g transform="translate(5,5) scale(1,1)"><path fill="none" stroke="#000000" d="M 1301 282 L 1314 282 L 1314 328 L 1301 328 L 1301 282 Z Z" stroke-miterlimit="10"/></g><g transform="translate(5,5) scale(1,1)"><path fill="none" stroke="#000000" d="M 1314 288 L 1690 288" stroke-miterlimit="10"/></g><g transform="translate(5,5) scale(1,1)"><path fill="#000000" stroke="none" d="M 1679.837325142376 292.209517756016 L 1690 288 L 1679.837325142376 283.790482243984"/></g><g transform="translate(5,5) scale(1,1)"><path fill="none" stroke="#000000" d="M 1679.837325142376 292.209517756016 L 1690 288 L 1679.837325142376 283.790482243984 L 1679.837325142376 292.209517756016" stroke-miterlimit="10"/></g><g transform="translate(5,5) scale(1,1)"><g><path fill="none" stroke="none"/><text fill="#000000" stroke="none" font-family="Arial" font-size="13px" font-style="normal" font-weight="normal" text-decoration="none" x="1473" y="284.5">8 : find(id)</text></g></g><g transform="translate(5,5) scale(1,1)"><rect fill="#ffffff" stroke="none" x="1690" y="288" width="13" height="28"/></g><g transform="translate(5,5) scale(1,1)"><path fill="none" stroke="#000000" d="M 1690 288 L 1703 288 L 1703 316 L 1690 316 L 1690 288 Z Z" stroke-miterlimit="10"/></g><g transform="translate(5,5) scale(1,1)"><path fill="none" stroke="#000000" d="M 1690 309 L 1314 309" stroke-miterlimit="10" stroke-dasharray="3"/></g><g transform="translate(5,5) scale(1,1)"><path fill="none" stroke="#000000" d="M 1324.162674857624 304.790482243984 L 1314 309 L 1324.162674857624 313.209517756016" stroke-miterlimit="10"/></g><g transform="translate(5,5) scale(1,1)"><g><path fill="none" stroke="none"/><text fill="#000000" stroke="none" font-family="Arial" font-size="13px" font-style="normal" font-weight="normal" text-decoration="none" x="1467.5" y="325.5">9 : Jammer</text></g></g><g transform="translate(5,5) scale(1,1)"><path fill="none" stroke="#000000" d="M 1301 321 L 1114 321" stroke-miterlimit="10" stroke-dasharray="3"/></g><g transform="translate(5,5) scale(1,1)"><path fill="none" stroke="#000000" d="M 1124.162674857624 316.790482243984 L 1114 321 L 1124.162674857624 325.209517756016" stroke-miterlimit="10"/></g><g transform="translate(5,5) scale(1,1)"><g><path fill="none" stroke="none"/><text fill="#000000" stroke="none" font-family="Arial" font-size="13px" font-style="normal" font-weight="normal" text-decoration="none" x="1169.5" y="337.5">10 : Jammer</text></g></g><g transform="translate(5,5) scale(1,1)"><path fill="none" stroke="#000000" d="M 1114 360 L 1144 360 L 1144 380 L 1121 380" stroke-miterlimit="10"/></g><g transform="translate(5,5) scale(1,1)"><path fill="#000000" stroke="none" d="M 1131.162674857624 375.790482243984 L 1121 380 L 1131.162674857624 384.209517756016"/></g><g transform="translate(5,5) scale(1,1)"><path fill="none" stroke="#000000" d="M 1131.162674857624 375.790482243984 L 1121 380 L 1131.162674857624 384.209517756016 L 1131.162674857624 375.790482243984" stroke-miterlimit="10"/></g><g transform="translate(5,5) scale(1,1)"><g><path fill="none" stroke="none"/><text fill="#000000" stroke="none" font-family="Arial" font-size="13px" font-style="normal" font-weight="normal" text-decoration="none" x="1034.5" y="375.5">11 : renderToJson(domainObject: object)</text></g></g><g transform="translate(5,5) scale(1,1)"><rect fill="#ffffff" stroke="none" x="1108" y="380" width="13" height="84"/></g><g transform="translate(5,5) scale(1,1)"><path fill="none" stroke="#000000" d="M 1108 380 L 1121 380 L 1121 464 L 1108 464 L 1108 380 Z Z" stroke-miterlimit="10"/></g><g transform="translate(5,5) scale(1,1)"><path fill="none" stroke="#000000" d="M 1121 401 L 1495 401" stroke-miterlimit="10"/></g><g transform="translate(5,5) scale(1,1)"><path fill="#000000" stroke="none" d="M 1484.837325142376 405.209517756016 L 1495 401 L 1484.837325142376 396.790482243984"/></g><g transform="translate(5,5) scale(1,1)"><path fill="none" stroke="#000000" d="M 1484.837325142376 405.209517756016 L 1495 401 L 1484.837325142376 396.790482243984 L 1484.837325142376 405.209517756016" stroke-miterlimit="10"/></g><g transform="translate(5,5) scale(1,1)"><g><path fill="none" stroke="none"/><text fill="#000000" stroke="none" font-family="Arial" font-size="13px" font-style="normal" font-weight="normal" text-decoration="none" x="1227.5" y="397.5">12 : serialize(object: object)</text></g></g><g transform="translate(5,5) scale(1,1)"><rect fill="#ffffff" stroke="none" x="1495" y="401" width="13" height="28"/></g><g transform="translate(5,5) scale(1,1)"><path fill="none" stroke="#000000" d="M 1495 401 L 1508 401 L 1508 429 L 1495 429 L 1495 401 Z Z" stroke-miterlimit="10"/></g><g transform="translate(5,5) scale(1,1)"><path fill="none" stroke="#000000" d="M 1502 429 L 1121 429" stroke-miterlimit="10" stroke-dasharray="3"/></g><g transform="translate(5,5) scale(1,1)"><path fill="none" stroke="#000000" d="M 1131.162674857624 424.790482243984 L 1121 429 L 1131.162674857624 433.209517756016" stroke-miterlimit="10"/></g><g transform="translate(5,5) scale(1,1)"><g><path fill="none" stroke="none"/><text fill="#000000" stroke="none" font-family="Arial" font-size="13px" font-style="normal" font-weight="normal" text-decoration="none" x="1284.5" y="445.5">13 : data</text></g></g><g transform="translate(5,5) scale(1,1)"><path fill="none" stroke="#000000" d="M 1101 480 L 644 480" stroke-miterlimit="10" stroke-dasharray="3"/></g><g transform="translate(5,5) scale(1,1)"><path fill="none" stroke="#000000" d="M 654.1626748576241 475.790482243984 L 644 480 L 654.1626748576241 484.209517756016" stroke-miterlimit="10"/></g><g transform="translate(5,5) scale(1,1)"><g><path fill="none" stroke="none"/><text fill="#000000" stroke="none" font-family="Arial" font-size="13px" font-style="normal" font-weight="normal" text-decoration="none" x="831.5" y="496.5">14 : response</text></g></g><g transform="translate(5,5) scale(1,1)"><path fill="none" stroke="#000000" d="M 631 496 L 101 496" stroke-miterlimit="10" stroke-dasharray="3"/></g><g transform="translate(5,5) scale(1,1)"><path fill="none" stroke="#000000" d="M 111.16267485762415 491.790482243984 L 101 496 L 111.16267485762415 500.209517756016" stroke-miterlimit="10"/></g><g transform="translate(5,5) scale(1,1)"><g><path fill="none" stroke="none"/><text fill="#000000" stroke="none" font-family="Arial" font-size="13px" font-style="normal" font-weight="normal" text-decoration="none" x="330.5" y="512.5">15 : jammer</text></g></g><g transform="translate(5,5) scale(1,1)"><path fill="none" stroke="#000000" d="M 101 520 L 131 520 L 131 540 L 108 540" stroke-miterlimit="10"/></g><g transform="translate(5,5) scale(1,1)"><path fill="#000000" stroke="none" d="M 118.16267485762415 535.790482243984 L 108 540 L 118.16267485762415 544.209517756016"/></g><g transform="translate(5,5) scale(1,1)"><path fill="none" stroke="#000000" d="M 118.16267485762415 535.790482243984 L 108 540 L 118.16267485762415 544.209517756016 L 118.16267485762415 535.790482243984" stroke-miterlimit="10"/></g><g transform="translate(5,5) scale(1,1)"><g><path fill="none" stroke="none"/><text fill="#000000" stroke="none" font-family="Arial" font-size="13px" font-style="normal" font-weight="normal" text-decoration="none" x="67.5" y="535.5">16 : setState(state: json)</text></g></g><g transform="translate(5,5) scale(1,1)"><rect fill="#ffffff" stroke="none" x="95" y="540" width="13" height="28"/></g><g transform="translate(5,5) scale(1,1)"><path fill="none" stroke="#000000" d="M 95 540 L 108 540 L 108 568 L 95 568 L 95 540 Z Z" stroke-miterlimit="10"/></g></g></svg>