<svg version="1.1" xmlns="http://www.w3.org/2000/svg" xmlns:xlink="http://www.w3.org/1999/xlink" width="1412" height="759"><defs/><g><g transform="translate(10,5) scale(1,1)"><path fill="none" stroke="#000000" d="M 0 5 L 1392 5 L 1392 744 L 0 744 L 0 5" stroke-miterlimit="10"/></g><g transform="translate(10,5) scale(1,1)"><path fill="#ffffff" stroke="none" d="M 0 5 L 0 27 L 164 27 L 175 16 L 175 5 L 0 5"/></g><g transform="translate(10,5) scale(1,1)"><path fill="none" stroke="#000000" d="M 0 5 L 0 27 L 164 27 L 175 16 L 175 5 L 0 5 L 0 5" stroke-miterlimit="10"/></g><g transform="translate(10,5) scale(1,1)"><g><path fill="none" stroke="none"/><text fill="#000000" stroke="none" font-family="Arial" font-size="13px" font-style="normal" font-weight="normal" text-decoration="none" x="71" y="22.5">View a session</text></g></g><g transform="translate(10,5) scale(1,1)"><g><path fill="none" stroke="none"/><text fill="#000000" stroke="none" font-family="Arial" font-size="13px" font-style="normal" font-weight="bold" text-decoration="none" x="5" y="22.5">interaction</text></g></g><g transform="translate(10,5) scale(1,1)"><path fill="#ffffff" stroke="none" d="M 43.07090909090909 47.3 C 43.07090909090909 43.82060576 45.94931081309091 41 49.5 41 C 53.05068918690909 41 55.92909090909091 43.82060576 55.92909090909091 47.3 C 55.92909090909091 50.779394239999995 53.05068918690909 53.6 49.5 53.6 C 45.94931081309091 53.6 43.07090909090909 50.779394239999995 43.07090909090909 47.3 Z"/></g><g transform="translate(10,5) scale(1,1)"><path fill="none" stroke="#000000" d="M 43.07090909090909 47.3 C 43.07090909090909 43.82060576 45.94931081309091 41 49.5 41 C 53.05068918690909 41 55.92909090909091 43.82060576 55.92909090909091 47.3 C 55.92909090909091 50.779394239999995 53.05068918690909 53.6 49.5 53.6 C 45.94931081309091 53.6 43.07090909090909 50.779394239999995 43.07090909090909 47.3 Z" stroke-miterlimit="10"/></g><g transform="translate(10,5) scale(1,1)"><path fill="none" stroke="#000000" d="M 49.5 53.6 L 49.5 66.4" stroke-miterlimit="10"/></g><g transform="translate(10,5) scale(1,1)"><path fill="none" stroke="#000000" d="M 42.692727272727275 58.4 L 56.307272727272725 58.4" stroke-miterlimit="10"/></g><g transform="translate(10,5) scale(1,1)"><path fill="none" stroke="#000000" d="M 49.5 66.4 L 40.04545454545455 79" stroke-miterlimit="10"/></g><g transform="translate(10,5) scale(1,1)"><path fill="none" stroke="#000000" d="M 49.5 66.4 L 58.95454545454545 79" stroke-miterlimit="10"/></g><g transform="translate(10,5) scale(1,1)"><g><path fill="none" stroke="none"/><text fill="#000000" stroke="none" font-family="Arial" font-size="13px" font-style="normal" font-weight="bold" text-decoration="none" x="22" y="99.5">: Jammer</text></g></g><g transform="translate(10,5) scale(1,1)"><path fill="none" stroke="#000000" d="M 50.5 105 L 50.5 728" stroke-miterlimit="10" stroke-dasharray="3"/></g><g transform="translate(10,5) scale(1,1)"><path fill="#ffffff" stroke="none" d="M 404 60 C 404 51.1634432 411.1634432 44 420 44 C 428.8365568 44 436 51.1634432 436 60 C 436 68.8365568 428.8365568 76 420 76 C 411.1634432 76 404 68.8365568 404 60 Z"/></g><g transform="translate(10,5) scale(1,1)"><path fill="none" stroke="#000000" d="M 404 60 C 404 51.1634432 411.1634432 44 420 44 C 428.8365568 44 436 51.1634432 436 60 C 436 68.8365568 428.8365568 76 420 76 C 411.1634432 76 404 68.8365568 404 60 Z" stroke-miterlimit="10"/></g><g transform="translate(10,5) scale(1,1)"><path fill="none" stroke="#000000" d="M 396 44 L 396 76" stroke-miterlimit="10"/></g><g transform="translate(10,5) scale(1,1)"><path fill="none" stroke="#000000" d="M 396 60 L 404 60" stroke-miterlimit="10"/></g><g transform="translate(10,5) scale(1,1)"><g><path fill="none" stroke="none"/><text fill="#000000" stroke="none" font-family="Arial" font-size="13px" font-style="normal" font-weight="bold" text-decoration="none" x="382" y="99.5">: SessionUI</text></g></g><g transform="translate(10,5) scale(1,1)"><path fill="none" stroke="#000000" d="M 417.5 105 L 417.5 728" stroke-miterlimit="10" stroke-dasharray="3"/></g><g transform="translate(10,5) scale(1,1)"><rect fill="#C0C0C0" stroke="none" x="1271" y="47" width="105" height="39" opacity="0.2"/></g><g transform="translate(10,5) scale(1,1)"><rect fill="#ffffff" stroke="none" x="1264" y="40" width="105" height="39"/></g><g transform="translate(10,5) scale(1,1)"><path fill="none" stroke="#000000" d="M 1264 40 L 1369 40 L 1369 79 L 1264 79 L 1264 40 Z Z" stroke-miterlimit="10"/></g><g transform="translate(10,5) scale(1,1)"><g><path fill="none" stroke="none"/><text fill="#000000" stroke="none" font-family="Arial" font-size="13px" font-style="normal" font-weight="bold" text-decoration="none" x="1275" y="59.5">: SessionDAO</text></g></g><g transform="translate(10,5) scale(1,1)"><path fill="none" stroke="#000000" d="M 1317.5 80 L 1317.5 728" stroke-miterlimit="10" stroke-dasharray="3"/></g><g transform="translate(10,5) scale(1,1)"><path fill="#ffffff" stroke="none" d="M 1145.5 344 C 1145.5 335.1634432 1152.6634432 328 1161.5 328 C 1170.3365568 328 1177.5 335.1634432 1177.5 344 C 1177.5 352.8365568 1170.3365568 360 1161.5 360 C 1152.6634432 360 1145.5 352.8365568 1145.5 344 Z"/></g><g transform="translate(10,5) scale(1,1)"><path fill="none" stroke="#000000" d="M 1145.5 344 C 1145.5 335.1634432 1152.6634432 328 1161.5 328 C 1170.3365568 328 1177.5 335.1634432 1177.5 344 C 1177.5 352.8365568 1170.3365568 360 1161.5 360 C 1152.6634432 360 1145.5 352.8365568 1145.5 344 Z" stroke-miterlimit="10"/></g><g transform="translate(10,5) scale(1,1)"><path fill="none" stroke="#000000" d="M 1145.5 360 L 1177.5 360" stroke-miterlimit="10"/></g><g transform="translate(10,5) scale(1,1)"><g><path fill="none" stroke="none"/><text fill="#000000" stroke="none" font-family="Arial" font-size="13px" font-style="normal" font-weight="bold" text-decoration="none" x="1111.5" y="383.5">session: Session</text></g></g><g transform="translate(10,5) scale(1,1)"><path fill="none" stroke="#000000" d="M 1162.5 389 L 1162.5 728" stroke-miterlimit="10" stroke-dasharray="3"/></g><g transform="translate(10,5) scale(1,1)"><path fill="#ffffff" stroke="none" d="M 209.5 60 C 209.5 51.1634432 216.6634432 44 225.5 44 C 234.3365568 44 241.5 51.1634432 241.5 60 C 241.5 68.8365568 234.3365568 76 225.5 76 C 216.6634432 76 209.5 68.8365568 209.5 60 Z"/></g><g transform="translate(10,5) scale(1,1)"><path fill="none" stroke="#000000" d="M 209.5 60 C 209.5 51.1634432 216.6634432 44 225.5 44 C 234.3365568 44 241.5 51.1634432 241.5 60 C 241.5 68.8365568 234.3365568 76 225.5 76 C 216.6634432 76 209.5 68.8365568 209.5 60 Z" stroke-miterlimit="10"/></g><g transform="translate(10,5) scale(1,1)"><path fill="none" stroke="#000000" d="M 201.5 44 L 201.5 76" stroke-miterlimit="10"/></g><g transform="translate(10,5) scale(1,1)"><path fill="none" stroke="#000000" d="M 201.5 60 L 209.5 60" stroke-miterlimit="10"/></g><g transform="translate(10,5) scale(1,1)"><g><path fill="none" stroke="none"/><text fill="#000000" stroke="none" font-family="Arial" font-size="13px" font-style="normal" font-weight="bold" text-decoration="none" x="167" y="99.5">: SearchSessionUI</text></g></g><g transform="translate(10,5) scale(1,1)"><path fill="none" stroke="#000000" d="M 222.5 105 L 222.5 728" stroke-miterlimit="10" stroke-dasharray="3"/></g><g transform="translate(10,5) scale(1,1)"><path fill="#ffffff" stroke="none" d="M 609.5 60 C 609.5 51.715728 616.215728 45 624.5 45 C 632.784272 45 639.5 51.715728 639.5 60 C 639.5 68.284272 632.784272 75 624.5 75 C 616.215728 75 609.5 68.284272 609.5 60 Z"/></g><g transform="translate(10,5) scale(1,1)"><path fill="none" stroke="#000000" d="M 609.5 60 C 609.5 51.715728 616.215728 45 624.5 45 C 632.784272 45 639.5 51.715728 639.5 60 C 639.5 68.284272 632.784272 75 624.5 75 C 616.215728 75 609.5 68.284272 609.5 60 Z" stroke-miterlimit="10"/></g><g transform="translate(10,5) scale(1,1)"><path fill="none" stroke="#000000" d="M 624.5 45 L 629.5 40" stroke-miterlimit="10"/></g><g transform="translate(10,5) scale(1,1)"><path fill="none" stroke="#000000" d="M 624.5 45 L 629.5 50" stroke-miterlimit="10"/></g><g transform="translate(10,5) scale(1,1)"><g><path fill="none" stroke="none"/><text fill="#000000" stroke="none" font-family="Arial" font-size="13px" font-style="normal" font-weight="bold" text-decoration="none" x="575" y="99.5">: SessionService</text></g></g><g transform="translate(10,5) scale(1,1)"><path fill="none" stroke="#000000" d="M 625.5 105 L 625.5 728" stroke-miterlimit="10" stroke-dasharray="3"/></g><g transform="translate(10,5) scale(1,1)"><path fill="#ffffff" stroke="none" d="M 753.5 60 C 753.5 51.715728 760.215728 45 768.5 45 C 776.784272 45 783.5 51.715728 783.5 60 C 783.5 68.284272 776.784272 75 768.5 75 C 760.215728 75 753.5 68.284272 753.5 60 Z"/></g><g transform="translate(10,5) scale(1,1)"><path fill="none" stroke="#000000" d="M 753.5 60 C 753.5 51.715728 760.215728 45 768.5 45 C 776.784272 45 783.5 51.715728 783.5 60 C 783.5 68.284272 776.784272 75 768.5 75 C 760.215728 75 753.5 68.284272 753.5 60 Z" stroke-miterlimit="10"/></g><g transform="translate(10,5) scale(1,1)"><path fill="none" stroke="#000000" d="M 768.5 45 L 773.5 40" stroke-miterlimit="10"/></g><g transform="translate(10,5) scale(1,1)"><path fill="none" stroke="#000000" d="M 768.5 45 L 773.5 50" stroke-miterlimit="10"/></g><g transform="translate(10,5) scale(1,1)"><g><path fill="none" stroke="none"/><text fill="#000000" stroke="none" font-family="Arial" font-size="13px" font-style="normal" font-weight="bold" text-decoration="none" x="726" y="99.5">: TrackService</text></g></g><g transform="translate(10,5) scale(1,1)"><path fill="none" stroke="#000000" d="M 769.5 105 L 769.5 728" stroke-miterlimit="10" stroke-dasharray="3"/></g><g transform="translate(10,5) scale(1,1)"><path fill="#ffffff" stroke="none" d="M 921.5 552 C 921.5 543.1634432 928.6634432 536 937.5 536 C 946.3365568 536 953.5 543.1634432 953.5 552 C 953.5 560.8365568 946.3365568 568 937.5 568 C 928.6634432 568 921.5 560.8365568 921.5 552 Z"/></g><g transform="translate(10,5) scale(1,1)"><path fill="none" stroke="#000000" d="M 921.5 552 C 921.5 543.1634432 928.6634432 536 937.5 536 C 946.3365568 536 953.5 543.1634432 953.5 552 C 953.5 560.8365568 946.3365568 568 937.5 568 C 928.6634432 568 921.5 560.8365568 921.5 552 Z" stroke-miterlimit="10"/></g><g transform="translate(10,5) scale(1,1)"><path fill="none" stroke="#000000" d="M 921.5 568 L 953.5 568" stroke-miterlimit="10"/></g><g transform="translate(10,5) scale(1,1)"><g><path fill="none" stroke="none"/><text fill="#000000" stroke="none" font-family="Arial" font-size="13px" font-style="normal" font-weight="bold" text-decoration="none" x="917" y="591.5">: Track</text></g></g><g transform="translate(10,5) scale(1,1)"><path fill="none" stroke="#000000" d="M 938.5 597 L 938.5 728" stroke-miterlimit="10" stroke-dasharray="3"/></g><g transform="translate(10,5) scale(1,1)"><path fill="none" stroke="#000000" d="M 872 512 L 1072 512 L 1072 608 L 872 608 L 872 512" stroke-miterlimit="10"/></g><g transform="translate(10,5) scale(1,1)"><path fill="#ffffff" stroke="none" d="M 872 512 L 872 534 L 912 534 L 923 523 L 923 512 L 872 512"/></g><g transform="translate(10,5) scale(1,1)"><path fill="none" stroke="#000000" d="M 872 512 L 872 534 L 912 534 L 923 523 L 923 512 L 872 512 L 872 512" stroke-miterlimit="10"/></g><g transform="translate(10,5) scale(1,1)"><g><path fill="none" stroke="none"/><text fill="#000000" stroke="none" font-family="Arial" font-size="13px" font-style="normal" font-weight="bold" text-decoration="none" x="877" y="529.5">loop</text></g></g><g transform="translate(10,5) scale(1,1)"><rect fill="#C0C0C0" stroke="none" x="1015" y="47" width="89" height="39" opacity="0.2"/></g><g transform="translate(10,5) scale(1,1)"><rect fill="#ffffff" stroke="none" x="1008" y="40" width="89" height="39"/></g><g transform="translate(10,5) scale(1,1)"><path fill="none" stroke="#000000" d="M 1008 40 L 1097 40 L 1097 79 L 1008 79 L 1008 40 Z Z" stroke-miterlimit="10"/></g><g transform="translate(10,5) scale(1,1)"><g><path fill="none" stroke="none"/><text fill="#000000" stroke="none" font-family="Arial" font-size="13px" font-style="normal" font-weight="bold" text-decoration="none" x="1018" y="59.5">: TrackDAO</text></g></g><g transform="translate(10,5) scale(1,1)"><path fill="none" stroke="#000000" d="M 1053.5 80 L 1053.5 728" stroke-miterlimit="10" stroke-dasharray="3"/></g><g transform="translate(10,5) scale(1,1)"><path fill="none" stroke="#000000" d="M 50 229 L 215 229" stroke-miterlimit="10"/></g><g transform="translate(10,5) scale(1,1)"><path fill="#000000" stroke="none" d="M 204.83732514237585 233.209517756016 L 215 229 L 204.83732514237585 224.790482243984"/></g><g transform="translate(10,5) scale(1,1)"><path fill="none" stroke="#000000" d="M 204.83732514237585 233.209517756016 L 215 229 L 204.83732514237585 224.790482243984 L 204.83732514237585 233.209517756016" stroke-miterlimit="10"/></g><g transform="translate(10,5) scale(1,1)"><g><path fill="none" stroke="none"/><text fill="#000000" stroke="none" font-family="Arial" font-size="13px" font-style="normal" font-weight="normal" text-decoration="none" x="55.5" y="225.5">1 : selectSessionToView()</text></g></g><g transform="translate(10,5) scale(1,1)"><rect fill="#ffffff" stroke="none" x="215" y="229" width="13" height="28"/></g><g transform="translate(10,5) scale(1,1)"><path fill="none" stroke="#000000" d="M 215 229 L 228 229 L 228 257 L 215 257 L 215 229 Z Z" stroke-miterlimit="10"/></g><g transform="translate(10,5) scale(1,1)"><path fill="none" stroke="#000000" d="M 222 265 L 410 265" stroke-miterlimit="10"/></g><g transform="translate(10,5) scale(1,1)"><path fill="#000000" stroke="none" d="M 399.83732514237585 269.209517756016 L 410 265 L 399.83732514237585 260.790482243984"/></g><g transform="translate(10,5) scale(1,1)"><path fill="none" stroke="#000000" d="M 399.83732514237585 269.209517756016 L 410 265 L 399.83732514237585 260.790482243984 L 399.83732514237585 269.209517756016" stroke-miterlimit="10"/></g><g transform="translate(10,5) scale(1,1)"><g><path fill="none" stroke="none"/><text fill="#000000" stroke="none" font-family="Arial" font-size="13px" font-style="normal" font-weight="normal" text-decoration="none" x="236.5" y="261.5">2 : viewSession(sessionID)</text></g></g><g transform="translate(10,5) scale(1,1)"><rect fill="#ffffff" stroke="none" x="410" y="265" width="13" height="383"/></g><g transform="translate(10,5) scale(1,1)"><path fill="none" stroke="#000000" d="M 410 265 L 423 265 L 423 648 L 410 648 L 410 265 Z Z" stroke-miterlimit="10"/></g><g transform="translate(10,5) scale(1,1)"><path fill="none" stroke="#000000" d="M 423 288 L 618 288" stroke-miterlimit="10"/></g><g transform="translate(10,5) scale(1,1)"><path fill="#000000" stroke="none" d="M 607.8373251423759 292.209517756016 L 618 288 L 607.8373251423758 283.790482243984"/></g><g transform="translate(10,5) scale(1,1)"><path fill="none" stroke="#000000" d="M 607.8373251423759 292.209517756016 L 618 288 L 607.8373251423758 283.790482243984 L 607.8373251423759 292.209517756016" stroke-miterlimit="10"/></g><g transform="translate(10,5) scale(1,1)"><g><path fill="none" stroke="none"/><text fill="#000000" stroke="none" font-family="Arial" font-size="13px" font-style="normal" font-weight="normal" text-decoration="none" x="443" y="281.5">3 : getSession(id: integer)</text></g></g><g transform="translate(10,5) scale(1,1)"><rect fill="#ffffff" stroke="none" x="618" y="288" width="13" height="152"/></g><g transform="translate(10,5) scale(1,1)"><path fill="none" stroke="#000000" d="M 618 288 L 631 288 L 631 440 L 618 440 L 618 288 Z Z" stroke-miterlimit="10"/></g><g transform="translate(10,5) scale(1,1)"><path fill="none" stroke="#000000" d="M 631 304 L 1310 304" stroke-miterlimit="10"/></g><g transform="translate(10,5) scale(1,1)"><path fill="#000000" stroke="none" d="M 1299.837325142376 308.209517756016 L 1310 304 L 1299.837325142376 299.790482243984"/></g><g transform="translate(10,5) scale(1,1)"><path fill="none" stroke="#000000" d="M 1299.837325142376 308.209517756016 L 1310 304 L 1299.837325142376 299.790482243984 L 1299.837325142376 308.209517756016" stroke-miterlimit="10"/></g><g transform="translate(10,5) scale(1,1)"><g><path fill="none" stroke="none"/><text fill="#000000" stroke="none" font-family="Arial" font-size="13px" font-style="normal" font-weight="normal" text-decoration="none" x="930" y="300.5">4 : find(id: int)</text></g></g><g transform="translate(10,5) scale(1,1)"><rect fill="#ffffff" stroke="none" x="1310" y="304" width="13" height="120"/></g><g transform="translate(10,5) scale(1,1)"><path fill="none" stroke="#000000" d="M 1310 304 L 1323 304 L 1323 424 L 1310 424 L 1310 304 Z Z" stroke-miterlimit="10"/></g><g transform="translate(10,5) scale(1,1)"><path fill="none" stroke="#000000" d="M 1310 344 L 1162 344" stroke-miterlimit="10" stroke-dasharray="3"/></g><g transform="translate(10,5) scale(1,1)"><path fill="none" stroke="#000000" d="M 1172.162674857624 339.790482243984 L 1162 344 L 1172.162674857624 348.209517756016" stroke-miterlimit="10"/></g><g transform="translate(10,5) scale(1,1)"><g><path fill="none" stroke="none"/><text fill="#000000" stroke="none" font-family="Arial" font-size="13px" font-style="normal" font-weight="normal" text-decoration="none" x="1214" y="360.5">5 : new</text></g></g><g transform="translate(10,5) scale(1,1)"><g><path fill="none" stroke="none"/><text fill="#000000" stroke="none" font-family="Arial" font-size="13px" font-style="normal" font-weight="normal" text-decoration="none" x="1209.5" y="375.5">«create»</text></g></g><g transform="translate(10,5) scale(1,1)"><path fill="none" stroke="#000000" d="M 1310 416 L 631 416" stroke-miterlimit="10" stroke-dasharray="3"/></g><g transform="translate(10,5) scale(1,1)"><path fill="none" stroke="#000000" d="M 641.1626748576241 411.790482243984 L 631 416 L 641.1626748576241 420.209517756016" stroke-miterlimit="10"/></g><g transform="translate(10,5) scale(1,1)"><g><path fill="none" stroke="none"/><text fill="#000000" stroke="none" font-family="Arial" font-size="13px" font-style="normal" font-weight="normal" text-decoration="none" x="936.5" y="432.5">6 : session</text></g></g><g transform="translate(10,5) scale(1,1)"><path fill="none" stroke="#000000" d="M 618 432 L 423 432" stroke-miterlimit="10" stroke-dasharray="3"/></g><g transform="translate(10,5) scale(1,1)"><path fill="none" stroke="#000000" d="M 433.16267485762415 427.790482243984 L 423 432 L 433.16267485762415 436.209517756016" stroke-miterlimit="10"/></g><g transform="translate(10,5) scale(1,1)"><g><path fill="none" stroke="none"/><text fill="#000000" stroke="none" font-family="Arial" font-size="13px" font-style="normal" font-weight="normal" text-decoration="none" x="486.5" y="448.5">7 : session</text></g></g><g transform="translate(10,5) scale(1,1)"><rect fill="#ffffff" stroke="none" x="32" y="136" width="1336" height="49"/></g><g transform="translate(10,5) scale(1,1)"><path fill="none" stroke="#000000" d="M 32 136 L 1368 136 L 1368 185 L 32 185 L 32 136 Z Z" stroke-miterlimit="10"/></g><g transform="translate(10,5) scale(1,1)"><path fill="none" stroke="#000000" d="M 32 136 L 32 158 L 57 158 L 68 147 L 68 136 L 32 136 L 32 136" stroke-miterlimit="10"/></g><g transform="translate(10,5) scale(1,1)"><g><path fill="none" stroke="none"/><text fill="#000000" stroke="none" font-family="Arial" font-size="13px" font-style="normal" font-weight="normal" text-decoration="none" x="642" y="167">Search for sessions</text></g></g><g transform="translate(10,5) scale(1,1)"><g><path fill="none" stroke="none"/><text fill="#000000" stroke="none" font-family="Arial" font-size="13px" font-style="normal" font-weight="normal" text-decoration="none" x="37" y="153.5">ref</text></g></g><g transform="translate(10,5) scale(1,1)"><path fill="none" stroke="#000000" d="M 423 492 L 762 492" stroke-miterlimit="10"/></g><g transform="translate(10,5) scale(1,1)"><path fill="#000000" stroke="none" d="M 751.8373251423759 496.209517756016 L 762 492 L 751.8373251423758 487.790482243984"/></g><g transform="translate(10,5) scale(1,1)"><path fill="none" stroke="#000000" d="M 751.8373251423759 496.209517756016 L 762 492 L 751.8373251423758 487.790482243984 L 751.8373251423759 496.209517756016" stroke-miterlimit="10"/></g><g transform="translate(10,5) scale(1,1)"><g><path fill="none" stroke="none"/><text fill="#000000" stroke="none" font-family="Arial" font-size="13px" font-style="normal" font-weight="normal" text-decoration="none" x="509.5" y="488.5">8 : getTracks(sessionID: int)</text></g></g><g transform="translate(10,5) scale(1,1)"><rect fill="#ffffff" stroke="none" x="762" y="492" width="13" height="156"/></g><g transform="translate(10,5) scale(1,1)"><path fill="none" stroke="#000000" d="M 762 492 L 775 492 L 775 648 L 762 648 L 762 492 Z Z" stroke-miterlimit="10"/></g><g transform="translate(10,5) scale(1,1)"><path fill="none" stroke="#000000" d="M 775 504 L 1046 504" stroke-miterlimit="10"/></g><g transform="translate(10,5) scale(1,1)"><path fill="#000000" stroke="none" d="M 1035.837325142376 508.209517756016 L 1046 504 L 1035.837325142376 499.790482243984"/></g><g transform="translate(10,5) scale(1,1)"><path fill="none" stroke="#000000" d="M 1035.837325142376 508.209517756016 L 1046 504 L 1035.837325142376 499.790482243984 L 1035.837325142376 508.209517756016" stroke-miterlimit="10"/></g><g transform="translate(10,5) scale(1,1)"><g><path fill="none" stroke="none"/><text fill="#000000" stroke="none" font-family="Arial" font-size="13px" font-style="normal" font-weight="normal" text-decoration="none" x="814.5" y="500.5">9 : findBySession(sessionID: int)</text></g></g><g transform="translate(10,5) scale(1,1)"><rect fill="#ffffff" stroke="none" x="1046" y="504" width="13" height="128"/></g><g transform="translate(10,5) scale(1,1)"><path fill="none" stroke="#000000" d="M 1046 504 L 1059 504 L 1059 632 L 1046 632 L 1046 504 Z Z" stroke-miterlimit="10"/></g><g transform="translate(10,5) scale(1,1)"><path fill="none" stroke="#000000" d="M 1046 552 L 938 552" stroke-miterlimit="10" stroke-dasharray="3"/></g><g transform="translate(10,5) scale(1,1)"><path fill="none" stroke="#000000" d="M 948.1626748576241 547.790482243984 L 938 552 L 948.1626748576241 556.209517756016" stroke-miterlimit="10"/></g><g transform="translate(10,5) scale(1,1)"><g><path fill="none" stroke="none"/><text fill="#000000" stroke="none" font-family="Arial" font-size="13px" font-style="normal" font-weight="normal" text-decoration="none" x="966.5" y="568.5">10 : new</text></g></g><g transform="translate(10,5) scale(1,1)"><g><path fill="none" stroke="none"/><text fill="#000000" stroke="none" font-family="Arial" font-size="13px" font-style="normal" font-weight="normal" text-decoration="none" x="965.5" y="583.5">«create»</text></g></g><g transform="translate(10,5) scale(1,1)"><path fill="none" stroke="#000000" d="M 1046 624 L 775 624" stroke-miterlimit="10" stroke-dasharray="3"/></g><g transform="translate(10,5) scale(1,1)"><path fill="none" stroke="#000000" d="M 785.1626748576241 619.790482243984 L 775 624 L 785.1626748576241 628.209517756016" stroke-miterlimit="10"/></g><g transform="translate(10,5) scale(1,1)"><g><path fill="none" stroke="none"/><text fill="#000000" stroke="none" font-family="Arial" font-size="13px" font-style="normal" font-weight="normal" text-decoration="none" x="877.5" y="640.5">11 : tracks</text></g></g><g transform="translate(10,5) scale(1,1)"><path fill="none" stroke="#000000" d="M 762 632 L 423 632" stroke-miterlimit="10" stroke-dasharray="3"/></g><g transform="translate(10,5) scale(1,1)"><path fill="none" stroke="#000000" d="M 433.16267485762415 627.790482243984 L 423 632 L 433.16267485762415 636.209517756016" stroke-miterlimit="10"/></g><g transform="translate(10,5) scale(1,1)"><g><path fill="none" stroke="none"/><text fill="#000000" stroke="none" font-family="Arial" font-size="13px" font-style="normal" font-weight="normal" text-decoration="none" x="559.5" y="648.5">12 : tracks</text></g></g><g transform="translate(10,5) scale(1,1)"><path fill="none" stroke="#000000" d="M 417 672 L 447 672 L 447 692 L 423 692" stroke-miterlimit="10"/></g><g transform="translate(10,5) scale(1,1)"><path fill="#000000" stroke="none" d="M 433.16267485762415 687.790482243984 L 423 692 L 433.16267485762415 696.209517756016"/></g><g transform="translate(10,5) scale(1,1)"><path fill="none" stroke="#000000" d="M 433.16267485762415 687.790482243984 L 423 692 L 433.16267485762415 696.209517756016 L 433.16267485762415 687.790482243984" stroke-miterlimit="10"/></g><g transform="translate(10,5) scale(1,1)"><g><path fill="none" stroke="none"/><text fill="#000000" stroke="none" font-family="Arial" font-size="13px" font-style="normal" font-weight="normal" text-decoration="none" x="417.5" y="687.5">13 : display()</text></g></g><g transform="translate(10,5) scale(1,1)"><rect fill="#ffffff" stroke="none" x="410" y="692" width="13" height="28"/></g><g transform="translate(10,5) scale(1,1)"><path fill="none" stroke="#000000" d="M 410 692 L 423 692 L 423 720 L 410 720 L 410 692 Z Z" stroke-miterlimit="10"/></g></g></svg>