<svg version="1.1" xmlns="http://www.w3.org/2000/svg" xmlns:xlink="http://www.w3.org/1999/xlink" width="1553" height="716"><defs/><g><g transform="translate(-6,-14) scale(1,1)"><rect fill="#C0C0C0" stroke="none" x="311" y="31" width="197" height="173" opacity="0.2"/></g><g transform="translate(-6,-14) scale(1,1)"><rect fill="#ffffff" stroke="none" x="304" y="24" width="197" height="173"/></g><g transform="translate(-6,-14) scale(1,1)"><path fill="none" stroke="#000000" d="M 304 24 L 501 24 L 501 197 L 304 197 L 304 24 Z Z" stroke-miterlimit="10"/></g><g transform="translate(-6,-14) scale(1,1)"><path fill="#ffffff" stroke="none" d="M 474.4 41 C 474.4 35.69806592 478.69806592 31.4 484 31.4 C 489.30193408 31.4 493.6 35.69806592 493.6 41 C 493.6 46.30193408 489.30193408 50.6 484 50.6 C 478.69806592 50.6 474.4 46.30193408 474.4 41 Z"/></g><g transform="translate(-6,-14) scale(1,1)"><path fill="none" stroke="#000000" d="M 474.4 41 C 474.4 35.69806592 478.69806592 31.4 484 31.4 C 489.30193408 31.4 493.6 35.69806592 493.6 41 C 493.6 46.30193408 489.30193408 50.6 484 50.6 C 478.69806592 50.6 474.4 46.30193408 474.4 41 Z" stroke-miterlimit="10"/></g><g transform="translate(-6,-14) scale(1,1)"><path fill="none" stroke="#000000" d="M 474.4 50.6 L 493.6 50.6" stroke-miterlimit="10"/></g><g transform="translate(-6,-14) scale(1,1)"><path fill="none" stroke="#000000" d="M 304 62 L 501 62" stroke-miterlimit="10"/></g><g transform="translate(-6,-14) scale(1,1)"><path fill="none" stroke="#000000" d="M 304 160 L 501 160" stroke-miterlimit="10"/></g><g transform="translate(-6,-14) scale(1,1)"><g><path fill="none" stroke="none"/><text fill="#000000" stroke="none" font-family="Arial" font-size="13px" font-style="normal" font-weight="normal" text-decoration="none" x="367.5" y="41.5">«entity»</text></g></g><g transform="translate(-6,-14) scale(1,1)"><g><path fill="none" stroke="none"/><text fill="#000000" stroke="none" font-family="Arial" font-size="13px" font-style="normal" font-weight="bold" text-decoration="none" x="367" y="56.5">Session</text></g></g><g transform="translate(-6,-14) scale(1,1)"><g><path fill="none" stroke="none"/><text fill="#000000" stroke="none" font-family="Arial" font-size="13px" font-style="normal" font-weight="normal" text-decoration="none" x="309" y="79.5">-id: integer {id, unique}</text></g></g><g transform="translate(-6,-14) scale(1,1)"><g><path fill="none" stroke="none"/><text fill="#000000" stroke="none" font-family="Arial" font-size="13px" font-style="normal" font-weight="normal" text-decoration="none" x="309" y="94.5">-tempo: integer = 120</text></g></g><g transform="translate(-6,-14) scale(1,1)"><g><path fill="none" stroke="none"/><text fill="#000000" stroke="none" font-family="Arial" font-size="13px" font-style="normal" font-weight="normal" text-decoration="none" x="309" y="109.5">-style: string</text></g></g><g transform="translate(-6,-14) scale(1,1)"><g><path fill="none" stroke="none"/><text fill="#000000" stroke="none" font-family="Arial" font-size="13px" font-style="normal" font-weight="normal" text-decoration="none" x="309" y="124.5">-label: string</text></g></g><g transform="translate(-6,-14) scale(1,1)"><g><path fill="none" stroke="none"/><text fill="#000000" stroke="none" font-family="Arial" font-size="13px" font-style="normal" font-weight="normal" text-decoration="none" x="309" y="139.5">-description: string</text></g></g><g transform="translate(-6,-14) scale(1,1)"><g><path fill="none" stroke="none"/><text fill="#000000" stroke="none" font-family="Arial" font-size="13px" font-style="normal" font-weight="normal" text-decoration="none" x="309" y="154.5">-live: boolean</text></g></g><g transform="translate(-6,-14) scale(1,1)"><g><path fill="none" stroke="none"/><text fill="#000000" stroke="none" font-family="Arial" font-size="13px" font-style="normal" font-weight="normal" text-decoration="none" x="309" y="177.5">+isLive(return: boolean)</text></g></g><g transform="translate(-6,-14) scale(1,1)"><rect fill="#C0C0C0" stroke="none" x="583" y="31" width="197" height="173" opacity="0.2"/></g><g transform="translate(-6,-14) scale(1,1)"><rect fill="#ffffff" stroke="none" x="576" y="24" width="197" height="173"/></g><g transform="translate(-6,-14) scale(1,1)"><path fill="none" stroke="#000000" d="M 576 24 L 773 24 L 773 197 L 576 197 L 576 24 Z Z" stroke-miterlimit="10"/></g><g transform="translate(-6,-14) scale(1,1)"><path fill="#ffffff" stroke="none" d="M 746.4 41 C 746.4 35.69806592 750.69806592 31.4 756 31.4 C 761.30193408 31.4 765.6 35.69806592 765.6 41 C 765.6 46.30193408 761.30193408 50.6 756 50.6 C 750.69806592 50.6 746.4 46.30193408 746.4 41 Z"/></g><g transform="translate(-6,-14) scale(1,1)"><path fill="none" stroke="#000000" d="M 746.4 41 C 746.4 35.69806592 750.69806592 31.4 756 31.4 C 761.30193408 31.4 765.6 35.69806592 765.6 41 C 765.6 46.30193408 761.30193408 50.6 756 50.6 C 750.69806592 50.6 746.4 46.30193408 746.4 41 Z" stroke-miterlimit="10"/></g><g transform="translate(-6,-14) scale(1,1)"><path fill="none" stroke="#000000" d="M 746.4 50.6 L 765.6 50.6" stroke-miterlimit="10"/></g><g transform="translate(-6,-14) scale(1,1)"><path fill="none" stroke="#000000" d="M 576 62 L 773 62" stroke-miterlimit="10"/></g><g transform="translate(-6,-14) scale(1,1)"><path fill="none" stroke="#000000" d="M 576 85 L 773 85" stroke-miterlimit="10"/></g><g transform="translate(-6,-14) scale(1,1)"><g><path fill="none" stroke="none"/><text fill="#000000" stroke="none" font-family="Arial" font-size="13px" font-style="normal" font-weight="normal" text-decoration="none" x="639.5" y="41.5">«entity»</text></g></g><g transform="translate(-6,-14) scale(1,1)"><g><path fill="none" stroke="none"/><text fill="#000000" stroke="none" font-family="Arial" font-size="13px" font-style="normal" font-weight="bold" text-decoration="none" x="646" y="56.5">Track</text></g></g><g transform="translate(-6,-14) scale(1,1)"><g><path fill="none" stroke="none"/><text fill="#000000" stroke="none" font-family="Arial" font-size="13px" font-style="normal" font-weight="normal" text-decoration="none" x="581" y="79.5">-id: int {id, unique}</text></g></g><g transform="translate(-6,-14) scale(1,1)"><g><path fill="none" stroke="none"/><text fill="#000000" stroke="none" font-family="Arial" font-size="13px" font-style="normal" font-weight="normal" text-decoration="none" x="581" y="102.5">+create()</text><path fill="none" stroke="#000000" d="M 581 102.5 L 633 102.5" stroke-miterlimit="10"/></g></g><g transform="translate(-6,-14) scale(1,1)"><rect fill="#C0C0C0" stroke="none" x="847" y="31" width="197" height="173" opacity="0.2"/></g><g transform="translate(-6,-14) scale(1,1)"><rect fill="#ffffff" stroke="none" x="840" y="24" width="197" height="173"/></g><g transform="translate(-6,-14) scale(1,1)"><path fill="none" stroke="#000000" d="M 840 24 L 1037 24 L 1037 197 L 840 197 L 840 24 Z Z" stroke-miterlimit="10"/></g><g transform="translate(-6,-14) scale(1,1)"><path fill="#ffffff" stroke="none" d="M 1010.4 41 C 1010.4 35.69806592 1014.69806592 31.4 1020 31.4 C 1025.30193408 31.4 1029.6 35.69806592 1029.6 41 C 1029.6 46.30193408 1025.30193408 50.6 1020 50.6 C 1014.69806592 50.6 1010.4 46.30193408 1010.4 41 Z"/></g><g transform="translate(-6,-14) scale(1,1)"><path fill="none" stroke="#000000" d="M 1010.4 41 C 1010.4 35.69806592 1014.69806592 31.4 1020 31.4 C 1025.30193408 31.4 1029.6 35.69806592 1029.6 41 C 1029.6 46.30193408 1025.30193408 50.6 1020 50.6 C 1014.69806592 50.6 1010.4 46.30193408 1010.4 41 Z" stroke-miterlimit="10"/></g><g transform="translate(-6,-14) scale(1,1)"><path fill="none" stroke="#000000" d="M 1010.4 50.6 L 1029.6 50.6" stroke-miterlimit="10"/></g><g transform="translate(-6,-14) scale(1,1)"><path fill="none" stroke="#000000" d="M 840 62 L 1037 62" stroke-miterlimit="10"/></g><g transform="translate(-6,-14) scale(1,1)"><path fill="none" stroke="#000000" d="M 840 100 L 1037 100" stroke-miterlimit="10"/></g><g transform="translate(-6,-14) scale(1,1)"><g><path fill="none" stroke="none"/><text fill="#000000" stroke="none" font-family="Arial" font-size="13px" font-style="normal" font-weight="normal" text-decoration="none" x="903.5" y="41.5">«entity»</text></g></g><g transform="translate(-6,-14) scale(1,1)"><g><path fill="none" stroke="none"/><text fill="#000000" stroke="none" font-family="Arial" font-size="13px" font-style="normal" font-weight="bold" text-decoration="none" x="895.5" y="56.5">Instrument</text></g></g><g transform="translate(-6,-14) scale(1,1)"><g><path fill="none" stroke="none"/><text fill="#000000" stroke="none" font-family="Arial" font-size="13px" font-style="normal" font-weight="normal" text-decoration="none" x="845" y="79.5">+id: int {id, unique}</text></g></g><g transform="translate(-6,-14) scale(1,1)"><g><path fill="none" stroke="none"/><text fill="#000000" stroke="none" font-family="Arial" font-size="13px" font-style="normal" font-weight="normal" text-decoration="none" x="845" y="94.5">+label: string</text></g></g><g transform="translate(-6,-14) scale(1,1)"><rect fill="#C0C0C0" stroke="none" x="31" y="31" width="197" height="173" opacity="0.2"/></g><g transform="translate(-6,-14) scale(1,1)"><rect fill="#ffffff" stroke="none" x="24" y="24" width="197" height="173"/></g><g transform="translate(-6,-14) scale(1,1)"><path fill="none" stroke="#000000" d="M 24 24 L 221 24 L 221 197 L 24 197 L 24 24 Z Z" stroke-miterlimit="10"/></g><g transform="translate(-6,-14) scale(1,1)"><path fill="#ffffff" stroke="none" d="M 194.4 41 C 194.4 35.69806592 198.69806592 31.4 204 31.4 C 209.30193408 31.4 213.6 35.69806592 213.6 41 C 213.6 46.30193408 209.30193408 50.6 204 50.6 C 198.69806592 50.6 194.4 46.30193408 194.4 41 Z"/></g><g transform="translate(-6,-14) scale(1,1)"><path fill="none" stroke="#000000" d="M 194.4 41 C 194.4 35.69806592 198.69806592 31.4 204 31.4 C 209.30193408 31.4 213.6 35.69806592 213.6 41 C 213.6 46.30193408 209.30193408 50.6 204 50.6 C 198.69806592 50.6 194.4 46.30193408 194.4 41 Z" stroke-miterlimit="10"/></g><g transform="translate(-6,-14) scale(1,1)"><path fill="none" stroke="#000000" d="M 194.4 50.6 L 213.6 50.6" stroke-miterlimit="10"/></g><g transform="translate(-6,-14) scale(1,1)"><path fill="none" stroke="#000000" d="M 24 62 L 221 62" stroke-miterlimit="10"/></g><g transform="translate(-6,-14) scale(1,1)"><path fill="none" stroke="#000000" d="M 24 130 L 221 130" stroke-miterlimit="10"/></g><g transform="translate(-6,-14) scale(1,1)"><g><path fill="none" stroke="none"/><text fill="#000000" stroke="none" font-family="Arial" font-size="13px" font-style="normal" font-weight="normal" text-decoration="none" x="87.5" y="41.5">«entity»</text></g></g><g transform="translate(-6,-14) scale(1,1)"><g><path fill="none" stroke="none"/><text fill="#000000" stroke="none" font-family="Arial" font-size="13px" font-style="normal" font-weight="bold" text-decoration="none" x="87" y="56.5">Jammer</text></g></g><g transform="translate(-6,-14) scale(1,1)"><g><path fill="none" stroke="none"/><text fill="#000000" stroke="none" font-family="Arial" font-size="13px" font-style="normal" font-weight="normal" text-decoration="none" x="29" y="79.5">+email: string {unique}</text></g></g><g transform="translate(-6,-14) scale(1,1)"><g><path fill="none" stroke="none"/><text fill="#000000" stroke="none" font-family="Arial" font-size="13px" font-style="normal" font-weight="normal" text-decoration="none" x="29" y="94.5">+password: string</text></g></g><g transform="translate(-6,-14) scale(1,1)"><g><path fill="none" stroke="none"/><text fill="#000000" stroke="none" font-family="Arial" font-size="13px" font-style="normal" font-weight="normal" text-decoration="none" x="29" y="109.5">+hash: string</text></g></g><g transform="translate(-6,-14) scale(1,1)"><g><path fill="none" stroke="none"/><text fill="#000000" stroke="none" font-family="Arial" font-size="13px" font-style="normal" font-weight="normal" text-decoration="none" x="29" y="124.5">-active = false</text></g></g><g transform="translate(-6,-14) scale(1,1)"><g><path fill="none" stroke="none"/><text fill="#000000" stroke="none" font-family="Arial" font-size="13px" font-style="normal" font-weight="normal" text-decoration="none" x="29" y="147.5">+checkPassword(): boolean</text></g></g><g transform="translate(-6,-14) scale(1,1)"><g><path fill="none" stroke="none"/><text fill="#000000" stroke="none" font-family="Arial" font-size="13px" font-style="normal" font-weight="normal" text-decoration="none" x="29" y="162.5">+activate()</text></g></g><g transform="translate(-6,-14) scale(1,1)"><rect fill="#C0C0C0" stroke="none" x="1111" y="31" width="197" height="173" opacity="0.2"/></g><g transform="translate(-6,-14) scale(1,1)"><rect fill="#ffffff" stroke="none" x="1104" y="24" width="197" height="173"/></g><g transform="translate(-6,-14) scale(1,1)"><path fill="none" stroke="#000000" d="M 1104 24 L 1301 24 L 1301 197 L 1104 197 L 1104 24 Z Z" stroke-miterlimit="10"/></g><g transform="translate(-6,-14) scale(1,1)"><path fill="#ffffff" stroke="none" d="M 1274.4 41 C 1274.4 35.69806592 1278.69806592 31.4 1284 31.4 C 1289.30193408 31.4 1293.6 35.69806592 1293.6 41 C 1293.6 46.30193408 1289.30193408 50.6 1284 50.6 C 1278.69806592 50.6 1274.4 46.30193408 1274.4 41 Z"/></g><g transform="translate(-6,-14) scale(1,1)"><path fill="none" stroke="#000000" d="M 1274.4 41 C 1274.4 35.69806592 1278.69806592 31.4 1284 31.4 C 1289.30193408 31.4 1293.6 35.69806592 1293.6 41 C 1293.6 46.30193408 1289.30193408 50.6 1284 50.6 C 1278.69806592 50.6 1274.4 46.30193408 1274.4 41 Z" stroke-miterlimit="10"/></g><g transform="translate(-6,-14) scale(1,1)"><path fill="none" stroke="#000000" d="M 1274.4 50.6 L 1293.6 50.6" stroke-miterlimit="10"/></g><g transform="translate(-6,-14) scale(1,1)"><path fill="none" stroke="#000000" d="M 1104 62 L 1301 62" stroke-miterlimit="10"/></g><g transform="translate(-6,-14) scale(1,1)"><path fill="none" stroke="#000000" d="M 1104 130 L 1301 130" stroke-miterlimit="10"/></g><g transform="translate(-6,-14) scale(1,1)"><g><path fill="none" stroke="none"/><text fill="#000000" stroke="none" font-family="Arial" font-size="13px" font-style="normal" font-weight="normal" text-decoration="none" x="1167.5" y="41.5">«entity»</text></g></g><g transform="translate(-6,-14) scale(1,1)"><g><path fill="none" stroke="none"/><text fill="#000000" stroke="none" font-family="Arial" font-size="13px" font-style="normal" font-weight="bold" text-decoration="none" x="1135" y="56.5">InstrumentMapping</text></g></g><g transform="translate(-6,-14) scale(1,1)"><g><path fill="none" stroke="none"/><text fill="#000000" stroke="none" font-family="Arial" font-size="13px" font-style="normal" font-weight="normal" text-decoration="none" x="1109" y="79.5">+id: int {id, unique}</text></g></g><g transform="translate(-6,-14) scale(1,1)"><g><path fill="none" stroke="none"/><text fill="#000000" stroke="none" font-family="Arial" font-size="13px" font-style="normal" font-weight="normal" text-decoration="none" x="1109" y="94.5">+soundFile</text></g></g><g transform="translate(-6,-14) scale(1,1)"><g><path fill="none" stroke="none"/><text fill="#000000" stroke="none" font-family="Arial" font-size="13px" font-style="normal" font-weight="normal" text-decoration="none" x="1109" y="109.5">+lowerLimit: string</text></g></g><g transform="translate(-6,-14) scale(1,1)"><g><path fill="none" stroke="none"/><text fill="#000000" stroke="none" font-family="Arial" font-size="13px" font-style="normal" font-weight="normal" text-decoration="none" x="1109" y="124.5">+upperLimit: string</text></g></g><g transform="translate(-6,-14) scale(1,1)"><rect fill="#C0C0C0" stroke="none" x="1359" y="31" width="197" height="173" opacity="0.2"/></g><g transform="translate(-6,-14) scale(1,1)"><rect fill="#ffffff" stroke="none" x="1352" y="24" width="197" height="173"/></g><g transform="translate(-6,-14) scale(1,1)"><path fill="none" stroke="#000000" d="M 1352 24 L 1549 24 L 1549 197 L 1352 197 L 1352 24 Z Z" stroke-miterlimit="10"/></g><g transform="translate(-6,-14) scale(1,1)"><path fill="#ffffff" stroke="none" d="M 1522.4 41 C 1522.4 35.69806592 1526.69806592 31.4 1532 31.4 C 1537.30193408 31.4 1541.6 35.69806592 1541.6 41 C 1541.6 46.30193408 1537.30193408 50.6 1532 50.6 C 1526.69806592 50.6 1522.4 46.30193408 1522.4 41 Z"/></g><g transform="translate(-6,-14) scale(1,1)"><path fill="none" stroke="#000000" d="M 1522.4 41 C 1522.4 35.69806592 1526.69806592 31.4 1532 31.4 C 1537.30193408 31.4 1541.6 35.69806592 1541.6 41 C 1541.6 46.30193408 1537.30193408 50.6 1532 50.6 C 1526.69806592 50.6 1522.4 46.30193408 1522.4 41 Z" stroke-miterlimit="10"/></g><g transform="translate(-6,-14) scale(1,1)"><path fill="none" stroke="#000000" d="M 1522.4 50.6 L 1541.6 50.6" stroke-miterlimit="10"/></g><g transform="translate(-6,-14) scale(1,1)"><path fill="none" stroke="#000000" d="M 1352 62 L 1549 62" stroke-miterlimit="10"/></g><g transform="translate(-6,-14) scale(1,1)"><path fill="none" stroke="#000000" d="M 1352 100 L 1549 100" stroke-miterlimit="10"/></g><g transform="translate(-6,-14) scale(1,1)"><g><path fill="none" stroke="none"/><text fill="#000000" stroke="none" font-family="Arial" font-size="13px" font-style="normal" font-weight="normal" text-decoration="none" x="1415.5" y="41.5">«entity»</text></g></g><g transform="translate(-6,-14) scale(1,1)"><g><path fill="none" stroke="none"/><text fill="#000000" stroke="none" font-family="Arial" font-size="13px" font-style="normal" font-weight="bold" text-decoration="none" x="1416.5" y="56.5">Sample</text></g></g><g transform="translate(-6,-14) scale(1,1)"><g><path fill="none" stroke="none"/><text fill="#000000" stroke="none" font-family="Arial" font-size="13px" font-style="normal" font-weight="normal" text-decoration="none" x="1357" y="79.5">+id: int {id, unique}</text></g></g><g transform="translate(-6,-14) scale(1,1)"><g><path fill="none" stroke="none"/><text fill="#000000" stroke="none" font-family="Arial" font-size="13px" font-style="normal" font-weight="normal" text-decoration="none" x="1357" y="94.5">+soundFile</text></g></g><g transform="translate(-6,-14) scale(1,1)"><path fill="none" stroke="#000000" d="M 304 56 L 221 56" stroke-miterlimit="10"/></g><g transform="translate(-6,-14) scale(1,1)"><path fill="#000000" stroke="none" d="M 231.16267485762415 51.790482243984016 L 221 56 L 231.16267485762415 60.209517756015984 L 243 56"/></g><g transform="translate(-6,-14) scale(1,1)"><path fill="none" stroke="#000000" d="M 231.16267485762415 51.790482243984016 L 221 56 L 231.16267485762415 60.209517756015984 L 243 56 L 231.16267485762415 51.790482243984016" stroke-miterlimit="10"/></g><g transform="translate(-6,-14) scale(1,1)"><g><path fill="none" stroke="none"/><text fill="#000000" stroke="none" font-family="Arial" font-size="13px" font-style="normal" font-weight="normal" text-decoration="none" x="243.5" y="75.5">+owns</text></g></g><g transform="translate(-6,-14) scale(1,1)"><g><path fill="none" stroke="none"/><text fill="#000000" stroke="none" font-family="Arial" font-size="13px" font-style="normal" font-weight="normal" text-decoration="none" x="279.5" y="49.5">*</text></g></g><g transform="translate(-6,-14) scale(1,1)"><g><path fill="none" stroke="none"/><text fill="#000000" stroke="none" font-family="Arial" font-size="13px" font-style="normal" font-weight="normal" text-decoration="none" x="238.5" y="49.5">1</text></g></g><g transform="translate(-6,-14) scale(1,1)"><path fill="none" stroke="#000000" d="M 221 152 L 304 152" stroke-miterlimit="10"/></g><g transform="translate(-6,-14) scale(1,1)"><g><path fill="none" stroke="none"/><text fill="#000000" stroke="none" font-family="Arial" font-size="13px" font-style="normal" font-weight="normal" text-decoration="none" x="237.5" y="147.5">+shares</text></g></g><g transform="translate(-6,-14) scale(1,1)"><g><path fill="none" stroke="none"/><text fill="#000000" stroke="none" font-family="Arial" font-size="13px" font-style="normal" font-weight="normal" text-decoration="none" x="239.5" y="170.5">*</text></g></g><g transform="translate(-6,-14) scale(1,1)"><g><path fill="none" stroke="none"/><text fill="#000000" stroke="none" font-family="Arial" font-size="13px" font-style="normal" font-weight="normal" text-decoration="none" x="279.5" y="170.5">*</text></g></g><g transform="translate(-6,-14) scale(1,1)"><path fill="none" stroke="#000000" d="M 502 110 L 575 110" stroke-miterlimit="10"/></g><g transform="translate(-6,-14) scale(1,1)"><path fill="none" stroke="#000000" d="M 564.8373251423759 114.20951775601598 L 575 110 L 564.8373251423758 105.79048224398402" stroke-miterlimit="10"/></g><g transform="translate(-6,-14) scale(1,1)"><path fill="#000000" stroke="none" d="M 512.1626748576241 105.79048224398402 L 502 110 L 512.1626748576241 114.20951775601598 L 524 110"/></g><g transform="translate(-6,-14) scale(1,1)"><path fill="none" stroke="#000000" d="M 512.1626748576241 105.79048224398402 L 502 110 L 512.1626748576241 114.20951775601598 L 524 110 L 512.1626748576241 105.79048224398402" stroke-miterlimit="10"/></g><g transform="translate(-6,-14) scale(1,1)"><g><path fill="none" stroke="none"/><text fill="#000000" stroke="none" font-family="Arial" font-size="13px" font-style="normal" font-weight="normal" text-decoration="none" x="519.5" y="128.5">1</text></g></g><g transform="translate(-6,-14) scale(1,1)"><g><path fill="none" stroke="none"/><text fill="#000000" stroke="none" font-family="Arial" font-size="13px" font-style="normal" font-weight="normal" text-decoration="none" x="503.5" y="100.5">+contains</text></g></g><g transform="translate(-6,-14) scale(1,1)"><g><path fill="none" stroke="none"/><text fill="#000000" stroke="none" font-family="Arial" font-size="13px" font-style="normal" font-weight="normal" text-decoration="none" x="550.5" y="128.5">*</text></g></g><g transform="translate(-6,-14) scale(1,1)"><path fill="none" stroke="#000000" d="M 774 110 L 839 110" stroke-miterlimit="10"/></g><g transform="translate(-6,-14) scale(1,1)"><g><path fill="none" stroke="none"/><text fill="#000000" stroke="none" font-family="Arial" font-size="13px" font-style="normal" font-weight="normal" text-decoration="none" x="774.5" y="101.5">+related to</text></g></g><g transform="translate(-6,-14) scale(1,1)"><g><path fill="none" stroke="none"/><text fill="#000000" stroke="none" font-family="Arial" font-size="13px" font-style="normal" font-weight="normal" text-decoration="none" x="787.5" y="124.5">*</text></g></g><g transform="translate(-6,-14) scale(1,1)"><g><path fill="none" stroke="none"/><text fill="#000000" stroke="none" font-family="Arial" font-size="13px" font-style="normal" font-weight="normal" text-decoration="none" x="825.5" y="125.5">1</text></g></g><g transform="translate(-6,-14) scale(1,1)"><path fill="none" stroke="#000000" d="M 1038 110 L 1103 110" stroke-miterlimit="10"/></g><g transform="translate(-6,-14) scale(1,1)"><path fill="none" stroke="#000000" d="M 1092.837325142376 114.20951775601598 L 1103 110 L 1092.837325142376 105.79048224398402" stroke-miterlimit="10"/></g><g transform="translate(-6,-14) scale(1,1)"><path fill="#000000" stroke="none" d="M 1048.162674857624 105.79048224398402 L 1038 110 L 1048.162674857624 114.20951775601598 L 1060 110"/></g><g transform="translate(-6,-14) scale(1,1)"><path fill="none" stroke="#000000" d="M 1048.162674857624 105.79048224398402 L 1038 110 L 1048.162674857624 114.20951775601598 L 1060 110 L 1048.162674857624 105.79048224398402" stroke-miterlimit="10"/></g><g transform="translate(-6,-14) scale(1,1)"><g><path fill="none" stroke="none"/><text fill="#000000" stroke="none" font-family="Arial" font-size="13px" font-style="normal" font-weight="normal" text-decoration="none" x="1041.5" y="101.5">+contains</text></g></g><g transform="translate(-6,-14) scale(1,1)"><g><path fill="none" stroke="none"/><text fill="#000000" stroke="none" font-family="Arial" font-size="13px" font-style="normal" font-weight="normal" text-decoration="none" x="1055.5" y="128.5">1</text></g></g><g transform="translate(-6,-14) scale(1,1)"><g><path fill="none" stroke="none"/><text fill="#000000" stroke="none" font-family="Arial" font-size="13px" font-style="normal" font-weight="normal" text-decoration="none" x="1078.5" y="128.5">*</text></g></g><g transform="translate(-6,-14) scale(1,1)"><path fill="none" stroke="#000000" d="M 1302 110 L 1351 110" stroke-miterlimit="10"/></g><g transform="translate(-6,-14) scale(1,1)"><path fill="none" stroke="#000000" d="M 1340.837325142376 114.20951775601598 L 1351 110 L 1340.837325142376 105.79048224398402" stroke-miterlimit="10"/></g><g transform="translate(-6,-14) scale(1,1)"><path fill="#FFFFFF" stroke="none" d="M 1312.162674857624 105.79048224398402 L 1302 110 L 1312.162674857624 114.20951775601598 L 1324 110"/></g><g transform="translate(-6,-14) scale(1,1)"><path fill="none" stroke="#000000" d="M 1312.162674857624 105.79048224398402 L 1302 110 L 1312.162674857624 114.20951775601598 L 1324 110 L 1312.162674857624 105.79048224398402" stroke-miterlimit="10"/></g><g transform="translate(-6,-14) scale(1,1)"><g><path fill="none" stroke="none"/><text fill="#000000" stroke="none" font-family="Arial" font-size="13px" font-style="normal" font-weight="normal" text-decoration="none" x="1320.5" y="128.5">*</text></g></g><g transform="translate(-6,-14) scale(1,1)"><g><path fill="none" stroke="none"/><text fill="#000000" stroke="none" font-family="Arial" font-size="13px" font-style="normal" font-weight="normal" text-decoration="none" x="1325.5" y="128.5">1</text></g></g><g transform="translate(-6,-14) scale(1,1)"><rect fill="#C0C0C0" stroke="none" x="311" y="271" width="197" height="100" opacity="0.2"/></g><g transform="translate(-6,-14) scale(1,1)"><rect fill="#ffffff" stroke="none" x="304" y="264" width="197" height="100"/></g><g transform="translate(-6,-14) scale(1,1)"><path fill="none" stroke="#000000" d="M 304 264 L 501 264 L 501 364 L 304 364 L 304 264 Z Z" stroke-miterlimit="10"/></g><g transform="translate(-6,-14) scale(1,1)"><g><path fill="none" stroke="none"/><text fill="#000000" stroke="none" font-family="Arial" font-size="13px" font-style="normal" font-weight="normal" text-decoration="none" x="371.5" y="281.5">«lifecycle»</text></g></g><g transform="translate(-6,-14) scale(1,1)"><g><path fill="none" stroke="none"/><text fill="#000000" stroke="none" font-family="Arial" font-size="13px" font-style="normal" font-weight="bold" text-decoration="none" x="348" y="296.5">SessionRepository</text></g></g><g transform="translate(-6,-14) scale(1,1)"><path fill="none" stroke="#000000" d="M 402 263 L 402 198" stroke-miterlimit="10" stroke-dasharray="3"/></g><g transform="translate(-6,-14) scale(1,1)"><path fill="none" stroke="#000000" d="M 406.209517756016 208.16267485762415 L 402 198 L 397.790482243984 208.16267485762415" stroke-miterlimit="10"/></g><g transform="translate(-6,-14) scale(1,1)"><rect fill="#C0C0C0" stroke="none" x="583" y="271" width="197" height="100" opacity="0.2"/></g><g transform="translate(-6,-14) scale(1,1)"><rect fill="#ffffff" stroke="none" x="576" y="264" width="197" height="100"/></g><g transform="translate(-6,-14) scale(1,1)"><path fill="none" stroke="#000000" d="M 576 264 L 773 264 L 773 364 L 576 364 L 576 264 Z Z" stroke-miterlimit="10"/></g><g transform="translate(-6,-14) scale(1,1)"><g><path fill="none" stroke="none"/><text fill="#000000" stroke="none" font-family="Arial" font-size="13px" font-style="normal" font-weight="normal" text-decoration="none" x="643.5" y="281.5">«lifecycle»</text></g></g><g transform="translate(-6,-14) scale(1,1)"><g><path fill="none" stroke="none"/><text fill="#000000" stroke="none" font-family="Arial" font-size="13px" font-style="normal" font-weight="bold" text-decoration="none" x="627" y="296.5">TrackRepository</text></g></g><g transform="translate(-6,-14) scale(1,1)"><path fill="none" stroke="#000000" d="M 674 263 L 674 198" stroke-miterlimit="10" stroke-dasharray="3"/></g><g transform="translate(-6,-14) scale(1,1)"><path fill="none" stroke="#000000" d="M 678.209517756016 208.16267485762415 L 674 198 L 669.790482243984 208.16267485762415" stroke-miterlimit="10"/></g><g transform="translate(-6,-14) scale(1,1)"><rect fill="#C0C0C0" stroke="none" x="847" y="271" width="197" height="100" opacity="0.2"/></g><g transform="translate(-6,-14) scale(1,1)"><rect fill="#ffffff" stroke="none" x="840" y="264" width="197" height="100"/></g><g transform="translate(-6,-14) scale(1,1)"><path fill="none" stroke="#000000" d="M 840 264 L 1037 264 L 1037 364 L 840 364 L 840 264 Z Z" stroke-miterlimit="10"/></g><g transform="translate(-6,-14) scale(1,1)"><g><path fill="none" stroke="none"/><text fill="#000000" stroke="none" font-family="Arial" font-size="13px" font-style="normal" font-weight="normal" text-decoration="none" x="907.5" y="281.5">«lifecycle»</text></g></g><g transform="translate(-6,-14) scale(1,1)"><g><path fill="none" stroke="none"/><text fill="#000000" stroke="none" font-family="Arial" font-size="13px" font-style="normal" font-weight="bold" text-decoration="none" x="876.5" y="296.5">InstrumentRepository</text></g></g><g transform="translate(-6,-14) scale(1,1)"><path fill="none" stroke="#000000" d="M 938 263 L 938 198" stroke-miterlimit="10" stroke-dasharray="3"/></g><g transform="translate(-6,-14) scale(1,1)"><path fill="none" stroke="#000000" d="M 942.209517756016 208.16267485762415 L 938 198 L 933.790482243984 208.16267485762415" stroke-miterlimit="10"/></g><g transform="translate(-6,-14) scale(1,1)"><rect fill="#C0C0C0" stroke="none" x="23" y="271" width="197" height="100" opacity="0.2"/></g><g transform="translate(-6,-14) scale(1,1)"><rect fill="#ffffff" stroke="none" x="16" y="264" width="197" height="100"/></g><g transform="translate(-6,-14) scale(1,1)"><path fill="none" stroke="#000000" d="M 16 264 L 213 264 L 213 364 L 16 364 L 16 264 Z Z" stroke-miterlimit="10"/></g><g transform="translate(-6,-14) scale(1,1)"><g><path fill="none" stroke="none"/><text fill="#000000" stroke="none" font-family="Arial" font-size="13px" font-style="normal" font-weight="normal" text-decoration="none" x="83.5" y="281.5">«lifecycle»</text></g></g><g transform="translate(-6,-14) scale(1,1)"><g><path fill="none" stroke="none"/><text fill="#000000" stroke="none" font-family="Arial" font-size="13px" font-style="normal" font-weight="bold" text-decoration="none" x="60" y="296.5">JammerRepository</text></g></g><g transform="translate(-6,-14) scale(1,1)"><path fill="none" stroke="#000000" d="M 116 263 L 119 198" stroke-miterlimit="10" stroke-dasharray="3"/></g><g transform="translate(-6,-14) scale(1,1)"><path fill="none" stroke="#000000" d="M 122.73649364386463 208.34594680294458 L 119 198 L 114.32641085127972 207.9577891355945" stroke-miterlimit="10"/></g><g transform="translate(-6,-14) scale(1,1)"><rect fill="#C0C0C0" stroke="none" x="1111" y="271" width="197" height="100" opacity="0.2"/></g><g transform="translate(-6,-14) scale(1,1)"><rect fill="#ffffff" stroke="none" x="1104" y="264" width="197" height="100"/></g><g transform="translate(-6,-14) scale(1,1)"><path fill="none" stroke="#000000" d="M 1104 264 L 1301 264 L 1301 364 L 1104 364 L 1104 264 Z Z" stroke-miterlimit="10"/></g><g transform="translate(-6,-14) scale(1,1)"><g><path fill="none" stroke="none"/><text fill="#000000" stroke="none" font-family="Arial" font-size="13px" font-style="normal" font-weight="bold" text-decoration="none" x="1116" y="283.5">InstrumentMappingRepository</text></g></g><g transform="translate(-6,-14) scale(1,1)"><rect fill="#C0C0C0" stroke="none" x="1359" y="271" width="197" height="100" opacity="0.2"/></g><g transform="translate(-6,-14) scale(1,1)"><rect fill="#ffffff" stroke="none" x="1352" y="264" width="197" height="100"/></g><g transform="translate(-6,-14) scale(1,1)"><path fill="none" stroke="#000000" d="M 1352 264 L 1549 264 L 1549 364 L 1352 364 L 1352 264 Z Z" stroke-miterlimit="10"/></g><g transform="translate(-6,-14) scale(1,1)"><g><path fill="none" stroke="none"/><text fill="#000000" stroke="none" font-family="Arial" font-size="13px" font-style="normal" font-weight="bold" text-decoration="none" x="1397.5" y="283.5">SampleRepository</text></g></g><g transform="translate(-6,-14) scale(1,1)"><path fill="none" stroke="#000000" d="M 1202 263 L 1202 198" stroke-miterlimit="10" stroke-dasharray="3"/></g><g transform="translate(-6,-14) scale(1,1)"><path fill="none" stroke="#000000" d="M 1206.2095177560159 208.16267485762415 L 1202 198 L 1197.7904822439841 208.16267485762415" stroke-miterlimit="10"/></g><g transform="translate(-6,-14) scale(1,1)"><path fill="none" stroke="#000000" d="M 1450 263 L 1450 198" stroke-miterlimit="10" stroke-dasharray="3"/></g><g transform="translate(-6,-14) scale(1,1)"><path fill="none" stroke="#000000" d="M 1454.2095177560159 208.16267485762415 L 1450 198 L 1445.7904822439841 208.16267485762415" stroke-miterlimit="10"/></g><g transform="translate(-6,-14) scale(1,1)"><path fill="#C0C0C0" stroke="none" d="M 797.5 690.5 C 797.5 684.1487248 802.6487248 679 809 679 C 815.3512752 679 820.5 684.1487248 820.5 690.5 C 820.5 696.8512752 815.3512752 702 809 702 C 802.6487248 702 797.5 696.8512752 797.5 690.5 Z" opacity="0.2"/></g><g transform="translate(-6,-14) scale(1,1)"><path fill="#ffffff" stroke="none" d="M 790.5 683.5 C 790.5 677.1487248 795.6487248 672 802 672 C 808.3512752 672 813.5 677.1487248 813.5 683.5 C 813.5 689.8512752 808.3512752 695 802 695 C 795.6487248 695 790.5 689.8512752 790.5 683.5 Z"/></g><g transform="translate(-6,-14) scale(1,1)"><path fill="none" stroke="#000000" d="M 790.5 683.5 C 790.5 677.1487248 795.6487248 672 802 672 C 808.3512752 672 813.5 677.1487248 813.5 683.5 C 813.5 689.8512752 808.3512752 695 802 695 C 795.6487248 695 790.5 689.8512752 790.5 683.5 Z" stroke-miterlimit="10"/></g><g transform="translate(-6,-14) scale(1,1)"><g><path fill="none" stroke="none"/><text fill="#000000" stroke="none" font-family="Arial" font-size="13px" font-style="normal" font-weight="bold" text-decoration="none" x="752" y="714.5">ObjectRepository</text></g></g><g transform="translate(-6,-14) scale(1,1)"><rect fill="#C0C0C0" stroke="none" x="719" y="519" width="176" height="80" opacity="0.2"/></g><g transform="translate(-6,-14) scale(1,1)"><rect fill="#ffffff" stroke="none" x="712" y="512" width="176" height="80"/></g><g transform="translate(-6,-14) scale(1,1)"><path fill="none" stroke="#000000" d="M 712 512 L 888 512 L 888 592 L 712 592 L 712 512 Z Z" stroke-miterlimit="10"/></g><g transform="translate(-6,-14) scale(1,1)"><g><path fill="none" stroke="none"/><text fill="#000000" stroke="none" font-family="Arial" font-size="13px" font-style="normal" font-weight="normal" text-decoration="none" x="769" y="529.5">«lifecycle»</text></g></g><g transform="translate(-6,-14) scale(1,1)"><g><path fill="none" stroke="none"/><text fill="#000000" stroke="none" font-family="Arial" font-size="13px" font-style="normal" font-weight="bold" text-decoration="none" x="752" y="544.5">EntityRepository</text></g></g><g transform="translate(-6,-14) scale(1,1)"><path fill="none" stroke="#000000" d="M 801 593 L 802 672" stroke-miterlimit="10"/></g><g transform="translate(-6,-14) scale(1,1)"><path fill="none" stroke="#000000" d="M 214 349 L 711 521" stroke-miterlimit="10"/></g><g transform="translate(-6,-14) scale(1,1)"><path fill="#FFFFFF" stroke="none" d="M 689.0389625210671 522.3087524016796 L 711 521 L 694.5457737786328 506.3966291748764"/></g><g transform="translate(-6,-14) scale(1,1)"><path fill="none" stroke="#000000" d="M 689.0389625210671 522.3087524016796 L 711 521 L 694.5457737786328 506.3966291748764 L 689.0389625210671 522.3087524016796" stroke-miterlimit="10"/></g><g transform="translate(-6,-14) scale(1,1)"><path fill="none" stroke="#000000" d="M 487 365 L 731 511" stroke-miterlimit="10"/></g><g transform="translate(-6,-14) scale(1,1)"><path fill="#FFFFFF" stroke="none" d="M 709.2357082430225 507.7882085501761 L 731 511 L 717.8814012248462 493.3392421969913"/></g><g transform="translate(-6,-14) scale(1,1)"><path fill="none" stroke="#000000" d="M 709.2357082430225 507.7882085501761 L 731 511 L 717.8814012248462 493.3392421969913 L 709.2357082430225 507.7882085501761" stroke-miterlimit="10"/></g><g transform="translate(-6,-14) scale(1,1)"><path fill="none" stroke="#000000" d="M 701 365 L 778 511" stroke-miterlimit="10"/></g><g transform="translate(-6,-14) scale(1,1)"><path fill="#FFFFFF" stroke="none" d="M 761.0714828457615 496.94918838790267 L 778 511 L 775.9651548968939 489.0943065527164"/></g><g transform="translate(-6,-14) scale(1,1)"><path fill="none" stroke="#000000" d="M 761.0714828457615 496.94918838790267 L 778 511 L 775.9651548968939 489.0943065527164 L 761.0714828457615 496.94918838790267" stroke-miterlimit="10"/></g><g transform="translate(-6,-14) scale(1,1)"><path fill="none" stroke="#000000" d="M 908 365 L 824 511" stroke-miterlimit="10"/></g><g transform="translate(-6,-14) scale(1,1)"><path fill="#FFFFFF" stroke="none" d="M 826.8386990884152 489.1839098946344 L 824 511 L 841.4335686276472 497.5809581226857"/></g><g transform="translate(-6,-14) scale(1,1)"><path fill="none" stroke="#000000" d="M 826.8386990884152 489.1839098946344 L 824 511 L 841.4335686276472 497.5809581226857 L 826.8386990884152 489.1839098946344" stroke-miterlimit="10"/></g><g transform="translate(-6,-14) scale(1,1)"><path fill="none" stroke="#000000" d="M 1116 365 L 869 511" stroke-miterlimit="10"/></g><g transform="translate(-6,-14) scale(1,1)"><path fill="#FFFFFF" stroke="none" d="M 882.213223660484 493.4099255118682 L 869 511 L 890.7812210037973 507.9050990995283"/></g><g transform="translate(-6,-14) scale(1,1)"><path fill="none" stroke="#000000" d="M 882.213223660484 493.4099255118682 L 869 511 L 890.7812210037973 507.9050990995283 L 882.213223660484 493.4099255118682" stroke-miterlimit="10"/></g><g transform="translate(-6,-14) scale(1,1)"><path fill="none" stroke="#000000" d="M 1351 350 L 889 519" stroke-miterlimit="10"/></g><g transform="translate(-6,-14) scale(1,1)"><path fill="#FFFFFF" stroke="none" d="M 905.1960685606281 504.1108306753052 L 889 519 L 910.9805825035088 519.924117312056"/></g><g transform="translate(-6,-14) scale(1,1)"><path fill="none" stroke="#000000" d="M 905.1960685606281 504.1108306753052 L 889 519 L 910.9805825035088 519.924117312056 L 905.1960685606281 504.1108306753052" stroke-miterlimit="10"/></g></g></svg>