<svg version="1.1" xmlns="http://www.w3.org/2000/svg" xmlns:xlink="http://www.w3.org/1999/xlink" width="884" height="180"><defs/><g><g transform="translate(-22,-22) scale(1,1)"><rect fill="#C0C0C0" stroke="none" x="39" y="39" width="192" height="72" opacity="0.2"/></g><g transform="translate(-22,-22) scale(1,1)"><rect fill="#ffffff" stroke="none" x="32" y="32" width="192" height="72"/></g><g transform="translate(-22,-22) scale(1,1)"><path fill="none" stroke="#000000" d="M 32 32 L 224 32 L 224 104 L 32 104 L 32 32 Z Z" stroke-miterlimit="10"/></g><g transform="translate(-22,-22) scale(1,1)"><path fill="#ffffff" stroke="none" d="M 198 49 C 198 44.0294368 202.0294368 40 207 40 C 211.9705632 40 216 44.0294368 216 49 C 216 53.9705632 211.9705632 58 207 58 C 202.0294368 58 198 53.9705632 198 49 Z"/></g><g transform="translate(-22,-22) scale(1,1)"><path fill="none" stroke="#000000" d="M 198 49 C 198 44.0294368 202.0294368 40 207 40 C 211.9705632 40 216 44.0294368 216 49 C 216 53.9705632 211.9705632 58 207 58 C 202.0294368 58 198 53.9705632 198 49 Z" stroke-miterlimit="10"/></g><g transform="translate(-22,-22) scale(1,1)"><path fill="none" stroke="#000000" d="M 207 40 L 210 37" stroke-miterlimit="10"/></g><g transform="translate(-22,-22) scale(1,1)"><path fill="none" stroke="#000000" d="M 207 40 L 210 43" stroke-miterlimit="10"/></g><g transform="translate(-22,-22) scale(1,1)"><g><path fill="none" stroke="none"/><text fill="#000000" stroke="none" font-family="Arial" font-size="13px" font-style="normal" font-weight="normal" text-decoration="none" x="89.5" y="49.5">«control»</text></g></g><g transform="translate(-22,-22) scale(1,1)"><g><path fill="none" stroke="none"/><text fill="#000000" stroke="none" font-family="Arial" font-size="13px" font-style="normal" font-weight="bold" text-decoration="none" x="70" y="64.5">SecurityService</text></g></g><g transform="translate(-22,-22) scale(1,1)"><rect fill="#C0C0C0" stroke="none" x="263" y="39" width="192" height="72" opacity="0.2"/></g><g transform="translate(-22,-22) scale(1,1)"><rect fill="#ffffff" stroke="none" x="256" y="32" width="192" height="72"/></g><g transform="translate(-22,-22) scale(1,1)"><path fill="none" stroke="#000000" d="M 256 32 L 448 32 L 448 104 L 256 104 L 256 32 Z Z" stroke-miterlimit="10"/></g><g transform="translate(-22,-22) scale(1,1)"><path fill="#ffffff" stroke="none" d="M 422 49 C 422 44.0294368 426.0294368 40 431 40 C 435.9705632 40 440 44.0294368 440 49 C 440 53.9705632 435.9705632 58 431 58 C 426.0294368 58 422 53.9705632 422 49 Z"/></g><g transform="translate(-22,-22) scale(1,1)"><path fill="none" stroke="#000000" d="M 422 49 C 422 44.0294368 426.0294368 40 431 40 C 435.9705632 40 440 44.0294368 440 49 C 440 53.9705632 435.9705632 58 431 58 C 426.0294368 58 422 53.9705632 422 49 Z" stroke-miterlimit="10"/></g><g transform="translate(-22,-22) scale(1,1)"><path fill="none" stroke="#000000" d="M 431 40 L 434 37" stroke-miterlimit="10"/></g><g transform="translate(-22,-22) scale(1,1)"><path fill="none" stroke="#000000" d="M 431 40 L 434 43" stroke-miterlimit="10"/></g><g transform="translate(-22,-22) scale(1,1)"><g><path fill="none" stroke="none"/><text fill="#000000" stroke="none" font-family="Arial" font-size="13px" font-style="normal" font-weight="normal" text-decoration="none" x="313.5" y="49.5">«control»</text></g></g><g transform="translate(-22,-22) scale(1,1)"><g><path fill="none" stroke="none"/><text fill="#000000" stroke="none" font-family="Arial" font-size="13px" font-style="normal" font-weight="bold" text-decoration="none" x="294.5" y="64.5">SessionService</text></g></g><g transform="translate(-22,-22) scale(1,1)"><rect fill="#C0C0C0" stroke="none" x="487" y="39" width="192" height="72" opacity="0.2"/></g><g transform="translate(-22,-22) scale(1,1)"><rect fill="#ffffff" stroke="none" x="480" y="32" width="192" height="72"/></g><g transform="translate(-22,-22) scale(1,1)"><path fill="none" stroke="#000000" d="M 480 32 L 672 32 L 672 104 L 480 104 L 480 32 Z Z" stroke-miterlimit="10"/></g><g transform="translate(-22,-22) scale(1,1)"><path fill="#ffffff" stroke="none" d="M 646 49 C 646 44.0294368 650.0294368 40 655 40 C 659.9705632 40 664 44.0294368 664 49 C 664 53.9705632 659.9705632 58 655 58 C 650.0294368 58 646 53.9705632 646 49 Z"/></g><g transform="translate(-22,-22) scale(1,1)"><path fill="none" stroke="#000000" d="M 646 49 C 646 44.0294368 650.0294368 40 655 40 C 659.9705632 40 664 44.0294368 664 49 C 664 53.9705632 659.9705632 58 655 58 C 650.0294368 58 646 53.9705632 646 49 Z" stroke-miterlimit="10"/></g><g transform="translate(-22,-22) scale(1,1)"><path fill="none" stroke="#000000" d="M 655 40 L 658 37" stroke-miterlimit="10"/></g><g transform="translate(-22,-22) scale(1,1)"><path fill="none" stroke="#000000" d="M 655 40 L 658 43" stroke-miterlimit="10"/></g><g transform="translate(-22,-22) scale(1,1)"><g><path fill="none" stroke="none"/><text fill="#000000" stroke="none" font-family="Arial" font-size="13px" font-style="normal" font-weight="normal" text-decoration="none" x="537.5" y="49.5">«control»</text></g></g><g transform="translate(-22,-22) scale(1,1)"><g><path fill="none" stroke="none"/><text fill="#000000" stroke="none" font-family="Arial" font-size="13px" font-style="normal" font-weight="bold" text-decoration="none" x="511" y="64.5">InstrumentService</text></g></g><g transform="translate(-22,-22) scale(1,1)"><rect fill="#C0C0C0" stroke="none" x="263" y="127" width="192" height="72" opacity="0.2"/></g><g transform="translate(-22,-22) scale(1,1)"><rect fill="#ffffff" stroke="none" x="256" y="120" width="192" height="72"/></g><g transform="translate(-22,-22) scale(1,1)"><path fill="none" stroke="#000000" d="M 256 120 L 448 120 L 448 192 L 256 192 L 256 120 Z Z" stroke-miterlimit="10"/></g><g transform="translate(-22,-22) scale(1,1)"><path fill="#ffffff" stroke="none" d="M 422 137 C 422 132.0294368 426.0294368 128 431 128 C 435.9705632 128 440 132.0294368 440 137 C 440 141.9705632 435.9705632 146 431 146 C 426.0294368 146 422 141.9705632 422 137 Z"/></g><g transform="translate(-22,-22) scale(1,1)"><path fill="none" stroke="#000000" d="M 422 137 C 422 132.0294368 426.0294368 128 431 128 C 435.9705632 128 440 132.0294368 440 137 C 440 141.9705632 435.9705632 146 431 146 C 426.0294368 146 422 141.9705632 422 137 Z" stroke-miterlimit="10"/></g><g transform="translate(-22,-22) scale(1,1)"><path fill="none" stroke="#000000" d="M 431 128 L 434 125" stroke-miterlimit="10"/></g><g transform="translate(-22,-22) scale(1,1)"><path fill="none" stroke="#000000" d="M 431 128 L 434 131" stroke-miterlimit="10"/></g><g transform="translate(-22,-22) scale(1,1)"><g><path fill="none" stroke="none"/><text fill="#000000" stroke="none" font-family="Arial" font-size="13px" font-style="normal" font-weight="normal" text-decoration="none" x="313.5" y="137.5">«control»</text></g></g><g transform="translate(-22,-22) scale(1,1)"><g><path fill="none" stroke="none"/><text fill="#000000" stroke="none" font-family="Arial" font-size="13px" font-style="normal" font-weight="bold" text-decoration="none" x="301.5" y="152.5">TrackService</text></g></g><g transform="translate(-22,-22) scale(1,1)"><rect fill="#C0C0C0" stroke="none" x="711" y="39" width="192" height="72" opacity="0.2"/></g><g transform="translate(-22,-22) scale(1,1)"><rect fill="#ffffff" stroke="none" x="704" y="32" width="192" height="72"/></g><g transform="translate(-22,-22) scale(1,1)"><path fill="none" stroke="#000000" d="M 704 32 L 896 32 L 896 104 L 704 104 L 704 32 Z Z" stroke-miterlimit="10"/></g><g transform="translate(-22,-22) scale(1,1)"><path fill="#ffffff" stroke="none" d="M 870 49 C 870 44.0294368 874.0294368 40 879 40 C 883.9705632 40 888 44.0294368 888 49 C 888 53.9705632 883.9705632 58 879 58 C 874.0294368 58 870 53.9705632 870 49 Z"/></g><g transform="translate(-22,-22) scale(1,1)"><path fill="none" stroke="#000000" d="M 870 49 C 870 44.0294368 874.0294368 40 879 40 C 883.9705632 40 888 44.0294368 888 49 C 888 53.9705632 883.9705632 58 879 58 C 874.0294368 58 870 53.9705632 870 49 Z" stroke-miterlimit="10"/></g><g transform="translate(-22,-22) scale(1,1)"><path fill="none" stroke="#000000" d="M 879 40 L 882 37" stroke-miterlimit="10"/></g><g transform="translate(-22,-22) scale(1,1)"><path fill="none" stroke="#000000" d="M 879 40 L 882 43" stroke-miterlimit="10"/></g><g transform="translate(-22,-22) scale(1,1)"><g><path fill="none" stroke="none"/><text fill="#000000" stroke="none" font-family="Arial" font-size="13px" font-style="normal" font-weight="normal" text-decoration="none" x="761.5" y="49.5">«control»</text></g></g><g transform="translate(-22,-22) scale(1,1)"><g><path fill="none" stroke="none"/><text fill="#000000" stroke="none" font-family="Arial" font-size="13px" font-style="normal" font-weight="bold" text-decoration="none" x="741.5" y="64.5">MappingService</text></g></g><g transform="translate(-22,-22) scale(1,1)"><path fill="none" stroke="#000000" d="M 673 68 L 703 68" stroke-miterlimit="10"/></g><g transform="translate(-22,-22) scale(1,1)"><path fill="none" stroke="#000000" d="M 692.8373251423759 72.20951775601598 L 703 68 L 692.8373251423758 63.790482243984016" stroke-miterlimit="10"/></g><g transform="translate(-22,-22) scale(1,1)"><rect fill="#C0C0C0" stroke="none" x="487" y="127" width="192" height="72" opacity="0.2"/></g><g transform="translate(-22,-22) scale(1,1)"><rect fill="#ffffff" stroke="none" x="480" y="120" width="192" height="72"/></g><g transform="translate(-22,-22) scale(1,1)"><path fill="none" stroke="#000000" d="M 480 120 L 672 120 L 672 192 L 480 192 L 480 120 Z Z" stroke-miterlimit="10"/></g><g transform="translate(-22,-22) scale(1,1)"><path fill="#ffffff" stroke="none" d="M 646 137 C 646 132.0294368 650.0294368 128 655 128 C 659.9705632 128 664 132.0294368 664 137 C 664 141.9705632 659.9705632 146 655 146 C 650.0294368 146 646 141.9705632 646 137 Z"/></g><g transform="translate(-22,-22) scale(1,1)"><path fill="none" stroke="#000000" d="M 646 137 C 646 132.0294368 650.0294368 128 655 128 C 659.9705632 128 664 132.0294368 664 137 C 664 141.9705632 659.9705632 146 655 146 C 650.0294368 146 646 141.9705632 646 137 Z" stroke-miterlimit="10"/></g><g transform="translate(-22,-22) scale(1,1)"><path fill="none" stroke="#000000" d="M 655 128 L 658 125" stroke-miterlimit="10"/></g><g transform="translate(-22,-22) scale(1,1)"><path fill="none" stroke="#000000" d="M 655 128 L 658 131" stroke-miterlimit="10"/></g><g transform="translate(-22,-22) scale(1,1)"><g><path fill="none" stroke="none"/><text fill="#000000" stroke="none" font-family="Arial" font-size="13px" font-style="normal" font-weight="normal" text-decoration="none" x="537.5" y="137.5">«control»</text></g></g><g transform="translate(-22,-22) scale(1,1)"><g><path fill="none" stroke="none"/><text fill="#000000" stroke="none" font-family="Arial" font-size="13px" font-style="normal" font-weight="bold" text-decoration="none" x="520" y="152.5">SampleService</text></g></g><g transform="translate(-22,-22) scale(1,1)"><path fill="none" stroke="#000000" d="M 576 105 L 576 119" stroke-miterlimit="10"/></g><g transform="translate(-22,-22) scale(1,1)"><path fill="none" stroke="#000000" d="M 571.790482243984 108.83732514237585 L 576 119 L 580.209517756016 108.83732514237585" stroke-miterlimit="10"/></g></g></svg>