<svg version="1.1" xmlns="http://www.w3.org/2000/svg" xmlns:xlink="http://www.w3.org/1999/xlink" width="1309" height="1059"><defs/><g><g transform="translate(-38,-22) scale(1,1)"><rect fill="#C0C0C0" stroke="none" x="55" y="231" width="257" height="143" opacity="0.2"/></g><g transform="translate(-38,-22) scale(1,1)"><rect fill="#ffffff" stroke="none" x="48" y="224" width="257" height="143"/></g><g transform="translate(-38,-22) scale(1,1)"><path fill="none" stroke="#000000" d="M 48 224 L 305 224 L 305 367 L 48 367 L 48 224 Z Z" stroke-miterlimit="10"/></g><g transform="translate(-38,-22) scale(1,1)"><path fill="none" stroke="#000000" d="M 48 262 L 305 262" stroke-miterlimit="10"/></g><g transform="translate(-38,-22) scale(1,1)"><path fill="none" stroke="#000000" d="M 48 300 L 305 300" stroke-miterlimit="10"/></g><g transform="translate(-38,-22) scale(1,1)"><g><path fill="none" stroke="none"/><text fill="#000000" stroke="none" font-family="Arial" font-size="13px" font-style="normal" font-weight="normal" text-decoration="none" x="118.5" y="241.5">«React component»</text></g></g><g transform="translate(-38,-22) scale(1,1)"><g><path fill="none" stroke="none"/><text fill="#000000" stroke="none" font-family="Arial" font-size="13px" font-style="normal" font-weight="bold" text-decoration="none" x="110.5" y="256.5">SessionFormContainer</text></g></g><g transform="translate(-38,-22) scale(1,1)"><g><path fill="none" stroke="none"/><text fill="#000000" stroke="none" font-family="Arial" font-size="13px" font-style="normal" font-weight="normal" text-decoration="none" x="53" y="279.5">+props</text></g></g><g transform="translate(-38,-22) scale(1,1)"><g><path fill="none" stroke="none"/><text fill="#000000" stroke="none" font-family="Arial" font-size="13px" font-style="normal" font-weight="normal" text-decoration="none" x="53" y="294.5">+state</text></g></g><g transform="translate(-38,-22) scale(1,1)"><g><path fill="none" stroke="none"/><text fill="#000000" stroke="none" font-family="Arial" font-size="13px" font-style="normal" font-weight="normal" text-decoration="none" x="53" y="317.5">+render(): ReactComponent</text></g></g><g transform="translate(-38,-22) scale(1,1)"><g><path fill="none" stroke="none"/><text fill="#000000" stroke="none" font-family="Arial" font-size="13px" font-style="normal" font-weight="normal" text-decoration="none" x="53" y="332.5">+handleSessionSubmit(session: json)</text></g></g><g transform="translate(-38,-22) scale(1,1)"><rect fill="#C0C0C0" stroke="none" x="55" y="423" width="257" height="143" opacity="0.2"/></g><g transform="translate(-38,-22) scale(1,1)"><rect fill="#ffffff" stroke="none" x="48" y="416" width="257" height="143"/></g><g transform="translate(-38,-22) scale(1,1)"><path fill="none" stroke="#000000" d="M 48 416 L 305 416 L 305 559 L 48 559 L 48 416 Z Z" stroke-miterlimit="10"/></g><g transform="translate(-38,-22) scale(1,1)"><path fill="none" stroke="#000000" d="M 48 454 L 305 454" stroke-miterlimit="10"/></g><g transform="translate(-38,-22) scale(1,1)"><path fill="none" stroke="#000000" d="M 48 477 L 305 477" stroke-miterlimit="10"/></g><g transform="translate(-38,-22) scale(1,1)"><g><path fill="none" stroke="none"/><text fill="#000000" stroke="none" font-family="Arial" font-size="13px" font-style="normal" font-weight="normal" text-decoration="none" x="118.5" y="433.5">«React component»</text></g></g><g transform="translate(-38,-22) scale(1,1)"><g><path fill="none" stroke="none"/><text fill="#000000" stroke="none" font-family="Arial" font-size="13px" font-style="normal" font-weight="bold" text-decoration="none" x="138" y="448.5">SessionForm</text></g></g><g transform="translate(-38,-22) scale(1,1)"><g><path fill="none" stroke="none"/><text fill="#000000" stroke="none" font-family="Arial" font-size="13px" font-style="normal" font-weight="normal" text-decoration="none" x="53" y="471.5">+props</text></g></g><g transform="translate(-38,-22) scale(1,1)"><g><path fill="none" stroke="none"/><text fill="#000000" stroke="none" font-family="Arial" font-size="13px" font-style="normal" font-weight="normal" text-decoration="none" x="53" y="494.5">+handleSubmit(event: Event)</text></g></g><g transform="translate(-38,-22) scale(1,1)"><g><path fill="none" stroke="none"/><text fill="#000000" stroke="none" font-family="Arial" font-size="13px" font-style="normal" font-weight="normal" text-decoration="none" x="53" y="509.5">+handleValidation()</text></g></g><g transform="translate(-38,-22) scale(1,1)"><rect fill="#C0C0C0" stroke="none" x="743" y="231" width="257" height="143" opacity="0.2"/></g><g transform="translate(-38,-22) scale(1,1)"><rect fill="#ffffff" stroke="none" x="736" y="224" width="257" height="143"/></g><g transform="translate(-38,-22) scale(1,1)"><path fill="none" stroke="#000000" d="M 736 224 L 993 224 L 993 367 L 736 367 L 736 224 Z Z" stroke-miterlimit="10"/></g><g transform="translate(-38,-22) scale(1,1)"><path fill="none" stroke="#000000" d="M 736 262 L 993 262" stroke-miterlimit="10"/></g><g transform="translate(-38,-22) scale(1,1)"><path fill="none" stroke="#000000" d="M 736 285 L 993 285" stroke-miterlimit="10"/></g><g transform="translate(-38,-22) scale(1,1)"><g><path fill="none" stroke="none"/><text fill="#000000" stroke="none" font-family="Arial" font-size="13px" font-style="normal" font-weight="normal" text-decoration="none" x="806.5" y="241.5">«React component»</text></g></g><g transform="translate(-38,-22) scale(1,1)"><g><path fill="none" stroke="none"/><text fill="#000000" stroke="none" font-family="Arial" font-size="13px" font-style="normal" font-weight="bold" text-decoration="none" x="827" y="256.5">SessionView</text></g></g><g transform="translate(-38,-22) scale(1,1)"><g><path fill="none" stroke="none"/><text fill="#000000" stroke="none" font-family="Arial" font-size="13px" font-style="normal" font-weight="normal" text-decoration="none" x="741" y="279.5">+props</text></g></g><g transform="translate(-38,-22) scale(1,1)"><g><path fill="none" stroke="none"/><text fill="#000000" stroke="none" font-family="Arial" font-size="13px" font-style="normal" font-weight="normal" text-decoration="none" x="741" y="302.5">+render(): ReactComponent</text></g></g><g transform="translate(-38,-22) scale(1,1)"><g><path fill="none" stroke="none"/><text fill="#000000" stroke="none" font-family="Arial" font-size="13px" font-style="normal" font-weight="normal" text-decoration="none" x="741" y="317.5">+addInstrument(event: Event)</text></g></g><g transform="translate(-38,-22) scale(1,1)"><rect fill="#C0C0C0" stroke="none" x="743" y="39" width="257" height="143" opacity="0.2"/></g><g transform="translate(-38,-22) scale(1,1)"><rect fill="#ffffff" stroke="none" x="736" y="32" width="257" height="143"/></g><g transform="translate(-38,-22) scale(1,1)"><path fill="none" stroke="#000000" d="M 736 32 L 993 32 L 993 175 L 736 175 L 736 32 Z Z" stroke-miterlimit="10"/></g><g transform="translate(-38,-22) scale(1,1)"><path fill="none" stroke="#000000" d="M 736 70 L 993 70" stroke-miterlimit="10"/></g><g transform="translate(-38,-22) scale(1,1)"><path fill="none" stroke="#000000" d="M 736 93 L 993 93" stroke-miterlimit="10"/></g><g transform="translate(-38,-22) scale(1,1)"><g><path fill="none" stroke="none"/><text fill="#000000" stroke="none" font-family="Arial" font-size="13px" font-style="normal" font-weight="normal" text-decoration="none" x="806.5" y="49.5">«React component»</text></g></g><g transform="translate(-38,-22) scale(1,1)"><g><path fill="none" stroke="none"/><text fill="#000000" stroke="none" font-family="Arial" font-size="13px" font-style="normal" font-weight="bold" text-decoration="none" x="799.5" y="64.5">SessionViewContainer</text></g></g><g transform="translate(-38,-22) scale(1,1)"><g><path fill="none" stroke="none"/><text fill="#000000" stroke="none" font-family="Arial" font-size="13px" font-style="normal" font-weight="normal" text-decoration="none" x="741" y="87.5">+state</text></g></g><g transform="translate(-38,-22) scale(1,1)"><g><path fill="none" stroke="none"/><text fill="#000000" stroke="none" font-family="Arial" font-size="13px" font-style="normal" font-weight="normal" text-decoration="none" x="741" y="110.5">+setState(state: json)</text></g></g><g transform="translate(-38,-22) scale(1,1)"><g><path fill="none" stroke="none"/><text fill="#000000" stroke="none" font-family="Arial" font-size="13px" font-style="normal" font-weight="normal" text-decoration="none" x="741" y="125.5">+componentDidMount()</text></g></g><g transform="translate(-38,-22) scale(1,1)"><g><path fill="none" stroke="none"/><text fill="#000000" stroke="none" font-family="Arial" font-size="13px" font-style="normal" font-weight="normal" text-decoration="none" x="741" y="140.5">+addInstrument()</text></g></g><g transform="translate(-38,-22) scale(1,1)"><g><path fill="none" stroke="none"/><text fill="#000000" stroke="none" font-family="Arial" font-size="13px" font-style="normal" font-weight="normal" text-decoration="none" x="741" y="155.5">+selectInstrument(instrument: Instrument)</text></g></g><g transform="translate(-38,-22) scale(1,1)"><rect fill="#C0C0C0" stroke="none" x="407" y="231" width="257" height="143" opacity="0.2"/></g><g transform="translate(-38,-22) scale(1,1)"><rect fill="#ffffff" stroke="none" x="400" y="224" width="257" height="143"/></g><g transform="translate(-38,-22) scale(1,1)"><path fill="none" stroke="#000000" d="M 400 224 L 657 224 L 657 367 L 400 367 L 400 224 Z Z" stroke-miterlimit="10"/></g><g transform="translate(-38,-22) scale(1,1)"><path fill="none" stroke="#000000" d="M 400 262 L 657 262" stroke-miterlimit="10"/></g><g transform="translate(-38,-22) scale(1,1)"><path fill="none" stroke="#000000" d="M 400 300 L 657 300" stroke-miterlimit="10"/></g><g transform="translate(-38,-22) scale(1,1)"><g><path fill="none" stroke="none"/><text fill="#000000" stroke="none" font-family="Arial" font-size="13px" font-style="normal" font-weight="normal" text-decoration="none" x="470.5" y="241.5">«React component»</text></g></g><g transform="translate(-38,-22) scale(1,1)"><g><path fill="none" stroke="none"/><text fill="#000000" stroke="none" font-family="Arial" font-size="13px" font-style="normal" font-weight="bold" text-decoration="none" x="467" y="256.5">SessionListContainer</text></g></g><g transform="translate(-38,-22) scale(1,1)"><g><path fill="none" stroke="none"/><text fill="#000000" stroke="none" font-family="Arial" font-size="13px" font-style="normal" font-weight="normal" text-decoration="none" x="405" y="279.5">+state</text></g></g><g transform="translate(-38,-22) scale(1,1)"><g><path fill="none" stroke="none"/><text fill="#000000" stroke="none" font-family="Arial" font-size="13px" font-style="normal" font-weight="normal" text-decoration="none" x="405" y="294.5">+props</text></g></g><g transform="translate(-38,-22) scale(1,1)"><g><path fill="none" stroke="none"/><text fill="#000000" stroke="none" font-family="Arial" font-size="13px" font-style="normal" font-weight="normal" text-decoration="none" x="405" y="317.5">+render(): ReactComponent</text></g></g><g transform="translate(-38,-22) scale(1,1)"><g><path fill="none" stroke="none"/><text fill="#000000" stroke="none" font-family="Arial" font-size="13px" font-style="normal" font-weight="normal" text-decoration="none" x="405" y="332.5">+setState(state: json)</text></g></g><g transform="translate(-38,-22) scale(1,1)"><g><path fill="none" stroke="none"/><text fill="#000000" stroke="none" font-family="Arial" font-size="13px" font-style="normal" font-weight="normal" text-decoration="none" x="405" y="347.5">+handleSearchSubmit(criteria: json)</text></g></g><g transform="translate(-38,-22) scale(1,1)"><rect fill="#C0C0C0" stroke="none" x="407" y="423" width="257" height="143" opacity="0.2"/></g><g transform="translate(-38,-22) scale(1,1)"><rect fill="#ffffff" stroke="none" x="400" y="416" width="257" height="143"/></g><g transform="translate(-38,-22) scale(1,1)"><path fill="none" stroke="#000000" d="M 400 416 L 657 416 L 657 559 L 400 559 L 400 416 Z Z" stroke-miterlimit="10"/></g><g transform="translate(-38,-22) scale(1,1)"><path fill="none" stroke="#000000" d="M 400 454 L 657 454" stroke-miterlimit="10"/></g><g transform="translate(-38,-22) scale(1,1)"><path fill="none" stroke="#000000" d="M 400 464 L 657 464" stroke-miterlimit="10"/></g><g transform="translate(-38,-22) scale(1,1)"><g><path fill="none" stroke="none"/><text fill="#000000" stroke="none" font-family="Arial" font-size="13px" font-style="normal" font-weight="normal" text-decoration="none" x="470.5" y="433.5">«React component»</text></g></g><g transform="translate(-38,-22) scale(1,1)"><g><path fill="none" stroke="none"/><text fill="#000000" stroke="none" font-family="Arial" font-size="13px" font-style="normal" font-weight="bold" text-decoration="none" x="494.5" y="448.5">SessionList</text></g></g><g transform="translate(-38,-22) scale(1,1)"><g><path fill="none" stroke="none"/><text fill="#000000" stroke="none" font-family="Arial" font-size="13px" font-style="normal" font-weight="normal" text-decoration="none" x="405" y="481.5">+render(): ReactComponent</text></g></g><g transform="translate(-38,-22) scale(1,1)"><rect fill="#C0C0C0" stroke="none" x="743" y="423" width="257" height="143" opacity="0.2"/></g><g transform="translate(-38,-22) scale(1,1)"><rect fill="#ffffff" stroke="none" x="736" y="416" width="257" height="143"/></g><g transform="translate(-38,-22) scale(1,1)"><path fill="none" stroke="#000000" d="M 736 416 L 993 416 L 993 559 L 736 559 L 736 416 Z Z" stroke-miterlimit="10"/></g><g transform="translate(-38,-22) scale(1,1)"><path fill="none" stroke="#000000" d="M 736 454 L 993 454" stroke-miterlimit="10"/></g><g transform="translate(-38,-22) scale(1,1)"><path fill="none" stroke="#000000" d="M 736 464 L 993 464" stroke-miterlimit="10"/></g><g transform="translate(-38,-22) scale(1,1)"><g><path fill="none" stroke="none"/><text fill="#000000" stroke="none" font-family="Arial" font-size="13px" font-style="normal" font-weight="normal" text-decoration="none" x="806.5" y="433.5">«React component»</text></g></g><g transform="translate(-38,-22) scale(1,1)"><g><path fill="none" stroke="none"/><text fill="#000000" stroke="none" font-family="Arial" font-size="13px" font-style="normal" font-weight="bold" text-decoration="none" x="805.5" y="448.5">SessionSearchForm</text></g></g><g transform="translate(-38,-22) scale(1,1)"><g><path fill="none" stroke="none"/><text fill="#000000" stroke="none" font-family="Arial" font-size="13px" font-style="normal" font-weight="normal" text-decoration="none" x="741" y="481.5">+handleValidation()</text></g></g><g transform="translate(-38,-22) scale(1,1)"><g><path fill="none" stroke="none"/><text fill="#000000" stroke="none" font-family="Arial" font-size="13px" font-style="normal" font-weight="normal" text-decoration="none" x="741" y="496.5">+handleSubmit(event: Event)</text></g></g><g transform="translate(-38,-22) scale(1,1)"><g><path fill="none" stroke="none"/><text fill="#000000" stroke="none" font-family="Arial" font-size="13px" font-style="normal" font-weight="normal" text-decoration="none" x="741" y="511.5">+render()</text></g></g><g transform="translate(-38,-22) scale(1,1)"><rect fill="#C0C0C0" stroke="none" x="1087" y="231" width="257" height="143" opacity="0.2"/></g><g transform="translate(-38,-22) scale(1,1)"><rect fill="#ffffff" stroke="none" x="1080" y="224" width="257" height="143"/></g><g transform="translate(-38,-22) scale(1,1)"><path fill="none" stroke="#000000" d="M 1080 224 L 1337 224 L 1337 367 L 1080 367 L 1080 224 Z Z" stroke-miterlimit="10"/></g><g transform="translate(-38,-22) scale(1,1)"><path fill="none" stroke="#000000" d="M 1080 262 L 1337 262" stroke-miterlimit="10"/></g><g transform="translate(-38,-22) scale(1,1)"><path fill="none" stroke="#000000" d="M 1080 272 L 1337 272" stroke-miterlimit="10"/></g><g transform="translate(-38,-22) scale(1,1)"><g><path fill="none" stroke="none"/><text fill="#000000" stroke="none" font-family="Arial" font-size="13px" font-style="normal" font-weight="normal" text-decoration="none" x="1150.5" y="241.5">«React component»</text></g></g><g transform="translate(-38,-22) scale(1,1)"><g><path fill="none" stroke="none"/><text fill="#000000" stroke="none" font-family="Arial" font-size="13px" font-style="normal" font-weight="bold" text-decoration="none" x="1148.5" y="256.5">SelectInstrumentList</text></g></g><g transform="translate(-38,-22) scale(1,1)"><g><path fill="none" stroke="none"/><text fill="#000000" stroke="none" font-family="Arial" font-size="13px" font-style="normal" font-weight="normal" text-decoration="none" x="1085" y="289.5">+render(): ReactComponent</text></g></g><g transform="translate(-38,-22) scale(1,1)"><g><path fill="none" stroke="none"/><text fill="#000000" stroke="none" font-family="Arial" font-size="13px" font-style="normal" font-weight="normal" text-decoration="none" x="1085" y="304.5">+selectInstrument(event: Event)</text></g></g><g transform="translate(-38,-22) scale(1,1)"><rect fill="#C0C0C0" stroke="none" x="1087" y="423" width="257" height="143" opacity="0.2"/></g><g transform="translate(-38,-22) scale(1,1)"><rect fill="#ffffff" stroke="none" x="1080" y="416" width="257" height="143"/></g><g transform="translate(-38,-22) scale(1,1)"><path fill="none" stroke="#000000" d="M 1080 416 L 1337 416 L 1337 559 L 1080 559 L 1080 416 Z Z" stroke-miterlimit="10"/></g><g transform="translate(-38,-22) scale(1,1)"><path fill="none" stroke="#000000" d="M 1080 454 L 1337 454" stroke-miterlimit="10"/></g><g transform="translate(-38,-22) scale(1,1)"><path fill="none" stroke="#000000" d="M 1080 464 L 1337 464" stroke-miterlimit="10"/></g><g transform="translate(-38,-22) scale(1,1)"><g><path fill="none" stroke="none"/><text fill="#000000" stroke="none" font-family="Arial" font-size="13px" font-style="normal" font-weight="normal" text-decoration="none" x="1150.5" y="433.5">«React component»</text></g></g><g transform="translate(-38,-22) scale(1,1)"><g><path fill="none" stroke="none"/><text fill="#000000" stroke="none" font-family="Arial" font-size="13px" font-style="normal" font-weight="bold" text-decoration="none" x="1181.5" y="448.5">TrackList</text></g></g><g transform="translate(-38,-22) scale(1,1)"><g><path fill="none" stroke="none"/><text fill="#000000" stroke="none" font-family="Arial" font-size="13px" font-style="normal" font-weight="normal" text-decoration="none" x="1085" y="481.5">+render(): ReactComponent</text></g></g><g transform="translate(-38,-22) scale(1,1)"><rect fill="#C0C0C0" stroke="none" x="55" y="39" width="257" height="143" opacity="0.2"/></g><g transform="translate(-38,-22) scale(1,1)"><rect fill="#ffffff" stroke="none" x="48" y="32" width="257" height="143"/></g><g transform="translate(-38,-22) scale(1,1)"><path fill="none" stroke="#000000" d="M 48 32 L 305 32 L 305 175 L 48 175 L 48 32 Z Z" stroke-miterlimit="10"/></g><g transform="translate(-38,-22) scale(1,1)"><path fill="#ffffff" stroke="none" d="M 280.8 49 C 280.8 43.698065920000005 285.09806591999995 39.4 290.4 39.4 C 295.70193408 39.4 300 43.698065920000005 300 49 C 300 54.301934079999995 295.70193408 58.599999999999994 290.4 58.599999999999994 C 285.09806591999995 58.599999999999994 280.8 54.301934079999995 280.8 49 Z"/></g><g transform="translate(-38,-22) scale(1,1)"><path fill="none" stroke="#000000" d="M 280.8 49 C 280.8 43.698065920000005 285.09806591999995 39.4 290.4 39.4 C 295.70193408 39.4 300 43.698065920000005 300 49 C 300 54.301934079999995 295.70193408 58.599999999999994 290.4 58.599999999999994 C 285.09806591999995 58.599999999999994 280.8 54.301934079999995 280.8 49 Z" stroke-miterlimit="10"/></g><g transform="translate(-38,-22) scale(1,1)"><path fill="none" stroke="#000000" d="M 276 39.4 L 276 58.599999999999994" stroke-miterlimit="10"/></g><g transform="translate(-38,-22) scale(1,1)"><path fill="none" stroke="#000000" d="M 276 49 L 280.8 49" stroke-miterlimit="10"/></g><g transform="translate(-38,-22) scale(1,1)"><path fill="none" stroke="#000000" d="M 48 70 L 305 70" stroke-miterlimit="10"/></g><g transform="translate(-38,-22) scale(1,1)"><path fill="none" stroke="#000000" d="M 48 80 L 305 80" stroke-miterlimit="10"/></g><g transform="translate(-38,-22) scale(1,1)"><g><path fill="none" stroke="none"/><text fill="#000000" stroke="none" font-family="Arial" font-size="13px" font-style="normal" font-weight="normal" text-decoration="none" x="131" y="49.5">«boundary»</text></g></g><g transform="translate(-38,-22) scale(1,1)"><g><path fill="none" stroke="none"/><text fill="#000000" stroke="none" font-family="Arial" font-size="13px" font-style="normal" font-weight="bold" text-decoration="none" x="130" y="64.5">SessionAPI</text></g></g><g transform="translate(-38,-22) scale(1,1)"><g><path fill="none" stroke="none"/><text fill="#000000" stroke="none" font-family="Arial" font-size="13px" font-style="normal" font-weight="normal" text-decoration="none" x="53" y="97.5">+postSession(data: json): json</text></g></g><g transform="translate(-38,-22) scale(1,1)"><g><path fill="none" stroke="none"/><text fill="#000000" stroke="none" font-family="Arial" font-size="13px" font-style="normal" font-weight="normal" text-decoration="none" x="53" y="112.5">+getSession(): json</text></g></g><g transform="translate(-38,-22) scale(1,1)"><g><path fill="none" stroke="none"/><text fill="#000000" stroke="none" font-family="Arial" font-size="13px" font-style="normal" font-weight="normal" text-decoration="none" x="53" y="127.5">+getSessionsByCriteria(criteria: json): json</text></g></g><g transform="translate(-38,-22) scale(1,1)"><g><path fill="none" stroke="none"/><text fill="#000000" stroke="none" font-family="Arial" font-size="13px" font-style="normal" font-weight="normal" text-decoration="none" x="53" y="142.5">+postTrack(data: json): json</text></g></g><g transform="translate(-38,-22) scale(1,1)"><path fill="none" stroke="#000000" d="M 176 223 L 176 176" stroke-miterlimit="10"/></g><g transform="translate(-38,-22) scale(1,1)"><path fill="none" stroke="#000000" d="M 180.209517756016 186.16267485762415 L 176 176 L 171.790482243984 186.16267485762415" stroke-miterlimit="10"/></g><g transform="translate(-38,-22) scale(1,1)"><path fill="none" stroke="#000000" d="M 735 103 L 306 103" stroke-miterlimit="10"/></g><g transform="translate(-38,-22) scale(1,1)"><path fill="none" stroke="#000000" d="M 316.16267485762415 98.79048224398402 L 306 103 L 316.16267485762415 107.20951775601598" stroke-miterlimit="10"/></g><g transform="translate(-38,-22) scale(1,1)"><path fill="none" stroke="#000000" d="M 399 225 L 306 174" stroke-miterlimit="10"/></g><g transform="translate(-38,-22) scale(1,1)"><path fill="none" stroke="#000000" d="M 316.93483283500365 175.1955880856406 L 306 174 L 312.8866860059101 182.5775028916347" stroke-miterlimit="10"/></g><g transform="translate(-38,-22) scale(1,1)"><rect fill="#C0C0C0" stroke="none" x="1087" y="39" width="257" height="143" opacity="0.2"/></g><g transform="translate(-38,-22) scale(1,1)"><rect fill="#ffffff" stroke="none" x="1080" y="32" width="257" height="143"/></g><g transform="translate(-38,-22) scale(1,1)"><path fill="none" stroke="#000000" d="M 1080 32 L 1337 32 L 1337 175 L 1080 175 L 1080 32 Z Z" stroke-miterlimit="10"/></g><g transform="translate(-38,-22) scale(1,1)"><path fill="#ffffff" stroke="none" d="M 1312.8 49 C 1312.8 43.698065920000005 1317.0980659200002 39.4 1322.4 39.4 C 1327.70193408 39.4 1332 43.698065920000005 1332 49 C 1332 54.301934079999995 1327.70193408 58.599999999999994 1322.4 58.599999999999994 C 1317.0980659200002 58.599999999999994 1312.8 54.301934079999995 1312.8 49 Z"/></g><g transform="translate(-38,-22) scale(1,1)"><path fill="none" stroke="#000000" d="M 1312.8 49 C 1312.8 43.698065920000005 1317.0980659200002 39.4 1322.4 39.4 C 1327.70193408 39.4 1332 43.698065920000005 1332 49 C 1332 54.301934079999995 1327.70193408 58.599999999999994 1322.4 58.599999999999994 C 1317.0980659200002 58.599999999999994 1312.8 54.301934079999995 1312.8 49 Z" stroke-miterlimit="10"/></g><g transform="translate(-38,-22) scale(1,1)"><path fill="none" stroke="#000000" d="M 1308 39.4 L 1308 58.599999999999994" stroke-miterlimit="10"/></g><g transform="translate(-38,-22) scale(1,1)"><path fill="none" stroke="#000000" d="M 1308 49 L 1312.8 49" stroke-miterlimit="10"/></g><g transform="translate(-38,-22) scale(1,1)"><path fill="none" stroke="#000000" d="M 1080 70 L 1337 70" stroke-miterlimit="10"/></g><g transform="translate(-38,-22) scale(1,1)"><path fill="none" stroke="#000000" d="M 1080 80 L 1337 80" stroke-miterlimit="10"/></g><g transform="translate(-38,-22) scale(1,1)"><g><path fill="none" stroke="none"/><text fill="#000000" stroke="none" font-family="Arial" font-size="13px" font-style="normal" font-weight="normal" text-decoration="none" x="1163" y="49.5">«boundary»</text></g></g><g transform="translate(-38,-22) scale(1,1)"><g><path fill="none" stroke="none"/><text fill="#000000" stroke="none" font-family="Arial" font-size="13px" font-style="normal" font-weight="bold" text-decoration="none" x="1154.5" y="64.5">InstrumentAPI</text></g></g><g transform="translate(-38,-22) scale(1,1)"><g><path fill="none" stroke="none"/><text fill="#000000" stroke="none" font-family="Arial" font-size="13px" font-style="normal" font-weight="normal" text-decoration="none" x="1085" y="97.5">+getInstruments(): json</text></g></g><g transform="translate(-38,-22) scale(1,1)"><path fill="none" stroke="#000000" d="M 994 103 L 1079 103" stroke-miterlimit="10"/></g><g transform="translate(-38,-22) scale(1,1)"><path fill="none" stroke="#000000" d="M 1068.837325142376 107.20951775601598 L 1079 103 L 1068.837325142376 98.79048224398402" stroke-miterlimit="10"/></g><g transform="translate(-38,-22) scale(1,1)"><rect fill="#C0C0C0" stroke="none" x="55" y="759" width="257" height="143" opacity="0.2"/></g><g transform="translate(-38,-22) scale(1,1)"><rect fill="#ffffff" stroke="none" x="48" y="752" width="257" height="143"/></g><g transform="translate(-38,-22) scale(1,1)"><path fill="none" stroke="#000000" d="M 48 752 L 305 752 L 305 895 L 48 895 L 48 752 Z Z" stroke-miterlimit="10"/></g><g transform="translate(-38,-22) scale(1,1)"><path fill="none" stroke="#000000" d="M 48 790 L 305 790" stroke-miterlimit="10"/></g><g transform="translate(-38,-22) scale(1,1)"><path fill="none" stroke="#000000" d="M 48 800 L 305 800" stroke-miterlimit="10"/></g><g transform="translate(-38,-22) scale(1,1)"><g><path fill="none" stroke="none"/><text fill="#000000" stroke="none" font-family="Arial" font-size="13px" font-style="normal" font-weight="normal" text-decoration="none" x="118.5" y="769.5">«React component»</text></g></g><g transform="translate(-38,-22) scale(1,1)"><g><path fill="none" stroke="none"/><text fill="#000000" stroke="none" font-family="Arial" font-size="13px" font-style="normal" font-weight="bold" text-decoration="none" x="118.5" y="784.5">LoginFormContainer</text></g></g><g transform="translate(-38,-22) scale(1,1)"><g><path fill="none" stroke="none"/><text fill="#000000" stroke="none" font-family="Arial" font-size="13px" font-style="normal" font-weight="normal" text-decoration="none" x="53" y="817.5">+setState(state: json)</text></g></g><g transform="translate(-38,-22) scale(1,1)"><g><path fill="none" stroke="none"/><text fill="#000000" stroke="none" font-family="Arial" font-size="13px" font-style="normal" font-weight="normal" text-decoration="none" x="53" y="832.5">+authenticate(token: json)</text></g></g><g transform="translate(-38,-22) scale(1,1)"><rect fill="#C0C0C0" stroke="none" x="55" y="935" width="257" height="143" opacity="0.2"/></g><g transform="translate(-38,-22) scale(1,1)"><rect fill="#ffffff" stroke="none" x="48" y="928" width="257" height="143"/></g><g transform="translate(-38,-22) scale(1,1)"><path fill="none" stroke="#000000" d="M 48 928 L 305 928 L 305 1071 L 48 1071 L 48 928 Z Z" stroke-miterlimit="10"/></g><g transform="translate(-38,-22) scale(1,1)"><path fill="none" stroke="#000000" d="M 48 966 L 305 966" stroke-miterlimit="10"/></g><g transform="translate(-38,-22) scale(1,1)"><path fill="none" stroke="#000000" d="M 48 976 L 305 976" stroke-miterlimit="10"/></g><g transform="translate(-38,-22) scale(1,1)"><g><path fill="none" stroke="none"/><text fill="#000000" stroke="none" font-family="Arial" font-size="13px" font-style="normal" font-weight="normal" text-decoration="none" x="118.5" y="945.5">«React component»</text></g></g><g transform="translate(-38,-22) scale(1,1)"><g><path fill="none" stroke="none"/><text fill="#000000" stroke="none" font-family="Arial" font-size="13px" font-style="normal" font-weight="bold" text-decoration="none" x="146" y="960.5">LoginForm</text></g></g><g transform="translate(-38,-22) scale(1,1)"><g><path fill="none" stroke="none"/><text fill="#000000" stroke="none" font-family="Arial" font-size="13px" font-style="normal" font-weight="normal" text-decoration="none" x="53" y="993.5">+validate()</text></g></g><g transform="translate(-38,-22) scale(1,1)"><g><path fill="none" stroke="none"/><text fill="#000000" stroke="none" font-family="Arial" font-size="13px" font-style="normal" font-weight="normal" text-decoration="none" x="53" y="1008.5">+submitForm(event: Event)</text></g></g><g transform="translate(-38,-22) scale(1,1)"><rect fill="#C0C0C0" stroke="none" x="743" y="591" width="257" height="143" opacity="0.2"/></g><g transform="translate(-38,-22) scale(1,1)"><rect fill="#ffffff" stroke="none" x="736" y="584" width="257" height="143"/></g><g transform="translate(-38,-22) scale(1,1)"><path fill="none" stroke="#000000" d="M 736 584 L 993 584 L 993 727 L 736 727 L 736 584 Z Z" stroke-miterlimit="10"/></g><g transform="translate(-38,-22) scale(1,1)"><path fill="none" stroke="#000000" d="M 736 622 L 993 622" stroke-miterlimit="10"/></g><g transform="translate(-38,-22) scale(1,1)"><path fill="none" stroke="#000000" d="M 736 632 L 993 632" stroke-miterlimit="10"/></g><g transform="translate(-38,-22) scale(1,1)"><g><path fill="none" stroke="none"/><text fill="#000000" stroke="none" font-family="Arial" font-size="13px" font-style="normal" font-weight="normal" text-decoration="none" x="806.5" y="601.5">«React component»</text></g></g><g transform="translate(-38,-22) scale(1,1)"><g><path fill="none" stroke="none"/><text fill="#000000" stroke="none" font-family="Arial" font-size="13px" font-style="normal" font-weight="bold" text-decoration="none" x="801" y="616.5">SignUpFormContainer</text></g></g><g transform="translate(-38,-22) scale(1,1)"><g><path fill="none" stroke="none"/><text fill="#000000" stroke="none" font-family="Arial" font-size="13px" font-style="normal" font-weight="normal" text-decoration="none" x="741" y="649.5">+createUser(email): json</text></g></g><g transform="translate(-38,-22) scale(1,1)"><g><path fill="none" stroke="none"/><text fill="#000000" stroke="none" font-family="Arial" font-size="13px" font-style="normal" font-weight="normal" text-decoration="none" x="741" y="664.5">+setState(jammer)</text></g></g><g transform="translate(-38,-22) scale(1,1)"><rect fill="#C0C0C0" stroke="none" x="410" y="935" width="257" height="143" opacity="0.2"/></g><g transform="translate(-38,-22) scale(1,1)"><rect fill="#ffffff" stroke="none" x="403" y="928" width="257" height="143"/></g><g transform="translate(-38,-22) scale(1,1)"><path fill="none" stroke="#000000" d="M 403 928 L 660 928 L 660 1071 L 403 1071 L 403 928 Z Z" stroke-miterlimit="10"/></g><g transform="translate(-38,-22) scale(1,1)"><path fill="none" stroke="#000000" d="M 403 966 L 660 966" stroke-miterlimit="10"/></g><g transform="translate(-38,-22) scale(1,1)"><path fill="none" stroke="#000000" d="M 403 976 L 660 976" stroke-miterlimit="10"/></g><g transform="translate(-38,-22) scale(1,1)"><g><path fill="none" stroke="none"/><text fill="#000000" stroke="none" font-family="Arial" font-size="13px" font-style="normal" font-weight="normal" text-decoration="none" x="473.5" y="945.5">«React component»</text></g></g><g transform="translate(-38,-22) scale(1,1)"><g><path fill="none" stroke="none"/><text fill="#000000" stroke="none" font-family="Arial" font-size="13px" font-style="normal" font-weight="bold" text-decoration="none" x="495.5" y="960.5">SignUpForm</text></g></g><g transform="translate(-38,-22) scale(1,1)"><g><path fill="none" stroke="none"/><text fill="#000000" stroke="none" font-family="Arial" font-size="13px" font-style="normal" font-weight="normal" text-decoration="none" x="408" y="993.5">+validate(): boolean</text></g></g><g transform="translate(-38,-22) scale(1,1)"><g><path fill="none" stroke="none"/><text fill="#000000" stroke="none" font-family="Arial" font-size="13px" font-style="normal" font-weight="normal" text-decoration="none" x="408" y="1008.5">+submitForm(event: Event)</text></g></g><g transform="translate(-38,-22) scale(1,1)"><rect fill="#C0C0C0" stroke="none" x="407" y="767" width="257" height="143" opacity="0.2"/></g><g transform="translate(-38,-22) scale(1,1)"><rect fill="#ffffff" stroke="none" x="400" y="760" width="257" height="143"/></g><g transform="translate(-38,-22) scale(1,1)"><path fill="none" stroke="#000000" d="M 400 760 L 657 760 L 657 903 L 400 903 L 400 760 Z Z" stroke-miterlimit="10"/></g><g transform="translate(-38,-22) scale(1,1)"><path fill="none" stroke="#000000" d="M 400 798 L 657 798" stroke-miterlimit="10"/></g><g transform="translate(-38,-22) scale(1,1)"><path fill="none" stroke="#000000" d="M 400 808 L 657 808" stroke-miterlimit="10"/></g><g transform="translate(-38,-22) scale(1,1)"><g><path fill="none" stroke="none"/><text fill="#000000" stroke="none" font-family="Arial" font-size="13px" font-style="normal" font-weight="normal" text-decoration="none" x="470.5" y="777.5">«React component»</text></g></g><g transform="translate(-38,-22) scale(1,1)"><g><path fill="none" stroke="none"/><text fill="#000000" stroke="none" font-family="Arial" font-size="13px" font-style="normal" font-weight="bold" text-decoration="none" x="442.5" y="792.5">ConfirmSignUpFormContainer</text></g></g><g transform="translate(-38,-22) scale(1,1)"><g><path fill="none" stroke="none"/><text fill="#000000" stroke="none" font-family="Arial" font-size="13px" font-style="normal" font-weight="normal" text-decoration="none" x="405" y="825.5">+enableUser(jammer)</text></g></g><g transform="translate(-38,-22) scale(1,1)"><g><path fill="none" stroke="none"/><text fill="#000000" stroke="none" font-family="Arial" font-size="13px" font-style="normal" font-weight="normal" text-decoration="none" x="405" y="840.5">+setState(jammer)</text></g></g><g transform="translate(-38,-22) scale(1,1)"><rect fill="#C0C0C0" stroke="none" x="743" y="767" width="257" height="143" opacity="0.2"/></g><g transform="translate(-38,-22) scale(1,1)"><rect fill="#ffffff" stroke="none" x="736" y="760" width="257" height="143"/></g><g transform="translate(-38,-22) scale(1,1)"><path fill="none" stroke="#000000" d="M 736 760 L 993 760 L 993 903 L 736 903 L 736 760 Z Z" stroke-miterlimit="10"/></g><g transform="translate(-38,-22) scale(1,1)"><path fill="none" stroke="#000000" d="M 736 798 L 993 798" stroke-miterlimit="10"/></g><g transform="translate(-38,-22) scale(1,1)"><path fill="none" stroke="#000000" d="M 736 808 L 993 808" stroke-miterlimit="10"/></g><g transform="translate(-38,-22) scale(1,1)"><g><path fill="none" stroke="none"/><text fill="#000000" stroke="none" font-family="Arial" font-size="13px" font-style="normal" font-weight="normal" text-decoration="none" x="806.5" y="777.5">«React component»</text></g></g><g transform="translate(-38,-22) scale(1,1)"><g><path fill="none" stroke="none"/><text fill="#000000" stroke="none" font-family="Arial" font-size="13px" font-style="normal" font-weight="bold" text-decoration="none" x="806" y="792.5">ConfirmSignUpForm</text></g></g><g transform="translate(-38,-22) scale(1,1)"><g><path fill="none" stroke="none"/><text fill="#000000" stroke="none" font-family="Arial" font-size="13px" font-style="normal" font-weight="normal" text-decoration="none" x="741" y="825.5">+validate(): boolean</text></g></g><g transform="translate(-38,-22) scale(1,1)"><g><path fill="none" stroke="none"/><text fill="#000000" stroke="none" font-family="Arial" font-size="13px" font-style="normal" font-weight="normal" text-decoration="none" x="741" y="840.5">+submitForm(event: Event)</text></g></g><g transform="translate(-38,-22) scale(1,1)"><rect fill="#C0C0C0" stroke="none" x="55" y="591" width="257" height="143" opacity="0.2"/></g><g transform="translate(-38,-22) scale(1,1)"><rect fill="#ffffff" stroke="none" x="48" y="584" width="257" height="143"/></g><g transform="translate(-38,-22) scale(1,1)"><path fill="none" stroke="#000000" d="M 48 584 L 305 584 L 305 727 L 48 727 L 48 584 Z Z" stroke-miterlimit="10"/></g><g transform="translate(-38,-22) scale(1,1)"><path fill="#ffffff" stroke="none" d="M 280.8 601 C 280.8 595.69806592 285.09806591999995 591.4 290.4 591.4 C 295.70193408 591.4 300 595.69806592 300 601 C 300 606.30193408 295.70193408 610.6 290.4 610.6 C 285.09806591999995 610.6 280.8 606.30193408 280.8 601 Z"/></g><g transform="translate(-38,-22) scale(1,1)"><path fill="none" stroke="#000000" d="M 280.8 601 C 280.8 595.69806592 285.09806591999995 591.4 290.4 591.4 C 295.70193408 591.4 300 595.69806592 300 601 C 300 606.30193408 295.70193408 610.6 290.4 610.6 C 285.09806591999995 610.6 280.8 606.30193408 280.8 601 Z" stroke-miterlimit="10"/></g><g transform="translate(-38,-22) scale(1,1)"><path fill="none" stroke="#000000" d="M 276 591.4 L 276 610.6" stroke-miterlimit="10"/></g><g transform="translate(-38,-22) scale(1,1)"><path fill="none" stroke="#000000" d="M 276 601 L 280.8 601" stroke-miterlimit="10"/></g><g transform="translate(-38,-22) scale(1,1)"><path fill="none" stroke="#000000" d="M 48 622 L 305 622" stroke-miterlimit="10"/></g><g transform="translate(-38,-22) scale(1,1)"><path fill="none" stroke="#000000" d="M 48 632 L 305 632" stroke-miterlimit="10"/></g><g transform="translate(-38,-22) scale(1,1)"><g><path fill="none" stroke="none"/><text fill="#000000" stroke="none" font-family="Arial" font-size="13px" font-style="normal" font-weight="normal" text-decoration="none" x="131" y="601.5">«boundary»</text></g></g><g transform="translate(-38,-22) scale(1,1)"><g><path fill="none" stroke="none"/><text fill="#000000" stroke="none" font-family="Arial" font-size="13px" font-style="normal" font-weight="bold" text-decoration="none" x="129.5" y="616.5">SecurityAPI</text></g></g><g transform="translate(-38,-22) scale(1,1)"><g><path fill="none" stroke="none"/><text fill="#000000" stroke="none" font-family="Arial" font-size="13px" font-style="normal" font-weight="normal" text-decoration="none" x="53" y="649.5">+authenticate(token: json): json</text></g></g><g transform="translate(-38,-22) scale(1,1)"><path fill="none" stroke="#000000" d="M 176 751 L 176 728" stroke-miterlimit="10"/></g><g transform="translate(-38,-22) scale(1,1)"><path fill="none" stroke="#000000" d="M 180.209517756016 738.1626748576241 L 176 728 L 171.790482243984 738.1626748576241" stroke-miterlimit="10"/></g><g transform="translate(-38,-22) scale(1,1)"><rect fill="#C0C0C0" stroke="none" x="407" y="591" width="257" height="143" opacity="0.2"/></g><g transform="translate(-38,-22) scale(1,1)"><rect fill="#ffffff" stroke="none" x="400" y="584" width="257" height="143"/></g><g transform="translate(-38,-22) scale(1,1)"><path fill="none" stroke="#000000" d="M 400 584 L 657 584 L 657 727 L 400 727 L 400 584 Z Z" stroke-miterlimit="10"/></g><g transform="translate(-38,-22) scale(1,1)"><path fill="#ffffff" stroke="none" d="M 632.8 601 C 632.8 595.69806592 637.09806592 591.4 642.4 591.4 C 647.70193408 591.4 652 595.69806592 652 601 C 652 606.30193408 647.70193408 610.6 642.4 610.6 C 637.09806592 610.6 632.8 606.30193408 632.8 601 Z"/></g><g transform="translate(-38,-22) scale(1,1)"><path fill="none" stroke="#000000" d="M 632.8 601 C 632.8 595.69806592 637.09806592 591.4 642.4 591.4 C 647.70193408 591.4 652 595.69806592 652 601 C 652 606.30193408 647.70193408 610.6 642.4 610.6 C 637.09806592 610.6 632.8 606.30193408 632.8 601 Z" stroke-miterlimit="10"/></g><g transform="translate(-38,-22) scale(1,1)"><path fill="none" stroke="#000000" d="M 628 591.4 L 628 610.6" stroke-miterlimit="10"/></g><g transform="translate(-38,-22) scale(1,1)"><path fill="none" stroke="#000000" d="M 628 601 L 632.8 601" stroke-miterlimit="10"/></g><g transform="translate(-38,-22) scale(1,1)"><path fill="none" stroke="#000000" d="M 400 622 L 657 622" stroke-miterlimit="10"/></g><g transform="translate(-38,-22) scale(1,1)"><path fill="none" stroke="#000000" d="M 400 632 L 657 632" stroke-miterlimit="10"/></g><g transform="translate(-38,-22) scale(1,1)"><g><path fill="none" stroke="none"/><text fill="#000000" stroke="none" font-family="Arial" font-size="13px" font-style="normal" font-weight="normal" text-decoration="none" x="483" y="601.5">«boundary»</text></g></g><g transform="translate(-38,-22) scale(1,1)"><g><path fill="none" stroke="none"/><text fill="#000000" stroke="none" font-family="Arial" font-size="13px" font-style="normal" font-weight="bold" text-decoration="none" x="482" y="616.5">JammerAPI</text></g></g><g transform="translate(-38,-22) scale(1,1)"><g><path fill="none" stroke="none"/><text fill="#000000" stroke="none" font-family="Arial" font-size="13px" font-style="normal" font-weight="normal" text-decoration="none" x="405" y="649.5">+postJammer(email)</text></g></g><g transform="translate(-38,-22) scale(1,1)"><g><path fill="none" stroke="none"/><text fill="#000000" stroke="none" font-family="Arial" font-size="13px" font-style="normal" font-weight="normal" text-decoration="none" x="405" y="664.5">+patchUser(data: json)</text></g></g><g transform="translate(-38,-22) scale(1,1)"><path fill="none" stroke="#000000" d="M 528 759 L 528 728" stroke-miterlimit="10"/></g><g transform="translate(-38,-22) scale(1,1)"><path fill="none" stroke="#000000" d="M 532.209517756016 738.1626748576241 L 528 728 L 523.790482243984 738.1626748576241" stroke-miterlimit="10"/></g><g transform="translate(-38,-22) scale(1,1)"><path fill="none" stroke="#000000" d="M 735 655 L 658 655" stroke-miterlimit="10"/></g><g transform="translate(-38,-22) scale(1,1)"><path fill="none" stroke="#000000" d="M 668.1626748576241 650.790482243984 L 658 655 L 668.1626748576241 659.209517756016" stroke-miterlimit="10"/></g></g></svg>