<svg version="1.1" xmlns="http://www.w3.org/2000/svg" xmlns:xlink="http://www.w3.org/1999/xlink" width="1309" height="547"><defs/><g><g transform="translate(-38,-22) scale(1,1)"><rect fill="#C0C0C0" stroke="none" x="55" y="231" width="257" height="143" opacity="0.2"/></g><g transform="translate(-38,-22) scale(1,1)"><rect fill="#ffffff" stroke="none" x="48" y="224" width="257" height="143"/></g><g transform="translate(-38,-22) scale(1,1)"><path fill="none" stroke="#000000" d="M 48 224 L 305 224 L 305 367 L 48 367 L 48 224 Z Z" stroke-miterlimit="10"/></g><g transform="translate(-38,-22) scale(1,1)"><path fill="none" stroke="#000000" d="M 48 262 L 305 262" stroke-miterlimit="10"/></g><g transform="translate(-38,-22) scale(1,1)"><path fill="none" stroke="#000000" d="M 48 300 L 305 300" stroke-miterlimit="10"/></g><g transform="translate(-38,-22) scale(1,1)"><g><path fill="none" stroke="none"/><text fill="#000000" stroke="none" font-family="Arial" font-size="13px" font-style="normal" font-weight="normal" text-decoration="none" x="118.5" y="241.5">«React component»</text></g></g><g transform="translate(-38,-22) scale(1,1)"><g><path fill="none" stroke="none"/><text fill="#000000" stroke="none" font-family="Arial" font-size="13px" font-style="normal" font-weight="bold" text-decoration="none" x="110.5" y="256.5">SessionFormContainer</text></g></g><g transform="translate(-38,-22) scale(1,1)"><g><path fill="none" stroke="none"/><text fill="#000000" stroke="none" font-family="Arial" font-size="13px" font-style="normal" font-weight="normal" text-decoration="none" x="53" y="279.5">+props</text></g></g><g transform="translate(-38,-22) scale(1,1)"><g><path fill="none" stroke="none"/><text fill="#000000" stroke="none" font-family="Arial" font-size="13px" font-style="normal" font-weight="normal" text-decoration="none" x="53" y="294.5">+state</text></g></g><g transform="translate(-38,-22) scale(1,1)"><g><path fill="none" stroke="none"/><text fill="#000000" stroke="none" font-family="Arial" font-size="13px" font-style="normal" font-weight="normal" text-decoration="none" x="53" y="317.5">+render(): ReactComponent</text></g></g><g transform="translate(-38,-22) scale(1,1)"><g><path fill="none" stroke="none"/><text fill="#000000" stroke="none" font-family="Arial" font-size="13px" font-style="normal" font-weight="normal" text-decoration="none" x="53" y="332.5">+handleSessionSubmit(session: json)</text></g></g><g transform="translate(-38,-22) scale(1,1)"><rect fill="#C0C0C0" stroke="none" x="55" y="423" width="257" height="143" opacity="0.2"/></g><g transform="translate(-38,-22) scale(1,1)"><rect fill="#ffffff" stroke="none" x="48" y="416" width="257" height="143"/></g><g transform="translate(-38,-22) scale(1,1)"><path fill="none" stroke="#000000" d="M 48 416 L 305 416 L 305 559 L 48 559 L 48 416 Z Z" stroke-miterlimit="10"/></g><g transform="translate(-38,-22) scale(1,1)"><path fill="none" stroke="#000000" d="M 48 454 L 305 454" stroke-miterlimit="10"/></g><g transform="translate(-38,-22) scale(1,1)"><path fill="none" stroke="#000000" d="M 48 477 L 305 477" stroke-miterlimit="10"/></g><g transform="translate(-38,-22) scale(1,1)"><g><path fill="none" stroke="none"/><text fill="#000000" stroke="none" font-family="Arial" font-size="13px" font-style="normal" font-weight="normal" text-decoration="none" x="118.5" y="433.5">«React component»</text></g></g><g transform="translate(-38,-22) scale(1,1)"><g><path fill="none" stroke="none"/><text fill="#000000" stroke="none" font-family="Arial" font-size="13px" font-style="normal" font-weight="bold" text-decoration="none" x="138" y="448.5">SessionForm</text></g></g><g transform="translate(-38,-22) scale(1,1)"><g><path fill="none" stroke="none"/><text fill="#000000" stroke="none" font-family="Arial" font-size="13px" font-style="normal" font-weight="normal" text-decoration="none" x="53" y="471.5">+props</text></g></g><g transform="translate(-38,-22) scale(1,1)"><g><path fill="none" stroke="none"/><text fill="#000000" stroke="none" font-family="Arial" font-size="13px" font-style="normal" font-weight="normal" text-decoration="none" x="53" y="494.5">+handleSubmit(event: Event)</text></g></g><g transform="translate(-38,-22) scale(1,1)"><g><path fill="none" stroke="none"/><text fill="#000000" stroke="none" font-family="Arial" font-size="13px" font-style="normal" font-weight="normal" text-decoration="none" x="53" y="509.5">+handleValidation()</text></g></g><g transform="translate(-38,-22) scale(1,1)"><rect fill="#C0C0C0" stroke="none" x="743" y="231" width="257" height="143" opacity="0.2"/></g><g transform="translate(-38,-22) scale(1,1)"><rect fill="#ffffff" stroke="none" x="736" y="224" width="257" height="143"/></g><g transform="translate(-38,-22) scale(1,1)"><path fill="none" stroke="#000000" d="M 736 224 L 993 224 L 993 367 L 736 367 L 736 224 Z Z" stroke-miterlimit="10"/></g><g transform="translate(-38,-22) scale(1,1)"><path fill="none" stroke="#000000" d="M 736 262 L 993 262" stroke-miterlimit="10"/></g><g transform="translate(-38,-22) scale(1,1)"><path fill="none" stroke="#000000" d="M 736 285 L 993 285" stroke-miterlimit="10"/></g><g transform="translate(-38,-22) scale(1,1)"><g><path fill="none" stroke="none"/><text fill="#000000" stroke="none" font-family="Arial" font-size="13px" font-style="normal" font-weight="normal" text-decoration="none" x="806.5" y="241.5">«React component»</text></g></g><g transform="translate(-38,-22) scale(1,1)"><g><path fill="none" stroke="none"/><text fill="#000000" stroke="none" font-family="Arial" font-size="13px" font-style="normal" font-weight="bold" text-decoration="none" x="827" y="256.5">SessionView</text></g></g><g transform="translate(-38,-22) scale(1,1)"><g><path fill="none" stroke="none"/><text fill="#000000" stroke="none" font-family="Arial" font-size="13px" font-style="normal" font-weight="normal" text-decoration="none" x="741" y="279.5">+props</text></g></g><g transform="translate(-38,-22) scale(1,1)"><g><path fill="none" stroke="none"/><text fill="#000000" stroke="none" font-family="Arial" font-size="13px" font-style="normal" font-weight="normal" text-decoration="none" x="741" y="302.5">+render(): ReactComponent</text></g></g><g transform="translate(-38,-22) scale(1,1)"><g><path fill="none" stroke="none"/><text fill="#000000" stroke="none" font-family="Arial" font-size="13px" font-style="normal" font-weight="normal" text-decoration="none" x="741" y="317.5">+addInstrument(event: Event)</text></g></g><g transform="translate(-38,-22) scale(1,1)"><rect fill="#C0C0C0" stroke="none" x="743" y="39" width="257" height="143" opacity="0.2"/></g><g transform="translate(-38,-22) scale(1,1)"><rect fill="#ffffff" stroke="none" x="736" y="32" width="257" height="143"/></g><g transform="translate(-38,-22) scale(1,1)"><path fill="none" stroke="#000000" d="M 736 32 L 993 32 L 993 175 L 736 175 L 736 32 Z Z" stroke-miterlimit="10"/></g><g transform="translate(-38,-22) scale(1,1)"><path fill="none" stroke="#000000" d="M 736 70 L 993 70" stroke-miterlimit="10"/></g><g transform="translate(-38,-22) scale(1,1)"><path fill="none" stroke="#000000" d="M 736 93 L 993 93" stroke-miterlimit="10"/></g><g transform="translate(-38,-22) scale(1,1)"><g><path fill="none" stroke="none"/><text fill="#000000" stroke="none" font-family="Arial" font-size="13px" font-style="normal" font-weight="normal" text-decoration="none" x="806.5" y="49.5">«React component»</text></g></g><g transform="translate(-38,-22) scale(1,1)"><g><path fill="none" stroke="none"/><text fill="#000000" stroke="none" font-family="Arial" font-size="13px" font-style="normal" font-weight="bold" text-decoration="none" x="799.5" y="64.5">SessionViewContainer</text></g></g><g transform="translate(-38,-22) scale(1,1)"><g><path fill="none" stroke="none"/><text fill="#000000" stroke="none" font-family="Arial" font-size="13px" font-style="normal" font-weight="normal" text-decoration="none" x="741" y="87.5">+state</text></g></g><g transform="translate(-38,-22) scale(1,1)"><g><path fill="none" stroke="none"/><text fill="#000000" stroke="none" font-family="Arial" font-size="13px" font-style="normal" font-weight="normal" text-decoration="none" x="741" y="110.5">+setState(state: json)</text></g></g><g transform="translate(-38,-22) scale(1,1)"><g><path fill="none" stroke="none"/><text fill="#000000" stroke="none" font-family="Arial" font-size="13px" font-style="normal" font-weight="normal" text-decoration="none" x="741" y="125.5">+componentDidMount()</text></g></g><g transform="translate(-38,-22) scale(1,1)"><g><path fill="none" stroke="none"/><text fill="#000000" stroke="none" font-family="Arial" font-size="13px" font-style="normal" font-weight="normal" text-decoration="none" x="741" y="140.5">+addInstrument()</text></g></g><g transform="translate(-38,-22) scale(1,1)"><g><path fill="none" stroke="none"/><text fill="#000000" stroke="none" font-family="Arial" font-size="13px" font-style="normal" font-weight="normal" text-decoration="none" x="741" y="155.5">+selectInstrument(instrument: Instrument)</text></g></g><g transform="translate(-38,-22) scale(1,1)"><rect fill="#C0C0C0" stroke="none" x="407" y="231" width="257" height="143" opacity="0.2"/></g><g transform="translate(-38,-22) scale(1,1)"><rect fill="#ffffff" stroke="none" x="400" y="224" width="257" height="143"/></g><g transform="translate(-38,-22) scale(1,1)"><path fill="none" stroke="#000000" d="M 400 224 L 657 224 L 657 367 L 400 367 L 400 224 Z Z" stroke-miterlimit="10"/></g><g transform="translate(-38,-22) scale(1,1)"><path fill="none" stroke="#000000" d="M 400 262 L 657 262" stroke-miterlimit="10"/></g><g transform="translate(-38,-22) scale(1,1)"><path fill="none" stroke="#000000" d="M 400 300 L 657 300" stroke-miterlimit="10"/></g><g transform="translate(-38,-22) scale(1,1)"><g><path fill="none" stroke="none"/><text fill="#000000" stroke="none" font-family="Arial" font-size="13px" font-style="normal" font-weight="normal" text-decoration="none" x="470.5" y="241.5">«React component»</text></g></g><g transform="translate(-38,-22) scale(1,1)"><g><path fill="none" stroke="none"/><text fill="#000000" stroke="none" font-family="Arial" font-size="13px" font-style="normal" font-weight="bold" text-decoration="none" x="467" y="256.5">SessionListContainer</text></g></g><g transform="translate(-38,-22) scale(1,1)"><g><path fill="none" stroke="none"/><text fill="#000000" stroke="none" font-family="Arial" font-size="13px" font-style="normal" font-weight="normal" text-decoration="none" x="405" y="279.5">+state</text></g></g><g transform="translate(-38,-22) scale(1,1)"><g><path fill="none" stroke="none"/><text fill="#000000" stroke="none" font-family="Arial" font-size="13px" font-style="normal" font-weight="normal" text-decoration="none" x="405" y="294.5">+props</text></g></g><g transform="translate(-38,-22) scale(1,1)"><g><path fill="none" stroke="none"/><text fill="#000000" stroke="none" font-family="Arial" font-size="13px" font-style="normal" font-weight="normal" text-decoration="none" x="405" y="317.5">+render(): ReactComponent</text></g></g><g transform="translate(-38,-22) scale(1,1)"><g><path fill="none" stroke="none"/><text fill="#000000" stroke="none" font-family="Arial" font-size="13px" font-style="normal" font-weight="normal" text-decoration="none" x="405" y="332.5">+setState(state: json)</text></g></g><g transform="translate(-38,-22) scale(1,1)"><g><path fill="none" stroke="none"/><text fill="#000000" stroke="none" font-family="Arial" font-size="13px" font-style="normal" font-weight="normal" text-decoration="none" x="405" y="347.5">+handleSearchSubmit(criteria: json)</text></g></g><g transform="translate(-38,-22) scale(1,1)"><rect fill="#C0C0C0" stroke="none" x="407" y="423" width="257" height="143" opacity="0.2"/></g><g transform="translate(-38,-22) scale(1,1)"><rect fill="#ffffff" stroke="none" x="400" y="416" width="257" height="143"/></g><g transform="translate(-38,-22) scale(1,1)"><path fill="none" stroke="#000000" d="M 400 416 L 657 416 L 657 559 L 400 559 L 400 416 Z Z" stroke-miterlimit="10"/></g><g transform="translate(-38,-22) scale(1,1)"><path fill="none" stroke="#000000" d="M 400 454 L 657 454" stroke-miterlimit="10"/></g><g transform="translate(-38,-22) scale(1,1)"><path fill="none" stroke="#000000" d="M 400 464 L 657 464" stroke-miterlimit="10"/></g><g transform="translate(-38,-22) scale(1,1)"><g><path fill="none" stroke="none"/><text fill="#000000" stroke="none" font-family="Arial" font-size="13px" font-style="normal" font-weight="normal" text-decoration="none" x="470.5" y="433.5">«React component»</text></g></g><g transform="translate(-38,-22) scale(1,1)"><g><path fill="none" stroke="none"/><text fill="#000000" stroke="none" font-family="Arial" font-size="13px" font-style="normal" font-weight="bold" text-decoration="none" x="494.5" y="448.5">SessionList</text></g></g><g transform="translate(-38,-22) scale(1,1)"><g><path fill="none" stroke="none"/><text fill="#000000" stroke="none" font-family="Arial" font-size="13px" font-style="normal" font-weight="normal" text-decoration="none" x="405" y="481.5">+render(): ReactComponent</text></g></g><g transform="translate(-38,-22) scale(1,1)"><rect fill="#C0C0C0" stroke="none" x="743" y="423" width="257" height="143" opacity="0.2"/></g><g transform="translate(-38,-22) scale(1,1)"><rect fill="#ffffff" stroke="none" x="736" y="416" width="257" height="143"/></g><g transform="translate(-38,-22) scale(1,1)"><path fill="none" stroke="#000000" d="M 736 416 L 993 416 L 993 559 L 736 559 L 736 416 Z Z" stroke-miterlimit="10"/></g><g transform="translate(-38,-22) scale(1,1)"><path fill="none" stroke="#000000" d="M 736 454 L 993 454" stroke-miterlimit="10"/></g><g transform="translate(-38,-22) scale(1,1)"><path fill="none" stroke="#000000" d="M 736 464 L 993 464" stroke-miterlimit="10"/></g><g transform="translate(-38,-22) scale(1,1)"><g><path fill="none" stroke="none"/><text fill="#000000" stroke="none" font-family="Arial" font-size="13px" font-style="normal" font-weight="normal" text-decoration="none" x="806.5" y="433.5">«React component»</text></g></g><g transform="translate(-38,-22) scale(1,1)"><g><path fill="none" stroke="none"/><text fill="#000000" stroke="none" font-family="Arial" font-size="13px" font-style="normal" font-weight="bold" text-decoration="none" x="805.5" y="448.5">SessionSearchForm</text></g></g><g transform="translate(-38,-22) scale(1,1)"><g><path fill="none" stroke="none"/><text fill="#000000" stroke="none" font-family="Arial" font-size="13px" font-style="normal" font-weight="normal" text-decoration="none" x="741" y="481.5">+handleValidation()</text></g></g><g transform="translate(-38,-22) scale(1,1)"><g><path fill="none" stroke="none"/><text fill="#000000" stroke="none" font-family="Arial" font-size="13px" font-style="normal" font-weight="normal" text-decoration="none" x="741" y="496.5">+handleSubmit(event: Event)</text></g></g><g transform="translate(-38,-22) scale(1,1)"><g><path fill="none" stroke="none"/><text fill="#000000" stroke="none" font-family="Arial" font-size="13px" font-style="normal" font-weight="normal" text-decoration="none" x="741" y="511.5">+render()</text></g></g><g transform="translate(-38,-22) scale(1,1)"><rect fill="#C0C0C0" stroke="none" x="1087" y="231" width="257" height="143" opacity="0.2"/></g><g transform="translate(-38,-22) scale(1,1)"><rect fill="#ffffff" stroke="none" x="1080" y="224" width="257" height="143"/></g><g transform="translate(-38,-22) scale(1,1)"><path fill="none" stroke="#000000" d="M 1080 224 L 1337 224 L 1337 367 L 1080 367 L 1080 224 Z Z" stroke-miterlimit="10"/></g><g transform="translate(-38,-22) scale(1,1)"><path fill="none" stroke="#000000" d="M 1080 262 L 1337 262" stroke-miterlimit="10"/></g><g transform="translate(-38,-22) scale(1,1)"><path fill="none" stroke="#000000" d="M 1080 272 L 1337 272" stroke-miterlimit="10"/></g><g transform="translate(-38,-22) scale(1,1)"><g><path fill="none" stroke="none"/><text fill="#000000" stroke="none" font-family="Arial" font-size="13px" font-style="normal" font-weight="normal" text-decoration="none" x="1150.5" y="241.5">«React component»</text></g></g><g transform="translate(-38,-22) scale(1,1)"><g><path fill="none" stroke="none"/><text fill="#000000" stroke="none" font-family="Arial" font-size="13px" font-style="normal" font-weight="bold" text-decoration="none" x="1148.5" y="256.5">SelectInstrumentList</text></g></g><g transform="translate(-38,-22) scale(1,1)"><g><path fill="none" stroke="none"/><text fill="#000000" stroke="none" font-family="Arial" font-size="13px" font-style="normal" font-weight="normal" text-decoration="none" x="1085" y="289.5">+render(): ReactComponent</text></g></g><g transform="translate(-38,-22) scale(1,1)"><g><path fill="none" stroke="none"/><text fill="#000000" stroke="none" font-family="Arial" font-size="13px" font-style="normal" font-weight="normal" text-decoration="none" x="1085" y="304.5">+selectInstrument(event: Event)</text></g></g><g transform="translate(-38,-22) scale(1,1)"><rect fill="#C0C0C0" stroke="none" x="1087" y="423" width="257" height="143" opacity="0.2"/></g><g transform="translate(-38,-22) scale(1,1)"><rect fill="#ffffff" stroke="none" x="1080" y="416" width="257" height="143"/></g><g transform="translate(-38,-22) scale(1,1)"><path fill="none" stroke="#000000" d="M 1080 416 L 1337 416 L 1337 559 L 1080 559 L 1080 416 Z Z" stroke-miterlimit="10"/></g><g transform="translate(-38,-22) scale(1,1)"><path fill="none" stroke="#000000" d="M 1080 454 L 1337 454" stroke-miterlimit="10"/></g><g transform="translate(-38,-22) scale(1,1)"><path fill="none" stroke="#000000" d="M 1080 464 L 1337 464" stroke-miterlimit="10"/></g><g transform="translate(-38,-22) scale(1,1)"><g><path fill="none" stroke="none"/><text fill="#000000" stroke="none" font-family="Arial" font-size="13px" font-style="normal" font-weight="normal" text-decoration="none" x="1150.5" y="433.5">«React component»</text></g></g><g transform="translate(-38,-22) scale(1,1)"><g><path fill="none" stroke="none"/><text fill="#000000" stroke="none" font-family="Arial" font-size="13px" font-style="normal" font-weight="bold" text-decoration="none" x="1181.5" y="448.5">TrackList</text></g></g><g transform="translate(-38,-22) scale(1,1)"><g><path fill="none" stroke="none"/><text fill="#000000" stroke="none" font-family="Arial" font-size="13px" font-style="normal" font-weight="normal" text-decoration="none" x="1085" y="481.5">+render(): ReactComponent</text></g></g><g transform="translate(-38,-22) scale(1,1)"><rect fill="#C0C0C0" stroke="none" x="55" y="39" width="257" height="143" opacity="0.2"/></g><g transform="translate(-38,-22) scale(1,1)"><rect fill="#ffffff" stroke="none" x="48" y="32" width="257" height="143"/></g><g transform="translate(-38,-22) scale(1,1)"><path fill="none" stroke="#000000" d="M 48 32 L 305 32 L 305 175 L 48 175 L 48 32 Z Z" stroke-miterlimit="10"/></g><g transform="translate(-38,-22) scale(1,1)"><path fill="none" stroke="#000000" d="M 48 70 L 305 70" stroke-miterlimit="10"/></g><g transform="translate(-38,-22) scale(1,1)"><path fill="none" stroke="#000000" d="M 48 80 L 305 80" stroke-miterlimit="10"/></g><g transform="translate(-38,-22) scale(1,1)"><g><path fill="none" stroke="none"/><text fill="#000000" stroke="none" font-family="Arial" font-size="13px" font-style="normal" font-weight="normal" text-decoration="none" x="143" y="49.5">«boundary»</text></g></g><g transform="translate(-38,-22) scale(1,1)"><g><path fill="none" stroke="none"/><text fill="#000000" stroke="none" font-family="Arial" font-size="13px" font-style="normal" font-weight="bold" text-decoration="none" x="142" y="64.5">SessionAPI</text></g></g><g transform="translate(-38,-22) scale(1,1)"><g><path fill="none" stroke="none"/><text fill="#000000" stroke="none" font-family="Arial" font-size="13px" font-style="normal" font-weight="normal" text-decoration="none" x="53" y="97.5">+postSession(data: json): json</text></g></g><g transform="translate(-38,-22) scale(1,1)"><g><path fill="none" stroke="none"/><text fill="#000000" stroke="none" font-family="Arial" font-size="13px" font-style="normal" font-weight="normal" text-decoration="none" x="53" y="112.5">+getSession(): json</text></g></g><g transform="translate(-38,-22) scale(1,1)"><g><path fill="none" stroke="none"/><text fill="#000000" stroke="none" font-family="Arial" font-size="13px" font-style="normal" font-weight="normal" text-decoration="none" x="53" y="127.5">+getSessionsByCriteria(criteria: json): json</text></g></g><g transform="translate(-38,-22) scale(1,1)"><g><path fill="none" stroke="none"/><text fill="#000000" stroke="none" font-family="Arial" font-size="13px" font-style="normal" font-weight="normal" text-decoration="none" x="53" y="142.5">+postTrack(data: json): json</text></g></g><g transform="translate(-38,-22) scale(1,1)"><path fill="none" stroke="#000000" d="M 176 223 L 176 176" stroke-miterlimit="10"/></g><g transform="translate(-38,-22) scale(1,1)"><path fill="none" stroke="#000000" d="M 180.209517756016 186.16267485762415 L 176 176 L 171.790482243984 186.16267485762415" stroke-miterlimit="10"/></g><g transform="translate(-38,-22) scale(1,1)"><path fill="none" stroke="#000000" d="M 735 103 L 306 103" stroke-miterlimit="10"/></g><g transform="translate(-38,-22) scale(1,1)"><path fill="none" stroke="#000000" d="M 316.16267485762415 98.79048224398402 L 306 103 L 316.16267485762415 107.20951775601598" stroke-miterlimit="10"/></g><g transform="translate(-38,-22) scale(1,1)"><path fill="none" stroke="#000000" d="M 399 225 L 306 174" stroke-miterlimit="10"/></g><g transform="translate(-38,-22) scale(1,1)"><path fill="none" stroke="#000000" d="M 316.93483283500365 175.1955880856406 L 306 174 L 312.8866860059101 182.5775028916347" stroke-miterlimit="10"/></g><g transform="translate(-38,-22) scale(1,1)"><rect fill="#C0C0C0" stroke="none" x="1087" y="39" width="257" height="143" opacity="0.2"/></g><g transform="translate(-38,-22) scale(1,1)"><rect fill="#ffffff" stroke="none" x="1080" y="32" width="257" height="143"/></g><g transform="translate(-38,-22) scale(1,1)"><path fill="none" stroke="#000000" d="M 1080 32 L 1337 32 L 1337 175 L 1080 175 L 1080 32 Z Z" stroke-miterlimit="10"/></g><g transform="translate(-38,-22) scale(1,1)"><path fill="none" stroke="#000000" d="M 1080 70 L 1337 70" stroke-miterlimit="10"/></g><g transform="translate(-38,-22) scale(1,1)"><path fill="none" stroke="#000000" d="M 1080 80 L 1337 80" stroke-miterlimit="10"/></g><g transform="translate(-38,-22) scale(1,1)"><g><path fill="none" stroke="none"/><text fill="#000000" stroke="none" font-family="Arial" font-size="13px" font-style="normal" font-weight="normal" text-decoration="none" x="1175" y="49.5">«boundary»</text></g></g><g transform="translate(-38,-22) scale(1,1)"><g><path fill="none" stroke="none"/><text fill="#000000" stroke="none" font-family="Arial" font-size="13px" font-style="normal" font-weight="bold" text-decoration="none" x="1166.5" y="64.5">InstrumentAPI</text></g></g><g transform="translate(-38,-22) scale(1,1)"><g><path fill="none" stroke="none"/><text fill="#000000" stroke="none" font-family="Arial" font-size="13px" font-style="normal" font-weight="normal" text-decoration="none" x="1085" y="97.5">+getInstruments(): json</text></g></g><g transform="translate(-38,-22) scale(1,1)"><path fill="none" stroke="#000000" d="M 994 103 L 1079 103" stroke-miterlimit="10"/></g><g transform="translate(-38,-22) scale(1,1)"><path fill="none" stroke="#000000" d="M 1068.837325142376 107.20951775601598 L 1079 103 L 1068.837325142376 98.79048224398402" stroke-miterlimit="10"/></g></g></svg>