<svg version="1.1" xmlns="http://www.w3.org/2000/svg" xmlns:xlink="http://www.w3.org/1999/xlink" width="988" height="740"><defs/><g><g transform="translate(-6,-6) scale(1,1)"><rect fill="#C0C0C0" stroke="none" x="343" y="31" width="259.20000000000005" height="15" opacity="0.2"/></g><g transform="translate(-6,-6) scale(1,1)"><rect fill="#C0C0C0" stroke="none" x="343" y="45" width="648" height="698" opacity="0.2"/></g><g transform="translate(-6,-6) scale(1,1)"><rect fill="#ffffff" stroke="none" x="336" y="39" width="648" height="697"/></g><g transform="translate(-6,-6) scale(1,1)"><path fill="none" stroke="#000000" d="M 336 39 L 984 39 L 984 736 L 336 736 L 336 39 Z Z" stroke-miterlimit="10"/></g><g transform="translate(-6,-6) scale(1,1)"><rect fill="#ffffff" stroke="none" x="336" y="24" width="259.20000000000005" height="15"/></g><g transform="translate(-6,-6) scale(1,1)"><path fill="none" stroke="#000000" d="M 336 24 L 595.2 24 L 595.2 39 L 336 39 L 336 24 Z Z" stroke-miterlimit="10"/></g><g transform="translate(-6,-6) scale(1,1)"><rect fill="#ffffff" stroke="none" x="336" y="38" width="648" height="698"/></g><g transform="translate(-6,-6) scale(1,1)"><path fill="none" stroke="#000000" d="M 336 38 L 984 38 L 984 736 L 336 736 L 336 38 Z Z" stroke-miterlimit="10"/></g><g transform="translate(-6,-6) scale(1,1)"><path fill="none" stroke="#000000" d="M 587.2 27 L 587.2 31" stroke-miterlimit="10"/></g><g transform="translate(-6,-6) scale(1,1)"><path fill="none" stroke="#000000" d="M 584.2 35 L 584.2 31 L 590.2 31" stroke-miterlimit="10"/></g><g transform="translate(-6,-6) scale(1,1)"><path fill="none" stroke="#000000" d="M 590.2 35 L 590.2 31 L 584.2 31" stroke-miterlimit="10"/></g><g transform="translate(-6,-6) scale(1,1)"><g><path fill="none" stroke="none"/><text fill="#000000" stroke="none" font-family="Arial" font-size="13px" font-style="normal" font-weight="bold" text-decoration="none" x="631" y="58.5">Back side</text></g></g><g transform="translate(-6,-6) scale(1,1)"><rect fill="#C0C0C0" stroke="none" x="23" y="23" width="102" height="15" opacity="0.2"/></g><g transform="translate(-6,-6) scale(1,1)"><rect fill="#C0C0C0" stroke="none" x="23" y="37" width="255" height="401" opacity="0.2"/></g><g transform="translate(-6,-6) scale(1,1)"><rect fill="#ffffff" stroke="none" x="16" y="31" width="255" height="400"/></g><g transform="translate(-6,-6) scale(1,1)"><path fill="none" stroke="#000000" d="M 16 31 L 271 31 L 271 431 L 16 431 L 16 31 Z Z" stroke-miterlimit="10"/></g><g transform="translate(-6,-6) scale(1,1)"><rect fill="#ffffff" stroke="none" x="16" y="16" width="102" height="15"/></g><g transform="translate(-6,-6) scale(1,1)"><path fill="none" stroke="#000000" d="M 16 16 L 118 16 L 118 31 L 16 31 L 16 16 Z Z" stroke-miterlimit="10"/></g><g transform="translate(-6,-6) scale(1,1)"><rect fill="#ffffff" stroke="none" x="16" y="30" width="255" height="401"/></g><g transform="translate(-6,-6) scale(1,1)"><path fill="none" stroke="#000000" d="M 16 30 L 271 30 L 271 431 L 16 431 L 16 30 Z Z" stroke-miterlimit="10"/></g><g transform="translate(-6,-6) scale(1,1)"><path fill="none" stroke="#000000" d="M 110 19 L 110 23" stroke-miterlimit="10"/></g><g transform="translate(-6,-6) scale(1,1)"><path fill="none" stroke="#000000" d="M 107 27 L 107 23 L 113 23" stroke-miterlimit="10"/></g><g transform="translate(-6,-6) scale(1,1)"><path fill="none" stroke="#000000" d="M 113 27 L 113 23 L 107 23" stroke-miterlimit="10"/></g><g transform="translate(-6,-6) scale(1,1)"><g><path fill="none" stroke="none"/><text fill="#000000" stroke="none" font-family="Arial" font-size="13px" font-style="normal" font-weight="bold" text-decoration="none" x="114.5" y="50.5">Front side</text></g></g><g transform="translate(-6,-6) scale(1,1)"><path fill="none" stroke="#000000" d="M 141 287 L 135 201" stroke-miterlimit="10" stroke-dasharray="3"/></g><g transform="translate(-6,-6) scale(1,1)"><path fill="none" stroke="#000000" d="M 139.90661461591975 210.84505627260924 L 135 201 L 131.50799441606074 211.43100651911104" stroke-miterlimit="10"/></g><g transform="translate(-6,-6) scale(1,1)"><rect fill="#C0C0C0" stroke="none" x="799" y="271" width="64" height="15" opacity="0.2"/></g><g transform="translate(-6,-6) scale(1,1)"><rect fill="#C0C0C0" stroke="none" x="799" y="285" width="160" height="82" opacity="0.2"/></g><g transform="translate(-6,-6) scale(1,1)"><rect fill="#ffffff" stroke="none" x="792" y="279" width="160" height="81"/></g><g transform="translate(-6,-6) scale(1,1)"><path fill="none" stroke="#000000" d="M 792 279 L 952 279 L 952 360 L 792 360 L 792 279 Z Z" stroke-miterlimit="10"/></g><g transform="translate(-6,-6) scale(1,1)"><rect fill="#ffffff" stroke="none" x="792" y="264" width="64" height="15"/></g><g transform="translate(-6,-6) scale(1,1)"><path fill="none" stroke="#000000" d="M 792 264 L 856 264 L 856 279 L 792 279 L 792 264 Z Z" stroke-miterlimit="10"/></g><g transform="translate(-6,-6) scale(1,1)"><rect fill="#ffffff" stroke="none" x="792" y="278" width="160" height="82"/></g><g transform="translate(-6,-6) scale(1,1)"><path fill="none" stroke="#000000" d="M 792 278 L 952 278 L 952 360 L 792 360 L 792 278 Z Z" stroke-miterlimit="10"/></g><g transform="translate(-6,-6) scale(1,1)"><g><path fill="none" stroke="none"/><text fill="#000000" stroke="none" font-family="Arial" font-size="13px" font-style="normal" font-weight="bold" text-decoration="none" x="850" y="298.5">Domain</text></g></g><g transform="translate(-6,-6) scale(1,1)"><rect fill="#C0C0C0" stroke="none" x="791" y="439" width="70.39999999999998" height="15" opacity="0.2"/></g><g transform="translate(-6,-6) scale(1,1)"><rect fill="#C0C0C0" stroke="none" x="791" y="453" width="176" height="82" opacity="0.2"/></g><g transform="translate(-6,-6) scale(1,1)"><rect fill="#ffffff" stroke="none" x="784" y="447" width="176" height="81"/></g><g transform="translate(-6,-6) scale(1,1)"><path fill="none" stroke="#000000" d="M 784 447 L 960 447 L 960 528 L 784 528 L 784 447 Z Z" stroke-miterlimit="10"/></g><g transform="translate(-6,-6) scale(1,1)"><rect fill="#ffffff" stroke="none" x="784" y="432" width="70.39999999999998" height="15"/></g><g transform="translate(-6,-6) scale(1,1)"><path fill="none" stroke="#000000" d="M 784 432 L 854.4 432 L 854.4 447 L 784 447 L 784 432 Z Z" stroke-miterlimit="10"/></g><g transform="translate(-6,-6) scale(1,1)"><rect fill="#ffffff" stroke="none" x="784" y="446" width="176" height="82"/></g><g transform="translate(-6,-6) scale(1,1)"><path fill="none" stroke="#000000" d="M 784 446 L 960 446 L 960 528 L 784 528 L 784 446 Z Z" stroke-miterlimit="10"/></g><g transform="translate(-6,-6) scale(1,1)"><g><path fill="none" stroke="none"/><text fill="#000000" stroke="none" font-family="Arial" font-size="13px" font-style="normal" font-weight="bold" text-decoration="none" x="857" y="466.5">ORM</text></g></g><g transform="translate(-6,-6) scale(1,1)"><rect fill="#C0C0C0" stroke="none" x="799" y="615" width="60.799999999999955" height="15" opacity="0.2"/></g><g transform="translate(-6,-6) scale(1,1)"><rect fill="#C0C0C0" stroke="none" x="799" y="629" width="152" height="66" opacity="0.2"/></g><g transform="translate(-6,-6) scale(1,1)"><rect fill="#ffffff" stroke="none" x="792" y="623" width="152" height="65"/></g><g transform="translate(-6,-6) scale(1,1)"><path fill="none" stroke="#000000" d="M 792 623 L 944 623 L 944 688 L 792 688 L 792 623 Z Z" stroke-miterlimit="10"/></g><g transform="translate(-6,-6) scale(1,1)"><rect fill="#ffffff" stroke="none" x="792" y="608" width="60.799999999999955" height="15"/></g><g transform="translate(-6,-6) scale(1,1)"><path fill="none" stroke="#000000" d="M 792 608 L 852.8 608 L 852.8 623 L 792 623 L 792 608 Z Z" stroke-miterlimit="10"/></g><g transform="translate(-6,-6) scale(1,1)"><rect fill="#ffffff" stroke="none" x="792" y="622" width="152" height="66"/></g><g transform="translate(-6,-6) scale(1,1)"><path fill="none" stroke="#000000" d="M 792 622 L 944 622 L 944 688 L 792 688 L 792 622 Z Z" stroke-miterlimit="10"/></g><g transform="translate(-6,-6) scale(1,1)"><g><path fill="none" stroke="none"/><text fill="#000000" stroke="none" font-family="Arial" font-size="13px" font-style="normal" font-weight="bold" text-decoration="none" x="846" y="642.5">MySQL</text></g></g><g transform="translate(-6,-6) scale(1,1)"><path fill="none" stroke="#000000" d="M 871 529 L 869 607" stroke-miterlimit="10" stroke-dasharray="3"/></g><g transform="translate(-6,-6) scale(1,1)"><path fill="none" stroke="#000000" d="M 865.0523611490146 596.732763395042 L 869 607 L 873.4686304262053 596.9485651713802" stroke-miterlimit="10"/></g><g transform="translate(-6,-6) scale(1,1)"><g><path fill="none" stroke="none"/><text fill="#000000" stroke="none" font-family="Arial" font-size="13px" font-style="normal" font-weight="normal" text-decoration="none" x="867.5" y="567.5">+PDO</text></g></g><g transform="translate(-6,-6) scale(1,1)"><rect fill="#C0C0C0" stroke="none" x="375" y="431" width="83.19999999999999" height="15" opacity="0.2"/></g><g transform="translate(-6,-6) scale(1,1)"><rect fill="#C0C0C0" stroke="none" x="375" y="445" width="208" height="90" opacity="0.2"/></g><g transform="translate(-6,-6) scale(1,1)"><rect fill="#ffffff" stroke="none" x="368" y="439" width="208" height="89"/></g><g transform="translate(-6,-6) scale(1,1)"><path fill="none" stroke="#000000" d="M 368 439 L 576 439 L 576 528 L 368 528 L 368 439 Z Z" stroke-miterlimit="10"/></g><g transform="translate(-6,-6) scale(1,1)"><rect fill="#ffffff" stroke="none" x="368" y="424" width="83.19999999999999" height="15"/></g><g transform="translate(-6,-6) scale(1,1)"><path fill="none" stroke="#000000" d="M 368 424 L 451.2 424 L 451.2 439 L 368 439 L 368 424 Z Z" stroke-miterlimit="10"/></g><g transform="translate(-6,-6) scale(1,1)"><rect fill="#ffffff" stroke="none" x="368" y="438" width="208" height="90"/></g><g transform="translate(-6,-6) scale(1,1)"><path fill="none" stroke="#000000" d="M 368 438 L 576 438 L 576 528 L 368 528 L 368 438 Z Z" stroke-miterlimit="10"/></g><g transform="translate(-6,-6) scale(1,1)"><g><path fill="none" stroke="none"/><text fill="#000000" stroke="none" font-family="Arial" font-size="13px" font-style="normal" font-weight="bold" text-decoration="none" x="421.5" y="458.5">Container service</text></g></g><g transform="translate(-6,-6) scale(1,1)"><path fill="none" stroke="#000000" d="M 783 479 L 577 477" stroke-miterlimit="10" stroke-dasharray="3"/></g><g transform="translate(-6,-6) scale(1,1)"><path fill="none" stroke="#000000" d="M 587.2030631051053 472.8893427200462 L 577 477 L 587.1213287482834 481.30798147270514" stroke-miterlimit="10"/></g><g transform="translate(-6,-6) scale(1,1)"><g><path fill="none" stroke="none"/><text fill="#000000" stroke="none" font-family="Arial" font-size="13px" font-style="normal" font-weight="normal" text-decoration="none" x="668.5" y="498.5">+DI</text></g></g><g transform="translate(-6,-6) scale(1,1)"><path fill="none" stroke="#000000" d="M 872 431 L 872 361" stroke-miterlimit="10" stroke-dasharray="3"/></g><g transform="translate(-6,-6) scale(1,1)"><path fill="none" stroke="#000000" d="M 876.209517756016 371.16267485762415 L 872 361 L 867.790482243984 371.16267485762415" stroke-miterlimit="10"/></g><g transform="translate(-6,-6) scale(1,1)"><path fill="none" stroke="#000000" d="M 603 273 L 506 423" stroke-miterlimit="10" stroke-dasharray="3"/></g><g transform="translate(-6,-6) scale(1,1)"><path fill="none" stroke="#000000" d="M 507.98370936437294 412.1803467173066 L 506 423 L 515.0533445497312 416.75204413717154" stroke-miterlimit="10"/></g><g transform="translate(-6,-6) scale(1,1)"><g><path fill="none" stroke="none"/><text fill="#000000" stroke="none" font-family="Arial" font-size="13px" font-style="normal" font-weight="normal" text-decoration="none" x="555.5" y="362.5">+DI</text></g></g><g transform="translate(-6,-6) scale(1,1)"><path fill="none" stroke="#000000" d="M 193 156 L 375 156" stroke-miterlimit="10" stroke-dasharray="3"/></g><g transform="translate(-6,-6) scale(1,1)"><path fill="none" stroke="#000000" d="M 364.83732514237585 160.209517756016 L 375 156 L 364.83732514237585 151.790482243984" stroke-miterlimit="10"/></g><g transform="translate(-6,-6) scale(1,1)"><g><path fill="none" stroke="none"/><text fill="#000000" stroke="none" font-family="Arial" font-size="13px" font-style="normal" font-weight="normal" text-decoration="none" x="278.5" y="148.5">+HTTP</text></g></g><g transform="translate(-6,-6) scale(1,1)"><path fill="none" stroke="#000000" d="M 444 193 L 467 423" stroke-miterlimit="10" stroke-dasharray="3"/></g><g transform="translate(-6,-6) scale(1,1)"><path fill="none" stroke="#000000" d="M 461.80014933638 413.30662323666047 L 467 423 L 470.1774027765504 412.46889789264344" stroke-miterlimit="10"/></g><g transform="translate(-6,-6) scale(1,1)"><g><path fill="none" stroke="none"/><text fill="#000000" stroke="none" font-family="Arial" font-size="13px" font-style="normal" font-weight="normal" text-decoration="none" x="458.5" y="312.5">+DI</text></g></g><g transform="translate(-6,-6) scale(1,1)"><rect fill="#C0C0C0" stroke="none" x="63" y="295" width="70.4" height="15" opacity="0.2"/></g><g transform="translate(-6,-6) scale(1,1)"><rect fill="#C0C0C0" stroke="none" x="63" y="309" width="176" height="74" opacity="0.2"/></g><g transform="translate(-6,-6) scale(1,1)"><rect fill="#ffffff" stroke="none" x="56" y="303" width="176" height="73"/></g><g transform="translate(-6,-6) scale(1,1)"><path fill="none" stroke="#000000" d="M 56 303 L 232 303 L 232 376 L 56 376 L 56 303 Z Z" stroke-miterlimit="10"/></g><g transform="translate(-6,-6) scale(1,1)"><rect fill="#ffffff" stroke="none" x="56" y="288" width="70.4" height="15"/></g><g transform="translate(-6,-6) scale(1,1)"><path fill="none" stroke="#000000" d="M 56 288 L 126.4 288 L 126.4 303 L 56 303 L 56 288 Z Z" stroke-miterlimit="10"/></g><g transform="translate(-6,-6) scale(1,1)"><rect fill="#ffffff" stroke="none" x="56" y="302" width="176" height="74"/></g><g transform="translate(-6,-6) scale(1,1)"><path fill="none" stroke="#000000" d="M 56 302 L 232 302 L 232 376 L 56 376 L 56 302 Z Z" stroke-miterlimit="10"/></g><g transform="translate(-6,-6) scale(1,1)"><g><path fill="none" stroke="none"/><text fill="#000000" stroke="none" font-family="Arial" font-size="13px" font-style="normal" font-weight="bold" text-decoration="none" x="93" y="322.5">React component</text></g></g><g transform="translate(-6,-6) scale(1,1)"><rect fill="#C0C0C0" stroke="none" x="79" y="119" width="48" height="15" opacity="0.2"/></g><g transform="translate(-6,-6) scale(1,1)"><rect fill="#C0C0C0" stroke="none" x="79" y="133" width="120" height="74" opacity="0.2"/></g><g transform="translate(-6,-6) scale(1,1)"><rect fill="#ffffff" stroke="none" x="72" y="127" width="120" height="73"/></g><g transform="translate(-6,-6) scale(1,1)"><path fill="none" stroke="#000000" d="M 72 127 L 192 127 L 192 200 L 72 200 L 72 127 Z Z" stroke-miterlimit="10"/></g><g transform="translate(-6,-6) scale(1,1)"><rect fill="#ffffff" stroke="none" x="72" y="112" width="48" height="15"/></g><g transform="translate(-6,-6) scale(1,1)"><path fill="none" stroke="#000000" d="M 72 112 L 120 112 L 120 127 L 72 127 L 72 112 Z Z" stroke-miterlimit="10"/></g><g transform="translate(-6,-6) scale(1,1)"><rect fill="#ffffff" stroke="none" x="72" y="126" width="120" height="74"/></g><g transform="translate(-6,-6) scale(1,1)"><path fill="none" stroke="#000000" d="M 72 126 L 192 126 L 192 200 L 72 200 L 72 126 Z Z" stroke-miterlimit="10"/></g><g transform="translate(-6,-6) scale(1,1)"><g><path fill="none" stroke="none"/><text fill="#000000" stroke="none" font-family="Arial" font-size="13px" font-style="normal" font-weight="bold" text-decoration="none" x="121" y="146.5">API</text></g></g><g transform="translate(-6,-6) scale(1,1)"><rect fill="#C0C0C0" stroke="none" x="383" y="127" width="51.19999999999999" height="15" opacity="0.2"/></g><g transform="translate(-6,-6) scale(1,1)"><rect fill="#C0C0C0" stroke="none" x="383" y="141" width="128" height="58" opacity="0.2"/></g><g transform="translate(-6,-6) scale(1,1)"><rect fill="#ffffff" stroke="none" x="376" y="135" width="128" height="57"/></g><g transform="translate(-6,-6) scale(1,1)"><path fill="none" stroke="#000000" d="M 376 135 L 504 135 L 504 192 L 376 192 L 376 135 Z Z" stroke-miterlimit="10"/></g><g transform="translate(-6,-6) scale(1,1)"><rect fill="#ffffff" stroke="none" x="376" y="120" width="51.19999999999999" height="15"/></g><g transform="translate(-6,-6) scale(1,1)"><path fill="none" stroke="#000000" d="M 376 120 L 427.2 120 L 427.2 135 L 376 135 L 376 120 Z Z" stroke-miterlimit="10"/></g><g transform="translate(-6,-6) scale(1,1)"><rect fill="#ffffff" stroke="none" x="376" y="134" width="128" height="58"/></g><g transform="translate(-6,-6) scale(1,1)"><path fill="none" stroke="#000000" d="M 376 134 L 504 134 L 504 192 L 376 192 L 376 134 Z Z" stroke-miterlimit="10"/></g><g transform="translate(-6,-6) scale(1,1)"><g><path fill="none" stroke="none"/><text fill="#000000" stroke="none" font-family="Arial" font-size="13px" font-style="normal" font-weight="bold" text-decoration="none" x="413.5" y="154.5">controller</text></g></g><g transform="translate(-6,-6) scale(1,1)"><rect fill="#C0C0C0" stroke="none" x="575" y="215" width="44.799999999999955" height="15" opacity="0.2"/></g><g transform="translate(-6,-6) scale(1,1)"><rect fill="#C0C0C0" stroke="none" x="575" y="229" width="112" height="50" opacity="0.2"/></g><g transform="translate(-6,-6) scale(1,1)"><rect fill="#ffffff" stroke="none" x="568" y="223" width="112" height="49"/></g><g transform="translate(-6,-6) scale(1,1)"><path fill="none" stroke="#000000" d="M 568 223 L 680 223 L 680 272 L 568 272 L 568 223 Z Z" stroke-miterlimit="10"/></g><g transform="translate(-6,-6) scale(1,1)"><rect fill="#ffffff" stroke="none" x="568" y="208" width="44.799999999999955" height="15"/></g><g transform="translate(-6,-6) scale(1,1)"><path fill="none" stroke="#000000" d="M 568 208 L 612.8 208 L 612.8 223 L 568 223 L 568 208 Z Z" stroke-miterlimit="10"/></g><g transform="translate(-6,-6) scale(1,1)"><rect fill="#ffffff" stroke="none" x="568" y="222" width="112" height="50"/></g><g transform="translate(-6,-6) scale(1,1)"><path fill="none" stroke="#000000" d="M 568 222 L 680 222 L 680 272 L 568 272 L 568 222 Z Z" stroke-miterlimit="10"/></g><g transform="translate(-6,-6) scale(1,1)"><g><path fill="none" stroke="none"/><text fill="#000000" stroke="none" font-family="Arial" font-size="13px" font-style="normal" font-weight="bold" text-decoration="none" x="602" y="242.5">Service</text></g></g></g></svg>