<svg version="1.1" xmlns="http://www.w3.org/2000/svg" xmlns:xlink="http://www.w3.org/1999/xlink" width="582" height="485"><defs/><g><g transform="translate(-44,-14) scale(1,1)"><path fill="#C0C0C0" stroke="none" d="M 172 40.5 C 172 35.2532944 176.2532944 31 181.5 31 C 186.7467056 31 191 35.2532944 191 40.5 C 191 45.7467056 186.7467056 50 181.5 50 C 176.2532944 50 172 45.7467056 172 40.5 Z" opacity="0.2"/></g><g transform="translate(-44,-14) scale(1,1)"><path fill="#000000" stroke="none" d="M 165 33.5 C 165 28.2532944 169.2532944 24 174.5 24 C 179.7467056 24 184 28.2532944 184 33.5 C 184 38.7467056 179.7467056 43 174.5 43 C 169.2532944 43 165 38.7467056 165 33.5 Z"/></g><g transform="translate(-44,-14) scale(1,1)"><path fill="#C0C0C0" stroke="none" d="M 71 103 L 291 103 Q 301 103 301 113 L 301 133 Q 301 143 291 143 L 71 143 Q 61 143 61 133 L 61 113 Q 61 103 71 103 Z" opacity="0.2"/></g><g transform="translate(-44,-14) scale(1,1)"><path fill="#ffffff" stroke="none" d="M 64 96 L 284 96 Q 294 96 294 106 L 294 126 Q 294 136 284 136 L 64 136 Q 54 136 54 126 L 54 106 Q 54 96 64 96 Z"/></g><g transform="translate(-44,-14) scale(1,1)"><path fill="none" stroke="#000000" d="M 64 96 L 284 96 Q 294 96 294 106 L 294 126 Q 294 136 284 136 L 64 136 Q 54 136 54 126 L 54 106 Q 54 96 64 96 Z" stroke-miterlimit="10"/></g><g transform="translate(-44,-14) scale(1,1)"><g><path fill="none" stroke="none"/><text fill="#000000" stroke="none" font-family="Arial" font-size="13px" font-style="normal" font-weight="bold" text-decoration="none" x="65.5" y="115.5">Demander identifiant et mot de passe</text></g></g><g transform="translate(-44,-14) scale(1,1)"><path fill="#C0C0C0" stroke="none" d="M 80 207 L 282 207 Q 292 207 292 217 L 292 237 Q 292 247 282 247 L 80 247 Q 70 247 70 237 L 70 217 Q 70 207 80 207 Z" opacity="0.2"/></g><g transform="translate(-44,-14) scale(1,1)"><path fill="#ffffff" stroke="none" d="M 73 200 L 275 200 Q 285 200 285 210 L 285 230 Q 285 240 275 240 L 73 240 Q 63 240 63 230 L 63 210 Q 63 200 73 200 Z"/></g><g transform="translate(-44,-14) scale(1,1)"><path fill="none" stroke="#000000" d="M 73 200 L 275 200 Q 285 200 285 210 L 285 230 Q 285 240 275 240 L 73 240 Q 63 240 63 230 L 63 210 Q 63 200 73 200 Z" stroke-miterlimit="10"/></g><g transform="translate(-44,-14) scale(1,1)"><g><path fill="none" stroke="none"/><text fill="#000000" stroke="none" font-family="Arial" font-size="13px" font-style="normal" font-weight="bold" text-decoration="none" x="74.5" y="219.5">Vérifier identifiant et mot de passe</text></g></g><g transform="translate(-44,-14) scale(1,1)"><path fill="#C0C0C0" stroke="none" d="M 133 375 L 230 375 Q 240 375 240 385 L 240 405 Q 240 415 230 415 L 133 415 Q 123 415 123 405 L 123 385 Q 123 375 133 375 Z" opacity="0.2"/></g><g transform="translate(-44,-14) scale(1,1)"><path fill="#ffffff" stroke="none" d="M 126 368 L 223 368 Q 233 368 233 378 L 233 398 Q 233 408 223 408 L 126 408 Q 116 408 116 398 L 116 378 Q 116 368 126 368 Z"/></g><g transform="translate(-44,-14) scale(1,1)"><path fill="none" stroke="#000000" d="M 126 368 L 223 368 Q 233 368 233 378 L 233 398 Q 233 408 223 408 L 126 408 Q 116 408 116 398 L 116 378 Q 116 368 126 368 Z" stroke-miterlimit="10"/></g><g transform="translate(-44,-14) scale(1,1)"><g><path fill="none" stroke="none"/><text fill="#000000" stroke="none" font-family="Arial" font-size="13px" font-style="normal" font-weight="bold" text-decoration="none" x="124.5" y="387.5">Afficher le Studio</text></g></g><g transform="translate(-44,-14) scale(1,1)"><path fill="#C0C0C0" stroke="none" d="M 169 483.5 C 169 476.59644 174.59644 471 181.5 471 C 188.40356 471 194 476.59644 194 483.5 C 194 490.40356 188.40356 496 181.5 496 C 174.59644 496 169 490.40356 169 483.5 Z" opacity="0.2"/></g><g transform="translate(-44,-14) scale(1,1)"><path fill="none" stroke="#000000" d="M 162 476.5 C 162 469.59644 167.59644 464 174.5 464 C 181.40356 464 187 469.59644 187 476.5 C 187 483.40356 181.40356 489 174.5 489 C 167.59644 489 162 483.40356 162 476.5 Z" stroke-miterlimit="10"/></g><g transform="translate(-44,-14) scale(1,1)"><path fill="#000000" stroke="none" d="M 167 476.5 C 167 472.357864 170.357864 469 174.5 469 C 178.642136 469 182 472.357864 182 476.5 C 182 480.642136 178.642136 484 174.5 484 C 170.357864 484 167 480.642136 167 476.5 Z"/></g><g transform="translate(-44,-14) scale(1,1)"><path fill="#C0C0C0" stroke="none" d="M 337 279 L 613 279 Q 623 279 623 289 L 623 309 Q 623 319 613 319 L 337 319 Q 327 319 327 309 L 327 289 Q 327 279 337 279 Z" opacity="0.2"/></g><g transform="translate(-44,-14) scale(1,1)"><path fill="#ffffff" stroke="none" d="M 330 272 L 606 272 Q 616 272 616 282 L 616 302 Q 616 312 606 312 L 330 312 Q 320 312 320 302 L 320 282 Q 320 272 330 272 Z"/></g><g transform="translate(-44,-14) scale(1,1)"><path fill="none" stroke="#000000" d="M 330 272 L 606 272 Q 616 272 616 282 L 616 302 Q 616 312 606 312 L 330 312 Q 320 312 320 302 L 320 282 Q 320 272 330 272 Z" stroke-miterlimit="10"/></g><g transform="translate(-44,-14) scale(1,1)"><g><path fill="none" stroke="none"/><text fill="#000000" stroke="none" font-family="Arial" font-size="13px" font-style="normal" font-weight="bold" text-decoration="none" x="337" y="291.5">Afficher l'invalidité des informations fournises</text></g></g><g transform="translate(-44,-14) scale(1,1)"><path fill="#C0C0C0" stroke="none" d="M 170 296.5 L 181.5 287 L 192 296.5 L 181.5 305 L 170 296.5" opacity="0.2"/></g><g transform="translate(-44,-14) scale(1,1)"><path fill="#ffffff" stroke="none" d="M 163 289 L 174 280 L 185 289 L 174 298 L 163 289"/></g><g transform="translate(-44,-14) scale(1,1)"><path fill="none" stroke="#000000" d="M 163 289 L 174 280 L 185 289 L 174 298 L 163 289 L 163 289" stroke-miterlimit="10"/></g><g transform="translate(-44,-14) scale(1,1)"><path fill="none" stroke="#000000" d="M 174 43 L 174 96" stroke-miterlimit="10"/></g><g transform="translate(-44,-14) scale(1,1)"><path fill="none" stroke="#000000" d="M 169.790482243984 85.83732514237585 L 174 96 L 178.209517756016 85.83732514237585" stroke-miterlimit="10"/></g><g transform="translate(-44,-14) scale(1,1)"><path fill="none" stroke="#000000" d="M 174 136 L 174 200" stroke-miterlimit="10"/></g><g transform="translate(-44,-14) scale(1,1)"><path fill="none" stroke="#000000" d="M 169.790482243984 189.83732514237585 L 174 200 L 178.209517756016 189.83732514237585" stroke-miterlimit="10"/></g><g transform="translate(-44,-14) scale(1,1)"><path fill="none" stroke="#000000" d="M 174 240 L 174 280" stroke-miterlimit="10"/></g><g transform="translate(-44,-14) scale(1,1)"><path fill="none" stroke="#000000" d="M 169.790482243984 269.83732514237585 L 174 280 L 178.209517756016 269.83732514237585" stroke-miterlimit="10"/></g><g transform="translate(-44,-14) scale(1,1)"><path fill="none" stroke="#000000" d="M 185 290 L 320 290" stroke-miterlimit="10"/></g><g transform="translate(-44,-14) scale(1,1)"><path fill="none" stroke="#000000" d="M 309.83732514237585 294.209517756016 L 320 290 L 309.83732514237585 285.790482243984" stroke-miterlimit="10"/></g><g transform="translate(-44,-14) scale(1,1)"><g><path fill="none" stroke="none"/><text fill="#000000" stroke="none" font-family="Arial" font-size="13px" font-style="normal" font-weight="normal" text-decoration="none" x="230.5" y="281.5"> [sinon]</text></g></g><g transform="translate(-44,-14) scale(1,1)"><path fill="none" stroke="#000000" d="M 174 298 L 174 368" stroke-miterlimit="10"/></g><g transform="translate(-44,-14) scale(1,1)"><path fill="none" stroke="#000000" d="M 169.790482243984 357.83732514237585 L 174 368 L 178.209517756016 357.83732514237585" stroke-miterlimit="10"/></g><g transform="translate(-44,-14) scale(1,1)"><g><path fill="none" stroke="none"/><text fill="#000000" stroke="none" font-family="Arial" font-size="13px" font-style="normal" font-weight="normal" text-decoration="none" x="124" y="338.5"> [informations valides]</text></g></g><g transform="translate(-44,-14) scale(1,1)"><path fill="none" stroke="#000000" d="M 174 408 L 174 464" stroke-miterlimit="10"/></g><g transform="translate(-44,-14) scale(1,1)"><path fill="none" stroke="#000000" d="M 169.790482243984 453.83732514237585 L 174 464 L 178.209517756016 453.83732514237585" stroke-miterlimit="10"/></g><g transform="translate(-44,-14) scale(1,1)"><path fill="none" stroke="#000000" d="M 480 272 L 480 120 L 294 120" stroke-miterlimit="10"/></g><g transform="translate(-44,-14) scale(1,1)"><path fill="none" stroke="#000000" d="M 304.16267485762415 115.79048224398402 L 294 120 L 304.16267485762415 124.20951775601598" stroke-miterlimit="10"/></g></g></svg>