<svg version="1.1" xmlns="http://www.w3.org/2000/svg" xmlns:xlink="http://www.w3.org/1999/xlink" width="732" height="628"><defs/><g><g transform="translate(-54,-30) scale(1,1)"><rect fill="#C0C0C0" stroke="none" x="175" y="47" width="608" height="608" opacity="0.2"/></g><g transform="translate(-54,-30) scale(1,1)"><rect fill="#ffffff" stroke="none" x="168" y="40" width="608" height="608"/></g><g transform="translate(-54,-30) scale(1,1)"><path fill="none" stroke="#000000" d="M 168 40 L 776 40 L 776 648 L 168 648 L 168 40 Z Z" stroke-miterlimit="10"/></g><g transform="translate(-54,-30) scale(1,1)"><g><path fill="none" stroke="none"/><text fill="#000000" stroke="none" font-family="Arial" font-size="13px" font-style="normal" font-weight="bold" text-decoration="none" x="413" y="59.5">Manage instruments</text></g></g><g transform="translate(-54,-30) scale(1,1)"><path fill="#ffffff" stroke="none" d="M 84.82072727272727 297.68 C 84.82072727272727 292.886167936 88.70656959767273 289 93.5 289 C 98.29343040232727 289 102.17927272727273 292.886167936 102.17927272727273 297.68 C 102.17927272727273 302.473832064 98.29343040232727 306.36 93.5 306.36 C 88.70656959767273 306.36 84.82072727272727 302.473832064 84.82072727272727 297.68 Z"/></g><g transform="translate(-54,-30) scale(1,1)"><path fill="none" stroke="#000000" d="M 84.82072727272727 297.68 C 84.82072727272727 292.886167936 88.70656959767273 289 93.5 289 C 98.29343040232727 289 102.17927272727273 292.886167936 102.17927272727273 297.68 C 102.17927272727273 302.473832064 98.29343040232727 306.36 93.5 306.36 C 88.70656959767273 306.36 84.82072727272727 302.473832064 84.82072727272727 297.68 Z" stroke-miterlimit="10"/></g><g transform="translate(-54,-30) scale(1,1)"><path fill="none" stroke="#000000" d="M 93.5 306.36 L 93.5 323.64" stroke-miterlimit="10"/></g><g transform="translate(-54,-30) scale(1,1)"><path fill="none" stroke="#000000" d="M 84.31018181818182 312.84 L 102.68981818181818 312.84" stroke-miterlimit="10"/></g><g transform="translate(-54,-30) scale(1,1)"><path fill="none" stroke="#000000" d="M 93.5 323.64 L 80.73636363636363 341" stroke-miterlimit="10"/></g><g transform="translate(-54,-30) scale(1,1)"><path fill="none" stroke="#000000" d="M 93.5 323.64 L 106.26363636363637 341" stroke-miterlimit="10"/></g><g transform="translate(-54,-30) scale(1,1)"><g><path fill="none" stroke="none"/><text fill="#000000" stroke="none" font-family="Arial" font-size="13px" font-style="normal" font-weight="bold" text-decoration="none" x="70" y="361.5">Jammer</text></g></g><g transform="translate(-54,-30) scale(1,1)"><path fill="#ffffff" stroke="none" d="M 84.32072727272727 537.6800000000001 C 84.32072727272727 532.8861679360001 88.20656959767273 529 93 529 C 97.79343040232727 529 101.67927272727273 532.8861679360001 101.67927272727273 537.6800000000001 C 101.67927272727273 542.473832064 97.79343040232727 546.36 93 546.36 C 88.20656959767273 546.36 84.32072727272727 542.473832064 84.32072727272727 537.6800000000001 Z"/></g><g transform="translate(-54,-30) scale(1,1)"><path fill="none" stroke="#000000" d="M 84.32072727272727 537.6800000000001 C 84.32072727272727 532.8861679360001 88.20656959767273 529 93 529 C 97.79343040232727 529 101.67927272727273 532.8861679360001 101.67927272727273 537.6800000000001 C 101.67927272727273 542.473832064 97.79343040232727 546.36 93 546.36 C 88.20656959767273 546.36 84.32072727272727 542.473832064 84.32072727272727 537.6800000000001 Z" stroke-miterlimit="10"/></g><g transform="translate(-54,-30) scale(1,1)"><path fill="none" stroke="#000000" d="M 93 546.36 L 93 563.64" stroke-miterlimit="10"/></g><g transform="translate(-54,-30) scale(1,1)"><path fill="none" stroke="#000000" d="M 83.81018181818182 552.84 L 102.18981818181818 552.84" stroke-miterlimit="10"/></g><g transform="translate(-54,-30) scale(1,1)"><path fill="none" stroke="#000000" d="M 93 563.64 L 80.23636363636363 581" stroke-miterlimit="10"/></g><g transform="translate(-54,-30) scale(1,1)"><path fill="none" stroke="#000000" d="M 93 563.64 L 105.76363636363637 581" stroke-miterlimit="10"/></g><g transform="translate(-54,-30) scale(1,1)"><g><path fill="none" stroke="none"/><text fill="#000000" stroke="none" font-family="Arial" font-size="13px" font-style="normal" font-weight="bold" text-decoration="none" x="74.5" y="601.5">Admin</text></g></g><g transform="translate(-54,-30) scale(1,1)"><path fill="none" stroke="#000000" d="M 93 527 L 93 368" stroke-miterlimit="10"/></g><g transform="translate(-54,-30) scale(1,1)"><path fill="#FFFFFF" stroke="none" d="M 101.41903551203198 388.3253497152483 L 93 368 L 84.58096448796803 388.3253497152483"/></g><g transform="translate(-54,-30) scale(1,1)"><path fill="none" stroke="#000000" d="M 101.41903551203198 388.3253497152483 L 93 368 L 84.58096448796803 388.3253497152483 L 101.41903551203198 388.3253497152483" stroke-miterlimit="10"/></g><g transform="translate(-54,-30) scale(1,1)"><path fill="#C0C0C0" stroke="none" d="M 335 136 C 335 126.6111584 378.652232 119 432.5 119 C 486.347768 119 530 126.6111584 530 136 C 530 145.3888416 486.347768 153 432.5 153 C 378.652232 153 335 145.3888416 335 136 Z" opacity="0.2"/></g><g transform="translate(-54,-30) scale(1,1)"><path fill="#ffffff" stroke="none" d="M 328 129 C 328 119.6111584 371.652232 112 425.5 112 C 479.347768 112 523 119.6111584 523 129 C 523 138.3888416 479.347768 146 425.5 146 C 371.652232 146 328 138.3888416 328 129 Z"/></g><g transform="translate(-54,-30) scale(1,1)"><path fill="none" stroke="#000000" d="M 328 129 C 328 119.6111584 371.652232 112 425.5 112 C 479.347768 112 523 119.6111584 523 129 C 523 138.3888416 479.347768 146 425.5 146 C 371.652232 146 328 138.3888416 328 129 Z" stroke-miterlimit="10"/></g><g transform="translate(-54,-30) scale(1,1)"><g><path fill="none" stroke="none"/><text fill="#000000" stroke="none" font-family="Arial" font-size="13px" font-style="normal" font-weight="bold" text-decoration="none" x="365" y="136">Create an instrument</text></g></g><g transform="translate(-54,-30) scale(1,1)"><path fill="none" stroke="#000000" d="M 124 309 L 395 147" stroke-miterlimit="10"/></g><g transform="translate(-54,-30) scale(1,1)"><path fill="#C0C0C0" stroke="none" d="M 535 464 C 535 454.6111584 582.6816688 447 641.5 447 C 700.3183312 447 748 454.6111584 748 464 C 748 473.3888416 700.3183312 481 641.5 481 C 582.6816688 481 535 473.3888416 535 464 Z" opacity="0.2"/></g><g transform="translate(-54,-30) scale(1,1)"><path fill="#ffffff" stroke="none" d="M 528 457 C 528 447.6111584 575.6816688 440 634.5 440 C 693.3183312 440 741 447.6111584 741 457 C 741 466.3888416 693.3183312 474 634.5 474 C 575.6816688 474 528 466.3888416 528 457 Z"/></g><g transform="translate(-54,-30) scale(1,1)"><path fill="none" stroke="#000000" d="M 528 457 C 528 447.6111584 575.6816688 440 634.5 440 C 693.3183312 440 741 447.6111584 741 457 C 741 466.3888416 693.3183312 474 634.5 474 C 575.6816688 474 528 466.3888416 528 457 Z" stroke-miterlimit="10"/></g><g transform="translate(-54,-30) scale(1,1)"><g><path fill="none" stroke="none"/><text fill="#000000" stroke="none" font-family="Arial" font-size="13px" font-style="normal" font-weight="bold" text-decoration="none" x="568.5" y="464">Search for instruments</text></g></g><g transform="translate(-54,-30) scale(1,1)"><path fill="none" stroke="#000000" d="M 124 334 L 559 439" stroke-miterlimit="10"/></g><g transform="translate(-54,-30) scale(1,1)"><path fill="#C0C0C0" stroke="none" d="M 215 464 C 215 454.6111584 259.9953776 447 315.5 447 C 371.0046224 447 416 454.6111584 416 464 C 416 473.3888416 371.0046224 481 315.5 481 C 259.9953776 481 215 473.3888416 215 464 Z" opacity="0.2"/></g><g transform="translate(-54,-30) scale(1,1)"><path fill="#ffffff" stroke="none" d="M 208 457 C 208 447.6111584 252.99537759999998 440 308.5 440 C 364.0046224 440 409 447.6111584 409 457 C 409 466.3888416 364.0046224 474 308.5 474 C 252.99537759999998 474 208 466.3888416 208 457 Z"/></g><g transform="translate(-54,-30) scale(1,1)"><path fill="none" stroke="#000000" d="M 208 457 C 208 447.6111584 252.99537759999998 440 308.5 440 C 364.0046224 440 409 447.6111584 409 457 C 409 466.3888416 364.0046224 474 308.5 474 C 252.99537759999998 474 208 466.3888416 208 457 Z" stroke-miterlimit="10"/></g><g transform="translate(-54,-30) scale(1,1)"><g><path fill="none" stroke="none"/><text fill="#000000" stroke="none" font-family="Arial" font-size="13px" font-style="normal" font-weight="bold" text-decoration="none" x="246.5" y="464">Update an instrument</text></g></g><g transform="translate(-54,-30) scale(1,1)"><path fill="none" stroke="#000000" d="M 119 554 L 273 475" stroke-miterlimit="10"/></g><g transform="translate(-54,-30) scale(1,1)"><path fill="none" stroke="#000000" d="M 410 457 L 527 457" stroke-miterlimit="10" stroke-dasharray="3"/></g><g transform="translate(-54,-30) scale(1,1)"><path fill="none" stroke="#000000" d="M 516.8373251423759 461.209517756016 L 527 457 L 516.8373251423758 452.790482243984" stroke-miterlimit="10"/></g><g transform="translate(-54,-30) scale(1,1)"><g><path fill="none" stroke="none"/><text fill="#000000" stroke="none" font-family="Arial" font-size="13px" font-style="normal" font-weight="normal" text-decoration="none" x="435.5" y="455.5">«include»</text></g></g><g transform="translate(-54,-30) scale(1,1)"><path fill="#C0C0C0" stroke="none" d="M 239 616 C 239 606.6111584 286.2339536 599 344.5 599 C 402.7660464 599 450 606.6111584 450 616 C 450 625.3888416 402.7660464 633 344.5 633 C 286.2339536 633 239 625.3888416 239 616 Z" opacity="0.2"/></g><g transform="translate(-54,-30) scale(1,1)"><path fill="#ffffff" stroke="none" d="M 232 609 C 232 599.6111584 279.2339536 592 337.5 592 C 395.7660464 592 443 599.6111584 443 609 C 443 618.3888416 395.7660464 626 337.5 626 C 279.2339536 626 232 618.3888416 232 609 Z"/></g><g transform="translate(-54,-30) scale(1,1)"><path fill="none" stroke="#000000" d="M 232 609 C 232 599.6111584 279.2339536 592 337.5 592 C 395.7660464 592 443 599.6111584 443 609 C 443 618.3888416 395.7660464 626 337.5 626 C 279.2339536 626 232 618.3888416 232 609 Z" stroke-miterlimit="10"/></g><g transform="translate(-54,-30) scale(1,1)"><g><path fill="none" stroke="none"/><text fill="#000000" stroke="none" font-family="Arial" font-size="13px" font-style="normal" font-weight="bold" text-decoration="none" x="272.5" y="616">Validate an instrument</text></g></g><g transform="translate(-54,-30) scale(1,1)"><path fill="none" stroke="#000000" d="M 119 571 L 232 591" stroke-miterlimit="10"/></g><g transform="translate(-54,-30) scale(1,1)"><path fill="none" stroke="#000000" d="M 372 591 L 599 475" stroke-miterlimit="10" stroke-dasharray="3"/></g><g transform="translate(-54,-30) scale(1,1)"><path fill="none" stroke="#000000" d="M 591.8659499906183 483.3728925983582 L 599 475 L 588.0349357265966 475.875993995488" stroke-miterlimit="10"/></g><g transform="translate(-54,-30) scale(1,1)"><g><path fill="none" stroke="none"/><text fill="#000000" stroke="none" font-family="Arial" font-size="13px" font-style="normal" font-weight="normal" text-decoration="none" x="445.5" y="524.5">«include»</text></g></g><g transform="translate(-54,-30) scale(1,1)"><path fill="#C0C0C0" stroke="none" d="M 431 344 C 431 334.6111584 487.85983039999996 327 558 327 C 628.1401696 327 685 334.6111584 685 344 C 685 353.3888416 628.1401696 361 558 361 C 487.85983039999996 361 431 353.3888416 431 344 Z" opacity="0.2"/></g><g transform="translate(-54,-30) scale(1,1)"><path fill="#ffffff" stroke="none" d="M 424 337 C 424 327.6111584 480.85983039999996 320 551 320 C 621.1401696 320 678 327.6111584 678 337 C 678 346.3888416 621.1401696 354 551 354 C 480.85983039999996 354 424 346.3888416 424 337 Z"/></g><g transform="translate(-54,-30) scale(1,1)"><path fill="none" stroke="#000000" d="M 424 337 C 424 327.6111584 480.85983039999996 320 551 320 C 621.1401696 320 678 327.6111584 678 337 C 678 346.3888416 621.1401696 354 551 354 C 480.85983039999996 354 424 346.3888416 424 337 Z" stroke-miterlimit="10"/></g><g transform="translate(-54,-30) scale(1,1)"><g><path fill="none" stroke="none"/><text fill="#000000" stroke="none" font-family="Arial" font-size="13px" font-style="normal" font-weight="bold" text-decoration="none" x="471.5" y="344">Add instruments to session</text></g></g><g transform="translate(-54,-30) scale(1,1)"><path fill="#C0C0C0" stroke="none" d="M 351 248 C 351 238.6111584 413.0085552 231 489.5 231 C 565.9914448 231 628 238.6111584 628 248 C 628 257.3888416 565.9914448 265 489.5 265 C 413.0085552 265 351 257.3888416 351 248 Z" opacity="0.2"/></g><g transform="translate(-54,-30) scale(1,1)"><path fill="#ffffff" stroke="none" d="M 344 241 C 344 231.6111584 406.0085552 224 482.5 224 C 558.9914448 224 621 231.6111584 621 241 C 621 250.3888416 558.9914448 258 482.5 258 C 406.0085552 258 344 250.3888416 344 241 Z"/></g><g transform="translate(-54,-30) scale(1,1)"><path fill="none" stroke="#000000" d="M 344 241 C 344 231.6111584 406.0085552 224 482.5 224 C 558.9914448 224 621 231.6111584 621 241 C 621 250.3888416 558.9914448 258 482.5 258 C 406.0085552 258 344 250.3888416 344 241 Z" stroke-miterlimit="10"/></g><g transform="translate(-54,-30) scale(1,1)"><g><path fill="none" stroke="none"/><text fill="#000000" stroke="none" font-family="Arial" font-size="13px" font-style="normal" font-weight="bold" text-decoration="none" x="395.5" y="248">Delete intrument from session</text></g></g><g transform="translate(-54,-30) scale(1,1)"><path fill="none" stroke="#000000" d="M 124 328 L 423 334" stroke-miterlimit="10"/></g><g transform="translate(-54,-30) scale(1,1)"><path fill="none" stroke="#000000" d="M 124 320 L 401 259" stroke-miterlimit="10"/></g><g transform="translate(-54,-30) scale(1,1)"><path fill="none" stroke="#000000" d="M 563 355 L 622 439" stroke-miterlimit="10" stroke-dasharray="3"/></g><g transform="translate(-54,-30) scale(1,1)"><path fill="none" stroke="#000000" d="M 612.7140932703236 433.10322662740464 L 622 439 L 619.6035208208625 428.26422394309753" stroke-miterlimit="10"/></g><g transform="translate(-54,-30) scale(1,1)"><g><path fill="none" stroke="none"/><text fill="#000000" stroke="none" font-family="Arial" font-size="13px" font-style="normal" font-weight="normal" text-decoration="none" x="591.5" y="402.5">«include»</text></g></g></g></svg>