<svg version="1.1" xmlns="http://www.w3.org/2000/svg" xmlns:xlink="http://www.w3.org/1999/xlink" width="1095" height="879"><defs/><g><g transform="translate(5,5) scale(1,1)"><path fill="none" stroke="#000000" d="M 5 5 L 1080 5 L 1080 864 L 5 864 L 5 5" stroke-miterlimit="10"/></g><g transform="translate(5,5) scale(1,1)"><path fill="#ffffff" stroke="none" d="M 5 5 L 5 27 L 186 27 L 197 16 L 197 5 L 5 5"/></g><g transform="translate(5,5) scale(1,1)"><path fill="none" stroke="#000000" d="M 5 5 L 5 27 L 186 27 L 197 16 L 197 5 L 5 5 L 5 5" stroke-miterlimit="10"/></g><g transform="translate(5,5) scale(1,1)"><g><path fill="none" stroke="none"/><text fill="#000000" stroke="none" font-family="Arial" font-size="13px" font-style="normal" font-weight="normal" text-decoration="none" x="76" y="22.5">Update  a session</text></g></g><g transform="translate(5,5) scale(1,1)"><g><path fill="none" stroke="none"/><text fill="#000000" stroke="none" font-family="Arial" font-size="13px" font-style="normal" font-weight="bold" text-decoration="none" x="10" y="22.5">interaction</text></g></g><g transform="translate(5,5) scale(1,1)"><path fill="#ffffff" stroke="none" d="M 43.07090909090909 47.3 C 43.07090909090909 43.82060576 45.94931081309091 41 49.5 41 C 53.05068918690909 41 55.92909090909091 43.82060576 55.92909090909091 47.3 C 55.92909090909091 50.779394239999995 53.05068918690909 53.6 49.5 53.6 C 45.94931081309091 53.6 43.07090909090909 50.779394239999995 43.07090909090909 47.3 Z"/></g><g transform="translate(5,5) scale(1,1)"><path fill="none" stroke="#000000" d="M 43.07090909090909 47.3 C 43.07090909090909 43.82060576 45.94931081309091 41 49.5 41 C 53.05068918690909 41 55.92909090909091 43.82060576 55.92909090909091 47.3 C 55.92909090909091 50.779394239999995 53.05068918690909 53.6 49.5 53.6 C 45.94931081309091 53.6 43.07090909090909 50.779394239999995 43.07090909090909 47.3 Z" stroke-miterlimit="10"/></g><g transform="translate(5,5) scale(1,1)"><path fill="none" stroke="#000000" d="M 49.5 53.6 L 49.5 66.4" stroke-miterlimit="10"/></g><g transform="translate(5,5) scale(1,1)"><path fill="none" stroke="#000000" d="M 42.692727272727275 58.4 L 56.307272727272725 58.4" stroke-miterlimit="10"/></g><g transform="translate(5,5) scale(1,1)"><path fill="none" stroke="#000000" d="M 49.5 66.4 L 40.04545454545455 79" stroke-miterlimit="10"/></g><g transform="translate(5,5) scale(1,1)"><path fill="none" stroke="#000000" d="M 49.5 66.4 L 58.95454545454545 79" stroke-miterlimit="10"/></g><g transform="translate(5,5) scale(1,1)"><g><path fill="none" stroke="none"/><text fill="#000000" stroke="none" font-family="Arial" font-size="13px" font-style="normal" font-weight="bold" text-decoration="none" x="22" y="99.5">: Jammer</text></g></g><g transform="translate(5,5) scale(1,1)"><path fill="none" stroke="#000000" d="M 50.5 105 L 50.5 856" stroke-miterlimit="10" stroke-dasharray="3"/></g><g transform="translate(5,5) scale(1,1)"><path fill="#ffffff" stroke="none" d="M 505.5 60 C 505.5 51.1634432 512.6634432 44 521.5 44 C 530.3365568 44 537.5 51.1634432 537.5 60 C 537.5 68.8365568 530.3365568 76 521.5 76 C 512.6634432 76 505.5 68.8365568 505.5 60 Z"/></g><g transform="translate(5,5) scale(1,1)"><path fill="none" stroke="#000000" d="M 505.5 60 C 505.5 51.1634432 512.6634432 44 521.5 44 C 530.3365568 44 537.5 51.1634432 537.5 60 C 537.5 68.8365568 530.3365568 76 521.5 76 C 512.6634432 76 505.5 68.8365568 505.5 60 Z" stroke-miterlimit="10"/></g><g transform="translate(5,5) scale(1,1)"><path fill="none" stroke="#000000" d="M 497.5 44 L 497.5 76" stroke-miterlimit="10"/></g><g transform="translate(5,5) scale(1,1)"><path fill="none" stroke="#000000" d="M 497.5 60 L 505.5 60" stroke-miterlimit="10"/></g><g transform="translate(5,5) scale(1,1)"><g><path fill="none" stroke="none"/><text fill="#000000" stroke="none" font-family="Arial" font-size="13px" font-style="normal" font-weight="bold" text-decoration="none" x="463" y="99.5">: UpdateSessionUI</text></g></g><g transform="translate(5,5) scale(1,1)"><path fill="none" stroke="#000000" d="M 518.5 105 L 518.5 856" stroke-miterlimit="10" stroke-dasharray="3"/></g><g transform="translate(5,5) scale(1,1)"><path fill="#ffffff" stroke="none" d="M 217.5 60 C 217.5 51.1634432 224.6634432 44 233.5 44 C 242.3365568 44 249.5 51.1634432 249.5 60 C 249.5 68.8365568 242.3365568 76 233.5 76 C 224.6634432 76 217.5 68.8365568 217.5 60 Z"/></g><g transform="translate(5,5) scale(1,1)"><path fill="none" stroke="#000000" d="M 217.5 60 C 217.5 51.1634432 224.6634432 44 233.5 44 C 242.3365568 44 249.5 51.1634432 249.5 60 C 249.5 68.8365568 242.3365568 76 233.5 76 C 224.6634432 76 217.5 68.8365568 217.5 60 Z" stroke-miterlimit="10"/></g><g transform="translate(5,5) scale(1,1)"><path fill="none" stroke="#000000" d="M 209.5 44 L 209.5 76" stroke-miterlimit="10"/></g><g transform="translate(5,5) scale(1,1)"><path fill="none" stroke="#000000" d="M 209.5 60 L 217.5 60" stroke-miterlimit="10"/></g><g transform="translate(5,5) scale(1,1)"><g><path fill="none" stroke="none"/><text fill="#000000" stroke="none" font-family="Arial" font-size="13px" font-style="normal" font-weight="bold" text-decoration="none" x="175" y="99.5">: SearchSessionUI</text></g></g><g transform="translate(5,5) scale(1,1)"><path fill="none" stroke="#000000" d="M 230.5 105 L 230.5 298" stroke-miterlimit="10" stroke-dasharray="3"/></g><g transform="translate(5,5) scale(1,1)"><path fill="none" stroke="#000000" d="M 24 120 L 1056 120 L 1056 488 L 24 488 L 24 120" stroke-miterlimit="10"/></g><g transform="translate(5,5) scale(1,1)"><path fill="#ffffff" stroke="none" d="M 24 120 L 24 142 L 58 142 L 69 131 L 69 120 L 24 120"/></g><g transform="translate(5,5) scale(1,1)"><path fill="none" stroke="#000000" d="M 24 120 L 24 142 L 58 142 L 69 131 L 69 120 L 24 120 L 24 120" stroke-miterlimit="10"/></g><g transform="translate(5,5) scale(1,1)"><g><path fill="none" stroke="none"/><text fill="#000000" stroke="none" font-family="Arial" font-size="13px" font-style="normal" font-weight="bold" text-decoration="none" x="29" y="137.5">opt</text></g></g><g transform="translate(5,5) scale(1,1)"><path fill="none" stroke="#000000" d="M 24 313 L 1056 313" stroke-miterlimit="10" stroke-dasharray="10,3"/></g><g transform="translate(5,5) scale(1,1)"><path fill="#ffffff" stroke="none" d="M 316 60 C 316 51.1634432 323.1634432 44 332 44 C 340.8365568 44 348 51.1634432 348 60 C 348 68.8365568 340.8365568 76 332 76 C 323.1634432 76 316 68.8365568 316 60 Z"/></g><g transform="translate(5,5) scale(1,1)"><path fill="none" stroke="#000000" d="M 316 60 C 316 51.1634432 323.1634432 44 332 44 C 340.8365568 44 348 51.1634432 348 60 C 348 68.8365568 340.8365568 76 332 76 C 323.1634432 76 316 68.8365568 316 60 Z" stroke-miterlimit="10"/></g><g transform="translate(5,5) scale(1,1)"><path fill="none" stroke="#000000" d="M 308 44 L 308 76" stroke-miterlimit="10"/></g><g transform="translate(5,5) scale(1,1)"><path fill="none" stroke="#000000" d="M 308 60 L 316 60" stroke-miterlimit="10"/></g><g transform="translate(5,5) scale(1,1)"><g><path fill="none" stroke="none"/><text fill="#000000" stroke="none" font-family="Arial" font-size="13px" font-style="normal" font-weight="bold" text-decoration="none" x="294" y="99.5">: SessionUI</text></g></g><g transform="translate(5,5) scale(1,1)"><path fill="none" stroke="#000000" d="M 329.5 105 L 329.5 856" stroke-miterlimit="10" stroke-dasharray="3"/></g><g transform="translate(5,5) scale(1,1)"><path fill="#ffffff" stroke="none" d="M 721.5 60 C 721.5 51.715728 728.215728 45 736.5 45 C 744.784272 45 751.5 51.715728 751.5 60 C 751.5 68.284272 744.784272 75 736.5 75 C 728.215728 75 721.5 68.284272 721.5 60 Z"/></g><g transform="translate(5,5) scale(1,1)"><path fill="none" stroke="#000000" d="M 721.5 60 C 721.5 51.715728 728.215728 45 736.5 45 C 744.784272 45 751.5 51.715728 751.5 60 C 751.5 68.284272 744.784272 75 736.5 75 C 728.215728 75 721.5 68.284272 721.5 60 Z" stroke-miterlimit="10"/></g><g transform="translate(5,5) scale(1,1)"><path fill="none" stroke="#000000" d="M 736.5 45 L 741.5 40" stroke-miterlimit="10"/></g><g transform="translate(5,5) scale(1,1)"><path fill="none" stroke="#000000" d="M 736.5 45 L 741.5 50" stroke-miterlimit="10"/></g><g transform="translate(5,5) scale(1,1)"><g><path fill="none" stroke="none"/><text fill="#000000" stroke="none" font-family="Arial" font-size="13px" font-style="normal" font-weight="bold" text-decoration="none" x="687" y="99.5">: SessionService</text></g></g><g transform="translate(5,5) scale(1,1)"><path fill="none" stroke="#000000" d="M 737.5 105 L 737.5 856" stroke-miterlimit="10" stroke-dasharray="3"/></g><g transform="translate(5,5) scale(1,1)"><rect fill="#C0C0C0" stroke="none" x="959" y="47" width="105" height="39" opacity="0.2"/></g><g transform="translate(5,5) scale(1,1)"><rect fill="#ffffff" stroke="none" x="952" y="40" width="105" height="39"/></g><g transform="translate(5,5) scale(1,1)"><path fill="none" stroke="#000000" d="M 952 40 L 1057 40 L 1057 79 L 952 79 L 952 40 Z Z" stroke-miterlimit="10"/></g><g transform="translate(5,5) scale(1,1)"><g><path fill="none" stroke="none"/><text fill="#000000" stroke="none" font-family="Arial" font-size="13px" font-style="normal" font-weight="bold" text-decoration="none" x="963" y="59.5">: SessionDAO</text></g></g><g transform="translate(5,5) scale(1,1)"><path fill="none" stroke="#000000" d="M 1005.5 80 L 1005.5 856" stroke-miterlimit="10" stroke-dasharray="3"/></g><g transform="translate(5,5) scale(1,1)"><path fill="#ffffff" stroke="none" d="M 801.5 673 C 801.5 664.1634432 808.6634432 657 817.5 657 C 826.3365568 657 833.5 664.1634432 833.5 673 C 833.5 681.8365568 826.3365568 689 817.5 689 C 808.6634432 689 801.5 681.8365568 801.5 673 Z"/></g><g transform="translate(5,5) scale(1,1)"><path fill="none" stroke="#000000" d="M 801.5 673 C 801.5 664.1634432 808.6634432 657 817.5 657 C 826.3365568 657 833.5 664.1634432 833.5 673 C 833.5 681.8365568 826.3365568 689 817.5 689 C 808.6634432 689 801.5 681.8365568 801.5 673 Z" stroke-miterlimit="10"/></g><g transform="translate(5,5) scale(1,1)"><path fill="none" stroke="#000000" d="M 801.5 689 L 833.5 689" stroke-miterlimit="10"/></g><g transform="translate(5,5) scale(1,1)"><g><path fill="none" stroke="none"/><text fill="#000000" stroke="none" font-family="Arial" font-size="13px" font-style="normal" font-weight="bold" text-decoration="none" x="767.5" y="712.5">session: Session</text></g></g><g transform="translate(5,5) scale(1,1)"><path fill="none" stroke="#000000" d="M 818.5 718 L 818.5 856" stroke-miterlimit="10" stroke-dasharray="3"/></g><g transform="translate(5,5) scale(1,1)"><path fill="none" stroke="#000000" d="M 50 232 L 223 232" stroke-miterlimit="10"/></g><g transform="translate(5,5) scale(1,1)"><path fill="#000000" stroke="none" d="M 212.83732514237585 236.209517756016 L 223 232 L 212.83732514237585 227.790482243984"/></g><g transform="translate(5,5) scale(1,1)"><path fill="none" stroke="#000000" d="M 212.83732514237585 236.209517756016 L 223 232 L 212.83732514237585 227.790482243984 L 212.83732514237585 236.209517756016" stroke-miterlimit="10"/></g><g transform="translate(5,5) scale(1,1)"><g><path fill="none" stroke="none"/><text fill="#000000" stroke="none" font-family="Arial" font-size="13px" font-style="normal" font-weight="normal" text-decoration="none" x="53.5" y="228.5">1 : selectSessionToUpdate()</text></g></g><g transform="translate(5,5) scale(1,1)"><rect fill="#ffffff" stroke="none" x="223" y="232" width="13" height="28"/></g><g transform="translate(5,5) scale(1,1)"><path fill="none" stroke="#000000" d="M 223 232 L 236 232 L 236 260 L 223 260 L 223 232 Z Z" stroke-miterlimit="10"/></g><g transform="translate(5,5) scale(1,1)"><path fill="none" stroke="#000000" d="M 230 272 L 511 272" stroke-miterlimit="10"/></g><g transform="translate(5,5) scale(1,1)"><path fill="#000000" stroke="none" d="M 500.83732514237585 276.209517756016 L 511 272 L 500.83732514237585 267.790482243984"/></g><g transform="translate(5,5) scale(1,1)"><path fill="none" stroke="#000000" d="M 500.83732514237585 276.209517756016 L 511 272 L 500.83732514237585 267.790482243984 L 500.83732514237585 276.209517756016" stroke-miterlimit="10"/></g><g transform="translate(5,5) scale(1,1)"><g><path fill="none" stroke="none"/><text fill="#000000" stroke="none" font-family="Arial" font-size="13px" font-style="normal" font-weight="normal" text-decoration="none" x="291.5" y="268.5">2 : displayForm(sessionID)</text></g></g><g transform="translate(5,5) scale(1,1)"><rect fill="#ffffff" stroke="none" x="511" y="272" width="13" height="28"/></g><g transform="translate(5,5) scale(1,1)"><path fill="none" stroke="#000000" d="M 511 272 L 524 272 L 524 300 L 511 300 L 511 272 Z Z" stroke-miterlimit="10"/></g><g transform="translate(5,5) scale(1,1)"><path fill="none" stroke="#000000" d="M 50 400 L 322 400" stroke-miterlimit="10"/></g><g transform="translate(5,5) scale(1,1)"><path fill="#000000" stroke="none" d="M 311.83732514237585 404.209517756016 L 322 400 L 311.83732514237585 395.790482243984"/></g><g transform="translate(5,5) scale(1,1)"><path fill="none" stroke="#000000" d="M 311.83732514237585 404.209517756016 L 322 400 L 311.83732514237585 395.790482243984 L 311.83732514237585 404.209517756016" stroke-miterlimit="10"/></g><g transform="translate(5,5) scale(1,1)"><g><path fill="none" stroke="none"/><text fill="#000000" stroke="none" font-family="Arial" font-size="13px" font-style="normal" font-weight="normal" text-decoration="none" x="100.5" y="396.5">3 : updateSession(sessionID)</text></g></g><g transform="translate(5,5) scale(1,1)"><rect fill="#ffffff" stroke="none" x="322" y="400" width="13" height="28"/></g><g transform="translate(5,5) scale(1,1)"><path fill="none" stroke="#000000" d="M 322 400 L 335 400 L 335 428 L 322 428 L 322 400 Z Z" stroke-miterlimit="10"/></g><g transform="translate(5,5) scale(1,1)"><path fill="none" stroke="#000000" d="M 329 448 L 511 448" stroke-miterlimit="10"/></g><g transform="translate(5,5) scale(1,1)"><path fill="#000000" stroke="none" d="M 500.83732514237585 452.209517756016 L 511 448 L 500.83732514237585 443.790482243984"/></g><g transform="translate(5,5) scale(1,1)"><path fill="none" stroke="#000000" d="M 500.83732514237585 452.209517756016 L 511 448 L 500.83732514237585 443.790482243984 L 500.83732514237585 452.209517756016" stroke-miterlimit="10"/></g><g transform="translate(5,5) scale(1,1)"><g><path fill="none" stroke="none"/><text fill="#000000" stroke="none" font-family="Arial" font-size="13px" font-style="normal" font-weight="normal" text-decoration="none" x="341.5" y="444.5">4 : displayForm(sessionID)</text></g></g><g transform="translate(5,5) scale(1,1)"><rect fill="#ffffff" stroke="none" x="511" y="448" width="13" height="28"/></g><g transform="translate(5,5) scale(1,1)"><path fill="none" stroke="#000000" d="M 511 448 L 524 448 L 524 476 L 511 476 L 511 448 Z Z" stroke-miterlimit="10"/></g><g transform="translate(5,5) scale(1,1)"><rect fill="#ffffff" stroke="none" x="40" y="152" width="1000" height="49"/></g><g transform="translate(5,5) scale(1,1)"><path fill="none" stroke="#000000" d="M 40 152 L 1040 152 L 1040 201 L 40 201 L 40 152 Z Z" stroke-miterlimit="10"/></g><g transform="translate(5,5) scale(1,1)"><path fill="none" stroke="#000000" d="M 40 152 L 40 174 L 65 174 L 76 163 L 76 152 L 40 152 L 40 152" stroke-miterlimit="10"/></g><g transform="translate(5,5) scale(1,1)"><g><path fill="none" stroke="none"/><text fill="#000000" stroke="none" font-family="Arial" font-size="13px" font-style="normal" font-weight="normal" text-decoration="none" x="482" y="183">Search for sessions</text></g></g><g transform="translate(5,5) scale(1,1)"><g><path fill="none" stroke="none"/><text fill="#000000" stroke="none" font-family="Arial" font-size="13px" font-style="normal" font-weight="normal" text-decoration="none" x="45" y="169.5">ref</text></g></g><g transform="translate(5,5) scale(1,1)"><rect fill="#ffffff" stroke="none" x="40" y="328" width="1000" height="49"/></g><g transform="translate(5,5) scale(1,1)"><path fill="none" stroke="#000000" d="M 40 328 L 1040 328 L 1040 377 L 40 377 L 40 328 Z Z" stroke-miterlimit="10"/></g><g transform="translate(5,5) scale(1,1)"><path fill="none" stroke="#000000" d="M 40 328 L 40 350 L 65 350 L 76 339 L 76 328 L 40 328 L 40 328" stroke-miterlimit="10"/></g><g transform="translate(5,5) scale(1,1)"><g><path fill="none" stroke="none"/><text fill="#000000" stroke="none" font-family="Arial" font-size="13px" font-style="normal" font-weight="normal" text-decoration="none" x="496" y="359">View a session</text></g></g><g transform="translate(5,5) scale(1,1)"><g><path fill="none" stroke="none"/><text fill="#000000" stroke="none" font-family="Arial" font-size="13px" font-style="normal" font-weight="normal" text-decoration="none" x="45" y="345.5">ref</text></g></g><g transform="translate(5,5) scale(1,1)"><path fill="none" stroke="#000000" d="M 50 544 L 511 544" stroke-miterlimit="10"/></g><g transform="translate(5,5) scale(1,1)"><path fill="#000000" stroke="none" d="M 500.83732514237585 548.209517756016 L 511 544 L 500.83732514237585 539.790482243984"/></g><g transform="translate(5,5) scale(1,1)"><path fill="none" stroke="#000000" d="M 500.83732514237585 548.209517756016 L 511 544 L 500.83732514237585 539.790482243984 L 500.83732514237585 548.209517756016" stroke-miterlimit="10"/></g><g transform="translate(5,5) scale(1,1)"><g><path fill="none" stroke="none"/><text fill="#000000" stroke="none" font-family="Arial" font-size="13px" font-style="normal" font-weight="normal" text-decoration="none" x="219.5" y="540.5">6 : enterDescription()</text></g></g><g transform="translate(5,5) scale(1,1)"><rect fill="#ffffff" stroke="none" x="511" y="544" width="13" height="28"/></g><g transform="translate(5,5) scale(1,1)"><path fill="none" stroke="#000000" d="M 511 544 L 524 544 L 524 572 L 511 572 L 511 544 Z Z" stroke-miterlimit="10"/></g><g transform="translate(5,5) scale(1,1)"><path fill="none" stroke="#000000" d="M 50 576 L 511 576" stroke-miterlimit="10"/></g><g transform="translate(5,5) scale(1,1)"><path fill="#000000" stroke="none" d="M 500.83732514237585 580.209517756016 L 511 576 L 500.83732514237585 571.790482243984"/></g><g transform="translate(5,5) scale(1,1)"><path fill="none" stroke="#000000" d="M 500.83732514237585 580.209517756016 L 511 576 L 500.83732514237585 571.790482243984 L 500.83732514237585 580.209517756016" stroke-miterlimit="10"/></g><g transform="translate(5,5) scale(1,1)"><g><path fill="none" stroke="none"/><text fill="#000000" stroke="none" font-family="Arial" font-size="13px" font-style="normal" font-weight="normal" text-decoration="none" x="231.5" y="572.5">7 : enterTempo()</text></g></g><g transform="translate(5,5) scale(1,1)"><rect fill="#ffffff" stroke="none" x="511" y="576" width="13" height="28"/></g><g transform="translate(5,5) scale(1,1)"><path fill="none" stroke="#000000" d="M 511 576 L 524 576 L 524 604 L 511 604 L 511 576 Z Z" stroke-miterlimit="10"/></g><g transform="translate(5,5) scale(1,1)"><path fill="none" stroke="#000000" d="M 50 512 L 511 512" stroke-miterlimit="10"/></g><g transform="translate(5,5) scale(1,1)"><path fill="#000000" stroke="none" d="M 500.83732514237585 516.209517756016 L 511 512 L 500.83732514237585 507.790482243984"/></g><g transform="translate(5,5) scale(1,1)"><path fill="none" stroke="#000000" d="M 500.83732514237585 516.209517756016 L 511 512 L 500.83732514237585 507.790482243984 L 500.83732514237585 516.209517756016" stroke-miterlimit="10"/></g><g transform="translate(5,5) scale(1,1)"><g><path fill="none" stroke="none"/><text fill="#000000" stroke="none" font-family="Arial" font-size="13px" font-style="normal" font-weight="normal" text-decoration="none" x="236.5" y="508.5">5 : enterLabel()</text></g></g><g transform="translate(5,5) scale(1,1)"><rect fill="#ffffff" stroke="none" x="511" y="512" width="13" height="28"/></g><g transform="translate(5,5) scale(1,1)"><path fill="none" stroke="#000000" d="M 511 512 L 524 512 L 524 540 L 511 540 L 511 512 Z Z" stroke-miterlimit="10"/></g><g transform="translate(5,5) scale(1,1)"><path fill="none" stroke="#000000" d="M 50 616 L 511 616" stroke-miterlimit="10"/></g><g transform="translate(5,5) scale(1,1)"><path fill="#000000" stroke="none" d="M 500.83732514237585 620.209517756016 L 511 616 L 500.83732514237585 611.790482243984"/></g><g transform="translate(5,5) scale(1,1)"><path fill="none" stroke="#000000" d="M 500.83732514237585 620.209517756016 L 511 616 L 500.83732514237585 611.790482243984 L 500.83732514237585 620.209517756016" stroke-miterlimit="10"/></g><g transform="translate(5,5) scale(1,1)"><g><path fill="none" stroke="none"/><text fill="#000000" stroke="none" font-family="Arial" font-size="13px" font-style="normal" font-weight="normal" text-decoration="none" x="231.5" y="612.5">8 : submitForm()</text></g></g><g transform="translate(5,5) scale(1,1)"><rect fill="#ffffff" stroke="none" x="511" y="616" width="13" height="28"/></g><g transform="translate(5,5) scale(1,1)"><path fill="none" stroke="#000000" d="M 511 616 L 524 616 L 524 644 L 511 644 L 511 616 Z Z" stroke-miterlimit="10"/></g><g transform="translate(5,5) scale(1,1)"><path fill="none" stroke="#000000" d="M 524 640 L 730 640" stroke-miterlimit="10"/></g><g transform="translate(5,5) scale(1,1)"><path fill="#000000" stroke="none" d="M 719.8373251423759 644.209517756016 L 730 640 L 719.8373251423758 635.790482243984"/></g><g transform="translate(5,5) scale(1,1)"><path fill="none" stroke="#000000" d="M 719.8373251423759 644.209517756016 L 730 640 L 719.8373251423758 635.790482243984 L 719.8373251423759 644.209517756016" stroke-miterlimit="10"/></g><g transform="translate(5,5) scale(1,1)"><g><path fill="none" stroke="none"/><text fill="#000000" stroke="none" font-family="Arial" font-size="13px" font-style="normal" font-weight="normal" text-decoration="none" x="530" y="636.5">9 : updateSession(sessionID: int)</text></g></g><g transform="translate(5,5) scale(1,1)"><rect fill="#ffffff" stroke="none" x="730" y="640" width="13" height="144"/></g><g transform="translate(5,5) scale(1,1)"><path fill="none" stroke="#000000" d="M 730 640 L 743 640 L 743 784 L 730 784 L 730 640 Z Z" stroke-miterlimit="10"/></g><g transform="translate(5,5) scale(1,1)"><path fill="none" stroke="#000000" d="M 743 648 L 998 648" stroke-miterlimit="10"/></g><g transform="translate(5,5) scale(1,1)"><path fill="#000000" stroke="none" d="M 987.8373251423759 652.209517756016 L 998 648 L 987.8373251423758 643.790482243984"/></g><g transform="translate(5,5) scale(1,1)"><path fill="none" stroke="#000000" d="M 987.8373251423759 652.209517756016 L 998 648 L 987.8373251423758 643.790482243984 L 987.8373251423759 652.209517756016" stroke-miterlimit="10"/></g><g transform="translate(5,5) scale(1,1)"><g><path fill="none" stroke="none"/><text fill="#000000" stroke="none" font-family="Arial" font-size="13px" font-style="normal" font-weight="normal" text-decoration="none" x="826.5" y="644.5">10 : find(id: int)</text></g></g><g transform="translate(5,5) scale(1,1)"><rect fill="#ffffff" stroke="none" x="998" y="648" width="13" height="88"/></g><g transform="translate(5,5) scale(1,1)"><path fill="none" stroke="#000000" d="M 998 648 L 1011 648 L 1011 736 L 998 736 L 998 648 Z Z" stroke-miterlimit="10"/></g><g transform="translate(5,5) scale(1,1)"><path fill="none" stroke="#000000" d="M 998 673 L 818 673" stroke-miterlimit="10" stroke-dasharray="3"/></g><g transform="translate(5,5) scale(1,1)"><path fill="none" stroke="#000000" d="M 828.1626748576241 668.790482243984 L 818 673 L 828.1626748576241 677.209517756016" stroke-miterlimit="10"/></g><g transform="translate(5,5) scale(1,1)"><g><path fill="none" stroke="none"/><text fill="#000000" stroke="none" font-family="Arial" font-size="13px" font-style="normal" font-weight="normal" text-decoration="none" x="882.5" y="689.5">11 : new</text></g></g><g transform="translate(5,5) scale(1,1)"><g><path fill="none" stroke="none"/><text fill="#000000" stroke="none" font-family="Arial" font-size="13px" font-style="normal" font-weight="normal" text-decoration="none" x="881.5" y="704.5">«create»</text></g></g><g transform="translate(5,5) scale(1,1)"><path fill="none" stroke="#000000" d="M 998 728 L 743 728" stroke-miterlimit="10" stroke-dasharray="3"/></g><g transform="translate(5,5) scale(1,1)"><path fill="none" stroke="#000000" d="M 753.1626748576241 723.790482243984 L 743 728 L 753.1626748576241 732.209517756016" stroke-miterlimit="10"/></g><g transform="translate(5,5) scale(1,1)"><g><path fill="none" stroke="none"/><text fill="#000000" stroke="none" font-family="Arial" font-size="13px" font-style="normal" font-weight="normal" text-decoration="none" x="833.5" y="744.5">12 : session</text></g></g><g transform="translate(5,5) scale(1,1)"><path fill="none" stroke="#000000" d="M 743 776 L 998 776" stroke-miterlimit="10"/></g><g transform="translate(5,5) scale(1,1)"><path fill="#000000" stroke="none" d="M 987.8373251423759 780.209517756016 L 998 776 L 987.8373251423758 771.790482243984"/></g><g transform="translate(5,5) scale(1,1)"><path fill="none" stroke="#000000" d="M 987.8373251423759 780.209517756016 L 998 776 L 987.8373251423758 771.790482243984 L 987.8373251423759 780.209517756016" stroke-miterlimit="10"/></g><g transform="translate(5,5) scale(1,1)"><g><path fill="none" stroke="none"/><text fill="#000000" stroke="none" font-family="Arial" font-size="13px" font-style="normal" font-weight="normal" text-decoration="none" x="783.5" y="772.5">13 : update(session: Session)</text></g></g><g transform="translate(5,5) scale(1,1)"><rect fill="#ffffff" stroke="none" x="998" y="776" width="13" height="28"/></g><g transform="translate(5,5) scale(1,1)"><path fill="none" stroke="#000000" d="M 998 776 L 1011 776 L 1011 804 L 998 804 L 998 776 Z Z" stroke-miterlimit="10"/></g><g transform="translate(5,5) scale(1,1)"><path fill="none" stroke="#000000" d="M 518 800 L 335 800" stroke-miterlimit="10"/></g><g transform="translate(5,5) scale(1,1)"><path fill="#000000" stroke="none" d="M 345.16267485762415 795.790482243984 L 335 800 L 345.16267485762415 804.209517756016"/></g><g transform="translate(5,5) scale(1,1)"><path fill="none" stroke="#000000" d="M 345.16267485762415 795.790482243984 L 335 800 L 345.16267485762415 804.209517756016 L 345.16267485762415 795.790482243984" stroke-miterlimit="10"/></g><g transform="translate(5,5) scale(1,1)"><g><path fill="none" stroke="none"/><text fill="#000000" stroke="none" font-family="Arial" font-size="13px" font-style="normal" font-weight="normal" text-decoration="none" x="342.5" y="816.5">14 : viewSession(sessionID)</text></g></g><g transform="translate(5,5) scale(1,1)"><rect fill="#ffffff" stroke="none" x="322" y="800" width="13" height="28"/></g><g transform="translate(5,5) scale(1,1)"><path fill="none" stroke="#000000" d="M 322 800 L 335 800 L 335 828 L 322 828 L 322 800 Z Z" stroke-miterlimit="10"/></g></g></svg>