<svg version="1.1" xmlns="http://www.w3.org/2000/svg" xmlns:xlink="http://www.w3.org/1999/xlink" width="634" height="415"><defs/><g><g transform="translate(-5,-3) scale(1,1)"><rect fill="#C0C0C0" stroke="none" x="22" y="20" width="293" height="184" opacity="0.2"/></g><g transform="translate(-5,-3) scale(1,1)"><rect fill="#ffffff" stroke="none" x="15" y="13" width="293" height="184"/></g><g transform="translate(-5,-3) scale(1,1)"><path fill="none" stroke="#000000" d="M 15 13 L 308 13 L 308 197 L 15 197 L 15 13 Z Z" stroke-miterlimit="10"/></g><g transform="translate(-5,-3) scale(1,1)"><path fill="none" stroke="#000000" d="M 15 51 L 308 51" stroke-miterlimit="10"/></g><g transform="translate(-5,-3) scale(1,1)"><path fill="none" stroke="#000000" d="M 15 61 L 308 61" stroke-miterlimit="10"/></g><g transform="translate(-5,-3) scale(1,1)"><g><path fill="none" stroke="none"/><text fill="#000000" stroke="none" font-family="Arial" font-size="13px" font-style="normal" font-weight="normal" text-decoration="none" x="128" y="30.5">«boundary»</text></g></g><g transform="translate(-5,-3) scale(1,1)"><g><path fill="none" stroke="none"/><text fill="#000000" stroke="none" font-family="Arial" font-size="13px" font-style="normal" font-weight="bold" text-decoration="none" x="110.5" y="45.5">SessionController</text></g></g><g transform="translate(-5,-3) scale(1,1)"><g><path fill="none" stroke="none"/><text fill="#000000" stroke="none" font-family="Arial" font-size="13px" font-style="normal" font-weight="normal" text-decoration="none" x="20" y="78.5">+postSessionAction(request: Request)</text></g></g><g transform="translate(-5,-3) scale(1,1)"><g><path fill="none" stroke="none"/><text fill="#000000" stroke="none" font-family="Arial" font-size="13px" font-style="normal" font-weight="normal" text-decoration="none" x="20" y="93.5">+getSessionAction(request: Request)</text></g></g><g transform="translate(-5,-3) scale(1,1)"><g><path fill="none" stroke="none"/><text fill="#000000" stroke="none" font-family="Arial" font-size="13px" font-style="normal" font-weight="normal" text-decoration="none" x="20" y="108.5">+getSessionsAction(request: Request)</text></g></g><g transform="translate(-5,-3) scale(1,1)"><g><path fill="none" stroke="none"/><text fill="#000000" stroke="none" font-family="Arial" font-size="13px" font-style="normal" font-weight="normal" text-decoration="none" x="20" y="123.5">+postTrackAction(request: Request)</text></g></g><g transform="translate(-5,-3) scale(1,1)"><g><path fill="none" stroke="none"/><text fill="#000000" stroke="none" font-family="Arial" font-size="13px" font-style="normal" font-weight="normal" text-decoration="none" x="20" y="138.5">+createForm(dto: SessionDTO)</text></g></g><g transform="translate(-5,-3) scale(1,1)"><g><path fill="none" stroke="none"/><text fill="#000000" stroke="none" font-family="Arial" font-size="13px" font-style="normal" font-weight="normal" text-decoration="none" x="20" y="153.5">+createSearchForm(dto: SessionSearchDTO)</text></g></g><g transform="translate(-5,-3) scale(1,1)"><g><path fill="none" stroke="none"/><text fill="#000000" stroke="none" font-family="Arial" font-size="13px" font-style="normal" font-weight="normal" text-decoration="none" x="20" y="168.5">+renderToJson(domainObject: object): Response</text></g></g><g transform="translate(-5,-3) scale(1,1)"><rect fill="#C0C0C0" stroke="none" x="343" y="23" width="293" height="184" opacity="0.2"/></g><g transform="translate(-5,-3) scale(1,1)"><rect fill="#ffffff" stroke="none" x="336" y="16" width="293" height="184"/></g><g transform="translate(-5,-3) scale(1,1)"><path fill="none" stroke="#000000" d="M 336 16 L 629 16 L 629 200 L 336 200 L 336 16 Z Z" stroke-miterlimit="10"/></g><g transform="translate(-5,-3) scale(1,1)"><path fill="none" stroke="#000000" d="M 336 54 L 629 54" stroke-miterlimit="10"/></g><g transform="translate(-5,-3) scale(1,1)"><path fill="none" stroke="#000000" d="M 336 64 L 629 64" stroke-miterlimit="10"/></g><g transform="translate(-5,-3) scale(1,1)"><g><path fill="none" stroke="none"/><text fill="#000000" stroke="none" font-family="Arial" font-size="13px" font-style="normal" font-weight="normal" text-decoration="none" x="449" y="33.5">«boundary»</text></g></g><g transform="translate(-5,-3) scale(1,1)"><g><path fill="none" stroke="none"/><text fill="#000000" stroke="none" font-family="Arial" font-size="13px" font-style="normal" font-weight="bold" text-decoration="none" x="424" y="48.5">InstrumentController</text></g></g><g transform="translate(-5,-3) scale(1,1)"><g><path fill="none" stroke="none"/><text fill="#000000" stroke="none" font-family="Arial" font-size="13px" font-style="normal" font-weight="normal" text-decoration="none" x="341" y="81.5">+getInstrumentsAction(request: Request)</text></g></g><g transform="translate(-5,-3) scale(1,1)"><g><path fill="none" stroke="none"/><text fill="#000000" stroke="none" font-family="Arial" font-size="13px" font-style="normal" font-weight="normal" text-decoration="none" x="341" y="96.5">+renderToJson(domainObject: object): Response</text></g></g><g transform="translate(-5,-3) scale(1,1)"><rect fill="#C0C0C0" stroke="none" x="23" y="231" width="293" height="184" opacity="0.2"/></g><g transform="translate(-5,-3) scale(1,1)"><rect fill="#ffffff" stroke="none" x="16" y="224" width="293" height="184"/></g><g transform="translate(-5,-3) scale(1,1)"><path fill="none" stroke="#000000" d="M 16 224 L 309 224 L 309 408 L 16 408 L 16 224 Z Z" stroke-miterlimit="10"/></g><g transform="translate(-5,-3) scale(1,1)"><path fill="none" stroke="#000000" d="M 16 262 L 309 262" stroke-miterlimit="10"/></g><g transform="translate(-5,-3) scale(1,1)"><path fill="none" stroke="#000000" d="M 16 272 L 309 272" stroke-miterlimit="10"/></g><g transform="translate(-5,-3) scale(1,1)"><g><path fill="none" stroke="none"/><text fill="#000000" stroke="none" font-family="Arial" font-size="13px" font-style="normal" font-weight="normal" text-decoration="none" x="129" y="241.5">«boundary»</text></g></g><g transform="translate(-5,-3) scale(1,1)"><g><path fill="none" stroke="none"/><text fill="#000000" stroke="none" font-family="Arial" font-size="13px" font-style="normal" font-weight="bold" text-decoration="none" x="111" y="256.5">SecurityController</text></g></g><g transform="translate(-5,-3) scale(1,1)"><g><path fill="none" stroke="none"/><text fill="#000000" stroke="none" font-family="Arial" font-size="13px" font-style="normal" font-weight="normal" text-decoration="none" x="21" y="289.5">+loginAction(request: Request)</text></g></g><g transform="translate(-5,-3) scale(1,1)"><g><path fill="none" stroke="none"/><text fill="#000000" stroke="none" font-family="Arial" font-size="13px" font-style="normal" font-weight="normal" text-decoration="none" x="21" y="304.5">+renderToJson(domainObject: object): Response</text></g></g><g transform="translate(-5,-3) scale(1,1)"><rect fill="#C0C0C0" stroke="none" x="343" y="231" width="293" height="184" opacity="0.2"/></g><g transform="translate(-5,-3) scale(1,1)"><rect fill="#ffffff" stroke="none" x="336" y="224" width="293" height="184"/></g><g transform="translate(-5,-3) scale(1,1)"><path fill="none" stroke="#000000" d="M 336 224 L 629 224 L 629 408 L 336 408 L 336 224 Z Z" stroke-miterlimit="10"/></g><g transform="translate(-5,-3) scale(1,1)"><path fill="none" stroke="#000000" d="M 336 262 L 629 262" stroke-miterlimit="10"/></g><g transform="translate(-5,-3) scale(1,1)"><path fill="none" stroke="#000000" d="M 336 272 L 629 272" stroke-miterlimit="10"/></g><g transform="translate(-5,-3) scale(1,1)"><g><path fill="none" stroke="none"/><text fill="#000000" stroke="none" font-family="Arial" font-size="13px" font-style="normal" font-weight="normal" text-decoration="none" x="449" y="241.5">«boundary»</text></g></g><g transform="translate(-5,-3) scale(1,1)"><g><path fill="none" stroke="none"/><text fill="#000000" stroke="none" font-family="Arial" font-size="13px" font-style="normal" font-weight="bold" text-decoration="none" x="431.5" y="256.5">JammerController</text></g></g><g transform="translate(-5,-3) scale(1,1)"><g><path fill="none" stroke="none"/><text fill="#000000" stroke="none" font-family="Arial" font-size="13px" font-style="normal" font-weight="normal" text-decoration="none" x="341" y="289.5">+postJammerAction(request Request)</text></g></g><g transform="translate(-5,-3) scale(1,1)"><g><path fill="none" stroke="none"/><text fill="#000000" stroke="none" font-family="Arial" font-size="13px" font-style="normal" font-weight="normal" text-decoration="none" x="341" y="304.5">+patchJammerAction(request Request)</text></g></g><g transform="translate(-5,-3) scale(1,1)"><g><path fill="none" stroke="none"/><text fill="#000000" stroke="none" font-family="Arial" font-size="13px" font-style="normal" font-weight="normal" text-decoration="none" x="341" y="319.5">+renderToJson(domainObject: object): Response</text></g></g></g></svg>