<svg version="1.1" xmlns="http://www.w3.org/2000/svg" xmlns:xlink="http://www.w3.org/1999/xlink" width="598" height="198"><defs/><g><g transform="translate(-5,-3) scale(1,1)"><rect fill="#C0C0C0" stroke="none" x="22" y="20" width="273" height="175" opacity="0.2"/></g><g transform="translate(-5,-3) scale(1,1)"><rect fill="#ffffff" stroke="none" x="15" y="13" width="273" height="175"/></g><g transform="translate(-5,-3) scale(1,1)"><path fill="none" stroke="#000000" d="M 15 13 L 288 13 L 288 188 L 15 188 L 15 13 Z Z" stroke-miterlimit="10"/></g><g transform="translate(-5,-3) scale(1,1)"><path fill="none" stroke="#000000" d="M 15 51 L 288 51" stroke-miterlimit="10"/></g><g transform="translate(-5,-3) scale(1,1)"><path fill="none" stroke="#000000" d="M 15 61 L 288 61" stroke-miterlimit="10"/></g><g transform="translate(-5,-3) scale(1,1)"><g><path fill="none" stroke="none"/><text fill="#000000" stroke="none" font-family="Arial" font-size="13px" font-style="normal" font-weight="normal" text-decoration="none" x="118" y="30.5">«boundary»</text></g></g><g transform="translate(-5,-3) scale(1,1)"><g><path fill="none" stroke="none"/><text fill="#000000" stroke="none" font-family="Arial" font-size="13px" font-style="normal" font-weight="bold" text-decoration="none" x="100.5" y="45.5">SessionController</text></g></g><g transform="translate(-5,-3) scale(1,1)"><g><path fill="none" stroke="none"/><text fill="#000000" stroke="none" font-family="Arial" font-size="13px" font-style="normal" font-weight="normal" text-decoration="none" x="20" y="78.5">+postSessionAction(request: Request)</text></g></g><g transform="translate(-5,-3) scale(1,1)"><g><path fill="none" stroke="none"/><text fill="#000000" stroke="none" font-family="Arial" font-size="13px" font-style="normal" font-weight="normal" text-decoration="none" x="20" y="93.5">+getSessionAction(request: Request)</text></g></g><g transform="translate(-5,-3) scale(1,1)"><g><path fill="none" stroke="none"/><text fill="#000000" stroke="none" font-family="Arial" font-size="13px" font-style="normal" font-weight="normal" text-decoration="none" x="20" y="108.5">+getSessionsAction(request: Request)</text></g></g><g transform="translate(-5,-3) scale(1,1)"><g><path fill="none" stroke="none"/><text fill="#000000" stroke="none" font-family="Arial" font-size="13px" font-style="normal" font-weight="normal" text-decoration="none" x="20" y="123.5">+postTrackAction(request: Request)</text></g></g><g transform="translate(-5,-3) scale(1,1)"><g><path fill="none" stroke="none"/><text fill="#000000" stroke="none" font-family="Arial" font-size="13px" font-style="normal" font-weight="normal" text-decoration="none" x="20" y="138.5">+createForm(dto: SessionDTO)</text></g></g><g transform="translate(-5,-3) scale(1,1)"><g><path fill="none" stroke="none"/><text fill="#000000" stroke="none" font-family="Arial" font-size="13px" font-style="normal" font-weight="normal" text-decoration="none" x="20" y="153.5">+createSearchForm(dto: SessionSearchDTO)</text></g></g><g transform="translate(-5,-3) scale(1,1)"><g><path fill="none" stroke="none"/><text fill="#000000" stroke="none" font-family="Arial" font-size="13px" font-style="normal" font-weight="normal" text-decoration="none" x="20" y="168.5">+renderToJson(domainObject: object)</text></g></g><g transform="translate(-5,-3) scale(1,1)"><rect fill="#C0C0C0" stroke="none" x="327" y="23" width="273" height="175" opacity="0.2"/></g><g transform="translate(-5,-3) scale(1,1)"><rect fill="#ffffff" stroke="none" x="320" y="16" width="273" height="175"/></g><g transform="translate(-5,-3) scale(1,1)"><path fill="none" stroke="#000000" d="M 320 16 L 593 16 L 593 191 L 320 191 L 320 16 Z Z" stroke-miterlimit="10"/></g><g transform="translate(-5,-3) scale(1,1)"><path fill="none" stroke="#000000" d="M 320 54 L 593 54" stroke-miterlimit="10"/></g><g transform="translate(-5,-3) scale(1,1)"><path fill="none" stroke="#000000" d="M 320 64 L 593 64" stroke-miterlimit="10"/></g><g transform="translate(-5,-3) scale(1,1)"><g><path fill="none" stroke="none"/><text fill="#000000" stroke="none" font-family="Arial" font-size="13px" font-style="normal" font-weight="normal" text-decoration="none" x="423" y="33.5">«boundary»</text></g></g><g transform="translate(-5,-3) scale(1,1)"><g><path fill="none" stroke="none"/><text fill="#000000" stroke="none" font-family="Arial" font-size="13px" font-style="normal" font-weight="bold" text-decoration="none" x="398" y="48.5">InstrumentController</text></g></g><g transform="translate(-5,-3) scale(1,1)"><g><path fill="none" stroke="none"/><text fill="#000000" stroke="none" font-family="Arial" font-size="13px" font-style="normal" font-weight="normal" text-decoration="none" x="325" y="81.5">+getInstrumentsAction(request: Request)</text></g></g><g transform="translate(-5,-3) scale(1,1)"><g><path fill="none" stroke="none"/><text fill="#000000" stroke="none" font-family="Arial" font-size="13px" font-style="normal" font-weight="normal" text-decoration="none" x="325" y="96.5">+renderToJson(domainObject: object)</text></g></g></g></svg>