<svg version="1.1" xmlns="http://www.w3.org/2000/svg" xmlns:xlink="http://www.w3.org/1999/xlink" width="707" height="508"><defs/><g><g transform="translate(-39,-22) scale(1,1)"><rect fill="#C0C0C0" stroke="none" x="167" y="39" width="576" height="488" opacity="0.2"/></g><g transform="translate(-39,-22) scale(1,1)"><rect fill="#ffffff" stroke="none" x="160" y="32" width="576" height="488"/></g><g transform="translate(-39,-22) scale(1,1)"><path fill="none" stroke="#000000" d="M 160 32 L 736 32 L 736 520 L 160 520 L 160 32 Z Z" stroke-miterlimit="10"/></g><g transform="translate(-39,-22) scale(1,1)"><g><path fill="none" stroke="none"/><text fill="#000000" stroke="none" font-family="Arial" font-size="13px" font-style="normal" font-weight="bold" text-decoration="none" x="397" y="51.5">Manage sessions</text></g></g><g transform="translate(-39,-22) scale(1,1)"><path fill="#ffffff" stroke="none" d="M 72.32072727272727 106.68 C 72.32072727272727 101.886167936 76.20656959767273 98 81 98 C 85.79343040232727 98 89.67927272727273 101.886167936 89.67927272727273 106.68 C 89.67927272727273 111.473832064 85.79343040232727 115.36 81 115.36 C 76.20656959767273 115.36 72.32072727272727 111.473832064 72.32072727272727 106.68 Z"/></g><g transform="translate(-39,-22) scale(1,1)"><path fill="none" stroke="#000000" d="M 72.32072727272727 106.68 C 72.32072727272727 101.886167936 76.20656959767273 98 81 98 C 85.79343040232727 98 89.67927272727273 101.886167936 89.67927272727273 106.68 C 89.67927272727273 111.473832064 85.79343040232727 115.36 81 115.36 C 76.20656959767273 115.36 72.32072727272727 111.473832064 72.32072727272727 106.68 Z" stroke-miterlimit="10"/></g><g transform="translate(-39,-22) scale(1,1)"><path fill="none" stroke="#000000" d="M 81 115.36 L 81 132.64" stroke-miterlimit="10"/></g><g transform="translate(-39,-22) scale(1,1)"><path fill="none" stroke="#000000" d="M 71.81018181818182 121.84 L 90.18981818181818 121.84" stroke-miterlimit="10"/></g><g transform="translate(-39,-22) scale(1,1)"><path fill="none" stroke="#000000" d="M 81 132.64 L 68.23636363636363 150" stroke-miterlimit="10"/></g><g transform="translate(-39,-22) scale(1,1)"><path fill="none" stroke="#000000" d="M 81 132.64 L 93.76363636363637 150" stroke-miterlimit="10"/></g><g transform="translate(-39,-22) scale(1,1)"><g><path fill="none" stroke="none"/><text fill="#000000" stroke="none" font-family="Arial" font-size="13px" font-style="normal" font-weight="bold" text-decoration="none" x="54.5" y="170.5">WebUser</text></g></g><g transform="translate(-39,-22) scale(1,1)"><path fill="#ffffff" stroke="none" d="M 72.82072727272727 377.68 C 72.82072727272727 372.886167936 76.70656959767273 369 81.5 369 C 86.29343040232727 369 90.17927272727273 372.886167936 90.17927272727273 377.68 C 90.17927272727273 382.473832064 86.29343040232727 386.36 81.5 386.36 C 76.70656959767273 386.36 72.82072727272727 382.473832064 72.82072727272727 377.68 Z"/></g><g transform="translate(-39,-22) scale(1,1)"><path fill="none" stroke="#000000" d="M 72.82072727272727 377.68 C 72.82072727272727 372.886167936 76.70656959767273 369 81.5 369 C 86.29343040232727 369 90.17927272727273 372.886167936 90.17927272727273 377.68 C 90.17927272727273 382.473832064 86.29343040232727 386.36 81.5 386.36 C 76.70656959767273 386.36 72.82072727272727 382.473832064 72.82072727272727 377.68 Z" stroke-miterlimit="10"/></g><g transform="translate(-39,-22) scale(1,1)"><path fill="none" stroke="#000000" d="M 81.5 386.36 L 81.5 403.64" stroke-miterlimit="10"/></g><g transform="translate(-39,-22) scale(1,1)"><path fill="none" stroke="#000000" d="M 72.31018181818182 392.84 L 90.68981818181818 392.84" stroke-miterlimit="10"/></g><g transform="translate(-39,-22) scale(1,1)"><path fill="none" stroke="#000000" d="M 81.5 403.64 L 68.73636363636363 421" stroke-miterlimit="10"/></g><g transform="translate(-39,-22) scale(1,1)"><path fill="none" stroke="#000000" d="M 81.5 403.64 L 94.26363636363637 421" stroke-miterlimit="10"/></g><g transform="translate(-39,-22) scale(1,1)"><g><path fill="none" stroke="none"/><text fill="#000000" stroke="none" font-family="Arial" font-size="13px" font-style="normal" font-weight="bold" text-decoration="none" x="58" y="441.5">Jammer</text></g></g><g transform="translate(-39,-22) scale(1,1)"><path fill="none" stroke="#000000" d="M 81 367 L 81 177" stroke-miterlimit="10"/></g><g transform="translate(-39,-22) scale(1,1)"><path fill="#FFFFFF" stroke="none" d="M 89.41903551203198 197.3253497152483 L 81 177 L 72.58096448796803 197.3253497152483"/></g><g transform="translate(-39,-22) scale(1,1)"><path fill="none" stroke="#000000" d="M 89.41903551203198 197.3253497152483 L 81 177 L 72.58096448796803 197.3253497152483 L 89.41903551203198 197.3253497152483" stroke-miterlimit="10"/></g><g transform="translate(-39,-22) scale(1,1)"><path fill="#C0C0C0" stroke="none" d="M 191 256 C 191 246.6111584 233.9806592 239 287 239 C 340.0193408 239 383 246.6111584 383 256 C 383 265.3888416 340.0193408 273 287 273 C 233.9806592 273 191 265.3888416 191 256 Z" opacity="0.2"/></g><g transform="translate(-39,-22) scale(1,1)"><path fill="#ffffff" stroke="none" d="M 184 249 C 184 239.6111584 226.9806592 232 280 232 C 333.0193408 232 376 239.6111584 376 249 C 376 258.3888416 333.0193408 266 280 266 C 226.9806592 266 184 258.3888416 184 249 Z"/></g><g transform="translate(-39,-22) scale(1,1)"><path fill="none" stroke="#000000" d="M 184 249 C 184 239.6111584 226.9806592 232 280 232 C 333.0193408 232 376 239.6111584 376 249 C 376 258.3888416 333.0193408 266 280 266 C 226.9806592 266 184 258.3888416 184 249 Z" stroke-miterlimit="10"/></g><g transform="translate(-39,-22) scale(1,1)"><g><path fill="none" stroke="none"/><text fill="#000000" stroke="none" font-family="Arial" font-size="13px" font-style="normal" font-weight="bold" text-decoration="none" x="231" y="256">Create a session</text></g></g><g transform="translate(-39,-22) scale(1,1)"><path fill="#C0C0C0" stroke="none" d="M 319 368 C 319 358.6111584 361.9806592 351 415 351 C 468.0193408 351 511 358.6111584 511 368 C 511 377.3888416 468.0193408 385 415 385 C 361.9806592 385 319 377.3888416 319 368 Z" opacity="0.2"/></g><g transform="translate(-39,-22) scale(1,1)"><path fill="#ffffff" stroke="none" d="M 312 361 C 312 351.6111584 354.9806592 344 408 344 C 461.0193408 344 504 351.6111584 504 361 C 504 370.3888416 461.0193408 378 408 378 C 354.9806592 378 312 370.3888416 312 361 Z"/></g><g transform="translate(-39,-22) scale(1,1)"><path fill="none" stroke="#000000" d="M 312 361 C 312 351.6111584 354.9806592 344 408 344 C 461.0193408 344 504 351.6111584 504 361 C 504 370.3888416 461.0193408 378 408 378 C 354.9806592 378 312 370.3888416 312 361 Z" stroke-miterlimit="10"/></g><g transform="translate(-39,-22) scale(1,1)"><g><path fill="none" stroke="none"/><text fill="#000000" stroke="none" font-family="Arial" font-size="13px" font-style="normal" font-weight="bold" text-decoration="none" x="354" y="368">Remove a session</text></g></g><g transform="translate(-39,-22) scale(1,1)"><path fill="#C0C0C0" stroke="none" d="M 519 240 C 519 230.6111584 561.9806592 223 615 223 C 668.0193408 223 711 230.6111584 711 240 C 711 249.3888416 668.0193408 257 615 257 C 561.9806592 257 519 249.3888416 519 240 Z" opacity="0.2"/></g><g transform="translate(-39,-22) scale(1,1)"><path fill="#ffffff" stroke="none" d="M 512 233 C 512 223.6111584 554.9806592 216 608 216 C 661.0193408 216 704 223.6111584 704 233 C 704 242.3888416 661.0193408 250 608 250 C 554.9806592 250 512 242.3888416 512 233 Z"/></g><g transform="translate(-39,-22) scale(1,1)"><path fill="none" stroke="#000000" d="M 512 233 C 512 223.6111584 554.9806592 216 608 216 C 661.0193408 216 704 223.6111584 704 233 C 704 242.3888416 661.0193408 250 608 250 C 554.9806592 250 512 242.3888416 512 233 Z" stroke-miterlimit="10"/></g><g transform="translate(-39,-22) scale(1,1)"><g><path fill="none" stroke="none"/><text fill="#000000" stroke="none" font-family="Arial" font-size="13px" font-style="normal" font-weight="bold" text-decoration="none" x="548" y="240">Search for  sessions</text></g></g><g transform="translate(-39,-22) scale(1,1)"><path fill="none" stroke="#000000" d="M 114 142 L 511 215" stroke-miterlimit="10"/></g><g transform="translate(-39,-22) scale(1,1)"><path fill="none" stroke="#000000" d="M 112 382 L 257 267" stroke-miterlimit="10"/></g><g transform="translate(-39,-22) scale(1,1)"><path fill="none" stroke="#000000" d="M 112 403 L 311 375" stroke-miterlimit="10"/></g><g transform="translate(-39,-22) scale(1,1)"><path fill="#C0C0C0" stroke="none" d="M 519 480 C 519 470.6111584 561.9806592 463 615 463 C 668.0193408 463 711 470.6111584 711 480 C 711 489.3888416 668.0193408 497 615 497 C 561.9806592 497 519 489.3888416 519 480 Z" opacity="0.2"/></g><g transform="translate(-39,-22) scale(1,1)"><path fill="#ffffff" stroke="none" d="M 512 473 C 512 463.6111584 554.9806592 456 608 456 C 661.0193408 456 704 463.6111584 704 473 C 704 482.3888416 661.0193408 490 608 490 C 554.9806592 490 512 482.3888416 512 473 Z"/></g><g transform="translate(-39,-22) scale(1,1)"><path fill="none" stroke="#000000" d="M 512 473 C 512 463.6111584 554.9806592 456 608 456 C 661.0193408 456 704 463.6111584 704 473 C 704 482.3888416 661.0193408 490 608 490 C 554.9806592 490 512 482.3888416 512 473 Z" stroke-miterlimit="10"/></g><g transform="translate(-39,-22) scale(1,1)"><g><path fill="none" stroke="none"/><text fill="#000000" stroke="none" font-family="Arial" font-size="13px" font-style="normal" font-weight="bold" text-decoration="none" x="557.5" y="480">Update a session</text></g></g><g transform="translate(-39,-22) scale(1,1)"><path fill="none" stroke="#000000" d="M 112 411 L 511 461" stroke-miterlimit="10"/></g><g transform="translate(-39,-22) scale(1,1)"><path fill="#C0C0C0" stroke="none" d="M 463 112 C 463 102.6111584 505.9806592 95 559 95 C 612.0193408 95 655 102.6111584 655 112 C 655 121.3888416 612.0193408 129 559 129 C 505.9806592 129 463 121.3888416 463 112 Z" opacity="0.2"/></g><g transform="translate(-39,-22) scale(1,1)"><path fill="#ffffff" stroke="none" d="M 456 105 C 456 95.6111584 498.9806592 88 552 88 C 605.0193408 88 648 95.6111584 648 105 C 648 114.3888416 605.0193408 122 552 122 C 498.9806592 122 456 114.3888416 456 105 Z"/></g><g transform="translate(-39,-22) scale(1,1)"><path fill="none" stroke="#000000" d="M 456 105 C 456 95.6111584 498.9806592 88 552 88 C 605.0193408 88 648 95.6111584 648 105 C 648 114.3888416 605.0193408 122 552 122 C 498.9806592 122 456 114.3888416 456 105 Z" stroke-miterlimit="10"/></g><g transform="translate(-39,-22) scale(1,1)"><g><path fill="none" stroke="none"/><text fill="#000000" stroke="none" font-family="Arial" font-size="13px" font-style="normal" font-weight="bold" text-decoration="none" x="513.5" y="112">View session</text></g></g><g transform="translate(-39,-22) scale(1,1)"><path fill="none" stroke="#000000" d="M 114 134 L 455 111" stroke-miterlimit="10"/></g><g transform="translate(-39,-22) scale(1,1)"><path fill="none" stroke="#000000" d="M 560 123 L 600 215" stroke-miterlimit="10" stroke-dasharray="3"/></g><g transform="translate(-39,-22) scale(1,1)"><path fill="none" stroke="#000000" d="M 592.0874534871416 207.3585598424216 L 600 215 L 599.8082988577587 204.00167055084893" stroke-miterlimit="10"/></g><g transform="translate(-39,-22) scale(1,1)"><g><path fill="none" stroke="none"/><text fill="#000000" stroke="none" font-family="Arial" font-size="13px" font-style="normal" font-weight="normal" text-decoration="none" x="523.5" y="175.5">«extend»</text></g></g><g transform="translate(-39,-22) scale(1,1)"><path fill="none" stroke="#000000" d="M 580 251 L 436 343" stroke-miterlimit="10" stroke-dasharray="3"/></g><g transform="translate(-39,-22) scale(1,1)"><path fill="none" stroke="#000000" d="M 442.2976888705964 333.98117996137154 L 436 343 L 446.8304073138171 341.0758696985865" stroke-miterlimit="10"/></g><g transform="translate(-39,-22) scale(1,1)"><g><path fill="none" stroke="none"/><text fill="#000000" stroke="none" font-family="Arial" font-size="13px" font-style="normal" font-weight="normal" text-decoration="none" x="497.5" y="328.5">«extend»</text></g></g><g transform="translate(-39,-22) scale(1,1)"><path fill="none" stroke="#000000" d="M 608 251 L 608 455" stroke-miterlimit="10" stroke-dasharray="3"/></g><g transform="translate(-39,-22) scale(1,1)"><path fill="none" stroke="#000000" d="M 603.790482243984 444.83732514237585 L 608 455 L 612.209517756016 444.83732514237585" stroke-miterlimit="10"/></g><g transform="translate(-39,-22) scale(1,1)"><g><path fill="none" stroke="none"/><text fill="#000000" stroke="none" font-family="Arial" font-size="13px" font-style="normal" font-weight="normal" text-decoration="none" x="611.5" y="358.5">«extend»</text></g></g></g></svg>