<svg version="1.1" xmlns="http://www.w3.org/2000/svg" xmlns:xlink="http://www.w3.org/1999/xlink" width="258" height="493"><defs/><g><g transform="translate(-59,-14) scale(1,1)"><path fill="#C0C0C0" stroke="none" d="M 186 40.5 C 186 35.2532944 190.2532944 31 195.5 31 C 200.7467056 31 205 35.2532944 205 40.5 C 205 45.7467056 200.7467056 50 195.5 50 C 190.2532944 50 186 45.7467056 186 40.5 Z" opacity="0.2"/></g><g transform="translate(-59,-14) scale(1,1)"><path fill="#000000" stroke="none" d="M 179 33.5 C 179 28.2532944 183.2532944 24 188.5 24 C 193.7467056 24 198 28.2532944 198 33.5 C 198 38.7467056 193.7467056 43 188.5 43 C 183.2532944 43 179 38.7467056 179 33.5 Z"/></g><g transform="translate(-59,-14) scale(1,1)"><path fill="#C0C0C0" stroke="none" d="M 86 103 L 304 103 Q 314 103 314 113 L 314 133 Q 314 143 304 143 L 86 143 Q 76 143 76 133 L 76 113 Q 76 103 86 103 Z" opacity="0.2"/></g><g transform="translate(-59,-14) scale(1,1)"><path fill="#ffffff" stroke="none" d="M 79 96 L 297 96 Q 307 96 307 106 L 307 126 Q 307 136 297 136 L 79 136 Q 69 136 69 126 L 69 106 Q 69 96 79 96 Z"/></g><g transform="translate(-59,-14) scale(1,1)"><path fill="none" stroke="#000000" d="M 79 96 L 297 96 Q 307 96 307 106 L 307 126 Q 307 136 297 136 L 79 136 Q 69 136 69 126 L 69 106 Q 69 96 79 96 Z" stroke-miterlimit="10"/></g><g transform="translate(-59,-14) scale(1,1)"><g><path fill="none" stroke="none"/><text fill="#000000" stroke="none" font-family="Arial" font-size="13px" font-style="normal" font-weight="bold" text-decoration="none" x="96" y="115.5">Afficher la liste des instruments</text></g></g><g transform="translate(-59,-14) scale(1,1)"><path fill="#C0C0C0" stroke="none" d="M 98 199 L 292 199 Q 302 199 302 209 L 302 229 Q 302 239 292 239 L 98 239 Q 88 239 88 229 L 88 209 Q 88 199 98 199 Z" opacity="0.2"/></g><g transform="translate(-59,-14) scale(1,1)"><path fill="#ffffff" stroke="none" d="M 91 192 L 285 192 Q 295 192 295 202 L 295 222 Q 295 232 285 232 L 91 232 Q 81 232 81 222 L 81 202 Q 81 192 91 192 Z"/></g><g transform="translate(-59,-14) scale(1,1)"><path fill="none" stroke="#000000" d="M 91 192 L 285 192 Q 295 192 295 202 L 295 222 Q 295 232 285 232 L 91 232 Q 81 232 81 222 L 81 202 Q 81 192 91 192 Z" stroke-miterlimit="10"/></g><g transform="translate(-59,-14) scale(1,1)"><g><path fill="none" stroke="none"/><text fill="#000000" stroke="none" font-family="Arial" font-size="13px" font-style="normal" font-weight="bold" text-decoration="none" x="94.5" y="211.5">Créer une piste pour l'instrument</text></g></g><g transform="translate(-59,-14) scale(1,1)"><path fill="#C0C0C0" stroke="none" d="M 183 491.5 C 183 484.59644 188.59644 479 195.5 479 C 202.40356 479 208 484.59644 208 491.5 C 208 498.40356 202.40356 504 195.5 504 C 188.59644 504 183 498.40356 183 491.5 Z" opacity="0.2"/></g><g transform="translate(-59,-14) scale(1,1)"><path fill="none" stroke="#000000" d="M 176 484.5 C 176 477.59644 181.59644 472 188.5 472 C 195.40356 472 201 477.59644 201 484.5 C 201 491.40356 195.40356 497 188.5 497 C 181.59644 497 176 491.40356 176 484.5 Z" stroke-miterlimit="10"/></g><g transform="translate(-59,-14) scale(1,1)"><path fill="#000000" stroke="none" d="M 181 484.5 C 181 480.357864 184.357864 477 188.5 477 C 192.642136 477 196 480.357864 196 484.5 C 196 488.642136 192.642136 492 188.5 492 C 184.357864 492 181 488.642136 181 484.5 Z"/></g><g transform="translate(-59,-14) scale(1,1)"><path fill="#C0C0C0" stroke="none" d="M 133 391 L 258 391 Q 268 391 268 401 L 268 421 Q 268 431 258 431 L 133 431 Q 123 431 123 421 L 123 401 Q 123 391 133 391 Z" opacity="0.2"/></g><g transform="translate(-59,-14) scale(1,1)"><path fill="#ffffff" stroke="none" d="M 126 384 L 251 384 Q 261 384 261 394 L 261 414 Q 261 424 251 424 L 126 424 Q 116 424 116 414 L 116 394 Q 116 384 126 384 Z"/></g><g transform="translate(-59,-14) scale(1,1)"><path fill="none" stroke="#000000" d="M 126 384 L 251 384 Q 261 384 261 394 L 261 414 Q 261 424 251 424 L 126 424 Q 116 424 116 414 L 116 394 Q 116 384 126 384 Z" stroke-miterlimit="10"/></g><g transform="translate(-59,-14) scale(1,1)"><g><path fill="none" stroke="none"/><text fill="#000000" stroke="none" font-family="Arial" font-size="13px" font-style="normal" font-weight="bold" text-decoration="none" x="125.5" y="403.5">Enregistrer la session</text></g></g><g transform="translate(-59,-14) scale(1,1)"><path fill="none" stroke="#000000" d="M 188 44 L 188 95" stroke-miterlimit="10"/></g><g transform="translate(-59,-14) scale(1,1)"><path fill="none" stroke="#000000" d="M 183.790482243984 84.83732514237585 L 188 95 L 192.209517756016 84.83732514237585" stroke-miterlimit="10"/></g><g transform="translate(-59,-14) scale(1,1)"><path fill="none" stroke="#000000" d="M 188 137 L 188 191" stroke-miterlimit="10"/></g><g transform="translate(-59,-14) scale(1,1)"><path fill="none" stroke="#000000" d="M 183.790482243984 180.83732514237585 L 188 191 L 192.209517756016 180.83732514237585" stroke-miterlimit="10"/></g><g transform="translate(-59,-14) scale(1,1)"><path fill="none" stroke="#000000" d="M 188 233 L 188 287" stroke-miterlimit="10"/></g><g transform="translate(-59,-14) scale(1,1)"><path fill="none" stroke="#000000" d="M 183.790482243984 276.83732514237585 L 188 287 L 192.209517756016 276.83732514237585" stroke-miterlimit="10"/></g><g transform="translate(-59,-14) scale(1,1)"><path fill="none" stroke="#000000" d="M 188 425 L 188 471" stroke-miterlimit="10"/></g><g transform="translate(-59,-14) scale(1,1)"><path fill="none" stroke="#000000" d="M 183.790482243984 460.83732514237585 L 188 471 L 192.209517756016 460.83732514237585" stroke-miterlimit="10"/></g><g transform="translate(-59,-14) scale(1,1)"><path fill="#C0C0C0" stroke="none" d="M 115 295 L 276 295 Q 286 295 286 305 L 286 325 Q 286 335 276 335 L 115 335 Q 105 335 105 325 L 105 305 Q 105 295 115 295 Z" opacity="0.2"/></g><g transform="translate(-59,-14) scale(1,1)"><path fill="#ffffff" stroke="none" d="M 108 288 L 269 288 Q 279 288 279 298 L 279 318 Q 279 328 269 328 L 108 328 Q 98 328 98 318 L 98 298 Q 98 288 108 288 Z"/></g><g transform="translate(-59,-14) scale(1,1)"><path fill="none" stroke="#000000" d="M 108 288 L 269 288 Q 279 288 279 298 L 279 318 Q 279 328 269 328 L 108 328 Q 98 328 98 318 L 98 298 Q 98 288 108 288 Z" stroke-miterlimit="10"/></g><g transform="translate(-59,-14) scale(1,1)"><g><path fill="none" stroke="none"/><text fill="#000000" stroke="none" font-family="Arial" font-size="13px" font-style="normal" font-weight="bold" text-decoration="none" x="108" y="307.5">Ajouter la piste à la session</text></g></g><g transform="translate(-59,-14) scale(1,1)"><path fill="none" stroke="#000000" d="M 188 329 L 188 383" stroke-miterlimit="10"/></g><g transform="translate(-59,-14) scale(1,1)"><path fill="none" stroke="#000000" d="M 183.790482243984 372.83732514237585 L 188 383 L 192.209517756016 372.83732514237585" stroke-miterlimit="10"/></g></g></svg>