<svg version="1.1" xmlns="http://www.w3.org/2000/svg" xmlns:xlink="http://www.w3.org/1999/xlink" width="258" height="397"><defs/><g><g transform="translate(-60,-14) scale(1,1)"><path fill="#C0C0C0" stroke="none" d="M 187 40.5 C 187 35.2532944 191.2532944 31 196.5 31 C 201.7467056 31 206 35.2532944 206 40.5 C 206 45.7467056 201.7467056 50 196.5 50 C 191.2532944 50 187 45.7467056 187 40.5 Z" opacity="0.2"/></g><g transform="translate(-60,-14) scale(1,1)"><path fill="#000000" stroke="none" d="M 180 33.5 C 180 28.2532944 184.2532944 24 189.5 24 C 194.7467056 24 199 28.2532944 199 33.5 C 199 38.7467056 194.7467056 43 189.5 43 C 184.2532944 43 180 38.7467056 180 33.5 Z"/></g><g transform="translate(-60,-14) scale(1,1)"><path fill="#C0C0C0" stroke="none" d="M 87 103 L 305 103 Q 315 103 315 113 L 315 133 Q 315 143 305 143 L 87 143 Q 77 143 77 133 L 77 113 Q 77 103 87 103 Z" opacity="0.2"/></g><g transform="translate(-60,-14) scale(1,1)"><path fill="#ffffff" stroke="none" d="M 80 96 L 298 96 Q 308 96 308 106 L 308 126 Q 308 136 298 136 L 80 136 Q 70 136 70 126 L 70 106 Q 70 96 80 96 Z"/></g><g transform="translate(-60,-14) scale(1,1)"><path fill="none" stroke="#000000" d="M 80 96 L 298 96 Q 308 96 308 106 L 308 126 Q 308 136 298 136 L 80 136 Q 70 136 70 126 L 70 106 Q 70 96 80 96 Z" stroke-miterlimit="10"/></g><g transform="translate(-60,-14) scale(1,1)"><g><path fill="none" stroke="none"/><text fill="#000000" stroke="none" font-family="Arial" font-size="13px" font-style="normal" font-weight="bold" text-decoration="none" x="97" y="115.5">Afficher la liste des instruments</text></g></g><g transform="translate(-60,-14) scale(1,1)"><path fill="#C0C0C0" stroke="none" d="M 99 199 L 293 199 Q 303 199 303 209 L 303 229 Q 303 239 293 239 L 99 239 Q 89 239 89 229 L 89 209 Q 89 199 99 199 Z" opacity="0.2"/></g><g transform="translate(-60,-14) scale(1,1)"><path fill="#ffffff" stroke="none" d="M 92 192 L 286 192 Q 296 192 296 202 L 296 222 Q 296 232 286 232 L 92 232 Q 82 232 82 222 L 82 202 Q 82 192 92 192 Z"/></g><g transform="translate(-60,-14) scale(1,1)"><path fill="none" stroke="#000000" d="M 92 192 L 286 192 Q 296 192 296 202 L 296 222 Q 296 232 286 232 L 92 232 Q 82 232 82 222 L 82 202 Q 82 192 92 192 Z" stroke-miterlimit="10"/></g><g transform="translate(-60,-14) scale(1,1)"><g><path fill="none" stroke="none"/><text fill="#000000" stroke="none" font-family="Arial" font-size="13px" font-style="normal" font-weight="bold" text-decoration="none" x="95.5" y="211.5">Créer une piste pour l'instrument</text></g></g><g transform="translate(-60,-14) scale(1,1)"><path fill="#C0C0C0" stroke="none" d="M 184 395.5 C 184 388.59644 189.59644 383 196.5 383 C 203.40356 383 209 388.59644 209 395.5 C 209 402.40356 203.40356 408 196.5 408 C 189.59644 408 184 402.40356 184 395.5 Z" opacity="0.2"/></g><g transform="translate(-60,-14) scale(1,1)"><path fill="none" stroke="#000000" d="M 177 388.5 C 177 381.59644 182.59644 376 189.5 376 C 196.40356 376 202 381.59644 202 388.5 C 202 395.40356 196.40356 401 189.5 401 C 182.59644 401 177 395.40356 177 388.5 Z" stroke-miterlimit="10"/></g><g transform="translate(-60,-14) scale(1,1)"><path fill="#000000" stroke="none" d="M 182 388.5 C 182 384.357864 185.357864 381 189.5 381 C 193.642136 381 197 384.357864 197 388.5 C 197 392.642136 193.642136 396 189.5 396 C 185.357864 396 182 392.642136 182 388.5 Z"/></g><g transform="translate(-60,-14) scale(1,1)"><path fill="#C0C0C0" stroke="none" d="M 134 295 L 259 295 Q 269 295 269 305 L 269 325 Q 269 335 259 335 L 134 335 Q 124 335 124 325 L 124 305 Q 124 295 134 295 Z" opacity="0.2"/></g><g transform="translate(-60,-14) scale(1,1)"><path fill="#ffffff" stroke="none" d="M 127 288 L 252 288 Q 262 288 262 298 L 262 318 Q 262 328 252 328 L 127 328 Q 117 328 117 318 L 117 298 Q 117 288 127 288 Z"/></g><g transform="translate(-60,-14) scale(1,1)"><path fill="none" stroke="#000000" d="M 127 288 L 252 288 Q 262 288 262 298 L 262 318 Q 262 328 252 328 L 127 328 Q 117 328 117 318 L 117 298 Q 117 288 127 288 Z" stroke-miterlimit="10"/></g><g transform="translate(-60,-14) scale(1,1)"><g><path fill="none" stroke="none"/><text fill="#000000" stroke="none" font-family="Arial" font-size="13px" font-style="normal" font-weight="bold" text-decoration="none" x="126.5" y="307.5">Enregistrer la session</text></g></g><g transform="translate(-60,-14) scale(1,1)"><path fill="none" stroke="#000000" d="M 189 44 L 189 95" stroke-miterlimit="10"/></g><g transform="translate(-60,-14) scale(1,1)"><path fill="none" stroke="#000000" d="M 184.790482243984 84.83732514237585 L 189 95 L 193.209517756016 84.83732514237585" stroke-miterlimit="10"/></g><g transform="translate(-60,-14) scale(1,1)"><path fill="none" stroke="#000000" d="M 189 137 L 189 191" stroke-miterlimit="10"/></g><g transform="translate(-60,-14) scale(1,1)"><path fill="none" stroke="#000000" d="M 184.790482243984 180.83732514237585 L 189 191 L 193.209517756016 180.83732514237585" stroke-miterlimit="10"/></g><g transform="translate(-60,-14) scale(1,1)"><path fill="none" stroke="#000000" d="M 189 233 L 189 287" stroke-miterlimit="10"/></g><g transform="translate(-60,-14) scale(1,1)"><path fill="none" stroke="#000000" d="M 184.790482243984 276.83732514237585 L 189 287 L 193.209517756016 276.83732514237585" stroke-miterlimit="10"/></g><g transform="translate(-60,-14) scale(1,1)"><path fill="none" stroke="#000000" d="M 189 329 L 189 375" stroke-miterlimit="10"/></g><g transform="translate(-60,-14) scale(1,1)"><path fill="none" stroke="#000000" d="M 184.790482243984 364.83732514237585 L 189 375 L 193.209517756016 364.83732514237585" stroke-miterlimit="10"/></g></g></svg>