<svg version="1.1" xmlns="http://www.w3.org/2000/svg" xmlns:xlink="http://www.w3.org/1999/xlink" width="948" height="556"><defs/><g><g transform="translate(-6,-38) scale(1,1)"><rect fill="#C0C0C0" stroke="none" x="31" y="55" width="170" height="74" opacity="0.2"/></g><g transform="translate(-6,-38) scale(1,1)"><rect fill="#ffffff" stroke="none" x="24" y="48" width="170" height="74"/></g><g transform="translate(-6,-38) scale(1,1)"><path fill="none" stroke="#000000" d="M 24 48 L 194 48 L 194 122 L 24 122 L 24 48 Z Z" stroke-miterlimit="10"/></g><g transform="translate(-6,-38) scale(1,1)"><path fill="#ffffff" stroke="none" d="M 167.4 65 C 167.4 59.698065920000005 171.69806592 55.4 177 55.4 C 182.30193408 55.4 186.6 59.698065920000005 186.6 65 C 186.6 70.30193408 182.30193408 74.6 177 74.6 C 171.69806592 74.6 167.4 70.30193408 167.4 65 Z"/></g><g transform="translate(-6,-38) scale(1,1)"><path fill="none" stroke="#000000" d="M 167.4 65 C 167.4 59.698065920000005 171.69806592 55.4 177 55.4 C 182.30193408 55.4 186.6 59.698065920000005 186.6 65 C 186.6 70.30193408 182.30193408 74.6 177 74.6 C 171.69806592 74.6 167.4 70.30193408 167.4 65 Z" stroke-miterlimit="10"/></g><g transform="translate(-6,-38) scale(1,1)"><path fill="none" stroke="#000000" d="M 167.4 74.6 L 186.6 74.6" stroke-miterlimit="10"/></g><g transform="translate(-6,-38) scale(1,1)"><g><path fill="none" stroke="none"/><text fill="#000000" stroke="none" font-family="Arial" font-size="13px" font-style="normal" font-weight="normal" text-decoration="none" x="74" y="65.5">«entity»</text></g></g><g transform="translate(-6,-38) scale(1,1)"><g><path fill="none" stroke="none"/><text fill="#000000" stroke="none" font-family="Arial" font-size="13px" font-style="normal" font-weight="bold" text-decoration="none" x="73.5" y="80.5">Jammer</text></g></g><g transform="translate(-6,-38) scale(1,1)"><rect fill="#C0C0C0" stroke="none" x="23" y="279" width="192" height="74" opacity="0.2"/></g><g transform="translate(-6,-38) scale(1,1)"><rect fill="#ffffff" stroke="none" x="16" y="272" width="192" height="74"/></g><g transform="translate(-6,-38) scale(1,1)"><path fill="none" stroke="#000000" d="M 16 272 L 208 272 L 208 346 L 16 346 L 16 272 Z Z" stroke-miterlimit="10"/></g><g transform="translate(-6,-38) scale(1,1)"><path fill="#ffffff" stroke="none" d="M 181.4 289 C 181.4 283.69806592 185.69806592 279.4 191 279.4 C 196.30193408 279.4 200.6 283.69806592 200.6 289 C 200.6 294.30193408 196.30193408 298.6 191 298.6 C 185.69806592 298.6 181.4 294.30193408 181.4 289 Z"/></g><g transform="translate(-6,-38) scale(1,1)"><path fill="none" stroke="#000000" d="M 181.4 289 C 181.4 283.69806592 185.69806592 279.4 191 279.4 C 196.30193408 279.4 200.6 283.69806592 200.6 289 C 200.6 294.30193408 196.30193408 298.6 191 298.6 C 185.69806592 298.6 181.4 294.30193408 181.4 289 Z" stroke-miterlimit="10"/></g><g transform="translate(-6,-38) scale(1,1)"><path fill="none" stroke="#000000" d="M 181.4 298.6 L 200.6 298.6" stroke-miterlimit="10"/></g><g transform="translate(-6,-38) scale(1,1)"><g><path fill="none" stroke="none"/><text fill="#000000" stroke="none" font-family="Arial" font-size="13px" font-style="normal" font-weight="normal" text-decoration="none" x="77" y="289.5">«entity»</text></g></g><g transform="translate(-6,-38) scale(1,1)"><g><path fill="none" stroke="none"/><text fill="#000000" stroke="none" font-family="Arial" font-size="13px" font-style="normal" font-weight="bold" text-decoration="none" x="76.5" y="304.5">Session</text></g></g><g transform="translate(-6,-38) scale(1,1)"><path fill="none" stroke="#000000" d="M 86 122 L 86 272" stroke-miterlimit="10"/></g><g transform="translate(-6,-38) scale(1,1)"><path fill="#000000" stroke="none" d="M 90.20951775601598 132.16267485762415 L 86 122 L 81.79048224398402 132.16267485762415 L 86 144"/></g><g transform="translate(-6,-38) scale(1,1)"><path fill="none" stroke="#000000" d="M 90.20951775601598 132.16267485762415 L 86 122 L 81.79048224398402 132.16267485762415 L 86 144 L 90.20951775601598 132.16267485762415" stroke-miterlimit="10"/></g><g transform="translate(-6,-38) scale(1,1)"><g><path fill="none" stroke="none"/><text fill="#000000" stroke="none" font-family="Arial" font-size="13px" font-style="normal" font-weight="normal" text-decoration="none" x="80.5" y="202.5">+owns</text></g></g><g transform="translate(-6,-38) scale(1,1)"><g><path fill="none" stroke="none"/><text fill="#000000" stroke="none" font-family="Arial" font-size="13px" font-style="normal" font-weight="normal" text-decoration="none" x="69.5" y="149.5">1</text></g></g><g transform="translate(-6,-38) scale(1,1)"><g><path fill="none" stroke="none"/><text fill="#000000" stroke="none" font-family="Arial" font-size="13px" font-style="normal" font-weight="normal" text-decoration="none" x="70.5" y="256.5">*</text></g></g><g transform="translate(-6,-38) scale(1,1)"><rect fill="#C0C0C0" stroke="none" x="296" y="423" width="170" height="74" opacity="0.2"/></g><g transform="translate(-6,-38) scale(1,1)"><rect fill="#ffffff" stroke="none" x="289" y="416" width="170" height="74"/></g><g transform="translate(-6,-38) scale(1,1)"><path fill="none" stroke="#000000" d="M 289 416 L 459 416 L 459 490 L 289 490 L 289 416 Z Z" stroke-miterlimit="10"/></g><g transform="translate(-6,-38) scale(1,1)"><path fill="#ffffff" stroke="none" d="M 432.4 433 C 432.4 427.69806592 436.69806592 423.4 442 423.4 C 447.30193408 423.4 451.6 427.69806592 451.6 433 C 451.6 438.30193408 447.30193408 442.6 442 442.6 C 436.69806592 442.6 432.4 438.30193408 432.4 433 Z"/></g><g transform="translate(-6,-38) scale(1,1)"><path fill="none" stroke="#000000" d="M 432.4 433 C 432.4 427.69806592 436.69806592 423.4 442 423.4 C 447.30193408 423.4 451.6 427.69806592 451.6 433 C 451.6 438.30193408 447.30193408 442.6 442 442.6 C 436.69806592 442.6 432.4 438.30193408 432.4 433 Z" stroke-miterlimit="10"/></g><g transform="translate(-6,-38) scale(1,1)"><path fill="none" stroke="#000000" d="M 432.4 442.6 L 451.6 442.6" stroke-miterlimit="10"/></g><g transform="translate(-6,-38) scale(1,1)"><g><path fill="none" stroke="none"/><text fill="#000000" stroke="none" font-family="Arial" font-size="13px" font-style="normal" font-weight="normal" text-decoration="none" x="339" y="433.5">«entity»</text></g></g><g transform="translate(-6,-38) scale(1,1)"><g><path fill="none" stroke="none"/><text fill="#000000" stroke="none" font-family="Arial" font-size="13px" font-style="normal" font-weight="bold" text-decoration="none" x="331" y="448.5">Instrument</text></g></g><g transform="translate(-6,-38) scale(1,1)"><path fill="none" stroke="#000000" d="M 374 347 L 374 415" stroke-miterlimit="10"/></g><g transform="translate(-6,-38) scale(1,1)"><g><path fill="none" stroke="none"/><text fill="#000000" stroke="none" font-family="Arial" font-size="13px" font-style="normal" font-weight="normal" text-decoration="none" x="349.5" y="386.5">+is related to</text></g></g><g transform="translate(-6,-38) scale(1,1)"><g><path fill="none" stroke="none"/><text fill="#000000" stroke="none" font-family="Arial" font-size="13px" font-style="normal" font-weight="normal" text-decoration="none" x="358.5" y="374.5">*</text></g></g><g transform="translate(-6,-38) scale(1,1)"><g><path fill="none" stroke="none"/><text fill="#000000" stroke="none" font-family="Arial" font-size="13px" font-style="normal" font-weight="normal" text-decoration="none" x="357.5" y="399.5">1</text></g></g><g transform="translate(-6,-38) scale(1,1)"><rect fill="#C0C0C0" stroke="none" x="296" y="279" width="170" height="74" opacity="0.2"/></g><g transform="translate(-6,-38) scale(1,1)"><rect fill="#ffffff" stroke="none" x="289" y="272" width="170" height="74"/></g><g transform="translate(-6,-38) scale(1,1)"><path fill="none" stroke="#000000" d="M 289 272 L 459 272 L 459 346 L 289 346 L 289 272 Z Z" stroke-miterlimit="10"/></g><g transform="translate(-6,-38) scale(1,1)"><path fill="#ffffff" stroke="none" d="M 432.4 289 C 432.4 283.69806592 436.69806592 279.4 442 279.4 C 447.30193408 279.4 451.6 283.69806592 451.6 289 C 451.6 294.30193408 447.30193408 298.6 442 298.6 C 436.69806592 298.6 432.4 294.30193408 432.4 289 Z"/></g><g transform="translate(-6,-38) scale(1,1)"><path fill="none" stroke="#000000" d="M 432.4 289 C 432.4 283.69806592 436.69806592 279.4 442 279.4 C 447.30193408 279.4 451.6 283.69806592 451.6 289 C 451.6 294.30193408 447.30193408 298.6 442 298.6 C 436.69806592 298.6 432.4 294.30193408 432.4 289 Z" stroke-miterlimit="10"/></g><g transform="translate(-6,-38) scale(1,1)"><path fill="none" stroke="#000000" d="M 432.4 298.6 L 451.6 298.6" stroke-miterlimit="10"/></g><g transform="translate(-6,-38) scale(1,1)"><g><path fill="none" stroke="none"/><text fill="#000000" stroke="none" font-family="Arial" font-size="13px" font-style="normal" font-weight="normal" text-decoration="none" x="339" y="289.5">«entity»</text></g></g><g transform="translate(-6,-38) scale(1,1)"><g><path fill="none" stroke="none"/><text fill="#000000" stroke="none" font-family="Arial" font-size="13px" font-style="normal" font-weight="bold" text-decoration="none" x="345.5" y="304.5">Track</text></g></g><g transform="translate(-6,-38) scale(1,1)"><path fill="none" stroke="#000000" d="M 209 309 L 288 309" stroke-miterlimit="10"/></g><g transform="translate(-6,-38) scale(1,1)"><path fill="none" stroke="#000000" d="M 277.83732514237585 313.209517756016 L 288 309 L 277.83732514237585 304.790482243984" stroke-miterlimit="10"/></g><g transform="translate(-6,-38) scale(1,1)"><path fill="#000000" stroke="none" d="M 219.16267485762415 304.790482243984 L 209 309 L 219.16267485762415 313.209517756016 L 231 309"/></g><g transform="translate(-6,-38) scale(1,1)"><path fill="none" stroke="#000000" d="M 219.16267485762415 304.790482243984 L 209 309 L 219.16267485762415 313.209517756016 L 231 309 L 219.16267485762415 304.790482243984" stroke-miterlimit="10"/></g><g transform="translate(-6,-38) scale(1,1)"><g><path fill="none" stroke="none"/><text fill="#000000" stroke="none" font-family="Arial" font-size="13px" font-style="normal" font-weight="normal" text-decoration="none" x="219.5" y="300.5">+contains</text></g></g><g transform="translate(-6,-38) scale(1,1)"><g><path fill="none" stroke="none"/><text fill="#000000" stroke="none" font-family="Arial" font-size="13px" font-style="normal" font-weight="normal" text-decoration="none" x="226.5" y="327.5">1</text></g></g><g transform="translate(-6,-38) scale(1,1)"><g><path fill="none" stroke="none"/><text fill="#000000" stroke="none" font-family="Arial" font-size="13px" font-style="normal" font-weight="normal" text-decoration="none" x="263.5" y="327.5">*</text></g></g><g transform="translate(-6,-38) scale(1,1)"><path fill="none" stroke="#000000" d="M 166 122 L 166 272" stroke-miterlimit="10"/></g><g transform="translate(-6,-38) scale(1,1)"><g><path fill="none" stroke="none"/><text fill="#000000" stroke="none" font-family="Arial" font-size="13px" font-style="normal" font-weight="normal" text-decoration="none" x="163" y="190.5">+shares</text></g></g><g transform="translate(-6,-38) scale(1,1)"><g><path fill="none" stroke="none"/><text fill="#000000" stroke="none" font-family="Arial" font-size="13px" font-style="normal" font-weight="normal" text-decoration="none" x="150.5" y="149.5">*</text></g></g><g transform="translate(-6,-38) scale(1,1)"><g><path fill="none" stroke="none"/><text fill="#000000" stroke="none" font-family="Arial" font-size="13px" font-style="normal" font-weight="normal" text-decoration="none" x="150.5" y="256.5">*</text></g></g><g transform="translate(-6,-38) scale(1,1)"><rect fill="#C0C0C0" stroke="none" x="550" y="423" width="170" height="74" opacity="0.2"/></g><g transform="translate(-6,-38) scale(1,1)"><rect fill="#ffffff" stroke="none" x="543" y="416" width="170" height="74"/></g><g transform="translate(-6,-38) scale(1,1)"><path fill="none" stroke="#000000" d="M 543 416 L 713 416 L 713 490 L 543 490 L 543 416 Z Z" stroke-miterlimit="10"/></g><g transform="translate(-6,-38) scale(1,1)"><path fill="#ffffff" stroke="none" d="M 686.4 433 C 686.4 427.69806592 690.69806592 423.4 696 423.4 C 701.30193408 423.4 705.6 427.69806592 705.6 433 C 705.6 438.30193408 701.30193408 442.6 696 442.6 C 690.69806592 442.6 686.4 438.30193408 686.4 433 Z"/></g><g transform="translate(-6,-38) scale(1,1)"><path fill="none" stroke="#000000" d="M 686.4 433 C 686.4 427.69806592 690.69806592 423.4 696 423.4 C 701.30193408 423.4 705.6 427.69806592 705.6 433 C 705.6 438.30193408 701.30193408 442.6 696 442.6 C 690.69806592 442.6 686.4 438.30193408 686.4 433 Z" stroke-miterlimit="10"/></g><g transform="translate(-6,-38) scale(1,1)"><path fill="none" stroke="#000000" d="M 686.4 442.6 L 705.6 442.6" stroke-miterlimit="10"/></g><g transform="translate(-6,-38) scale(1,1)"><g><path fill="none" stroke="none"/><text fill="#000000" stroke="none" font-family="Arial" font-size="13px" font-style="normal" font-weight="normal" text-decoration="none" x="593" y="433.5">«entity»</text></g></g><g transform="translate(-6,-38) scale(1,1)"><g><path fill="none" stroke="none"/><text fill="#000000" stroke="none" font-family="Arial" font-size="13px" font-style="normal" font-weight="bold" text-decoration="none" x="560.5" y="448.5">InstrumentMapping</text></g></g><g transform="translate(-6,-38) scale(1,1)"><path fill="none" stroke="#000000" d="M 460 453 L 542 453" stroke-miterlimit="10"/></g><g transform="translate(-6,-38) scale(1,1)"><path fill="none" stroke="#000000" d="M 531.8373251423759 457.209517756016 L 542 453 L 531.8373251423758 448.790482243984" stroke-miterlimit="10"/></g><g transform="translate(-6,-38) scale(1,1)"><path fill="#000000" stroke="none" d="M 470.16267485762415 448.790482243984 L 460 453 L 470.16267485762415 457.209517756016 L 482 453"/></g><g transform="translate(-6,-38) scale(1,1)"><path fill="none" stroke="#000000" d="M 470.16267485762415 448.790482243984 L 460 453 L 470.16267485762415 457.209517756016 L 482 453 L 470.16267485762415 448.790482243984" stroke-miterlimit="10"/></g><g transform="translate(-6,-38) scale(1,1)"><g><path fill="none" stroke="none"/><text fill="#000000" stroke="none" font-family="Arial" font-size="13px" font-style="normal" font-weight="normal" text-decoration="none" x="472.5" y="444.5">+contains</text></g></g><g transform="translate(-6,-38) scale(1,1)"><g><path fill="none" stroke="none"/><text fill="#000000" stroke="none" font-family="Arial" font-size="13px" font-style="normal" font-weight="normal" text-decoration="none" x="477.5" y="471.5">1</text></g></g><g transform="translate(-6,-38) scale(1,1)"><g><path fill="none" stroke="none"/><text fill="#000000" stroke="none" font-family="Arial" font-size="13px" font-style="normal" font-weight="normal" text-decoration="none" x="517.5" y="471.5">*</text></g></g><g transform="translate(-6,-38) scale(1,1)"><rect fill="#C0C0C0" stroke="none" x="296" y="175" width="170" height="74" opacity="0.2"/></g><g transform="translate(-6,-38) scale(1,1)"><rect fill="#ffffff" stroke="none" x="289" y="168" width="170" height="74"/></g><g transform="translate(-6,-38) scale(1,1)"><path fill="none" stroke="#000000" d="M 289 168 L 459 168 L 459 242 L 289 242 L 289 168 Z Z" stroke-miterlimit="10"/></g><g transform="translate(-6,-38) scale(1,1)"><g><path fill="none" stroke="none"/><text fill="#000000" stroke="none" font-family="Arial" font-size="13px" font-style="normal" font-weight="normal" text-decoration="none" x="343" y="185.5">«lifecycle»</text></g></g><g transform="translate(-6,-38) scale(1,1)"><g><path fill="none" stroke="none"/><text fill="#000000" stroke="none" font-family="Arial" font-size="13px" font-style="normal" font-weight="bold" text-decoration="none" x="343.5" y="200.5">TrackDAO</text></g></g><g transform="translate(-6,-38) scale(1,1)"><rect fill="#C0C0C0" stroke="none" x="550" y="535" width="170" height="56" opacity="0.2"/></g><g transform="translate(-6,-38) scale(1,1)"><rect fill="#ffffff" stroke="none" x="543" y="528" width="170" height="56"/></g><g transform="translate(-6,-38) scale(1,1)"><path fill="none" stroke="#000000" d="M 543 528 L 713 528 L 713 584 L 543 584 L 543 528 Z Z" stroke-miterlimit="10"/></g><g transform="translate(-6,-38) scale(1,1)"><g><path fill="none" stroke="none"/><text fill="#000000" stroke="none" font-family="Arial" font-size="13px" font-style="normal" font-weight="normal" text-decoration="none" x="597" y="545.5">«lifecycle»</text></g></g><g transform="translate(-6,-38) scale(1,1)"><g><path fill="none" stroke="none"/><text fill="#000000" stroke="none" font-family="Arial" font-size="13px" font-style="normal" font-weight="bold" text-decoration="none" x="589.5" y="560.5">MappingDAO</text></g></g><g transform="translate(-6,-38) scale(1,1)"><rect fill="#C0C0C0" stroke="none" x="296" y="535" width="170" height="56" opacity="0.2"/></g><g transform="translate(-6,-38) scale(1,1)"><rect fill="#ffffff" stroke="none" x="289" y="528" width="170" height="56"/></g><g transform="translate(-6,-38) scale(1,1)"><path fill="none" stroke="#000000" d="M 289 528 L 459 528 L 459 584 L 289 584 L 289 528 Z Z" stroke-miterlimit="10"/></g><g transform="translate(-6,-38) scale(1,1)"><g><path fill="none" stroke="none"/><text fill="#000000" stroke="none" font-family="Arial" font-size="13px" font-style="normal" font-weight="normal" text-decoration="none" x="343" y="545.5">«lifecycle»</text></g></g><g transform="translate(-6,-38) scale(1,1)"><g><path fill="none" stroke="none"/><text fill="#000000" stroke="none" font-family="Arial" font-size="13px" font-style="normal" font-weight="bold" text-decoration="none" x="329" y="560.5">InstrumentDAO</text></g></g><g transform="translate(-6,-38) scale(1,1)"><rect fill="#C0C0C0" stroke="none" x="23" y="423" width="192" height="74" opacity="0.2"/></g><g transform="translate(-6,-38) scale(1,1)"><rect fill="#ffffff" stroke="none" x="16" y="416" width="192" height="74"/></g><g transform="translate(-6,-38) scale(1,1)"><path fill="none" stroke="#000000" d="M 16 416 L 208 416 L 208 490 L 16 490 L 16 416 Z Z" stroke-miterlimit="10"/></g><g transform="translate(-6,-38) scale(1,1)"><g><path fill="none" stroke="none"/><text fill="#000000" stroke="none" font-family="Arial" font-size="13px" font-style="normal" font-weight="normal" text-decoration="none" x="81" y="433.5">«lifecycle»</text></g></g><g transform="translate(-6,-38) scale(1,1)"><g><path fill="none" stroke="none"/><text fill="#000000" stroke="none" font-family="Arial" font-size="13px" font-style="normal" font-weight="bold" text-decoration="none" x="74.5" y="448.5">SessionDAO</text></g></g><g transform="translate(-6,-38) scale(1,1)"><path fill="none" stroke="#000000" d="M 112 415 L 112 347" stroke-miterlimit="10" stroke-dasharray="3"/></g><g transform="translate(-6,-38) scale(1,1)"><path fill="none" stroke="#000000" d="M 116.20951775601598 357.16267485762415 L 112 347 L 107.79048224398402 357.16267485762415" stroke-miterlimit="10"/></g><g transform="translate(-6,-38) scale(1,1)"><path fill="none" stroke="#000000" d="M 374 243 L 374 271" stroke-miterlimit="10" stroke-dasharray="3"/></g><g transform="translate(-6,-38) scale(1,1)"><path fill="none" stroke="#000000" d="M 369.790482243984 260.83732514237585 L 374 271 L 378.209517756016 260.83732514237585" stroke-miterlimit="10"/></g><g transform="translate(-6,-38) scale(1,1)"><rect fill="#C0C0C0" stroke="none" x="296" y="55" width="170" height="74" opacity="0.2"/></g><g transform="translate(-6,-38) scale(1,1)"><rect fill="#ffffff" stroke="none" x="289" y="48" width="170" height="74"/></g><g transform="translate(-6,-38) scale(1,1)"><path fill="none" stroke="#000000" d="M 289 48 L 459 48 L 459 122 L 289 122 L 289 48 Z Z" stroke-miterlimit="10"/></g><g transform="translate(-6,-38) scale(1,1)"><g><path fill="none" stroke="none"/><text fill="#000000" stroke="none" font-family="Arial" font-size="13px" font-style="normal" font-weight="normal" text-decoration="none" x="343" y="65.5">«lifecycle»</text></g></g><g transform="translate(-6,-38) scale(1,1)"><g><path fill="none" stroke="none"/><text fill="#000000" stroke="none" font-family="Arial" font-size="13px" font-style="normal" font-weight="bold" text-decoration="none" x="336.5" y="80.5">JammerDAO</text></g></g><g transform="translate(-6,-38) scale(1,1)"><path fill="none" stroke="#000000" d="M 288 85 L 195 85" stroke-miterlimit="10" stroke-dasharray="3"/></g><g transform="translate(-6,-38) scale(1,1)"><path fill="none" stroke="#000000" d="M 205.16267485762415 80.79048224398402 L 195 85 L 205.16267485762415 89.20951775601598" stroke-miterlimit="10"/></g><g transform="translate(-6,-38) scale(1,1)"><path fill="none" stroke="#000000" d="M 374 527 L 374 491" stroke-miterlimit="10" stroke-dasharray="3"/></g><g transform="translate(-6,-38) scale(1,1)"><path fill="none" stroke="#000000" d="M 378.209517756016 501.16267485762415 L 374 491 L 369.790482243984 501.16267485762415" stroke-miterlimit="10"/></g><g transform="translate(-6,-38) scale(1,1)"><path fill="none" stroke="#000000" d="M 628 527 L 628 491" stroke-miterlimit="10" stroke-dasharray="3"/></g><g transform="translate(-6,-38) scale(1,1)"><path fill="none" stroke="#000000" d="M 632.209517756016 501.16267485762415 L 628 491 L 623.790482243984 501.16267485762415" stroke-miterlimit="10"/></g><g transform="translate(-6,-38) scale(1,1)"><rect fill="#C0C0C0" stroke="none" x="807" y="423" width="143" height="74" opacity="0.2"/></g><g transform="translate(-6,-38) scale(1,1)"><rect fill="#ffffff" stroke="none" x="800" y="416" width="143" height="74"/></g><g transform="translate(-6,-38) scale(1,1)"><path fill="none" stroke="#000000" d="M 800 416 L 943 416 L 943 490 L 800 490 L 800 416 Z Z" stroke-miterlimit="10"/></g><g transform="translate(-6,-38) scale(1,1)"><path fill="#ffffff" stroke="none" d="M 916.4 433 C 916.4 427.69806592 920.69806592 423.4 926 423.4 C 931.30193408 423.4 935.6 427.69806592 935.6 433 C 935.6 438.30193408 931.30193408 442.6 926 442.6 C 920.69806592 442.6 916.4 438.30193408 916.4 433 Z"/></g><g transform="translate(-6,-38) scale(1,1)"><path fill="none" stroke="#000000" d="M 916.4 433 C 916.4 427.69806592 920.69806592 423.4 926 423.4 C 931.30193408 423.4 935.6 427.69806592 935.6 433 C 935.6 438.30193408 931.30193408 442.6 926 442.6 C 920.69806592 442.6 916.4 438.30193408 916.4 433 Z" stroke-miterlimit="10"/></g><g transform="translate(-6,-38) scale(1,1)"><path fill="none" stroke="#000000" d="M 916.4 442.6 L 935.6 442.6" stroke-miterlimit="10"/></g><g transform="translate(-6,-38) scale(1,1)"><g><path fill="none" stroke="none"/><text fill="#000000" stroke="none" font-family="Arial" font-size="13px" font-style="normal" font-weight="normal" text-decoration="none" x="836.5" y="433.5">«entity»</text></g></g><g transform="translate(-6,-38) scale(1,1)"><g><path fill="none" stroke="none"/><text fill="#000000" stroke="none" font-family="Arial" font-size="13px" font-style="normal" font-weight="bold" text-decoration="none" x="837.5" y="448.5">Sample</text></g></g><g transform="translate(-6,-38) scale(1,1)"><path fill="none" stroke="#000000" d="M 714 453 L 799 453" stroke-miterlimit="10"/></g><g transform="translate(-6,-38) scale(1,1)"><path fill="none" stroke="#000000" d="M 788.8373251423759 457.209517756016 L 799 453 L 788.8373251423758 448.790482243984" stroke-miterlimit="10"/></g><g transform="translate(-6,-38) scale(1,1)"><path fill="#FFFFFF" stroke="none" d="M 724.1626748576241 448.790482243984 L 714 453 L 724.1626748576241 457.209517756016 L 736 453"/></g><g transform="translate(-6,-38) scale(1,1)"><path fill="none" stroke="#000000" d="M 724.1626748576241 448.790482243984 L 714 453 L 724.1626748576241 457.209517756016 L 736 453 L 724.1626748576241 448.790482243984" stroke-miterlimit="10"/></g><g transform="translate(-6,-38) scale(1,1)"><g><path fill="none" stroke="none"/><text fill="#000000" stroke="none" font-family="Arial" font-size="13px" font-style="normal" font-weight="normal" text-decoration="none" x="732.5" y="471.5">*</text></g></g><g transform="translate(-6,-38) scale(1,1)"><g><path fill="none" stroke="none"/><text fill="#000000" stroke="none" font-family="Arial" font-size="13px" font-style="normal" font-weight="normal" text-decoration="none" x="773.5" y="471.5">1</text></g></g><g transform="translate(-6,-38) scale(1,1)"><rect fill="#C0C0C0" stroke="none" x="807" y="535" width="144" height="56" opacity="0.2"/></g><g transform="translate(-6,-38) scale(1,1)"><rect fill="#ffffff" stroke="none" x="800" y="528" width="144" height="56"/></g><g transform="translate(-6,-38) scale(1,1)"><path fill="none" stroke="#000000" d="M 800 528 L 944 528 L 944 584 L 800 584 L 800 528 Z Z" stroke-miterlimit="10"/></g><g transform="translate(-6,-38) scale(1,1)"><g><path fill="none" stroke="none"/><text fill="#000000" stroke="none" font-family="Arial" font-size="13px" font-style="normal" font-weight="normal" text-decoration="none" x="841" y="545.5">«lifecycle»</text></g></g><g transform="translate(-6,-38) scale(1,1)"><g><path fill="none" stroke="none"/><text fill="#000000" stroke="none" font-family="Arial" font-size="13px" font-style="normal" font-weight="bold" text-decoration="none" x="836" y="560.5">SampleDAO</text></g></g><g transform="translate(-6,-38) scale(1,1)"><path fill="none" stroke="#000000" d="M 872 527 L 871 491" stroke-miterlimit="10" stroke-dasharray="3"/></g><g transform="translate(-6,-38) scale(1,1)"><path fill="none" stroke="#000000" d="M 875.4900823290208 501.0418703775052 L 871 491 L 867.0742930232062 501.27564230266665" stroke-miterlimit="10"/></g></g></svg>