<svg version="1.1" xmlns="http://www.w3.org/2000/svg" xmlns:xlink="http://www.w3.org/1999/xlink" width="2391" height="1247"><defs/><g><g transform="translate(5,5) scale(1,1)"><path fill="none" stroke="#000000" d="M 5 5 L 2376 5 L 2376 1232 L 5 1232 L 5 5" stroke-miterlimit="10"/></g><g transform="translate(5,5) scale(1,1)"><path fill="#ffffff" stroke="none" d="M 5 5 L 5 27 L 125 27 L 136 16 L 136 5 L 5 5"/></g><g transform="translate(5,5) scale(1,1)"><path fill="none" stroke="#000000" d="M 5 5 L 5 27 L 125 27 L 136 16 L 136 5 L 5 5 L 5 5" stroke-miterlimit="10"/></g><g transform="translate(5,5) scale(1,1)"><g><path fill="none" stroke="none"/><text fill="#000000" stroke="none" font-family="Arial" font-size="13px" font-style="normal" font-weight="normal" text-decoration="none" x="76" y="22.5">Sign up</text></g></g><g transform="translate(5,5) scale(1,1)"><g><path fill="none" stroke="none"/><text fill="#000000" stroke="none" font-family="Arial" font-size="13px" font-style="normal" font-weight="bold" text-decoration="none" x="10" y="22.5">interaction</text></g></g><g transform="translate(5,5) scale(1,1)"><rect fill="#C0C0C0" stroke="none" x="25" y="47" width="166" height="39" opacity="0.2"/></g><g transform="translate(5,5) scale(1,1)"><rect fill="#ffffff" stroke="none" x="18" y="40" width="166" height="39"/></g><g transform="translate(5,5) scale(1,1)"><path fill="none" stroke="#000000" d="M 18 40 L 184 40 L 184 79 L 18 79 L 18 40 Z Z" stroke-miterlimit="10"/></g><g transform="translate(5,5) scale(1,1)"><g><path fill="none" stroke="none"/><text fill="#000000" stroke="none" font-family="Arial" font-size="13px" font-style="normal" font-weight="normal" text-decoration="none" x="43" y="57.5">«React component»</text></g></g><g transform="translate(5,5) scale(1,1)"><g><path fill="none" stroke="none"/><text fill="#000000" stroke="none" font-family="Arial" font-size="13px" font-style="normal" font-weight="bold" text-decoration="none" x="33.5" y="72.5">: SignUpFormContainer</text></g></g><g transform="translate(5,5) scale(1,1)"><path fill="none" stroke="#000000" d="M 102.5 80 L 102.5 1224" stroke-miterlimit="10" stroke-dasharray="3"/></g><g transform="translate(5,5) scale(1,1)"><rect fill="#C0C0C0" stroke="none" x="311" y="47" width="135" height="39" opacity="0.2"/></g><g transform="translate(5,5) scale(1,1)"><rect fill="#ffffff" stroke="none" x="304" y="40" width="135" height="39"/></g><g transform="translate(5,5) scale(1,1)"><path fill="none" stroke="#000000" d="M 304 40 L 439 40 L 439 79 L 304 79 L 304 40 Z Z" stroke-miterlimit="10"/></g><g transform="translate(5,5) scale(1,1)"><g><path fill="none" stroke="none"/><text fill="#000000" stroke="none" font-family="Arial" font-size="13px" font-style="normal" font-weight="normal" text-decoration="none" x="313.5" y="57.5">«React component»</text></g></g><g transform="translate(5,5) scale(1,1)"><g><path fill="none" stroke="none"/><text fill="#000000" stroke="none" font-family="Arial" font-size="13px" font-style="normal" font-weight="bold" text-decoration="none" x="331.5" y="72.5">: SignUpForm</text></g></g><g transform="translate(5,5) scale(1,1)"><path fill="none" stroke="#000000" d="M 372.5 80 L 372.5 1224" stroke-miterlimit="10" stroke-dasharray="3"/></g><g transform="translate(5,5) scale(1,1)"><path fill="#ffffff" stroke="none" d="M 1008.5 60 C 1008.5 51.1634432 1015.6634432 44 1024.5 44 C 1033.3365568 44 1040.5 51.1634432 1040.5 60 C 1040.5 68.8365568 1033.3365568 76 1024.5 76 C 1015.6634432 76 1008.5 68.8365568 1008.5 60 Z"/></g><g transform="translate(5,5) scale(1,1)"><path fill="none" stroke="#000000" d="M 1008.5 60 C 1008.5 51.1634432 1015.6634432 44 1024.5 44 C 1033.3365568 44 1040.5 51.1634432 1040.5 60 C 1040.5 68.8365568 1033.3365568 76 1024.5 76 C 1015.6634432 76 1008.5 68.8365568 1008.5 60 Z" stroke-miterlimit="10"/></g><g transform="translate(5,5) scale(1,1)"><path fill="none" stroke="#000000" d="M 1000.5 44 L 1000.5 76" stroke-miterlimit="10"/></g><g transform="translate(5,5) scale(1,1)"><path fill="none" stroke="#000000" d="M 1000.5 60 L 1008.5 60" stroke-miterlimit="10"/></g><g transform="translate(5,5) scale(1,1)"><g><path fill="none" stroke="none"/><text fill="#000000" stroke="none" font-family="Arial" font-size="13px" font-style="normal" font-weight="bold" text-decoration="none" x="982" y="99.5">: JammerAPI</text></g></g><g transform="translate(5,5) scale(1,1)"><path fill="none" stroke="#000000" d="M 1021.5 105 L 1021.5 1224" stroke-miterlimit="10" stroke-dasharray="3"/></g><g transform="translate(5,5) scale(1,1)"><rect fill="#C0C0C0" stroke="none" x="527" y="47" width="216" height="39" opacity="0.2"/></g><g transform="translate(5,5) scale(1,1)"><rect fill="#ffffff" stroke="none" x="520" y="40" width="216" height="39"/></g><g transform="translate(5,5) scale(1,1)"><path fill="none" stroke="#000000" d="M 520 40 L 736 40 L 736 79 L 520 79 L 520 40 Z Z" stroke-miterlimit="10"/></g><g transform="translate(5,5) scale(1,1)"><g><path fill="none" stroke="none"/><text fill="#000000" stroke="none" font-family="Arial" font-size="13px" font-style="normal" font-weight="normal" text-decoration="none" x="570" y="57.5">«React component»</text></g></g><g transform="translate(5,5) scale(1,1)"><g><path fill="none" stroke="none"/><text fill="#000000" stroke="none" font-family="Arial" font-size="13px" font-style="normal" font-weight="bold" text-decoration="none" x="538" y="72.5">: ConfirmSignUpFormContainer</text></g></g><g transform="translate(5,5) scale(1,1)"><path fill="none" stroke="#000000" d="M 629.5 80 L 629.5 1224" stroke-miterlimit="10" stroke-dasharray="3"/></g><g transform="translate(5,5) scale(1,1)"><rect fill="#C0C0C0" stroke="none" x="815" y="47" width="156" height="39" opacity="0.2"/></g><g transform="translate(5,5) scale(1,1)"><rect fill="#ffffff" stroke="none" x="808" y="40" width="156" height="39"/></g><g transform="translate(5,5) scale(1,1)"><path fill="none" stroke="#000000" d="M 808 40 L 964 40 L 964 79 L 808 79 L 808 40 Z Z" stroke-miterlimit="10"/></g><g transform="translate(5,5) scale(1,1)"><g><path fill="none" stroke="none"/><text fill="#000000" stroke="none" font-family="Arial" font-size="13px" font-style="normal" font-weight="normal" text-decoration="none" x="828" y="57.5">«React component»</text></g></g><g transform="translate(5,5) scale(1,1)"><g><path fill="none" stroke="none"/><text fill="#000000" stroke="none" font-family="Arial" font-size="13px" font-style="normal" font-weight="bold" text-decoration="none" x="823.5" y="72.5">: ConfirmSignUpForm</text></g></g><g transform="translate(5,5) scale(1,1)"><path fill="none" stroke="#000000" d="M 887.5 80 L 887.5 1224" stroke-miterlimit="10" stroke-dasharray="3"/></g><g transform="translate(5,5) scale(1,1)"><path fill="#000000" stroke="none" d="M 176 167.5 C 176 163.6340064 179.1340064 160.5 183 160.5 C 186.8659936 160.5 190 163.6340064 190 167.5 C 190 171.3659936 186.8659936 174.5 183 174.5 C 179.1340064 174.5 176 171.3659936 176 167.5 Z"/></g><g transform="translate(5,5) scale(1,1)"><path fill="#000000" stroke="none" d="M 24 215.5 C 24 211.6340064 27.1340064 208.5 31 208.5 C 34.8659936 208.5 38 211.6340064 38 215.5 C 38 219.3659936 34.8659936 222.5 31 222.5 C 27.1340064 222.5 24 219.3659936 24 215.5 Z"/></g><g transform="translate(5,5) scale(1,1)"><path fill="#ffffff" stroke="none" d="M 1436.5 60 C 1436.5 51.1634432 1443.6634432 44 1452.5 44 C 1461.3365568 44 1468.5 51.1634432 1468.5 60 C 1468.5 68.8365568 1461.3365568 76 1452.5 76 C 1443.6634432 76 1436.5 68.8365568 1436.5 60 Z"/></g><g transform="translate(5,5) scale(1,1)"><path fill="none" stroke="#000000" d="M 1436.5 60 C 1436.5 51.1634432 1443.6634432 44 1452.5 44 C 1461.3365568 44 1468.5 51.1634432 1468.5 60 C 1468.5 68.8365568 1461.3365568 76 1452.5 76 C 1443.6634432 76 1436.5 68.8365568 1436.5 60 Z" stroke-miterlimit="10"/></g><g transform="translate(5,5) scale(1,1)"><path fill="none" stroke="#000000" d="M 1428.5 44 L 1428.5 76" stroke-miterlimit="10"/></g><g transform="translate(5,5) scale(1,1)"><path fill="none" stroke="#000000" d="M 1428.5 60 L 1436.5 60" stroke-miterlimit="10"/></g><g transform="translate(5,5) scale(1,1)"><g><path fill="none" stroke="none"/><text fill="#000000" stroke="none" font-family="Arial" font-size="13px" font-style="normal" font-weight="bold" text-decoration="none" x="1393.5" y="99.5">: JammerController</text></g></g><g transform="translate(5,5) scale(1,1)"><path fill="none" stroke="#000000" d="M 1449.5 105 L 1449.5 1224" stroke-miterlimit="10" stroke-dasharray="3"/></g><g transform="translate(5,5) scale(1,1)"><path fill="#000000" stroke="none" d="M 1154 231.5 C 1154 227.6340064 1157.1340064 224.5 1161 224.5 C 1164.8659936 224.5 1168 227.6340064 1168 231.5 C 1168 235.3659936 1164.8659936 238.5 1161 238.5 C 1157.1340064 238.5 1154 235.3659936 1154 231.5 Z"/></g><g transform="translate(5,5) scale(1,1)"><path fill="#000000" stroke="none" d="M 1184 231.5 C 1184 227.6340064 1187.1340064 224.5 1191 224.5 C 1194.8659936 224.5 1198 227.6340064 1198 231.5 C 1198 235.3659936 1194.8659936 238.5 1191 238.5 C 1187.1340064 238.5 1184 235.3659936 1184 231.5 Z"/></g><g transform="translate(5,5) scale(1,1)"><path fill="#ffffff" stroke="none" d="M 1741 60 C 1741 51.715728 1747.715728 45 1756 45 C 1764.284272 45 1771 51.715728 1771 60 C 1771 68.284272 1764.284272 75 1756 75 C 1747.715728 75 1741 68.284272 1741 60 Z"/></g><g transform="translate(5,5) scale(1,1)"><path fill="none" stroke="#000000" d="M 1741 60 C 1741 51.715728 1747.715728 45 1756 45 C 1764.284272 45 1771 51.715728 1771 60 C 1771 68.284272 1764.284272 75 1756 75 C 1747.715728 75 1741 68.284272 1741 60 Z" stroke-miterlimit="10"/></g><g transform="translate(5,5) scale(1,1)"><path fill="none" stroke="#000000" d="M 1756 45 L 1761 40" stroke-miterlimit="10"/></g><g transform="translate(5,5) scale(1,1)"><path fill="none" stroke="#000000" d="M 1756 45 L 1761 50" stroke-miterlimit="10"/></g><g transform="translate(5,5) scale(1,1)"><g><path fill="none" stroke="none"/><text fill="#000000" stroke="none" font-family="Arial" font-size="13px" font-style="normal" font-weight="bold" text-decoration="none" x="1703.5" y="99.5">: JammerManager</text></g></g><g transform="translate(5,5) scale(1,1)"><path fill="none" stroke="#000000" d="M 1757.5 105 L 1757.5 1224" stroke-miterlimit="10" stroke-dasharray="3"/></g><g transform="translate(5,5) scale(1,1)"><path fill="#ffffff" stroke="none" d="M 1858 60 C 1858 51.715728 1864.715728 45 1873 45 C 1881.284272 45 1888 51.715728 1888 60 C 1888 68.284272 1881.284272 75 1873 75 C 1864.715728 75 1858 68.284272 1858 60 Z"/></g><g transform="translate(5,5) scale(1,1)"><path fill="none" stroke="#000000" d="M 1858 60 C 1858 51.715728 1864.715728 45 1873 45 C 1881.284272 45 1888 51.715728 1888 60 C 1888 68.284272 1881.284272 75 1873 75 C 1864.715728 75 1858 68.284272 1858 60 Z" stroke-miterlimit="10"/></g><g transform="translate(5,5) scale(1,1)"><path fill="none" stroke="#000000" d="M 1873 45 L 1878 40" stroke-miterlimit="10"/></g><g transform="translate(5,5) scale(1,1)"><path fill="none" stroke="#000000" d="M 1873 45 L 1878 50" stroke-miterlimit="10"/></g><g transform="translate(5,5) scale(1,1)"><g><path fill="none" stroke="none"/><text fill="#000000" stroke="none" font-family="Arial" font-size="13px" font-style="normal" font-weight="bold" text-decoration="none" x="1842" y="99.5">: Serializer</text></g></g><g transform="translate(5,5) scale(1,1)"><path fill="none" stroke="#000000" d="M 1874.5 105 L 1874.5 1224" stroke-miterlimit="10" stroke-dasharray="3"/></g><g transform="translate(5,5) scale(1,1)"><rect fill="#C0C0C0" stroke="none" x="2223" y="47" width="144" height="39" opacity="0.2"/></g><g transform="translate(5,5) scale(1,1)"><rect fill="#ffffff" stroke="none" x="2216" y="40" width="144" height="39"/></g><g transform="translate(5,5) scale(1,1)"><path fill="none" stroke="#000000" d="M 2216 40 L 2360 40 L 2360 79 L 2216 79 L 2216 40 Z Z" stroke-miterlimit="10"/></g><g transform="translate(5,5) scale(1,1)"><g><path fill="none" stroke="none"/><text fill="#000000" stroke="none" font-family="Arial" font-size="13px" font-style="normal" font-weight="normal" text-decoration="none" x="2257" y="57.5">«lifecycle»</text></g></g><g transform="translate(5,5) scale(1,1)"><g><path fill="none" stroke="none"/><text fill="#000000" stroke="none" font-family="Arial" font-size="13px" font-style="normal" font-weight="bold" text-decoration="none" x="2229.5" y="72.5">: JammerRepository</text></g></g><g transform="translate(5,5) scale(1,1)"><path fill="none" stroke="#000000" d="M 2289.5 80 L 2289.5 1224" stroke-miterlimit="10" stroke-dasharray="3"/></g><g transform="translate(5,5) scale(1,1)"><rect fill="#C0C0C0" stroke="none" x="2071" y="47" width="116" height="39" opacity="0.2"/></g><g transform="translate(5,5) scale(1,1)"><rect fill="#ffffff" stroke="none" x="2064" y="40" width="116" height="39"/></g><g transform="translate(5,5) scale(1,1)"><path fill="none" stroke="#000000" d="M 2064 40 L 2180 40 L 2180 79 L 2064 79 L 2064 40 Z Z" stroke-miterlimit="10"/></g><g transform="translate(5,5) scale(1,1)"><g><path fill="none" stroke="none"/><text fill="#000000" stroke="none" font-family="Arial" font-size="13px" font-style="normal" font-weight="normal" text-decoration="none" x="2091" y="57.5">«lifecycle»</text></g></g><g transform="translate(5,5) scale(1,1)"><g><path fill="none" stroke="none"/><text fill="#000000" stroke="none" font-family="Arial" font-size="13px" font-style="normal" font-weight="bold" text-decoration="none" x="2076" y="72.5">: EntityManager</text></g></g><g transform="translate(5,5) scale(1,1)"><path fill="none" stroke="#000000" d="M 2123.5 80 L 2123.5 1224" stroke-miterlimit="10" stroke-dasharray="3"/></g><g transform="translate(5,5) scale(1,1)"><path fill="#ffffff" stroke="none" d="M 1594.5 60 C 1594.5 51.715728 1601.215728 45 1609.5 45 C 1617.784272 45 1624.5 51.715728 1624.5 60 C 1624.5 68.284272 1617.784272 75 1609.5 75 C 1601.215728 75 1594.5 68.284272 1594.5 60 Z"/></g><g transform="translate(5,5) scale(1,1)"><path fill="none" stroke="#000000" d="M 1594.5 60 C 1594.5 51.715728 1601.215728 45 1609.5 45 C 1617.784272 45 1624.5 51.715728 1624.5 60 C 1624.5 68.284272 1617.784272 75 1609.5 75 C 1601.215728 75 1594.5 68.284272 1594.5 60 Z" stroke-miterlimit="10"/></g><g transform="translate(5,5) scale(1,1)"><path fill="none" stroke="#000000" d="M 1609.5 45 L 1614.5 40" stroke-miterlimit="10"/></g><g transform="translate(5,5) scale(1,1)"><path fill="none" stroke="#000000" d="M 1609.5 45 L 1614.5 50" stroke-miterlimit="10"/></g><g transform="translate(5,5) scale(1,1)"><g><path fill="none" stroke="none"/><text fill="#000000" stroke="none" font-family="Arial" font-size="13px" font-style="normal" font-weight="bold" text-decoration="none" x="1560" y="99.5">: JammerHandler</text></g></g><g transform="translate(5,5) scale(1,1)"><path fill="none" stroke="#000000" d="M 1610.5 105 L 1610.5 1224" stroke-miterlimit="10" stroke-dasharray="3"/></g><g transform="translate(5,5) scale(1,1)"><path fill="#ffffff" stroke="none" d="M 1993 60 C 1993 51.1634432 2000.1634432 44 2009 44 C 2017.8365568 44 2025 51.1634432 2025 60 C 2025 68.8365568 2017.8365568 76 2009 76 C 2000.1634432 76 1993 68.8365568 1993 60 Z"/></g><g transform="translate(5,5) scale(1,1)"><path fill="none" stroke="#000000" d="M 1993 60 C 1993 51.1634432 2000.1634432 44 2009 44 C 2017.8365568 44 2025 51.1634432 2025 60 C 2025 68.8365568 2017.8365568 76 2009 76 C 2000.1634432 76 1993 68.8365568 1993 60 Z" stroke-miterlimit="10"/></g><g transform="translate(5,5) scale(1,1)"><path fill="none" stroke="#000000" d="M 1993 76 L 2025 76" stroke-miterlimit="10"/></g><g transform="translate(5,5) scale(1,1)"><g><path fill="none" stroke="none"/><text fill="#000000" stroke="none" font-family="Arial" font-size="13px" font-style="normal" font-weight="bold" text-decoration="none" x="1960" y="99.5">jammer: Jammer</text></g></g><g transform="translate(5,5) scale(1,1)"><path fill="none" stroke="#000000" d="M 2010.5 105 L 2010.5 1224" stroke-miterlimit="10" stroke-dasharray="3"/></g><g transform="translate(5,5) scale(1,1)"><path fill="#ffffff" stroke="none" d="M 384 168 L 605 168 L 615 178 L 615 199 L 384 199 L 384 168"/></g><g transform="translate(5,5) scale(1,1)"><path fill="none" stroke="#000000" d="M 384 168 L 605 168 L 615 178 L 615 199 L 384 199 L 384 168 L 384 168" stroke-miterlimit="10"/></g><g transform="translate(5,5) scale(1,1)"><path fill="none" stroke="#000000" d="M 605 168 L 605 178 L 615 178 L 605 168" stroke-miterlimit="10"/></g><g transform="translate(5,5) scale(1,1)"><g><path fill="none" stroke="none"/><text fill="#000000" stroke="none" font-family="Arial" font-size="13px" font-style="normal" font-weight="normal" text-decoration="none" x="389" y="186">this.props.createUser({email: email})</text></g></g><g transform="translate(5,5) scale(1,1)"><path fill="#000000" stroke="none" d="M 680 687.5 C 680 683.6340064 683.1340064 680.5 687 680.5 C 690.8659936 680.5 694 683.6340064 694 687.5 C 694 691.3659936 690.8659936 694.5 687 694.5 C 683.1340064 694.5 680 691.3659936 680 687.5 Z"/></g><g transform="translate(5,5) scale(1,1)"><path fill="#ffffff" stroke="none" d="M 896 688 L 1165 688 L 1175 698 L 1175 719 L 896 719 L 896 688"/></g><g transform="translate(5,5) scale(1,1)"><path fill="none" stroke="#000000" d="M 896 688 L 1165 688 L 1175 698 L 1175 719 L 896 719 L 896 688 L 896 688" stroke-miterlimit="10"/></g><g transform="translate(5,5) scale(1,1)"><path fill="none" stroke="#000000" d="M 1165 688 L 1165 698 L 1175 698 L 1165 688" stroke-miterlimit="10"/></g><g transform="translate(5,5) scale(1,1)"><g><path fill="none" stroke="none"/><text fill="#000000" stroke="none" font-family="Arial" font-size="13px" font-style="normal" font-weight="normal" text-decoration="none" x="901" y="706">this.props.enableJammer(jammer: jammer})</text></g></g><g transform="translate(5,5) scale(1,1)"><path fill="#000000" stroke="none" d="M 448 728.5 C 448 724.6340064 451.1340064 721.5 455 721.5 C 458.8659936 721.5 462 724.6340064 462 728.5 C 462 732.3659936 458.8659936 735.5 455 735.5 C 451.1340064 735.5 448 732.3659936 448 728.5 Z"/></g><g transform="translate(5,5) scale(1,1)"><path fill="#000000" stroke="none" d="M 1160 759.5 C 1160 755.6340064 1163.1340064 752.5 1167 752.5 C 1170.8659936 752.5 1174 755.6340064 1174 759.5 C 1174 763.3659936 1170.8659936 766.5 1167 766.5 C 1163.1340064 766.5 1160 763.3659936 1160 759.5 Z"/></g><g transform="translate(5,5) scale(1,1)"><path fill="#000000" stroke="none" d="M 1192 759.5 C 1192 755.6340064 1195.1340064 752.5 1199 752.5 C 1202.8659936 752.5 1206 755.6340064 1206 759.5 C 1206 763.3659936 1202.8659936 766.5 1199 766.5 C 1195.1340064 766.5 1192 763.3659936 1192 759.5 Z"/></g><g transform="translate(5,5) scale(1,1)"><path fill="#ffffff" stroke="none" d="M 1768 904 L 1911 904 L 1921 914 L 1921 935 L 1768 935 L 1768 904"/></g><g transform="translate(5,5) scale(1,1)"><path fill="none" stroke="#000000" d="M 1768 904 L 1911 904 L 1921 914 L 1921 935 L 1768 935 L 1768 904 L 1768 904" stroke-miterlimit="10"/></g><g transform="translate(5,5) scale(1,1)"><path fill="none" stroke="#000000" d="M 1911 904 L 1911 914 L 1921 914 L 1911 904" stroke-miterlimit="10"/></g><g transform="translate(5,5) scale(1,1)"><g><path fill="none" stroke="none"/><text fill="#000000" stroke="none" font-family="Arial" font-size="13px" font-style="normal" font-weight="normal" text-decoration="none" x="1773" y="922">jammer.setEnable(true)</text></g></g><g transform="translate(5,5) scale(1,1)"><path fill="none" stroke="#000000" d="M 372 96 L 402 96 L 402 116 L 378 116" stroke-miterlimit="10"/></g><g transform="translate(5,5) scale(1,1)"><path fill="#000000" stroke="none" d="M 388.16267485762415 111.79048224398402 L 378 116 L 388.16267485762415 120.20951775601598"/></g><g transform="translate(5,5) scale(1,1)"><path fill="none" stroke="#000000" d="M 388.16267485762415 111.79048224398402 L 378 116 L 388.16267485762415 120.20951775601598 L 388.16267485762415 111.79048224398402" stroke-miterlimit="10"/></g><g transform="translate(5,5) scale(1,1)"><g><path fill="none" stroke="none"/><text fill="#000000" stroke="none" font-family="Arial" font-size="13px" font-style="normal" font-weight="normal" text-decoration="none" x="375" y="111.5">1 : validate()</text></g></g><g transform="translate(5,5) scale(1,1)"><rect fill="#ffffff" stroke="none" x="365" y="116" width="13" height="28"/></g><g transform="translate(5,5) scale(1,1)"><path fill="none" stroke="#000000" d="M 365 116 L 378 116 L 378 144 L 365 144 L 365 116 Z Z" stroke-miterlimit="10"/></g><g transform="translate(5,5) scale(1,1)"><path fill="none" stroke="#000000" d="M 190 168 L 365 168" stroke-miterlimit="10"/></g><g transform="translate(5,5) scale(1,1)"><path fill="#000000" stroke="none" d="M 354.83732514237585 172.209517756016 L 365 168 L 354.83732514237585 163.790482243984"/></g><g transform="translate(5,5) scale(1,1)"><path fill="none" stroke="#000000" d="M 354.83732514237585 172.209517756016 L 365 168 L 354.83732514237585 163.790482243984 L 354.83732514237585 172.209517756016" stroke-miterlimit="10"/></g><g transform="translate(5,5) scale(1,1)"><g><path fill="none" stroke="none"/><text fill="#000000" stroke="none" font-family="Arial" font-size="13px" font-style="normal" font-weight="normal" text-decoration="none" x="191.5" y="164.5">2 : submitForm(event: Event)</text></g></g><g transform="translate(5,5) scale(1,1)"><rect fill="#ffffff" stroke="none" x="365" y="168" width="13" height="28"/></g><g transform="translate(5,5) scale(1,1)"><path fill="none" stroke="#000000" d="M 365 168 L 378 168 L 378 196 L 365 196 L 365 168 Z Z" stroke-miterlimit="10"/></g><g transform="translate(5,5) scale(1,1)"><path fill="none" stroke="#000000" d="M 38 216 L 95 216" stroke-miterlimit="10"/></g><g transform="translate(5,5) scale(1,1)"><path fill="#000000" stroke="none" d="M 84.83732514237585 220.209517756016 L 95 216 L 84.83732514237585 211.790482243984"/></g><g transform="translate(5,5) scale(1,1)"><path fill="none" stroke="#000000" d="M 84.83732514237585 220.209517756016 L 95 216 L 84.83732514237585 211.790482243984 L 84.83732514237585 220.209517756016" stroke-miterlimit="10"/></g><g transform="translate(5,5) scale(1,1)"><g><path fill="none" stroke="none"/><text fill="#000000" stroke="none" font-family="Arial" font-size="13px" font-style="normal" font-weight="normal" text-decoration="none" x="47.5" y="212.5">3 : createUser(email)</text></g></g><g transform="translate(5,5) scale(1,1)"><rect fill="#ffffff" stroke="none" x="95" y="216" width="13" height="440"/></g><g transform="translate(5,5) scale(1,1)"><path fill="none" stroke="#000000" d="M 95 216 L 108 216 L 108 656 L 95 656 L 95 216 Z Z" stroke-miterlimit="10"/></g><g transform="translate(5,5) scale(1,1)"><path fill="none" stroke="#000000" d="M 108 224 L 1014 224" stroke-miterlimit="10"/></g><g transform="translate(5,5) scale(1,1)"><path fill="#000000" stroke="none" d="M 1003.8373251423759 228.209517756016 L 1014 224 L 1003.8373251423758 219.790482243984"/></g><g transform="translate(5,5) scale(1,1)"><path fill="none" stroke="#000000" d="M 1003.8373251423759 228.209517756016 L 1014 224 L 1003.8373251423758 219.790482243984 L 1003.8373251423759 228.209517756016" stroke-miterlimit="10"/></g><g transform="translate(5,5) scale(1,1)"><g><path fill="none" stroke="none"/><text fill="#000000" stroke="none" font-family="Arial" font-size="13px" font-style="normal" font-weight="normal" text-decoration="none" x="495.5" y="220.5">4 : postJammer(email)</text></g></g><g transform="translate(5,5) scale(1,1)"><rect fill="#ffffff" stroke="none" x="1014" y="224" width="13" height="368"/></g><g transform="translate(5,5) scale(1,1)"><path fill="none" stroke="#000000" d="M 1014 224 L 1027 224 L 1027 592 L 1014 592 L 1014 224 Z Z" stroke-miterlimit="10"/></g><g transform="translate(5,5) scale(1,1)"><path fill="none" stroke="#000000" d="M 1198 232 L 1442 232" stroke-miterlimit="10"/></g><g transform="translate(5,5) scale(1,1)"><path fill="#000000" stroke="none" d="M 1431.837325142376 236.209517756016 L 1442 232 L 1431.837325142376 227.790482243984"/></g><g transform="translate(5,5) scale(1,1)"><path fill="none" stroke="#000000" d="M 1431.837325142376 236.209517756016 L 1442 232 L 1431.837325142376 227.790482243984 L 1431.837325142376 236.209517756016" stroke-miterlimit="10"/></g><g transform="translate(5,5) scale(1,1)"><g><path fill="none" stroke="none"/><text fill="#000000" stroke="none" font-family="Arial" font-size="13px" font-style="normal" font-weight="normal" text-decoration="none" x="1204.5" y="228.5">6 : postJammerAction(request Request)</text></g></g><g transform="translate(5,5) scale(1,1)"><rect fill="#ffffff" stroke="none" x="1442" y="232" width="13" height="344"/></g><g transform="translate(5,5) scale(1,1)"><path fill="none" stroke="#000000" d="M 1442 232 L 1455 232 L 1455 576 L 1442 576 L 1442 232 Z Z" stroke-miterlimit="10"/></g><g transform="translate(5,5) scale(1,1)"><path fill="none" stroke="#000000" d="M 1027 232 L 1154 232" stroke-miterlimit="10"/></g><g transform="translate(5,5) scale(1,1)"><path fill="#000000" stroke="none" d="M 1143.837325142376 236.209517756016 L 1154 232 L 1143.837325142376 227.790482243984"/></g><g transform="translate(5,5) scale(1,1)"><path fill="none" stroke="#000000" d="M 1143.837325142376 236.209517756016 L 1154 232 L 1143.837325142376 227.790482243984 L 1143.837325142376 236.209517756016" stroke-miterlimit="10"/></g><g transform="translate(5,5) scale(1,1)"><g><path fill="none" stroke="none"/><text fill="#000000" stroke="none" font-family="Arial" font-size="13px" font-style="normal" font-weight="normal" text-decoration="none" x="1038.5" y="228.5">5 : POST request</text></g></g><g transform="translate(5,5) scale(1,1)"><path fill="none" stroke="#000000" d="M 1455 240 L 1603 240" stroke-miterlimit="10"/></g><g transform="translate(5,5) scale(1,1)"><path fill="#000000" stroke="none" d="M 1592.837325142376 244.209517756016 L 1603 240 L 1592.837325142376 235.790482243984"/></g><g transform="translate(5,5) scale(1,1)"><path fill="none" stroke="#000000" d="M 1592.837325142376 244.209517756016 L 1603 240 L 1592.837325142376 235.790482243984 L 1592.837325142376 244.209517756016" stroke-miterlimit="10"/></g><g transform="translate(5,5) scale(1,1)"><g><path fill="none" stroke="none"/><text fill="#000000" stroke="none" font-family="Arial" font-size="13px" font-style="normal" font-weight="normal" text-decoration="none" x="1481.5" y="236.5">7 : create(email)</text></g></g><g transform="translate(5,5) scale(1,1)"><rect fill="#ffffff" stroke="none" x="1603" y="240" width="13" height="208"/></g><g transform="translate(5,5) scale(1,1)"><path fill="none" stroke="#000000" d="M 1603 240 L 1616 240 L 1616 448 L 1603 448 L 1603 240 Z Z" stroke-miterlimit="10"/></g><g transform="translate(5,5) scale(1,1)"><path fill="none" stroke="#000000" d="M 1616 248 L 2003 248" stroke-miterlimit="10"/></g><g transform="translate(5,5) scale(1,1)"><path fill="#000000" stroke="none" d="M 1992.837325142376 252.209517756016 L 2003 248 L 1992.837325142376 243.790482243984"/></g><g transform="translate(5,5) scale(1,1)"><path fill="none" stroke="#000000" d="M 1992.837325142376 252.209517756016 L 2003 248 L 1992.837325142376 243.790482243984 L 1992.837325142376 252.209517756016" stroke-miterlimit="10"/></g><g transform="translate(5,5) scale(1,1)"><g><path fill="none" stroke="none"/><text fill="#000000" stroke="none" font-family="Arial" font-size="13px" font-style="normal" font-weight="normal" text-decoration="none" x="1777" y="244.5">8 : create()</text></g></g><g transform="translate(5,5) scale(1,1)"><rect fill="#ffffff" stroke="none" x="2003" y="248" width="13" height="28"/></g><g transform="translate(5,5) scale(1,1)"><path fill="none" stroke="#000000" d="M 2003 248 L 2016 248 L 2016 276 L 2003 276 L 2003 248 Z Z" stroke-miterlimit="10"/></g><g transform="translate(5,5) scale(1,1)"><path fill="none" stroke="#000000" d="M 2003 264 L 1616 264" stroke-miterlimit="10" stroke-dasharray="3"/></g><g transform="translate(5,5) scale(1,1)"><path fill="none" stroke="#000000" d="M 1626.162674857624 259.790482243984 L 1616 264 L 1626.162674857624 268.209517756016" stroke-miterlimit="10"/></g><g transform="translate(5,5) scale(1,1)"><g><path fill="none" stroke="none"/><text fill="#000000" stroke="none" font-family="Arial" font-size="13px" font-style="normal" font-weight="normal" text-decoration="none" x="1776.5" y="280.5">9 : jammer</text></g></g><g transform="translate(5,5) scale(1,1)"><path fill="none" stroke="#000000" d="M 1616 312 L 2116 312" stroke-miterlimit="10"/></g><g transform="translate(5,5) scale(1,1)"><path fill="#000000" stroke="none" d="M 2105.837325142376 316.209517756016 L 2116 312 L 2105.837325142376 307.790482243984"/></g><g transform="translate(5,5) scale(1,1)"><path fill="none" stroke="#000000" d="M 2105.837325142376 316.209517756016 L 2116 312 L 2105.837325142376 307.790482243984 L 2105.837325142376 316.209517756016" stroke-miterlimit="10"/></g><g transform="translate(5,5) scale(1,1)"><g><path fill="none" stroke="none"/><text fill="#000000" stroke="none" font-family="Arial" font-size="13px" font-style="normal" font-weight="normal" text-decoration="none" x="1767.5" y="308.5">10 : persist(domainObject: object)</text></g></g><g transform="translate(5,5) scale(1,1)"><rect fill="#ffffff" stroke="none" x="2116" y="312" width="13" height="28"/></g><g transform="translate(5,5) scale(1,1)"><path fill="none" stroke="#000000" d="M 2116 312 L 2129 312 L 2129 340 L 2116 340 L 2116 312 Z Z" stroke-miterlimit="10"/></g><g transform="translate(5,5) scale(1,1)"><path fill="none" stroke="#000000" d="M 1616 356 L 2116 356" stroke-miterlimit="10"/></g><g transform="translate(5,5) scale(1,1)"><path fill="#000000" stroke="none" d="M 2105.837325142376 360.209517756016 L 2116 356 L 2105.837325142376 351.790482243984"/></g><g transform="translate(5,5) scale(1,1)"><path fill="none" stroke="#000000" d="M 2105.837325142376 360.209517756016 L 2116 356 L 2105.837325142376 351.790482243984 L 2105.837325142376 360.209517756016" stroke-miterlimit="10"/></g><g transform="translate(5,5) scale(1,1)"><g><path fill="none" stroke="none"/><text fill="#000000" stroke="none" font-family="Arial" font-size="13px" font-style="normal" font-weight="normal" text-decoration="none" x="1755.5" y="352.5">11 : flush(domainObject: object = null)</text></g></g><g transform="translate(5,5) scale(1,1)"><rect fill="#ffffff" stroke="none" x="2116" y="356" width="13" height="28"/></g><g transform="translate(5,5) scale(1,1)"><path fill="none" stroke="#000000" d="M 2116 356 L 2129 356 L 2129 384 L 2116 384 L 2116 356 Z Z" stroke-miterlimit="10"/></g><g transform="translate(5,5) scale(1,1)"><path fill="none" stroke="#000000" d="M 1616 376 L 1646 376 L 1646 396 L 1623 396" stroke-miterlimit="10"/></g><g transform="translate(5,5) scale(1,1)"><path fill="#000000" stroke="none" d="M 1633.162674857624 391.790482243984 L 1623 396 L 1633.162674857624 400.209517756016"/></g><g transform="translate(5,5) scale(1,1)"><path fill="none" stroke="#000000" d="M 1633.162674857624 391.790482243984 L 1623 396 L 1633.162674857624 400.209517756016 L 1633.162674857624 391.790482243984" stroke-miterlimit="10"/></g><g transform="translate(5,5) scale(1,1)"><g><path fill="none" stroke="none"/><text fill="#000000" stroke="none" font-family="Arial" font-size="13px" font-style="normal" font-weight="normal" text-decoration="none" x="1558.5" y="391.5">12 : sendEmail(jammer: Jammer)</text></g></g><g transform="translate(5,5) scale(1,1)"><rect fill="#ffffff" stroke="none" x="1610" y="396" width="13" height="28"/></g><g transform="translate(5,5) scale(1,1)"><path fill="none" stroke="#000000" d="M 1610 396 L 1623 396 L 1623 424 L 1610 424 L 1610 396 Z Z" stroke-miterlimit="10"/></g><g transform="translate(5,5) scale(1,1)"><path fill="none" stroke="#000000" d="M 1603 440 L 1455 440" stroke-miterlimit="10" stroke-dasharray="3"/></g><g transform="translate(5,5) scale(1,1)"><path fill="none" stroke="#000000" d="M 1465.162674857624 435.790482243984 L 1455 440 L 1465.162674857624 444.209517756016" stroke-miterlimit="10"/></g><g transform="translate(5,5) scale(1,1)"><g><path fill="none" stroke="none"/><text fill="#000000" stroke="none" font-family="Arial" font-size="13px" font-style="normal" font-weight="normal" text-decoration="none" x="1493.5" y="456.5">13 : jammer</text></g></g><g transform="translate(5,5) scale(1,1)"><path fill="none" stroke="#000000" d="M 1455 472 L 1485 472 L 1485 492 L 1462 492" stroke-miterlimit="10"/></g><g transform="translate(5,5) scale(1,1)"><path fill="#000000" stroke="none" d="M 1472.162674857624 487.790482243984 L 1462 492 L 1472.162674857624 496.209517756016"/></g><g transform="translate(5,5) scale(1,1)"><path fill="none" stroke="#000000" d="M 1472.162674857624 487.790482243984 L 1462 492 L 1472.162674857624 496.209517756016 L 1472.162674857624 487.790482243984" stroke-miterlimit="10"/></g><g transform="translate(5,5) scale(1,1)"><g><path fill="none" stroke="none"/><text fill="#000000" stroke="none" font-family="Arial" font-size="13px" font-style="normal" font-weight="normal" text-decoration="none" x="1375.5" y="487.5">14 : renderToJson(domainObject: object)</text></g></g><g transform="translate(5,5) scale(1,1)"><rect fill="#ffffff" stroke="none" x="1449" y="492" width="13" height="68"/></g><g transform="translate(5,5) scale(1,1)"><path fill="none" stroke="#000000" d="M 1449 492 L 1462 492 L 1462 560 L 1449 560 L 1449 492 Z Z" stroke-miterlimit="10"/></g><g transform="translate(5,5) scale(1,1)"><path fill="none" stroke="#000000" d="M 1462 512 L 1867 512" stroke-miterlimit="10"/></g><g transform="translate(5,5) scale(1,1)"><path fill="#000000" stroke="none" d="M 1856.837325142376 516.209517756016 L 1867 512 L 1856.837325142376 507.790482243984"/></g><g transform="translate(5,5) scale(1,1)"><path fill="none" stroke="#000000" d="M 1856.837325142376 516.209517756016 L 1867 512 L 1856.837325142376 507.790482243984 L 1856.837325142376 516.209517756016" stroke-miterlimit="10"/></g><g transform="translate(5,5) scale(1,1)"><g><path fill="none" stroke="none"/><text fill="#000000" stroke="none" font-family="Arial" font-size="13px" font-style="normal" font-weight="normal" text-decoration="none" x="1583.5" y="508.5">15 : serialize(object: object)</text></g></g><g transform="translate(5,5) scale(1,1)"><rect fill="#ffffff" stroke="none" x="1867" y="512" width="13" height="28"/></g><g transform="translate(5,5) scale(1,1)"><path fill="none" stroke="#000000" d="M 1867 512 L 1880 512 L 1880 540 L 1867 540 L 1867 512 Z Z" stroke-miterlimit="10"/></g><g transform="translate(5,5) scale(1,1)"><path fill="none" stroke="#000000" d="M 1867 536 L 1462 536" stroke-miterlimit="10" stroke-dasharray="3"/></g><g transform="translate(5,5) scale(1,1)"><path fill="none" stroke="#000000" d="M 1472.162674857624 531.790482243984 L 1462 536 L 1472.162674857624 540.209517756016" stroke-miterlimit="10"/></g><g transform="translate(5,5) scale(1,1)"><g><path fill="none" stroke="none"/><text fill="#000000" stroke="none" font-family="Arial" font-size="13px" font-style="normal" font-weight="normal" text-decoration="none" x="1637.5" y="552.5">16 : data</text></g></g><g transform="translate(5,5) scale(1,1)"><path fill="none" stroke="#000000" d="M 1442 568 L 1027 568" stroke-miterlimit="10" stroke-dasharray="3"/></g><g transform="translate(5,5) scale(1,1)"><path fill="none" stroke="#000000" d="M 1037.162674857624 563.790482243984 L 1027 568 L 1037.162674857624 572.209517756016" stroke-miterlimit="10"/></g><g transform="translate(5,5) scale(1,1)"><g><path fill="none" stroke="none"/><text fill="#000000" stroke="none" font-family="Arial" font-size="13px" font-style="normal" font-weight="normal" text-decoration="none" x="1193.5" y="584.5">17 : response</text></g></g><g transform="translate(5,5) scale(1,1)"><path fill="none" stroke="#000000" d="M 1014 584 L 108 584" stroke-miterlimit="10" stroke-dasharray="3"/></g><g transform="translate(5,5) scale(1,1)"><path fill="none" stroke="#000000" d="M 118.16267485762415 579.790482243984 L 108 584 L 118.16267485762415 588.209517756016" stroke-miterlimit="10"/></g><g transform="translate(5,5) scale(1,1)"><g><path fill="none" stroke="none"/><text fill="#000000" stroke="none" font-family="Arial" font-size="13px" font-style="normal" font-weight="normal" text-decoration="none" x="525.5" y="600.5">18 : jammer</text></g></g><g transform="translate(5,5) scale(1,1)"><path fill="none" stroke="#000000" d="M 108 600 L 138 600 L 138 620 L 115 620" stroke-miterlimit="10"/></g><g transform="translate(5,5) scale(1,1)"><path fill="#000000" stroke="none" d="M 125.16267485762415 615.790482243984 L 115 620 L 125.16267485762415 624.209517756016"/></g><g transform="translate(5,5) scale(1,1)"><path fill="none" stroke="#000000" d="M 125.16267485762415 615.790482243984 L 115 620 L 125.16267485762415 624.209517756016 L 125.16267485762415 615.790482243984" stroke-miterlimit="10"/></g><g transform="translate(5,5) scale(1,1)"><g><path fill="none" stroke="none"/><text fill="#000000" stroke="none" font-family="Arial" font-size="13px" font-style="normal" font-weight="normal" text-decoration="none" x="83.5" y="615.5">19 : setState(jammer)</text></g></g><g transform="translate(5,5) scale(1,1)"><rect fill="#ffffff" stroke="none" x="102" y="620" width="13" height="28"/></g><g transform="translate(5,5) scale(1,1)"><path fill="none" stroke="#000000" d="M 102 620 L 115 620 L 115 648 L 102 648 L 102 620 Z Z" stroke-miterlimit="10"/></g><g transform="translate(5,5) scale(1,1)"><path fill="none" stroke="#000000" d="M 887 616 L 917 616 L 917 636 L 893 636" stroke-miterlimit="10"/></g><g transform="translate(5,5) scale(1,1)"><path fill="#000000" stroke="none" d="M 903.1626748576241 631.790482243984 L 893 636 L 903.1626748576241 640.209517756016"/></g><g transform="translate(5,5) scale(1,1)"><path fill="none" stroke="#000000" d="M 903.1626748576241 631.790482243984 L 893 636 L 903.1626748576241 640.209517756016 L 903.1626748576241 631.790482243984" stroke-miterlimit="10"/></g><g transform="translate(5,5) scale(1,1)"><g><path fill="none" stroke="none"/><text fill="#000000" stroke="none" font-family="Arial" font-size="13px" font-style="normal" font-weight="normal" text-decoration="none" x="886.5" y="631.5">20 : validate()</text></g></g><g transform="translate(5,5) scale(1,1)"><rect fill="#ffffff" stroke="none" x="880" y="636" width="13" height="28"/></g><g transform="translate(5,5) scale(1,1)"><path fill="none" stroke="#000000" d="M 880 636 L 893 636 L 893 664 L 880 664 L 880 636 Z Z" stroke-miterlimit="10"/></g><g transform="translate(5,5) scale(1,1)"><path fill="none" stroke="#000000" d="M 694 688 L 880 688" stroke-miterlimit="10"/></g><g transform="translate(5,5) scale(1,1)"><path fill="#000000" stroke="none" d="M 869.8373251423759 692.209517756016 L 880 688 L 869.8373251423758 683.790482243984"/></g><g transform="translate(5,5) scale(1,1)"><path fill="none" stroke="#000000" d="M 869.8373251423759 692.209517756016 L 880 688 L 869.8373251423758 683.790482243984 L 869.8373251423759 692.209517756016" stroke-miterlimit="10"/></g><g transform="translate(5,5) scale(1,1)"><g><path fill="none" stroke="none"/><text fill="#000000" stroke="none" font-family="Arial" font-size="13px" font-style="normal" font-weight="normal" text-decoration="none" x="698.5" y="684.5">21 : submitForm(event: Event)</text></g></g><g transform="translate(5,5) scale(1,1)"><rect fill="#ffffff" stroke="none" x="880" y="688" width="13" height="28"/></g><g transform="translate(5,5) scale(1,1)"><path fill="none" stroke="#000000" d="M 880 688 L 893 688 L 893 716 L 880 716 L 880 688 Z Z" stroke-miterlimit="10"/></g><g transform="translate(5,5) scale(1,1)"><path fill="none" stroke="#000000" d="M 462 729 L 622 729" stroke-miterlimit="10"/></g><g transform="translate(5,5) scale(1,1)"><path fill="#000000" stroke="none" d="M 611.8373251423759 733.209517756016 L 622 729 L 611.8373251423758 724.790482243984"/></g><g transform="translate(5,5) scale(1,1)"><path fill="none" stroke="#000000" d="M 611.8373251423759 733.209517756016 L 622 729 L 611.8373251423758 724.790482243984 L 611.8373251423759 733.209517756016" stroke-miterlimit="10"/></g><g transform="translate(5,5) scale(1,1)"><g><path fill="none" stroke="none"/><text fill="#000000" stroke="none" font-family="Arial" font-size="13px" font-style="normal" font-weight="normal" text-decoration="none" x="470.5" y="725.5">22 : enableUser(jammer)</text></g></g><g transform="translate(5,5) scale(1,1)"><rect fill="#ffffff" stroke="none" x="622" y="729" width="13" height="471"/></g><g transform="translate(5,5) scale(1,1)"><path fill="none" stroke="#000000" d="M 622 729 L 635 729 L 635 1200 L 622 1200 L 622 729 Z Z" stroke-miterlimit="10"/></g><g transform="translate(5,5) scale(1,1)"><path fill="none" stroke="#000000" d="M 635 747 L 1014 747" stroke-miterlimit="10"/></g><g transform="translate(5,5) scale(1,1)"><path fill="#000000" stroke="none" d="M 1003.8373251423759 751.209517756016 L 1014 747 L 1003.8373251423758 742.790482243984"/></g><g transform="translate(5,5) scale(1,1)"><path fill="none" stroke="#000000" d="M 1003.8373251423759 751.209517756016 L 1014 747 L 1003.8373251423758 742.790482243984 L 1003.8373251423759 751.209517756016" stroke-miterlimit="10"/></g><g transform="translate(5,5) scale(1,1)"><g><path fill="none" stroke="none"/><text fill="#000000" stroke="none" font-family="Arial" font-size="13px" font-style="normal" font-weight="normal" text-decoration="none" x="748.5" y="743.5">23 : patchUser(data: json)</text></g></g><g transform="translate(5,5) scale(1,1)"><rect fill="#ffffff" stroke="none" x="1014" y="747" width="13" height="381"/></g><g transform="translate(5,5) scale(1,1)"><path fill="none" stroke="#000000" d="M 1014 747 L 1027 747 L 1027 1128 L 1014 1128 L 1014 747 Z Z" stroke-miterlimit="10"/></g><g transform="translate(5,5) scale(1,1)"><path fill="none" stroke="#000000" d="M 1027 760 L 1160 760" stroke-miterlimit="10"/></g><g transform="translate(5,5) scale(1,1)"><path fill="#000000" stroke="none" d="M 1149.837325142376 764.209517756016 L 1160 760 L 1149.837325142376 755.790482243984"/></g><g transform="translate(5,5) scale(1,1)"><path fill="none" stroke="#000000" d="M 1149.837325142376 764.209517756016 L 1160 760 L 1149.837325142376 755.790482243984 L 1149.837325142376 764.209517756016" stroke-miterlimit="10"/></g><g transform="translate(5,5) scale(1,1)"><g><path fill="none" stroke="none"/><text fill="#000000" stroke="none" font-family="Arial" font-size="13px" font-style="normal" font-weight="normal" text-decoration="none" x="1034.5" y="756.5">24 : PATCH request</text></g></g><g transform="translate(5,5) scale(1,1)"><path fill="none" stroke="#000000" d="M 1206 760 L 1442 760" stroke-miterlimit="10"/></g><g transform="translate(5,5) scale(1,1)"><path fill="#000000" stroke="none" d="M 1431.837325142376 764.209517756016 L 1442 760 L 1431.837325142376 755.790482243984"/></g><g transform="translate(5,5) scale(1,1)"><path fill="none" stroke="#000000" d="M 1431.837325142376 764.209517756016 L 1442 760 L 1431.837325142376 755.790482243984 L 1431.837325142376 764.209517756016" stroke-miterlimit="10"/></g><g transform="translate(5,5) scale(1,1)"><g><path fill="none" stroke="none"/><text fill="#000000" stroke="none" font-family="Arial" font-size="13px" font-style="normal" font-weight="normal" text-decoration="none" x="1201.5" y="756.5">25 : patchJammerAction(request Request)</text></g></g><g transform="translate(5,5) scale(1,1)"><rect fill="#ffffff" stroke="none" x="1442" y="760" width="13" height="344"/></g><g transform="translate(5,5) scale(1,1)"><path fill="none" stroke="#000000" d="M 1442 760 L 1455 760 L 1455 1104 L 1442 1104 L 1442 760 Z Z" stroke-miterlimit="10"/></g><g transform="translate(5,5) scale(1,1)"><path fill="none" stroke="#000000" d="M 1455 773 L 1750 773" stroke-miterlimit="10"/></g><g transform="translate(5,5) scale(1,1)"><path fill="#000000" stroke="none" d="M 1739.837325142376 777.209517756016 L 1750 773 L 1739.837325142376 768.790482243984"/></g><g transform="translate(5,5) scale(1,1)"><path fill="none" stroke="#000000" d="M 1739.837325142376 777.209517756016 L 1750 773 L 1739.837325142376 768.790482243984 L 1739.837325142376 777.209517756016" stroke-miterlimit="10"/></g><g transform="translate(5,5) scale(1,1)"><g><path fill="none" stroke="none"/><text fill="#000000" stroke="none" font-family="Arial" font-size="13px" font-style="normal" font-weight="normal" text-decoration="none" x="1535.5" y="769.5">26 : getByEmail(email)</text></g></g><g transform="translate(5,5) scale(1,1)"><rect fill="#ffffff" stroke="none" x="1750" y="773" width="13" height="195"/></g><g transform="translate(5,5) scale(1,1)"><path fill="none" stroke="#000000" d="M 1750 773 L 1763 773 L 1763 968 L 1750 968 L 1750 773 Z Z" stroke-miterlimit="10"/></g><g transform="translate(5,5) scale(1,1)"><path fill="none" stroke="#000000" d="M 1763 784 L 2116 784" stroke-miterlimit="10"/></g><g transform="translate(5,5) scale(1,1)"><path fill="#000000" stroke="none" d="M 2105.837325142376 788.209517756016 L 2116 784 L 2105.837325142376 779.790482243984"/></g><g transform="translate(5,5) scale(1,1)"><path fill="none" stroke="#000000" d="M 2105.837325142376 788.209517756016 L 2116 784 L 2105.837325142376 779.790482243984 L 2105.837325142376 788.209517756016" stroke-miterlimit="10"/></g><g transform="translate(5,5) scale(1,1)"><g><path fill="none" stroke="none"/><text fill="#000000" stroke="none" font-family="Arial" font-size="13px" font-style="normal" font-weight="normal" text-decoration="none" x="1858.5" y="780.5">27 : getJammerRepository()</text></g></g><g transform="translate(5,5) scale(1,1)"><rect fill="#ffffff" stroke="none" x="2116" y="784" width="13" height="28"/></g><g transform="translate(5,5) scale(1,1)"><path fill="none" stroke="#000000" d="M 2116 784 L 2129 784 L 2129 812 L 2116 812 L 2116 784 Z Z" stroke-miterlimit="10"/></g><g transform="translate(5,5) scale(1,1)"><path fill="none" stroke="#000000" d="M 2116 804 L 1763 804" stroke-miterlimit="10" stroke-dasharray="3"/></g><g transform="translate(5,5) scale(1,1)"><path fill="none" stroke="#000000" d="M 1773.162674857624 799.790482243984 L 1763 804 L 1773.162674857624 808.209517756016" stroke-miterlimit="10"/></g><g transform="translate(5,5) scale(1,1)"><g><path fill="none" stroke="none"/><text fill="#000000" stroke="none" font-family="Arial" font-size="13px" font-style="normal" font-weight="normal" text-decoration="none" x="1872.5" y="820.5">28 : jammerRepository</text></g></g><g transform="translate(5,5) scale(1,1)"><path fill="none" stroke="#000000" d="M 1763 853 L 2282 853" stroke-miterlimit="10"/></g><g transform="translate(5,5) scale(1,1)"><path fill="#000000" stroke="none" d="M 2271.837325142376 857.209517756016 L 2282 853 L 2271.837325142376 848.790482243984"/></g><g transform="translate(5,5) scale(1,1)"><path fill="none" stroke="#000000" d="M 2271.837325142376 857.209517756016 L 2282 853 L 2271.837325142376 848.790482243984 L 2271.837325142376 857.209517756016" stroke-miterlimit="10"/></g><g transform="translate(5,5) scale(1,1)"><g><path fill="none" stroke="none"/><text fill="#000000" stroke="none" font-family="Arial" font-size="13px" font-style="normal" font-weight="normal" text-decoration="none" x="1954.5" y="849.5">29 : findByEmail(email)</text></g></g><g transform="translate(5,5) scale(1,1)"><rect fill="#ffffff" stroke="none" x="2282" y="853" width="13" height="28"/></g><g transform="translate(5,5) scale(1,1)"><path fill="none" stroke="#000000" d="M 2282 853 L 2295 853 L 2295 881 L 2282 881 L 2282 853 Z Z" stroke-miterlimit="10"/></g><g transform="translate(5,5) scale(1,1)"><path fill="none" stroke="#000000" d="M 2282 872 L 1763 872" stroke-miterlimit="10" stroke-dasharray="3"/></g><g transform="translate(5,5) scale(1,1)"><path fill="none" stroke="#000000" d="M 1773.162674857624 867.790482243984 L 1763 872 L 1773.162674857624 876.209517756016" stroke-miterlimit="10"/></g><g transform="translate(5,5) scale(1,1)"><g><path fill="none" stroke="none"/><text fill="#000000" stroke="none" font-family="Arial" font-size="13px" font-style="normal" font-weight="normal" text-decoration="none" x="1986.5" y="888.5">30 : jammer</text></g></g><g transform="translate(5,5) scale(1,1)"><path fill="none" stroke="#000000" d="M 1750 960 L 1455 960" stroke-miterlimit="10" stroke-dasharray="3"/></g><g transform="translate(5,5) scale(1,1)"><path fill="none" stroke="#000000" d="M 1465.162674857624 955.790482243984 L 1455 960 L 1465.162674857624 964.209517756016" stroke-miterlimit="10"/></g><g transform="translate(5,5) scale(1,1)"><g><path fill="none" stroke="none"/><text fill="#000000" stroke="none" font-family="Arial" font-size="13px" font-style="normal" font-weight="normal" text-decoration="none" x="1566.5" y="976.5">31 : jammer</text></g></g><g transform="translate(5,5) scale(1,1)"><path fill="none" stroke="#000000" d="M 1763 960 L 2116 960" stroke-miterlimit="10"/></g><g transform="translate(5,5) scale(1,1)"><path fill="#000000" stroke="none" d="M 2105.837325142376 964.209517756016 L 2116 960 L 2105.837325142376 955.790482243984"/></g><g transform="translate(5,5) scale(1,1)"><path fill="none" stroke="#000000" d="M 2105.837325142376 964.209517756016 L 2116 960 L 2105.837325142376 955.790482243984 L 2105.837325142376 964.209517756016" stroke-miterlimit="10"/></g><g transform="translate(5,5) scale(1,1)"><g><path fill="none" stroke="none"/><text fill="#000000" stroke="none" font-family="Arial" font-size="13px" font-style="normal" font-weight="normal" text-decoration="none" x="1828.5" y="956.5">32 : flush(domainObject: object = null)</text></g></g><g transform="translate(5,5) scale(1,1)"><rect fill="#ffffff" stroke="none" x="2116" y="960" width="13" height="28"/></g><g transform="translate(5,5) scale(1,1)"><path fill="none" stroke="#000000" d="M 2116 960 L 2129 960 L 2129 988 L 2116 988 L 2116 960 Z Z" stroke-miterlimit="10"/></g><g transform="translate(5,5) scale(1,1)"><path fill="none" stroke="#000000" d="M 1455 992 L 1485 992 L 1485 1012 L 1462 1012" stroke-miterlimit="10"/></g><g transform="translate(5,5) scale(1,1)"><path fill="#000000" stroke="none" d="M 1472.162674857624 1007.790482243984 L 1462 1012 L 1472.162674857624 1016.209517756016"/></g><g transform="translate(5,5) scale(1,1)"><path fill="none" stroke="#000000" d="M 1472.162674857624 1007.790482243984 L 1462 1012 L 1472.162674857624 1016.209517756016 L 1472.162674857624 1007.790482243984" stroke-miterlimit="10"/></g><g transform="translate(5,5) scale(1,1)"><g><path fill="none" stroke="none"/><text fill="#000000" stroke="none" font-family="Arial" font-size="13px" font-style="normal" font-weight="normal" text-decoration="none" x="1375.5" y="1007.5">33 : renderToJson(domainObject: object)</text></g></g><g transform="translate(5,5) scale(1,1)"><rect fill="#ffffff" stroke="none" x="1449" y="1012" width="13" height="76"/></g><g transform="translate(5,5) scale(1,1)"><path fill="none" stroke="#000000" d="M 1449 1012 L 1462 1012 L 1462 1088 L 1449 1088 L 1449 1012 Z Z" stroke-miterlimit="10"/></g><g transform="translate(5,5) scale(1,1)"><path fill="none" stroke="#000000" d="M 1462 1040 L 1867 1040" stroke-miterlimit="10"/></g><g transform="translate(5,5) scale(1,1)"><path fill="#000000" stroke="none" d="M 1856.837325142376 1044.2095177560159 L 1867 1040 L 1856.837325142376 1035.7904822439841"/></g><g transform="translate(5,5) scale(1,1)"><path fill="none" stroke="#000000" d="M 1856.837325142376 1044.2095177560159 L 1867 1040 L 1856.837325142376 1035.7904822439841 L 1856.837325142376 1044.2095177560159" stroke-miterlimit="10"/></g><g transform="translate(5,5) scale(1,1)"><g><path fill="none" stroke="none"/><text fill="#000000" stroke="none" font-family="Arial" font-size="13px" font-style="normal" font-weight="normal" text-decoration="none" x="1583.5" y="1036.5">34 : serialize(object: object)</text></g></g><g transform="translate(5,5) scale(1,1)"><rect fill="#ffffff" stroke="none" x="1867" y="1040" width="13" height="28"/></g><g transform="translate(5,5) scale(1,1)"><path fill="none" stroke="#000000" d="M 1867 1040 L 1880 1040 L 1880 1068 L 1867 1068 L 1867 1040 Z Z" stroke-miterlimit="10"/></g><g transform="translate(5,5) scale(1,1)"><path fill="none" stroke="#000000" d="M 1867 1056 L 1462 1056" stroke-miterlimit="10" stroke-dasharray="3"/></g><g transform="translate(5,5) scale(1,1)"><path fill="none" stroke="#000000" d="M 1472.162674857624 1051.7904822439841 L 1462 1056 L 1472.162674857624 1060.2095177560159" stroke-miterlimit="10"/></g><g transform="translate(5,5) scale(1,1)"><g><path fill="none" stroke="none"/><text fill="#000000" stroke="none" font-family="Arial" font-size="13px" font-style="normal" font-weight="normal" text-decoration="none" x="1637.5" y="1072.5">35 : data</text></g></g><g transform="translate(5,5) scale(1,1)"><path fill="none" stroke="#000000" d="M 1442 1096 L 1027 1096" stroke-miterlimit="10" stroke-dasharray="3"/></g><g transform="translate(5,5) scale(1,1)"><path fill="none" stroke="#000000" d="M 1037.162674857624 1091.7904822439841 L 1027 1096 L 1037.162674857624 1100.2095177560159" stroke-miterlimit="10"/></g><g transform="translate(5,5) scale(1,1)"><g><path fill="none" stroke="none"/><text fill="#000000" stroke="none" font-family="Arial" font-size="13px" font-style="normal" font-weight="normal" text-decoration="none" x="1193.5" y="1112.5">36 : response</text></g></g><g transform="translate(5,5) scale(1,1)"><path fill="none" stroke="#000000" d="M 1014 1120 L 635 1120" stroke-miterlimit="10" stroke-dasharray="3"/></g><g transform="translate(5,5) scale(1,1)"><path fill="none" stroke="#000000" d="M 645.1626748576241 1115.7904822439841 L 635 1120 L 645.1626748576241 1124.2095177560159" stroke-miterlimit="10"/></g><g transform="translate(5,5) scale(1,1)"><g><path fill="none" stroke="none"/><text fill="#000000" stroke="none" font-family="Arial" font-size="13px" font-style="normal" font-weight="normal" text-decoration="none" x="788.5" y="1136.5">37 : jammer</text></g></g><g transform="translate(5,5) scale(1,1)"><path fill="none" stroke="#000000" d="M 635 1136 L 665 1136 L 665 1156 L 642 1156" stroke-miterlimit="10"/></g><g transform="translate(5,5) scale(1,1)"><path fill="#000000" stroke="none" d="M 652.1626748576241 1151.7904822439841 L 642 1156 L 652.1626748576241 1160.2095177560159"/></g><g transform="translate(5,5) scale(1,1)"><path fill="none" stroke="#000000" d="M 652.1626748576241 1151.7904822439841 L 642 1156 L 652.1626748576241 1160.2095177560159 L 652.1626748576241 1151.7904822439841" stroke-miterlimit="10"/></g><g transform="translate(5,5) scale(1,1)"><g><path fill="none" stroke="none"/><text fill="#000000" stroke="none" font-family="Arial" font-size="13px" font-style="normal" font-weight="normal" text-decoration="none" x="610.5" y="1151.5">38 : setState(jammer)</text></g></g><g transform="translate(5,5) scale(1,1)"><rect fill="#ffffff" stroke="none" x="629" y="1156" width="13" height="28"/></g><g transform="translate(5,5) scale(1,1)"><path fill="none" stroke="#000000" d="M 629 1156 L 642 1156 L 642 1184 L 629 1184 L 629 1156 Z Z" stroke-miterlimit="10"/></g></g></svg>