<svg version="1.1" xmlns="http://www.w3.org/2000/svg" xmlns:xlink="http://www.w3.org/1999/xlink" width="845" height="901"><defs/><g><g transform="translate(-14,-6) scale(1,1)"><path fill="#C0C0C0" stroke="none" d="M 414 32.5 C 414 27.2532944 418.2532944 23 423.5 23 C 428.7467056 23 433 27.2532944 433 32.5 C 433 37.7467056 428.7467056 42 423.5 42 C 418.2532944 42 414 37.7467056 414 32.5 Z" opacity="0.2"/></g><g transform="translate(-14,-6) scale(1,1)"><path fill="#000000" stroke="none" d="M 407 25.5 C 407 20.2532944 411.2532944 16 416.5 16 C 421.7467056 16 426 20.2532944 426 25.5 C 426 30.7467056 421.7467056 35 416.5 35 C 411.2532944 35 407 30.7467056 407 25.5 Z"/></g><g transform="translate(-14,-6) scale(1,1)"><path fill="#C0C0C0" stroke="none" d="M 348 71 L 499 71 Q 509 71 509 81 L 509 101 Q 509 111 499 111 L 348 111 Q 338 111 338 101 L 338 81 Q 338 71 348 71 Z" opacity="0.2"/></g><g transform="translate(-14,-6) scale(1,1)"><path fill="#ffffff" stroke="none" d="M 341 64 L 492 64 Q 502 64 502 74 L 502 94 Q 502 104 492 104 L 341 104 Q 331 104 331 94 L 331 74 Q 331 64 341 64 Z"/></g><g transform="translate(-14,-6) scale(1,1)"><path fill="none" stroke="#000000" d="M 341 64 L 492 64 Q 502 64 502 74 L 502 94 Q 502 104 492 104 L 341 104 Q 331 104 331 94 L 331 74 Q 331 64 341 64 Z" stroke-miterlimit="10"/></g><g transform="translate(-14,-6) scale(1,1)"><g><path fill="none" stroke="none"/><text fill="#000000" stroke="none" font-family="Arial" font-size="13px" font-style="normal" font-weight="bold" text-decoration="none" x="341.5" y="83.5">Demander un email valide</text></g></g><g transform="translate(-14,-6) scale(1,1)"><path fill="#C0C0C0" stroke="none" d="M 342 159 L 504 159 Q 514 159 514 169 L 514 189 Q 514 199 504 199 L 342 199 Q 332 199 332 189 L 332 169 Q 332 159 342 159 Z" opacity="0.2"/></g><g transform="translate(-14,-6) scale(1,1)"><path fill="#ffffff" stroke="none" d="M 335 152 L 497 152 Q 507 152 507 162 L 507 182 Q 507 192 497 192 L 335 192 Q 325 192 325 182 L 325 162 Q 325 152 335 152 Z"/></g><g transform="translate(-14,-6) scale(1,1)"><path fill="none" stroke="#000000" d="M 335 152 L 497 152 Q 507 152 507 162 L 507 182 Q 507 192 497 192 L 335 192 Q 325 192 325 182 L 325 162 Q 325 152 335 152 Z" stroke-miterlimit="10"/></g><g transform="translate(-14,-6) scale(1,1)"><g><path fill="none" stroke="none"/><text fill="#000000" stroke="none" font-family="Arial" font-size="13px" font-style="normal" font-weight="bold" text-decoration="none" x="337" y="171.5">Vérifier la validité de l'email</text></g></g><g transform="translate(-14,-6) scale(1,1)"><path fill="#C0C0C0" stroke="none" d="M 413 256.5 L 424.5 247 L 435 256.5 L 424.5 265 L 413 256.5" opacity="0.2"/></g><g transform="translate(-14,-6) scale(1,1)"><path fill="#ffffff" stroke="none" d="M 406 249 L 417 240 L 428 249 L 417 258 L 406 249"/></g><g transform="translate(-14,-6) scale(1,1)"><path fill="none" stroke="#000000" d="M 406 249 L 417 240 L 428 249 L 417 258 L 406 249 L 406 249" stroke-miterlimit="10"/></g><g transform="translate(-14,-6) scale(1,1)"><path fill="none" stroke="#000000" d="M 417 35 L 417 64" stroke-miterlimit="10"/></g><g transform="translate(-14,-6) scale(1,1)"><path fill="none" stroke="#000000" d="M 412.790482243984 53.837325142375846 L 417 64 L 421.209517756016 53.837325142375846" stroke-miterlimit="10"/></g><g transform="translate(-14,-6) scale(1,1)"><path fill="none" stroke="#000000" d="M 416 104 L 416 152" stroke-miterlimit="10"/></g><g transform="translate(-14,-6) scale(1,1)"><path fill="none" stroke="#000000" d="M 411.790482243984 141.83732514237585 L 416 152 L 420.209517756016 141.83732514237585" stroke-miterlimit="10"/></g><g transform="translate(-14,-6) scale(1,1)"><path fill="none" stroke="#000000" d="M 419 192 L 419 240" stroke-miterlimit="10"/></g><g transform="translate(-14,-6) scale(1,1)"><path fill="none" stroke="#000000" d="M 414.790482243984 229.83732514237585 L 419 240 L 423.209517756016 229.83732514237585" stroke-miterlimit="10"/></g><g transform="translate(-14,-6) scale(1,1)"><path fill="#C0C0C0" stroke="none" d="M 344 319 L 502 319 Q 512 319 512 329 L 512 349 Q 512 359 502 359 L 344 359 Q 334 359 334 349 L 334 329 Q 334 319 344 319 Z" opacity="0.2"/></g><g transform="translate(-14,-6) scale(1,1)"><path fill="#ffffff" stroke="none" d="M 337 312 L 495 312 Q 505 312 505 322 L 505 342 Q 505 352 495 352 L 337 352 Q 327 352 327 342 L 327 322 Q 327 312 337 312 Z"/></g><g transform="translate(-14,-6) scale(1,1)"><path fill="none" stroke="#000000" d="M 337 312 L 495 312 Q 505 312 505 322 L 505 342 Q 505 352 495 352 L 337 352 Q 327 352 327 342 L 327 322 Q 327 312 337 312 Z" stroke-miterlimit="10"/></g><g transform="translate(-14,-6) scale(1,1)"><g><path fill="none" stroke="none"/><text fill="#000000" stroke="none" font-family="Arial" font-size="13px" font-style="normal" font-weight="bold" text-decoration="none" x="337.5" y="331.5">Envoyer un email à l'acteur</text></g></g><g transform="translate(-14,-6) scale(1,1)"><path fill="none" stroke="#000000" d="M 419 258 L 419 312" stroke-miterlimit="10"/></g><g transform="translate(-14,-6) scale(1,1)"><path fill="none" stroke="#000000" d="M 414.790482243984 301.83732514237585 L 419 312 L 423.209517756016 301.83732514237585" stroke-miterlimit="10"/></g><g transform="translate(-14,-6) scale(1,1)"><g><path fill="none" stroke="none"/><text fill="#000000" stroke="none" font-family="Arial" font-size="13px" font-style="normal" font-weight="normal" text-decoration="none" x="383.5" y="290.5">Email valide</text></g></g><g transform="translate(-14,-6) scale(1,1)"><path fill="#C0C0C0" stroke="none" d="M 553 159 L 794 159 Q 804 159 804 169 L 804 189 Q 804 199 794 199 L 553 199 Q 543 199 543 189 L 543 169 Q 543 159 553 159 Z" opacity="0.2"/></g><g transform="translate(-14,-6) scale(1,1)"><path fill="#ffffff" stroke="none" d="M 546 152 L 787 152 Q 797 152 797 162 L 797 182 Q 797 192 787 192 L 546 192 Q 536 192 536 182 L 536 162 Q 536 152 546 152 Z"/></g><g transform="translate(-14,-6) scale(1,1)"><path fill="none" stroke="#000000" d="M 546 152 L 787 152 Q 797 152 797 162 L 797 182 Q 797 192 787 192 L 546 192 Q 536 192 536 182 L 536 162 Q 536 152 546 152 Z" stroke-miterlimit="10"/></g><g transform="translate(-14,-6) scale(1,1)"><g><path fill="none" stroke="none"/><text fill="#000000" stroke="none" font-family="Arial" font-size="13px" font-style="normal" font-weight="bold" text-decoration="none" x="552" y="171.5">Prévenir l'acteur de l'invalidité de l'email</text></g></g><g transform="translate(-14,-6) scale(1,1)"><path fill="none" stroke="#000000" d="M 428 249 L 688 249 L 688 192" stroke-miterlimit="10"/></g><g transform="translate(-14,-6) scale(1,1)"><path fill="none" stroke="#000000" d="M 692.209517756016 202.16267485762415 L 688 192 L 683.790482243984 202.16267485762415" stroke-miterlimit="10"/></g><g transform="translate(-14,-6) scale(1,1)"><path fill="none" stroke="#000000" d="M 720 152 L 720 80 L 678 80" stroke-miterlimit="10"/></g><g transform="translate(-14,-6) scale(1,1)"><path fill="none" stroke="#000000" d="M 688.1626748576241 75.79048224398402 L 678 80 L 688.1626748576241 84.20951775601598" stroke-miterlimit="10"/></g><g transform="translate(-14,-6) scale(1,1)"><path fill="#C0C0C0" stroke="none" d="M 271 399 L 575 399 Q 585 399 585 409 L 585 429 Q 585 439 575 439 L 271 439 Q 261 439 261 429 L 261 409 Q 261 399 271 399 Z" opacity="0.2"/></g><g transform="translate(-14,-6) scale(1,1)"><path fill="#ffffff" stroke="none" d="M 264 392 L 568 392 Q 578 392 578 402 L 578 422 Q 578 432 568 432 L 264 432 Q 254 432 254 422 L 254 402 Q 254 392 264 392 Z"/></g><g transform="translate(-14,-6) scale(1,1)"><path fill="none" stroke="#000000" d="M 264 392 L 568 392 Q 578 392 578 402 L 578 422 Q 578 432 568 432 L 264 432 Q 254 432 254 422 L 254 402 Q 254 392 264 392 Z" stroke-miterlimit="10"/></g><g transform="translate(-14,-6) scale(1,1)"><g><path fill="none" stroke="none"/><text fill="#000000" stroke="none" font-family="Arial" font-size="13px" font-style="normal" font-weight="bold" text-decoration="none" x="268.5" y="411.5">Demander email d'enregistrement et mot de passe </text></g></g><g transform="translate(-14,-6) scale(1,1)"><path fill="none" stroke="#000000" d="M 416 352 L 416 392" stroke-miterlimit="10"/></g><g transform="translate(-14,-6) scale(1,1)"><path fill="none" stroke="#000000" d="M 411.790482243984 381.83732514237585 L 416 392 L 420.209517756016 381.83732514237585" stroke-miterlimit="10"/></g><g transform="translate(-14,-6) scale(1,1)"><path fill="#C0C0C0" stroke="none" d="M 342 495 L 504 495 Q 514 495 514 505 L 514 525 Q 514 535 504 535 L 342 535 Q 332 535 332 525 L 332 505 Q 332 495 342 495 Z" opacity="0.2"/></g><g transform="translate(-14,-6) scale(1,1)"><path fill="#ffffff" stroke="none" d="M 335 488 L 497 488 Q 507 488 507 498 L 507 518 Q 507 528 497 528 L 335 528 Q 325 528 325 518 L 325 498 Q 325 488 335 488 Z"/></g><g transform="translate(-14,-6) scale(1,1)"><path fill="none" stroke="#000000" d="M 335 488 L 497 488 Q 507 488 507 498 L 507 518 Q 507 528 497 528 L 335 528 Q 325 528 325 518 L 325 498 Q 325 488 335 488 Z" stroke-miterlimit="10"/></g><g transform="translate(-14,-6) scale(1,1)"><g><path fill="none" stroke="none"/><text fill="#000000" stroke="none" font-family="Arial" font-size="13px" font-style="normal" font-weight="bold" text-decoration="none" x="337" y="507.5">Vérifier la validité de l'email</text></g></g><g transform="translate(-14,-6) scale(1,1)"><path fill="#C0C0C0" stroke="none" d="M 413 584.5 L 424.5 575 L 435 584.5 L 424.5 593 L 413 584.5" opacity="0.2"/></g><g transform="translate(-14,-6) scale(1,1)"><path fill="#ffffff" stroke="none" d="M 406 577 L 417 568 L 428 577 L 417 586 L 406 577"/></g><g transform="translate(-14,-6) scale(1,1)"><path fill="none" stroke="#000000" d="M 406 577 L 417 568 L 428 577 L 417 586 L 406 577 L 406 577" stroke-miterlimit="10"/></g><g transform="translate(-14,-6) scale(1,1)"><path fill="none" stroke="#000000" d="M 418 528 L 418 568" stroke-miterlimit="10"/></g><g transform="translate(-14,-6) scale(1,1)"><path fill="none" stroke="#000000" d="M 413.790482243984 557.8373251423759 L 418 568 L 422.209517756016 557.8373251423759" stroke-miterlimit="10"/></g><g transform="translate(-14,-6) scale(1,1)"><path fill="none" stroke="#000000" d="M 416 432 L 416 488" stroke-miterlimit="10"/></g><g transform="translate(-14,-6) scale(1,1)"><path fill="none" stroke="#000000" d="M 411.790482243984 477.83732514237585 L 416 488 L 420.209517756016 477.83732514237585" stroke-miterlimit="10"/></g><g transform="translate(-14,-6) scale(1,1)"><path fill="#C0C0C0" stroke="none" d="M 355 631 L 491 631 Q 501 631 501 641 L 501 661 Q 501 671 491 671 L 355 671 Q 345 671 345 661 L 345 641 Q 345 631 355 631 Z" opacity="0.2"/></g><g transform="translate(-14,-6) scale(1,1)"><path fill="#ffffff" stroke="none" d="M 348 624 L 484 624 Q 494 624 494 634 L 494 654 Q 494 664 484 664 L 348 664 Q 338 664 338 654 L 338 634 Q 338 624 348 624 Z"/></g><g transform="translate(-14,-6) scale(1,1)"><path fill="none" stroke="#000000" d="M 348 624 L 484 624 Q 494 624 494 634 L 494 654 Q 494 664 484 664 L 348 664 Q 338 664 338 654 L 338 634 Q 338 624 348 624 Z" stroke-miterlimit="10"/></g><g transform="translate(-14,-6) scale(1,1)"><g><path fill="none" stroke="none"/><text fill="#000000" stroke="none" font-family="Arial" font-size="13px" font-style="normal" font-weight="bold" text-decoration="none" x="347" y="643.5">Vérifier le mot de passe</text></g></g><g transform="translate(-14,-6) scale(1,1)"><path fill="#C0C0C0" stroke="none" d="M 601 495 L 846 495 Q 856 495 856 505 L 856 525 Q 856 535 846 535 L 601 535 Q 591 535 591 525 L 591 505 Q 591 495 601 495 Z" opacity="0.2"/></g><g transform="translate(-14,-6) scale(1,1)"><path fill="#ffffff" stroke="none" d="M 594 488 L 839 488 Q 849 488 849 498 L 849 518 Q 849 528 839 528 L 594 528 Q 584 528 584 518 L 584 498 Q 584 488 594 488 Z"/></g><g transform="translate(-14,-6) scale(1,1)"><path fill="none" stroke="#000000" d="M 594 488 L 839 488 Q 849 488 849 498 L 849 518 Q 849 528 839 528 L 594 528 Q 584 528 584 518 L 584 498 Q 584 488 594 488 Z" stroke-miterlimit="10"/></g><g transform="translate(-14,-6) scale(1,1)"><g><path fill="none" stroke="none"/><text fill="#000000" stroke="none" font-family="Arial" font-size="13px" font-style="normal" font-weight="bold" text-decoration="none" x="600" y="507.5">Prévenir l'acteur  de l'invalidité de l'email</text></g></g><g transform="translate(-14,-6) scale(1,1)"><path fill="none" stroke="#000000" d="M 428 576 L 752 576 L 752 528" stroke-miterlimit="10"/></g><g transform="translate(-14,-6) scale(1,1)"><path fill="none" stroke="#000000" d="M 756.209517756016 538.1626748576241 L 752 528 L 747.790482243984 538.1626748576241" stroke-miterlimit="10"/></g><g transform="translate(-14,-6) scale(1,1)"><path fill="none" stroke="#000000" d="M 416 586 L 416 624" stroke-miterlimit="10"/></g><g transform="translate(-14,-6) scale(1,1)"><path fill="none" stroke="#000000" d="M 411.790482243984 613.8373251423759 L 416 624 L 420.209517756016 613.8373251423759" stroke-miterlimit="10"/></g><g transform="translate(-14,-6) scale(1,1)"><g><path fill="none" stroke="none"/><text fill="#000000" stroke="none" font-family="Arial" font-size="13px" font-style="normal" font-weight="normal" text-decoration="none" x="307.5" y="610.5">Email identique à celui de l'enregistrement</text></g></g><g transform="translate(-14,-6) scale(1,1)"><path fill="none" stroke="#000000" d="M 816 488 L 816 40 L 664 40 L 664 72" stroke-miterlimit="10"/></g><g transform="translate(-14,-6) scale(1,1)"><path fill="none" stroke="#000000" d="M 659.790482243984 61.837325142375846 L 664 72 L 668.209517756016 61.837325142375846" stroke-miterlimit="10"/></g><g transform="translate(-14,-6) scale(1,1)"><path fill="#C0C0C0" stroke="none" d="M 663 88.5 L 674.5 79 L 685 88.5 L 674.5 97 L 663 88.5" opacity="0.2"/></g><g transform="translate(-14,-6) scale(1,1)"><path fill="#ffffff" stroke="none" d="M 656 81 L 667 72 L 678 81 L 667 90 L 656 81"/></g><g transform="translate(-14,-6) scale(1,1)"><path fill="none" stroke="#000000" d="M 656 81 L 667 72 L 678 81 L 667 90 L 656 81 L 656 81" stroke-miterlimit="10"/></g><g transform="translate(-14,-6) scale(1,1)"><path fill="none" stroke="#000000" d="M 656 80 L 502 80" stroke-miterlimit="10"/></g><g transform="translate(-14,-6) scale(1,1)"><path fill="none" stroke="#000000" d="M 512.1626748576241 75.79048224398402 L 502 80 L 512.1626748576241 84.20951775601598" stroke-miterlimit="10"/></g><g transform="translate(-14,-6) scale(1,1)"><path fill="#C0C0C0" stroke="none" d="M 415 728.5 L 426.5 719 L 437 728.5 L 426.5 737 L 415 728.5" opacity="0.2"/></g><g transform="translate(-14,-6) scale(1,1)"><path fill="#ffffff" stroke="none" d="M 408 721 L 419 712 L 430 721 L 419 730 L 408 721"/></g><g transform="translate(-14,-6) scale(1,1)"><path fill="none" stroke="#000000" d="M 408 721 L 419 712 L 430 721 L 419 730 L 408 721 L 408 721" stroke-miterlimit="10"/></g><g transform="translate(-14,-6) scale(1,1)"><path fill="none" stroke="#000000" d="M 416 664 L 416 712" stroke-miterlimit="10"/></g><g transform="translate(-14,-6) scale(1,1)"><path fill="none" stroke="#000000" d="M 411.790482243984 701.8373251423759 L 416 712 L 420.209517756016 701.8373251423759" stroke-miterlimit="10"/></g><g transform="translate(-14,-6) scale(1,1)"><path fill="#C0C0C0" stroke="none" d="M 41 551 L 325 551 Q 335 551 335 561 L 335 581 Q 335 591 325 591 L 41 591 Q 31 591 31 581 L 31 561 Q 31 551 41 551 Z" opacity="0.2"/></g><g transform="translate(-14,-6) scale(1,1)"><path fill="#ffffff" stroke="none" d="M 34 544 L 318 544 Q 328 544 328 554 L 328 574 Q 328 584 318 584 L 34 584 Q 24 584 24 574 L 24 554 Q 24 544 34 544 Z"/></g><g transform="translate(-14,-6) scale(1,1)"><path fill="none" stroke="#000000" d="M 34 544 L 318 544 Q 328 544 328 554 L 328 574 Q 328 584 318 584 L 34 584 Q 24 584 24 574 L 24 554 Q 24 544 34 544 Z" stroke-miterlimit="10"/></g><g transform="translate(-14,-6) scale(1,1)"><g><path fill="none" stroke="none"/><text fill="#000000" stroke="none" font-family="Arial" font-size="13px" font-style="normal" font-weight="bold" text-decoration="none" x="40" y="563.5">Prévenir l'acteur du l'invalidité de mot de passe</text></g></g><g transform="translate(-14,-6) scale(1,1)"><path fill="none" stroke="#000000" d="M 408 720 L 160 720 L 160 584" stroke-miterlimit="10"/></g><g transform="translate(-14,-6) scale(1,1)"><path fill="none" stroke="#000000" d="M 164.209517756016 594.1626748576241 L 160 584 L 155.790482243984 594.1626748576241" stroke-miterlimit="10"/></g><g transform="translate(-14,-6) scale(1,1)"><path fill="none" stroke="#000000" d="M 160 544 L 160 408 L 254 408" stroke-miterlimit="10"/></g><g transform="translate(-14,-6) scale(1,1)"><path fill="none" stroke="#000000" d="M 243.83732514237585 412.209517756016 L 254 408 L 243.83732514237585 403.790482243984" stroke-miterlimit="10"/></g><g transform="translate(-14,-6) scale(1,1)"><path fill="#C0C0C0" stroke="none" d="M 324 775 L 522 775 Q 532 775 532 785 L 532 805 Q 532 815 522 815 L 324 815 Q 314 815 314 805 L 314 785 Q 314 775 324 775 Z" opacity="0.2"/></g><g transform="translate(-14,-6) scale(1,1)"><path fill="#ffffff" stroke="none" d="M 317 768 L 515 768 Q 525 768 525 778 L 525 798 Q 525 808 515 808 L 317 808 Q 307 808 307 798 L 307 778 Q 307 768 317 768 Z"/></g><g transform="translate(-14,-6) scale(1,1)"><path fill="none" stroke="#000000" d="M 317 768 L 515 768 Q 525 768 525 778 L 525 798 Q 525 808 515 808 L 317 808 Q 307 808 307 798 L 307 778 Q 307 768 317 768 Z" stroke-miterlimit="10"/></g><g transform="translate(-14,-6) scale(1,1)"><g><path fill="none" stroke="none"/><text fill="#000000" stroke="none" font-family="Arial" font-size="13px" font-style="normal" font-weight="bold" text-decoration="none" x="317.5" y="787.5">Afficher le message de bienvenue</text></g></g><g transform="translate(-14,-6) scale(1,1)"><path fill="none" stroke="#000000" d="M 416 730 L 416 768" stroke-miterlimit="10"/></g><g transform="translate(-14,-6) scale(1,1)"><path fill="none" stroke="#000000" d="M 411.790482243984 757.8373251423759 L 416 768 L 420.209517756016 757.8373251423759" stroke-miterlimit="10"/></g><g transform="translate(-14,-6) scale(1,1)"><g><path fill="none" stroke="none"/><text fill="#000000" stroke="none" font-family="Arial" font-size="13px" font-style="normal" font-weight="normal" text-decoration="none" x="371.5" y="754.5">Mot de passe valide</text></g></g><g transform="translate(-14,-6) scale(1,1)"><path fill="#C0C0C0" stroke="none" d="M 411 891.5 C 411 884.59644 416.59644 879 423.5 879 C 430.40356 879 436 884.59644 436 891.5 C 436 898.40356 430.40356 904 423.5 904 C 416.59644 904 411 898.40356 411 891.5 Z" opacity="0.2"/></g><g transform="translate(-14,-6) scale(1,1)"><path fill="none" stroke="#000000" d="M 404 884.5 C 404 877.59644 409.59644 872 416.5 872 C 423.40356 872 429 877.59644 429 884.5 C 429 891.40356 423.40356 897 416.5 897 C 409.59644 897 404 891.40356 404 884.5 Z" stroke-miterlimit="10"/></g><g transform="translate(-14,-6) scale(1,1)"><path fill="#000000" stroke="none" d="M 409 884.5 C 409 880.357864 412.357864 877 416.5 877 C 420.642136 877 424 880.357864 424 884.5 C 424 888.642136 420.642136 892 416.5 892 C 412.357864 892 409 888.642136 409 884.5 Z"/></g><g transform="translate(-14,-6) scale(1,1)"><path fill="none" stroke="#000000" d="M 416 808 L 416 872" stroke-miterlimit="10"/></g><g transform="translate(-14,-6) scale(1,1)"><path fill="none" stroke="#000000" d="M 411.790482243984 861.8373251423759 L 416 872 L 420.209517756016 861.8373251423759" stroke-miterlimit="10"/></g></g></svg>