<svg version="1.1" xmlns="http://www.w3.org/2000/svg" xmlns:xlink="http://www.w3.org/1999/xlink" width="644" height="324"><defs/><g><g transform="translate(-6,-6) scale(1,1)"><rect fill="#C0C0C0" stroke="none" x="23" y="23" width="192" height="64" opacity="0.2"/></g><g transform="translate(-6,-6) scale(1,1)"><rect fill="#ffffff" stroke="none" x="16" y="16" width="192" height="64"/></g><g transform="translate(-6,-6) scale(1,1)"><path fill="none" stroke="#000000" d="M 16 16 L 208 16 L 208 80 L 16 80 L 16 16 Z Z" stroke-miterlimit="10"/></g><g transform="translate(-6,-6) scale(1,1)"><path fill="#ffffff" stroke="none" d="M 183.8 33 C 183.8 27.69806592 188.09806592 23.4 193.4 23.4 C 198.70193408 23.4 203 27.69806592 203 33 C 203 38.301934079999995 198.70193408 42.599999999999994 193.4 42.599999999999994 C 188.09806592 42.599999999999994 183.8 38.301934079999995 183.8 33 Z"/></g><g transform="translate(-6,-6) scale(1,1)"><path fill="none" stroke="#000000" d="M 183.8 33 C 183.8 27.69806592 188.09806592 23.4 193.4 23.4 C 198.70193408 23.4 203 27.69806592 203 33 C 203 38.301934079999995 198.70193408 42.599999999999994 193.4 42.599999999999994 C 188.09806592 42.599999999999994 183.8 38.301934079999995 183.8 33 Z" stroke-miterlimit="10"/></g><g transform="translate(-6,-6) scale(1,1)"><path fill="none" stroke="#000000" d="M 179 23.4 L 179 42.599999999999994" stroke-miterlimit="10"/></g><g transform="translate(-6,-6) scale(1,1)"><path fill="none" stroke="#000000" d="M 179 33 L 183.8 33" stroke-miterlimit="10"/></g><g transform="translate(-6,-6) scale(1,1)"><g><path fill="none" stroke="none"/><text fill="#000000" stroke="none" font-family="Arial" font-size="13px" font-style="normal" font-weight="normal" text-decoration="none" x="66.5" y="33.5">«boundary»</text></g></g><g transform="translate(-6,-6) scale(1,1)"><g><path fill="none" stroke="none"/><text fill="#000000" stroke="none" font-family="Arial" font-size="13px" font-style="normal" font-weight="bold" text-decoration="none" x="78" y="48.5">LoginUI</text></g></g><g transform="translate(-6,-6) scale(1,1)"><rect fill="#C0C0C0" stroke="none" x="23" y="103" width="192" height="64" opacity="0.2"/></g><g transform="translate(-6,-6) scale(1,1)"><rect fill="#ffffff" stroke="none" x="16" y="96" width="192" height="64"/></g><g transform="translate(-6,-6) scale(1,1)"><path fill="none" stroke="#000000" d="M 16 96 L 208 96 L 208 160 L 16 160 L 16 96 Z Z" stroke-miterlimit="10"/></g><g transform="translate(-6,-6) scale(1,1)"><path fill="#ffffff" stroke="none" d="M 183.8 113 C 183.8 107.69806592 188.09806592 103.4 193.4 103.4 C 198.70193408 103.4 203 107.69806592 203 113 C 203 118.30193408 198.70193408 122.60000000000001 193.4 122.60000000000001 C 188.09806592 122.60000000000001 183.8 118.30193408 183.8 113 Z"/></g><g transform="translate(-6,-6) scale(1,1)"><path fill="none" stroke="#000000" d="M 183.8 113 C 183.8 107.69806592 188.09806592 103.4 193.4 103.4 C 198.70193408 103.4 203 107.69806592 203 113 C 203 118.30193408 198.70193408 122.60000000000001 193.4 122.60000000000001 C 188.09806592 122.60000000000001 183.8 118.30193408 183.8 113 Z" stroke-miterlimit="10"/></g><g transform="translate(-6,-6) scale(1,1)"><path fill="none" stroke="#000000" d="M 179 103.4 L 179 122.60000000000001" stroke-miterlimit="10"/></g><g transform="translate(-6,-6) scale(1,1)"><path fill="none" stroke="#000000" d="M 179 113 L 183.8 113" stroke-miterlimit="10"/></g><g transform="translate(-6,-6) scale(1,1)"><g><path fill="none" stroke="none"/><text fill="#000000" stroke="none" font-family="Arial" font-size="13px" font-style="normal" font-weight="normal" text-decoration="none" x="66.5" y="113.5">«boundary»</text></g></g><g transform="translate(-6,-6) scale(1,1)"><g><path fill="none" stroke="none"/><text fill="#000000" stroke="none" font-family="Arial" font-size="13px" font-style="normal" font-weight="bold" text-decoration="none" x="72.5" y="128.5">SignUpUI</text></g></g><g transform="translate(-6,-6) scale(1,1)"><rect fill="#C0C0C0" stroke="none" x="247" y="23" width="192" height="64" opacity="0.2"/></g><g transform="translate(-6,-6) scale(1,1)"><rect fill="#ffffff" stroke="none" x="240" y="16" width="192" height="64"/></g><g transform="translate(-6,-6) scale(1,1)"><path fill="none" stroke="#000000" d="M 240 16 L 432 16 L 432 80 L 240 80 L 240 16 Z Z" stroke-miterlimit="10"/></g><g transform="translate(-6,-6) scale(1,1)"><path fill="#ffffff" stroke="none" d="M 407.8 33 C 407.8 27.69806592 412.09806591999995 23.4 417.4 23.4 C 422.70193408 23.4 427 27.69806592 427 33 C 427 38.301934079999995 422.70193408 42.599999999999994 417.4 42.599999999999994 C 412.09806591999995 42.599999999999994 407.8 38.301934079999995 407.8 33 Z"/></g><g transform="translate(-6,-6) scale(1,1)"><path fill="none" stroke="#000000" d="M 407.8 33 C 407.8 27.69806592 412.09806591999995 23.4 417.4 23.4 C 422.70193408 23.4 427 27.69806592 427 33 C 427 38.301934079999995 422.70193408 42.599999999999994 417.4 42.599999999999994 C 412.09806591999995 42.599999999999994 407.8 38.301934079999995 407.8 33 Z" stroke-miterlimit="10"/></g><g transform="translate(-6,-6) scale(1,1)"><path fill="none" stroke="#000000" d="M 403 23.4 L 403 42.599999999999994" stroke-miterlimit="10"/></g><g transform="translate(-6,-6) scale(1,1)"><path fill="none" stroke="#000000" d="M 403 33 L 407.8 33" stroke-miterlimit="10"/></g><g transform="translate(-6,-6) scale(1,1)"><g><path fill="none" stroke="none"/><text fill="#000000" stroke="none" font-family="Arial" font-size="13px" font-style="normal" font-weight="normal" text-decoration="none" x="290.5" y="33.5">«boundary»</text></g></g><g transform="translate(-6,-6) scale(1,1)"><g><path fill="none" stroke="none"/><text fill="#000000" stroke="none" font-family="Arial" font-size="13px" font-style="normal" font-weight="bold" text-decoration="none" x="273.5" y="48.5">SearchSessionUI</text></g></g><g transform="translate(-6,-6) scale(1,1)"><rect fill="#C0C0C0" stroke="none" x="247" y="103" width="192" height="64" opacity="0.2"/></g><g transform="translate(-6,-6) scale(1,1)"><rect fill="#ffffff" stroke="none" x="240" y="96" width="192" height="64"/></g><g transform="translate(-6,-6) scale(1,1)"><path fill="none" stroke="#000000" d="M 240 96 L 432 96 L 432 160 L 240 160 L 240 96 Z Z" stroke-miterlimit="10"/></g><g transform="translate(-6,-6) scale(1,1)"><path fill="#ffffff" stroke="none" d="M 407.8 113 C 407.8 107.69806592 412.09806591999995 103.4 417.4 103.4 C 422.70193408 103.4 427 107.69806592 427 113 C 427 118.30193408 422.70193408 122.60000000000001 417.4 122.60000000000001 C 412.09806591999995 122.60000000000001 407.8 118.30193408 407.8 113 Z"/></g><g transform="translate(-6,-6) scale(1,1)"><path fill="none" stroke="#000000" d="M 407.8 113 C 407.8 107.69806592 412.09806591999995 103.4 417.4 103.4 C 422.70193408 103.4 427 107.69806592 427 113 C 427 118.30193408 422.70193408 122.60000000000001 417.4 122.60000000000001 C 412.09806591999995 122.60000000000001 407.8 118.30193408 407.8 113 Z" stroke-miterlimit="10"/></g><g transform="translate(-6,-6) scale(1,1)"><path fill="none" stroke="#000000" d="M 403 103.4 L 403 122.60000000000001" stroke-miterlimit="10"/></g><g transform="translate(-6,-6) scale(1,1)"><path fill="none" stroke="#000000" d="M 403 113 L 407.8 113" stroke-miterlimit="10"/></g><g transform="translate(-6,-6) scale(1,1)"><g><path fill="none" stroke="none"/><text fill="#000000" stroke="none" font-family="Arial" font-size="13px" font-style="normal" font-weight="normal" text-decoration="none" x="290.5" y="113.5">«boundary»</text></g></g><g transform="translate(-6,-6) scale(1,1)"><g><path fill="none" stroke="none"/><text fill="#000000" stroke="none" font-family="Arial" font-size="13px" font-style="normal" font-weight="bold" text-decoration="none" x="294" y="128.5">SessionUI</text></g></g><g transform="translate(-6,-6) scale(1,1)"><rect fill="#C0C0C0" stroke="none" x="23" y="183" width="192" height="64" opacity="0.2"/></g><g transform="translate(-6,-6) scale(1,1)"><rect fill="#ffffff" stroke="none" x="16" y="176" width="192" height="64"/></g><g transform="translate(-6,-6) scale(1,1)"><path fill="none" stroke="#000000" d="M 16 176 L 208 176 L 208 240 L 16 240 L 16 176 Z Z" stroke-miterlimit="10"/></g><g transform="translate(-6,-6) scale(1,1)"><g><path fill="none" stroke="none"/><text fill="#000000" stroke="none" font-family="Arial" font-size="13px" font-style="normal" font-weight="normal" text-decoration="none" x="78.5" y="193.5">«boundary»</text></g></g><g transform="translate(-6,-6) scale(1,1)"><g><path fill="none" stroke="none"/><text fill="#000000" stroke="none" font-family="Arial" font-size="13px" font-style="normal" font-weight="bold" text-decoration="none" x="63" y="208.5">ConfirmSignupUI</text></g></g><g transform="translate(-6,-6) scale(1,1)"><rect fill="#C0C0C0" stroke="none" x="247" y="183" width="192" height="64" opacity="0.2"/></g><g transform="translate(-6,-6) scale(1,1)"><rect fill="#ffffff" stroke="none" x="240" y="176" width="192" height="64"/></g><g transform="translate(-6,-6) scale(1,1)"><path fill="none" stroke="#000000" d="M 240 176 L 432 176 L 432 240 L 240 240 L 240 176 Z Z" stroke-miterlimit="10"/></g><g transform="translate(-6,-6) scale(1,1)"><path fill="#ffffff" stroke="none" d="M 407.8 193 C 407.8 187.69806592 412.09806591999995 183.4 417.4 183.4 C 422.70193408 183.4 427 187.69806592 427 193 C 427 198.30193408 422.70193408 202.6 417.4 202.6 C 412.09806591999995 202.6 407.8 198.30193408 407.8 193 Z"/></g><g transform="translate(-6,-6) scale(1,1)"><path fill="none" stroke="#000000" d="M 407.8 193 C 407.8 187.69806592 412.09806591999995 183.4 417.4 183.4 C 422.70193408 183.4 427 187.69806592 427 193 C 427 198.30193408 422.70193408 202.6 417.4 202.6 C 412.09806591999995 202.6 407.8 198.30193408 407.8 193 Z" stroke-miterlimit="10"/></g><g transform="translate(-6,-6) scale(1,1)"><path fill="none" stroke="#000000" d="M 403 183.4 L 403 202.6" stroke-miterlimit="10"/></g><g transform="translate(-6,-6) scale(1,1)"><path fill="none" stroke="#000000" d="M 403 193 L 407.8 193" stroke-miterlimit="10"/></g><g transform="translate(-6,-6) scale(1,1)"><g><path fill="none" stroke="none"/><text fill="#000000" stroke="none" font-family="Arial" font-size="13px" font-style="normal" font-weight="normal" text-decoration="none" x="290.5" y="193.5">«boundary»</text></g></g><g transform="translate(-6,-6) scale(1,1)"><g><path fill="none" stroke="none"/><text fill="#000000" stroke="none" font-family="Arial" font-size="13px" font-style="normal" font-weight="bold" text-decoration="none" x="281.5" y="208.5">NewSessionUI</text></g></g><g transform="translate(-6,-6) scale(1,1)"><rect fill="#C0C0C0" stroke="none" x="471" y="103" width="176" height="63" opacity="0.2"/></g><g transform="translate(-6,-6) scale(1,1)"><rect fill="#ffffff" stroke="none" x="464" y="96" width="176" height="63"/></g><g transform="translate(-6,-6) scale(1,1)"><path fill="none" stroke="#000000" d="M 464 96 L 640 96 L 640 159 L 464 159 L 464 96 Z Z" stroke-miterlimit="10"/></g><g transform="translate(-6,-6) scale(1,1)"><path fill="#ffffff" stroke="none" d="M 615.8 113 C 615.8 107.69806592 620.09806592 103.4 625.4 103.4 C 630.70193408 103.4 635 107.69806592 635 113 C 635 118.30193408 630.70193408 122.60000000000001 625.4 122.60000000000001 C 620.09806592 122.60000000000001 615.8 118.30193408 615.8 113 Z"/></g><g transform="translate(-6,-6) scale(1,1)"><path fill="none" stroke="#000000" d="M 615.8 113 C 615.8 107.69806592 620.09806592 103.4 625.4 103.4 C 630.70193408 103.4 635 107.69806592 635 113 C 635 118.30193408 630.70193408 122.60000000000001 625.4 122.60000000000001 C 620.09806592 122.60000000000001 615.8 118.30193408 615.8 113 Z" stroke-miterlimit="10"/></g><g transform="translate(-6,-6) scale(1,1)"><path fill="none" stroke="#000000" d="M 611 103.4 L 611 122.60000000000001" stroke-miterlimit="10"/></g><g transform="translate(-6,-6) scale(1,1)"><path fill="none" stroke="#000000" d="M 611 113 L 615.8 113" stroke-miterlimit="10"/></g><g transform="translate(-6,-6) scale(1,1)"><g><path fill="none" stroke="none"/><text fill="#000000" stroke="none" font-family="Arial" font-size="13px" font-style="normal" font-weight="normal" text-decoration="none" x="506.5" y="113.5">«boundary»</text></g></g><g transform="translate(-6,-6) scale(1,1)"><g><path fill="none" stroke="none"/><text fill="#000000" stroke="none" font-family="Arial" font-size="13px" font-style="normal" font-weight="bold" text-decoration="none" x="479" y="128.5">SessionInstrumentUI</text></g></g><g transform="translate(-6,-6) scale(1,1)"><path fill="none" stroke="#000000" d="M 463 127 L 433 128" stroke-miterlimit="10"/></g><g transform="translate(-6,-6) scale(1,1)"><path fill="none" stroke="#000000" d="M 443.0167942583346 123.45425113032024 L 433 128 L 443.2972729971405 131.86861329449724" stroke-miterlimit="10"/></g><g transform="translate(-6,-6) scale(1,1)"><rect fill="#C0C0C0" stroke="none" x="471" y="183" width="176" height="64" opacity="0.2"/></g><g transform="translate(-6,-6) scale(1,1)"><rect fill="#ffffff" stroke="none" x="464" y="176" width="176" height="64"/></g><g transform="translate(-6,-6) scale(1,1)"><path fill="none" stroke="#000000" d="M 464 176 L 640 176 L 640 240 L 464 240 L 464 176 Z Z" stroke-miterlimit="10"/></g><g transform="translate(-6,-6) scale(1,1)"><path fill="#ffffff" stroke="none" d="M 615.8 193 C 615.8 187.69806592 620.09806592 183.4 625.4 183.4 C 630.70193408 183.4 635 187.69806592 635 193 C 635 198.30193408 630.70193408 202.6 625.4 202.6 C 620.09806592 202.6 615.8 198.30193408 615.8 193 Z"/></g><g transform="translate(-6,-6) scale(1,1)"><path fill="none" stroke="#000000" d="M 615.8 193 C 615.8 187.69806592 620.09806592 183.4 625.4 183.4 C 630.70193408 183.4 635 187.69806592 635 193 C 635 198.30193408 630.70193408 202.6 625.4 202.6 C 620.09806592 202.6 615.8 198.30193408 615.8 193 Z" stroke-miterlimit="10"/></g><g transform="translate(-6,-6) scale(1,1)"><path fill="none" stroke="#000000" d="M 611 183.4 L 611 202.6" stroke-miterlimit="10"/></g><g transform="translate(-6,-6) scale(1,1)"><path fill="none" stroke="#000000" d="M 611 193 L 615.8 193" stroke-miterlimit="10"/></g><g transform="translate(-6,-6) scale(1,1)"><g><path fill="none" stroke="none"/><text fill="#000000" stroke="none" font-family="Arial" font-size="13px" font-style="normal" font-weight="normal" text-decoration="none" x="506.5" y="193.5">«boundary»</text></g></g><g transform="translate(-6,-6) scale(1,1)"><g><path fill="none" stroke="none"/><text fill="#000000" stroke="none" font-family="Arial" font-size="13px" font-style="normal" font-weight="bold" text-decoration="none" x="490" y="208.5">NewInstrumentUI</text></g></g><g transform="translate(-6,-6) scale(1,1)"><rect fill="#C0C0C0" stroke="none" x="247" y="263" width="192" height="64" opacity="0.2"/></g><g transform="translate(-6,-6) scale(1,1)"><rect fill="#ffffff" stroke="none" x="240" y="256" width="192" height="64"/></g><g transform="translate(-6,-6) scale(1,1)"><path fill="none" stroke="#000000" d="M 240 256 L 432 256 L 432 320 L 240 320 L 240 256 Z Z" stroke-miterlimit="10"/></g><g transform="translate(-6,-6) scale(1,1)"><path fill="#ffffff" stroke="none" d="M 407.8 273 C 407.8 267.69806592 412.09806591999995 263.4 417.4 263.4 C 422.70193408 263.4 427 267.69806592 427 273 C 427 278.30193408 422.70193408 282.59999999999997 417.4 282.59999999999997 C 412.09806591999995 282.59999999999997 407.8 278.30193408 407.8 273 Z"/></g><g transform="translate(-6,-6) scale(1,1)"><path fill="none" stroke="#000000" d="M 407.8 273 C 407.8 267.69806592 412.09806591999995 263.4 417.4 263.4 C 422.70193408 263.4 427 267.69806592 427 273 C 427 278.30193408 422.70193408 282.59999999999997 417.4 282.59999999999997 C 412.09806591999995 282.59999999999997 407.8 278.30193408 407.8 273 Z" stroke-miterlimit="10"/></g><g transform="translate(-6,-6) scale(1,1)"><path fill="none" stroke="#000000" d="M 403 263.4 L 403 282.59999999999997" stroke-miterlimit="10"/></g><g transform="translate(-6,-6) scale(1,1)"><path fill="none" stroke="#000000" d="M 403 273 L 407.8 273" stroke-miterlimit="10"/></g><g transform="translate(-6,-6) scale(1,1)"><g><path fill="none" stroke="none"/><text fill="#000000" stroke="none" font-family="Arial" font-size="13px" font-style="normal" font-weight="normal" text-decoration="none" x="290.5" y="273.5">«boundary»</text></g></g><g transform="translate(-6,-6) scale(1,1)"><g><path fill="none" stroke="none"/><text fill="#000000" stroke="none" font-family="Arial" font-size="13px" font-style="normal" font-weight="bold" text-decoration="none" x="273.5" y="288.5">UpdateSessionUI</text></g></g></g></svg>