<svg version="1.1" xmlns="http://www.w3.org/2000/svg" xmlns:xlink="http://www.w3.org/1999/xlink" width="862" height="391"><defs/><g><g transform="translate(-38,-14) scale(1,1)"><rect fill="#C0C0C0" stroke="none" x="55" y="31" width="184" height="152" opacity="0.2"/></g><g transform="translate(-38,-14) scale(1,1)"><rect fill="#ffffff" stroke="none" x="48" y="24" width="184" height="152"/></g><g transform="translate(-38,-14) scale(1,1)"><path fill="none" stroke="#000000" d="M 48 24 L 232 24 L 232 176 L 48 176 L 48 24 Z Z" stroke-miterlimit="10"/></g><g transform="translate(-38,-14) scale(1,1)"><path fill="#ffffff" stroke="none" d="M 207.8 41 C 207.8 35.698065920000005 212.09806592 31.4 217.4 31.4 C 222.70193408 31.4 227 35.698065920000005 227 41 C 227 46.301934079999995 222.70193408 50.599999999999994 217.4 50.599999999999994 C 212.09806592 50.599999999999994 207.8 46.301934079999995 207.8 41 Z"/></g><g transform="translate(-38,-14) scale(1,1)"><path fill="none" stroke="#000000" d="M 207.8 41 C 207.8 35.698065920000005 212.09806592 31.4 217.4 31.4 C 222.70193408 31.4 227 35.698065920000005 227 41 C 227 46.301934079999995 222.70193408 50.599999999999994 217.4 50.599999999999994 C 212.09806592 50.599999999999994 207.8 46.301934079999995 207.8 41 Z" stroke-miterlimit="10"/></g><g transform="translate(-38,-14) scale(1,1)"><path fill="none" stroke="#000000" d="M 203 31.4 L 203 50.599999999999994" stroke-miterlimit="10"/></g><g transform="translate(-38,-14) scale(1,1)"><path fill="none" stroke="#000000" d="M 203 41 L 207.8 41" stroke-miterlimit="10"/></g><g transform="translate(-38,-14) scale(1,1)"><path fill="none" stroke="#000000" d="M 48 62 L 232 62" stroke-miterlimit="10"/></g><g transform="translate(-38,-14) scale(1,1)"><path fill="none" stroke="#000000" d="M 48 72 L 232 72" stroke-miterlimit="10"/></g><g transform="translate(-38,-14) scale(1,1)"><g><path fill="none" stroke="none"/><text fill="#000000" stroke="none" font-family="Arial" font-size="13px" font-style="normal" font-weight="normal" text-decoration="none" x="94.5" y="41.5">«boundary»</text></g></g><g transform="translate(-38,-14) scale(1,1)"><g><path fill="none" stroke="none"/><text fill="#000000" stroke="none" font-family="Arial" font-size="13px" font-style="normal" font-weight="bold" text-decoration="none" x="85.5" y="56.5">NewSessionUI</text></g></g><g transform="translate(-38,-14) scale(1,1)"><g><path fill="none" stroke="none"/><text fill="#000000" stroke="none" font-family="Arial" font-size="13px" font-style="normal" font-weight="normal" text-decoration="none" x="53" y="89.5">+displayForm()</text></g></g><g transform="translate(-38,-14) scale(1,1)"><g><path fill="none" stroke="none"/><text fill="#000000" stroke="none" font-family="Arial" font-size="13px" font-style="normal" font-weight="normal" text-decoration="none" x="53" y="104.5">+enterSessionLabel()</text></g></g><g transform="translate(-38,-14) scale(1,1)"><g><path fill="none" stroke="none"/><text fill="#000000" stroke="none" font-family="Arial" font-size="13px" font-style="normal" font-weight="normal" text-decoration="none" x="53" y="119.5">+enterSessionDescription()</text></g></g><g transform="translate(-38,-14) scale(1,1)"><g><path fill="none" stroke="none"/><text fill="#000000" stroke="none" font-family="Arial" font-size="13px" font-style="normal" font-weight="normal" text-decoration="none" x="53" y="134.5">+enterSessionTempo()</text></g></g><g transform="translate(-38,-14) scale(1,1)"><g><path fill="none" stroke="none"/><text fill="#000000" stroke="none" font-family="Arial" font-size="13px" font-style="normal" font-weight="normal" text-decoration="none" x="53" y="149.5">+submitForm()</text></g></g><g transform="translate(-38,-14) scale(1,1)"><rect fill="#C0C0C0" stroke="none" x="319" y="39" width="289" height="144" opacity="0.2"/></g><g transform="translate(-38,-14) scale(1,1)"><rect fill="#ffffff" stroke="none" x="312" y="32" width="289" height="144"/></g><g transform="translate(-38,-14) scale(1,1)"><path fill="none" stroke="#000000" d="M 312 32 L 601 32 L 601 176 L 312 176 L 312 32 Z Z" stroke-miterlimit="10"/></g><g transform="translate(-38,-14) scale(1,1)"><path fill="#ffffff" stroke="none" d="M 575 49 C 575 44.0294368 579.0294368 40 584 40 C 588.9705632 40 593 44.0294368 593 49 C 593 53.9705632 588.9705632 58 584 58 C 579.0294368 58 575 53.9705632 575 49 Z"/></g><g transform="translate(-38,-14) scale(1,1)"><path fill="none" stroke="#000000" d="M 575 49 C 575 44.0294368 579.0294368 40 584 40 C 588.9705632 40 593 44.0294368 593 49 C 593 53.9705632 588.9705632 58 584 58 C 579.0294368 58 575 53.9705632 575 49 Z" stroke-miterlimit="10"/></g><g transform="translate(-38,-14) scale(1,1)"><path fill="none" stroke="#000000" d="M 584 40 L 587 37" stroke-miterlimit="10"/></g><g transform="translate(-38,-14) scale(1,1)"><path fill="none" stroke="#000000" d="M 584 40 L 587 43" stroke-miterlimit="10"/></g><g transform="translate(-38,-14) scale(1,1)"><path fill="none" stroke="#000000" d="M 312 70 L 601 70" stroke-miterlimit="10"/></g><g transform="translate(-38,-14) scale(1,1)"><path fill="none" stroke="#000000" d="M 312 80 L 601 80" stroke-miterlimit="10"/></g><g transform="translate(-38,-14) scale(1,1)"><g><path fill="none" stroke="none"/><text fill="#000000" stroke="none" font-family="Arial" font-size="13px" font-style="normal" font-weight="normal" text-decoration="none" x="418" y="49.5">«control»</text></g></g><g transform="translate(-38,-14) scale(1,1)"><g><path fill="none" stroke="none"/><text fill="#000000" stroke="none" font-family="Arial" font-size="13px" font-style="normal" font-weight="bold" text-decoration="none" x="399" y="64.5">SessionService</text></g></g><g transform="translate(-38,-14) scale(1,1)"><g><path fill="none" stroke="none"/><text fill="#000000" stroke="none" font-family="Arial" font-size="13px" font-style="normal" font-weight="normal" text-decoration="none" x="317" y="97.5">+getSessions(): Collection</text></g></g><g transform="translate(-38,-14) scale(1,1)"><g><path fill="none" stroke="none"/><text fill="#000000" stroke="none" font-family="Arial" font-size="13px" font-style="normal" font-weight="normal" text-decoration="none" x="317" y="112.5">+getSession(id: integer): Session</text></g></g><g transform="translate(-38,-14) scale(1,1)"><g><path fill="none" stroke="none"/><text fill="#000000" stroke="none" font-family="Arial" font-size="13px" font-style="normal" font-weight="normal" text-decoration="none" x="317" y="127.5">+createSession()</text></g></g><g transform="translate(-38,-14) scale(1,1)"><g><path fill="none" stroke="none"/><text fill="#000000" stroke="none" font-family="Arial" font-size="13px" font-style="normal" font-weight="normal" text-decoration="none" x="317" y="142.5">+updateSession(sessionID: int)</text></g></g><g transform="translate(-38,-14) scale(1,1)"><g><path fill="none" stroke="none"/><text fill="#000000" stroke="none" font-family="Arial" font-size="13px" font-style="normal" font-weight="normal" text-decoration="none" x="317" y="157.5">+addInstrument(instrID: int, sessionID: int)</text></g></g><g transform="translate(-38,-14) scale(1,1)"><rect fill="#C0C0C0" stroke="none" x="319" y="266" width="289" height="136" opacity="0.2"/></g><g transform="translate(-38,-14) scale(1,1)"><rect fill="#ffffff" stroke="none" x="312" y="259" width="289" height="136"/></g><g transform="translate(-38,-14) scale(1,1)"><path fill="none" stroke="#000000" d="M 312 259 L 601 259 L 601 395 L 312 395 L 312 259 Z Z" stroke-miterlimit="10"/></g><g transform="translate(-38,-14) scale(1,1)"><path fill="none" stroke="#000000" d="M 312 297 L 601 297" stroke-miterlimit="10"/></g><g transform="translate(-38,-14) scale(1,1)"><path fill="none" stroke="#000000" d="M 312 307 L 601 307" stroke-miterlimit="10"/></g><g transform="translate(-38,-14) scale(1,1)"><g><path fill="none" stroke="none"/><text fill="#000000" stroke="none" font-family="Arial" font-size="13px" font-style="normal" font-weight="normal" text-decoration="none" x="425.5" y="276.5">«lifecycle»</text></g></g><g transform="translate(-38,-14) scale(1,1)"><g><path fill="none" stroke="none"/><text fill="#000000" stroke="none" font-family="Arial" font-size="13px" font-style="normal" font-weight="bold" text-decoration="none" x="419" y="291.5">SessionDAO</text></g></g><g transform="translate(-38,-14) scale(1,1)"><g><path fill="none" stroke="none"/><text fill="#000000" stroke="none" font-family="Arial" font-size="13px" font-style="normal" font-weight="normal" text-decoration="none" x="317" y="324.5">+findByCriteria(): Collection {query}</text></g></g><g transform="translate(-38,-14) scale(1,1)"><g><path fill="none" stroke="none"/><text fill="#000000" stroke="none" font-family="Arial" font-size="13px" font-style="normal" font-weight="normal" text-decoration="none" x="317" y="339.5">+find(id: int)</text></g></g><g transform="translate(-38,-14) scale(1,1)"><g><path fill="none" stroke="none"/><text fill="#000000" stroke="none" font-family="Arial" font-size="13px" font-style="normal" font-weight="normal" text-decoration="none" x="317" y="354.5">+insert(session: Session): int {query, unique}</text></g></g><g transform="translate(-38,-14) scale(1,1)"><g><path fill="none" stroke="none"/><text fill="#000000" stroke="none" font-family="Arial" font-size="13px" font-style="normal" font-weight="normal" text-decoration="none" x="317" y="369.5">+update(session: Session)</text></g></g><g transform="translate(-38,-14) scale(1,1)"><path fill="none" stroke="#000000" d="M 456 177 L 456 258" stroke-miterlimit="10"/></g><g transform="translate(-38,-14) scale(1,1)"><path fill="none" stroke="#000000" d="M 451.790482243984 247.83732514237585 L 456 258 L 460.209517756016 247.83732514237585" stroke-miterlimit="10"/></g><g transform="translate(-38,-14) scale(1,1)"><path fill="none" stroke="#000000" d="M 233 101 L 311 102" stroke-miterlimit="10"/></g><g transform="translate(-38,-14) scale(1,1)"><path fill="none" stroke="#000000" d="M 300.7841964945964 106.07889185183718 L 311 102 L 300.8921239778992 97.66054815422045" stroke-miterlimit="10"/></g><g transform="translate(-38,-14) scale(1,1)"><rect fill="#C0C0C0" stroke="none" x="55" y="266" width="175" height="136" opacity="0.2"/></g><g transform="translate(-38,-14) scale(1,1)"><rect fill="#ffffff" stroke="none" x="48" y="259" width="175" height="136"/></g><g transform="translate(-38,-14) scale(1,1)"><path fill="none" stroke="#000000" d="M 48 259 L 223 259 L 223 395 L 48 395 L 48 259 Z Z" stroke-miterlimit="10"/></g><g transform="translate(-38,-14) scale(1,1)"><path fill="#ffffff" stroke="none" d="M 198.8 276 C 198.8 270.69806592 203.09806592 266.4 208.4 266.4 C 213.70193408 266.4 218 270.69806592 218 276 C 218 281.30193408 213.70193408 285.59999999999997 208.4 285.59999999999997 C 203.09806592 285.59999999999997 198.8 281.30193408 198.8 276 Z"/></g><g transform="translate(-38,-14) scale(1,1)"><path fill="none" stroke="#000000" d="M 198.8 276 C 198.8 270.69806592 203.09806592 266.4 208.4 266.4 C 213.70193408 266.4 218 270.69806592 218 276 C 218 281.30193408 213.70193408 285.59999999999997 208.4 285.59999999999997 C 203.09806592 285.59999999999997 198.8 281.30193408 198.8 276 Z" stroke-miterlimit="10"/></g><g transform="translate(-38,-14) scale(1,1)"><path fill="none" stroke="#000000" d="M 194 266.4 L 194 285.59999999999997" stroke-miterlimit="10"/></g><g transform="translate(-38,-14) scale(1,1)"><path fill="none" stroke="#000000" d="M 194 276 L 198.8 276" stroke-miterlimit="10"/></g><g transform="translate(-38,-14) scale(1,1)"><path fill="none" stroke="#000000" d="M 48 297 L 223 297" stroke-miterlimit="10"/></g><g transform="translate(-38,-14) scale(1,1)"><path fill="none" stroke="#000000" d="M 48 307 L 223 307" stroke-miterlimit="10"/></g><g transform="translate(-38,-14) scale(1,1)"><g><path fill="none" stroke="none"/><text fill="#000000" stroke="none" font-family="Arial" font-size="13px" font-style="normal" font-weight="normal" text-decoration="none" x="90" y="276.5">«boundary»</text></g></g><g transform="translate(-38,-14) scale(1,1)"><g><path fill="none" stroke="none"/><text fill="#000000" stroke="none" font-family="Arial" font-size="13px" font-style="normal" font-weight="bold" text-decoration="none" x="93.5" y="291.5">SessionUI</text></g></g><g transform="translate(-38,-14) scale(1,1)"><g><path fill="none" stroke="none"/><text fill="#000000" stroke="none" font-family="Arial" font-size="13px" font-style="normal" font-weight="normal" text-decoration="none" x="53" y="324.5">+viewSession(sessionID)</text></g></g><g transform="translate(-38,-14) scale(1,1)"><g><path fill="none" stroke="none"/><text fill="#000000" stroke="none" font-family="Arial" font-size="13px" font-style="normal" font-weight="normal" text-decoration="none" x="53" y="339.5">+updateSession(sessionID)</text></g></g><g transform="translate(-38,-14) scale(1,1)"><g><path fill="none" stroke="none"/><text fill="#000000" stroke="none" font-family="Arial" font-size="13px" font-style="normal" font-weight="normal" text-decoration="none" x="53" y="354.5">+addInstrument()</text></g></g><g transform="translate(-38,-14) scale(1,1)"><g><path fill="none" stroke="none"/><text fill="#000000" stroke="none" font-family="Arial" font-size="13px" font-style="normal" font-weight="normal" text-decoration="none" x="53" y="369.5">+display()</text></g></g><g transform="translate(-38,-14) scale(1,1)"><rect fill="#C0C0C0" stroke="none" x="679" y="215" width="218" height="187" opacity="0.2"/></g><g transform="translate(-38,-14) scale(1,1)"><rect fill="#ffffff" stroke="none" x="672" y="208" width="218" height="187"/></g><g transform="translate(-38,-14) scale(1,1)"><path fill="none" stroke="#000000" d="M 672 208 L 890 208 L 890 395 L 672 395 L 672 208 Z Z" stroke-miterlimit="10"/></g><g transform="translate(-38,-14) scale(1,1)"><path fill="#ffffff" stroke="none" d="M 863.4 225 C 863.4 219.69806592 867.69806592 215.4 873 215.4 C 878.30193408 215.4 882.6 219.69806592 882.6 225 C 882.6 230.30193408 878.30193408 234.6 873 234.6 C 867.69806592 234.6 863.4 230.30193408 863.4 225 Z"/></g><g transform="translate(-38,-14) scale(1,1)"><path fill="none" stroke="#000000" d="M 863.4 225 C 863.4 219.69806592 867.69806592 215.4 873 215.4 C 878.30193408 215.4 882.6 219.69806592 882.6 225 C 882.6 230.30193408 878.30193408 234.6 873 234.6 C 867.69806592 234.6 863.4 230.30193408 863.4 225 Z" stroke-miterlimit="10"/></g><g transform="translate(-38,-14) scale(1,1)"><path fill="none" stroke="#000000" d="M 863.4 234.6 L 882.6 234.6" stroke-miterlimit="10"/></g><g transform="translate(-38,-14) scale(1,1)"><path fill="none" stroke="#000000" d="M 672 246 L 890 246" stroke-miterlimit="10"/></g><g transform="translate(-38,-14) scale(1,1)"><path fill="none" stroke="#000000" d="M 672 344 L 890 344" stroke-miterlimit="10"/></g><g transform="translate(-38,-14) scale(1,1)"><g><path fill="none" stroke="none"/><text fill="#000000" stroke="none" font-family="Arial" font-size="13px" font-style="normal" font-weight="normal" text-decoration="none" x="746" y="225.5">«entity»</text></g></g><g transform="translate(-38,-14) scale(1,1)"><g><path fill="none" stroke="none"/><text fill="#000000" stroke="none" font-family="Arial" font-size="13px" font-style="normal" font-weight="bold" text-decoration="none" x="745.5" y="240.5">Session</text></g></g><g transform="translate(-38,-14) scale(1,1)"><g><path fill="none" stroke="none"/><text fill="#000000" stroke="none" font-family="Arial" font-size="13px" font-style="normal" font-weight="normal" text-decoration="none" x="677" y="263.5">+id: integer {id, unique}</text></g></g><g transform="translate(-38,-14) scale(1,1)"><g><path fill="none" stroke="none"/><text fill="#000000" stroke="none" font-family="Arial" font-size="13px" font-style="normal" font-weight="normal" text-decoration="none" x="677" y="278.5">+tempo: integer = 120</text></g></g><g transform="translate(-38,-14) scale(1,1)"><g><path fill="none" stroke="none"/><text fill="#000000" stroke="none" font-family="Arial" font-size="13px" font-style="normal" font-weight="normal" text-decoration="none" x="677" y="293.5">+style: string</text></g></g><g transform="translate(-38,-14) scale(1,1)"><g><path fill="none" stroke="none"/><text fill="#000000" stroke="none" font-family="Arial" font-size="13px" font-style="normal" font-weight="normal" text-decoration="none" x="677" y="308.5">+label: string</text></g></g><g transform="translate(-38,-14) scale(1,1)"><g><path fill="none" stroke="none"/><text fill="#000000" stroke="none" font-family="Arial" font-size="13px" font-style="normal" font-weight="normal" text-decoration="none" x="677" y="323.5">+description: string</text></g></g><g transform="translate(-38,-14) scale(1,1)"><g><path fill="none" stroke="none"/><text fill="#000000" stroke="none" font-family="Arial" font-size="13px" font-style="normal" font-weight="normal" text-decoration="none" x="677" y="338.5">+live: boolean</text></g></g><g transform="translate(-38,-14) scale(1,1)"><g><path fill="none" stroke="none"/><text fill="#000000" stroke="none" font-family="Arial" font-size="13px" font-style="normal" font-weight="normal" text-decoration="none" x="677" y="361.5">+isLive(return: boolean)</text></g></g><g transform="translate(-38,-14) scale(1,1)"><path fill="none" stroke="#000000" d="M 602 315 L 671 310" stroke-miterlimit="10" stroke-dasharray="3"/></g><g transform="translate(-38,-14) scale(1,1)"><path fill="none" stroke="#000000" d="M 661.168142393696 314.93300881910454 L 671 310 L 660.55966282728 306.53599080256384" stroke-miterlimit="10"/></g><g transform="translate(-38,-14) scale(1,1)"><path fill="none" stroke="#000000" d="M 138 177 L 137 258" stroke-miterlimit="10"/></g><g transform="translate(-38,-14) scale(1,1)"><path fill="none" stroke="#000000" d="M 132.91625856716442 247.7861341349251 L 137 258 L 141.33465255555373 247.89006492490523" stroke-miterlimit="10"/></g></g></svg>