<svg version="1.1" xmlns="http://www.w3.org/2000/svg" xmlns:xlink="http://www.w3.org/1999/xlink" width="594" height="764"><defs/><g><g transform="translate(-16,2) scale(1,1)"><rect fill="#C0C0C0" stroke="none" x="191" y="15" width="416" height="744" opacity="0.2"/></g><g transform="translate(-16,2) scale(1,1)"><rect fill="#ffffff" stroke="none" x="184" y="8" width="416" height="744"/></g><g transform="translate(-16,2) scale(1,1)"><path fill="none" stroke="#000000" d="M 184 8 L 600 8 L 600 752 L 184 752 L 184 8 Z Z" stroke-miterlimit="10"/></g><g transform="translate(-16,2) scale(1,1)"><g><path fill="none" stroke="none"/><text fill="#000000" stroke="none" font-family="Arial" font-size="13px" font-style="normal" font-weight="bold" text-decoration="none" x="369.5" y="27.5">System</text></g></g><g transform="translate(-16,2) scale(1,1)"><path fill="none" stroke="#000000" d="M 296 280 L 504 280 L 504 416 L 296 416 L 296 280" stroke-miterlimit="10"/></g><g transform="translate(-16,2) scale(1,1)"><path fill="#ffffff" stroke="none" d="M 296 280 L 296 302 L 467 302 L 478 291 L 478 280 L 296 280"/></g><g transform="translate(-16,2) scale(1,1)"><path fill="none" stroke="#000000" d="M 296 280 L 296 302 L 467 302 L 478 291 L 478 280 L 296 280 L 296 280" stroke-miterlimit="10"/></g><g transform="translate(-16,2) scale(1,1)"><g><path fill="none" stroke="none"/><text fill="#000000" stroke="none" font-family="Arial" font-size="13px" font-style="normal" font-weight="normal" text-decoration="none" x="360" y="297.5">Manage sessions</text></g></g><g transform="translate(-16,2) scale(1,1)"><g><path fill="none" stroke="none"/><text fill="#000000" stroke="none" font-family="Arial" font-size="13px" font-style="normal" font-weight="bold" text-decoration="none" x="301" y="297.5">use case</text></g></g><g transform="translate(-16,2) scale(1,1)"><path fill="none" stroke="#000000" d="M 296 528 L 504 528 L 504 664 L 296 664 L 296 528" stroke-miterlimit="10"/></g><g transform="translate(-16,2) scale(1,1)"><path fill="#ffffff" stroke="none" d="M 296 528 L 296 550 L 483 550 L 494 539 L 494 528 L 296 528"/></g><g transform="translate(-16,2) scale(1,1)"><path fill="none" stroke="#000000" d="M 296 528 L 296 550 L 483 550 L 494 539 L 494 528 L 296 528 L 296 528" stroke-miterlimit="10"/></g><g transform="translate(-16,2) scale(1,1)"><g><path fill="none" stroke="none"/><text fill="#000000" stroke="none" font-family="Arial" font-size="13px" font-style="normal" font-weight="normal" text-decoration="none" x="360" y="545.5">Manage instruments</text></g></g><g transform="translate(-16,2) scale(1,1)"><g><path fill="none" stroke="none"/><text fill="#000000" stroke="none" font-family="Arial" font-size="13px" font-style="normal" font-weight="bold" text-decoration="none" x="301" y="545.5">use case</text></g></g><g transform="translate(-16,2) scale(1,1)"><path fill="#ffffff" stroke="none" d="M 60.82072727272727 281.68 C 60.82072727272727 276.886167936 64.70656959767273 273 69.5 273 C 74.29343040232727 273 78.17927272727273 276.886167936 78.17927272727273 281.68 C 78.17927272727273 286.473832064 74.29343040232727 290.36 69.5 290.36 C 64.70656959767273 290.36 60.82072727272727 286.473832064 60.82072727272727 281.68 Z"/></g><g transform="translate(-16,2) scale(1,1)"><path fill="none" stroke="#000000" d="M 60.82072727272727 281.68 C 60.82072727272727 276.886167936 64.70656959767273 273 69.5 273 C 74.29343040232727 273 78.17927272727273 276.886167936 78.17927272727273 281.68 C 78.17927272727273 286.473832064 74.29343040232727 290.36 69.5 290.36 C 64.70656959767273 290.36 60.82072727272727 286.473832064 60.82072727272727 281.68 Z" stroke-miterlimit="10"/></g><g transform="translate(-16,2) scale(1,1)"><path fill="none" stroke="#000000" d="M 69.5 290.36 L 69.5 307.64" stroke-miterlimit="10"/></g><g transform="translate(-16,2) scale(1,1)"><path fill="none" stroke="#000000" d="M 60.31018181818182 296.84 L 78.68981818181818 296.84" stroke-miterlimit="10"/></g><g transform="translate(-16,2) scale(1,1)"><path fill="none" stroke="#000000" d="M 69.5 307.64 L 56.736363636363635 325" stroke-miterlimit="10"/></g><g transform="translate(-16,2) scale(1,1)"><path fill="none" stroke="#000000" d="M 69.5 307.64 L 82.26363636363637 325" stroke-miterlimit="10"/></g><g transform="translate(-16,2) scale(1,1)"><g><path fill="none" stroke="none"/><text fill="#000000" stroke="none" font-family="Arial" font-size="13px" font-style="normal" font-weight="bold" text-decoration="none" x="46" y="345.5">Jammer</text></g></g><g transform="translate(-16,2) scale(1,1)"><path fill="#C0C0C0" stroke="none" d="M 343 112 C 343 102.6111584 381.055792 95 428 95 C 474.944208 95 513 102.6111584 513 112 C 513 121.3888416 474.944208 129 428 129 C 381.055792 129 343 121.3888416 343 112 Z" opacity="0.2"/></g><g transform="translate(-16,2) scale(1,1)"><path fill="#ffffff" stroke="none" d="M 336 105 C 336 95.6111584 374.055792 88 421 88 C 467.944208 88 506 95.6111584 506 105 C 506 114.3888416 467.944208 122 421 122 C 374.055792 122 336 114.3888416 336 105 Z"/></g><g transform="translate(-16,2) scale(1,1)"><path fill="none" stroke="#000000" d="M 336 105 C 336 95.6111584 374.055792 88 421 88 C 467.944208 88 506 95.6111584 506 105 C 506 114.3888416 467.944208 122 421 122 C 374.055792 122 336 114.3888416 336 105 Z" stroke-miterlimit="10"/></g><g transform="translate(-16,2) scale(1,1)"><g><path fill="none" stroke="none"/><text fill="#000000" stroke="none" font-family="Arial" font-size="13px" font-style="normal" font-weight="bold" text-decoration="none" x="399" y="112">Sign up</text></g></g><g transform="translate(-16,2) scale(1,1)"><path fill="#ffffff" stroke="none" d="M 64.32072727272727 601.6800000000001 C 64.32072727272727 596.8861679360001 68.20656959767273 593 73 593 C 77.79343040232727 593 81.67927272727273 596.8861679360001 81.67927272727273 601.6800000000001 C 81.67927272727273 606.473832064 77.79343040232727 610.36 73 610.36 C 68.20656959767273 610.36 64.32072727272727 606.473832064 64.32072727272727 601.6800000000001 Z"/></g><g transform="translate(-16,2) scale(1,1)"><path fill="none" stroke="#000000" d="M 64.32072727272727 601.6800000000001 C 64.32072727272727 596.8861679360001 68.20656959767273 593 73 593 C 77.79343040232727 593 81.67927272727273 596.8861679360001 81.67927272727273 601.6800000000001 C 81.67927272727273 606.473832064 77.79343040232727 610.36 73 610.36 C 68.20656959767273 610.36 64.32072727272727 606.473832064 64.32072727272727 601.6800000000001 Z" stroke-miterlimit="10"/></g><g transform="translate(-16,2) scale(1,1)"><path fill="none" stroke="#000000" d="M 73 610.36 L 73 627.64" stroke-miterlimit="10"/></g><g transform="translate(-16,2) scale(1,1)"><path fill="none" stroke="#000000" d="M 63.81018181818182 616.84 L 82.18981818181818 616.84" stroke-miterlimit="10"/></g><g transform="translate(-16,2) scale(1,1)"><path fill="none" stroke="#000000" d="M 73 627.64 L 60.236363636363635 645" stroke-miterlimit="10"/></g><g transform="translate(-16,2) scale(1,1)"><path fill="none" stroke="#000000" d="M 73 627.64 L 85.76363636363637 645" stroke-miterlimit="10"/></g><g transform="translate(-16,2) scale(1,1)"><g><path fill="none" stroke="none"/><text fill="#000000" stroke="none" font-family="Arial" font-size="13px" font-style="normal" font-weight="bold" text-decoration="none" x="54.5" y="665.5">Admin</text></g></g><g transform="translate(-16,2) scale(1,1)"><path fill="#C0C0C0" stroke="none" d="M 343 200 C 343 190.6111584 378.81721600000003 183 423 183 C 467.18278399999997 183 503 190.6111584 503 200 C 503 209.3888416 467.18278399999997 217 423 217 C 378.81721600000003 217 343 209.3888416 343 200 Z" opacity="0.2"/></g><g transform="translate(-16,2) scale(1,1)"><path fill="#ffffff" stroke="none" d="M 336 193 C 336 183.6111584 371.81721600000003 176 416 176 C 460.18278399999997 176 496 183.6111584 496 193 C 496 202.3888416 460.18278399999997 210 416 210 C 371.81721600000003 210 336 202.3888416 336 193 Z"/></g><g transform="translate(-16,2) scale(1,1)"><path fill="none" stroke="#000000" d="M 336 193 C 336 183.6111584 371.81721600000003 176 416 176 C 460.18278399999997 176 496 183.6111584 496 193 C 496 202.3888416 460.18278399999997 210 416 210 C 371.81721600000003 210 336 202.3888416 336 193 Z" stroke-miterlimit="10"/></g><g transform="translate(-16,2) scale(1,1)"><g><path fill="none" stroke="none"/><text fill="#000000" stroke="none" font-family="Arial" font-size="13px" font-style="normal" font-weight="bold" text-decoration="none" x="396" y="200">Sign in</text></g></g><g transform="translate(-16,2) scale(1,1)"><path fill="none" stroke="#000000" d="M 100 300 L 363 211" stroke-miterlimit="10"/></g><g transform="translate(-16,2) scale(1,1)"><path fill="#ffffff" stroke="none" d="M 61.82072727272727 73.68 C 61.82072727272727 68.886167936 65.70656959767273 65 70.5 65 C 75.29343040232727 65 79.17927272727273 68.886167936 79.17927272727273 73.68 C 79.17927272727273 78.473832064 75.29343040232727 82.36 70.5 82.36 C 65.70656959767273 82.36 61.82072727272727 78.473832064 61.82072727272727 73.68 Z"/></g><g transform="translate(-16,2) scale(1,1)"><path fill="none" stroke="#000000" d="M 61.82072727272727 73.68 C 61.82072727272727 68.886167936 65.70656959767273 65 70.5 65 C 75.29343040232727 65 79.17927272727273 68.886167936 79.17927272727273 73.68 C 79.17927272727273 78.473832064 75.29343040232727 82.36 70.5 82.36 C 65.70656959767273 82.36 61.82072727272727 78.473832064 61.82072727272727 73.68 Z" stroke-miterlimit="10"/></g><g transform="translate(-16,2) scale(1,1)"><path fill="none" stroke="#000000" d="M 70.5 82.36 L 70.5 99.64" stroke-miterlimit="10"/></g><g transform="translate(-16,2) scale(1,1)"><path fill="none" stroke="#000000" d="M 61.31018181818182 88.84 L 79.68981818181818 88.84" stroke-miterlimit="10"/></g><g transform="translate(-16,2) scale(1,1)"><path fill="none" stroke="#000000" d="M 70.5 99.64 L 57.736363636363635 117" stroke-miterlimit="10"/></g><g transform="translate(-16,2) scale(1,1)"><path fill="none" stroke="#000000" d="M 70.5 99.64 L 83.26363636363637 117" stroke-miterlimit="10"/></g><g transform="translate(-16,2) scale(1,1)"><g><path fill="none" stroke="none"/><text fill="#000000" stroke="none" font-family="Arial" font-size="13px" font-style="normal" font-weight="bold" text-decoration="none" x="44" y="137.5">WebUser</text></g></g><g transform="translate(-16,2) scale(1,1)"><path fill="none" stroke="#000000" d="M 69 271 L 70 144" stroke-miterlimit="10"/></g><g transform="translate(-16,2) scale(1,1)"><path fill="#FFFFFF" stroke="none" d="M 78.25873737088754 164.39100922070082 L 70 144 L 61.421188303798374 164.2584300941883"/></g><g transform="translate(-16,2) scale(1,1)"><path fill="none" stroke="#000000" d="M 78.25873737088754 164.39100922070082 L 70 144 L 61.421188303798374 164.2584300941883 L 78.25873737088754 164.39100922070082" stroke-miterlimit="10"/></g><g transform="translate(-16,2) scale(1,1)"><path fill="none" stroke="#000000" d="M 73 591 L 70 352" stroke-miterlimit="10"/></g><g transform="translate(-16,2) scale(1,1)"><path fill="#FFFFFF" stroke="none" d="M 78.6734821536076 372.21807872501864 L 70 352 L 61.83673747829231 372.42941861634057"/></g><g transform="translate(-16,2) scale(1,1)"><path fill="none" stroke="#000000" d="M 78.6734821536076 372.21807872501864 L 70 352 L 61.83673747829231 372.42941861634057 L 78.6734821536076 372.21807872501864" stroke-miterlimit="10"/></g><g transform="translate(-16,2) scale(1,1)"><path fill="none" stroke="#000000" d="M 116 103 L 335 105" stroke-miterlimit="10"/></g><g transform="translate(-16,2) scale(1,1)"><path fill="none" stroke="#000000" d="M 400 417 L 400 527" stroke-miterlimit="10" stroke-dasharray="3"/></g><g transform="translate(-16,2) scale(1,1)"><path fill="none" stroke="#000000" d="M 395.790482243984 516.8373251423759 L 400 527 L 404.209517756016 516.8373251423759" stroke-miterlimit="10"/></g><g transform="translate(-16,2) scale(1,1)"><path fill="none" stroke="#000000" d="M 100 314 L 295 336" stroke-miterlimit="10"/></g><g transform="translate(-16,2) scale(1,1)"><path fill="none" stroke="#000000" d="M 100 338 L 320 527" stroke-miterlimit="10"/></g><g transform="translate(-16,2) scale(1,1)"><path fill="none" stroke="#000000" d="M 99 628 L 295 607" stroke-miterlimit="10"/></g></g></svg>