<svg version="1.1" xmlns="http://www.w3.org/2000/svg" xmlns:xlink="http://www.w3.org/1999/xlink" width="508" height="661"><defs/><g><g transform="translate(-6,-14) scale(1,1)"><path fill="#C0C0C0" stroke="none" d="M 223 40.5 C 223 35.2532944 227.2532944 31 232.5 31 C 237.7467056 31 242 35.2532944 242 40.5 C 242 45.7467056 237.7467056 50 232.5 50 C 227.2532944 50 223 45.7467056 223 40.5 Z" opacity="0.2"/></g><g transform="translate(-6,-14) scale(1,1)"><path fill="#000000" stroke="none" d="M 216 33.5 C 216 28.2532944 220.2532944 24 225.5 24 C 230.7467056 24 235 28.2532944 235 33.5 C 235 38.7467056 230.7467056 43 225.5 43 C 220.2532944 43 216 38.7467056 216 33.5 Z"/></g><g transform="translate(-6,-14) scale(1,1)"><path fill="#C0C0C0" stroke="none" d="M 164 567 L 300 567 Q 310 567 310 577 L 310 597 Q 310 607 300 607 L 164 607 Q 154 607 154 597 L 154 577 Q 154 567 164 567 Z" opacity="0.2"/></g><g transform="translate(-6,-14) scale(1,1)"><path fill="#ffffff" stroke="none" d="M 157 560 L 293 560 Q 303 560 303 570 L 303 590 Q 303 600 293 600 L 157 600 Q 147 600 147 590 L 147 570 Q 147 560 157 560 Z"/></g><g transform="translate(-6,-14) scale(1,1)"><path fill="none" stroke="#000000" d="M 157 560 L 293 560 Q 303 560 303 570 L 303 590 Q 303 600 293 600 L 157 600 Q 147 600 147 590 L 147 570 Q 147 560 157 560 Z" stroke-miterlimit="10"/></g><g transform="translate(-6,-14) scale(1,1)"><g><path fill="none" stroke="none"/><text fill="#000000" stroke="none" font-family="Arial" font-size="13px" font-style="normal" font-weight="bold" text-decoration="none" x="158.5" y="579.5">Enregistrer l'instrument</text></g></g><g transform="translate(-6,-14) scale(1,1)"><path fill="#C0C0C0" stroke="none" d="M 220 659.5 C 220 652.59644 225.59644 647 232.5 647 C 239.40356 647 245 652.59644 245 659.5 C 245 666.40356 239.40356 672 232.5 672 C 225.59644 672 220 666.40356 220 659.5 Z" opacity="0.2"/></g><g transform="translate(-6,-14) scale(1,1)"><path fill="none" stroke="#000000" d="M 213 652.5 C 213 645.59644 218.59644 640 225.5 640 C 232.40356 640 238 645.59644 238 652.5 C 238 659.40356 232.40356 665 225.5 665 C 218.59644 665 213 659.40356 213 652.5 Z" stroke-miterlimit="10"/></g><g transform="translate(-6,-14) scale(1,1)"><path fill="#000000" stroke="none" d="M 218 652.5 C 218 648.357864 221.357864 645 225.5 645 C 229.642136 645 233 648.357864 233 652.5 C 233 656.642136 229.642136 660 225.5 660 C 221.357864 660 218 656.642136 218 652.5 Z"/></g><g transform="translate(-6,-14) scale(1,1)"><path fill="#C0C0C0" stroke="none" d="M 33 95 L 501 95 Q 511 95 511 105 L 511 501 Q 511 511 501 511 L 33 511 Q 23 511 23 501 L 23 105 Q 23 95 33 95 Z" opacity="0.2"/></g><g transform="translate(-6,-14) scale(1,1)"><path fill="#ffffff" stroke="none" d="M 26 88 L 494 88 Q 504 88 504 98 L 504 494 Q 504 504 494 504 L 26 504 Q 16 504 16 494 L 16 98 Q 16 88 26 88 Z"/></g><g transform="translate(-6,-14) scale(1,1)"><path fill="none" stroke="#000000" d="M 26 88 L 494 88 Q 504 88 504 98 L 504 494 Q 504 504 494 504 L 26 504 Q 16 504 16 494 L 16 98 Q 16 88 26 88 Z" stroke-miterlimit="10" stroke-dasharray="3"/></g><g transform="translate(-6,-14) scale(1,1)"><g><path fill="none" stroke="none"/><text fill="#000000" stroke="none" font-family="Arial" font-size="13px" font-style="normal" font-weight="normal" text-decoration="none" x="21" y="105.5">«iterative»</text></g></g><g transform="translate(-6,-14) scale(1,1)"><g><path fill="none" stroke="none"/><text fill="#000000" stroke="none" font-family="Arial" font-size="13px" font-style="normal" font-weight="bold" text-decoration="none" x="240.5" y="120.5">ranges</text></g></g><g transform="translate(-6,-14) scale(1,1)"><path fill="#C0C0C0" stroke="none" d="M 153 167 L 317 167 Q 327 167 327 177 L 327 197 Q 327 207 317 207 L 153 207 Q 143 207 143 197 L 143 177 Q 143 167 153 167 Z" opacity="0.2"/></g><g transform="translate(-6,-14) scale(1,1)"><path fill="#ffffff" stroke="none" d="M 146 160 L 310 160 Q 320 160 320 170 L 320 190 Q 320 200 310 200 L 146 200 Q 136 200 136 190 L 136 170 Q 136 160 146 160 Z"/></g><g transform="translate(-6,-14) scale(1,1)"><path fill="none" stroke="#000000" d="M 146 160 L 310 160 Q 320 160 320 170 L 320 190 Q 320 200 310 200 L 146 200 Q 136 200 136 190 L 136 170 Q 136 160 146 160 Z" stroke-miterlimit="10"/></g><g transform="translate(-6,-14) scale(1,1)"><g><path fill="none" stroke="none"/><text fill="#000000" stroke="none" font-family="Arial" font-size="13px" font-style="normal" font-weight="bold" text-decoration="none" x="145.5" y="179.5">Afficher la liste des samples</text></g></g><g transform="translate(-6,-14) scale(1,1)"><path fill="#C0C0C0" stroke="none" d="M 106 263 L 358 263 Q 368 263 368 273 L 368 293 Q 368 303 358 303 L 106 303 Q 96 303 96 293 L 96 273 Q 96 263 106 263 Z" opacity="0.2"/></g><g transform="translate(-6,-14) scale(1,1)"><path fill="#ffffff" stroke="none" d="M 99 256 L 351 256 Q 361 256 361 266 L 361 286 Q 361 296 351 296 L 99 296 Q 89 296 89 286 L 89 266 Q 89 256 99 256 Z"/></g><g transform="translate(-6,-14) scale(1,1)"><path fill="none" stroke="#000000" d="M 99 256 L 351 256 Q 361 256 361 266 L 361 286 Q 361 296 351 296 L 99 296 Q 89 296 89 286 L 89 266 Q 89 256 99 256 Z" stroke-miterlimit="10"/></g><g transform="translate(-6,-14) scale(1,1)"><g><path fill="none" stroke="none"/><text fill="#000000" stroke="none" font-family="Arial" font-size="13px" font-style="normal" font-weight="bold" text-decoration="none" x="103" y="275.5">Demander les notes définissant l'intervalle</text></g></g><g transform="translate(-6,-14) scale(1,1)"><path fill="#C0C0C0" stroke="none" d="M 141 351 L 326 351 Q 336 351 336 361 L 336 381 Q 336 391 326 391 L 141 391 Q 131 391 131 381 L 131 361 Q 131 351 141 351 Z" opacity="0.2"/></g><g transform="translate(-6,-14) scale(1,1)"><path fill="#ffffff" stroke="none" d="M 134 344 L 319 344 Q 329 344 329 354 L 329 374 Q 329 384 319 384 L 134 384 Q 124 384 124 374 L 124 354 Q 124 344 134 344 Z"/></g><g transform="translate(-6,-14) scale(1,1)"><path fill="none" stroke="#000000" d="M 134 344 L 319 344 Q 329 344 329 354 L 329 374 Q 329 384 319 384 L 134 384 Q 124 384 124 374 L 124 354 Q 124 344 134 344 Z" stroke-miterlimit="10"/></g><g transform="translate(-6,-14) scale(1,1)"><g><path fill="none" stroke="none"/><text fill="#000000" stroke="none" font-family="Arial" font-size="13px" font-style="normal" font-weight="bold" text-decoration="none" x="137" y="363.5">Vérifier la validité de l'intervalle</text></g></g><g transform="translate(-6,-14) scale(1,1)"><path fill="#C0C0C0" stroke="none" d="M 213 439.5 L 232.5 423 L 251 439.5 L 232.5 455 L 213 439.5" opacity="0.2"/></g><g transform="translate(-6,-14) scale(1,1)"><path fill="#ffffff" stroke="none" d="M 206 432 L 225 416 L 244 432 L 225 448 L 206 432"/></g><g transform="translate(-6,-14) scale(1,1)"><path fill="none" stroke="#000000" d="M 206 432 L 225 416 L 244 432 L 225 448 L 206 432 L 206 432" stroke-miterlimit="10"/></g><g transform="translate(-6,-14) scale(1,1)"><rect fill="#ffffff" stroke="none" x="190" y="80" width="71" height="17"/></g><g transform="translate(-6,-14) scale(1,1)"><path fill="none" stroke="#000000" d="M 190 80 L 261 80 L 261 97 L 190 97 L 190 80 Z Z" stroke-miterlimit="10"/></g><g transform="translate(-6,-14) scale(1,1)"><rect fill="#ffffff" stroke="none" x="190" y="80" width="71" height="17"/></g><g transform="translate(-6,-14) scale(1,1)"><path fill="none" stroke="#000000" d="M 190 80 L 261 80 L 261 97 L 190 97 L 190 80 Z Z" stroke-miterlimit="10"/></g><g transform="translate(-6,-14) scale(1,1)"><path fill="none" stroke="#000000" d="M 208 80 L 208 97" stroke-miterlimit="10"/></g><g transform="translate(-6,-14) scale(1,1)"><path fill="none" stroke="#000000" d="M 226 80 L 226 97" stroke-miterlimit="10"/></g><g transform="translate(-6,-14) scale(1,1)"><path fill="none" stroke="#000000" d="M 244 80 L 244 97" stroke-miterlimit="10"/></g><g transform="translate(-6,-14) scale(1,1)"><path fill="none" stroke="#000000" d="M 225 44 L 225 79" stroke-miterlimit="10"/></g><g transform="translate(-6,-14) scale(1,1)"><path fill="none" stroke="#000000" d="M 220.790482243984 68.83732514237585 L 225 79 L 229.209517756016 68.83732514237585" stroke-miterlimit="10"/></g><g transform="translate(-6,-14) scale(1,1)"><path fill="none" stroke="#000000" d="M 225 98 L 227 159" stroke-miterlimit="10"/></g><g transform="translate(-6,-14) scale(1,1)"><path fill="none" stroke="#000000" d="M 222.45971948917276 148.98072593033797 L 227 159 L 230.8742334995295 148.70484022508037" stroke-miterlimit="10"/></g><g transform="translate(-6,-14) scale(1,1)"><path fill="none" stroke="#000000" d="M 244 432 L 448 432 L 448 276 L 361 276" stroke-miterlimit="10"/></g><g transform="translate(-6,-14) scale(1,1)"><path fill="none" stroke="#000000" d="M 371.16267485762415 271.790482243984 L 361 276 L 371.16267485762415 280.209517756016" stroke-miterlimit="10"/></g><g transform="translate(-6,-14) scale(1,1)"><g><path fill="none" stroke="none"/><text fill="#000000" stroke="none" font-family="Arial" font-size="13px" font-style="normal" font-weight="normal" text-decoration="none" x="294.5" y="428.5"> [intervalle invalide]</text></g></g><g transform="translate(-6,-14) scale(1,1)"><path fill="none" stroke="#000000" d="M 226 385 L 225 415" stroke-miterlimit="10"/></g><g transform="translate(-6,-14) scale(1,1)"><path fill="none" stroke="#000000" d="M 221.13138670550276 404.7027270028595 L 225 415 L 229.54574886967976 404.9832057416654" stroke-miterlimit="10"/></g><g transform="translate(-6,-14) scale(1,1)"><rect fill="#ffffff" stroke="none" x="190" y="496" width="71" height="17"/></g><g transform="translate(-6,-14) scale(1,1)"><path fill="none" stroke="#000000" d="M 190 496 L 261 496 L 261 513 L 190 513 L 190 496 Z Z" stroke-miterlimit="10"/></g><g transform="translate(-6,-14) scale(1,1)"><rect fill="#ffffff" stroke="none" x="190" y="496" width="71" height="17"/></g><g transform="translate(-6,-14) scale(1,1)"><path fill="none" stroke="#000000" d="M 190 496 L 261 496 L 261 513 L 190 513 L 190 496 Z Z" stroke-miterlimit="10"/></g><g transform="translate(-6,-14) scale(1,1)"><path fill="none" stroke="#000000" d="M 208 496 L 208 513" stroke-miterlimit="10"/></g><g transform="translate(-6,-14) scale(1,1)"><path fill="none" stroke="#000000" d="M 226 496 L 226 513" stroke-miterlimit="10"/></g><g transform="translate(-6,-14) scale(1,1)"><path fill="none" stroke="#000000" d="M 244 496 L 244 513" stroke-miterlimit="10"/></g><g transform="translate(-6,-14) scale(1,1)"><path fill="none" stroke="#000000" d="M 225 449 L 225 495" stroke-miterlimit="10"/></g><g transform="translate(-6,-14) scale(1,1)"><path fill="none" stroke="#000000" d="M 220.790482243984 484.83732514237585 L 225 495 L 229.209517756016 484.83732514237585" stroke-miterlimit="10"/></g><g transform="translate(-6,-14) scale(1,1)"><g><path fill="none" stroke="none"/><text fill="#000000" stroke="none" font-family="Arial" font-size="13px" font-style="normal" font-weight="normal" text-decoration="none" x="187.5" y="477.5"> [intervalle valide]</text></g></g><g transform="translate(-6,-14) scale(1,1)"><path fill="none" stroke="#000000" d="M 225 514 L 225 559" stroke-miterlimit="10"/></g><g transform="translate(-6,-14) scale(1,1)"><path fill="none" stroke="#000000" d="M 220.790482243984 548.8373251423759 L 225 559 L 229.209517756016 548.8373251423759" stroke-miterlimit="10"/></g><g transform="translate(-6,-14) scale(1,1)"><path fill="none" stroke="#000000" d="M 225 601 L 225 639" stroke-miterlimit="10"/></g><g transform="translate(-6,-14) scale(1,1)"><path fill="none" stroke="#000000" d="M 220.790482243984 628.8373251423759 L 225 639 L 229.209517756016 628.8373251423759" stroke-miterlimit="10"/></g><g transform="translate(-6,-14) scale(1,1)"><path fill="none" stroke="#000000" d="M 227 201 L 226 255" stroke-miterlimit="10"/></g><g transform="translate(-6,-14) scale(1,1)"><path fill="none" stroke="#000000" d="M 221.9793692759974 244.76112659609436 L 226 255 L 230.39696156602307 244.91700793479853" stroke-miterlimit="10"/></g><g transform="translate(-6,-14) scale(1,1)"><path fill="none" stroke="#000000" d="M 225 297 L 226 343" stroke-miterlimit="10"/></g><g transform="translate(-6,-14) scale(1,1)"><path fill="none" stroke="#000000" d="M 221.57060105042297 332.93121531934037 L 226 343 L 229.98764789217512 332.74823604017183" stroke-miterlimit="10"/></g></g></svg>