<svg version="1.1" xmlns="http://www.w3.org/2000/svg" xmlns:xlink="http://www.w3.org/1999/xlink" width="508" height="733"><defs/><g><g transform="translate(-6,-14) scale(1,1)"><path fill="#C0C0C0" stroke="none" d="M 223 40.5 C 223 35.2532944 227.2532944 31 232.5 31 C 237.7467056 31 242 35.2532944 242 40.5 C 242 45.7467056 237.7467056 50 232.5 50 C 227.2532944 50 223 45.7467056 223 40.5 Z" opacity="0.2"/></g><g transform="translate(-6,-14) scale(1,1)"><path fill="#000000" stroke="none" d="M 216 33.5 C 216 28.2532944 220.2532944 24 225.5 24 C 230.7467056 24 235 28.2532944 235 33.5 C 235 38.7467056 230.7467056 43 225.5 43 C 220.2532944 43 216 38.7467056 216 33.5 Z"/></g><g transform="translate(-6,-14) scale(1,1)"><path fill="#C0C0C0" stroke="none" d="M 164 639 L 300 639 Q 310 639 310 649 L 310 669 Q 310 679 300 679 L 164 679 Q 154 679 154 669 L 154 649 Q 154 639 164 639 Z" opacity="0.2"/></g><g transform="translate(-6,-14) scale(1,1)"><path fill="#ffffff" stroke="none" d="M 157 632 L 293 632 Q 303 632 303 642 L 303 662 Q 303 672 293 672 L 157 672 Q 147 672 147 662 L 147 642 Q 147 632 157 632 Z"/></g><g transform="translate(-6,-14) scale(1,1)"><path fill="none" stroke="#000000" d="M 157 632 L 293 632 Q 303 632 303 642 L 303 662 Q 303 672 293 672 L 157 672 Q 147 672 147 662 L 147 642 Q 147 632 157 632 Z" stroke-miterlimit="10"/></g><g transform="translate(-6,-14) scale(1,1)"><g><path fill="none" stroke="none"/><text fill="#000000" stroke="none" font-family="Arial" font-size="13px" font-style="normal" font-weight="bold" text-decoration="none" x="158.5" y="651.5">Enregistrer l'instrument</text></g></g><g transform="translate(-6,-14) scale(1,1)"><path fill="#C0C0C0" stroke="none" d="M 220 731.5 C 220 724.59644 225.59644 719 232.5 719 C 239.40356 719 245 724.59644 245 731.5 C 245 738.40356 239.40356 744 232.5 744 C 225.59644 744 220 738.40356 220 731.5 Z" opacity="0.2"/></g><g transform="translate(-6,-14) scale(1,1)"><path fill="none" stroke="#000000" d="M 213 724.5 C 213 717.59644 218.59644 712 225.5 712 C 232.40356 712 238 717.59644 238 724.5 C 238 731.40356 232.40356 737 225.5 737 C 218.59644 737 213 731.40356 213 724.5 Z" stroke-miterlimit="10"/></g><g transform="translate(-6,-14) scale(1,1)"><path fill="#000000" stroke="none" d="M 218 724.5 C 218 720.357864 221.357864 717 225.5 717 C 229.642136 717 233 720.357864 233 724.5 C 233 728.642136 229.642136 732 225.5 732 C 221.357864 732 218 728.642136 218 724.5 Z"/></g><g transform="translate(-6,-14) scale(1,1)"><path fill="#C0C0C0" stroke="none" d="M 33 95 L 501 95 Q 511 95 511 105 L 511 501 Q 511 511 501 511 L 33 511 Q 23 511 23 501 L 23 105 Q 23 95 33 95 Z" opacity="0.2"/></g><g transform="translate(-6,-14) scale(1,1)"><path fill="#ffffff" stroke="none" d="M 26 88 L 494 88 Q 504 88 504 98 L 504 494 Q 504 504 494 504 L 26 504 Q 16 504 16 494 L 16 98 Q 16 88 26 88 Z"/></g><g transform="translate(-6,-14) scale(1,1)"><path fill="none" stroke="#000000" d="M 26 88 L 494 88 Q 504 88 504 98 L 504 494 Q 504 504 494 504 L 26 504 Q 16 504 16 494 L 16 98 Q 16 88 26 88 Z" stroke-miterlimit="10" stroke-dasharray="3"/></g><g transform="translate(-6,-14) scale(1,1)"><g><path fill="none" stroke="none"/><text fill="#000000" stroke="none" font-family="Arial" font-size="13px" font-style="normal" font-weight="normal" text-decoration="none" x="21" y="105.5">«iterative»</text></g></g><g transform="translate(-6,-14) scale(1,1)"><g><path fill="none" stroke="none"/><text fill="#000000" stroke="none" font-family="Arial" font-size="13px" font-style="normal" font-weight="bold" text-decoration="none" x="240.5" y="120.5">ranges</text></g></g><g transform="translate(-6,-14) scale(1,1)"><path fill="#C0C0C0" stroke="none" d="M 153 167 L 317 167 Q 327 167 327 177 L 327 197 Q 327 207 317 207 L 153 207 Q 143 207 143 197 L 143 177 Q 143 167 153 167 Z" opacity="0.2"/></g><g transform="translate(-6,-14) scale(1,1)"><path fill="#ffffff" stroke="none" d="M 146 160 L 310 160 Q 320 160 320 170 L 320 190 Q 320 200 310 200 L 146 200 Q 136 200 136 190 L 136 170 Q 136 160 146 160 Z"/></g><g transform="translate(-6,-14) scale(1,1)"><path fill="none" stroke="#000000" d="M 146 160 L 310 160 Q 320 160 320 170 L 320 190 Q 320 200 310 200 L 146 200 Q 136 200 136 190 L 136 170 Q 136 160 146 160 Z" stroke-miterlimit="10"/></g><g transform="translate(-6,-14) scale(1,1)"><g><path fill="none" stroke="none"/><text fill="#000000" stroke="none" font-family="Arial" font-size="13px" font-style="normal" font-weight="bold" text-decoration="none" x="145.5" y="179.5">Afficher la liste des samples</text></g></g><g transform="translate(-6,-14) scale(1,1)"><path fill="#C0C0C0" stroke="none" d="M 97 263 L 373 263 Q 383 263 383 273 L 383 293 Q 383 303 373 303 L 97 303 Q 87 303 87 293 L 87 273 Q 87 263 97 263 Z" opacity="0.2"/></g><g transform="translate(-6,-14) scale(1,1)"><path fill="#ffffff" stroke="none" d="M 90 256 L 366 256 Q 376 256 376 266 L 376 286 Q 376 296 366 296 L 90 296 Q 80 296 80 286 L 80 266 Q 80 256 90 256 Z"/></g><g transform="translate(-6,-14) scale(1,1)"><path fill="none" stroke="#000000" d="M 90 256 L 366 256 Q 376 256 376 266 L 376 286 Q 376 296 366 296 L 90 296 Q 80 296 80 286 L 80 266 Q 80 256 90 256 Z" stroke-miterlimit="10"/></g><g transform="translate(-6,-14) scale(1,1)"><g><path fill="none" stroke="none"/><text fill="#000000" stroke="none" font-family="Arial" font-size="13px" font-style="normal" font-weight="bold" text-decoration="none" x="106" y="275.5">Demander les notes définissant l'intervalle</text></g></g><g transform="translate(-6,-14) scale(1,1)"><path fill="#C0C0C0" stroke="none" d="M 141 351 L 326 351 Q 336 351 336 361 L 336 381 Q 336 391 326 391 L 141 391 Q 131 391 131 381 L 131 361 Q 131 351 141 351 Z" opacity="0.2"/></g><g transform="translate(-6,-14) scale(1,1)"><path fill="#ffffff" stroke="none" d="M 134 344 L 319 344 Q 329 344 329 354 L 329 374 Q 329 384 319 384 L 134 384 Q 124 384 124 374 L 124 354 Q 124 344 134 344 Z"/></g><g transform="translate(-6,-14) scale(1,1)"><path fill="none" stroke="#000000" d="M 134 344 L 319 344 Q 329 344 329 354 L 329 374 Q 329 384 319 384 L 134 384 Q 124 384 124 374 L 124 354 Q 124 344 134 344 Z" stroke-miterlimit="10"/></g><g transform="translate(-6,-14) scale(1,1)"><g><path fill="none" stroke="none"/><text fill="#000000" stroke="none" font-family="Arial" font-size="13px" font-style="normal" font-weight="bold" text-decoration="none" x="137" y="363.5">Vérifier la validité de l'intervalle</text></g></g><g transform="translate(-6,-14) scale(1,1)"><path fill="#C0C0C0" stroke="none" d="M 213 439.5 L 232.5 423 L 251 439.5 L 232.5 455 L 213 439.5" opacity="0.2"/></g><g transform="translate(-6,-14) scale(1,1)"><path fill="#ffffff" stroke="none" d="M 206 432 L 225 416 L 244 432 L 225 448 L 206 432"/></g><g transform="translate(-6,-14) scale(1,1)"><path fill="none" stroke="#000000" d="M 206 432 L 225 416 L 244 432 L 225 448 L 206 432 L 206 432" stroke-miterlimit="10"/></g><g transform="translate(-6,-14) scale(1,1)"><rect fill="#ffffff" stroke="none" x="190" y="80" width="71" height="17"/></g><g transform="translate(-6,-14) scale(1,1)"><path fill="none" stroke="#000000" d="M 190 80 L 261 80 L 261 97 L 190 97 L 190 80 Z Z" stroke-miterlimit="10"/></g><g transform="translate(-6,-14) scale(1,1)"><rect fill="#ffffff" stroke="none" x="190" y="80" width="71" height="17"/></g><g transform="translate(-6,-14) scale(1,1)"><path fill="none" stroke="#000000" d="M 190 80 L 261 80 L 261 97 L 190 97 L 190 80 Z Z" stroke-miterlimit="10"/></g><g transform="translate(-6,-14) scale(1,1)"><path fill="none" stroke="#000000" d="M 208 80 L 208 97" stroke-miterlimit="10"/></g><g transform="translate(-6,-14) scale(1,1)"><path fill="none" stroke="#000000" d="M 226 80 L 226 97" stroke-miterlimit="10"/></g><g transform="translate(-6,-14) scale(1,1)"><path fill="none" stroke="#000000" d="M 244 80 L 244 97" stroke-miterlimit="10"/></g><g transform="translate(-6,-14) scale(1,1)"><path fill="none" stroke="#000000" d="M 225 44 L 225 79" stroke-miterlimit="10"/></g><g transform="translate(-6,-14) scale(1,1)"><path fill="none" stroke="#000000" d="M 220.790482243984 68.83732514237585 L 225 79 L 229.209517756016 68.83732514237585" stroke-miterlimit="10"/></g><g transform="translate(-6,-14) scale(1,1)"><path fill="none" stroke="#000000" d="M 225 98 L 227 159" stroke-miterlimit="10"/></g><g transform="translate(-6,-14) scale(1,1)"><path fill="none" stroke="#000000" d="M 222.45971948917276 148.98072593033797 L 227 159 L 230.8742334995295 148.70484022508037" stroke-miterlimit="10"/></g><g transform="translate(-6,-14) scale(1,1)"><path fill="none" stroke="#000000" d="M 244 432 L 448 432 L 448 276 L 376 276" stroke-miterlimit="10"/></g><g transform="translate(-6,-14) scale(1,1)"><path fill="none" stroke="#000000" d="M 386.16267485762415 271.790482243984 L 376 276 L 386.16267485762415 280.209517756016" stroke-miterlimit="10"/></g><g transform="translate(-6,-14) scale(1,1)"><g><path fill="none" stroke="none"/><text fill="#000000" stroke="none" font-family="Arial" font-size="13px" font-style="normal" font-weight="normal" text-decoration="none" x="294.5" y="428.5"> [intervalle invalide]</text></g></g><g transform="translate(-6,-14) scale(1,1)"><path fill="none" stroke="#000000" d="M 226 385 L 225 415" stroke-miterlimit="10"/></g><g transform="translate(-6,-14) scale(1,1)"><path fill="none" stroke="#000000" d="M 221.13138670550276 404.7027270028595 L 225 415 L 229.54574886967976 404.9832057416654" stroke-miterlimit="10"/></g><g transform="translate(-6,-14) scale(1,1)"><rect fill="#ffffff" stroke="none" x="190" y="496" width="71" height="17"/></g><g transform="translate(-6,-14) scale(1,1)"><path fill="none" stroke="#000000" d="M 190 496 L 261 496 L 261 513 L 190 513 L 190 496 Z Z" stroke-miterlimit="10"/></g><g transform="translate(-6,-14) scale(1,1)"><rect fill="#ffffff" stroke="none" x="190" y="496" width="71" height="17"/></g><g transform="translate(-6,-14) scale(1,1)"><path fill="none" stroke="#000000" d="M 190 496 L 261 496 L 261 513 L 190 513 L 190 496 Z Z" stroke-miterlimit="10"/></g><g transform="translate(-6,-14) scale(1,1)"><path fill="none" stroke="#000000" d="M 208 496 L 208 513" stroke-miterlimit="10"/></g><g transform="translate(-6,-14) scale(1,1)"><path fill="none" stroke="#000000" d="M 226 496 L 226 513" stroke-miterlimit="10"/></g><g transform="translate(-6,-14) scale(1,1)"><path fill="none" stroke="#000000" d="M 244 496 L 244 513" stroke-miterlimit="10"/></g><g transform="translate(-6,-14) scale(1,1)"><path fill="none" stroke="#000000" d="M 225 449 L 225 495" stroke-miterlimit="10"/></g><g transform="translate(-6,-14) scale(1,1)"><path fill="none" stroke="#000000" d="M 220.790482243984 484.83732514237585 L 225 495 L 229.209517756016 484.83732514237585" stroke-miterlimit="10"/></g><g transform="translate(-6,-14) scale(1,1)"><g><path fill="none" stroke="none"/><text fill="#000000" stroke="none" font-family="Arial" font-size="13px" font-style="normal" font-weight="normal" text-decoration="none" x="187.5" y="477.5"> [intervalle valide]</text></g></g><g transform="translate(-6,-14) scale(1,1)"><path fill="none" stroke="#000000" d="M 225 514 L 225 551" stroke-miterlimit="10"/></g><g transform="translate(-6,-14) scale(1,1)"><path fill="none" stroke="#000000" d="M 220.790482243984 540.8373251423759 L 225 551 L 229.209517756016 540.8373251423759" stroke-miterlimit="10"/></g><g transform="translate(-6,-14) scale(1,1)"><path fill="none" stroke="#000000" d="M 225 673 L 225 711" stroke-miterlimit="10"/></g><g transform="translate(-6,-14) scale(1,1)"><path fill="none" stroke="#000000" d="M 220.790482243984 700.8373251423759 L 225 711 L 229.209517756016 700.8373251423759" stroke-miterlimit="10"/></g><g transform="translate(-6,-14) scale(1,1)"><path fill="none" stroke="#000000" d="M 228 201 L 228 255" stroke-miterlimit="10"/></g><g transform="translate(-6,-14) scale(1,1)"><path fill="none" stroke="#000000" d="M 223.790482243984 244.83732514237585 L 228 255 L 232.209517756016 244.83732514237585" stroke-miterlimit="10"/></g><g transform="translate(-6,-14) scale(1,1)"><path fill="none" stroke="#000000" d="M 228 297 L 226 343" stroke-miterlimit="10"/></g><g transform="translate(-6,-14) scale(1,1)"><path fill="none" stroke="#000000" d="M 222.23589374918507 332.6640673312673 L 226 343 L 230.64698302489055 333.02976686499363" stroke-miterlimit="10"/></g><g transform="translate(-6,-14) scale(1,1)"><path fill="#C0C0C0" stroke="none" d="M 129 559 L 335 559 Q 345 559 345 569 L 345 589 Q 345 599 335 599 L 129 599 Q 119 599 119 589 L 119 569 Q 119 559 129 559 Z" opacity="0.2"/></g><g transform="translate(-6,-14) scale(1,1)"><path fill="#ffffff" stroke="none" d="M 122 552 L 328 552 Q 338 552 338 562 L 338 582 Q 338 592 328 592 L 122 592 Q 112 592 112 582 L 112 562 Q 112 552 122 552 Z"/></g><g transform="translate(-6,-14) scale(1,1)"><path fill="none" stroke="#000000" d="M 122 552 L 328 552 Q 338 552 338 562 L 338 582 Q 338 592 328 592 L 122 592 Q 112 592 112 582 L 112 562 Q 112 552 122 552 Z" stroke-miterlimit="10"/></g><g transform="translate(-6,-14) scale(1,1)"><g><path fill="none" stroke="none"/><text fill="#000000" stroke="none" font-family="Arial" font-size="13px" font-style="normal" font-weight="bold" text-decoration="none" x="126" y="571.5">Demander le libellé de l'instrument</text></g></g><g transform="translate(-6,-14) scale(1,1)"><path fill="none" stroke="#000000" d="M 225 593 L 225 631" stroke-miterlimit="10"/></g><g transform="translate(-6,-14) scale(1,1)"><path fill="none" stroke="#000000" d="M 220.790482243984 620.8373251423759 L 225 631 L 229.209517756016 620.8373251423759" stroke-miterlimit="10"/></g></g></svg>