<svg version="1.1" xmlns="http://www.w3.org/2000/svg" xmlns:xlink="http://www.w3.org/1999/xlink" width="1588" height="1031"><defs/><g><g transform="translate(10,5) scale(1,1)"><path fill="none" stroke="#000000" d="M 0 5 L 1568 5 L 1568 1016 L 0 1016 L 0 5" stroke-miterlimit="10"/></g><g transform="translate(10,5) scale(1,1)"><path fill="#ffffff" stroke="none" d="M 0 5 L 0 27 L 197 27 L 208 16 L 208 5 L 0 5"/></g><g transform="translate(10,5) scale(1,1)"><path fill="none" stroke="#000000" d="M 0 5 L 0 27 L 197 27 L 208 16 L 208 5 L 0 5 L 0 5" stroke-miterlimit="10"/></g><g transform="translate(10,5) scale(1,1)"><g><path fill="none" stroke="none"/><text fill="#000000" stroke="none" font-family="Arial" font-size="13px" font-style="normal" font-weight="normal" text-decoration="none" x="71" y="22.5">Create an instrument</text></g></g><g transform="translate(10,5) scale(1,1)"><g><path fill="none" stroke="none"/><text fill="#000000" stroke="none" font-family="Arial" font-size="13px" font-style="normal" font-weight="bold" text-decoration="none" x="5" y="22.5">interaction</text></g></g><g transform="translate(10,5) scale(1,1)"><path fill="#ffffff" stroke="none" d="M 249.5 60 C 249.5 51.1634432 256.6634432 44 265.5 44 C 274.3365568 44 281.5 51.1634432 281.5 60 C 281.5 68.8365568 274.3365568 76 265.5 76 C 256.6634432 76 249.5 68.8365568 249.5 60 Z"/></g><g transform="translate(10,5) scale(1,1)"><path fill="none" stroke="#000000" d="M 249.5 60 C 249.5 51.1634432 256.6634432 44 265.5 44 C 274.3365568 44 281.5 51.1634432 281.5 60 C 281.5 68.8365568 274.3365568 76 265.5 76 C 256.6634432 76 249.5 68.8365568 249.5 60 Z" stroke-miterlimit="10"/></g><g transform="translate(10,5) scale(1,1)"><path fill="none" stroke="#000000" d="M 241.5 44 L 241.5 76" stroke-miterlimit="10"/></g><g transform="translate(10,5) scale(1,1)"><path fill="none" stroke="#000000" d="M 241.5 60 L 249.5 60" stroke-miterlimit="10"/></g><g transform="translate(10,5) scale(1,1)"><g><path fill="none" stroke="none"/><text fill="#000000" stroke="none" font-family="Arial" font-size="13px" font-style="normal" font-weight="bold" text-decoration="none" x="207.5" y="99.5">: NewInstrumentUI</text></g></g><g transform="translate(10,5) scale(1,1)"><path fill="none" stroke="#000000" d="M 262.5 105 L 262.5 1008" stroke-miterlimit="10" stroke-dasharray="3"/></g><g transform="translate(10,5) scale(1,1)"><path fill="#ffffff" stroke="none" d="M 51.07090909090909 47.3 C 51.07090909090909 43.82060576 53.94931081309091 41 57.5 41 C 61.05068918690909 41 63.92909090909091 43.82060576 63.92909090909091 47.3 C 63.92909090909091 50.779394239999995 61.05068918690909 53.6 57.5 53.6 C 53.94931081309091 53.6 51.07090909090909 50.779394239999995 51.07090909090909 47.3 Z"/></g><g transform="translate(10,5) scale(1,1)"><path fill="none" stroke="#000000" d="M 51.07090909090909 47.3 C 51.07090909090909 43.82060576 53.94931081309091 41 57.5 41 C 61.05068918690909 41 63.92909090909091 43.82060576 63.92909090909091 47.3 C 63.92909090909091 50.779394239999995 61.05068918690909 53.6 57.5 53.6 C 53.94931081309091 53.6 51.07090909090909 50.779394239999995 51.07090909090909 47.3 Z" stroke-miterlimit="10"/></g><g transform="translate(10,5) scale(1,1)"><path fill="none" stroke="#000000" d="M 57.5 53.6 L 57.5 66.4" stroke-miterlimit="10"/></g><g transform="translate(10,5) scale(1,1)"><path fill="none" stroke="#000000" d="M 50.692727272727275 58.4 L 64.30727272727273 58.4" stroke-miterlimit="10"/></g><g transform="translate(10,5) scale(1,1)"><path fill="none" stroke="#000000" d="M 57.5 66.4 L 48.04545454545455 79" stroke-miterlimit="10"/></g><g transform="translate(10,5) scale(1,1)"><path fill="none" stroke="#000000" d="M 57.5 66.4 L 66.95454545454545 79" stroke-miterlimit="10"/></g><g transform="translate(10,5) scale(1,1)"><g><path fill="none" stroke="none"/><text fill="#000000" stroke="none" font-family="Arial" font-size="13px" font-style="normal" font-weight="bold" text-decoration="none" x="30" y="99.5">: Jammer</text></g></g><g transform="translate(10,5) scale(1,1)"><path fill="none" stroke="#000000" d="M 58.5 105 L 58.5 1008" stroke-miterlimit="10" stroke-dasharray="3"/></g><g transform="translate(10,5) scale(1,1)"><path fill="#ffffff" stroke="none" d="M 754 60 C 754 51.715728 760.715728 45 769 45 C 777.284272 45 784 51.715728 784 60 C 784 68.284272 777.284272 75 769 75 C 760.715728 75 754 68.284272 754 60 Z"/></g><g transform="translate(10,5) scale(1,1)"><path fill="none" stroke="#000000" d="M 754 60 C 754 51.715728 760.715728 45 769 45 C 777.284272 45 784 51.715728 784 60 C 784 68.284272 777.284272 75 769 75 C 760.715728 75 754 68.284272 754 60 Z" stroke-miterlimit="10"/></g><g transform="translate(10,5) scale(1,1)"><path fill="none" stroke="#000000" d="M 769 45 L 774 40" stroke-miterlimit="10"/></g><g transform="translate(10,5) scale(1,1)"><path fill="none" stroke="#000000" d="M 769 45 L 774 50" stroke-miterlimit="10"/></g><g transform="translate(10,5) scale(1,1)"><g><path fill="none" stroke="none"/><text fill="#000000" stroke="none" font-family="Arial" font-size="13px" font-style="normal" font-weight="bold" text-decoration="none" x="712" y="99.5">: InstrumentService</text></g></g><g transform="translate(10,5) scale(1,1)"><path fill="none" stroke="#000000" d="M 770.5 105 L 770.5 1008" stroke-miterlimit="10" stroke-dasharray="3"/></g><g transform="translate(10,5) scale(1,1)"><path fill="none" stroke="#000000" d="M 24 384 L 312 384 L 312 560 L 24 560 L 24 384" stroke-miterlimit="10"/></g><g transform="translate(10,5) scale(1,1)"><path fill="#ffffff" stroke="none" d="M 24 384 L 24 406 L 134 406 L 145 395 L 145 384 L 24 384"/></g><g transform="translate(10,5) scale(1,1)"><path fill="none" stroke="#000000" d="M 24 384 L 24 406 L 134 406 L 145 395 L 145 384 L 24 384 L 24 384" stroke-miterlimit="10"/></g><g transform="translate(10,5) scale(1,1)"><g><path fill="none" stroke="none"/><text fill="#000000" stroke="none" font-family="Arial" font-size="13px" font-style="normal" font-weight="normal" text-decoration="none" x="59" y="401.5">addMapping</text></g></g><g transform="translate(10,5) scale(1,1)"><g><path fill="none" stroke="none"/><text fill="#000000" stroke="none" font-family="Arial" font-size="13px" font-style="normal" font-weight="bold" text-decoration="none" x="29" y="401.5">loop</text></g></g><g transform="translate(10,5) scale(1,1)"><rect fill="#C0C0C0" stroke="none" x="1447" y="47" width="109" height="39" opacity="0.2"/></g><g transform="translate(10,5) scale(1,1)"><rect fill="#ffffff" stroke="none" x="1440" y="40" width="109" height="39"/></g><g transform="translate(10,5) scale(1,1)"><path fill="none" stroke="#000000" d="M 1440 40 L 1549 40 L 1549 79 L 1440 79 L 1440 40 Z Z" stroke-miterlimit="10"/></g><g transform="translate(10,5) scale(1,1)"><g><path fill="none" stroke="none"/><text fill="#000000" stroke="none" font-family="Arial" font-size="13px" font-style="normal" font-weight="bold" text-decoration="none" x="1452" y="59.5">: MappingDAO</text></g></g><g transform="translate(10,5) scale(1,1)"><path fill="none" stroke="#000000" d="M 1495.5 80 L 1495.5 1008" stroke-miterlimit="10" stroke-dasharray="3"/></g><g transform="translate(10,5) scale(1,1)"><path fill="#ffffff" stroke="none" d="M 1368.5 856 C 1368.5 847.1634432 1375.6634432 840 1384.5 840 C 1393.3365568 840 1400.5 847.1634432 1400.5 856 C 1400.5 864.8365568 1393.3365568 872 1384.5 872 C 1375.6634432 872 1368.5 864.8365568 1368.5 856 Z"/></g><g transform="translate(10,5) scale(1,1)"><path fill="none" stroke="#000000" d="M 1368.5 856 C 1368.5 847.1634432 1375.6634432 840 1384.5 840 C 1393.3365568 840 1400.5 847.1634432 1400.5 856 C 1400.5 864.8365568 1393.3365568 872 1384.5 872 C 1375.6634432 872 1368.5 864.8365568 1368.5 856 Z" stroke-miterlimit="10"/></g><g transform="translate(10,5) scale(1,1)"><path fill="none" stroke="#000000" d="M 1368.5 872 L 1400.5 872" stroke-miterlimit="10"/></g><g transform="translate(10,5) scale(1,1)"><g><path fill="none" stroke="none"/><text fill="#000000" stroke="none" font-family="Arial" font-size="13px" font-style="normal" font-weight="bold" text-decoration="none" x="1300.5" y="895.5">mapping: InstrumentMapping</text></g></g><g transform="translate(10,5) scale(1,1)"><path fill="none" stroke="#000000" d="M 1385.5 901 L 1385.5 984" stroke-miterlimit="10" stroke-dasharray="3"/></g><g transform="translate(10,5) scale(1,1)"><rect fill="#C0C0C0" stroke="none" x="959" y="47" width="122" height="39" opacity="0.2"/></g><g transform="translate(10,5) scale(1,1)"><rect fill="#ffffff" stroke="none" x="952" y="40" width="122" height="39"/></g><g transform="translate(10,5) scale(1,1)"><path fill="none" stroke="#000000" d="M 952 40 L 1074 40 L 1074 79 L 952 79 L 952 40 Z Z" stroke-miterlimit="10"/></g><g transform="translate(10,5) scale(1,1)"><g><path fill="none" stroke="none"/><text fill="#000000" stroke="none" font-family="Arial" font-size="13px" font-style="normal" font-weight="bold" text-decoration="none" x="964" y="59.5">: InstrumentDAO</text></g></g><g transform="translate(10,5) scale(1,1)"><path fill="none" stroke="#000000" d="M 1014.5 80 L 1014.5 1008" stroke-miterlimit="10" stroke-dasharray="3"/></g><g transform="translate(10,5) scale(1,1)"><path fill="#ffffff" stroke="none" d="M 904 672 C 904 663.1634432 911.1634432 656 920 656 C 928.8365568 656 936 663.1634432 936 672 C 936 680.8365568 928.8365568 688 920 688 C 911.1634432 688 904 680.8365568 904 672 Z"/></g><g transform="translate(10,5) scale(1,1)"><path fill="none" stroke="#000000" d="M 904 672 C 904 663.1634432 911.1634432 656 920 656 C 928.8365568 656 936 663.1634432 936 672 C 936 680.8365568 928.8365568 688 920 688 C 911.1634432 688 904 680.8365568 904 672 Z" stroke-miterlimit="10"/></g><g transform="translate(10,5) scale(1,1)"><path fill="none" stroke="#000000" d="M 904 688 L 936 688" stroke-miterlimit="10"/></g><g transform="translate(10,5) scale(1,1)"><g><path fill="none" stroke="none"/><text fill="#000000" stroke="none" font-family="Arial" font-size="13px" font-style="normal" font-weight="bold" text-decoration="none" x="872.5" y="711.5">instr: Instrument</text></g></g><g transform="translate(10,5) scale(1,1)"><path fill="none" stroke="#000000" d="M 921.5 717 L 921.5 1008" stroke-miterlimit="10" stroke-dasharray="3"/></g><g transform="translate(10,5) scale(1,1)"><path fill="#ffffff" stroke="none" d="M 376 60 C 376 51.715728 382.715728 45 391 45 C 399.284272 45 406 51.715728 406 60 C 406 68.284272 399.284272 75 391 75 C 382.715728 75 376 68.284272 376 60 Z"/></g><g transform="translate(10,5) scale(1,1)"><path fill="none" stroke="#000000" d="M 376 60 C 376 51.715728 382.715728 45 391 45 C 399.284272 45 406 51.715728 406 60 C 406 68.284272 399.284272 75 391 75 C 382.715728 75 376 68.284272 376 60 Z" stroke-miterlimit="10"/></g><g transform="translate(10,5) scale(1,1)"><path fill="none" stroke="#000000" d="M 391 45 L 396 40" stroke-miterlimit="10"/></g><g transform="translate(10,5) scale(1,1)"><path fill="none" stroke="#000000" d="M 391 45 L 396 50" stroke-miterlimit="10"/></g><g transform="translate(10,5) scale(1,1)"><g><path fill="none" stroke="none"/><text fill="#000000" stroke="none" font-family="Arial" font-size="13px" font-style="normal" font-weight="bold" text-decoration="none" x="343" y="99.5">: SampleService</text></g></g><g transform="translate(10,5) scale(1,1)"><path fill="none" stroke="#000000" d="M 392.5 105 L 392.5 1008" stroke-miterlimit="10" stroke-dasharray="3"/></g><g transform="translate(10,5) scale(1,1)"><rect fill="#C0C0C0" stroke="none" x="607" y="47" width="102" height="39" opacity="0.2"/></g><g transform="translate(10,5) scale(1,1)"><rect fill="#ffffff" stroke="none" x="600" y="40" width="102" height="39"/></g><g transform="translate(10,5) scale(1,1)"><path fill="none" stroke="#000000" d="M 600 40 L 702 40 L 702 79 L 600 79 L 600 40 Z Z" stroke-miterlimit="10"/></g><g transform="translate(10,5) scale(1,1)"><g><path fill="none" stroke="none"/><text fill="#000000" stroke="none" font-family="Arial" font-size="13px" font-style="normal" font-weight="bold" text-decoration="none" x="611" y="59.5">: SampleDAO</text></g></g><g transform="translate(10,5) scale(1,1)"><path fill="none" stroke="#000000" d="M 652.5 80 L 652.5 1008" stroke-miterlimit="10" stroke-dasharray="3"/></g><g transform="translate(10,5) scale(1,1)"><path fill="none" stroke="#000000" d="M 432 176 L 679 176 L 679 264 L 432 264 L 432 176" stroke-miterlimit="10"/></g><g transform="translate(10,5) scale(1,1)"><path fill="#ffffff" stroke="none" d="M 432 176 L 432 198 L 472 198 L 483 187 L 483 176 L 432 176"/></g><g transform="translate(10,5) scale(1,1)"><path fill="none" stroke="#000000" d="M 432 176 L 432 198 L 472 198 L 483 187 L 483 176 L 432 176 L 432 176" stroke-miterlimit="10"/></g><g transform="translate(10,5) scale(1,1)"><g><path fill="none" stroke="none"/><text fill="#000000" stroke="none" font-family="Arial" font-size="13px" font-style="normal" font-weight="bold" text-decoration="none" x="437" y="193.5">loop</text></g></g><g transform="translate(10,5) scale(1,1)"><path fill="#ffffff" stroke="none" d="M 486.5 208 C 486.5 199.1634432 493.6634432 192 502.5 192 C 511.3365568 192 518.5 199.1634432 518.5 208 C 518.5 216.8365568 511.3365568 224 502.5 224 C 493.6634432 224 486.5 216.8365568 486.5 208 Z"/></g><g transform="translate(10,5) scale(1,1)"><path fill="none" stroke="#000000" d="M 486.5 208 C 486.5 199.1634432 493.6634432 192 502.5 192 C 511.3365568 192 518.5 199.1634432 518.5 208 C 518.5 216.8365568 511.3365568 224 502.5 224 C 493.6634432 224 486.5 216.8365568 486.5 208 Z" stroke-miterlimit="10"/></g><g transform="translate(10,5) scale(1,1)"><path fill="none" stroke="#000000" d="M 486.5 224 L 518.5 224" stroke-miterlimit="10"/></g><g transform="translate(10,5) scale(1,1)"><g><path fill="none" stroke="none"/><text fill="#000000" stroke="none" font-family="Arial" font-size="13px" font-style="normal" font-weight="bold" text-decoration="none" x="476.5" y="247.5">: Sample</text></g></g><g transform="translate(10,5) scale(1,1)"><path fill="none" stroke="#000000" d="M 503.5 253 L 503.5 1008" stroke-miterlimit="10" stroke-dasharray="3"/></g><g transform="translate(10,5) scale(1,1)"><path fill="#ffffff" stroke="none" d="M 1107.5 60 C 1107.5 51.715728 1114.215728 45 1122.5 45 C 1130.784272 45 1137.5 51.715728 1137.5 60 C 1137.5 68.284272 1130.784272 75 1122.5 75 C 1114.215728 75 1107.5 68.284272 1107.5 60 Z"/></g><g transform="translate(10,5) scale(1,1)"><path fill="none" stroke="#000000" d="M 1107.5 60 C 1107.5 51.715728 1114.215728 45 1122.5 45 C 1130.784272 45 1137.5 51.715728 1137.5 60 C 1137.5 68.284272 1130.784272 75 1122.5 75 C 1114.215728 75 1107.5 68.284272 1107.5 60 Z" stroke-miterlimit="10"/></g><g transform="translate(10,5) scale(1,1)"><path fill="none" stroke="#000000" d="M 1122.5 45 L 1127.5 40" stroke-miterlimit="10"/></g><g transform="translate(10,5) scale(1,1)"><path fill="none" stroke="#000000" d="M 1122.5 45 L 1127.5 50" stroke-miterlimit="10"/></g><g transform="translate(10,5) scale(1,1)"><g><path fill="none" stroke="none"/><text fill="#000000" stroke="none" font-family="Arial" font-size="13px" font-style="normal" font-weight="bold" text-decoration="none" x="1072" y="99.5">: MappingService</text></g></g><g transform="translate(10,5) scale(1,1)"><path fill="none" stroke="#000000" d="M 1123.5 105 L 1123.5 1008" stroke-miterlimit="10" stroke-dasharray="3"/></g><g transform="translate(10,5) scale(1,1)"><path fill="none" stroke="#000000" d="M 720 800 L 1528 800 L 1528 992 L 720 992 L 720 800" stroke-miterlimit="10"/></g><g transform="translate(10,5) scale(1,1)"><path fill="#ffffff" stroke="none" d="M 720 800 L 720 822 L 845 822 L 856 811 L 856 800 L 720 800"/></g><g transform="translate(10,5) scale(1,1)"><path fill="none" stroke="#000000" d="M 720 800 L 720 822 L 845 822 L 856 811 L 856 800 L 720 800 L 720 800" stroke-miterlimit="10"/></g><g transform="translate(10,5) scale(1,1)"><g><path fill="none" stroke="none"/><text fill="#000000" stroke="none" font-family="Arial" font-size="13px" font-style="normal" font-weight="normal" text-decoration="none" x="755" y="817.5">createMapping</text></g></g><g transform="translate(10,5) scale(1,1)"><g><path fill="none" stroke="none"/><text fill="#000000" stroke="none" font-family="Arial" font-size="13px" font-style="normal" font-weight="bold" text-decoration="none" x="725" y="817.5">loop</text></g></g><g transform="translate(10,5) scale(1,1)"><path fill="none" stroke="#000000" d="M 58 129 L 255 129" stroke-miterlimit="10"/></g><g transform="translate(10,5) scale(1,1)"><path fill="#000000" stroke="none" d="M 244.83732514237585 133.209517756016 L 255 129 L 244.83732514237585 124.79048224398402"/></g><g transform="translate(10,5) scale(1,1)"><path fill="none" stroke="#000000" d="M 244.83732514237585 133.209517756016 L 255 129 L 244.83732514237585 124.79048224398402 L 244.83732514237585 133.209517756016" stroke-miterlimit="10"/></g><g transform="translate(10,5) scale(1,1)"><g><path fill="none" stroke="none"/><text fill="#000000" stroke="none" font-family="Arial" font-size="13px" font-style="normal" font-weight="normal" text-decoration="none" x="106.5" y="125.5">1 : displayForm()</text></g></g><g transform="translate(10,5) scale(1,1)"><rect fill="#ffffff" stroke="none" x="255" y="129" width="13" height="28"/></g><g transform="translate(10,5) scale(1,1)"><path fill="none" stroke="#000000" d="M 255 129 L 268 129 L 268 157 L 255 157 L 255 129 Z Z" stroke-miterlimit="10"/></g><g transform="translate(10,5) scale(1,1)"><path fill="none" stroke="#000000" d="M 268 144 L 385 144" stroke-miterlimit="10"/></g><g transform="translate(10,5) scale(1,1)"><path fill="#000000" stroke="none" d="M 374.83732514237585 148.209517756016 L 385 144 L 374.83732514237585 139.790482243984"/></g><g transform="translate(10,5) scale(1,1)"><path fill="none" stroke="#000000" d="M 374.83732514237585 148.209517756016 L 385 144 L 374.83732514237585 139.790482243984 L 374.83732514237585 148.209517756016" stroke-miterlimit="10"/></g><g transform="translate(10,5) scale(1,1)"><g><path fill="none" stroke="none"/><text fill="#000000" stroke="none" font-family="Arial" font-size="13px" font-style="normal" font-weight="normal" text-decoration="none" x="277.5" y="140.5">2 : getSamples()</text></g></g><g transform="translate(10,5) scale(1,1)"><rect fill="#ffffff" stroke="none" x="385" y="144" width="13" height="160"/></g><g transform="translate(10,5) scale(1,1)"><path fill="none" stroke="#000000" d="M 385 144 L 398 144 L 398 304 L 385 304 L 385 144 Z Z" stroke-miterlimit="10"/></g><g transform="translate(10,5) scale(1,1)"><path fill="none" stroke="#000000" d="M 398 160 L 645 160" stroke-miterlimit="10"/></g><g transform="translate(10,5) scale(1,1)"><path fill="#000000" stroke="none" d="M 634.8373251423759 164.209517756016 L 645 160 L 634.8373251423758 155.790482243984"/></g><g transform="translate(10,5) scale(1,1)"><path fill="none" stroke="#000000" d="M 634.8373251423759 164.209517756016 L 645 160 L 634.8373251423758 155.790482243984 L 634.8373251423759 164.209517756016" stroke-miterlimit="10"/></g><g transform="translate(10,5) scale(1,1)"><g><path fill="none" stroke="none"/><text fill="#000000" stroke="none" font-family="Arial" font-size="13px" font-style="normal" font-weight="normal" text-decoration="none" x="489" y="156.5">3 : findAll()</text></g></g><g transform="translate(10,5) scale(1,1)"><rect fill="#ffffff" stroke="none" x="645" y="160" width="13" height="135"/></g><g transform="translate(10,5) scale(1,1)"><path fill="none" stroke="#000000" d="M 645 160 L 658 160 L 658 295 L 645 295 L 645 160 Z Z" stroke-miterlimit="10"/></g><g transform="translate(10,5) scale(1,1)"><path fill="none" stroke="#000000" d="M 645 208 L 503 208" stroke-miterlimit="10" stroke-dasharray="3"/></g><g transform="translate(10,5) scale(1,1)"><path fill="none" stroke="#000000" d="M 513.1626748576241 203.790482243984 L 503 208 L 513.1626748576241 212.209517756016" stroke-miterlimit="10"/></g><g transform="translate(10,5) scale(1,1)"><g><path fill="none" stroke="none"/><text fill="#000000" stroke="none" font-family="Arial" font-size="13px" font-style="normal" font-weight="normal" text-decoration="none" x="551.5" y="224.5">4 : new</text></g></g><g transform="translate(10,5) scale(1,1)"><g><path fill="none" stroke="none"/><text fill="#000000" stroke="none" font-family="Arial" font-size="13px" font-style="normal" font-weight="normal" text-decoration="none" x="547.5" y="239.5">«create»</text></g></g><g transform="translate(10,5) scale(1,1)"><path fill="none" stroke="#000000" d="M 645 280 L 398 280" stroke-miterlimit="10" stroke-dasharray="3"/></g><g transform="translate(10,5) scale(1,1)"><path fill="none" stroke="#000000" d="M 408.16267485762415 275.790482243984 L 398 280 L 408.16267485762415 284.209517756016" stroke-miterlimit="10"/></g><g transform="translate(10,5) scale(1,1)"><g><path fill="none" stroke="none"/><text fill="#000000" stroke="none" font-family="Arial" font-size="13px" font-style="normal" font-weight="normal" text-decoration="none" x="485.5" y="296.5">5 : samples</text></g></g><g transform="translate(10,5) scale(1,1)"><path fill="none" stroke="#000000" d="M 385 296 L 262 296" stroke-miterlimit="10" stroke-dasharray="3"/></g><g transform="translate(10,5) scale(1,1)"><path fill="none" stroke="#000000" d="M 272.16267485762415 291.790482243984 L 262 296 L 272.16267485762415 300.209517756016" stroke-miterlimit="10"/></g><g transform="translate(10,5) scale(1,1)"><g><path fill="none" stroke="none"/><text fill="#000000" stroke="none" font-family="Arial" font-size="13px" font-style="normal" font-weight="normal" text-decoration="none" x="287.5" y="312.5">6 : samples</text></g></g><g transform="translate(10,5) scale(1,1)"><path fill="none" stroke="#000000" d="M 262 320 L 292 320 L 292 340 L 268 340" stroke-miterlimit="10"/></g><g transform="translate(10,5) scale(1,1)"><path fill="#000000" stroke="none" d="M 278.16267485762415 335.790482243984 L 268 340 L 278.16267485762415 344.209517756016"/></g><g transform="translate(10,5) scale(1,1)"><path fill="none" stroke="#000000" d="M 278.16267485762415 335.790482243984 L 268 340 L 278.16267485762415 344.209517756016 L 278.16267485762415 335.790482243984" stroke-miterlimit="10"/></g><g transform="translate(10,5) scale(1,1)"><g><path fill="none" stroke="none"/><text fill="#000000" stroke="none" font-family="Arial" font-size="13px" font-style="normal" font-weight="normal" text-decoration="none" x="127.5" y="334.5">7 : displaySampleList()</text></g></g><g transform="translate(10,5) scale(1,1)"><rect fill="#ffffff" stroke="none" x="255" y="340" width="13" height="28"/></g><g transform="translate(10,5) scale(1,1)"><path fill="none" stroke="#000000" d="M 255 340 L 268 340 L 268 368 L 255 368 L 255 340 Z Z" stroke-miterlimit="10"/></g><g transform="translate(10,5) scale(1,1)"><path fill="none" stroke="#000000" d="M 58 440 L 255 440" stroke-miterlimit="10"/></g><g transform="translate(10,5) scale(1,1)"><path fill="#000000" stroke="none" d="M 244.83732514237585 444.209517756016 L 255 440 L 244.83732514237585 435.790482243984"/></g><g transform="translate(10,5) scale(1,1)"><path fill="none" stroke="#000000" d="M 244.83732514237585 444.209517756016 L 255 440 L 244.83732514237585 435.790482243984 L 244.83732514237585 444.209517756016" stroke-miterlimit="10"/></g><g transform="translate(10,5) scale(1,1)"><g><path fill="none" stroke="none"/><text fill="#000000" stroke="none" font-family="Arial" font-size="13px" font-style="normal" font-weight="normal" text-decoration="none" x="103" y="436.5">8 : selectSample()</text></g></g><g transform="translate(10,5) scale(1,1)"><rect fill="#ffffff" stroke="none" x="255" y="440" width="13" height="28"/></g><g transform="translate(10,5) scale(1,1)"><path fill="none" stroke="#000000" d="M 255 440 L 268 440 L 268 468 L 255 468 L 255 440 Z Z" stroke-miterlimit="10"/></g><g transform="translate(10,5) scale(1,1)"><path fill="none" stroke="#000000" d="M 58 480 L 255 480" stroke-miterlimit="10"/></g><g transform="translate(10,5) scale(1,1)"><path fill="#000000" stroke="none" d="M 244.83732514237585 484.209517756016 L 255 480 L 244.83732514237585 475.790482243984"/></g><g transform="translate(10,5) scale(1,1)"><path fill="none" stroke="#000000" d="M 244.83732514237585 484.209517756016 L 255 480 L 244.83732514237585 475.790482243984 L 244.83732514237585 484.209517756016" stroke-miterlimit="10"/></g><g transform="translate(10,5) scale(1,1)"><g><path fill="none" stroke="none"/><text fill="#000000" stroke="none" font-family="Arial" font-size="13px" font-style="normal" font-weight="normal" text-decoration="none" x="96" y="474.5">9 : enterLowerLimit()</text></g></g><g transform="translate(10,5) scale(1,1)"><rect fill="#ffffff" stroke="none" x="255" y="480" width="13" height="28"/></g><g transform="translate(10,5) scale(1,1)"><path fill="none" stroke="#000000" d="M 255 480 L 268 480 L 268 508 L 255 508 L 255 480 Z Z" stroke-miterlimit="10"/></g><g transform="translate(10,5) scale(1,1)"><path fill="none" stroke="#000000" d="M 58 520 L 255 520" stroke-miterlimit="10"/></g><g transform="translate(10,5) scale(1,1)"><path fill="#000000" stroke="none" d="M 244.83732514237585 524.209517756016 L 255 520 L 244.83732514237585 515.790482243984"/></g><g transform="translate(10,5) scale(1,1)"><path fill="none" stroke="#000000" d="M 244.83732514237585 524.209517756016 L 255 520 L 244.83732514237585 515.790482243984 L 244.83732514237585 524.209517756016" stroke-miterlimit="10"/></g><g transform="translate(10,5) scale(1,1)"><g><path fill="none" stroke="none"/><text fill="#000000" stroke="none" font-family="Arial" font-size="13px" font-style="normal" font-weight="normal" text-decoration="none" x="93.5" y="516.5">10 : enterUpperLimit()</text></g></g><g transform="translate(10,5) scale(1,1)"><rect fill="#ffffff" stroke="none" x="255" y="520" width="13" height="28"/></g><g transform="translate(10,5) scale(1,1)"><path fill="none" stroke="#000000" d="M 255 520 L 268 520 L 268 548 L 255 548 L 255 520 Z Z" stroke-miterlimit="10"/></g><g transform="translate(10,5) scale(1,1)"><path fill="none" stroke="#000000" d="M 58 584 L 255 584" stroke-miterlimit="10"/></g><g transform="translate(10,5) scale(1,1)"><path fill="#000000" stroke="none" d="M 244.83732514237585 588.209517756016 L 255 584 L 244.83732514237585 579.790482243984"/></g><g transform="translate(10,5) scale(1,1)"><path fill="none" stroke="#000000" d="M 244.83732514237585 588.209517756016 L 255 584 L 244.83732514237585 579.790482243984 L 244.83732514237585 588.209517756016" stroke-miterlimit="10"/></g><g transform="translate(10,5) scale(1,1)"><g><path fill="none" stroke="none"/><text fill="#000000" stroke="none" font-family="Arial" font-size="13px" font-style="normal" font-weight="normal" text-decoration="none" x="108.5" y="580.5">11 : enterLabel()</text></g></g><g transform="translate(10,5) scale(1,1)"><rect fill="#ffffff" stroke="none" x="255" y="584" width="13" height="28"/></g><g transform="translate(10,5) scale(1,1)"><path fill="none" stroke="#000000" d="M 255 584 L 268 584 L 268 612 L 255 612 L 255 584 Z Z" stroke-miterlimit="10"/></g><g transform="translate(10,5) scale(1,1)"><path fill="none" stroke="#000000" d="M 58 633 L 255 633" stroke-miterlimit="10"/></g><g transform="translate(10,5) scale(1,1)"><path fill="#000000" stroke="none" d="M 244.83732514237585 637.209517756016 L 255 633 L 244.83732514237585 628.790482243984"/></g><g transform="translate(10,5) scale(1,1)"><path fill="none" stroke="#000000" d="M 244.83732514237585 637.209517756016 L 255 633 L 244.83732514237585 628.790482243984 L 244.83732514237585 637.209517756016" stroke-miterlimit="10"/></g><g transform="translate(10,5) scale(1,1)"><g><path fill="none" stroke="none"/><text fill="#000000" stroke="none" font-family="Arial" font-size="13px" font-style="normal" font-weight="normal" text-decoration="none" x="104.5" y="629.5">12 : submitForm()</text></g></g><g transform="translate(10,5) scale(1,1)"><rect fill="#ffffff" stroke="none" x="255" y="633" width="13" height="28"/></g><g transform="translate(10,5) scale(1,1)"><path fill="none" stroke="#000000" d="M 255 633 L 268 633 L 268 661 L 255 661 L 255 633 Z Z" stroke-miterlimit="10"/></g><g transform="translate(10,5) scale(1,1)"><path fill="none" stroke="#000000" d="M 268 656 L 763 656" stroke-miterlimit="10"/></g><g transform="translate(10,5) scale(1,1)"><path fill="#000000" stroke="none" d="M 752.8373251423759 660.209517756016 L 763 656 L 752.8373251423758 651.790482243984"/></g><g transform="translate(10,5) scale(1,1)"><path fill="none" stroke="#000000" d="M 752.8373251423759 660.209517756016 L 763 656 L 752.8373251423758 651.790482243984 L 752.8373251423759 660.209517756016" stroke-miterlimit="10"/></g><g transform="translate(10,5) scale(1,1)"><g><path fill="none" stroke="none"/><text fill="#000000" stroke="none" font-family="Arial" font-size="13px" font-style="normal" font-weight="normal" text-decoration="none" x="445.5" y="651.5">13 : createInstrument()</text></g></g><g transform="translate(10,5) scale(1,1)"><rect fill="#ffffff" stroke="none" x="763" y="656" width="13" height="352"/></g><g transform="translate(10,5) scale(1,1)"><path fill="none" stroke="#000000" d="M 763 656 L 776 656 L 776 1008 L 763 1008 L 763 656 Z Z" stroke-miterlimit="10"/></g><g transform="translate(10,5) scale(1,1)"><path fill="none" stroke="#000000" d="M 776 672 L 864 672" stroke-miterlimit="10" stroke-dasharray="3"/></g><g transform="translate(10,5) scale(1,1)"><path fill="none" stroke="#000000" d="M 853.8373251423759 676.209517756016 L 864 672 L 853.8373251423758 667.790482243984" stroke-miterlimit="10"/></g><g transform="translate(10,5) scale(1,1)"><g><path fill="none" stroke="none"/><text fill="#000000" stroke="none" font-family="Arial" font-size="13px" font-style="normal" font-weight="normal" text-decoration="none" x="795.5" y="668.5">14 : new</text></g></g><g transform="translate(10,5) scale(1,1)"><g><path fill="none" stroke="none"/><text fill="#000000" stroke="none" font-family="Arial" font-size="13px" font-style="normal" font-weight="normal" text-decoration="none" x="794.5" y="653.5">«create»</text></g></g><g transform="translate(10,5) scale(1,1)"><path fill="none" stroke="#000000" d="M 776 736 L 1007 736" stroke-miterlimit="10"/></g><g transform="translate(10,5) scale(1,1)"><path fill="#000000" stroke="none" d="M 996.8373251423759 740.209517756016 L 1007 736 L 996.8373251423758 731.790482243984"/></g><g transform="translate(10,5) scale(1,1)"><path fill="none" stroke="#000000" d="M 996.8373251423759 740.209517756016 L 1007 736 L 996.8373251423758 731.790482243984 L 996.8373251423759 740.209517756016" stroke-miterlimit="10"/></g><g transform="translate(10,5) scale(1,1)"><g><path fill="none" stroke="none"/><text fill="#000000" stroke="none" font-family="Arial" font-size="13px" font-style="normal" font-weight="normal" text-decoration="none" x="810.5" y="732.5">15 : insert(instr: Instrument)</text></g></g><g transform="translate(10,5) scale(1,1)"><rect fill="#ffffff" stroke="none" x="1007" y="736" width="13" height="40"/></g><g transform="translate(10,5) scale(1,1)"><path fill="none" stroke="#000000" d="M 1007 736 L 1020 736 L 1020 776 L 1007 776 L 1007 736 Z Z" stroke-miterlimit="10"/></g><g transform="translate(10,5) scale(1,1)"><path fill="none" stroke="#000000" d="M 1007 768 L 776 768" stroke-miterlimit="10" stroke-dasharray="3"/></g><g transform="translate(10,5) scale(1,1)"><path fill="none" stroke="#000000" d="M 786.1626748576241 763.790482243984 L 776 768 L 786.1626748576241 772.209517756016" stroke-miterlimit="10"/></g><g transform="translate(10,5) scale(1,1)"><g><path fill="none" stroke="none"/><text fill="#000000" stroke="none" font-family="Arial" font-size="13px" font-style="normal" font-weight="normal" text-decoration="none" x="839.5" y="784.5">16 : instrumentID</text></g></g><g transform="translate(10,5) scale(1,1)"><path fill="none" stroke="#000000" d="M 776 848 L 1116 848" stroke-miterlimit="10"/></g><g transform="translate(10,5) scale(1,1)"><path fill="#000000" stroke="none" d="M 1105.837325142376 852.209517756016 L 1116 848 L 1105.837325142376 843.790482243984"/></g><g transform="translate(10,5) scale(1,1)"><path fill="none" stroke="#000000" d="M 1105.837325142376 852.209517756016 L 1116 848 L 1105.837325142376 843.790482243984 L 1105.837325142376 852.209517756016" stroke-miterlimit="10"/></g><g transform="translate(10,5) scale(1,1)"><g><path fill="none" stroke="none"/><text fill="#000000" stroke="none" font-family="Arial" font-size="13px" font-style="normal" font-weight="normal" text-decoration="none" x="813.5" y="844.5">17 : createMapping(instrID: int, sampleID: int)</text></g></g><g transform="translate(10,5) scale(1,1)"><rect fill="#ffffff" stroke="none" x="1116" y="848" width="13" height="112"/></g><g transform="translate(10,5) scale(1,1)"><path fill="none" stroke="#000000" d="M 1116 848 L 1129 848 L 1129 960 L 1116 960 L 1116 848 Z Z" stroke-miterlimit="10"/></g><g transform="translate(10,5) scale(1,1)"><path fill="none" stroke="#000000" d="M 1129 856 L 1288 856" stroke-miterlimit="10" stroke-dasharray="3"/></g><g transform="translate(10,5) scale(1,1)"><path fill="none" stroke="#000000" d="M 1277.837325142376 860.209517756016 L 1288 856 L 1277.837325142376 851.790482243984" stroke-miterlimit="10"/></g><g transform="translate(10,5) scale(1,1)"><g><path fill="none" stroke="none"/><text fill="#000000" stroke="none" font-family="Arial" font-size="13px" font-style="normal" font-weight="normal" text-decoration="none" x="1183.5" y="852.5">18 : new</text></g></g><g transform="translate(10,5) scale(1,1)"><g><path fill="none" stroke="none"/><text fill="#000000" stroke="none" font-family="Arial" font-size="13px" font-style="normal" font-weight="normal" text-decoration="none" x="1182.5" y="837.5">«create»</text></g></g><g transform="translate(10,5) scale(1,1)"><path fill="none" stroke="#000000" d="M 1129 944 L 1488 944" stroke-miterlimit="10"/></g><g transform="translate(10,5) scale(1,1)"><path fill="#000000" stroke="none" d="M 1477.837325142376 948.209517756016 L 1488 944 L 1477.837325142376 939.790482243984"/></g><g transform="translate(10,5) scale(1,1)"><path fill="none" stroke="#000000" d="M 1477.837325142376 948.209517756016 L 1488 944 L 1477.837325142376 939.790482243984 L 1477.837325142376 948.209517756016" stroke-miterlimit="10"/></g><g transform="translate(10,5) scale(1,1)"><g><path fill="none" stroke="none"/><text fill="#000000" stroke="none" font-family="Arial" font-size="13px" font-style="normal" font-weight="normal" text-decoration="none" x="1156.5" y="940.5">19 : insert(mapping: InstrumentMapping, instrID: int)</text></g></g><g transform="translate(10,5) scale(1,1)"><rect fill="#ffffff" stroke="none" x="1488" y="944" width="13" height="28"/></g><g transform="translate(10,5) scale(1,1)"><path fill="none" stroke="#000000" d="M 1488 944 L 1501 944 L 1501 972 L 1488 972 L 1488 944 Z Z" stroke-miterlimit="10"/></g></g></svg>