<svg version="1.1" xmlns="http://www.w3.org/2000/svg" xmlns:xlink="http://www.w3.org/1999/xlink" width="2052" height="751"><defs/><g><g transform="translate(2,5) scale(1,1)"><path fill="none" stroke="#000000" d="M 8 5 L 2040 5 L 2040 736 L 8 736 L 8 5" stroke-miterlimit="10"/></g><g transform="translate(2,5) scale(1,1)"><path fill="#ffffff" stroke="none" d="M 8 5 L 8 27 L 200 27 L 211 16 L 211 5 L 8 5"/></g><g transform="translate(2,5) scale(1,1)"><path fill="none" stroke="#000000" d="M 8 5 L 8 27 L 200 27 L 211 16 L 211 5 L 8 5 L 8 5" stroke-miterlimit="10"/></g><g transform="translate(2,5) scale(1,1)"><g><path fill="none" stroke="none"/><text fill="#000000" stroke="none" font-family="Arial" font-size="13px" font-style="normal" font-weight="normal" text-decoration="none" x="79" y="22.5">Search for sessions</text></g></g><g transform="translate(2,5) scale(1,1)"><g><path fill="none" stroke="none"/><text fill="#000000" stroke="none" font-family="Arial" font-size="13px" font-style="normal" font-weight="bold" text-decoration="none" x="13" y="22.5">interaction</text></g></g><g transform="translate(2,5) scale(1,1)"><rect fill="#C0C0C0" stroke="none" x="23" y="47" width="160" height="39" opacity="0.2"/></g><g transform="translate(2,5) scale(1,1)"><rect fill="#ffffff" stroke="none" x="16" y="40" width="160" height="39"/></g><g transform="translate(2,5) scale(1,1)"><path fill="none" stroke="#000000" d="M 16 40 L 176 40 L 176 79 L 16 79 L 16 40 Z Z" stroke-miterlimit="10"/></g><g transform="translate(2,5) scale(1,1)"><g><path fill="none" stroke="none"/><text fill="#000000" stroke="none" font-family="Arial" font-size="13px" font-style="normal" font-weight="normal" text-decoration="none" x="38" y="57.5">«React component»</text></g></g><g transform="translate(2,5) scale(1,1)"><g><path fill="none" stroke="none"/><text fill="#000000" stroke="none" font-family="Arial" font-size="13px" font-style="normal" font-weight="bold" text-decoration="none" x="30.5" y="72.5">: SessionListContainer</text></g></g><g transform="translate(2,5) scale(1,1)"><path fill="none" stroke="#000000" d="M 97.5 80 L 97.5 728" stroke-miterlimit="10" stroke-dasharray="3"/></g><g transform="translate(2,5) scale(1,1)"><rect fill="#C0C0C0" stroke="none" x="247" y="47" width="153" height="39" opacity="0.2"/></g><g transform="translate(2,5) scale(1,1)"><rect fill="#ffffff" stroke="none" x="240" y="40" width="153" height="39"/></g><g transform="translate(2,5) scale(1,1)"><path fill="none" stroke="#000000" d="M 240 40 L 393 40 L 393 79 L 240 79 L 240 40 Z Z" stroke-miterlimit="10"/></g><g transform="translate(2,5) scale(1,1)"><g><path fill="none" stroke="none"/><text fill="#000000" stroke="none" font-family="Arial" font-size="13px" font-style="normal" font-weight="normal" text-decoration="none" x="258.5" y="57.5">«React component»</text></g></g><g transform="translate(2,5) scale(1,1)"><g><path fill="none" stroke="none"/><text fill="#000000" stroke="none" font-family="Arial" font-size="13px" font-style="normal" font-weight="bold" text-decoration="none" x="253.5" y="72.5">: SessionSearchForm</text></g></g><g transform="translate(2,5) scale(1,1)"><path fill="none" stroke="#000000" d="M 317.5 80 L 317.5 728" stroke-miterlimit="10" stroke-dasharray="3"/></g><g transform="translate(2,5) scale(1,1)"><rect fill="#C0C0C0" stroke="none" x="407" y="47" width="135" height="39" opacity="0.2"/></g><g transform="translate(2,5) scale(1,1)"><rect fill="#ffffff" stroke="none" x="400" y="40" width="135" height="39"/></g><g transform="translate(2,5) scale(1,1)"><path fill="none" stroke="#000000" d="M 400 40 L 535 40 L 535 79 L 400 79 L 400 40 Z Z" stroke-miterlimit="10"/></g><g transform="translate(2,5) scale(1,1)"><g><path fill="none" stroke="none"/><text fill="#000000" stroke="none" font-family="Arial" font-size="13px" font-style="normal" font-weight="normal" text-decoration="none" x="409.5" y="57.5">«React component»</text></g></g><g transform="translate(2,5) scale(1,1)"><g><path fill="none" stroke="none"/><text fill="#000000" stroke="none" font-family="Arial" font-size="13px" font-style="normal" font-weight="bold" text-decoration="none" x="429.5" y="72.5">: SessionList</text></g></g><g transform="translate(2,5) scale(1,1)"><path fill="none" stroke="#000000" d="M 468.5 80 L 468.5 730" stroke-miterlimit="10" stroke-dasharray="3"/></g><g transform="translate(2,5) scale(1,1)"><path fill="#ffffff" stroke="none" d="M 560.5 60 C 560.5 51.1634432 567.6634432 44 576.5 44 C 585.3365568 44 592.5 51.1634432 592.5 60 C 592.5 68.8365568 585.3365568 76 576.5 76 C 567.6634432 76 560.5 68.8365568 560.5 60 Z"/></g><g transform="translate(2,5) scale(1,1)"><path fill="none" stroke="#000000" d="M 560.5 60 C 560.5 51.1634432 567.6634432 44 576.5 44 C 585.3365568 44 592.5 51.1634432 592.5 60 C 592.5 68.8365568 585.3365568 76 576.5 76 C 567.6634432 76 560.5 68.8365568 560.5 60 Z" stroke-miterlimit="10"/></g><g transform="translate(2,5) scale(1,1)"><path fill="none" stroke="#000000" d="M 552.5 44 L 552.5 76" stroke-miterlimit="10"/></g><g transform="translate(2,5) scale(1,1)"><path fill="none" stroke="#000000" d="M 552.5 60 L 560.5 60" stroke-miterlimit="10"/></g><g transform="translate(2,5) scale(1,1)"><g><path fill="none" stroke="none"/><text fill="#000000" stroke="none" font-family="Arial" font-size="13px" font-style="normal" font-weight="bold" text-decoration="none" x="534" y="99.5">: SessionAPI</text></g></g><g transform="translate(2,5) scale(1,1)"><path fill="none" stroke="#000000" d="M 573.5 105 L 573.5 728" stroke-miterlimit="10" stroke-dasharray="3"/></g><g transform="translate(2,5) scale(1,1)"><path fill="#ffffff" stroke="none" d="M 964.5 60 C 964.5 51.1634432 971.6634432 44 980.5 44 C 989.3365568 44 996.5 51.1634432 996.5 60 C 996.5 68.8365568 989.3365568 76 980.5 76 C 971.6634432 76 964.5 68.8365568 964.5 60 Z"/></g><g transform="translate(2,5) scale(1,1)"><path fill="none" stroke="#000000" d="M 964.5 60 C 964.5 51.1634432 971.6634432 44 980.5 44 C 989.3365568 44 996.5 51.1634432 996.5 60 C 996.5 68.8365568 989.3365568 76 980.5 76 C 971.6634432 76 964.5 68.8365568 964.5 60 Z" stroke-miterlimit="10"/></g><g transform="translate(2,5) scale(1,1)"><path fill="none" stroke="#000000" d="M 956.5 44 L 956.5 76" stroke-miterlimit="10"/></g><g transform="translate(2,5) scale(1,1)"><path fill="none" stroke="#000000" d="M 956.5 60 L 964.5 60" stroke-miterlimit="10"/></g><g transform="translate(2,5) scale(1,1)"><g><path fill="none" stroke="none"/><text fill="#000000" stroke="none" font-family="Arial" font-size="13px" font-style="normal" font-weight="bold" text-decoration="none" x="921.5" y="99.5">: SessionController</text></g></g><g transform="translate(2,5) scale(1,1)"><path fill="none" stroke="#000000" d="M 977.5 105 L 977.5 728" stroke-miterlimit="10" stroke-dasharray="3"/></g><g transform="translate(2,5) scale(1,1)"><rect fill="#C0C0C0" stroke="none" x="1383" y="219" width="167" height="39" opacity="0.2"/></g><g transform="translate(2,5) scale(1,1)"><rect fill="#ffffff" stroke="none" x="1376" y="212" width="167" height="39"/></g><g transform="translate(2,5) scale(1,1)"><path fill="none" stroke="#000000" d="M 1376 212 L 1543 212 L 1543 251 L 1376 251 L 1376 212 Z Z" stroke-miterlimit="10"/></g><g transform="translate(2,5) scale(1,1)"><g><path fill="none" stroke="none"/><text fill="#000000" stroke="none" font-family="Arial" font-size="13px" font-style="normal" font-weight="bold" text-decoration="none" x="1389" y="231.5">dto: SessionSearchDTO</text></g></g><g transform="translate(2,5) scale(1,1)"><path fill="none" stroke="#000000" d="M 1460.5 252 L 1460.5 728" stroke-miterlimit="10" stroke-dasharray="3"/></g><g transform="translate(2,5) scale(1,1)"><rect fill="#C0C0C0" stroke="none" x="1543" y="291" width="182" height="39" opacity="0.2"/></g><g transform="translate(2,5) scale(1,1)"><rect fill="#ffffff" stroke="none" x="1536" y="284" width="182" height="39"/></g><g transform="translate(2,5) scale(1,1)"><path fill="none" stroke="#000000" d="M 1536 284 L 1718 284 L 1718 323 L 1536 323 L 1536 284 Z Z" stroke-miterlimit="10"/></g><g transform="translate(2,5) scale(1,1)"><g><path fill="none" stroke="none"/><text fill="#000000" stroke="none" font-family="Arial" font-size="13px" font-style="normal" font-weight="bold" text-decoration="none" x="1551" y="303.5">form: SessionSearchForm</text></g></g><g transform="translate(2,5) scale(1,1)"><path fill="none" stroke="#000000" d="M 1628.5 324 L 1628.5 728" stroke-miterlimit="10" stroke-dasharray="3"/></g><g transform="translate(2,5) scale(1,1)"><path fill="#ffffff" stroke="none" d="M 1192 60 C 1192 51.715728 1198.715728 45 1207 45 C 1215.284272 45 1222 51.715728 1222 60 C 1222 68.284272 1215.284272 75 1207 75 C 1198.715728 75 1192 68.284272 1192 60 Z"/></g><g transform="translate(2,5) scale(1,1)"><path fill="none" stroke="#000000" d="M 1192 60 C 1192 51.715728 1198.715728 45 1207 45 C 1215.284272 45 1222 51.715728 1222 60 C 1222 68.284272 1215.284272 75 1207 75 C 1198.715728 75 1192 68.284272 1192 60 Z" stroke-miterlimit="10"/></g><g transform="translate(2,5) scale(1,1)"><path fill="none" stroke="#000000" d="M 1207 45 L 1212 40" stroke-miterlimit="10"/></g><g transform="translate(2,5) scale(1,1)"><path fill="none" stroke="#000000" d="M 1207 45 L 1212 50" stroke-miterlimit="10"/></g><g transform="translate(2,5) scale(1,1)"><g><path fill="none" stroke="none"/><text fill="#000000" stroke="none" font-family="Arial" font-size="13px" font-style="normal" font-weight="bold" text-decoration="none" x="1137" y="99.5">: SessionSearchHandler</text></g></g><g transform="translate(2,5) scale(1,1)"><path fill="none" stroke="#000000" d="M 1208.5 105 L 1208.5 728" stroke-miterlimit="10" stroke-dasharray="3"/></g><g transform="translate(2,5) scale(1,1)"><rect fill="#C0C0C0" stroke="none" x="1887" y="47" width="144" height="39" opacity="0.2"/></g><g transform="translate(2,5) scale(1,1)"><rect fill="#ffffff" stroke="none" x="1880" y="40" width="144" height="39"/></g><g transform="translate(2,5) scale(1,1)"><path fill="none" stroke="#000000" d="M 1880 40 L 2024 40 L 2024 79 L 1880 79 L 1880 40 Z Z" stroke-miterlimit="10"/></g><g transform="translate(2,5) scale(1,1)"><g><path fill="none" stroke="none"/><text fill="#000000" stroke="none" font-family="Arial" font-size="13px" font-style="normal" font-weight="normal" text-decoration="none" x="1921" y="57.5">«lifecycle»</text></g></g><g transform="translate(2,5) scale(1,1)"><g><path fill="none" stroke="none"/><text fill="#000000" stroke="none" font-family="Arial" font-size="13px" font-style="normal" font-weight="bold" text-decoration="none" x="1893.5" y="72.5">: SessionRepository</text></g></g><g transform="translate(2,5) scale(1,1)"><path fill="none" stroke="#000000" d="M 1953.5 80 L 1953.5 728" stroke-miterlimit="10" stroke-dasharray="3"/></g><g transform="translate(2,5) scale(1,1)"><path fill="#ffffff" stroke="none" d="M 1329.5 60 C 1329.5 51.715728 1336.215728 45 1344.5 45 C 1352.784272 45 1359.5 51.715728 1359.5 60 C 1359.5 68.284272 1352.784272 75 1344.5 75 C 1336.215728 75 1329.5 68.284272 1329.5 60 Z"/></g><g transform="translate(2,5) scale(1,1)"><path fill="none" stroke="#000000" d="M 1329.5 60 C 1329.5 51.715728 1336.215728 45 1344.5 45 C 1352.784272 45 1359.5 51.715728 1359.5 60 C 1359.5 68.284272 1352.784272 75 1344.5 75 C 1336.215728 75 1329.5 68.284272 1329.5 60 Z" stroke-miterlimit="10"/></g><g transform="translate(2,5) scale(1,1)"><path fill="none" stroke="#000000" d="M 1344.5 45 L 1349.5 40" stroke-miterlimit="10"/></g><g transform="translate(2,5) scale(1,1)"><path fill="none" stroke="#000000" d="M 1344.5 45 L 1349.5 50" stroke-miterlimit="10"/></g><g transform="translate(2,5) scale(1,1)"><g><path fill="none" stroke="none"/><text fill="#000000" stroke="none" font-family="Arial" font-size="13px" font-style="normal" font-weight="bold" text-decoration="none" x="1313.5" y="99.5">: Serializer</text></g></g><g transform="translate(2,5) scale(1,1)"><path fill="none" stroke="#000000" d="M 1345.5 105 L 1345.5 728" stroke-miterlimit="10" stroke-dasharray="3"/></g><g transform="translate(2,5) scale(1,1)"><path fill="#000000" stroke="none" d="M 696 215.5 C 696 211.6340064 699.1340064 208.5 703 208.5 C 706.8659936 208.5 710 211.6340064 710 215.5 C 710 219.3659936 706.8659936 222.5 703 222.5 C 699.1340064 222.5 696 219.3659936 696 215.5 Z"/></g><g transform="translate(2,5) scale(1,1)"><path fill="#000000" stroke="none" d="M 720 215.5 C 720 211.6340064 723.1340064 208.5 727 208.5 C 730.8659936 208.5 734 211.6340064 734 215.5 C 734 219.3659936 730.8659936 222.5 727 222.5 C 723.1340064 222.5 720 219.3659936 720 215.5 Z"/></g><g transform="translate(2,5) scale(1,1)"><path fill="#000000" stroke="none" d="M 384 687.5 C 384 683.6340064 387.1340064 680.5 391 680.5 C 394.8659936 680.5 398 683.6340064 398 687.5 C 398 691.3659936 394.8659936 694.5 391 694.5 C 387.1340064 694.5 384 691.3659936 384 687.5 Z"/></g><g transform="translate(2,5) scale(1,1)"><path fill="#000000" stroke="none" d="M 112 153.5 C 112 149.6340064 115.1340064 146.5 119 146.5 C 122.8659936 146.5 126 149.6340064 126 153.5 C 126 157.3659936 122.8659936 160.5 119 160.5 C 115.1340064 160.5 112 157.3659936 112 153.5 Z"/></g><g transform="translate(2,5) scale(1,1)"><path fill="#000000" stroke="none" d="M 24 183.5 C 24 179.6340064 27.1340064 176.5 31 176.5 C 34.8659936 176.5 38 179.6340064 38 183.5 C 38 187.3659936 34.8659936 190.5 31 190.5 C 27.1340064 190.5 24 187.3659936 24 183.5 Z"/></g><g transform="translate(2,5) scale(1,1)"><path fill="#ffffff" stroke="none" d="M 344 152 L 637 152 L 647 162 L 647 183 L 344 183 L 344 152"/></g><g transform="translate(2,5) scale(1,1)"><path fill="none" stroke="#000000" d="M 344 152 L 637 152 L 647 162 L 647 183 L 344 183 L 344 152 L 344 152" stroke-miterlimit="10"/></g><g transform="translate(2,5) scale(1,1)"><path fill="none" stroke="#000000" d="M 637 152 L 637 162 L 647 162 L 637 152" stroke-miterlimit="10"/></g><g transform="translate(2,5) scale(1,1)"><g><path fill="none" stroke="none"/><text fill="#000000" stroke="none" font-family="Arial" font-size="13px" font-style="normal" font-weight="normal" text-decoration="none" x="349" y="170">this.props.handleSearchSubmit({criteria: criteria})</text></g></g><g transform="translate(2,5) scale(1,1)"><rect fill="#C0C0C0" stroke="none" x="1743" y="47" width="116" height="39" opacity="0.2"/></g><g transform="translate(2,5) scale(1,1)"><rect fill="#ffffff" stroke="none" x="1736" y="40" width="116" height="39"/></g><g transform="translate(2,5) scale(1,1)"><path fill="none" stroke="#000000" d="M 1736 40 L 1852 40 L 1852 79 L 1736 79 L 1736 40 Z Z" stroke-miterlimit="10"/></g><g transform="translate(2,5) scale(1,1)"><g><path fill="none" stroke="none"/><text fill="#000000" stroke="none" font-family="Arial" font-size="13px" font-style="normal" font-weight="normal" text-decoration="none" x="1763" y="57.5">«lifecycle»</text></g></g><g transform="translate(2,5) scale(1,1)"><g><path fill="none" stroke="none"/><text fill="#000000" stroke="none" font-family="Arial" font-size="13px" font-style="normal" font-weight="bold" text-decoration="none" x="1748" y="72.5">: EntityManager</text></g></g><g transform="translate(2,5) scale(1,1)"><path fill="none" stroke="#000000" d="M 1795.5 80 L 1795.5 728" stroke-miterlimit="10" stroke-dasharray="3"/></g><g transform="translate(2,5) scale(1,1)"><path fill="none" stroke="#000000" d="M 317 96 L 347 96 L 347 116 L 323 116" stroke-miterlimit="10"/></g><g transform="translate(2,5) scale(1,1)"><path fill="#000000" stroke="none" d="M 333.16267485762415 111.79048224398402 L 323 116 L 333.16267485762415 120.20951775601598"/></g><g transform="translate(2,5) scale(1,1)"><path fill="none" stroke="#000000" d="M 333.16267485762415 111.79048224398402 L 323 116 L 333.16267485762415 120.20951775601598 L 333.16267485762415 111.79048224398402" stroke-miterlimit="10"/></g><g transform="translate(2,5) scale(1,1)"><g><path fill="none" stroke="none"/><text fill="#000000" stroke="none" font-family="Arial" font-size="13px" font-style="normal" font-weight="normal" text-decoration="none" x="294.5" y="111.5">1 : handleValidation()</text></g></g><g transform="translate(2,5) scale(1,1)"><rect fill="#ffffff" stroke="none" x="310" y="116" width="13" height="28"/></g><g transform="translate(2,5) scale(1,1)"><path fill="none" stroke="#000000" d="M 310 116 L 323 116 L 323 144 L 310 144 L 310 116 Z Z" stroke-miterlimit="10"/></g><g transform="translate(2,5) scale(1,1)"><path fill="none" stroke="#000000" d="M 126 154 L 310 154" stroke-miterlimit="10"/></g><g transform="translate(2,5) scale(1,1)"><path fill="#000000" stroke="none" d="M 299.83732514237585 158.209517756016 L 310 154 L 299.83732514237585 149.790482243984"/></g><g transform="translate(2,5) scale(1,1)"><path fill="none" stroke="#000000" d="M 299.83732514237585 158.209517756016 L 310 154 L 299.83732514237585 149.790482243984 L 299.83732514237585 158.209517756016" stroke-miterlimit="10"/></g><g transform="translate(2,5) scale(1,1)"><g><path fill="none" stroke="none"/><text fill="#000000" stroke="none" font-family="Arial" font-size="13px" font-style="normal" font-weight="normal" text-decoration="none" x="127.5" y="150.5">2 : handleSubmit(event: Event)</text></g></g><g transform="translate(2,5) scale(1,1)"><rect fill="#ffffff" stroke="none" x="310" y="154" width="13" height="28"/></g><g transform="translate(2,5) scale(1,1)"><path fill="none" stroke="#000000" d="M 310 154 L 323 154 L 323 182 L 310 182 L 310 154 Z Z" stroke-miterlimit="10"/></g><g transform="translate(2,5) scale(1,1)"><path fill="none" stroke="#000000" d="M 38 184 L 90 184" stroke-miterlimit="10"/></g><g transform="translate(2,5) scale(1,1)"><path fill="#000000" stroke="none" d="M 79.83732514237585 188.209517756016 L 90 184 L 79.83732514237585 179.790482243984"/></g><g transform="translate(2,5) scale(1,1)"><path fill="none" stroke="#000000" d="M 79.83732514237585 188.209517756016 L 90 184 L 79.83732514237585 179.790482243984 L 79.83732514237585 188.209517756016" stroke-miterlimit="10"/></g><g transform="translate(2,5) scale(1,1)"><g><path fill="none" stroke="none"/><text fill="#000000" stroke="none" font-family="Arial" font-size="13px" font-style="normal" font-weight="normal" text-decoration="none" x="34.5" y="180.5">3 : handleSearchSubmit(criteria: json)</text></g></g><g transform="translate(2,5) scale(1,1)"><rect fill="#ffffff" stroke="none" x="90" y="184" width="13" height="475"/></g><g transform="translate(2,5) scale(1,1)"><path fill="none" stroke="#000000" d="M 90 184 L 103 184 L 103 659 L 90 659 L 90 184 Z Z" stroke-miterlimit="10"/></g><g transform="translate(2,5) scale(1,1)"><path fill="none" stroke="#000000" d="M 103 208 L 566 208" stroke-miterlimit="10"/></g><g transform="translate(2,5) scale(1,1)"><path fill="#000000" stroke="none" d="M 555.8373251423759 212.209517756016 L 566 208 L 555.8373251423758 203.790482243984"/></g><g transform="translate(2,5) scale(1,1)"><path fill="none" stroke="#000000" d="M 555.8373251423759 212.209517756016 L 566 208 L 555.8373251423758 203.790482243984 L 555.8373251423759 212.209517756016" stroke-miterlimit="10"/></g><g transform="translate(2,5) scale(1,1)"><g><path fill="none" stroke="none"/><text fill="#000000" stroke="none" font-family="Arial" font-size="13px" font-style="normal" font-weight="normal" text-decoration="none" x="220.5" y="204.5">4 : getSessionsByCriteria(criteria: json)</text></g></g><g transform="translate(2,5) scale(1,1)"><rect fill="#ffffff" stroke="none" x="566" y="208" width="13" height="392"/></g><g transform="translate(2,5) scale(1,1)"><path fill="none" stroke="#000000" d="M 566 208 L 579 208 L 579 600 L 566 600 L 566 208 Z Z" stroke-miterlimit="10"/></g><g transform="translate(2,5) scale(1,1)"><path fill="none" stroke="#000000" d="M 579 216 L 696 216" stroke-miterlimit="10"/></g><g transform="translate(2,5) scale(1,1)"><path fill="#000000" stroke="none" d="M 685.8373251423759 220.209517756016 L 696 216 L 685.8373251423758 211.790482243984"/></g><g transform="translate(2,5) scale(1,1)"><path fill="none" stroke="#000000" d="M 685.8373251423759 220.209517756016 L 696 216 L 685.8373251423758 211.790482243984 L 685.8373251423759 220.209517756016" stroke-miterlimit="10"/></g><g transform="translate(2,5) scale(1,1)"><g><path fill="none" stroke="none"/><text fill="#000000" stroke="none" font-family="Arial" font-size="13px" font-style="normal" font-weight="normal" text-decoration="none" x="586" y="212.5">5 : POST request</text></g></g><g transform="translate(2,5) scale(1,1)"><path fill="none" stroke="#000000" d="M 734 216 L 970 216" stroke-miterlimit="10"/></g><g transform="translate(2,5) scale(1,1)"><path fill="#000000" stroke="none" d="M 959.8373251423759 220.209517756016 L 970 216 L 959.8373251423758 211.790482243984"/></g><g transform="translate(2,5) scale(1,1)"><path fill="none" stroke="#000000" d="M 959.8373251423759 220.209517756016 L 970 216 L 959.8373251423758 211.790482243984 L 959.8373251423759 220.209517756016" stroke-miterlimit="10"/></g><g transform="translate(2,5) scale(1,1)"><g><path fill="none" stroke="none"/><text fill="#000000" stroke="none" font-family="Arial" font-size="13px" font-style="normal" font-weight="normal" text-decoration="none" x="734.5" y="212.5">6 : getSessionsAction(request: Request)</text></g></g><g transform="translate(2,5) scale(1,1)"><rect fill="#ffffff" stroke="none" x="970" y="216" width="13" height="368"/></g><g transform="translate(2,5) scale(1,1)"><path fill="none" stroke="#000000" d="M 970 216 L 983 216 L 983 584 L 970 584 L 970 216 Z Z" stroke-miterlimit="10"/></g><g transform="translate(2,5) scale(1,1)"><path fill="none" stroke="#000000" d="M 983 224 L 1201 224" stroke-miterlimit="10"/></g><g transform="translate(2,5) scale(1,1)"><path fill="#000000" stroke="none" d="M 1190.837325142376 228.209517756016 L 1201 224 L 1190.837325142376 219.790482243984"/></g><g transform="translate(2,5) scale(1,1)"><path fill="none" stroke="#000000" d="M 1190.837325142376 228.209517756016 L 1201 224 L 1190.837325142376 219.790482243984 L 1190.837325142376 228.209517756016" stroke-miterlimit="10"/></g><g transform="translate(2,5) scale(1,1)"><g><path fill="none" stroke="none"/><text fill="#000000" stroke="none" font-family="Arial" font-size="13px" font-style="normal" font-weight="normal" text-decoration="none" x="1060.5" y="220.5">7 : create()</text></g></g><g transform="translate(2,5) scale(1,1)"><rect fill="#ffffff" stroke="none" x="1201" y="224" width="13" height="32"/></g><g transform="translate(2,5) scale(1,1)"><path fill="none" stroke="#000000" d="M 1201 224 L 1214 224 L 1214 256 L 1201 256 L 1201 224 Z Z" stroke-miterlimit="10"/></g><g transform="translate(2,5) scale(1,1)"><path fill="none" stroke="#000000" d="M 1214 232 L 1376 232" stroke-miterlimit="10" stroke-dasharray="3"/></g><g transform="translate(2,5) scale(1,1)"><path fill="none" stroke="#000000" d="M 1365.837325142376 236.209517756016 L 1376 232 L 1365.837325142376 227.790482243984" stroke-miterlimit="10"/></g><g transform="translate(2,5) scale(1,1)"><g><path fill="none" stroke="none"/><text fill="#000000" stroke="none" font-family="Arial" font-size="13px" font-style="normal" font-weight="normal" text-decoration="none" x="1263" y="228.5">8 : create()</text></g></g><g transform="translate(2,5) scale(1,1)"><g><path fill="none" stroke="none"/><text fill="#000000" stroke="none" font-family="Arial" font-size="13px" font-style="normal" font-weight="normal" text-decoration="none" x="1269.5" y="213.5">«create»</text></g></g><g transform="translate(2,5) scale(1,1)"><path fill="none" stroke="#000000" d="M 1201 248 L 983 248" stroke-miterlimit="10" stroke-dasharray="3"/></g><g transform="translate(2,5) scale(1,1)"><path fill="none" stroke="#000000" d="M 993.1626748576241 243.790482243984 L 983 248 L 993.1626748576241 252.209517756016" stroke-miterlimit="10"/></g><g transform="translate(2,5) scale(1,1)"><g><path fill="none" stroke="none"/><text fill="#000000" stroke="none" font-family="Arial" font-size="13px" font-style="normal" font-weight="normal" text-decoration="none" x="1072.5" y="264.5">9 : dto</text></g></g><g transform="translate(2,5) scale(1,1)"><path fill="none" stroke="#000000" d="M 983 304 L 1536 304" stroke-miterlimit="10" stroke-dasharray="3"/></g><g transform="translate(2,5) scale(1,1)"><path fill="none" stroke="#000000" d="M 1525.837325142376 308.209517756016 L 1536 304 L 1525.837325142376 299.790482243984" stroke-miterlimit="10"/></g><g transform="translate(2,5) scale(1,1)"><g><path fill="none" stroke="none"/><text fill="#000000" stroke="none" font-family="Arial" font-size="13px" font-style="normal" font-weight="normal" text-decoration="none" x="1117.5" y="300.5">10 : createSearchForm(dto: SessionSearchDTO)</text></g></g><g transform="translate(2,5) scale(1,1)"><g><path fill="none" stroke="none"/><text fill="#000000" stroke="none" font-family="Arial" font-size="13px" font-style="normal" font-weight="normal" text-decoration="none" x="1233.5" y="285.5">«create»</text></g></g><g transform="translate(2,5) scale(1,1)"><path fill="none" stroke="#000000" d="M 1628 336 L 1658 336 L 1658 356 L 1634 356" stroke-miterlimit="10"/></g><g transform="translate(2,5) scale(1,1)"><path fill="#000000" stroke="none" d="M 1644.162674857624 351.790482243984 L 1634 356 L 1644.162674857624 360.209517756016"/></g><g transform="translate(2,5) scale(1,1)"><path fill="none" stroke="#000000" d="M 1644.162674857624 351.790482243984 L 1634 356 L 1644.162674857624 360.209517756016 L 1644.162674857624 351.790482243984" stroke-miterlimit="10"/></g><g transform="translate(2,5) scale(1,1)"><g><path fill="none" stroke="none"/><text fill="#000000" stroke="none" font-family="Arial" font-size="13px" font-style="normal" font-weight="normal" text-decoration="none" x="1557.5" y="351.5">11 : handleRequest(request: Request)</text></g></g><g transform="translate(2,5) scale(1,1)"><rect fill="#ffffff" stroke="none" x="1621" y="356" width="13" height="28"/></g><g transform="translate(2,5) scale(1,1)"><path fill="none" stroke="#000000" d="M 1621 356 L 1634 356 L 1634 384 L 1621 384 L 1621 356 Z Z" stroke-miterlimit="10"/></g><g transform="translate(2,5) scale(1,1)"><path fill="none" stroke="#000000" d="M 983 392 L 1201 392" stroke-miterlimit="10"/></g><g transform="translate(2,5) scale(1,1)"><path fill="#000000" stroke="none" d="M 1190.837325142376 396.209517756016 L 1201 392 L 1190.837325142376 387.790482243984"/></g><g transform="translate(2,5) scale(1,1)"><path fill="none" stroke="#000000" d="M 1190.837325142376 396.209517756016 L 1201 392 L 1190.837325142376 387.790482243984 L 1190.837325142376 396.209517756016" stroke-miterlimit="10"/></g><g transform="translate(2,5) scale(1,1)"><g><path fill="none" stroke="none"/><text fill="#000000" stroke="none" font-family="Arial" font-size="13px" font-style="normal" font-weight="normal" text-decoration="none" x="981.5" y="388.5">12 : process(dto: SessionSearchDTO)</text></g></g><g transform="translate(2,5) scale(1,1)"><rect fill="#ffffff" stroke="none" x="1201" y="392" width="13" height="96"/></g><g transform="translate(2,5) scale(1,1)"><path fill="none" stroke="#000000" d="M 1201 392 L 1214 392 L 1214 488 L 1201 488 L 1201 392 Z Z" stroke-miterlimit="10"/></g><g transform="translate(2,5) scale(1,1)"><path fill="none" stroke="#000000" d="M 1214 401 L 1788 401" stroke-miterlimit="10"/></g><g transform="translate(2,5) scale(1,1)"><path fill="#000000" stroke="none" d="M 1777.837325142376 405.209517756016 L 1788 401 L 1777.837325142376 396.790482243984"/></g><g transform="translate(2,5) scale(1,1)"><path fill="none" stroke="#000000" d="M 1777.837325142376 405.209517756016 L 1788 401 L 1777.837325142376 396.790482243984 L 1777.837325142376 405.209517756016" stroke-miterlimit="10"/></g><g transform="translate(2,5) scale(1,1)"><g><path fill="none" stroke="none"/><text fill="#000000" stroke="none" font-family="Arial" font-size="13px" font-style="normal" font-weight="normal" text-decoration="none" x="1420.5" y="397.5">13 : getSessionRepository()</text></g></g><g transform="translate(2,5) scale(1,1)"><rect fill="#ffffff" stroke="none" x="1788" y="401" width="13" height="28"/></g><g transform="translate(2,5) scale(1,1)"><path fill="none" stroke="#000000" d="M 1788 401 L 1801 401 L 1801 429 L 1788 429 L 1788 401 Z Z" stroke-miterlimit="10"/></g><g transform="translate(2,5) scale(1,1)"><path fill="none" stroke="#000000" d="M 1788 420 L 1214 420" stroke-miterlimit="10" stroke-dasharray="3"/></g><g transform="translate(2,5) scale(1,1)"><path fill="none" stroke="#000000" d="M 1224.162674857624 415.790482243984 L 1214 420 L 1224.162674857624 424.209517756016" stroke-miterlimit="10"/></g><g transform="translate(2,5) scale(1,1)"><g><path fill="none" stroke="none"/><text fill="#000000" stroke="none" font-family="Arial" font-size="13px" font-style="normal" font-weight="normal" text-decoration="none" x="1433.5" y="436.5">14 : sessionRepository</text></g></g><g transform="translate(2,5) scale(1,1)"><path fill="none" stroke="#000000" d="M 1214 456 L 1946 456" stroke-miterlimit="10"/></g><g transform="translate(2,5) scale(1,1)"><path fill="#000000" stroke="none" d="M 1935.837325142376 460.209517756016 L 1946 456 L 1935.837325142376 451.790482243984"/></g><g transform="translate(2,5) scale(1,1)"><path fill="none" stroke="#000000" d="M 1935.837325142376 460.209517756016 L 1946 456 L 1935.837325142376 451.790482243984 L 1935.837325142376 460.209517756016" stroke-miterlimit="10"/></g><g transform="translate(2,5) scale(1,1)"><g><path fill="none" stroke="none"/><text fill="#000000" stroke="none" font-family="Arial" font-size="13px" font-style="normal" font-weight="normal" text-decoration="none" x="1479.5" y="452.5">15 : findByCriteria(criteria: Criteria)</text></g></g><g transform="translate(2,5) scale(1,1)"><rect fill="#ffffff" stroke="none" x="1946" y="456" width="13" height="28"/></g><g transform="translate(2,5) scale(1,1)"><path fill="none" stroke="#000000" d="M 1946 456 L 1959 456 L 1959 484 L 1946 484 L 1946 456 Z Z" stroke-miterlimit="10"/></g><g transform="translate(2,5) scale(1,1)"><path fill="none" stroke="#000000" d="M 1946 472 L 1214 472" stroke-miterlimit="10" stroke-dasharray="3"/></g><g transform="translate(2,5) scale(1,1)"><path fill="none" stroke="#000000" d="M 1224.162674857624 467.790482243984 L 1214 472 L 1224.162674857624 476.209517756016" stroke-miterlimit="10"/></g><g transform="translate(2,5) scale(1,1)"><g><path fill="none" stroke="none"/><text fill="#000000" stroke="none" font-family="Arial" font-size="13px" font-style="normal" font-weight="normal" text-decoration="none" x="1513.5" y="488.5">16 : SessionCollection</text></g></g><g transform="translate(2,5) scale(1,1)"><path fill="none" stroke="#000000" d="M 1201 480 L 983 480" stroke-miterlimit="10" stroke-dasharray="3"/></g><g transform="translate(2,5) scale(1,1)"><path fill="none" stroke="#000000" d="M 993.1626748576241 475.790482243984 L 983 480 L 993.1626748576241 484.209517756016" stroke-miterlimit="10"/></g><g transform="translate(2,5) scale(1,1)"><g><path fill="none" stroke="none"/><text fill="#000000" stroke="none" font-family="Arial" font-size="13px" font-style="normal" font-weight="normal" text-decoration="none" x="1025.5" y="496.5">17 : SessionCollection</text></g></g><g transform="translate(2,5) scale(1,1)"><path fill="none" stroke="#000000" d="M 983 504 L 1013 504 L 1013 524 L 990 524" stroke-miterlimit="10"/></g><g transform="translate(2,5) scale(1,1)"><path fill="#000000" stroke="none" d="M 1000.1626748576241 519.790482243984 L 990 524 L 1000.1626748576241 528.209517756016"/></g><g transform="translate(2,5) scale(1,1)"><path fill="none" stroke="#000000" d="M 1000.1626748576241 519.790482243984 L 990 524 L 1000.1626748576241 528.209517756016 L 1000.1626748576241 519.790482243984" stroke-miterlimit="10"/></g><g transform="translate(2,5) scale(1,1)"><g><path fill="none" stroke="none"/><text fill="#000000" stroke="none" font-family="Arial" font-size="13px" font-style="normal" font-weight="normal" text-decoration="none" x="892.5" y="515.5">18 : renderToJson(domainObject: object)</text></g></g><g transform="translate(2,5) scale(1,1)"><rect fill="#ffffff" stroke="none" x="977" y="524" width="13" height="44"/></g><g transform="translate(2,5) scale(1,1)"><path fill="none" stroke="#000000" d="M 977 524 L 990 524 L 990 568 L 977 568 L 977 524 Z Z" stroke-miterlimit="10"/></g><g transform="translate(2,5) scale(1,1)"><path fill="none" stroke="#000000" d="M 990 544 L 1338 544" stroke-miterlimit="10"/></g><g transform="translate(2,5) scale(1,1)"><path fill="#000000" stroke="none" d="M 1327.837325142376 548.209517756016 L 1338 544 L 1327.837325142376 539.790482243984"/></g><g transform="translate(2,5) scale(1,1)"><path fill="none" stroke="#000000" d="M 1327.837325142376 548.209517756016 L 1338 544 L 1327.837325142376 539.790482243984 L 1327.837325142376 548.209517756016" stroke-miterlimit="10"/></g><g transform="translate(2,5) scale(1,1)"><g><path fill="none" stroke="none"/><text fill="#000000" stroke="none" font-family="Arial" font-size="13px" font-style="normal" font-weight="normal" text-decoration="none" x="1084" y="540.5">19 : serialize(object: object)</text></g></g><g transform="translate(2,5) scale(1,1)"><rect fill="#ffffff" stroke="none" x="1338" y="544" width="13" height="28"/></g><g transform="translate(2,5) scale(1,1)"><path fill="none" stroke="#000000" d="M 1338 544 L 1351 544 L 1351 572 L 1338 572 L 1338 544 Z Z" stroke-miterlimit="10"/></g><g transform="translate(2,5) scale(1,1)"><path fill="none" stroke="#000000" d="M 1338 560 L 990 560" stroke-miterlimit="10" stroke-dasharray="3"/></g><g transform="translate(2,5) scale(1,1)"><path fill="none" stroke="#000000" d="M 1000.1626748576241 555.790482243984 L 990 560 L 1000.1626748576241 564.209517756016" stroke-miterlimit="10"/></g><g transform="translate(2,5) scale(1,1)"><g><path fill="none" stroke="none"/><text fill="#000000" stroke="none" font-family="Arial" font-size="13px" font-style="normal" font-weight="normal" text-decoration="none" x="1137.5" y="576.5">20 : json</text></g></g><g transform="translate(2,5) scale(1,1)"><path fill="none" stroke="#000000" d="M 970 576 L 579 576" stroke-miterlimit="10" stroke-dasharray="3"/></g><g transform="translate(2,5) scale(1,1)"><path fill="none" stroke="#000000" d="M 589.1626748576241 571.790482243984 L 579 576 L 589.1626748576241 580.209517756016" stroke-miterlimit="10"/></g><g transform="translate(2,5) scale(1,1)"><g><path fill="none" stroke="none"/><text fill="#000000" stroke="none" font-family="Arial" font-size="13px" font-style="normal" font-weight="normal" text-decoration="none" x="733.5" y="592.5">21 : response</text></g></g><g transform="translate(2,5) scale(1,1)"><path fill="none" stroke="#000000" d="M 566 592 L 103 592" stroke-miterlimit="10" stroke-dasharray="3"/></g><g transform="translate(2,5) scale(1,1)"><path fill="none" stroke="#000000" d="M 113.16267485762415 587.790482243984 L 103 592 L 113.16267485762415 596.209517756016" stroke-miterlimit="10"/></g><g transform="translate(2,5) scale(1,1)"><g><path fill="none" stroke="none"/><text fill="#000000" stroke="none" font-family="Arial" font-size="13px" font-style="normal" font-weight="normal" text-decoration="none" x="292.5" y="608.5">22 : Session[]</text></g></g><g transform="translate(2,5) scale(1,1)"><path fill="none" stroke="#000000" d="M 103 608 L 133 608 L 133 628 L 110 628" stroke-miterlimit="10"/></g><g transform="translate(2,5) scale(1,1)"><path fill="#000000" stroke="none" d="M 120.16267485762415 623.790482243984 L 110 628 L 120.16267485762415 632.209517756016"/></g><g transform="translate(2,5) scale(1,1)"><path fill="none" stroke="#000000" d="M 120.16267485762415 623.790482243984 L 110 628 L 120.16267485762415 632.209517756016 L 120.16267485762415 623.790482243984" stroke-miterlimit="10"/></g><g transform="translate(2,5) scale(1,1)"><g><path fill="none" stroke="none"/><text fill="#000000" stroke="none" font-family="Arial" font-size="13px" font-style="normal" font-weight="normal" text-decoration="none" x="69.5" y="623.5">23 : setState(state: json)</text></g></g><g transform="translate(2,5) scale(1,1)"><rect fill="#ffffff" stroke="none" x="97" y="628" width="13" height="28"/></g><g transform="translate(2,5) scale(1,1)"><path fill="none" stroke="#000000" d="M 97 628 L 110 628 L 110 656 L 97 656 L 97 628 Z Z" stroke-miterlimit="10"/></g><g transform="translate(2,5) scale(1,1)"><path fill="none" stroke="#000000" d="M 398 688 L 461 688" stroke-miterlimit="10"/></g><g transform="translate(2,5) scale(1,1)"><path fill="#000000" stroke="none" d="M 450.83732514237585 692.209517756016 L 461 688 L 450.83732514237585 683.790482243984"/></g><g transform="translate(2,5) scale(1,1)"><path fill="none" stroke="#000000" d="M 450.83732514237585 692.209517756016 L 461 688 L 450.83732514237585 683.790482243984 L 450.83732514237585 692.209517756016" stroke-miterlimit="10"/></g><g transform="translate(2,5) scale(1,1)"><g><path fill="none" stroke="none"/><text fill="#000000" stroke="none" font-family="Arial" font-size="13px" font-style="normal" font-weight="normal" text-decoration="none" x="394" y="684.5">24 : render()</text></g></g><g transform="translate(2,5) scale(1,1)"><rect fill="#ffffff" stroke="none" x="461" y="688" width="13" height="28"/></g><g transform="translate(2,5) scale(1,1)"><path fill="none" stroke="#000000" d="M 461 688 L 474 688 L 474 716 L 461 716 L 461 688 Z Z" stroke-miterlimit="10"/></g></g></svg>