<svg version="1.1" xmlns="http://www.w3.org/2000/svg" xmlns:xlink="http://www.w3.org/1999/xlink" width="109" height="363"><defs/><g><g transform="translate(-18,-6) scale(1,1)"><path fill="#ffffff" stroke="none" d="M 63.82072727272727 161.68 C 63.82072727272727 156.886167936 67.70656959767273 153 72.5 153 C 77.29343040232727 153 81.17927272727273 156.886167936 81.17927272727273 161.68 C 81.17927272727273 166.47383206400002 77.29343040232727 170.36 72.5 170.36 C 67.70656959767273 170.36 63.82072727272727 166.47383206400002 63.82072727272727 161.68 Z"/></g><g transform="translate(-18,-6) scale(1,1)"><path fill="none" stroke="#000000" d="M 63.82072727272727 161.68 C 63.82072727272727 156.886167936 67.70656959767273 153 72.5 153 C 77.29343040232727 153 81.17927272727273 156.886167936 81.17927272727273 161.68 C 81.17927272727273 166.47383206400002 77.29343040232727 170.36 72.5 170.36 C 67.70656959767273 170.36 63.82072727272727 166.47383206400002 63.82072727272727 161.68 Z" stroke-miterlimit="10"/></g><g transform="translate(-18,-6) scale(1,1)"><path fill="none" stroke="#000000" d="M 72.5 170.36 L 72.5 187.64" stroke-miterlimit="10"/></g><g transform="translate(-18,-6) scale(1,1)"><path fill="none" stroke="#000000" d="M 63.31018181818182 176.84 L 81.68981818181818 176.84" stroke-miterlimit="10"/></g><g transform="translate(-18,-6) scale(1,1)"><path fill="none" stroke="#000000" d="M 72.5 187.64 L 59.736363636363635 205" stroke-miterlimit="10"/></g><g transform="translate(-18,-6) scale(1,1)"><path fill="none" stroke="#000000" d="M 72.5 187.64 L 85.26363636363637 205" stroke-miterlimit="10"/></g><g transform="translate(-18,-6) scale(1,1)"><g><path fill="none" stroke="none"/><text fill="#000000" stroke="none" font-family="Arial" font-size="13px" font-style="normal" font-weight="bold" text-decoration="none" x="49" y="225.5">Jammer</text></g></g><g transform="translate(-18,-6) scale(1,1)"><path fill="#ffffff" stroke="none" d="M 63.82072727272727 289.68 C 63.82072727272727 284.886167936 67.70656959767273 281 72.5 281 C 77.29343040232727 281 81.17927272727273 284.886167936 81.17927272727273 289.68 C 81.17927272727273 294.473832064 77.29343040232727 298.36 72.5 298.36 C 67.70656959767273 298.36 63.82072727272727 294.473832064 63.82072727272727 289.68 Z"/></g><g transform="translate(-18,-6) scale(1,1)"><path fill="none" stroke="#000000" d="M 63.82072727272727 289.68 C 63.82072727272727 284.886167936 67.70656959767273 281 72.5 281 C 77.29343040232727 281 81.17927272727273 284.886167936 81.17927272727273 289.68 C 81.17927272727273 294.473832064 77.29343040232727 298.36 72.5 298.36 C 67.70656959767273 298.36 63.82072727272727 294.473832064 63.82072727272727 289.68 Z" stroke-miterlimit="10"/></g><g transform="translate(-18,-6) scale(1,1)"><path fill="none" stroke="#000000" d="M 72.5 298.36 L 72.5 315.64" stroke-miterlimit="10"/></g><g transform="translate(-18,-6) scale(1,1)"><path fill="none" stroke="#000000" d="M 63.31018181818182 304.84 L 81.68981818181818 304.84" stroke-miterlimit="10"/></g><g transform="translate(-18,-6) scale(1,1)"><path fill="none" stroke="#000000" d="M 72.5 315.64 L 59.736363636363635 333" stroke-miterlimit="10"/></g><g transform="translate(-18,-6) scale(1,1)"><path fill="none" stroke="#000000" d="M 72.5 315.64 L 85.26363636363637 333" stroke-miterlimit="10"/></g><g transform="translate(-18,-6) scale(1,1)"><g><path fill="none" stroke="none"/><text fill="#000000" stroke="none" font-family="Arial" font-size="13px" font-style="normal" font-weight="bold" text-decoration="none" x="54" y="353.5">Admin</text></g></g><g transform="translate(-18,-6) scale(1,1)"><path fill="#ffffff" stroke="none" d="M 63.82072727272727 25.68 C 63.82072727272727 20.886167936 67.70656959767273 17 72.5 17 C 77.29343040232727 17 81.17927272727273 20.886167936 81.17927272727273 25.68 C 81.17927272727273 30.473832064 77.29343040232727 34.36 72.5 34.36 C 67.70656959767273 34.36 63.82072727272727 30.473832064 63.82072727272727 25.68 Z"/></g><g transform="translate(-18,-6) scale(1,1)"><path fill="none" stroke="#000000" d="M 63.82072727272727 25.68 C 63.82072727272727 20.886167936 67.70656959767273 17 72.5 17 C 77.29343040232727 17 81.17927272727273 20.886167936 81.17927272727273 25.68 C 81.17927272727273 30.473832064 77.29343040232727 34.36 72.5 34.36 C 67.70656959767273 34.36 63.82072727272727 30.473832064 63.82072727272727 25.68 Z" stroke-miterlimit="10"/></g><g transform="translate(-18,-6) scale(1,1)"><path fill="none" stroke="#000000" d="M 72.5 34.36 L 72.5 51.64" stroke-miterlimit="10"/></g><g transform="translate(-18,-6) scale(1,1)"><path fill="none" stroke="#000000" d="M 63.31018181818182 40.84 L 81.68981818181818 40.84" stroke-miterlimit="10"/></g><g transform="translate(-18,-6) scale(1,1)"><path fill="none" stroke="#000000" d="M 72.5 51.64 L 59.736363636363635 69" stroke-miterlimit="10"/></g><g transform="translate(-18,-6) scale(1,1)"><path fill="none" stroke="#000000" d="M 72.5 51.64 L 85.26363636363637 69" stroke-miterlimit="10"/></g><g transform="translate(-18,-6) scale(1,1)"><g><path fill="none" stroke="none"/><text fill="#000000" stroke="none" font-family="Arial" font-size="13px" font-style="normal" font-weight="bold" text-decoration="none" x="46" y="89.5">WebUser</text></g></g><g transform="translate(-18,-6) scale(1,1)"><path fill="none" stroke="#000000" d="M 72 151 L 72 96" stroke-miterlimit="10"/></g><g transform="translate(-18,-6) scale(1,1)"><path fill="#FFFFFF" stroke="none" d="M 80.41903551203198 116.32534971524831 L 72 96 L 63.580964487968025 116.32534971524831"/></g><g transform="translate(-18,-6) scale(1,1)"><path fill="none" stroke="#000000" d="M 80.41903551203198 116.32534971524831 L 72 96 L 63.580964487968025 116.32534971524831 L 80.41903551203198 116.32534971524831" stroke-miterlimit="10"/></g><g transform="translate(-18,-6) scale(1,1)"><path fill="none" stroke="#000000" d="M 72 279 L 72 232" stroke-miterlimit="10"/></g><g transform="translate(-18,-6) scale(1,1)"><path fill="#FFFFFF" stroke="none" d="M 80.41903551203198 252.3253497152483 L 72 232 L 63.580964487968025 252.3253497152483"/></g><g transform="translate(-18,-6) scale(1,1)"><path fill="none" stroke="#000000" d="M 80.41903551203198 252.3253497152483 L 72 232 L 63.580964487968025 252.3253497152483 L 80.41903551203198 252.3253497152483" stroke-miterlimit="10"/></g></g></svg>