<svg version="1.1" xmlns="http://www.w3.org/2000/svg" xmlns:xlink="http://www.w3.org/1999/xlink" width="932" height="940"><defs/><g><g transform="translate(-38,2) scale(1,1)"><path fill="none" stroke="#000000" d="M 48 8 L 960 8 L 960 928 L 48 928 L 48 8" stroke-miterlimit="10"/></g><g transform="translate(-38,2) scale(1,1)"><path fill="#ffffff" stroke="none" d="M 48 8 L 48 30 L 168 30 L 179 19 L 179 8 L 48 8"/></g><g transform="translate(-38,2) scale(1,1)"><path fill="none" stroke="#000000" d="M 48 8 L 48 30 L 168 30 L 179 19 L 179 8 L 48 8 L 48 8" stroke-miterlimit="10"/></g><g transform="translate(-38,2) scale(1,1)"><g><path fill="none" stroke="none"/><text fill="#000000" stroke="none" font-family="Arial" font-size="13px" font-style="normal" font-weight="normal" text-decoration="none" x="119" y="25.5">Sign up</text></g></g><g transform="translate(-38,2) scale(1,1)"><g><path fill="none" stroke="none"/><text fill="#000000" stroke="none" font-family="Arial" font-size="13px" font-style="normal" font-weight="bold" text-decoration="none" x="53" y="25.5">interaction</text></g></g><g transform="translate(-38,2) scale(1,1)"><path fill="#ffffff" stroke="none" d="M 244 60 C 244 51.1634432 251.1634432 44 260 44 C 268.8365568 44 276 51.1634432 276 60 C 276 68.8365568 268.8365568 76 260 76 C 251.1634432 76 244 68.8365568 244 60 Z"/></g><g transform="translate(-38,2) scale(1,1)"><path fill="none" stroke="#000000" d="M 244 60 C 244 51.1634432 251.1634432 44 260 44 C 268.8365568 44 276 51.1634432 276 60 C 276 68.8365568 268.8365568 76 260 76 C 251.1634432 76 244 68.8365568 244 60 Z" stroke-miterlimit="10"/></g><g transform="translate(-38,2) scale(1,1)"><path fill="none" stroke="#000000" d="M 236 44 L 236 76" stroke-miterlimit="10"/></g><g transform="translate(-38,2) scale(1,1)"><path fill="none" stroke="#000000" d="M 236 60 L 244 60" stroke-miterlimit="10"/></g><g transform="translate(-38,2) scale(1,1)"><g><path fill="none" stroke="none"/><text fill="#000000" stroke="none" font-family="Arial" font-size="13px" font-style="normal" font-weight="bold" text-decoration="none" x="224.5" y="99.5">: SignUpUI</text></g></g><g transform="translate(-38,2) scale(1,1)"><path fill="none" stroke="#000000" d="M 257.5 105 L 257.5 912" stroke-miterlimit="10" stroke-dasharray="3"/></g><g transform="translate(-38,2) scale(1,1)"><path fill="#ffffff" stroke="none" d="M 562 60 C 562 51.715728 568.715728 45 577 45 C 585.284272 45 592 51.715728 592 60 C 592 68.284272 585.284272 75 577 75 C 568.715728 75 562 68.284272 562 60 Z"/></g><g transform="translate(-38,2) scale(1,1)"><path fill="none" stroke="#000000" d="M 562 60 C 562 51.715728 568.715728 45 577 45 C 585.284272 45 592 51.715728 592 60 C 592 68.284272 585.284272 75 577 75 C 568.715728 75 562 68.284272 562 60 Z" stroke-miterlimit="10"/></g><g transform="translate(-38,2) scale(1,1)"><path fill="none" stroke="#000000" d="M 577 45 L 582 40" stroke-miterlimit="10"/></g><g transform="translate(-38,2) scale(1,1)"><path fill="none" stroke="#000000" d="M 577 45 L 582 50" stroke-miterlimit="10"/></g><g transform="translate(-38,2) scale(1,1)"><g><path fill="none" stroke="none"/><text fill="#000000" stroke="none" font-family="Arial" font-size="13px" font-style="normal" font-weight="bold" text-decoration="none" x="527" y="99.5">: SecurityService</text></g></g><g transform="translate(-38,2) scale(1,1)"><path fill="none" stroke="#000000" d="M 578.5 105 L 578.5 912" stroke-miterlimit="10" stroke-dasharray="3"/></g><g transform="translate(-38,2) scale(1,1)"><path fill="#ffffff" stroke="none" d="M 89.5709090909091 47.3 C 89.5709090909091 43.82060576 92.44931081309092 41 96 41 C 99.55068918690908 41 102.4290909090909 43.82060576 102.4290909090909 47.3 C 102.4290909090909 50.779394239999995 99.55068918690908 53.6 96 53.6 C 92.44931081309092 53.6 89.5709090909091 50.779394239999995 89.5709090909091 47.3 Z"/></g><g transform="translate(-38,2) scale(1,1)"><path fill="none" stroke="#000000" d="M 89.5709090909091 47.3 C 89.5709090909091 43.82060576 92.44931081309092 41 96 41 C 99.55068918690908 41 102.4290909090909 43.82060576 102.4290909090909 47.3 C 102.4290909090909 50.779394239999995 99.55068918690908 53.6 96 53.6 C 92.44931081309092 53.6 89.5709090909091 50.779394239999995 89.5709090909091 47.3 Z" stroke-miterlimit="10"/></g><g transform="translate(-38,2) scale(1,1)"><path fill="none" stroke="#000000" d="M 96 53.6 L 96 66.4" stroke-miterlimit="10"/></g><g transform="translate(-38,2) scale(1,1)"><path fill="none" stroke="#000000" d="M 89.19272727272727 58.4 L 102.80727272727273 58.4" stroke-miterlimit="10"/></g><g transform="translate(-38,2) scale(1,1)"><path fill="none" stroke="#000000" d="M 96 66.4 L 86.54545454545455 79" stroke-miterlimit="10"/></g><g transform="translate(-38,2) scale(1,1)"><path fill="none" stroke="#000000" d="M 96 66.4 L 105.45454545454545 79" stroke-miterlimit="10"/></g><g transform="translate(-38,2) scale(1,1)"><g><path fill="none" stroke="none"/><text fill="#000000" stroke="none" font-family="Arial" font-size="13px" font-style="normal" font-weight="bold" text-decoration="none" x="65.5" y="99.5">: WebUser</text></g></g><g transform="translate(-38,2) scale(1,1)"><path fill="none" stroke="#000000" d="M 97.5 105 L 97.5 912" stroke-miterlimit="10" stroke-dasharray="3"/></g><g transform="translate(-38,2) scale(1,1)"><rect fill="#C0C0C0" stroke="none" x="847" y="47" width="105" height="39" opacity="0.2"/></g><g transform="translate(-38,2) scale(1,1)"><rect fill="#ffffff" stroke="none" x="840" y="40" width="105" height="39"/></g><g transform="translate(-38,2) scale(1,1)"><path fill="none" stroke="#000000" d="M 840 40 L 945 40 L 945 79 L 840 79 L 840 40 Z Z" stroke-miterlimit="10"/></g><g transform="translate(-38,2) scale(1,1)"><g><path fill="none" stroke="none"/><text fill="#000000" stroke="none" font-family="Arial" font-size="13px" font-style="normal" font-weight="bold" text-decoration="none" x="851" y="59.5">: JammerDAO</text></g></g><g transform="translate(-38,2) scale(1,1)"><path fill="none" stroke="#000000" d="M 893.5 80 L 893.5 914" stroke-miterlimit="10" stroke-dasharray="3"/></g><g transform="translate(-38,2) scale(1,1)"><path fill="#ffffff" stroke="none" d="M 777 280 C 777 271.1634432 784.1634432 264 793 264 C 801.8365568 264 809 271.1634432 809 280 C 809 288.8365568 801.8365568 296 793 296 C 784.1634432 296 777 288.8365568 777 280 Z"/></g><g transform="translate(-38,2) scale(1,1)"><path fill="none" stroke="#000000" d="M 777 280 C 777 271.1634432 784.1634432 264 793 264 C 801.8365568 264 809 271.1634432 809 280 C 809 288.8365568 801.8365568 296 793 296 C 784.1634432 296 777 288.8365568 777 280 Z" stroke-miterlimit="10"/></g><g transform="translate(-38,2) scale(1,1)"><path fill="none" stroke="#000000" d="M 777 296 L 809 296" stroke-miterlimit="10"/></g><g transform="translate(-38,2) scale(1,1)"><g><path fill="none" stroke="none"/><text fill="#000000" stroke="none" font-family="Arial" font-size="13px" font-style="normal" font-weight="bold" text-decoration="none" x="744" y="319.5">jammer: Jammer</text></g></g><g transform="translate(-38,2) scale(1,1)"><path fill="none" stroke="#000000" d="M 794.5 325 L 794.5 912" stroke-miterlimit="10" stroke-dasharray="3"/></g><g transform="translate(-38,2) scale(1,1)"><path fill="#ffffff" stroke="none" d="M 338.5 60 C 338.5 51.1634432 345.6634432 44 354.5 44 C 363.3365568 44 370.5 51.1634432 370.5 60 C 370.5 68.8365568 363.3365568 76 354.5 76 C 345.6634432 76 338.5 68.8365568 338.5 60 Z"/></g><g transform="translate(-38,2) scale(1,1)"><path fill="none" stroke="#000000" d="M 338.5 60 C 338.5 51.1634432 345.6634432 44 354.5 44 C 363.3365568 44 370.5 51.1634432 370.5 60 C 370.5 68.8365568 363.3365568 76 354.5 76 C 345.6634432 76 338.5 68.8365568 338.5 60 Z" stroke-miterlimit="10"/></g><g transform="translate(-38,2) scale(1,1)"><path fill="none" stroke="#000000" d="M 330.5 44 L 330.5 76" stroke-miterlimit="10"/></g><g transform="translate(-38,2) scale(1,1)"><path fill="none" stroke="#000000" d="M 330.5 60 L 338.5 60" stroke-miterlimit="10"/></g><g transform="translate(-38,2) scale(1,1)"><g><path fill="none" stroke="none"/><text fill="#000000" stroke="none" font-family="Arial" font-size="13px" font-style="normal" font-weight="bold" text-decoration="none" x="297.5" y="99.5">: ConfirmSignupUI</text></g></g><g transform="translate(-38,2) scale(1,1)"><path fill="none" stroke="#000000" d="M 351.5 105 L 351.5 912" stroke-miterlimit="10" stroke-dasharray="3"/></g><g transform="translate(-38,2) scale(1,1)"><path fill="none" stroke="#000000" d="M 97 136 L 250 136" stroke-miterlimit="10"/></g><g transform="translate(-38,2) scale(1,1)"><path fill="#000000" stroke="none" d="M 239.83732514237585 140.209517756016 L 250 136 L 239.83732514237585 131.790482243984"/></g><g transform="translate(-38,2) scale(1,1)"><path fill="none" stroke="#000000" d="M 239.83732514237585 140.209517756016 L 250 136 L 239.83732514237585 131.790482243984 L 239.83732514237585 140.209517756016" stroke-miterlimit="10"/></g><g transform="translate(-38,2) scale(1,1)"><g><path fill="none" stroke="none"/><text fill="#000000" stroke="none" font-family="Arial" font-size="13px" font-style="normal" font-weight="normal" text-decoration="none" x="103.5" y="132.5">1 : displaySignupForm()</text></g></g><g transform="translate(-38,2) scale(1,1)"><rect fill="#ffffff" stroke="none" x="250" y="136" width="13" height="28"/></g><g transform="translate(-38,2) scale(1,1)"><path fill="none" stroke="#000000" d="M 250 136 L 263 136 L 263 164 L 250 164 L 250 136 Z Z" stroke-miterlimit="10"/></g><g transform="translate(-38,2) scale(1,1)"><path fill="none" stroke="#000000" d="M 97 176 L 250 176" stroke-miterlimit="10"/></g><g transform="translate(-38,2) scale(1,1)"><path fill="#000000" stroke="none" d="M 239.83732514237585 180.209517756016 L 250 176 L 239.83732514237585 171.790482243984"/></g><g transform="translate(-38,2) scale(1,1)"><path fill="none" stroke="#000000" d="M 239.83732514237585 180.209517756016 L 250 176 L 239.83732514237585 171.790482243984 L 239.83732514237585 180.209517756016" stroke-miterlimit="10"/></g><g transform="translate(-38,2) scale(1,1)"><g><path fill="none" stroke="none"/><text fill="#000000" stroke="none" font-family="Arial" font-size="13px" font-style="normal" font-weight="normal" text-decoration="none" x="115.5" y="172.5">2 : enterNewEmail()</text></g></g><g transform="translate(-38,2) scale(1,1)"><rect fill="#ffffff" stroke="none" x="250" y="176" width="13" height="28"/></g><g transform="translate(-38,2) scale(1,1)"><path fill="none" stroke="#000000" d="M 250 176 L 263 176 L 263 204 L 250 204 L 250 176 Z Z" stroke-miterlimit="10"/></g><g transform="translate(-38,2) scale(1,1)"><path fill="none" stroke="#000000" d="M 97 224 L 250 224" stroke-miterlimit="10"/></g><g transform="translate(-38,2) scale(1,1)"><path fill="#000000" stroke="none" d="M 239.83732514237585 228.209517756016 L 250 224 L 239.83732514237585 219.790482243984"/></g><g transform="translate(-38,2) scale(1,1)"><path fill="none" stroke="#000000" d="M 239.83732514237585 228.209517756016 L 250 224 L 239.83732514237585 219.790482243984 L 239.83732514237585 228.209517756016" stroke-miterlimit="10"/></g><g transform="translate(-38,2) scale(1,1)"><g><path fill="none" stroke="none"/><text fill="#000000" stroke="none" font-family="Arial" font-size="13px" font-style="normal" font-weight="normal" text-decoration="none" x="104.5" y="220.5">3 : submitSignupForm()</text></g></g><g transform="translate(-38,2) scale(1,1)"><rect fill="#ffffff" stroke="none" x="250" y="224" width="13" height="28"/></g><g transform="translate(-38,2) scale(1,1)"><path fill="none" stroke="#000000" d="M 250 224 L 263 224 L 263 252 L 250 252 L 250 224 Z Z" stroke-miterlimit="10"/></g><g transform="translate(-38,2) scale(1,1)"><path fill="none" stroke="#000000" d="M 257 264 L 571 264" stroke-miterlimit="10"/></g><g transform="translate(-38,2) scale(1,1)"><path fill="#000000" stroke="none" d="M 560.8373251423759 268.209517756016 L 571 264 L 560.8373251423758 259.790482243984"/></g><g transform="translate(-38,2) scale(1,1)"><path fill="none" stroke="#000000" d="M 560.8373251423759 268.209517756016 L 571 264 L 560.8373251423758 259.790482243984 L 560.8373251423759 268.209517756016" stroke-miterlimit="10"/></g><g transform="translate(-38,2) scale(1,1)"><g><path fill="none" stroke="none"/><text fill="#000000" stroke="none" font-family="Arial" font-size="13px" font-style="normal" font-weight="normal" text-decoration="none" x="357.5" y="260.5">4 : validateSignup()</text></g></g><g transform="translate(-38,2) scale(1,1)"><rect fill="#ffffff" stroke="none" x="571" y="264" width="13" height="96"/></g><g transform="translate(-38,2) scale(1,1)"><path fill="none" stroke="#000000" d="M 571 264 L 584 264 L 584 360 L 571 360 L 571 264 Z Z" stroke-miterlimit="10"/></g><g transform="translate(-38,2) scale(1,1)"><path fill="none" stroke="#000000" d="M 584 280 L 736 280" stroke-miterlimit="10" stroke-dasharray="3"/></g><g transform="translate(-38,2) scale(1,1)"><path fill="none" stroke="#000000" d="M 725.8373251423759 284.209517756016 L 736 280 L 725.8373251423758 275.790482243984" stroke-miterlimit="10"/></g><g transform="translate(-38,2) scale(1,1)"><g><path fill="none" stroke="none"/><text fill="#000000" stroke="none" font-family="Arial" font-size="13px" font-style="normal" font-weight="normal" text-decoration="none" x="638.5" y="276.5">5 : new</text></g></g><g transform="translate(-38,2) scale(1,1)"><g><path fill="none" stroke="none"/><text fill="#000000" stroke="none" font-family="Arial" font-size="13px" font-style="normal" font-weight="normal" text-decoration="none" x="634.5" y="261.5">«create»</text></g></g><g transform="translate(-38,2) scale(1,1)"><path fill="none" stroke="#000000" d="M 584 352 L 886 352" stroke-miterlimit="10"/></g><g transform="translate(-38,2) scale(1,1)"><path fill="#000000" stroke="none" d="M 875.8373251423759 356.209517756016 L 886 352 L 875.8373251423758 347.790482243984"/></g><g transform="translate(-38,2) scale(1,1)"><path fill="none" stroke="#000000" d="M 875.8373251423759 356.209517756016 L 886 352 L 875.8373251423758 347.790482243984 L 875.8373251423759 356.209517756016" stroke-miterlimit="10"/></g><g transform="translate(-38,2) scale(1,1)"><g><path fill="none" stroke="none"/><text fill="#000000" stroke="none" font-family="Arial" font-size="13px" font-style="normal" font-weight="normal" text-decoration="none" x="656" y="348.5">6 : insert(jammer: Jammer)</text></g></g><g transform="translate(-38,2) scale(1,1)"><rect fill="#ffffff" stroke="none" x="886" y="352" width="13" height="28"/></g><g transform="translate(-38,2) scale(1,1)"><path fill="none" stroke="#000000" d="M 886 352 L 899 352 L 899 380 L 886 380 L 886 352 Z Z" stroke-miterlimit="10"/></g><g transform="translate(-38,2) scale(1,1)"><path fill="none" stroke="#000000" d="M 578 376 L 608 376 L 608 396 L 584 396" stroke-miterlimit="10"/></g><g transform="translate(-38,2) scale(1,1)"><path fill="#000000" stroke="none" d="M 594.1626748576241 391.790482243984 L 584 396 L 594.1626748576241 400.209517756016"/></g><g transform="translate(-38,2) scale(1,1)"><path fill="none" stroke="#000000" d="M 594.1626748576241 391.790482243984 L 584 396 L 594.1626748576241 400.209517756016 L 594.1626748576241 391.790482243984" stroke-miterlimit="10"/></g><g transform="translate(-38,2) scale(1,1)"><g><path fill="none" stroke="none"/><text fill="#000000" stroke="none" font-family="Arial" font-size="13px" font-style="normal" font-weight="normal" text-decoration="none" x="576.5" y="391.5">7 : sendEmail</text></g></g><g transform="translate(-38,2) scale(1,1)"><rect fill="#ffffff" stroke="none" x="571" y="396" width="13" height="44"/></g><g transform="translate(-38,2) scale(1,1)"><path fill="none" stroke="#000000" d="M 571 396 L 584 396 L 584 440 L 571 440 L 571 396 Z Z" stroke-miterlimit="10"/></g><g transform="translate(-38,2) scale(1,1)"><path fill="none" stroke="#000000" d="M 571 433 L 97 433" stroke-miterlimit="10" stroke-dasharray="3"/></g><g transform="translate(-38,2) scale(1,1)"><path fill="none" stroke="#000000" d="M 107.16267485762415 428.790482243984 L 97 433 L 107.16267485762415 437.209517756016" stroke-miterlimit="10"/></g><g transform="translate(-38,2) scale(1,1)"><g><path fill="none" stroke="none"/><text fill="#000000" stroke="none" font-family="Arial" font-size="13px" font-style="normal" font-weight="normal" text-decoration="none" x="278.5" y="449.5">8 : mailNotification</text></g></g><g transform="translate(-38,2) scale(1,1)"><path fill="none" stroke="#000000" d="M 97 480 L 344 480" stroke-miterlimit="10"/></g><g transform="translate(-38,2) scale(1,1)"><path fill="#000000" stroke="none" d="M 333.83732514237585 484.209517756016 L 344 480 L 333.83732514237585 475.790482243984"/></g><g transform="translate(-38,2) scale(1,1)"><path fill="none" stroke="#000000" d="M 333.83732514237585 484.209517756016 L 344 480 L 333.83732514237585 475.790482243984 L 333.83732514237585 484.209517756016" stroke-miterlimit="10"/></g><g transform="translate(-38,2) scale(1,1)"><g><path fill="none" stroke="none"/><text fill="#000000" stroke="none" font-family="Arial" font-size="13px" font-style="normal" font-weight="normal" text-decoration="none" x="122" y="475.5">9 : displayConfirmSignupForm()</text></g></g><g transform="translate(-38,2) scale(1,1)"><rect fill="#ffffff" stroke="none" x="344" y="480" width="13" height="28"/></g><g transform="translate(-38,2) scale(1,1)"><path fill="none" stroke="#000000" d="M 344 480 L 357 480 L 357 508 L 344 508 L 344 480 Z Z" stroke-miterlimit="10"/></g><g transform="translate(-38,2) scale(1,1)"><path fill="none" stroke="#000000" d="M 97 520 L 344 520" stroke-miterlimit="10"/></g><g transform="translate(-38,2) scale(1,1)"><path fill="#000000" stroke="none" d="M 333.83732514237585 524.209517756016 L 344 520 L 333.83732514237585 515.790482243984"/></g><g transform="translate(-38,2) scale(1,1)"><path fill="none" stroke="#000000" d="M 333.83732514237585 524.209517756016 L 344 520 L 333.83732514237585 515.790482243984 L 333.83732514237585 524.209517756016" stroke-miterlimit="10"/></g><g transform="translate(-38,2) scale(1,1)"><g><path fill="none" stroke="none"/><text fill="#000000" stroke="none" font-family="Arial" font-size="13px" font-style="normal" font-weight="normal" text-decoration="none" x="171.5" y="516.5">10 : enterEmail()</text></g></g><g transform="translate(-38,2) scale(1,1)"><rect fill="#ffffff" stroke="none" x="344" y="520" width="13" height="28"/></g><g transform="translate(-38,2) scale(1,1)"><path fill="none" stroke="#000000" d="M 344 520 L 357 520 L 357 548 L 344 548 L 344 520 Z Z" stroke-miterlimit="10"/></g><g transform="translate(-38,2) scale(1,1)"><path fill="none" stroke="#000000" d="M 97 560 L 344 560" stroke-miterlimit="10"/></g><g transform="translate(-38,2) scale(1,1)"><path fill="#000000" stroke="none" d="M 333.83732514237585 564.209517756016 L 344 560 L 333.83732514237585 555.790482243984"/></g><g transform="translate(-38,2) scale(1,1)"><path fill="none" stroke="#000000" d="M 333.83732514237585 564.209517756016 L 344 560 L 333.83732514237585 555.790482243984 L 333.83732514237585 564.209517756016" stroke-miterlimit="10"/></g><g transform="translate(-38,2) scale(1,1)"><g><path fill="none" stroke="none"/><text fill="#000000" stroke="none" font-family="Arial" font-size="13px" font-style="normal" font-weight="normal" text-decoration="none" x="159.5" y="556.5">11 : enterPassword()</text></g></g><g transform="translate(-38,2) scale(1,1)"><rect fill="#ffffff" stroke="none" x="344" y="560" width="13" height="28"/></g><g transform="translate(-38,2) scale(1,1)"><path fill="none" stroke="#000000" d="M 344 560 L 357 560 L 357 588 L 344 588 L 344 560 Z Z" stroke-miterlimit="10"/></g><g transform="translate(-38,2) scale(1,1)"><path fill="none" stroke="#000000" d="M 97 600 L 344 600" stroke-miterlimit="10"/></g><g transform="translate(-38,2) scale(1,1)"><path fill="#000000" stroke="none" d="M 333.83732514237585 604.209517756016 L 344 600 L 333.83732514237585 595.790482243984"/></g><g transform="translate(-38,2) scale(1,1)"><path fill="none" stroke="#000000" d="M 333.83732514237585 604.209517756016 L 344 600 L 333.83732514237585 595.790482243984 L 333.83732514237585 604.209517756016" stroke-miterlimit="10"/></g><g transform="translate(-38,2) scale(1,1)"><g><path fill="none" stroke="none"/><text fill="#000000" stroke="none" font-family="Arial" font-size="13px" font-style="normal" font-weight="normal" text-decoration="none" x="159.5" y="596.5">12 : enterPassword()</text></g></g><g transform="translate(-38,2) scale(1,1)"><rect fill="#ffffff" stroke="none" x="344" y="600" width="13" height="28"/></g><g transform="translate(-38,2) scale(1,1)"><path fill="none" stroke="#000000" d="M 344 600 L 357 600 L 357 628 L 344 628 L 344 600 Z Z" stroke-miterlimit="10"/></g><g transform="translate(-38,2) scale(1,1)"><path fill="none" stroke="#000000" d="M 97 648 L 344 648" stroke-miterlimit="10"/></g><g transform="translate(-38,2) scale(1,1)"><path fill="#000000" stroke="none" d="M 333.83732514237585 652.209517756016 L 344 648 L 333.83732514237585 643.790482243984"/></g><g transform="translate(-38,2) scale(1,1)"><path fill="none" stroke="#000000" d="M 333.83732514237585 652.209517756016 L 344 648 L 333.83732514237585 643.790482243984 L 333.83732514237585 652.209517756016" stroke-miterlimit="10"/></g><g transform="translate(-38,2) scale(1,1)"><g><path fill="none" stroke="none"/><text fill="#000000" stroke="none" font-family="Arial" font-size="13px" font-style="normal" font-weight="normal" text-decoration="none" x="125.5" y="644.5">13 : submitConfirmSignupForm()</text></g></g><g transform="translate(-38,2) scale(1,1)"><rect fill="#ffffff" stroke="none" x="344" y="648" width="13" height="28"/></g><g transform="translate(-38,2) scale(1,1)"><path fill="none" stroke="#000000" d="M 344 648 L 357 648 L 357 676 L 344 676 L 344 648 Z Z" stroke-miterlimit="10"/></g><g transform="translate(-38,2) scale(1,1)"><path fill="none" stroke="#000000" d="M 357 656 L 571 656" stroke-miterlimit="10"/></g><g transform="translate(-38,2) scale(1,1)"><path fill="#000000" stroke="none" d="M 560.8373251423759 660.209517756016 L 571 656 L 560.8373251423758 651.790482243984"/></g><g transform="translate(-38,2) scale(1,1)"><path fill="none" stroke="#000000" d="M 560.8373251423759 660.209517756016 L 571 656 L 560.8373251423758 651.790482243984 L 560.8373251423759 660.209517756016" stroke-miterlimit="10"/></g><g transform="translate(-38,2) scale(1,1)"><g><path fill="none" stroke="none"/><text fill="#000000" stroke="none" font-family="Arial" font-size="13px" font-style="normal" font-weight="normal" text-decoration="none" x="401.5" y="652.5">14 : validateConfirm()</text></g></g><g transform="translate(-38,2) scale(1,1)"><rect fill="#ffffff" stroke="none" x="571" y="656" width="13" height="240"/></g><g transform="translate(-38,2) scale(1,1)"><path fill="none" stroke="#000000" d="M 571 656 L 584 656 L 584 896 L 571 896 L 571 656 Z Z" stroke-miterlimit="10"/></g><g transform="translate(-38,2) scale(1,1)"><path fill="none" stroke="#000000" d="M 584 664 L 886 664" stroke-miterlimit="10"/></g><g transform="translate(-38,2) scale(1,1)"><path fill="#000000" stroke="none" d="M 875.8373251423759 668.209517756016 L 886 664 L 875.8373251423758 659.790482243984"/></g><g transform="translate(-38,2) scale(1,1)"><path fill="none" stroke="#000000" d="M 875.8373251423759 668.209517756016 L 886 664 L 875.8373251423758 659.790482243984 L 875.8373251423759 668.209517756016" stroke-miterlimit="10"/></g><g transform="translate(-38,2) scale(1,1)"><g><path fill="none" stroke="none"/><text fill="#000000" stroke="none" font-family="Arial" font-size="13px" font-style="normal" font-weight="normal" text-decoration="none" x="647.5" y="660.5">15 : findByEmail(email: string)</text></g></g><g transform="translate(-38,2) scale(1,1)"><rect fill="#ffffff" stroke="none" x="886" y="664" width="13" height="88"/></g><g transform="translate(-38,2) scale(1,1)"><path fill="none" stroke="#000000" d="M 886 664 L 899 664 L 899 752 L 886 752 L 886 664 Z Z" stroke-miterlimit="10"/></g><g transform="translate(-38,2) scale(1,1)"><path fill="none" stroke="#000000" d="M 886 704 L 794 704" stroke-miterlimit="10" stroke-dasharray="3"/></g><g transform="translate(-38,2) scale(1,1)"><path fill="none" stroke="#000000" d="M 804.1626748576241 699.790482243984 L 794 704 L 804.1626748576241 708.209517756016" stroke-miterlimit="10"/></g><g transform="translate(-38,2) scale(1,1)"><g><path fill="none" stroke="none"/><text fill="#000000" stroke="none" font-family="Arial" font-size="13px" font-style="normal" font-weight="normal" text-decoration="none" x="814.5" y="720.5">16 : new</text></g></g><g transform="translate(-38,2) scale(1,1)"><g><path fill="none" stroke="none"/><text fill="#000000" stroke="none" font-family="Arial" font-size="13px" font-style="normal" font-weight="normal" text-decoration="none" x="813.5" y="735.5">«create»</text></g></g><g transform="translate(-38,2) scale(1,1)"><path fill="none" stroke="#000000" d="M 886 744 L 584 744" stroke-miterlimit="10" stroke-dasharray="3"/></g><g transform="translate(-38,2) scale(1,1)"><path fill="none" stroke="#000000" d="M 594.1626748576241 739.790482243984 L 584 744 L 594.1626748576241 748.209517756016" stroke-miterlimit="10"/></g><g transform="translate(-38,2) scale(1,1)"><g><path fill="none" stroke="none"/><text fill="#000000" stroke="none" font-family="Arial" font-size="13px" font-style="normal" font-weight="normal" text-decoration="none" x="699.5" y="760.5">17 : jammer</text></g></g><g transform="translate(-38,2) scale(1,1)"><path fill="none" stroke="#000000" d="M 584 808 L 787 808" stroke-miterlimit="10"/></g><g transform="translate(-38,2) scale(1,1)"><path fill="#000000" stroke="none" d="M 776.8373251423759 812.209517756016 L 787 808 L 776.8373251423758 803.790482243984"/></g><g transform="translate(-38,2) scale(1,1)"><path fill="none" stroke="#000000" d="M 776.8373251423759 812.209517756016 L 787 808 L 776.8373251423758 803.790482243984 L 776.8373251423759 812.209517756016" stroke-miterlimit="10"/></g><g transform="translate(-38,2) scale(1,1)"><g><path fill="none" stroke="none"/><text fill="#000000" stroke="none" font-family="Arial" font-size="13px" font-style="normal" font-weight="normal" text-decoration="none" x="644.5" y="804.5">18 : activate()</text></g></g><g transform="translate(-38,2) scale(1,1)"><rect fill="#ffffff" stroke="none" x="787" y="808" width="13" height="28"/></g><g transform="translate(-38,2) scale(1,1)"><path fill="none" stroke="#000000" d="M 787 808 L 800 808 L 800 836 L 787 836 L 787 808 Z Z" stroke-miterlimit="10"/></g><g transform="translate(-38,2) scale(1,1)"><path fill="none" stroke="#000000" d="M 584 872 L 886 872" stroke-miterlimit="10"/></g><g transform="translate(-38,2) scale(1,1)"><path fill="#000000" stroke="none" d="M 875.8373251423759 876.209517756016 L 886 872 L 875.8373251423758 867.790482243984"/></g><g transform="translate(-38,2) scale(1,1)"><path fill="none" stroke="#000000" d="M 875.8373251423759 876.209517756016 L 886 872 L 875.8373251423758 867.790482243984 L 875.8373251423759 876.209517756016" stroke-miterlimit="10"/></g><g transform="translate(-38,2) scale(1,1)"><g><path fill="none" stroke="none"/><text fill="#000000" stroke="none" font-family="Arial" font-size="13px" font-style="normal" font-weight="normal" text-decoration="none" x="649.5" y="868.5">19 : update(jammer: Jammer)</text></g></g><g transform="translate(-38,2) scale(1,1)"><rect fill="#ffffff" stroke="none" x="886" y="872" width="13" height="28"/></g><g transform="translate(-38,2) scale(1,1)"><path fill="none" stroke="#000000" d="M 886 872 L 899 872 L 899 900 L 886 900 L 886 872 Z Z" stroke-miterlimit="10"/></g></g></svg>