<svg version="1.1" xmlns="http://www.w3.org/2000/svg" xmlns:xlink="http://www.w3.org/1999/xlink" width="764" height="575"><defs/><g><g transform="translate(10,5) scale(1,1)"><path fill="none" stroke="#000000" d="M 0 5 L 744 5 L 744 560 L 0 560 L 0 5" stroke-miterlimit="10"/></g><g transform="translate(10,5) scale(1,1)"><path fill="#ffffff" stroke="none" d="M 0 5 L 0 27 L 192 27 L 203 16 L 203 5 L 0 5"/></g><g transform="translate(10,5) scale(1,1)"><path fill="none" stroke="#000000" d="M 0 5 L 0 27 L 192 27 L 203 16 L 203 5 L 0 5 L 0 5" stroke-miterlimit="10"/></g><g transform="translate(10,5) scale(1,1)"><g><path fill="none" stroke="none"/><text fill="#000000" stroke="none" font-family="Arial" font-size="13px" font-style="normal" font-weight="normal" text-decoration="none" x="71" y="22.5">Search for sessions</text></g></g><g transform="translate(10,5) scale(1,1)"><g><path fill="none" stroke="none"/><text fill="#000000" stroke="none" font-family="Arial" font-size="13px" font-style="normal" font-weight="bold" text-decoration="none" x="5" y="22.5">interaction</text></g></g><g transform="translate(10,5) scale(1,1)"><path fill="#ffffff" stroke="none" d="M 415 60 C 415 51.715728 421.715728 45 430 45 C 438.284272 45 445 51.715728 445 60 C 445 68.284272 438.284272 75 430 75 C 421.715728 75 415 68.284272 415 60 Z"/></g><g transform="translate(10,5) scale(1,1)"><path fill="none" stroke="#000000" d="M 415 60 C 415 51.715728 421.715728 45 430 45 C 438.284272 45 445 51.715728 445 60 C 445 68.284272 438.284272 75 430 75 C 421.715728 75 415 68.284272 415 60 Z" stroke-miterlimit="10"/></g><g transform="translate(10,5) scale(1,1)"><path fill="none" stroke="#000000" d="M 430 45 L 435 40" stroke-miterlimit="10"/></g><g transform="translate(10,5) scale(1,1)"><path fill="none" stroke="#000000" d="M 430 45 L 435 50" stroke-miterlimit="10"/></g><g transform="translate(10,5) scale(1,1)"><g><path fill="none" stroke="none"/><text fill="#000000" stroke="none" font-family="Arial" font-size="13px" font-style="normal" font-weight="bold" text-decoration="none" x="380.5" y="99.5">: SessionService</text></g></g><g transform="translate(10,5) scale(1,1)"><path fill="none" stroke="#000000" d="M 431.5 105 L 431.5 544" stroke-miterlimit="10" stroke-dasharray="3"/></g><g transform="translate(10,5) scale(1,1)"><path fill="#ffffff" stroke="none" d="M 45.57090909090909 47.3 C 45.57090909090909 43.82060576 48.44931081309091 41 52 41 C 55.55068918690909 41 58.42909090909091 43.82060576 58.42909090909091 47.3 C 58.42909090909091 50.779394239999995 55.55068918690909 53.6 52 53.6 C 48.44931081309091 53.6 45.57090909090909 50.779394239999995 45.57090909090909 47.3 Z"/></g><g transform="translate(10,5) scale(1,1)"><path fill="none" stroke="#000000" d="M 45.57090909090909 47.3 C 45.57090909090909 43.82060576 48.44931081309091 41 52 41 C 55.55068918690909 41 58.42909090909091 43.82060576 58.42909090909091 47.3 C 58.42909090909091 50.779394239999995 55.55068918690909 53.6 52 53.6 C 48.44931081309091 53.6 45.57090909090909 50.779394239999995 45.57090909090909 47.3 Z" stroke-miterlimit="10"/></g><g transform="translate(10,5) scale(1,1)"><path fill="none" stroke="#000000" d="M 52 53.6 L 52 66.4" stroke-miterlimit="10"/></g><g transform="translate(10,5) scale(1,1)"><path fill="none" stroke="#000000" d="M 45.192727272727275 58.4 L 58.807272727272725 58.4" stroke-miterlimit="10"/></g><g transform="translate(10,5) scale(1,1)"><path fill="none" stroke="#000000" d="M 52 66.4 L 42.54545454545455 79" stroke-miterlimit="10"/></g><g transform="translate(10,5) scale(1,1)"><path fill="none" stroke="#000000" d="M 52 66.4 L 61.45454545454545 79" stroke-miterlimit="10"/></g><g transform="translate(10,5) scale(1,1)"><g><path fill="none" stroke="none"/><text fill="#000000" stroke="none" font-family="Arial" font-size="13px" font-style="normal" font-weight="bold" text-decoration="none" x="21.5" y="99.5">: WebUser</text></g></g><g transform="translate(10,5) scale(1,1)"><path fill="none" stroke="#000000" d="M 53.5 105 L 53.5 544" stroke-miterlimit="10" stroke-dasharray="3"/></g><g transform="translate(10,5) scale(1,1)"><rect fill="#C0C0C0" stroke="none" x="607" y="47" width="115" height="39" opacity="0.2"/></g><g transform="translate(10,5) scale(1,1)"><rect fill="#ffffff" stroke="none" x="600" y="40" width="115" height="39"/></g><g transform="translate(10,5) scale(1,1)"><path fill="none" stroke="#000000" d="M 600 40 L 715 40 L 715 79 L 600 79 L 600 40 Z Z" stroke-miterlimit="10"/></g><g transform="translate(10,5) scale(1,1)"><g><path fill="none" stroke="none"/><text fill="#000000" stroke="none" font-family="Arial" font-size="13px" font-style="normal" font-weight="bold" text-decoration="none" x="616" y="59.5">: SessionDAO</text></g></g><g transform="translate(10,5) scale(1,1)"><path fill="none" stroke="#000000" d="M 658.5 80 L 658.5 544" stroke-miterlimit="10" stroke-dasharray="3"/></g><g transform="translate(10,5) scale(1,1)"><path fill="#ffffff" stroke="none" d="M 508 360 C 508 351.1634432 515.1634432 344 524 344 C 532.8365568 344 540 351.1634432 540 360 C 540 368.8365568 532.8365568 376 524 376 C 515.1634432 376 508 368.8365568 508 360 Z"/></g><g transform="translate(10,5) scale(1,1)"><path fill="none" stroke="#000000" d="M 508 360 C 508 351.1634432 515.1634432 344 524 344 C 532.8365568 344 540 351.1634432 540 360 C 540 368.8365568 532.8365568 376 524 376 C 515.1634432 376 508 368.8365568 508 360 Z" stroke-miterlimit="10"/></g><g transform="translate(10,5) scale(1,1)"><path fill="none" stroke="#000000" d="M 508 376 L 540 376" stroke-miterlimit="10"/></g><g transform="translate(10,5) scale(1,1)"><g><path fill="none" stroke="none"/><text fill="#000000" stroke="none" font-family="Arial" font-size="13px" font-style="normal" font-weight="bold" text-decoration="none" x="496.5" y="399.5">: Session</text></g></g><g transform="translate(10,5) scale(1,1)"><path fill="none" stroke="#000000" d="M 525.5 405 L 525.5 544" stroke-miterlimit="10" stroke-dasharray="3"/></g><g transform="translate(10,5) scale(1,1)"><path fill="none" stroke="#000000" d="M 472 304 L 688 304 L 688 416 L 472 416 L 472 304" stroke-miterlimit="10"/></g><g transform="translate(10,5) scale(1,1)"><path fill="#ffffff" stroke="none" d="M 472 304 L 472 326 L 512 326 L 523 315 L 523 304 L 472 304"/></g><g transform="translate(10,5) scale(1,1)"><path fill="none" stroke="#000000" d="M 472 304 L 472 326 L 512 326 L 523 315 L 523 304 L 472 304 L 472 304" stroke-miterlimit="10"/></g><g transform="translate(10,5) scale(1,1)"><g><path fill="none" stroke="none"/><text fill="#000000" stroke="none" font-family="Arial" font-size="13px" font-style="normal" font-weight="bold" text-decoration="none" x="477" y="321.5">loop</text></g></g><g transform="translate(10,5) scale(1,1)"><path fill="#ffffff" stroke="none" d="M 225.5 60 C 225.5 51.1634432 232.6634432 44 241.5 44 C 250.3365568 44 257.5 51.1634432 257.5 60 C 257.5 68.8365568 250.3365568 76 241.5 76 C 232.6634432 76 225.5 68.8365568 225.5 60 Z"/></g><g transform="translate(10,5) scale(1,1)"><path fill="none" stroke="#000000" d="M 225.5 60 C 225.5 51.1634432 232.6634432 44 241.5 44 C 250.3365568 44 257.5 51.1634432 257.5 60 C 257.5 68.8365568 250.3365568 76 241.5 76 C 232.6634432 76 225.5 68.8365568 225.5 60 Z" stroke-miterlimit="10"/></g><g transform="translate(10,5) scale(1,1)"><path fill="none" stroke="#000000" d="M 217.5 44 L 217.5 76" stroke-miterlimit="10"/></g><g transform="translate(10,5) scale(1,1)"><path fill="none" stroke="#000000" d="M 217.5 60 L 225.5 60" stroke-miterlimit="10"/></g><g transform="translate(10,5) scale(1,1)"><g><path fill="none" stroke="none"/><text fill="#000000" stroke="none" font-family="Arial" font-size="13px" font-style="normal" font-weight="bold" text-decoration="none" x="183" y="99.5">: SearchSessionUI</text></g></g><g transform="translate(10,5) scale(1,1)"><path fill="none" stroke="#000000" d="M 238.5 105 L 238.5 544" stroke-miterlimit="10" stroke-dasharray="3"/></g><g transform="translate(10,5) scale(1,1)"><path fill="none" stroke="#000000" d="M 53 128 L 231 128" stroke-miterlimit="10"/></g><g transform="translate(10,5) scale(1,1)"><path fill="#000000" stroke="none" d="M 220.83732514237585 132.209517756016 L 231 128 L 220.83732514237585 123.79048224398402"/></g><g transform="translate(10,5) scale(1,1)"><path fill="none" stroke="#000000" d="M 220.83732514237585 132.209517756016 L 231 128 L 220.83732514237585 123.79048224398402 L 220.83732514237585 132.209517756016" stroke-miterlimit="10"/></g><g transform="translate(10,5) scale(1,1)"><g><path fill="none" stroke="none"/><text fill="#000000" stroke="none" font-family="Arial" font-size="13px" font-style="normal" font-weight="normal" text-decoration="none" x="72.5" y="124.5">1 : displaySearchForm()</text></g></g><g transform="translate(10,5) scale(1,1)"><rect fill="#ffffff" stroke="none" x="231" y="128" width="13" height="28"/></g><g transform="translate(10,5) scale(1,1)"><path fill="none" stroke="#000000" d="M 231 128 L 244 128 L 244 156 L 231 156 L 231 128 Z Z" stroke-miterlimit="10"/></g><g transform="translate(10,5) scale(1,1)"><path fill="none" stroke="#000000" d="M 53 176 L 231 176" stroke-miterlimit="10"/></g><g transform="translate(10,5) scale(1,1)"><path fill="#000000" stroke="none" d="M 220.83732514237585 180.209517756016 L 231 176 L 220.83732514237585 171.790482243984"/></g><g transform="translate(10,5) scale(1,1)"><path fill="none" stroke="#000000" d="M 220.83732514237585 180.209517756016 L 231 176 L 220.83732514237585 171.790482243984 L 220.83732514237585 180.209517756016" stroke-miterlimit="10"/></g><g transform="translate(10,5) scale(1,1)"><g><path fill="none" stroke="none"/><text fill="#000000" stroke="none" font-family="Arial" font-size="13px" font-style="normal" font-weight="normal" text-decoration="none" x="72.5" y="172.5">2 : enterSearchCriteria()</text></g></g><g transform="translate(10,5) scale(1,1)"><rect fill="#ffffff" stroke="none" x="231" y="176" width="13" height="28"/></g><g transform="translate(10,5) scale(1,1)"><path fill="none" stroke="#000000" d="M 231 176 L 244 176 L 244 204 L 231 204 L 231 176 Z Z" stroke-miterlimit="10"/></g><g transform="translate(10,5) scale(1,1)"><path fill="none" stroke="#000000" d="M 53 216 L 231 216" stroke-miterlimit="10"/></g><g transform="translate(10,5) scale(1,1)"><path fill="#000000" stroke="none" d="M 220.83732514237585 220.209517756016 L 231 216 L 220.83732514237585 211.790482243984"/></g><g transform="translate(10,5) scale(1,1)"><path fill="none" stroke="#000000" d="M 220.83732514237585 220.209517756016 L 231 216 L 220.83732514237585 211.790482243984 L 220.83732514237585 220.209517756016" stroke-miterlimit="10"/></g><g transform="translate(10,5) scale(1,1)"><g><path fill="none" stroke="none"/><text fill="#000000" stroke="none" font-family="Arial" font-size="13px" font-style="normal" font-weight="normal" text-decoration="none" x="73.5" y="212.5">3 : submitSearchForm()</text></g></g><g transform="translate(10,5) scale(1,1)"><rect fill="#ffffff" stroke="none" x="231" y="216" width="13" height="28"/></g><g transform="translate(10,5) scale(1,1)"><path fill="none" stroke="#000000" d="M 231 216 L 244 216 L 244 244 L 231 244 L 231 216 Z Z" stroke-miterlimit="10"/></g><g transform="translate(10,5) scale(1,1)"><path fill="none" stroke="#000000" d="M 238 256 L 424 256" stroke-miterlimit="10"/></g><g transform="translate(10,5) scale(1,1)"><path fill="#000000" stroke="none" d="M 413.83732514237585 260.209517756016 L 424 256 L 413.83732514237585 251.790482243984"/></g><g transform="translate(10,5) scale(1,1)"><path fill="none" stroke="#000000" d="M 413.83732514237585 260.209517756016 L 424 256 L 413.83732514237585 251.790482243984 L 413.83732514237585 260.209517756016" stroke-miterlimit="10"/></g><g transform="translate(10,5) scale(1,1)"><g><path fill="none" stroke="none"/><text fill="#000000" stroke="none" font-family="Arial" font-size="13px" font-style="normal" font-weight="normal" text-decoration="none" x="281" y="252.5">4 : getSessions()</text></g></g><g transform="translate(10,5) scale(1,1)"><rect fill="#ffffff" stroke="none" x="424" y="256" width="13" height="216"/></g><g transform="translate(10,5) scale(1,1)"><path fill="none" stroke="#000000" d="M 424 256 L 437 256 L 437 472 L 424 472 L 424 256 Z Z" stroke-miterlimit="10"/></g><g transform="translate(10,5) scale(1,1)"><path fill="none" stroke="#000000" d="M 437 272 L 651 272" stroke-miterlimit="10"/></g><g transform="translate(10,5) scale(1,1)"><path fill="#000000" stroke="none" d="M 640.8373251423759 276.209517756016 L 651 272 L 640.8373251423758 267.790482243984"/></g><g transform="translate(10,5) scale(1,1)"><path fill="none" stroke="#000000" d="M 640.8373251423759 276.209517756016 L 651 272 L 640.8373251423758 267.790482243984 L 640.8373251423759 276.209517756016" stroke-miterlimit="10"/></g><g transform="translate(10,5) scale(1,1)"><g><path fill="none" stroke="none"/><text fill="#000000" stroke="none" font-family="Arial" font-size="13px" font-style="normal" font-weight="normal" text-decoration="none" x="491" y="268.5">5 : findByCriteria()</text></g></g><g transform="translate(10,5) scale(1,1)"><rect fill="#ffffff" stroke="none" x="651" y="272" width="13" height="184"/></g><g transform="translate(10,5) scale(1,1)"><path fill="none" stroke="#000000" d="M 651 272 L 664 272 L 664 456 L 651 456 L 651 272 Z Z" stroke-miterlimit="10"/></g><g transform="translate(10,5) scale(1,1)"><path fill="none" stroke="#000000" d="M 651 360 L 525 360" stroke-miterlimit="10" stroke-dasharray="3"/></g><g transform="translate(10,5) scale(1,1)"><path fill="none" stroke="#000000" d="M 535.1626748576241 355.790482243984 L 525 360 L 535.1626748576241 364.209517756016" stroke-miterlimit="10"/></g><g transform="translate(10,5) scale(1,1)"><g><path fill="none" stroke="none"/><text fill="#000000" stroke="none" font-family="Arial" font-size="13px" font-style="normal" font-weight="normal" text-decoration="none" x="565.5" y="376.5">6 : new</text></g></g><g transform="translate(10,5) scale(1,1)"><g><path fill="none" stroke="none"/><text fill="#000000" stroke="none" font-family="Arial" font-size="13px" font-style="normal" font-weight="normal" text-decoration="none" x="561.5" y="391.5">«create»</text></g></g><g transform="translate(10,5) scale(1,1)"><path fill="none" stroke="#000000" d="M 651 448 L 437 448" stroke-miterlimit="10" stroke-dasharray="3"/></g><g transform="translate(10,5) scale(1,1)"><path fill="none" stroke="#000000" d="M 447.16267485762415 443.790482243984 L 437 448 L 447.16267485762415 452.209517756016" stroke-miterlimit="10"/></g><g transform="translate(10,5) scale(1,1)"><g><path fill="none" stroke="none"/><text fill="#000000" stroke="none" font-family="Arial" font-size="13px" font-style="normal" font-weight="normal" text-decoration="none" x="507.5" y="464.5">7 : sessions</text></g></g><g transform="translate(10,5) scale(1,1)"><path fill="none" stroke="#000000" d="M 424 456 L 238 456" stroke-miterlimit="10" stroke-dasharray="3"/></g><g transform="translate(10,5) scale(1,1)"><path fill="none" stroke="#000000" d="M 248.16267485762415 451.790482243984 L 238 456 L 248.16267485762415 460.209517756016" stroke-miterlimit="10"/></g><g transform="translate(10,5) scale(1,1)"><g><path fill="none" stroke="none"/><text fill="#000000" stroke="none" font-family="Arial" font-size="13px" font-style="normal" font-weight="normal" text-decoration="none" x="294.5" y="472.5">8 : sessions</text></g></g><g transform="translate(10,5) scale(1,1)"><path fill="none" stroke="#000000" d="M 238 488 L 268 488 L 268 508 L 244 508" stroke-miterlimit="10"/></g><g transform="translate(10,5) scale(1,1)"><path fill="#000000" stroke="none" d="M 254.16267485762415 503.790482243984 L 244 508 L 254.16267485762415 512.209517756016"/></g><g transform="translate(10,5) scale(1,1)"><path fill="none" stroke="#000000" d="M 254.16267485762415 503.790482243984 L 244 508 L 254.16267485762415 512.209517756016 L 254.16267485762415 503.790482243984" stroke-miterlimit="10"/></g><g transform="translate(10,5) scale(1,1)"><g><path fill="none" stroke="none"/><text fill="#000000" stroke="none" font-family="Arial" font-size="13px" font-style="normal" font-weight="normal" text-decoration="none" x="220.5" y="503.5">9 : displayResults()</text></g></g><g transform="translate(10,5) scale(1,1)"><rect fill="#ffffff" stroke="none" x="231" y="508" width="13" height="28"/></g><g transform="translate(10,5) scale(1,1)"><path fill="none" stroke="#000000" d="M 231 508 L 244 508 L 244 536 L 231 536 L 231 508 Z Z" stroke-miterlimit="10"/></g></g></svg>