<svg version="1.1" xmlns="http://www.w3.org/2000/svg" xmlns:xlink="http://www.w3.org/1999/xlink" width="2031" height="791"><defs/><g><g transform="translate(5,5) scale(1,1)"><path fill="none" stroke="#000000" d="M 5 5 L 2016 5 L 2016 776 L 5 776 L 5 5" stroke-miterlimit="10"/></g><g transform="translate(5,5) scale(1,1)"><path fill="#ffffff" stroke="none" d="M 5 5 L 5 27 L 179 27 L 190 16 L 190 5 L 5 5"/></g><g transform="translate(5,5) scale(1,1)"><path fill="none" stroke="#000000" d="M 5 5 L 5 27 L 179 27 L 190 16 L 190 5 L 5 5 L 5 5" stroke-miterlimit="10"/></g><g transform="translate(5,5) scale(1,1)"><g><path fill="none" stroke="none"/><text fill="#000000" stroke="none" font-family="Arial" font-size="13px" font-style="normal" font-weight="normal" text-decoration="none" x="76" y="22.5">Create a session</text></g></g><g transform="translate(5,5) scale(1,1)"><g><path fill="none" stroke="none"/><text fill="#000000" stroke="none" font-family="Arial" font-size="13px" font-style="normal" font-weight="bold" text-decoration="none" x="10" y="22.5">interaction</text></g></g><g transform="translate(5,5) scale(1,1)"><path fill="#ffffff" stroke="none" d="M 844.5 60 C 844.5 51.1634432 851.6634432 44 860.5 44 C 869.3365568 44 876.5 51.1634432 876.5 60 C 876.5 68.8365568 869.3365568 76 860.5 76 C 851.6634432 76 844.5 68.8365568 844.5 60 Z"/></g><g transform="translate(5,5) scale(1,1)"><path fill="none" stroke="#000000" d="M 844.5 60 C 844.5 51.1634432 851.6634432 44 860.5 44 C 869.3365568 44 876.5 51.1634432 876.5 60 C 876.5 68.8365568 869.3365568 76 860.5 76 C 851.6634432 76 844.5 68.8365568 844.5 60 Z" stroke-miterlimit="10"/></g><g transform="translate(5,5) scale(1,1)"><path fill="none" stroke="#000000" d="M 836.5 44 L 836.5 76" stroke-miterlimit="10"/></g><g transform="translate(5,5) scale(1,1)"><path fill="none" stroke="#000000" d="M 836.5 60 L 844.5 60" stroke-miterlimit="10"/></g><g transform="translate(5,5) scale(1,1)"><g><path fill="none" stroke="none"/><text fill="#000000" stroke="none" font-family="Arial" font-size="13px" font-style="normal" font-weight="bold" text-decoration="none" x="801.5" y="99.5">: SessionController</text></g></g><g transform="translate(5,5) scale(1,1)"><path fill="none" stroke="#000000" d="M 857.5 105 L 857.5 768" stroke-miterlimit="10" stroke-dasharray="3"/></g><g transform="translate(5,5) scale(1,1)"><rect fill="#C0C0C0" stroke="none" x="23" y="47" width="170" height="39" opacity="0.2"/></g><g transform="translate(5,5) scale(1,1)"><rect fill="#ffffff" stroke="none" x="16" y="40" width="170" height="39"/></g><g transform="translate(5,5) scale(1,1)"><path fill="none" stroke="#000000" d="M 16 40 L 186 40 L 186 79 L 16 79 L 16 40 Z Z" stroke-miterlimit="10"/></g><g transform="translate(5,5) scale(1,1)"><g><path fill="none" stroke="none"/><text fill="#000000" stroke="none" font-family="Arial" font-size="13px" font-style="normal" font-weight="normal" text-decoration="none" x="43" y="57.5">«React component»</text></g></g><g transform="translate(5,5) scale(1,1)"><g><path fill="none" stroke="none"/><text fill="#000000" stroke="none" font-family="Arial" font-size="13px" font-style="normal" font-weight="bold" text-decoration="none" x="31" y="72.5">: SessionFormContainer</text></g></g><g transform="translate(5,5) scale(1,1)"><path fill="none" stroke="#000000" d="M 102.5 80 L 102.5 774" stroke-miterlimit="10" stroke-dasharray="3"/></g><g transform="translate(5,5) scale(1,1)"><rect fill="#C0C0C0" stroke="none" x="239" y="47" width="135" height="39" opacity="0.2"/></g><g transform="translate(5,5) scale(1,1)"><rect fill="#ffffff" stroke="none" x="232" y="40" width="135" height="39"/></g><g transform="translate(5,5) scale(1,1)"><path fill="none" stroke="#000000" d="M 232 40 L 367 40 L 367 79 L 232 79 L 232 40 Z Z" stroke-miterlimit="10"/></g><g transform="translate(5,5) scale(1,1)"><g><path fill="none" stroke="none"/><text fill="#000000" stroke="none" font-family="Arial" font-size="13px" font-style="normal" font-weight="normal" text-decoration="none" x="241.5" y="57.5">«React component»</text></g></g><g transform="translate(5,5) scale(1,1)"><g><path fill="none" stroke="none"/><text fill="#000000" stroke="none" font-family="Arial" font-size="13px" font-style="normal" font-weight="bold" text-decoration="none" x="257" y="72.5">: SessionForm</text></g></g><g transform="translate(5,5) scale(1,1)"><path fill="none" stroke="#000000" d="M 300.5 80 L 300.5 774" stroke-miterlimit="10" stroke-dasharray="3"/></g><g transform="translate(5,5) scale(1,1)"><path fill="#ffffff" stroke="none" d="M 1068.5 60 C 1068.5 51.715728 1075.215728 45 1083.5 45 C 1091.784272 45 1098.5 51.715728 1098.5 60 C 1098.5 68.284272 1091.784272 75 1083.5 75 C 1075.215728 75 1068.5 68.284272 1068.5 60 Z"/></g><g transform="translate(5,5) scale(1,1)"><path fill="none" stroke="#000000" d="M 1068.5 60 C 1068.5 51.715728 1075.215728 45 1083.5 45 C 1091.784272 45 1098.5 51.715728 1098.5 60 C 1098.5 68.284272 1091.784272 75 1083.5 75 C 1075.215728 75 1068.5 68.284272 1068.5 60 Z" stroke-miterlimit="10"/></g><g transform="translate(5,5) scale(1,1)"><path fill="none" stroke="#000000" d="M 1083.5 45 L 1088.5 40" stroke-miterlimit="10"/></g><g transform="translate(5,5) scale(1,1)"><path fill="none" stroke="#000000" d="M 1083.5 45 L 1088.5 50" stroke-miterlimit="10"/></g><g transform="translate(5,5) scale(1,1)"><g><path fill="none" stroke="none"/><text fill="#000000" stroke="none" font-family="Arial" font-size="13px" font-style="normal" font-weight="bold" text-decoration="none" x="1010" y="99.5">: SessionCreationHandler</text></g></g><g transform="translate(5,5) scale(1,1)"><path fill="none" stroke="#000000" d="M 1084.5 105 L 1084.5 768" stroke-miterlimit="10" stroke-dasharray="3"/></g><g transform="translate(5,5) scale(1,1)"><path fill="#ffffff" stroke="none" d="M 1665.5 60 C 1665.5 51.715728 1672.215728 45 1680.5 45 C 1688.784272 45 1695.5 51.715728 1695.5 60 C 1695.5 68.284272 1688.784272 75 1680.5 75 C 1672.215728 75 1665.5 68.284272 1665.5 60 Z"/></g><g transform="translate(5,5) scale(1,1)"><path fill="none" stroke="#000000" d="M 1665.5 60 C 1665.5 51.715728 1672.215728 45 1680.5 45 C 1688.784272 45 1695.5 51.715728 1695.5 60 C 1695.5 68.284272 1688.784272 75 1680.5 75 C 1672.215728 75 1665.5 68.284272 1665.5 60 Z" stroke-miterlimit="10"/></g><g transform="translate(5,5) scale(1,1)"><path fill="none" stroke="#000000" d="M 1680.5 45 L 1685.5 40" stroke-miterlimit="10"/></g><g transform="translate(5,5) scale(1,1)"><path fill="none" stroke="#000000" d="M 1680.5 45 L 1685.5 50" stroke-miterlimit="10"/></g><g transform="translate(5,5) scale(1,1)"><g><path fill="none" stroke="none"/><text fill="#000000" stroke="none" font-family="Arial" font-size="13px" font-style="normal" font-weight="bold" text-decoration="none" x="1631" y="99.5">: SessionFactory</text></g></g><g transform="translate(5,5) scale(1,1)"><path fill="none" stroke="#000000" d="M 1681.5 105 L 1681.5 768" stroke-miterlimit="10" stroke-dasharray="3"/></g><g transform="translate(5,5) scale(1,1)"><rect fill="#C0C0C0" stroke="none" x="1895" y="47" width="116" height="39" opacity="0.2"/></g><g transform="translate(5,5) scale(1,1)"><rect fill="#ffffff" stroke="none" x="1888" y="40" width="116" height="39"/></g><g transform="translate(5,5) scale(1,1)"><path fill="none" stroke="#000000" d="M 1888 40 L 2004 40 L 2004 79 L 1888 79 L 1888 40 Z Z" stroke-miterlimit="10"/></g><g transform="translate(5,5) scale(1,1)"><g><path fill="none" stroke="none"/><text fill="#000000" stroke="none" font-family="Arial" font-size="13px" font-style="normal" font-weight="normal" text-decoration="none" x="1915" y="57.5">«lifecycle»</text></g></g><g transform="translate(5,5) scale(1,1)"><g><path fill="none" stroke="none"/><text fill="#000000" stroke="none" font-family="Arial" font-size="13px" font-style="normal" font-weight="bold" text-decoration="none" x="1900" y="72.5">: EntityManager</text></g></g><g transform="translate(5,5) scale(1,1)"><path fill="none" stroke="#000000" d="M 1947.5 80 L 1947.5 768" stroke-miterlimit="10" stroke-dasharray="3"/></g><g transform="translate(5,5) scale(1,1)"><rect fill="#C0C0C0" stroke="none" x="1207" y="363" width="139" height="39" opacity="0.2"/></g><g transform="translate(5,5) scale(1,1)"><rect fill="#ffffff" stroke="none" x="1200" y="356" width="139" height="39"/></g><g transform="translate(5,5) scale(1,1)"><path fill="none" stroke="#000000" d="M 1200 356 L 1339 356 L 1339 395 L 1200 395 L 1200 356 Z Z" stroke-miterlimit="10"/></g><g transform="translate(5,5) scale(1,1)"><g><path fill="none" stroke="none"/><text fill="#000000" stroke="none" font-family="Arial" font-size="13px" font-style="normal" font-weight="bold" text-decoration="none" x="1214" y="375.5">form: SessionForm</text></g></g><g transform="translate(5,5) scale(1,1)"><path fill="none" stroke="#000000" d="M 1270.5 396 L 1270.5 768" stroke-miterlimit="10" stroke-dasharray="3"/></g><g transform="translate(5,5) scale(1,1)"><path fill="#ffffff" stroke="none" d="M 1852 488 C 1852 479.1634432 1859.1634432 472 1868 472 C 1876.8365568 472 1884 479.1634432 1884 488 C 1884 496.8365568 1876.8365568 504 1868 504 C 1859.1634432 504 1852 496.8365568 1852 488 Z"/></g><g transform="translate(5,5) scale(1,1)"><path fill="none" stroke="#000000" d="M 1852 488 C 1852 479.1634432 1859.1634432 472 1868 472 C 1876.8365568 472 1884 479.1634432 1884 488 C 1884 496.8365568 1876.8365568 504 1868 504 C 1859.1634432 504 1852 496.8365568 1852 488 Z" stroke-miterlimit="10"/></g><g transform="translate(5,5) scale(1,1)"><path fill="none" stroke="#000000" d="M 1852 504 L 1884 504" stroke-miterlimit="10"/></g><g transform="translate(5,5) scale(1,1)"><g><path fill="none" stroke="none"/><text fill="#000000" stroke="none" font-family="Arial" font-size="13px" font-style="normal" font-weight="bold" text-decoration="none" x="1818" y="527.5">session: Session</text></g></g><g transform="translate(5,5) scale(1,1)"><path fill="none" stroke="#000000" d="M 1869.5 533 L 1869.5 768" stroke-miterlimit="10" stroke-dasharray="3"/></g><g transform="translate(5,5) scale(1,1)"><rect fill="#C0C0C0" stroke="none" x="1367" y="255" width="124" height="39" opacity="0.2"/></g><g transform="translate(5,5) scale(1,1)"><rect fill="#ffffff" stroke="none" x="1360" y="248" width="124" height="39"/></g><g transform="translate(5,5) scale(1,1)"><path fill="none" stroke="#000000" d="M 1360 248 L 1484 248 L 1484 287 L 1360 287 L 1360 248 Z Z" stroke-miterlimit="10"/></g><g transform="translate(5,5) scale(1,1)"><g><path fill="none" stroke="none"/><text fill="#000000" stroke="none" font-family="Arial" font-size="13px" font-style="normal" font-weight="bold" text-decoration="none" x="1372" y="267.5">dto: SessionDTO</text></g></g><g transform="translate(5,5) scale(1,1)"><path fill="none" stroke="#000000" d="M 1423.5 288 L 1423.5 768" stroke-miterlimit="10" stroke-dasharray="3"/></g><g transform="translate(5,5) scale(1,1)"><path fill="#ffffff" stroke="none" d="M 432.5 60 C 432.5 51.1634432 439.6634432 44 448.5 44 C 457.3365568 44 464.5 51.1634432 464.5 60 C 464.5 68.8365568 457.3365568 76 448.5 76 C 439.6634432 76 432.5 68.8365568 432.5 60 Z"/></g><g transform="translate(5,5) scale(1,1)"><path fill="none" stroke="#000000" d="M 432.5 60 C 432.5 51.1634432 439.6634432 44 448.5 44 C 457.3365568 44 464.5 51.1634432 464.5 60 C 464.5 68.8365568 457.3365568 76 448.5 76 C 439.6634432 76 432.5 68.8365568 432.5 60 Z" stroke-miterlimit="10"/></g><g transform="translate(5,5) scale(1,1)"><path fill="none" stroke="#000000" d="M 424.5 44 L 424.5 76" stroke-miterlimit="10"/></g><g transform="translate(5,5) scale(1,1)"><path fill="none" stroke="#000000" d="M 424.5 60 L 432.5 60" stroke-miterlimit="10"/></g><g transform="translate(5,5) scale(1,1)"><g><path fill="none" stroke="none"/><text fill="#000000" stroke="none" font-family="Arial" font-size="13px" font-style="normal" font-weight="bold" text-decoration="none" x="406" y="99.5">: SessionAPI</text></g></g><g transform="translate(5,5) scale(1,1)"><path fill="none" stroke="#000000" d="M 445.5 105 L 445.5 768" stroke-miterlimit="10" stroke-dasharray="3"/></g><g transform="translate(5,5) scale(1,1)"><path fill="#000000" stroke="none" d="M 600 247.5 C 600 243.6340064 603.1340064 240.5 607 240.5 C 610.8659936 240.5 614 243.6340064 614 247.5 C 614 251.3659936 610.8659936 254.5 607 254.5 C 603.1340064 254.5 600 251.3659936 600 247.5 Z"/></g><g transform="translate(5,5) scale(1,1)"><path fill="#000000" stroke="none" d="M 576 247.5 C 576 243.6340064 579.1340064 240.5 583 240.5 C 586.8659936 240.5 590 243.6340064 590 247.5 C 590 251.3659936 586.8659936 254.5 583 254.5 C 579.1340064 254.5 576 251.3659936 576 247.5 Z"/></g><g transform="translate(5,5) scale(1,1)"><path fill="#ffffff" stroke="none" d="M 1529.5 60 C 1529.5 51.715728 1536.215728 45 1544.5 45 C 1552.784272 45 1559.5 51.715728 1559.5 60 C 1559.5 68.284272 1552.784272 75 1544.5 75 C 1536.215728 75 1529.5 68.284272 1529.5 60 Z"/></g><g transform="translate(5,5) scale(1,1)"><path fill="none" stroke="#000000" d="M 1529.5 60 C 1529.5 51.715728 1536.215728 45 1544.5 45 C 1552.784272 45 1559.5 51.715728 1559.5 60 C 1559.5 68.284272 1552.784272 75 1544.5 75 C 1536.215728 75 1529.5 68.284272 1529.5 60 Z" stroke-miterlimit="10"/></g><g transform="translate(5,5) scale(1,1)"><path fill="none" stroke="#000000" d="M 1544.5 45 L 1549.5 40" stroke-miterlimit="10"/></g><g transform="translate(5,5) scale(1,1)"><path fill="none" stroke="#000000" d="M 1544.5 45 L 1549.5 50" stroke-miterlimit="10"/></g><g transform="translate(5,5) scale(1,1)"><g><path fill="none" stroke="none"/><text fill="#000000" stroke="none" font-family="Arial" font-size="13px" font-style="normal" font-weight="bold" text-decoration="none" x="1513.5" y="99.5">: Serializer</text></g></g><g transform="translate(5,5) scale(1,1)"><path fill="none" stroke="#000000" d="M 1545.5 105 L 1545.5 768" stroke-miterlimit="10" stroke-dasharray="3"/></g><g transform="translate(5,5) scale(1,1)"><path fill="#000000" stroke="none" d="M 144 167.5 C 144 163.6340064 147.1340064 160.5 151 160.5 C 154.8659936 160.5 158 163.6340064 158 167.5 C 158 171.3659936 154.8659936 174.5 151 174.5 C 147.1340064 174.5 144 171.3659936 144 167.5 Z"/></g><g transform="translate(5,5) scale(1,1)"><path fill="#000000" stroke="none" d="M 16 215.5 C 16 211.6340064 19.1340064 208.5 23 208.5 C 26.8659936 208.5 30 211.6340064 30 215.5 C 30 219.3659936 26.8659936 222.5 23 222.5 C 19.1340064 222.5 16 219.3659936 16 215.5 Z"/></g><g transform="translate(5,5) scale(1,1)"><path fill="#ffffff" stroke="none" d="M 320 168 L 637 168 L 647 178 L 647 199 L 320 199 L 320 168"/></g><g transform="translate(5,5) scale(1,1)"><path fill="none" stroke="#000000" d="M 320 168 L 637 168 L 647 178 L 647 199 L 320 199 L 320 168 L 320 168" stroke-miterlimit="10"/></g><g transform="translate(5,5) scale(1,1)"><path fill="none" stroke="#000000" d="M 637 168 L 637 178 L 647 178 L 637 168" stroke-miterlimit="10"/></g><g transform="translate(5,5) scale(1,1)"><g><path fill="none" stroke="none"/><text fill="#000000" stroke="none" font-family="Arial" font-size="13px" font-style="normal" font-weight="normal" text-decoration="none" x="325" y="186">this.props.handleSessionSubmit({session: session})</text></g></g><g transform="translate(5,5) scale(1,1)"><path fill="none" stroke="#000000" d="M 158 168 L 293 168" stroke-miterlimit="10"/></g><g transform="translate(5,5) scale(1,1)"><path fill="#000000" stroke="none" d="M 282.83732514237585 172.209517756016 L 293 168 L 282.83732514237585 163.790482243984"/></g><g transform="translate(5,5) scale(1,1)"><path fill="none" stroke="#000000" d="M 282.83732514237585 172.209517756016 L 293 168 L 282.83732514237585 163.790482243984 L 282.83732514237585 172.209517756016" stroke-miterlimit="10"/></g><g transform="translate(5,5) scale(1,1)"><g><path fill="none" stroke="none"/><text fill="#000000" stroke="none" font-family="Arial" font-size="13px" font-style="normal" font-weight="normal" text-decoration="none" x="166.5" y="164.5">2 : handleSubmit(event: Event)</text></g></g><g transform="translate(5,5) scale(1,1)"><rect fill="#ffffff" stroke="none" x="293" y="168" width="13" height="28"/></g><g transform="translate(5,5) scale(1,1)"><path fill="none" stroke="#000000" d="M 293 168 L 306 168 L 306 196 L 293 196 L 293 168 Z Z" stroke-miterlimit="10"/></g><g transform="translate(5,5) scale(1,1)"><path fill="none" stroke="#000000" d="M 30 216 L 95 216" stroke-miterlimit="10"/></g><g transform="translate(5,5) scale(1,1)"><path fill="#000000" stroke="none" d="M 84.83732514237585 220.209517756016 L 95 216 L 84.83732514237585 211.790482243984"/></g><g transform="translate(5,5) scale(1,1)"><path fill="none" stroke="#000000" d="M 84.83732514237585 220.209517756016 L 95 216 L 84.83732514237585 211.790482243984 L 84.83732514237585 220.209517756016" stroke-miterlimit="10"/></g><g transform="translate(5,5) scale(1,1)"><g><path fill="none" stroke="none"/><text fill="#000000" stroke="none" font-family="Arial" font-size="13px" font-style="normal" font-weight="normal" text-decoration="none" x="30.5" y="212.5">3 : handleSessionSubmit(session: json)</text></g></g><g transform="translate(5,5) scale(1,1)"><rect fill="#ffffff" stroke="none" x="95" y="216" width="13" height="536"/></g><g transform="translate(5,5) scale(1,1)"><path fill="none" stroke="#000000" d="M 95 216 L 108 216 L 108 752 L 95 752 L 95 216 Z Z" stroke-miterlimit="10"/></g><g transform="translate(5,5) scale(1,1)"><path fill="none" stroke="#000000" d="M 108 240 L 438 240" stroke-miterlimit="10"/></g><g transform="translate(5,5) scale(1,1)"><path fill="#000000" stroke="none" d="M 427.83732514237585 244.209517756016 L 438 240 L 427.83732514237585 235.790482243984"/></g><g transform="translate(5,5) scale(1,1)"><path fill="none" stroke="#000000" d="M 427.83732514237585 244.209517756016 L 438 240 L 427.83732514237585 235.790482243984 L 427.83732514237585 244.209517756016" stroke-miterlimit="10"/></g><g transform="translate(5,5) scale(1,1)"><g><path fill="none" stroke="none"/><text fill="#000000" stroke="none" font-family="Arial" font-size="13px" font-style="normal" font-weight="normal" text-decoration="none" x="194.5" y="236.5">4 : postSession(data: json)</text></g></g><g transform="translate(5,5) scale(1,1)"><rect fill="#ffffff" stroke="none" x="438" y="240" width="13" height="504"/></g><g transform="translate(5,5) scale(1,1)"><path fill="none" stroke="#000000" d="M 438 240 L 451 240 L 451 744 L 438 744 L 438 240 Z Z" stroke-miterlimit="10"/></g><g transform="translate(5,5) scale(1,1)"><path fill="none" stroke="#000000" d="M 451 248 L 576 248" stroke-miterlimit="10"/></g><g transform="translate(5,5) scale(1,1)"><path fill="#000000" stroke="none" d="M 565.8373251423759 252.209517756016 L 576 248 L 565.8373251423758 243.790482243984"/></g><g transform="translate(5,5) scale(1,1)"><path fill="none" stroke="#000000" d="M 565.8373251423759 252.209517756016 L 576 248 L 565.8373251423758 243.790482243984 L 565.8373251423759 252.209517756016" stroke-miterlimit="10"/></g><g transform="translate(5,5) scale(1,1)"><g><path fill="none" stroke="none"/><text fill="#000000" stroke="none" font-family="Arial" font-size="13px" font-style="normal" font-weight="normal" text-decoration="none" x="462" y="244.5">5 : POST request</text></g></g><g transform="translate(5,5) scale(1,1)"><path fill="none" stroke="#000000" d="M 614 248 L 850 248" stroke-miterlimit="10"/></g><g transform="translate(5,5) scale(1,1)"><path fill="#000000" stroke="none" d="M 839.8373251423759 252.209517756016 L 850 248 L 839.8373251423758 243.790482243984"/></g><g transform="translate(5,5) scale(1,1)"><path fill="none" stroke="#000000" d="M 839.8373251423759 252.209517756016 L 850 248 L 839.8373251423758 243.790482243984 L 839.8373251423759 252.209517756016" stroke-miterlimit="10"/></g><g transform="translate(5,5) scale(1,1)"><g><path fill="none" stroke="none"/><text fill="#000000" stroke="none" font-family="Arial" font-size="13px" font-style="normal" font-weight="normal" text-decoration="none" x="614.5" y="244.5">6 : postSessionAction(request: Request)</text></g></g><g transform="translate(5,5) scale(1,1)"><rect fill="#ffffff" stroke="none" x="850" y="248" width="13" height="488"/></g><g transform="translate(5,5) scale(1,1)"><path fill="none" stroke="#000000" d="M 850 248 L 863 248 L 863 736 L 850 736 L 850 248 Z Z" stroke-miterlimit="10"/></g><g transform="translate(5,5) scale(1,1)"><path fill="none" stroke="#000000" d="M 863 256 L 1077 256" stroke-miterlimit="10"/></g><g transform="translate(5,5) scale(1,1)"><path fill="#000000" stroke="none" d="M 1066.837325142376 260.209517756016 L 1077 256 L 1066.837325142376 251.790482243984"/></g><g transform="translate(5,5) scale(1,1)"><path fill="none" stroke="#000000" d="M 1066.837325142376 260.209517756016 L 1077 256 L 1066.837325142376 251.790482243984 L 1066.837325142376 260.209517756016" stroke-miterlimit="10"/></g><g transform="translate(5,5) scale(1,1)"><g><path fill="none" stroke="none"/><text fill="#000000" stroke="none" font-family="Arial" font-size="13px" font-style="normal" font-weight="normal" text-decoration="none" x="943" y="252.5">7 : start()</text></g></g><g transform="translate(5,5) scale(1,1)"><rect fill="#ffffff" stroke="none" x="1077" y="256" width="13" height="72"/></g><g transform="translate(5,5) scale(1,1)"><path fill="none" stroke="#000000" d="M 1077 256 L 1090 256 L 1090 328 L 1077 328 L 1077 256 Z Z" stroke-miterlimit="10"/></g><g transform="translate(5,5) scale(1,1)"><path fill="none" stroke="#000000" d="M 1090 268 L 1360 268" stroke-miterlimit="10" stroke-dasharray="3"/></g><g transform="translate(5,5) scale(1,1)"><path fill="none" stroke="#000000" d="M 1349.837325142376 272.209517756016 L 1360 268 L 1349.837325142376 263.790482243984" stroke-miterlimit="10"/></g><g transform="translate(5,5) scale(1,1)"><g><path fill="none" stroke="none"/><text fill="#000000" stroke="none" font-family="Arial" font-size="13px" font-style="normal" font-weight="normal" text-decoration="none" x="1193.5" y="264.5">8 : create()</text></g></g><g transform="translate(5,5) scale(1,1)"><g><path fill="none" stroke="none"/><text fill="#000000" stroke="none" font-family="Arial" font-size="13px" font-style="normal" font-weight="normal" text-decoration="none" x="1199.5" y="249.5">«create»</text></g></g><g transform="translate(5,5) scale(1,1)"><path fill="none" stroke="#000000" d="M 1423 304 L 1090 304" stroke-miterlimit="10" stroke-dasharray="3"/></g><g transform="translate(5,5) scale(1,1)"><path fill="none" stroke="#000000" d="M 1100.162674857624 299.790482243984 L 1090 304 L 1100.162674857624 308.209517756016" stroke-miterlimit="10"/></g><g transform="translate(5,5) scale(1,1)"><g><path fill="none" stroke="none"/><text fill="#000000" stroke="none" font-family="Arial" font-size="13px" font-style="normal" font-weight="normal" text-decoration="none" x="1236" y="320.5">9 : dto</text></g></g><g transform="translate(5,5) scale(1,1)"><path fill="none" stroke="#000000" d="M 300 96 L 330 96 L 330 116 L 306 116" stroke-miterlimit="10"/></g><g transform="translate(5,5) scale(1,1)"><path fill="#000000" stroke="none" d="M 316.16267485762415 111.79048224398402 L 306 116 L 316.16267485762415 120.20951775601598"/></g><g transform="translate(5,5) scale(1,1)"><path fill="none" stroke="#000000" d="M 316.16267485762415 111.79048224398402 L 306 116 L 316.16267485762415 120.20951775601598 L 316.16267485762415 111.79048224398402" stroke-miterlimit="10"/></g><g transform="translate(5,5) scale(1,1)"><g><path fill="none" stroke="none"/><text fill="#000000" stroke="none" font-family="Arial" font-size="13px" font-style="normal" font-weight="normal" text-decoration="none" x="278" y="111.5">1 : handleValidation()</text></g></g><g transform="translate(5,5) scale(1,1)"><rect fill="#ffffff" stroke="none" x="293" y="116" width="13" height="28"/></g><g transform="translate(5,5) scale(1,1)"><path fill="none" stroke="#000000" d="M 293 116 L 306 116 L 306 144 L 293 144 L 293 116 Z Z" stroke-miterlimit="10"/></g><g transform="translate(5,5) scale(1,1)"><path fill="none" stroke="#000000" d="M 1077 320 L 863 320" stroke-miterlimit="10" stroke-dasharray="3"/></g><g transform="translate(5,5) scale(1,1)"><path fill="none" stroke="#000000" d="M 873.1626748576241 315.790482243984 L 863 320 L 873.1626748576241 324.209517756016" stroke-miterlimit="10"/></g><g transform="translate(5,5) scale(1,1)"><g><path fill="none" stroke="none"/><text fill="#000000" stroke="none" font-family="Arial" font-size="13px" font-style="normal" font-weight="normal" text-decoration="none" x="946.5" y="336.5">10 : dto</text></g></g><g transform="translate(5,5) scale(1,1)"><path fill="none" stroke="#000000" d="M 863 376 L 1200 376" stroke-miterlimit="10" stroke-dasharray="3"/></g><g transform="translate(5,5) scale(1,1)"><path fill="none" stroke="#000000" d="M 1189.837325142376 380.209517756016 L 1200 376 L 1189.837325142376 371.790482243984" stroke-miterlimit="10"/></g><g transform="translate(5,5) scale(1,1)"><g><path fill="none" stroke="none"/><text fill="#000000" stroke="none" font-family="Arial" font-size="13px" font-style="normal" font-weight="normal" text-decoration="none" x="931" y="372.5">11 : createForm(dto: SessionDTO)</text></g></g><g transform="translate(5,5) scale(1,1)"><g><path fill="none" stroke="none"/><text fill="#000000" stroke="none" font-family="Arial" font-size="13px" font-style="normal" font-weight="normal" text-decoration="none" x="1005.5" y="357.5">«create»</text></g></g><g transform="translate(5,5) scale(1,1)"><path fill="none" stroke="#000000" d="M 1270 408 L 1300 408 L 1300 428 L 1276 428" stroke-miterlimit="10"/></g><g transform="translate(5,5) scale(1,1)"><path fill="#000000" stroke="none" d="M 1286.162674857624 423.790482243984 L 1276 428 L 1286.162674857624 432.209517756016"/></g><g transform="translate(5,5) scale(1,1)"><path fill="none" stroke="#000000" d="M 1286.162674857624 423.790482243984 L 1276 428 L 1286.162674857624 432.209517756016 L 1286.162674857624 423.790482243984" stroke-miterlimit="10"/></g><g transform="translate(5,5) scale(1,1)"><g><path fill="none" stroke="none"/><text fill="#000000" stroke="none" font-family="Arial" font-size="13px" font-style="normal" font-weight="normal" text-decoration="none" x="1113.5" y="419.5">12 : handleRequest(request: Request)</text></g></g><g transform="translate(5,5) scale(1,1)"><rect fill="#ffffff" stroke="none" x="1263" y="428" width="13" height="28"/></g><g transform="translate(5,5) scale(1,1)"><path fill="none" stroke="#000000" d="M 1263 428 L 1276 428 L 1276 456 L 1263 456 L 1263 428 Z Z" stroke-miterlimit="10"/></g><g transform="translate(5,5) scale(1,1)"><path fill="none" stroke="#000000" d="M 863 464 L 1077 464" stroke-miterlimit="10"/></g><g transform="translate(5,5) scale(1,1)"><path fill="#000000" stroke="none" d="M 1066.837325142376 468.209517756016 L 1077 464 L 1066.837325142376 459.790482243984"/></g><g transform="translate(5,5) scale(1,1)"><path fill="none" stroke="#000000" d="M 1066.837325142376 468.209517756016 L 1077 464 L 1066.837325142376 459.790482243984 L 1066.837325142376 468.209517756016" stroke-miterlimit="10"/></g><g transform="translate(5,5) scale(1,1)"><g><path fill="none" stroke="none"/><text fill="#000000" stroke="none" font-family="Arial" font-size="13px" font-style="normal" font-weight="normal" text-decoration="none" x="879.5" y="460.5">13 : process(dto: SessionDTO)</text></g></g><g transform="translate(5,5) scale(1,1)"><rect fill="#ffffff" stroke="none" x="1077" y="464" width="13" height="152"/></g><g transform="translate(5,5) scale(1,1)"><path fill="none" stroke="#000000" d="M 1077 464 L 1090 464 L 1090 616 L 1077 616 L 1077 464 Z Z" stroke-miterlimit="10"/></g><g transform="translate(5,5) scale(1,1)"><path fill="none" stroke="#000000" d="M 1090 477 L 1674 477" stroke-miterlimit="10"/></g><g transform="translate(5,5) scale(1,1)"><path fill="#000000" stroke="none" d="M 1663.837325142376 481.209517756016 L 1674 477 L 1663.837325142376 472.790482243984"/></g><g transform="translate(5,5) scale(1,1)"><path fill="none" stroke="#000000" d="M 1663.837325142376 481.209517756016 L 1674 477 L 1663.837325142376 472.790482243984 L 1663.837325142376 481.209517756016" stroke-miterlimit="10"/></g><g transform="translate(5,5) scale(1,1)"><g><path fill="none" stroke="none"/><text fill="#000000" stroke="none" font-family="Arial" font-size="13px" font-style="normal" font-weight="normal" text-decoration="none" x="1282.5" y="473.5">14 : createFromDTO(sessionDTO)</text></g></g><g transform="translate(5,5) scale(1,1)"><rect fill="#ffffff" stroke="none" x="1674" y="477" width="13" height="28"/></g><g transform="translate(5,5) scale(1,1)"><path fill="none" stroke="#000000" d="M 1674 477 L 1687 477 L 1687 505 L 1674 505 L 1674 477 Z Z" stroke-miterlimit="10"/></g><g transform="translate(5,5) scale(1,1)"><path fill="none" stroke="#000000" d="M 1687 488 L 1808 488" stroke-miterlimit="10" stroke-dasharray="3"/></g><g transform="translate(5,5) scale(1,1)"><path fill="none" stroke="#000000" d="M 1797.837325142376 492.209517756016 L 1808 488 L 1797.837325142376 483.790482243984" stroke-miterlimit="10"/></g><g transform="translate(5,5) scale(1,1)"><g><path fill="none" stroke="none"/><text fill="#000000" stroke="none" font-family="Arial" font-size="13px" font-style="normal" font-weight="normal" text-decoration="none" x="1722.5" y="484.5">15 : new</text></g></g><g transform="translate(5,5) scale(1,1)"><g><path fill="none" stroke="none"/><text fill="#000000" stroke="none" font-family="Arial" font-size="13px" font-style="normal" font-weight="normal" text-decoration="none" x="1721.5" y="469.5">«create»</text></g></g><g transform="translate(5,5) scale(1,1)"><path fill="none" stroke="#000000" d="M 1674 498 L 1090 498" stroke-miterlimit="10" stroke-dasharray="3"/></g><g transform="translate(5,5) scale(1,1)"><path fill="none" stroke="#000000" d="M 1100.162674857624 493.790482243984 L 1090 498 L 1100.162674857624 502.209517756016" stroke-miterlimit="10"/></g><g transform="translate(5,5) scale(1,1)"><g><path fill="none" stroke="none"/><text fill="#000000" stroke="none" font-family="Arial" font-size="13px" font-style="normal" font-weight="normal" text-decoration="none" x="1345.5" y="514.5">16 : session</text></g></g><g transform="translate(5,5) scale(1,1)"><path fill="none" stroke="#000000" d="M 1090 552 L 1940 552" stroke-miterlimit="10"/></g><g transform="translate(5,5) scale(1,1)"><path fill="#000000" stroke="none" d="M 1929.837325142376 556.209517756016 L 1940 552 L 1929.837325142376 547.790482243984"/></g><g transform="translate(5,5) scale(1,1)"><path fill="none" stroke="#000000" d="M 1929.837325142376 556.209517756016 L 1940 552 L 1929.837325142376 547.790482243984 L 1929.837325142376 556.209517756016" stroke-miterlimit="10"/></g><g transform="translate(5,5) scale(1,1)"><g><path fill="none" stroke="none"/><text fill="#000000" stroke="none" font-family="Arial" font-size="13px" font-style="normal" font-weight="normal" text-decoration="none" x="1416.5" y="548.5">17 : persist(domainObject: object)</text></g></g><g transform="translate(5,5) scale(1,1)"><rect fill="#ffffff" stroke="none" x="1940" y="552" width="13" height="28"/></g><g transform="translate(5,5) scale(1,1)"><path fill="none" stroke="#000000" d="M 1940 552 L 1953 552 L 1953 580 L 1940 580 L 1940 552 Z Z" stroke-miterlimit="10"/></g><g transform="translate(5,5) scale(1,1)"><path fill="none" stroke="#000000" d="M 1090 592 L 1940 592" stroke-miterlimit="10"/></g><g transform="translate(5,5) scale(1,1)"><path fill="#000000" stroke="none" d="M 1929.837325142376 596.209517756016 L 1940 592 L 1929.837325142376 587.790482243984"/></g><g transform="translate(5,5) scale(1,1)"><path fill="none" stroke="#000000" d="M 1929.837325142376 596.209517756016 L 1940 592 L 1929.837325142376 587.790482243984 L 1929.837325142376 596.209517756016" stroke-miterlimit="10"/></g><g transform="translate(5,5) scale(1,1)"><g><path fill="none" stroke="none"/><text fill="#000000" stroke="none" font-family="Arial" font-size="13px" font-style="normal" font-weight="normal" text-decoration="none" x="1404.5" y="588.5">18 : flush(domainObject: object = null)</text></g></g><g transform="translate(5,5) scale(1,1)"><rect fill="#ffffff" stroke="none" x="1940" y="592" width="13" height="28"/></g><g transform="translate(5,5) scale(1,1)"><path fill="none" stroke="#000000" d="M 1940 592 L 1953 592 L 1953 620 L 1940 620 L 1940 592 Z Z" stroke-miterlimit="10"/></g><g transform="translate(5,5) scale(1,1)"><path fill="none" stroke="#000000" d="M 1077 602 L 863 602" stroke-miterlimit="10" stroke-dasharray="3"/></g><g transform="translate(5,5) scale(1,1)"><path fill="none" stroke="#000000" d="M 873.1626748576241 597.790482243984 L 863 602 L 873.1626748576241 606.209517756016" stroke-miterlimit="10"/></g><g transform="translate(5,5) scale(1,1)"><g><path fill="none" stroke="none"/><text fill="#000000" stroke="none" font-family="Arial" font-size="13px" font-style="normal" font-weight="normal" text-decoration="none" x="933.5" y="618.5">19 : session</text></g></g><g transform="translate(5,5) scale(1,1)"><path fill="none" stroke="#000000" d="M 863 632 L 893 632 L 893 652 L 870 652" stroke-miterlimit="10"/></g><g transform="translate(5,5) scale(1,1)"><path fill="#000000" stroke="none" d="M 880.1626748576241 647.790482243984 L 870 652 L 880.1626748576241 656.209517756016"/></g><g transform="translate(5,5) scale(1,1)"><path fill="none" stroke="#000000" d="M 880.1626748576241 647.790482243984 L 870 652 L 880.1626748576241 656.209517756016 L 880.1626748576241 647.790482243984" stroke-miterlimit="10"/></g><g transform="translate(5,5) scale(1,1)"><g><path fill="none" stroke="none"/><text fill="#000000" stroke="none" font-family="Arial" font-size="13px" font-style="normal" font-weight="normal" text-decoration="none" x="783.5" y="647.5">20 : renderToJson(domainObject: object)</text></g></g><g transform="translate(5,5) scale(1,1)"><rect fill="#ffffff" stroke="none" x="857" y="652" width="13" height="60"/></g><g transform="translate(5,5) scale(1,1)"><path fill="none" stroke="#000000" d="M 857 652 L 870 652 L 870 712 L 857 712 L 857 652 Z Z" stroke-miterlimit="10"/></g><g transform="translate(5,5) scale(1,1)"><path fill="none" stroke="#000000" d="M 870 672 L 1538 672" stroke-miterlimit="10"/></g><g transform="translate(5,5) scale(1,1)"><path fill="#000000" stroke="none" d="M 1527.837325142376 676.209517756016 L 1538 672 L 1527.837325142376 667.790482243984"/></g><g transform="translate(5,5) scale(1,1)"><path fill="none" stroke="#000000" d="M 1527.837325142376 676.209517756016 L 1538 672 L 1527.837325142376 667.790482243984 L 1527.837325142376 676.209517756016" stroke-miterlimit="10"/></g><g transform="translate(5,5) scale(1,1)"><g><path fill="none" stroke="none"/><text fill="#000000" stroke="none" font-family="Arial" font-size="13px" font-style="normal" font-weight="normal" text-decoration="none" x="1124" y="668.5">21 : serialize(object: object)</text></g></g><g transform="translate(5,5) scale(1,1)"><rect fill="#ffffff" stroke="none" x="1538" y="672" width="13" height="28"/></g><g transform="translate(5,5) scale(1,1)"><path fill="none" stroke="#000000" d="M 1538 672 L 1551 672 L 1551 700 L 1538 700 L 1538 672 Z Z" stroke-miterlimit="10"/></g><g transform="translate(5,5) scale(1,1)"><path fill="none" stroke="#000000" d="M 1538 696 L 870 696" stroke-miterlimit="10" stroke-dasharray="3"/></g><g transform="translate(5,5) scale(1,1)"><path fill="none" stroke="#000000" d="M 880.1626748576241 691.790482243984 L 870 696 L 880.1626748576241 700.209517756016" stroke-miterlimit="10"/></g><g transform="translate(5,5) scale(1,1)"><g><path fill="none" stroke="none"/><text fill="#000000" stroke="none" font-family="Arial" font-size="13px" font-style="normal" font-weight="normal" text-decoration="none" x="1177.5" y="712.5">22 : data</text></g></g><g transform="translate(5,5) scale(1,1)"><path fill="none" stroke="#000000" d="M 850 728 L 451 728" stroke-miterlimit="10" stroke-dasharray="3"/></g><g transform="translate(5,5) scale(1,1)"><path fill="none" stroke="#000000" d="M 461.16267485762415 723.790482243984 L 451 728 L 461.16267485762415 732.209517756016" stroke-miterlimit="10"/></g><g transform="translate(5,5) scale(1,1)"><g><path fill="none" stroke="none"/><text fill="#000000" stroke="none" font-family="Arial" font-size="13px" font-style="normal" font-weight="normal" text-decoration="none" x="609.5" y="744.5">23 : response</text></g></g><g transform="translate(5,5) scale(1,1)"><path fill="none" stroke="#000000" d="M 438 736 L 108 736" stroke-miterlimit="10" stroke-dasharray="3"/></g><g transform="translate(5,5) scale(1,1)"><path fill="none" stroke="#000000" d="M 118.16267485762415 731.790482243984 L 108 736 L 118.16267485762415 740.209517756016" stroke-miterlimit="10"/></g><g transform="translate(5,5) scale(1,1)"><g><path fill="none" stroke="none"/><text fill="#000000" stroke="none" font-family="Arial" font-size="13px" font-style="normal" font-weight="normal" text-decoration="none" x="235.5" y="752.5">24 : Session</text></g></g></g></svg>