<svg version="1.1" xmlns="http://www.w3.org/2000/svg" xmlns:xlink="http://www.w3.org/1999/xlink" width="1567" height="727"><defs/><g><g transform="translate(5,5) scale(1,1)"><path fill="none" stroke="#000000" d="M 5 5 L 1552 5 L 1552 712 L 5 712 L 5 5" stroke-miterlimit="10"/></g><g transform="translate(5,5) scale(1,1)"><path fill="#ffffff" stroke="none" d="M 5 5 L 5 27 L 251 27 L 262 16 L 262 5 L 5 5"/></g><g transform="translate(5,5) scale(1,1)"><path fill="none" stroke="#000000" d="M 5 5 L 5 27 L 251 27 L 262 16 L 262 5 L 5 5 L 5 5" stroke-miterlimit="10"/></g><g transform="translate(5,5) scale(1,1)"><g><path fill="none" stroke="none"/><text fill="#000000" stroke="none" font-family="Arial" font-size="13px" font-style="normal" font-weight="normal" text-decoration="none" x="76" y="22.5">Add an instrument to session</text></g></g><g transform="translate(5,5) scale(1,1)"><g><path fill="none" stroke="none"/><text fill="#000000" stroke="none" font-family="Arial" font-size="13px" font-style="normal" font-weight="bold" text-decoration="none" x="10" y="22.5">interaction</text></g></g><g transform="translate(5,5) scale(1,1)"><path fill="#ffffff" stroke="none" d="M 43.07090909090909 47.3 C 43.07090909090909 43.82060576 45.94931081309091 41 49.5 41 C 53.05068918690909 41 55.92909090909091 43.82060576 55.92909090909091 47.3 C 55.92909090909091 50.779394239999995 53.05068918690909 53.6 49.5 53.6 C 45.94931081309091 53.6 43.07090909090909 50.779394239999995 43.07090909090909 47.3 Z"/></g><g transform="translate(5,5) scale(1,1)"><path fill="none" stroke="#000000" d="M 43.07090909090909 47.3 C 43.07090909090909 43.82060576 45.94931081309091 41 49.5 41 C 53.05068918690909 41 55.92909090909091 43.82060576 55.92909090909091 47.3 C 55.92909090909091 50.779394239999995 53.05068918690909 53.6 49.5 53.6 C 45.94931081309091 53.6 43.07090909090909 50.779394239999995 43.07090909090909 47.3 Z" stroke-miterlimit="10"/></g><g transform="translate(5,5) scale(1,1)"><path fill="none" stroke="#000000" d="M 49.5 53.6 L 49.5 66.4" stroke-miterlimit="10"/></g><g transform="translate(5,5) scale(1,1)"><path fill="none" stroke="#000000" d="M 42.692727272727275 58.4 L 56.307272727272725 58.4" stroke-miterlimit="10"/></g><g transform="translate(5,5) scale(1,1)"><path fill="none" stroke="#000000" d="M 49.5 66.4 L 40.04545454545455 79" stroke-miterlimit="10"/></g><g transform="translate(5,5) scale(1,1)"><path fill="none" stroke="#000000" d="M 49.5 66.4 L 58.95454545454545 79" stroke-miterlimit="10"/></g><g transform="translate(5,5) scale(1,1)"><g><path fill="none" stroke="none"/><text fill="#000000" stroke="none" font-family="Arial" font-size="13px" font-style="normal" font-weight="bold" text-decoration="none" x="22" y="99.5">: Jammer</text></g></g><g transform="translate(5,5) scale(1,1)"><path fill="none" stroke="#000000" d="M 50.5 105 L 50.5 696" stroke-miterlimit="10" stroke-dasharray="3"/></g><g transform="translate(5,5) scale(1,1)"><path fill="#ffffff" stroke="none" d="M 341.5 60 C 341.5 51.1634432 348.6634432 44 357.5 44 C 366.3365568 44 373.5 51.1634432 373.5 60 C 373.5 68.8365568 366.3365568 76 357.5 76 C 348.6634432 76 341.5 68.8365568 341.5 60 Z"/></g><g transform="translate(5,5) scale(1,1)"><path fill="none" stroke="#000000" d="M 341.5 60 C 341.5 51.1634432 348.6634432 44 357.5 44 C 366.3365568 44 373.5 51.1634432 373.5 60 C 373.5 68.8365568 366.3365568 76 357.5 76 C 348.6634432 76 341.5 68.8365568 341.5 60 Z" stroke-miterlimit="10"/></g><g transform="translate(5,5) scale(1,1)"><path fill="none" stroke="#000000" d="M 333.5 44 L 333.5 76" stroke-miterlimit="10"/></g><g transform="translate(5,5) scale(1,1)"><path fill="none" stroke="#000000" d="M 333.5 60 L 341.5 60" stroke-miterlimit="10"/></g><g transform="translate(5,5) scale(1,1)"><g><path fill="none" stroke="none"/><text fill="#000000" stroke="none" font-family="Arial" font-size="13px" font-style="normal" font-weight="bold" text-decoration="none" x="288.5" y="99.5">: SessionInstrumentUI</text></g></g><g transform="translate(5,5) scale(1,1)"><path fill="none" stroke="#000000" d="M 354.5 105 L 354.5 698" stroke-miterlimit="10" stroke-dasharray="3"/></g><g transform="translate(5,5) scale(1,1)"><path fill="#ffffff" stroke="none" d="M 164 60 C 164 51.1634432 171.1634432 44 180 44 C 188.8365568 44 196 51.1634432 196 60 C 196 68.8365568 188.8365568 76 180 76 C 171.1634432 76 164 68.8365568 164 60 Z"/></g><g transform="translate(5,5) scale(1,1)"><path fill="none" stroke="#000000" d="M 164 60 C 164 51.1634432 171.1634432 44 180 44 C 188.8365568 44 196 51.1634432 196 60 C 196 68.8365568 188.8365568 76 180 76 C 171.1634432 76 164 68.8365568 164 60 Z" stroke-miterlimit="10"/></g><g transform="translate(5,5) scale(1,1)"><path fill="none" stroke="#000000" d="M 156 44 L 156 76" stroke-miterlimit="10"/></g><g transform="translate(5,5) scale(1,1)"><path fill="none" stroke="#000000" d="M 156 60 L 164 60" stroke-miterlimit="10"/></g><g transform="translate(5,5) scale(1,1)"><g><path fill="none" stroke="none"/><text fill="#000000" stroke="none" font-family="Arial" font-size="13px" font-style="normal" font-weight="bold" text-decoration="none" x="142" y="99.5">: SessionUI</text></g></g><g transform="translate(5,5) scale(1,1)"><path fill="none" stroke="#000000" d="M 177.5 105 L 177.5 698" stroke-miterlimit="10" stroke-dasharray="3"/></g><g transform="translate(5,5) scale(1,1)"><path fill="#ffffff" stroke="none" d="M 490 60 C 490 51.715728 496.715728 45 505 45 C 513.284272 45 520 51.715728 520 60 C 520 68.284272 513.284272 75 505 75 C 496.715728 75 490 68.284272 490 60 Z"/></g><g transform="translate(5,5) scale(1,1)"><path fill="none" stroke="#000000" d="M 490 60 C 490 51.715728 496.715728 45 505 45 C 513.284272 45 520 51.715728 520 60 C 520 68.284272 513.284272 75 505 75 C 496.715728 75 490 68.284272 490 60 Z" stroke-miterlimit="10"/></g><g transform="translate(5,5) scale(1,1)"><path fill="none" stroke="#000000" d="M 505 45 L 510 40" stroke-miterlimit="10"/></g><g transform="translate(5,5) scale(1,1)"><path fill="none" stroke="#000000" d="M 505 45 L 510 50" stroke-miterlimit="10"/></g><g transform="translate(5,5) scale(1,1)"><g><path fill="none" stroke="none"/><text fill="#000000" stroke="none" font-family="Arial" font-size="13px" font-style="normal" font-weight="bold" text-decoration="none" x="448" y="99.5">: InstrumentService</text></g></g><g transform="translate(5,5) scale(1,1)"><path fill="none" stroke="#000000" d="M 506.5 105 L 506.5 504" stroke-miterlimit="10" stroke-dasharray="3"/></g><g transform="translate(5,5) scale(1,1)"><rect fill="#C0C0C0" stroke="none" x="1087" y="47" width="122" height="39" opacity="0.2"/></g><g transform="translate(5,5) scale(1,1)"><rect fill="#ffffff" stroke="none" x="1080" y="40" width="122" height="39"/></g><g transform="translate(5,5) scale(1,1)"><path fill="none" stroke="#000000" d="M 1080 40 L 1202 40 L 1202 79 L 1080 79 L 1080 40 Z Z" stroke-miterlimit="10"/></g><g transform="translate(5,5) scale(1,1)"><g><path fill="none" stroke="none"/><text fill="#000000" stroke="none" font-family="Arial" font-size="13px" font-style="normal" font-weight="bold" text-decoration="none" x="1092" y="59.5">: InstrumentDAO</text></g></g><g transform="translate(5,5) scale(1,1)"><path fill="none" stroke="#000000" d="M 1142.5 80 L 1142.5 464" stroke-miterlimit="10" stroke-dasharray="3"/></g><g transform="translate(5,5) scale(1,1)"><path fill="#ffffff" stroke="none" d="M 960 312 C 960 303.1634432 967.1634432 296 976 296 C 984.8365568 296 992 303.1634432 992 312 C 992 320.8365568 984.8365568 328 976 328 C 967.1634432 328 960 320.8365568 960 312 Z"/></g><g transform="translate(5,5) scale(1,1)"><path fill="none" stroke="#000000" d="M 960 312 C 960 303.1634432 967.1634432 296 976 296 C 984.8365568 296 992 303.1634432 992 312 C 992 320.8365568 984.8365568 328 976 328 C 967.1634432 328 960 320.8365568 960 312 Z" stroke-miterlimit="10"/></g><g transform="translate(5,5) scale(1,1)"><path fill="none" stroke="#000000" d="M 960 328 L 992 328" stroke-miterlimit="10"/></g><g transform="translate(5,5) scale(1,1)"><g><path fill="none" stroke="none"/><text fill="#000000" stroke="none" font-family="Arial" font-size="13px" font-style="normal" font-weight="bold" text-decoration="none" x="928.5" y="351.5">instr: Instrument</text></g></g><g transform="translate(5,5) scale(1,1)"><path fill="none" stroke="#000000" d="M 977.5 357 L 977.5 464" stroke-miterlimit="10" stroke-dasharray="3"/></g><g transform="translate(5,5) scale(1,1)"><path fill="none" stroke="#000000" d="M 920 264 L 1169.5 264 L 1169.5 384 L 920 384 L 920 264" stroke-miterlimit="10"/></g><g transform="translate(5,5) scale(1,1)"><path fill="#ffffff" stroke="none" d="M 920 264 L 920 286 L 960 286 L 971 275 L 971 264 L 920 264"/></g><g transform="translate(5,5) scale(1,1)"><path fill="none" stroke="#000000" d="M 920 264 L 920 286 L 960 286 L 971 275 L 971 264 L 920 264 L 920 264" stroke-miterlimit="10"/></g><g transform="translate(5,5) scale(1,1)"><g><path fill="none" stroke="none"/><text fill="#000000" stroke="none" font-family="Arial" font-size="13px" font-style="normal" font-weight="bold" text-decoration="none" x="925" y="281.5">loop</text></g></g><g transform="translate(5,5) scale(1,1)"><path fill="#ffffff" stroke="none" d="M 625.5 60 C 625.5 51.715728 632.215728 45 640.5 45 C 648.784272 45 655.5 51.715728 655.5 60 C 655.5 68.284272 648.784272 75 640.5 75 C 632.215728 75 625.5 68.284272 625.5 60 Z"/></g><g transform="translate(5,5) scale(1,1)"><path fill="none" stroke="#000000" d="M 625.5 60 C 625.5 51.715728 632.215728 45 640.5 45 C 648.784272 45 655.5 51.715728 655.5 60 C 655.5 68.284272 648.784272 75 640.5 75 C 632.215728 75 625.5 68.284272 625.5 60 Z" stroke-miterlimit="10"/></g><g transform="translate(5,5) scale(1,1)"><path fill="none" stroke="#000000" d="M 640.5 45 L 645.5 40" stroke-miterlimit="10"/></g><g transform="translate(5,5) scale(1,1)"><path fill="none" stroke="#000000" d="M 640.5 45 L 645.5 50" stroke-miterlimit="10"/></g><g transform="translate(5,5) scale(1,1)"><g><path fill="none" stroke="none"/><text fill="#000000" stroke="none" font-family="Arial" font-size="13px" font-style="normal" font-weight="bold" text-decoration="none" x="591" y="99.5">: SessionService</text></g></g><g transform="translate(5,5) scale(1,1)"><path fill="none" stroke="#000000" d="M 641.5 105 L 641.5 696" stroke-miterlimit="10" stroke-dasharray="3"/></g><g transform="translate(5,5) scale(1,1)"><rect fill="#C0C0C0" stroke="none" x="1263" y="47" width="89" height="39" opacity="0.2"/></g><g transform="translate(5,5) scale(1,1)"><rect fill="#ffffff" stroke="none" x="1256" y="40" width="89" height="39"/></g><g transform="translate(5,5) scale(1,1)"><path fill="none" stroke="#000000" d="M 1256 40 L 1345 40 L 1345 79 L 1256 79 L 1256 40 Z Z" stroke-miterlimit="10"/></g><g transform="translate(5,5) scale(1,1)"><g><path fill="none" stroke="none"/><text fill="#000000" stroke="none" font-family="Arial" font-size="13px" font-style="normal" font-weight="bold" text-decoration="none" x="1266" y="59.5">: TrackDAO</text></g></g><g transform="translate(5,5) scale(1,1)"><path fill="none" stroke="#000000" d="M 1301.5 80 L 1301.5 696" stroke-miterlimit="10" stroke-dasharray="3"/></g><g transform="translate(5,5) scale(1,1)"><path fill="#ffffff" stroke="none" d="M 873.5 60 C 873.5 51.715728 880.215728 45 888.5 45 C 896.784272 45 903.5 51.715728 903.5 60 C 903.5 68.284272 896.784272 75 888.5 75 C 880.215728 75 873.5 68.284272 873.5 60 Z"/></g><g transform="translate(5,5) scale(1,1)"><path fill="none" stroke="#000000" d="M 873.5 60 C 873.5 51.715728 880.215728 45 888.5 45 C 896.784272 45 903.5 51.715728 903.5 60 C 903.5 68.284272 896.784272 75 888.5 75 C 880.215728 75 873.5 68.284272 873.5 60 Z" stroke-miterlimit="10"/></g><g transform="translate(5,5) scale(1,1)"><path fill="none" stroke="#000000" d="M 888.5 45 L 893.5 40" stroke-miterlimit="10"/></g><g transform="translate(5,5) scale(1,1)"><path fill="none" stroke="#000000" d="M 888.5 45 L 893.5 50" stroke-miterlimit="10"/></g><g transform="translate(5,5) scale(1,1)"><g><path fill="none" stroke="none"/><text fill="#000000" stroke="none" font-family="Arial" font-size="13px" font-style="normal" font-weight="bold" text-decoration="none" x="846" y="99.5">: TrackService</text></g></g><g transform="translate(5,5) scale(1,1)"><path fill="none" stroke="#000000" d="M 889.5 105 L 889.5 696" stroke-miterlimit="10" stroke-dasharray="3"/></g><g transform="translate(5,5) scale(1,1)"><path fill="#ffffff" stroke="none" d="M 1192.5 560 C 1192.5 551.1634432 1199.6634432 544 1208.5 544 C 1217.3365568 544 1224.5 551.1634432 1224.5 560 C 1224.5 568.8365568 1217.3365568 576 1208.5 576 C 1199.6634432 576 1192.5 568.8365568 1192.5 560 Z"/></g><g transform="translate(5,5) scale(1,1)"><path fill="none" stroke="#000000" d="M 1192.5 560 C 1192.5 551.1634432 1199.6634432 544 1208.5 544 C 1217.3365568 544 1224.5 551.1634432 1224.5 560 C 1224.5 568.8365568 1217.3365568 576 1208.5 576 C 1199.6634432 576 1192.5 568.8365568 1192.5 560 Z" stroke-miterlimit="10"/></g><g transform="translate(5,5) scale(1,1)"><path fill="none" stroke="#000000" d="M 1192.5 576 L 1224.5 576" stroke-miterlimit="10"/></g><g transform="translate(5,5) scale(1,1)"><g><path fill="none" stroke="none"/><text fill="#000000" stroke="none" font-family="Arial" font-size="13px" font-style="normal" font-weight="bold" text-decoration="none" x="1173.5" y="599.5">track: Track</text></g></g><g transform="translate(5,5) scale(1,1)"><path fill="none" stroke="#000000" d="M 1209.5 605 L 1209.5 696" stroke-miterlimit="10" stroke-dasharray="3"/></g><g transform="translate(5,5) scale(1,1)"><rect fill="#ffffff" stroke="none" x="16" y="120" width="1328" height="49"/></g><g transform="translate(5,5) scale(1,1)"><path fill="none" stroke="#000000" d="M 16 120 L 1344 120 L 1344 169 L 16 169 L 16 120 Z Z" stroke-miterlimit="10"/></g><g transform="translate(5,5) scale(1,1)"><path fill="none" stroke="#000000" d="M 16 120 L 16 142 L 41 142 L 52 131 L 52 120 L 16 120 L 16 120" stroke-miterlimit="10"/></g><g transform="translate(5,5) scale(1,1)"><g><path fill="none" stroke="none"/><text fill="#000000" stroke="none" font-family="Arial" font-size="13px" font-style="normal" font-weight="normal" text-decoration="none" x="636" y="151">View a session</text></g></g><g transform="translate(5,5) scale(1,1)"><g><path fill="none" stroke="none"/><text fill="#000000" stroke="none" font-family="Arial" font-size="13px" font-style="normal" font-weight="normal" text-decoration="none" x="21" y="137.5">ref</text></g></g><g transform="translate(5,5) scale(1,1)"><path fill="none" stroke="#000000" d="M 50 196 L 170 196" stroke-miterlimit="10"/></g><g transform="translate(5,5) scale(1,1)"><path fill="#000000" stroke="none" d="M 159.83732514237585 200.209517756016 L 170 196 L 159.83732514237585 191.790482243984"/></g><g transform="translate(5,5) scale(1,1)"><path fill="none" stroke="#000000" d="M 159.83732514237585 200.209517756016 L 170 196 L 159.83732514237585 191.790482243984 L 159.83732514237585 200.209517756016" stroke-miterlimit="10"/></g><g transform="translate(5,5) scale(1,1)"><g><path fill="none" stroke="none"/><text fill="#000000" stroke="none" font-family="Arial" font-size="13px" font-style="normal" font-weight="normal" text-decoration="none" x="54.5" y="192.5">1 : addInstrument()</text></g></g><g transform="translate(5,5) scale(1,1)"><rect fill="#ffffff" stroke="none" x="170" y="196" width="13" height="28"/></g><g transform="translate(5,5) scale(1,1)"><path fill="none" stroke="#000000" d="M 170 196 L 183 196 L 183 224 L 170 224 L 170 196 Z Z" stroke-miterlimit="10"/></g><g transform="translate(5,5) scale(1,1)"><path fill="none" stroke="#000000" d="M 183 210 L 347 210" stroke-miterlimit="10"/></g><g transform="translate(5,5) scale(1,1)"><path fill="#000000" stroke="none" d="M 336.83732514237585 214.209517756016 L 347 210 L 336.83732514237585 205.790482243984"/></g><g transform="translate(5,5) scale(1,1)"><path fill="none" stroke="#000000" d="M 336.83732514237585 214.209517756016 L 347 210 L 336.83732514237585 205.790482243984 L 336.83732514237585 214.209517756016" stroke-miterlimit="10"/></g><g transform="translate(5,5) scale(1,1)"><g><path fill="none" stroke="none"/><text fill="#000000" stroke="none" font-family="Arial" font-size="13px" font-style="normal" font-weight="normal" text-decoration="none" x="208.5" y="203.5">2 : addInstrument()</text></g></g><g transform="translate(5,5) scale(1,1)"><rect fill="#ffffff" stroke="none" x="347" y="210" width="13" height="28"/></g><g transform="translate(5,5) scale(1,1)"><path fill="none" stroke="#000000" d="M 347 210 L 360 210 L 360 238 L 347 238 L 347 210 Z Z" stroke-miterlimit="10"/></g><g transform="translate(5,5) scale(1,1)"><path fill="none" stroke="#000000" d="M 512 236 L 1135 236" stroke-miterlimit="10"/></g><g transform="translate(5,5) scale(1,1)"><path fill="#000000" stroke="none" d="M 1124.837325142376 240.209517756016 L 1135 236 L 1124.837325142376 231.790482243984"/></g><g transform="translate(5,5) scale(1,1)"><path fill="none" stroke="#000000" d="M 1124.837325142376 240.209517756016 L 1135 236 L 1124.837325142376 231.790482243984 L 1124.837325142376 240.209517756016" stroke-miterlimit="10"/></g><g transform="translate(5,5) scale(1,1)"><g><path fill="none" stroke="none"/><text fill="#000000" stroke="none" font-family="Arial" font-size="13px" font-style="normal" font-weight="normal" text-decoration="none" x="791.5" y="232.5">4 : findAll()</text></g></g><g transform="translate(5,5) scale(1,1)"><rect fill="#ffffff" stroke="none" x="1135" y="236" width="13" height="180"/></g><g transform="translate(5,5) scale(1,1)"><path fill="none" stroke="#000000" d="M 1135 236 L 1148 236 L 1148 416 L 1135 416 L 1135 236 Z Z" stroke-miterlimit="10"/></g><g transform="translate(5,5) scale(1,1)"><path fill="none" stroke="#000000" d="M 360 223 L 499 223" stroke-miterlimit="10"/></g><g transform="translate(5,5) scale(1,1)"><path fill="#000000" stroke="none" d="M 488.83732514237585 227.209517756016 L 499 223 L 488.83732514237585 218.790482243984"/></g><g transform="translate(5,5) scale(1,1)"><path fill="none" stroke="#000000" d="M 488.83732514237585 227.209517756016 L 499 223 L 488.83732514237585 218.790482243984 L 488.83732514237585 227.209517756016" stroke-miterlimit="10"/></g><g transform="translate(5,5) scale(1,1)"><g><path fill="none" stroke="none"/><text fill="#000000" stroke="none" font-family="Arial" font-size="13px" font-style="normal" font-weight="normal" text-decoration="none" x="371.5" y="219.5">3 : getInstruments()</text></g></g><g transform="translate(5,5) scale(1,1)"><rect fill="#ffffff" stroke="none" x="499" y="223" width="13" height="201"/></g><g transform="translate(5,5) scale(1,1)"><path fill="none" stroke="#000000" d="M 499 223 L 512 223 L 512 424 L 499 424 L 499 223 Z Z" stroke-miterlimit="10"/></g><g transform="translate(5,5) scale(1,1)"><path fill="none" stroke="#000000" d="M 1135 312 L 977 312" stroke-miterlimit="10" stroke-dasharray="3"/></g><g transform="translate(5,5) scale(1,1)"><path fill="none" stroke="#000000" d="M 987.1626748576241 307.790482243984 L 977 312 L 987.1626748576241 316.209517756016" stroke-miterlimit="10"/></g><g transform="translate(5,5) scale(1,1)"><g><path fill="none" stroke="none"/><text fill="#000000" stroke="none" font-family="Arial" font-size="13px" font-style="normal" font-weight="normal" text-decoration="none" x="1034" y="328.5">5 : new</text></g></g><g transform="translate(5,5) scale(1,1)"><g><path fill="none" stroke="none"/><text fill="#000000" stroke="none" font-family="Arial" font-size="13px" font-style="normal" font-weight="normal" text-decoration="none" x="1029.5" y="343.5">«create»</text></g></g><g transform="translate(5,5) scale(1,1)"><path fill="none" stroke="#000000" d="M 1135 400 L 512 400" stroke-miterlimit="10" stroke-dasharray="3"/></g><g transform="translate(5,5) scale(1,1)"><path fill="none" stroke="#000000" d="M 522.1626748576241 395.790482243984 L 512 400 L 522.1626748576241 404.209517756016" stroke-miterlimit="10"/></g><g transform="translate(5,5) scale(1,1)"><g><path fill="none" stroke="none"/><text fill="#000000" stroke="none" font-family="Arial" font-size="13px" font-style="normal" font-weight="normal" text-decoration="none" x="771.5" y="416.5">6 : instruments</text></g></g><g transform="translate(5,5) scale(1,1)"><path fill="none" stroke="#000000" d="M 499 416 L 354 416" stroke-miterlimit="10" stroke-dasharray="3"/></g><g transform="translate(5,5) scale(1,1)"><path fill="none" stroke="#000000" d="M 364.16267485762415 411.790482243984 L 354 416 L 364.16267485762415 420.209517756016" stroke-miterlimit="10"/></g><g transform="translate(5,5) scale(1,1)"><g><path fill="none" stroke="none"/><text fill="#000000" stroke="none" font-family="Arial" font-size="13px" font-style="normal" font-weight="normal" text-decoration="none" x="381.5" y="432.5">7 : instruments</text></g></g><g transform="translate(5,5) scale(1,1)"><path fill="none" stroke="#000000" d="M 354 448 L 384 448 L 384 468 L 360 468" stroke-miterlimit="10"/></g><g transform="translate(5,5) scale(1,1)"><path fill="#000000" stroke="none" d="M 370.16267485762415 463.790482243984 L 360 468 L 370.16267485762415 472.209517756016"/></g><g transform="translate(5,5) scale(1,1)"><path fill="none" stroke="#000000" d="M 370.16267485762415 463.790482243984 L 360 468 L 370.16267485762415 472.209517756016 L 370.16267485762415 463.790482243984" stroke-miterlimit="10"/></g><g transform="translate(5,5) scale(1,1)"><g><path fill="none" stroke="none"/><text fill="#000000" stroke="none" font-family="Arial" font-size="13px" font-style="normal" font-weight="normal" text-decoration="none" x="317.5" y="463.5">8 : displayInstrumentList()</text></g></g><g transform="translate(5,5) scale(1,1)"><rect fill="#ffffff" stroke="none" x="347" y="468" width="13" height="28"/></g><g transform="translate(5,5) scale(1,1)"><path fill="none" stroke="#000000" d="M 347 468 L 360 468 L 360 496 L 347 496 L 347 468 Z Z" stroke-miterlimit="10"/></g><g transform="translate(5,5) scale(1,1)"><path fill="none" stroke="#000000" d="M 50 528 L 347 528" stroke-miterlimit="10"/></g><g transform="translate(5,5) scale(1,1)"><path fill="#000000" stroke="none" d="M 336.83732514237585 532.209517756016 L 347 528 L 336.83732514237585 523.790482243984"/></g><g transform="translate(5,5) scale(1,1)"><path fill="none" stroke="#000000" d="M 336.83732514237585 532.209517756016 L 347 528 L 336.83732514237585 523.790482243984 L 336.83732514237585 532.209517756016" stroke-miterlimit="10"/></g><g transform="translate(5,5) scale(1,1)"><g><path fill="none" stroke="none"/><text fill="#000000" stroke="none" font-family="Arial" font-size="13px" font-style="normal" font-weight="normal" text-decoration="none" x="135.5" y="524.5">9 : selectInstrument()</text></g></g><g transform="translate(5,5) scale(1,1)"><rect fill="#ffffff" stroke="none" x="347" y="528" width="13" height="32"/></g><g transform="translate(5,5) scale(1,1)"><path fill="none" stroke="#000000" d="M 347 528 L 360 528 L 360 560 L 347 560 L 347 528 Z Z" stroke-miterlimit="10"/></g><g transform="translate(5,5) scale(1,1)"><path fill="none" stroke="#000000" d="M 360 536 L 634 536" stroke-miterlimit="10"/></g><g transform="translate(5,5) scale(1,1)"><path fill="#000000" stroke="none" d="M 623.8373251423759 540.209517756016 L 634 536 L 623.8373251423758 531.790482243984"/></g><g transform="translate(5,5) scale(1,1)"><path fill="none" stroke="#000000" d="M 623.8373251423759 540.209517756016 L 634 536 L 623.8373251423758 531.790482243984 L 623.8373251423759 540.209517756016" stroke-miterlimit="10"/></g><g transform="translate(5,5) scale(1,1)"><g><path fill="none" stroke="none"/><text fill="#000000" stroke="none" font-family="Arial" font-size="13px" font-style="normal" font-weight="normal" text-decoration="none" x="364" y="532.5">10 : addInstrument(instrID: int, sessionID: int)</text></g></g><g transform="translate(5,5) scale(1,1)"><rect fill="#ffffff" stroke="none" x="634" y="536" width="13" height="28"/></g><g transform="translate(5,5) scale(1,1)"><path fill="none" stroke="#000000" d="M 634 536 L 647 536 L 647 564 L 634 564 L 634 536 Z Z" stroke-miterlimit="10"/></g><g transform="translate(5,5) scale(1,1)"><path fill="none" stroke="#000000" d="M 647 552 L 882 552" stroke-miterlimit="10"/></g><g transform="translate(5,5) scale(1,1)"><path fill="#000000" stroke="none" d="M 871.8373251423759 556.209517756016 L 882 552 L 871.8373251423758 547.790482243984"/></g><g transform="translate(5,5) scale(1,1)"><path fill="none" stroke="#000000" d="M 871.8373251423759 556.209517756016 L 882 552 L 871.8373251423758 547.790482243984 L 871.8373251423759 556.209517756016" stroke-miterlimit="10"/></g><g transform="translate(5,5) scale(1,1)"><g><path fill="none" stroke="none"/><text fill="#000000" stroke="none" font-family="Arial" font-size="13px" font-style="normal" font-weight="normal" text-decoration="none" x="655.5" y="548.5">11 : create(sessionId: int, instrID: int)</text></g></g><g transform="translate(5,5) scale(1,1)"><rect fill="#ffffff" stroke="none" x="882" y="552" width="13" height="83"/></g><g transform="translate(5,5) scale(1,1)"><path fill="none" stroke="#000000" d="M 882 552 L 895 552 L 895 635 L 882 635 L 882 552 Z Z" stroke-miterlimit="10"/></g><g transform="translate(5,5) scale(1,1)"><path fill="none" stroke="#000000" d="M 895 560 L 1168 560" stroke-miterlimit="10" stroke-dasharray="3"/></g><g transform="translate(5,5) scale(1,1)"><path fill="none" stroke="#000000" d="M 1157.837325142376 564.209517756016 L 1168 560 L 1157.837325142376 555.790482243984" stroke-miterlimit="10"/></g><g transform="translate(5,5) scale(1,1)"><g><path fill="none" stroke="none"/><text fill="#000000" stroke="none" font-family="Arial" font-size="13px" font-style="normal" font-weight="normal" text-decoration="none" x="1006.5" y="556.5">12 : new</text></g></g><g transform="translate(5,5) scale(1,1)"><g><path fill="none" stroke="none"/><text fill="#000000" stroke="none" font-family="Arial" font-size="13px" font-style="normal" font-weight="normal" text-decoration="none" x="1005.5" y="541.5">«create»</text></g></g><g transform="translate(5,5) scale(1,1)"><path fill="none" stroke="#000000" d="M 895 624 L 1294 624" stroke-miterlimit="10"/></g><g transform="translate(5,5) scale(1,1)"><path fill="#000000" stroke="none" d="M 1283.837325142376 628.209517756016 L 1294 624 L 1283.837325142376 619.790482243984"/></g><g transform="translate(5,5) scale(1,1)"><path fill="none" stroke="#000000" d="M 1283.837325142376 628.209517756016 L 1294 624 L 1283.837325142376 619.790482243984 L 1283.837325142376 628.209517756016" stroke-miterlimit="10"/></g><g transform="translate(5,5) scale(1,1)"><g><path fill="none" stroke="none"/><text fill="#000000" stroke="none" font-family="Arial" font-size="13px" font-style="normal" font-weight="normal" text-decoration="none" x="947.5" y="620.5">13 : insert(track: Track, instrID: int, sessionID: int)</text></g></g><g transform="translate(5,5) scale(1,1)"><rect fill="#ffffff" stroke="none" x="1294" y="624" width="13" height="28"/></g><g transform="translate(5,5) scale(1,1)"><path fill="none" stroke="#000000" d="M 1294 624 L 1307 624 L 1307 652 L 1294 652 L 1294 624 Z Z" stroke-miterlimit="10"/></g><g transform="translate(5,5) scale(1,1)"><path fill="none" stroke="#000000" d="M 354 656 L 183 656" stroke-miterlimit="10"/></g><g transform="translate(5,5) scale(1,1)"><path fill="none" stroke="#000000" d="M 193.16267485762415 651.790482243984 L 183 656 L 193.16267485762415 660.209517756016" stroke-miterlimit="10"/></g><g transform="translate(5,5) scale(1,1)"><g><path fill="none" stroke="none"/><text fill="#000000" stroke="none" font-family="Arial" font-size="13px" font-style="normal" font-weight="normal" text-decoration="none" x="184.5" y="672.5">14 : viewSession(sessionID)</text></g></g><g transform="translate(5,5) scale(1,1)"><rect fill="#ffffff" stroke="none" x="170" y="656" width="13" height="28"/></g><g transform="translate(5,5) scale(1,1)"><path fill="none" stroke="#000000" d="M 170 656 L 183 656 L 183 684 L 170 684 L 170 656 Z Z" stroke-miterlimit="10"/></g></g></svg>