<svg version="1.1" xmlns="http://www.w3.org/2000/svg" xmlns:xlink="http://www.w3.org/1999/xlink" width="884" height="287"><defs/><g><g transform="translate(-6,-22) scale(1,1)"><rect fill="#C0C0C0" stroke="none" x="695" y="135" width="192" height="158" opacity="0.2"/></g><g transform="translate(-6,-22) scale(1,1)"><rect fill="#ffffff" stroke="none" x="688" y="128" width="192" height="158"/></g><g transform="translate(-6,-22) scale(1,1)"><path fill="none" stroke="#000000" d="M 688 128 L 880 128 L 880 286 L 688 286 L 688 128 Z Z" stroke-miterlimit="10"/></g><g transform="translate(-6,-22) scale(1,1)"><path fill="#ffffff" stroke="none" d="M 853.4 145 C 853.4 139.69806592 857.69806592 135.4 863 135.4 C 868.30193408 135.4 872.6 139.69806592 872.6 145 C 872.6 150.30193408 868.30193408 154.6 863 154.6 C 857.69806592 154.6 853.4 150.30193408 853.4 145 Z"/></g><g transform="translate(-6,-22) scale(1,1)"><path fill="none" stroke="#000000" d="M 853.4 145 C 853.4 139.69806592 857.69806592 135.4 863 135.4 C 868.30193408 135.4 872.6 139.69806592 872.6 145 C 872.6 150.30193408 868.30193408 154.6 863 154.6 C 857.69806592 154.6 853.4 150.30193408 853.4 145 Z" stroke-miterlimit="10"/></g><g transform="translate(-6,-22) scale(1,1)"><path fill="none" stroke="#000000" d="M 853.4 154.6 L 872.6 154.6" stroke-miterlimit="10"/></g><g transform="translate(-6,-22) scale(1,1)"><path fill="none" stroke="#000000" d="M 688 166 L 880 166" stroke-miterlimit="10"/></g><g transform="translate(-6,-22) scale(1,1)"><path fill="none" stroke="#000000" d="M 688 264 L 880 264" stroke-miterlimit="10"/></g><g transform="translate(-6,-22) scale(1,1)"><g><path fill="none" stroke="none"/><text fill="#000000" stroke="none" font-family="Arial" font-size="13px" font-style="normal" font-weight="normal" text-decoration="none" x="749" y="145.5">«entity»</text></g></g><g transform="translate(-6,-22) scale(1,1)"><g><path fill="none" stroke="none"/><text fill="#000000" stroke="none" font-family="Arial" font-size="13px" font-style="normal" font-weight="bold" text-decoration="none" x="748.5" y="160.5">Session</text></g></g><g transform="translate(-6,-22) scale(1,1)"><g><path fill="none" stroke="none"/><text fill="#000000" stroke="none" font-family="Arial" font-size="13px" font-style="normal" font-weight="normal" text-decoration="none" x="693" y="183.5">+id: integer {id, unique}</text></g></g><g transform="translate(-6,-22) scale(1,1)"><g><path fill="none" stroke="none"/><text fill="#000000" stroke="none" font-family="Arial" font-size="13px" font-style="normal" font-weight="normal" text-decoration="none" x="693" y="198.5">+tempo: integer = 120</text></g></g><g transform="translate(-6,-22) scale(1,1)"><g><path fill="none" stroke="none"/><text fill="#000000" stroke="none" font-family="Arial" font-size="13px" font-style="normal" font-weight="normal" text-decoration="none" x="693" y="213.5">+style: string</text></g></g><g transform="translate(-6,-22) scale(1,1)"><g><path fill="none" stroke="none"/><text fill="#000000" stroke="none" font-family="Arial" font-size="13px" font-style="normal" font-weight="normal" text-decoration="none" x="693" y="228.5">+label: string</text></g></g><g transform="translate(-6,-22) scale(1,1)"><g><path fill="none" stroke="none"/><text fill="#000000" stroke="none" font-family="Arial" font-size="13px" font-style="normal" font-weight="normal" text-decoration="none" x="693" y="243.5">+description: string</text></g></g><g transform="translate(-6,-22) scale(1,1)"><g><path fill="none" stroke="none"/><text fill="#000000" stroke="none" font-family="Arial" font-size="13px" font-style="normal" font-weight="normal" text-decoration="none" x="693" y="258.5">+live: boolean</text></g></g><g transform="translate(-6,-22) scale(1,1)"><g><path fill="none" stroke="none"/><text fill="#000000" stroke="none" font-family="Arial" font-size="13px" font-style="normal" font-weight="normal" text-decoration="none" x="693" y="281.5">+isLive(return: boolean)</text></g></g><g transform="translate(-6,-22) scale(1,1)"><rect fill="#C0C0C0" stroke="none" x="335" y="191" width="303" height="115" opacity="0.2"/></g><g transform="translate(-6,-22) scale(1,1)"><rect fill="#ffffff" stroke="none" x="328" y="184" width="303" height="115"/></g><g transform="translate(-6,-22) scale(1,1)"><path fill="none" stroke="#000000" d="M 328 184 L 631 184 L 631 299 L 328 299 L 328 184 Z Z" stroke-miterlimit="10"/></g><g transform="translate(-6,-22) scale(1,1)"><path fill="none" stroke="#000000" d="M 328 222 L 631 222" stroke-miterlimit="10"/></g><g transform="translate(-6,-22) scale(1,1)"><path fill="none" stroke="#000000" d="M 328 232 L 631 232" stroke-miterlimit="10"/></g><g transform="translate(-6,-22) scale(1,1)"><g><path fill="none" stroke="none"/><text fill="#000000" stroke="none" font-family="Arial" font-size="13px" font-style="normal" font-weight="normal" text-decoration="none" x="448.5" y="201.5">«lifecycle»</text></g></g><g transform="translate(-6,-22) scale(1,1)"><g><path fill="none" stroke="none"/><text fill="#000000" stroke="none" font-family="Arial" font-size="13px" font-style="normal" font-weight="bold" text-decoration="none" x="442" y="216.5">SessionDAO</text></g></g><g transform="translate(-6,-22) scale(1,1)"><g><path fill="none" stroke="none"/><text fill="#000000" stroke="none" font-family="Arial" font-size="13px" font-style="normal" font-weight="normal" text-decoration="none" x="333" y="249.5">+findByCriteria(): Collection {query}</text></g></g><g transform="translate(-6,-22) scale(1,1)"><g><path fill="none" stroke="none"/><text fill="#000000" stroke="none" font-family="Arial" font-size="13px" font-style="normal" font-weight="normal" text-decoration="none" x="333" y="264.5">+find(id: int)</text></g></g><g transform="translate(-6,-22) scale(1,1)"><g><path fill="none" stroke="none"/><text fill="#000000" stroke="none" font-family="Arial" font-size="13px" font-style="normal" font-weight="normal" text-decoration="none" x="333" y="279.5">+insert(session: Session): int {query, unique}</text></g></g><g transform="translate(-6,-22) scale(1,1)"><g><path fill="none" stroke="none"/><text fill="#000000" stroke="none" font-family="Arial" font-size="13px" font-style="normal" font-weight="normal" text-decoration="none" x="333" y="294.5">+update(session: Session)</text></g></g><g transform="translate(-6,-22) scale(1,1)"><rect fill="#C0C0C0" stroke="none" x="335" y="39" width="303" height="130" opacity="0.2"/></g><g transform="translate(-6,-22) scale(1,1)"><rect fill="#ffffff" stroke="none" x="328" y="32" width="303" height="130"/></g><g transform="translate(-6,-22) scale(1,1)"><path fill="none" stroke="#000000" d="M 328 32 L 631 32 L 631 162 L 328 162 L 328 32 Z Z" stroke-miterlimit="10"/></g><g transform="translate(-6,-22) scale(1,1)"><path fill="#ffffff" stroke="none" d="M 605 49 C 605 44.0294368 609.0294368 40 614 40 C 618.9705632 40 623 44.0294368 623 49 C 623 53.9705632 618.9705632 58 614 58 C 609.0294368 58 605 53.9705632 605 49 Z"/></g><g transform="translate(-6,-22) scale(1,1)"><path fill="none" stroke="#000000" d="M 605 49 C 605 44.0294368 609.0294368 40 614 40 C 618.9705632 40 623 44.0294368 623 49 C 623 53.9705632 618.9705632 58 614 58 C 609.0294368 58 605 53.9705632 605 49 Z" stroke-miterlimit="10"/></g><g transform="translate(-6,-22) scale(1,1)"><path fill="none" stroke="#000000" d="M 614 40 L 617 37" stroke-miterlimit="10"/></g><g transform="translate(-6,-22) scale(1,1)"><path fill="none" stroke="#000000" d="M 614 40 L 617 43" stroke-miterlimit="10"/></g><g transform="translate(-6,-22) scale(1,1)"><path fill="none" stroke="#000000" d="M 328 70 L 631 70" stroke-miterlimit="10"/></g><g transform="translate(-6,-22) scale(1,1)"><path fill="none" stroke="#000000" d="M 328 80 L 631 80" stroke-miterlimit="10"/></g><g transform="translate(-6,-22) scale(1,1)"><g><path fill="none" stroke="none"/><text fill="#000000" stroke="none" font-family="Arial" font-size="13px" font-style="normal" font-weight="normal" text-decoration="none" x="441" y="49.5">«control»</text></g></g><g transform="translate(-6,-22) scale(1,1)"><g><path fill="none" stroke="none"/><text fill="#000000" stroke="none" font-family="Arial" font-size="13px" font-style="normal" font-weight="bold" text-decoration="none" x="422" y="64.5">SessionService</text></g></g><g transform="translate(-6,-22) scale(1,1)"><g><path fill="none" stroke="none"/><text fill="#000000" stroke="none" font-family="Arial" font-size="13px" font-style="normal" font-weight="normal" text-decoration="none" x="333" y="97.5">+getSessions(): Collection</text></g></g><g transform="translate(-6,-22) scale(1,1)"><g><path fill="none" stroke="none"/><text fill="#000000" stroke="none" font-family="Arial" font-size="13px" font-style="normal" font-weight="normal" text-decoration="none" x="333" y="112.5">+getSession(id: integer): Session</text></g></g><g transform="translate(-6,-22) scale(1,1)"><g><path fill="none" stroke="none"/><text fill="#000000" stroke="none" font-family="Arial" font-size="13px" font-style="normal" font-weight="normal" text-decoration="none" x="333" y="127.5">+createSession()</text></g></g><g transform="translate(-6,-22) scale(1,1)"><g><path fill="none" stroke="none"/><text fill="#000000" stroke="none" font-family="Arial" font-size="13px" font-style="normal" font-weight="normal" text-decoration="none" x="333" y="142.5">+updateSession(sessionID: int)</text></g></g><g transform="translate(-6,-22) scale(1,1)"><g><path fill="none" stroke="none"/><text fill="#000000" stroke="none" font-family="Arial" font-size="13px" font-style="normal" font-weight="normal" text-decoration="none" x="333" y="157.5">+addInstrument(instrID: int, sessionID: int)</text></g></g><g transform="translate(-6,-22) scale(1,1)"><rect fill="#C0C0C0" stroke="none" x="23" y="39" width="232" height="145" opacity="0.2"/></g><g transform="translate(-6,-22) scale(1,1)"><rect fill="#ffffff" stroke="none" x="16" y="32" width="232" height="145"/></g><g transform="translate(-6,-22) scale(1,1)"><path fill="none" stroke="#000000" d="M 16 32 L 248 32 L 248 177 L 16 177 L 16 32 Z Z" stroke-miterlimit="10"/></g><g transform="translate(-6,-22) scale(1,1)"><path fill="#ffffff" stroke="none" d="M 223.8 49 C 223.8 43.698065920000005 228.09806592 39.4 233.4 39.4 C 238.70193408 39.4 243 43.698065920000005 243 49 C 243 54.301934079999995 238.70193408 58.599999999999994 233.4 58.599999999999994 C 228.09806592 58.599999999999994 223.8 54.301934079999995 223.8 49 Z"/></g><g transform="translate(-6,-22) scale(1,1)"><path fill="none" stroke="#000000" d="M 223.8 49 C 223.8 43.698065920000005 228.09806592 39.4 233.4 39.4 C 238.70193408 39.4 243 43.698065920000005 243 49 C 243 54.301934079999995 238.70193408 58.599999999999994 233.4 58.599999999999994 C 228.09806592 58.599999999999994 223.8 54.301934079999995 223.8 49 Z" stroke-miterlimit="10"/></g><g transform="translate(-6,-22) scale(1,1)"><path fill="none" stroke="#000000" d="M 219 39.4 L 219 58.599999999999994" stroke-miterlimit="10"/></g><g transform="translate(-6,-22) scale(1,1)"><path fill="none" stroke="#000000" d="M 219 49 L 223.8 49" stroke-miterlimit="10"/></g><g transform="translate(-6,-22) scale(1,1)"><path fill="none" stroke="#000000" d="M 16 70 L 248 70" stroke-miterlimit="10"/></g><g transform="translate(-6,-22) scale(1,1)"><path fill="none" stroke="#000000" d="M 16 80 L 248 80" stroke-miterlimit="10"/></g><g transform="translate(-6,-22) scale(1,1)"><g><path fill="none" stroke="none"/><text fill="#000000" stroke="none" font-family="Arial" font-size="13px" font-style="normal" font-weight="normal" text-decoration="none" x="86.5" y="49.5">«boundary»</text></g></g><g transform="translate(-6,-22) scale(1,1)"><g><path fill="none" stroke="none"/><text fill="#000000" stroke="none" font-family="Arial" font-size="13px" font-style="normal" font-weight="bold" text-decoration="none" x="69.5" y="64.5">SearchSessionUI</text></g></g><g transform="translate(-6,-22) scale(1,1)"><g><path fill="none" stroke="none"/><text fill="#000000" stroke="none" font-family="Arial" font-size="13px" font-style="normal" font-weight="normal" text-decoration="none" x="21" y="97.5">+displaySearchForm()</text></g></g><g transform="translate(-6,-22) scale(1,1)"><g><path fill="none" stroke="none"/><text fill="#000000" stroke="none" font-family="Arial" font-size="13px" font-style="normal" font-weight="normal" text-decoration="none" x="21" y="112.5">+enterSearchCriteria()</text></g></g><g transform="translate(-6,-22) scale(1,1)"><g><path fill="none" stroke="none"/><text fill="#000000" stroke="none" font-family="Arial" font-size="13px" font-style="normal" font-weight="normal" text-decoration="none" x="21" y="127.5">+submitSearchForm()</text></g></g><g transform="translate(-6,-22) scale(1,1)"><g><path fill="none" stroke="none"/><text fill="#000000" stroke="none" font-family="Arial" font-size="13px" font-style="normal" font-weight="normal" text-decoration="none" x="21" y="142.5">+displayResults()</text></g></g><g transform="translate(-6,-22) scale(1,1)"><g><path fill="none" stroke="none"/><text fill="#000000" stroke="none" font-family="Arial" font-size="13px" font-style="normal" font-weight="normal" text-decoration="none" x="21" y="157.5">+selectSessionToView()</text></g></g><g transform="translate(-6,-22) scale(1,1)"><g><path fill="none" stroke="none"/><text fill="#000000" stroke="none" font-family="Arial" font-size="13px" font-style="normal" font-weight="normal" text-decoration="none" x="21" y="172.5">+selectSessionToUpdate()</text></g></g><g transform="translate(-6,-22) scale(1,1)"><path fill="none" stroke="#000000" d="M 249 102 L 327 100" stroke-miterlimit="10"/></g><g transform="translate(-6,-22) scale(1,1)"><path fill="none" stroke="#000000" d="M 316.94856517138015 104.46863042620535 L 327 100 L 316.73276339504196 96.0523611490146" stroke-miterlimit="10"/></g><g transform="translate(-6,-22) scale(1,1)"><path fill="none" stroke="#000000" d="M 632 224 L 687 218" stroke-miterlimit="10" stroke-dasharray="3"/></g><g transform="translate(-6,-22) scale(1,1)"><path fill="none" stroke="#000000" d="M 677.3537745235557 223.28680754875714 L 687 218 L 676.4407510841974 214.91742602130617" stroke-miterlimit="10"/></g><g transform="translate(-6,-22) scale(1,1)"><path fill="none" stroke="#000000" d="M 479 163 L 479 183" stroke-miterlimit="10"/></g><g transform="translate(-6,-22) scale(1,1)"><path fill="none" stroke="#000000" d="M 474.790482243984 172.83732514237585 L 479 183 L 483.209517756016 172.83732514237585" stroke-miterlimit="10"/></g></g></svg>