<svg version="1.1" xmlns="http://www.w3.org/2000/svg" xmlns:xlink="http://www.w3.org/1999/xlink" width="818" height="748"><defs/><g><g transform="translate(-16,2) scale(1,1)"><rect fill="#C0C0C0" stroke="none" x="191" y="15" width="640" height="728" opacity="0.2"/></g><g transform="translate(-16,2) scale(1,1)"><rect fill="#ffffff" stroke="none" x="184" y="8" width="640" height="728"/></g><g transform="translate(-16,2) scale(1,1)"><path fill="none" stroke="#000000" d="M 184 8 L 824 8 L 824 736 L 184 736 L 184 8 Z Z" stroke-miterlimit="10"/></g><g transform="translate(-16,2) scale(1,1)"><g><path fill="none" stroke="none"/><text fill="#000000" stroke="none" font-family="Arial" font-size="13px" font-style="normal" font-weight="bold" text-decoration="none" x="481.5" y="27.5">System</text></g></g><g transform="translate(-16,2) scale(1,1)"><path fill="#ffffff" stroke="none" d="M 60.82072727272727 321.68 C 60.82072727272727 316.886167936 64.70656959767273 313 69.5 313 C 74.29343040232727 313 78.17927272727273 316.886167936 78.17927272727273 321.68 C 78.17927272727273 326.473832064 74.29343040232727 330.36 69.5 330.36 C 64.70656959767273 330.36 60.82072727272727 326.473832064 60.82072727272727 321.68 Z"/></g><g transform="translate(-16,2) scale(1,1)"><path fill="none" stroke="#000000" d="M 60.82072727272727 321.68 C 60.82072727272727 316.886167936 64.70656959767273 313 69.5 313 C 74.29343040232727 313 78.17927272727273 316.886167936 78.17927272727273 321.68 C 78.17927272727273 326.473832064 74.29343040232727 330.36 69.5 330.36 C 64.70656959767273 330.36 60.82072727272727 326.473832064 60.82072727272727 321.68 Z" stroke-miterlimit="10"/></g><g transform="translate(-16,2) scale(1,1)"><path fill="none" stroke="#000000" d="M 69.5 330.36 L 69.5 347.64" stroke-miterlimit="10"/></g><g transform="translate(-16,2) scale(1,1)"><path fill="none" stroke="#000000" d="M 60.31018181818182 336.84 L 78.68981818181818 336.84" stroke-miterlimit="10"/></g><g transform="translate(-16,2) scale(1,1)"><path fill="none" stroke="#000000" d="M 69.5 347.64 L 56.736363636363635 365" stroke-miterlimit="10"/></g><g transform="translate(-16,2) scale(1,1)"><path fill="none" stroke="#000000" d="M 69.5 347.64 L 82.26363636363637 365" stroke-miterlimit="10"/></g><g transform="translate(-16,2) scale(1,1)"><g><path fill="none" stroke="none"/><text fill="#000000" stroke="none" font-family="Arial" font-size="13px" font-style="normal" font-weight="bold" text-decoration="none" x="46" y="385.5">Jammer</text></g></g><g transform="translate(-16,2) scale(1,1)"><path fill="#C0C0C0" stroke="none" d="M 271 80 C 271 70.6111584 309.055792 63 356 63 C 402.944208 63 441 70.6111584 441 80 C 441 89.3888416 402.944208 97 356 97 C 309.055792 97 271 89.3888416 271 80 Z" opacity="0.2"/></g><g transform="translate(-16,2) scale(1,1)"><path fill="#ffffff" stroke="none" d="M 264 73 C 264 63.6111584 302.055792 56 349 56 C 395.944208 56 434 63.6111584 434 73 C 434 82.3888416 395.944208 90 349 90 C 302.055792 90 264 82.3888416 264 73 Z"/></g><g transform="translate(-16,2) scale(1,1)"><path fill="none" stroke="#000000" d="M 264 73 C 264 63.6111584 302.055792 56 349 56 C 395.944208 56 434 63.6111584 434 73 C 434 82.3888416 395.944208 90 349 90 C 302.055792 90 264 82.3888416 264 73 Z" stroke-miterlimit="10"/></g><g transform="translate(-16,2) scale(1,1)"><g><path fill="none" stroke="none"/><text fill="#000000" stroke="none" font-family="Arial" font-size="13px" font-style="normal" font-weight="bold" text-decoration="none" x="296" y="80">Create an account</text></g></g><g transform="translate(-16,2) scale(1,1)"><path fill="#ffffff" stroke="none" d="M 64.32072727272727 601.6800000000001 C 64.32072727272727 596.8861679360001 68.20656959767273 593 73 593 C 77.79343040232727 593 81.67927272727273 596.8861679360001 81.67927272727273 601.6800000000001 C 81.67927272727273 606.473832064 77.79343040232727 610.36 73 610.36 C 68.20656959767273 610.36 64.32072727272727 606.473832064 64.32072727272727 601.6800000000001 Z"/></g><g transform="translate(-16,2) scale(1,1)"><path fill="none" stroke="#000000" d="M 64.32072727272727 601.6800000000001 C 64.32072727272727 596.8861679360001 68.20656959767273 593 73 593 C 77.79343040232727 593 81.67927272727273 596.8861679360001 81.67927272727273 601.6800000000001 C 81.67927272727273 606.473832064 77.79343040232727 610.36 73 610.36 C 68.20656959767273 610.36 64.32072727272727 606.473832064 64.32072727272727 601.6800000000001 Z" stroke-miterlimit="10"/></g><g transform="translate(-16,2) scale(1,1)"><path fill="none" stroke="#000000" d="M 73 610.36 L 73 627.64" stroke-miterlimit="10"/></g><g transform="translate(-16,2) scale(1,1)"><path fill="none" stroke="#000000" d="M 63.81018181818182 616.84 L 82.18981818181818 616.84" stroke-miterlimit="10"/></g><g transform="translate(-16,2) scale(1,1)"><path fill="none" stroke="#000000" d="M 73 627.64 L 60.236363636363635 645" stroke-miterlimit="10"/></g><g transform="translate(-16,2) scale(1,1)"><path fill="none" stroke="#000000" d="M 73 627.64 L 85.76363636363637 645" stroke-miterlimit="10"/></g><g transform="translate(-16,2) scale(1,1)"><g><path fill="none" stroke="none"/><text fill="#000000" stroke="none" font-family="Arial" font-size="13px" font-style="normal" font-weight="bold" text-decoration="none" x="54.5" y="665.5">Admin</text></g></g><g transform="translate(-16,2) scale(1,1)"><path fill="#C0C0C0" stroke="none" d="M 591 448 C 591 438.6111584 638.6816688 431 697.5 431 C 756.3183312 431 804 438.6111584 804 448 C 804 457.3888416 756.3183312 465 697.5 465 C 638.6816688 465 591 457.3888416 591 448 Z" opacity="0.2"/></g><g transform="translate(-16,2) scale(1,1)"><path fill="#ffffff" stroke="none" d="M 584 441 C 584 431.6111584 631.6816688 424 690.5 424 C 749.3183312 424 797 431.6111584 797 441 C 797 450.3888416 749.3183312 458 690.5 458 C 631.6816688 458 584 450.3888416 584 441 Z"/></g><g transform="translate(-16,2) scale(1,1)"><path fill="none" stroke="#000000" d="M 584 441 C 584 431.6111584 631.6816688 424 690.5 424 C 749.3183312 424 797 431.6111584 797 441 C 797 450.3888416 749.3183312 458 690.5 458 C 631.6816688 458 584 450.3888416 584 441 Z" stroke-miterlimit="10"/></g><g transform="translate(-16,2) scale(1,1)"><g><path fill="none" stroke="none"/><text fill="#000000" stroke="none" font-family="Arial" font-size="13px" font-style="normal" font-weight="bold" text-decoration="none" x="624.5" y="448">Search for instruments</text></g></g><g transform="translate(-16,2) scale(1,1)"><path fill="#C0C0C0" stroke="none" d="M 295 216 C 295 206.6111584 330.81721600000003 199 375 199 C 419.18278399999997 199 455 206.6111584 455 216 C 455 225.3888416 419.18278399999997 233 375 233 C 330.81721600000003 233 295 225.3888416 295 216 Z" opacity="0.2"/></g><g transform="translate(-16,2) scale(1,1)"><path fill="#ffffff" stroke="none" d="M 288 209 C 288 199.6111584 323.81721600000003 192 368 192 C 412.18278399999997 192 448 199.6111584 448 209 C 448 218.3888416 412.18278399999997 226 368 226 C 323.81721600000003 226 288 218.3888416 288 209 Z"/></g><g transform="translate(-16,2) scale(1,1)"><path fill="none" stroke="#000000" d="M 288 209 C 288 199.6111584 323.81721600000003 192 368 192 C 412.18278399999997 192 448 199.6111584 448 209 C 448 218.3888416 412.18278399999997 226 368 226 C 323.81721600000003 226 288 218.3888416 288 209 Z" stroke-miterlimit="10"/></g><g transform="translate(-16,2) scale(1,1)"><g><path fill="none" stroke="none"/><text fill="#000000" stroke="none" font-family="Arial" font-size="13px" font-style="normal" font-weight="bold" text-decoration="none" x="348" y="216">Sign in</text></g></g><g transform="translate(-16,2) scale(1,1)"><path fill="none" stroke="#000000" d="M 100 336 L 330 227" stroke-miterlimit="10"/></g><g transform="translate(-16,2) scale(1,1)"><path fill="#ffffff" stroke="none" d="M 61.82072727272727 41.68 C 61.82072727272727 36.886167936 65.70656959767273 33 70.5 33 C 75.29343040232727 33 79.17927272727273 36.886167936 79.17927272727273 41.68 C 79.17927272727273 46.473832064 75.29343040232727 50.36 70.5 50.36 C 65.70656959767273 50.36 61.82072727272727 46.473832064 61.82072727272727 41.68 Z"/></g><g transform="translate(-16,2) scale(1,1)"><path fill="none" stroke="#000000" d="M 61.82072727272727 41.68 C 61.82072727272727 36.886167936 65.70656959767273 33 70.5 33 C 75.29343040232727 33 79.17927272727273 36.886167936 79.17927272727273 41.68 C 79.17927272727273 46.473832064 75.29343040232727 50.36 70.5 50.36 C 65.70656959767273 50.36 61.82072727272727 46.473832064 61.82072727272727 41.68 Z" stroke-miterlimit="10"/></g><g transform="translate(-16,2) scale(1,1)"><path fill="none" stroke="#000000" d="M 70.5 50.36 L 70.5 67.64" stroke-miterlimit="10"/></g><g transform="translate(-16,2) scale(1,1)"><path fill="none" stroke="#000000" d="M 61.31018181818182 56.84 L 79.68981818181818 56.84" stroke-miterlimit="10"/></g><g transform="translate(-16,2) scale(1,1)"><path fill="none" stroke="#000000" d="M 70.5 67.64 L 57.736363636363635 85" stroke-miterlimit="10"/></g><g transform="translate(-16,2) scale(1,1)"><path fill="none" stroke="#000000" d="M 70.5 67.64 L 83.26363636363637 85" stroke-miterlimit="10"/></g><g transform="translate(-16,2) scale(1,1)"><g><path fill="none" stroke="none"/><text fill="#000000" stroke="none" font-family="Arial" font-size="13px" font-style="normal" font-weight="bold" text-decoration="none" x="57" y="105.5">User</text></g></g><g transform="translate(-16,2) scale(1,1)"><path fill="none" stroke="#000000" d="M 94 71 L 263 72" stroke-miterlimit="10"/></g><g transform="translate(-16,2) scale(1,1)"><path fill="#ffffff" stroke="none" d="M 61.82072727272727 169.68 C 61.82072727272727 164.886167936 65.70656959767273 161 70.5 161 C 75.29343040232727 161 79.17927272727273 164.886167936 79.17927272727273 169.68 C 79.17927272727273 174.47383206400002 75.29343040232727 178.36 70.5 178.36 C 65.70656959767273 178.36 61.82072727272727 174.47383206400002 61.82072727272727 169.68 Z"/></g><g transform="translate(-16,2) scale(1,1)"><path fill="none" stroke="#000000" d="M 61.82072727272727 169.68 C 61.82072727272727 164.886167936 65.70656959767273 161 70.5 161 C 75.29343040232727 161 79.17927272727273 164.886167936 79.17927272727273 169.68 C 79.17927272727273 174.47383206400002 75.29343040232727 178.36 70.5 178.36 C 65.70656959767273 178.36 61.82072727272727 174.47383206400002 61.82072727272727 169.68 Z" stroke-miterlimit="10"/></g><g transform="translate(-16,2) scale(1,1)"><path fill="none" stroke="#000000" d="M 70.5 178.36 L 70.5 195.64" stroke-miterlimit="10"/></g><g transform="translate(-16,2) scale(1,1)"><path fill="none" stroke="#000000" d="M 61.31018181818182 184.84 L 79.68981818181818 184.84" stroke-miterlimit="10"/></g><g transform="translate(-16,2) scale(1,1)"><path fill="none" stroke="#000000" d="M 70.5 195.64 L 57.736363636363635 213" stroke-miterlimit="10"/></g><g transform="translate(-16,2) scale(1,1)"><path fill="none" stroke="#000000" d="M 70.5 195.64 L 83.26363636363637 213" stroke-miterlimit="10"/></g><g transform="translate(-16,2) scale(1,1)"><g><path fill="none" stroke="none"/><text fill="#000000" stroke="none" font-family="Arial" font-size="13px" font-style="normal" font-weight="bold" text-decoration="none" x="32.5" y="233.5">Generic User</text></g></g><g transform="translate(-16,2) scale(1,1)"><path fill="none" stroke="#000000" d="M 70 112 L 70 159" stroke-miterlimit="10"/></g><g transform="translate(-16,2) scale(1,1)"><path fill="#FFFFFF" stroke="none" d="M 61.580964487968025 138.6746502847517 L 70 159 L 78.41903551203198 138.6746502847517"/></g><g transform="translate(-16,2) scale(1,1)"><path fill="none" stroke="#000000" d="M 61.580964487968025 138.6746502847517 L 70 159 L 78.41903551203198 138.6746502847517 L 61.580964487968025 138.6746502847517" stroke-miterlimit="10"/></g><g transform="translate(-16,2) scale(1,1)"><path fill="none" stroke="#000000" d="M 69 311 L 70 240" stroke-miterlimit="10"/></g><g transform="translate(-16,2) scale(1,1)"><path fill="#FFFFFF" stroke="none" d="M 78.13195643915422 260.4419002167533 L 70 240 L 61.29555527883455 260.2047678060446"/></g><g transform="translate(-16,2) scale(1,1)"><path fill="none" stroke="#000000" d="M 78.13195643915422 260.4419002167533 L 70 240 L 61.29555527883455 260.2047678060446 L 78.13195643915422 260.4419002167533" stroke-miterlimit="10"/></g><g transform="translate(-16,2) scale(1,1)"><path fill="#C0C0C0" stroke="none" d="M 239 144 C 239 134.6111584 294.2928272 127 362.5 127 C 430.7071728 127 486 134.6111584 486 144 C 486 153.3888416 430.7071728 161 362.5 161 C 294.2928272 161 239 153.3888416 239 144 Z" opacity="0.2"/></g><g transform="translate(-16,2) scale(1,1)"><path fill="#ffffff" stroke="none" d="M 232 137 C 232 127.6111584 287.2928272 120 355.5 120 C 423.7071728 120 479 127.6111584 479 137 C 479 146.3888416 423.7071728 154 355.5 154 C 287.2928272 154 232 146.3888416 232 137 Z"/></g><g transform="translate(-16,2) scale(1,1)"><path fill="none" stroke="#000000" d="M 232 137 C 232 127.6111584 287.2928272 120 355.5 120 C 423.7071728 120 479 127.6111584 479 137 C 479 146.3888416 423.7071728 154 355.5 154 C 287.2928272 154 232 146.3888416 232 137 Z" stroke-miterlimit="10"/></g><g transform="translate(-16,2) scale(1,1)"><g><path fill="none" stroke="none"/><text fill="#000000" stroke="none" font-family="Arial" font-size="13px" font-style="normal" font-weight="bold" text-decoration="none" x="295.5" y="144">Search for  sessions</text></g></g><g transform="translate(-16,2) scale(1,1)"><path fill="none" stroke="#000000" d="M 116 189 L 272 155" stroke-miterlimit="10"/></g><g transform="translate(-16,2) scale(1,1)"><path fill="#C0C0C0" stroke="none" d="M 327 360 C 327 350.6111584 363.7126464 343 409 343 C 454.2873536 343 491 350.6111584 491 360 C 491 369.3888416 454.2873536 377 409 377 C 363.7126464 377 327 369.3888416 327 360 Z" opacity="0.2"/></g><g transform="translate(-16,2) scale(1,1)"><path fill="#ffffff" stroke="none" d="M 320 353 C 320 343.6111584 356.7126464 336 402 336 C 447.2873536 336 484 343.6111584 484 353 C 484 362.3888416 447.2873536 370 402 370 C 356.7126464 370 320 362.3888416 320 353 Z"/></g><g transform="translate(-16,2) scale(1,1)"><path fill="none" stroke="#000000" d="M 320 353 C 320 343.6111584 356.7126464 336 402 336 C 447.2873536 336 484 343.6111584 484 353 C 484 362.3888416 447.2873536 370 402 370 C 356.7126464 370 320 362.3888416 320 353 Z" stroke-miterlimit="10"/></g><g transform="translate(-16,2) scale(1,1)"><g><path fill="none" stroke="none"/><text fill="#000000" stroke="none" font-family="Arial" font-size="13px" font-style="normal" font-weight="bold" text-decoration="none" x="351" y="360">Manage sessions</text></g></g><g transform="translate(-16,2) scale(1,1)"><path fill="none" stroke="#000000" d="M 100 351 L 319 353" stroke-miterlimit="10"/></g><g transform="translate(-16,2) scale(1,1)"><path fill="none" stroke="#000000" d="M 72 591 L 70 392" stroke-miterlimit="10"/></g><g transform="translate(-16,2) scale(1,1)"><path fill="#FFFFFF" stroke="none" d="M 78.62287490680283 412.2397141368555 L 70 392 L 61.785654204475826 412.4089324353714"/></g><g transform="translate(-16,2) scale(1,1)"><path fill="none" stroke="#000000" d="M 78.62287490680283 412.2397141368555 L 70 392 L 61.785654204475826 412.4089324353714 L 78.62287490680283 412.2397141368555" stroke-miterlimit="10"/></g><g transform="translate(-16,2) scale(1,1)"><path fill="#C0C0C0" stroke="none" d="M 599 312 C 599 302.6111584 640.8613712 295 692.5 295 C 744.1386288 295 786 302.6111584 786 312 C 786 321.3888416 744.1386288 329 692.5 329 C 640.8613712 329 599 321.3888416 599 312 Z" opacity="0.2"/></g><g transform="translate(-16,2) scale(1,1)"><path fill="#ffffff" stroke="none" d="M 592 305 C 592 295.6111584 633.8613712 288 685.5 288 C 737.1386288 288 779 295.6111584 779 305 C 779 314.3888416 737.1386288 322 685.5 322 C 633.8613712 322 592 314.3888416 592 305 Z"/></g><g transform="translate(-16,2) scale(1,1)"><path fill="none" stroke="#000000" d="M 592 305 C 592 295.6111584 633.8613712 288 685.5 288 C 737.1386288 288 779 295.6111584 779 305 C 779 314.3888416 737.1386288 322 685.5 322 C 633.8613712 322 592 314.3888416 592 305 Z" stroke-miterlimit="10"/></g><g transform="translate(-16,2) scale(1,1)"><g><path fill="none" stroke="none"/><text fill="#000000" stroke="none" font-family="Arial" font-size="13px" font-style="normal" font-weight="bold" text-decoration="none" x="626.5" y="312">Set sessions as live</text></g></g><g transform="translate(-16,2) scale(1,1)"><path fill="none" stroke="#000000" d="M 591 321 L 485 339" stroke-miterlimit="10" stroke-dasharray="3"/></g><g transform="translate(-16,2) scale(1,1)"><path fill="none" stroke="#000000" d="M 494.3145094521239 333.14851184173676 L 485 339 L 495.72397975376373 341.4487258402823" stroke-miterlimit="10"/></g><g transform="translate(-16,2) scale(1,1)"><g><path fill="none" stroke="none"/><text fill="#000000" stroke="none" font-family="Arial" font-size="13px" font-style="normal" font-weight="normal" text-decoration="none" x="531.5" y="344.5">«extend»</text></g></g><g transform="translate(-16,2) scale(1,1)"><path fill="none" stroke="#000000" d="M 100 355 L 583 425" stroke-miterlimit="10"/></g><g transform="translate(-16,2) scale(1,1)"><path fill="#C0C0C0" stroke="none" d="M 223 576 C 223 566.6111584 268.890808 559 325.5 559 C 382.109192 559 428 566.6111584 428 576 C 428 585.3888416 382.109192 593 325.5 593 C 268.890808 593 223 585.3888416 223 576 Z" opacity="0.2"/></g><g transform="translate(-16,2) scale(1,1)"><path fill="#ffffff" stroke="none" d="M 216 569 C 216 559.6111584 261.890808 552 318.5 552 C 375.109192 552 421 559.6111584 421 569 C 421 578.3888416 375.109192 586 318.5 586 C 261.890808 586 216 578.3888416 216 569 Z"/></g><g transform="translate(-16,2) scale(1,1)"><path fill="none" stroke="#000000" d="M 216 569 C 216 559.6111584 261.890808 552 318.5 552 C 375.109192 552 421 559.6111584 421 569 C 421 578.3888416 375.109192 586 318.5 586 C 261.890808 586 216 578.3888416 216 569 Z" stroke-miterlimit="10"/></g><g transform="translate(-16,2) scale(1,1)"><g><path fill="none" stroke="none"/><text fill="#000000" stroke="none" font-family="Arial" font-size="13px" font-style="normal" font-weight="bold" text-decoration="none" x="258" y="576">Create an instrument</text></g></g><g transform="translate(-16,2) scale(1,1)"><path fill="#C0C0C0" stroke="none" d="M 391 624 C 391 614.6111584 435.9953776 607 491.5 607 C 547.0046224 607 592 614.6111584 592 624 C 592 633.3888416 547.0046224 641 491.5 641 C 435.9953776 641 391 633.3888416 391 624 Z" opacity="0.2"/></g><g transform="translate(-16,2) scale(1,1)"><path fill="#ffffff" stroke="none" d="M 384 617 C 384 607.6111584 428.9953776 600 484.5 600 C 540.0046224 600 585 607.6111584 585 617 C 585 626.3888416 540.0046224 634 484.5 634 C 428.9953776 634 384 626.3888416 384 617 Z"/></g><g transform="translate(-16,2) scale(1,1)"><path fill="none" stroke="#000000" d="M 384 617 C 384 607.6111584 428.9953776 600 484.5 600 C 540.0046224 600 585 607.6111584 585 617 C 585 626.3888416 540.0046224 634 484.5 634 C 428.9953776 634 384 626.3888416 384 617 Z" stroke-miterlimit="10"/></g><g transform="translate(-16,2) scale(1,1)"><g><path fill="none" stroke="none"/><text fill="#000000" stroke="none" font-family="Arial" font-size="13px" font-style="normal" font-weight="bold" text-decoration="none" x="422.5" y="624">Update an instrument</text></g></g><g transform="translate(-16,2) scale(1,1)"><path fill="none" stroke="#000000" d="M 100 378 L 297 551" stroke-miterlimit="10"/></g><g transform="translate(-16,2) scale(1,1)"><path fill="none" stroke="#000000" d="M 99 630 L 383 620" stroke-miterlimit="10"/></g><g transform="translate(-16,2) scale(1,1)"><path fill="none" stroke="#000000" d="M 505 599 L 669 459" stroke-miterlimit="10" stroke-dasharray="3"/></g><g transform="translate(-16,2) scale(1,1)"><path fill="none" stroke="#000000" d="M 664.0037117724933 468.79985224111454 L 669 459 L 658.5375487392492 462.39663268788576" stroke-miterlimit="10"/></g><g transform="translate(-16,2) scale(1,1)"><g><path fill="none" stroke="none"/><text fill="#000000" stroke="none" font-family="Arial" font-size="13px" font-style="normal" font-weight="normal" text-decoration="none" x="589.5" y="550.5">«include»</text></g></g><g transform="translate(-16,2) scale(1,1)"><path fill="none" stroke="#000000" d="M 461 371 L 631 423" stroke-miterlimit="10" stroke-dasharray="3"/></g><g transform="translate(-16,2) scale(1,1)"><path fill="none" stroke="#000000" d="M 620.0504956908513 424.0527845857224 L 631 423 L 622.5131001326766 416.0019623720626" stroke-miterlimit="10"/></g><g transform="translate(-16,2) scale(1,1)"><g><path fill="none" stroke="none"/><text fill="#000000" stroke="none" font-family="Arial" font-size="13px" font-style="normal" font-weight="normal" text-decoration="none" x="522.5" y="399.5">«include»</text></g></g><g transform="translate(-16,2) scale(1,1)"><path fill="#C0C0C0" stroke="none" d="M 551 696 C 551 686.6111584 598.2339536 679 656.5 679 C 714.7660464 679 762 686.6111584 762 696 C 762 705.3888416 714.7660464 713 656.5 713 C 598.2339536 713 551 705.3888416 551 696 Z" opacity="0.2"/></g><g transform="translate(-16,2) scale(1,1)"><path fill="#ffffff" stroke="none" d="M 544 689 C 544 679.6111584 591.2339536 672 649.5 672 C 707.7660464 672 755 679.6111584 755 689 C 755 698.3888416 707.7660464 706 649.5 706 C 591.2339536 706 544 698.3888416 544 689 Z"/></g><g transform="translate(-16,2) scale(1,1)"><path fill="none" stroke="#000000" d="M 544 689 C 544 679.6111584 591.2339536 672 649.5 672 C 707.7660464 672 755 679.6111584 755 689 C 755 698.3888416 707.7660464 706 649.5 706 C 591.2339536 706 544 698.3888416 544 689 Z" stroke-miterlimit="10"/></g><g transform="translate(-16,2) scale(1,1)"><g><path fill="none" stroke="none"/><text fill="#000000" stroke="none" font-family="Arial" font-size="13px" font-style="normal" font-weight="bold" text-decoration="none" x="584.5" y="696">Validate an instrument</text></g></g><g transform="translate(-16,2) scale(1,1)"><path fill="none" stroke="#000000" d="M 99 634 L 543 678" stroke-miterlimit="10"/></g><g transform="translate(-16,2) scale(1,1)"><path fill="none" stroke="#000000" d="M 652 671 L 687 459" stroke-miterlimit="10" stroke-dasharray="3"/></g><g transform="translate(-16,2) scale(1,1)"><path fill="none" stroke="#000000" d="M 689.4979048901728 469.7126313835421 L 687 459 L 681.1913111909457 468.3412597822546" stroke-miterlimit="10"/></g><g transform="translate(-16,2) scale(1,1)"><g><path fill="none" stroke="none"/><text fill="#000000" stroke="none" font-family="Arial" font-size="13px" font-style="normal" font-weight="normal" text-decoration="none" x="641.5" y="578.5">«include»</text></g></g><g transform="translate(-16,2) scale(1,1)"><path fill="#C0C0C0" stroke="none" d="M 319 288 C 319 278.6111584 364.6669504 271 421 271 C 477.3330496 271 523 278.6111584 523 288 C 523 297.3888416 477.3330496 305 421 305 C 364.6669504 305 319 297.3888416 319 288 Z" opacity="0.2"/></g><g transform="translate(-16,2) scale(1,1)"><path fill="#ffffff" stroke="none" d="M 312 281 C 312 271.6111584 357.6669504 264 414 264 C 470.3330496 264 516 271.6111584 516 281 C 516 290.3888416 470.3330496 298 414 298 C 357.6669504 298 312 290.3888416 312 281 Z"/></g><g transform="translate(-16,2) scale(1,1)"><path fill="none" stroke="#000000" d="M 312 281 C 312 271.6111584 357.6669504 264 414 264 C 470.3330496 264 516 271.6111584 516 281 C 516 290.3888416 470.3330496 298 414 298 C 357.6669504 298 312 290.3888416 312 281 Z" stroke-miterlimit="10"/></g><g transform="translate(-16,2) scale(1,1)"><g><path fill="none" stroke="none"/><text fill="#000000" stroke="none" font-family="Arial" font-size="13px" font-style="normal" font-weight="bold" text-decoration="none" x="352" y="288">Submit an instrument</text></g></g><g transform="translate(-16,2) scale(1,1)"><path fill="none" stroke="#000000" d="M 100 345 L 325 299" stroke-miterlimit="10"/></g><g transform="translate(-16,2) scale(1,1)"><path fill="#C0C0C0" stroke="none" d="M 223 432 C 223 422.6111584 268.6669504 415 325 415 C 381.3330496 415 427 422.6111584 427 432 C 427 441.3888416 381.3330496 449 325 449 C 268.6669504 449 223 441.3888416 223 432 Z" opacity="0.2"/></g><g transform="translate(-16,2) scale(1,1)"><path fill="#ffffff" stroke="none" d="M 216 425 C 216 415.6111584 261.6669504 408 318 408 C 374.3330496 408 420 415.6111584 420 425 C 420 434.3888416 374.3330496 442 318 442 C 261.6669504 442 216 434.3888416 216 425 Z"/></g><g transform="translate(-16,2) scale(1,1)"><path fill="none" stroke="#000000" d="M 216 425 C 216 415.6111584 261.6669504 408 318 408 C 374.3330496 408 420 415.6111584 420 425 C 420 434.3888416 374.3330496 442 318 442 C 261.6669504 442 216 434.3888416 216 425 Z" stroke-miterlimit="10"/></g><g transform="translate(-16,2) scale(1,1)"><g><path fill="none" stroke="none"/><text fill="#000000" stroke="none" font-family="Arial" font-size="13px" font-style="normal" font-weight="bold" text-decoration="none" x="256" y="432">Submit an instrument</text></g></g><g transform="translate(-16,2) scale(1,1)"><path fill="none" stroke="#000000" d="M 318 443 L 318 551" stroke-miterlimit="10" stroke-dasharray="3"/></g><g transform="translate(-16,2) scale(1,1)"><path fill="none" stroke="#000000" d="M 313.790482243984 540.8373251423759 L 318 551 L 322.209517756016 540.8373251423759" stroke-miterlimit="10"/></g><g transform="translate(-16,2) scale(1,1)"><g><path fill="none" stroke="none"/><text fill="#000000" stroke="none" font-family="Arial" font-size="13px" font-style="normal" font-weight="normal" text-decoration="none" x="287.5" y="467.5">«extend»</text></g></g><g transform="translate(-16,2) scale(1,1)"><path fill="#ffffff" stroke="none" d="M 368 488 L 557 488 L 567 498 L 567 519 L 368 519 L 368 488"/></g><g transform="translate(-16,2) scale(1,1)"><path fill="none" stroke="#000000" d="M 368 488 L 557 488 L 567 498 L 567 519 L 368 519 L 368 488 L 368 488" stroke-miterlimit="10"/></g><g transform="translate(-16,2) scale(1,1)"><path fill="none" stroke="#000000" d="M 557 488 L 557 498 L 567 498 L 557 488" stroke-miterlimit="10"/></g><g transform="translate(-16,2) scale(1,1)"><g><path fill="none" stroke="none"/><text fill="#000000" stroke="none" font-family="Arial" font-size="13px" font-style="normal" font-weight="normal" text-decoration="none" x="373" y="506">Condition : {actor = not Admin}</text></g></g><g transform="translate(-16,2) scale(1,1)"><path fill="none" stroke="#000000" d="M 367 499 L 318 497" stroke-miterlimit="10" stroke-dasharray="3"/></g></g></svg>